<?xml version="1.0" encoding="UTF-8"?>
<svg xmlns="http://www.w3.org/2000/svg" xmlns:xlink="http://www.w3.org/1999/xlink" viewBox="0 0 132.05 194.04">
  <defs>
    <style>
      .cls-1 {
        fill: #542a8d;
      }

      .cls-2 {
        fill: url(#_Áåçûìÿííûé_ãðàäèåíò_450-2);
      }

      .cls-3 {
        fill: url(#_Áåçûìÿííûé_ãðàäèåíò_870-3);
      }

      .cls-4 {
        fill: url(#_Áåçûìÿííûé_ãðàäèåíò_872);
      }

      .cls-4, .cls-5, .cls-6, .cls-7, .cls-8, .cls-9, .cls-10, .cls-11 {
        mix-blend-mode: multiply;
      }

      .cls-4, .cls-5, .cls-6, .cls-8, .cls-9 {
        opacity: .97;
      }

      .cls-12 {
        fill: url(#_Áåçûìÿííûé_ãðàäèåíò_519);
      }

      .cls-13 {
        fill: url(#_Áåçûìÿííûé_ãðàäèåíò_535);
      }

      .cls-14 {
        fill: #fff;
      }

      .cls-15 {
        fill: url(#_Áåçûìÿííûé_ãðàäèåíò_877-3);
      }

      .cls-5 {
        fill: url(#_Áåçûìÿííûé_ãðàäèåíò_871);
      }

      .cls-6 {
        fill: url(#_Áåçûìÿííûé_ãðàäèåíò_870);
      }

      .cls-16 {
        fill: url(#_Áåçûìÿííûé_ãðàäèåíò_878);
      }

      .cls-17 {
        fill: #ffebed;
      }

      .cls-18 {
        fill: url(#_Áåçûìÿííûé_ãðàäèåíò_514-3);
      }

      .cls-19 {
        fill: #9f3e8b;
      }

      .cls-20 {
        fill: url(#_Áåçûìÿííûé_ãðàäèåíò_525-2);
      }

      .cls-7 {
        fill: url(#_Áåçûìÿííûé_ãðàäèåíò_874-2);
      }

      .cls-7, .cls-10, .cls-11 {
        opacity: .5;
      }

      .cls-21 {
        isolation: isolate;
      }

      .cls-22 {
        fill: url(#_Áåçûìÿííûé_ãðàäèåíò_508-7);
      }

      .cls-23 {
        fill: url(#_Áåçûìÿííûé_ãðàäèåíò_525);
      }

      .cls-24 {
        fill: url(#_Áåçûìÿííûé_ãðàäèåíò_450);
      }

      .cls-25 {
        fill: url(#_Áåçûìÿííûé_ãðàäèåíò_876);
      }

      .cls-26 {
        fill: url(#_Áåçûìÿííûé_ãðàäèåíò_875-2);
      }

      .cls-27 {
        fill: url(#_Áåçûìÿííûé_ãðàäèåíò_508-9);
      }

      .cls-28 {
        fill: url(#_Áåçûìÿííûé_ãðàäèåíò_880);
      }

      .cls-8 {
        fill: url(#_Áåçûìÿííûé_ãðàäèåíò_870-2);
      }

      .cls-29 {
        fill: url(#_Áåçûìÿííûé_ãðàäèåíò_873-3);
      }

      .cls-30 {
        fill: url(#_Áåçûìÿííûé_ãðàäèåíò_518);
      }

      .cls-31 {
        fill: url(#_Áåçûìÿííûé_ãðàäèåíò_879);
      }

      .cls-32 {
        fill: url(#_Áåçûìÿííûé_ãðàäèåíò_875);
      }

      .cls-33 {
        fill: url(#_Áåçûìÿííûé_ãðàäèåíò_525-3);
      }

      .cls-34 {
        fill: url(#_Áåçûìÿííûé_ãðàäèåíò_508-2);
      }

      .cls-35 {
        fill: url(#_Áåçûìÿííûé_ãðàäèåíò_514-6);
      }

      .cls-36 {
        fill: url(#_Áåçûìÿííûé_ãðàäèåíò_873-2);
      }

      .cls-37 {
        fill: url(#_Áåçûìÿííûé_ãðàäèåíò_877-2);
      }

      .cls-38 {
        fill: url(#_Áåçûìÿííûé_ãðàäèåíò_514-4);
      }

      .cls-39 {
        fill: url(#_Áåçûìÿííûé_ãðàäèåíò_508-3);
      }

      .cls-40 {
        fill: url(#_Áåçûìÿííûé_ãðàäèåíò_508-8);
      }

      .cls-41 {
        fill: #9f4a8b;
      }

      .cls-42 {
        fill: url(#_Áåçûìÿííûé_ãðàäèåíò_873);
      }

      .cls-43 {
        fill: url(#_Áåçûìÿííûé_ãðàäèåíò_508-4);
      }

      .cls-44 {
        fill: url(#_Áåçûìÿííûé_ãðàäèåíò_870-4);
      }

      .cls-9 {
        fill: url(#_Áåçûìÿííûé_ãðàäèåíò_32);
      }

      .cls-45 {
        fill: url(#_Áåçûìÿííûé_ãðàäèåíò_518-3);
      }

      .cls-46 {
        fill: url(#_Áåçûìÿííûé_ãðàäèåíò_508);
      }

      .cls-47 {
        fill: url(#_Áåçûìÿííûé_ãðàäèåíò_514);
      }

      .cls-48 {
        fill: #77485e;
      }

      .cls-10 {
        fill: url(#_Áåçûìÿííûé_ãðàäèåíò_222);
      }

      .cls-49 {
        fill: url(#_Áåçûìÿííûé_ãðàäèåíò_508-5);
      }

      .cls-50 {
        fill: url(#_Áåçûìÿííûé_ãðàäèåíò_526);
      }

      .cls-51 {
        fill: url(#_Áåçûìÿííûé_ãðàäèåíò_514-2);
      }

      .cls-52 {
        fill: url(#_Áåçûìÿííûé_ãðàäèåíò_508-6);
      }

      .cls-11 {
        fill: url(#_Áåçûìÿííûé_ãðàäèåíò_874);
      }

      .cls-53 {
        fill: url(#_Áåçûìÿííûé_ãðàäèåíò_514-5);
      }

      .cls-54 {
        fill: url(#_Áåçûìÿííûé_ãðàäèåíò_877);
      }

      .cls-55 {
        fill: #522f2e;
      }

      .cls-56 {
        fill: url(#_Áåçûìÿííûé_ãðàäèåíò_518-2);
      }
    </style>
    <linearGradient id="_Áåçûìÿííûé_ãðàäèåíò_514" data-name="Áåçûìÿííûé ãðàäèåíò 514" x1="58.69" y1="194.04" x2="58.69" y2="166.65" gradientUnits="userSpaceOnUse">
      <stop offset=".02" stop-color="#ffc2a9"/>
      <stop offset="1" stop-color="#ff9595"/>
    </linearGradient>
    <linearGradient id="_Áåçûìÿííûé_ãðàäèåíò_514-2" data-name="Áåçûìÿííûé ãðàäèåíò 514" x1="118.49" y1="191.65" x2="118.49" y2="172.39" xlink:href="#_Áåçûìÿííûé_ãðàäèåíò_514"/>
    <linearGradient id="_Áåçûìÿííûé_ãðàäèåíò_514-3" data-name="Áåçûìÿííûé ãðàäèåíò 514" x1="86.07" y1="110.69" x2="86.07" y2="96.7" xlink:href="#_Áåçûìÿííûé_ãðàäèåíò_514"/>
    <linearGradient id="_Áåçûìÿííûé_ãðàäèåíò_880" data-name="Áåçûìÿííûé ãðàäèåíò 880" x1="88.15" y1="176.41" x2="88.15" y2="103.7" gradientUnits="userSpaceOnUse">
      <stop offset="0" stop-color="#ae4245"/>
      <stop offset="1" stop-color="#ba5a42"/>
    </linearGradient>
    <linearGradient id="_Áåçûìÿííûé_ãðàäèåíò_508" data-name="Áåçûìÿííûé ãðàäèåíò 508" x1="71.38" y1="65.12" x2="83.96" y2="65.12" gradientUnits="userSpaceOnUse">
      <stop offset="0" stop-color="#ff817f"/>
      <stop offset="1" stop-color="#cf6074"/>
    </linearGradient>
    <linearGradient id="_Áåçûìÿííûé_ãðàäèåíò_514-4" data-name="Áåçûìÿííûé ãðàäèåíò 514" x1="65.36" y1="62.84" x2="65.36" y2="13.29" xlink:href="#_Áåçûìÿííûé_ãðàäèåíò_514"/>
    <linearGradient id="_Áåçûìÿííûé_ãðàäèåíò_525" data-name="Áåçûìÿííûé ãðàäèåíò 525" x1="62.71" y1="62.84" x2="62.71" y2="13.29" gradientUnits="userSpaceOnUse">
      <stop offset=".02" stop-color="#ffa58b"/>
      <stop offset="1" stop-color="#ff898e"/>
    </linearGradient>
    <linearGradient id="_Áåçûìÿííûé_ãðàäèåíò_526" data-name="Áåçûìÿííûé ãðàäèåíò 526" x1="72.55" y1="-120.75" x2="72.55" y2="-134.42" gradientTransform="translate(5.99 198.01) rotate(-11.76)" gradientUnits="userSpaceOnUse">
      <stop offset=".02" stop-color="#ffac8b"/>
      <stop offset="1" stop-color="#ff9595"/>
    </linearGradient>
    <linearGradient id="_Áåçûìÿííûé_ãðàäèåíò_508-2" data-name="Áåçûìÿííûé ãðàäèåíò 508" x1="65.58" y1="-125.78" x2="76.26" y2="-125.78" gradientTransform="translate(5.99 198.01) rotate(-11.76)" xlink:href="#_Áåçûìÿííûé_ãðàäèåíò_508"/>
    <linearGradient id="_Áåçûìÿííûé_ãðàäèåíò_877" data-name="Áåçûìÿííûé ãðàäèåíò 877" x1="51.4" y1="53.63" x2="51.4" y2="0" gradientUnits="userSpaceOnUse">
      <stop offset="0" stop-color="#6f2e45"/>
      <stop offset="1" stop-color="#923e42"/>
    </linearGradient>
    <linearGradient id="_Áåçûìÿííûé_ãðàäèåíò_514-5" data-name="Áåçûìÿííûé ãðàäèåíò 514" x1="121.79" y1="36.7" x2="121.79" y2="13.24" xlink:href="#_Áåçûìÿííûé_ãðàäèåíò_514"/>
    <linearGradient id="_Áåçûìÿííûé_ãðàäèåíò_514-6" data-name="Áåçûìÿííûé ãðàäèåíò 514" x1="13.08" y1="75.11" x2="13.08" y2="53.99" xlink:href="#_Áåçûìÿííûé_ãðàäèåíò_514"/>
    <linearGradient id="_Áåçûìÿííûé_ãðàäèåíò_879" data-name="Áåçûìÿííûé ãðàäèåíò 879" x1="70.39" y1="111.03" x2="70.39" y2="30.71" gradientUnits="userSpaceOnUse">
      <stop offset="0" stop-color="#d191ff"/>
      <stop offset="1" stop-color="#dcb1ff"/>
    </linearGradient>
    <linearGradient id="_Áåçûìÿííûé_ãðàäèåíò_873" data-name="Áåçûìÿííûé ãðàäèåíò 873" x1="88.01" y1="111.03" x2="88.01" y2="66.41" gradientUnits="userSpaceOnUse">
      <stop offset="0" stop-color="#5b25b8"/>
      <stop offset="1" stop-color="#8359a9"/>
    </linearGradient>
    <linearGradient id="_Áåçûìÿííûé_ãðàäèåíò_878" data-name="Áåçûìÿííûé ãðàäèåíò 878" x1="77.92" y1="69.57" x2="77.92" y2="63.25" gradientUnits="userSpaceOnUse">
      <stop offset="0" stop-color="#8359a9"/>
      <stop offset="1" stop-color="#5b25b8"/>
    </linearGradient>
    <linearGradient id="_Áåçûìÿííûé_ãðàäèåíò_877-2" data-name="Áåçûìÿííûé ãðàäèåíò 877" x1="57.31" y1="34.15" x2="57.31" y2="22.17" xlink:href="#_Áåçûìÿííûé_ãðàäèåíò_877"/>
    <linearGradient id="_Áåçûìÿííûé_ãðàäèåíò_877-3" data-name="Áåçûìÿííûé ãðàäèåíò 877" x1="77.52" y1="26.89" x2="77.52" y2="19.42" xlink:href="#_Áåçûìÿííûé_ãðàäèåíò_877"/>
    <linearGradient id="_Áåçûìÿííûé_ãðàäèåíò_876" data-name="Áåçûìÿííûé ãðàäèåíò 876" x1="80.24" y1="54.22" x2="80.24" y2="44.07" gradientUnits="userSpaceOnUse">
      <stop offset="0" stop-color="#ffb1a4"/>
      <stop offset="1" stop-color="#ff8883"/>
    </linearGradient>
    <linearGradient id="_Áåçûìÿííûé_ãðàäèåíò_519" data-name="Áåçûìÿííûé ãðàäèåíò 519" x1="237.37" y1="108.5" x2="237.37" y2="102.82" gradientTransform="translate(195.17 -192.64) rotate(140.3) scale(1 -1)" gradientUnits="userSpaceOnUse">
      <stop offset="0" stop-color="#ff8883"/>
      <stop offset="1" stop-color="#ffb1a4"/>
    </linearGradient>
    <linearGradient id="_Áåçûìÿííûé_ãðàäèåíò_518" data-name="Áåçûìÿííûé ãðàäèåíò 518" x1="237.37" y1="108.5" x2="237.37" y2="104.62" gradientTransform="translate(195.17 -192.64) rotate(140.3) scale(1 -1)" gradientUnits="userSpaceOnUse">
      <stop offset="0" stop-color="#ff8883"/>
      <stop offset="1" stop-color="#e8868d"/>
    </linearGradient>
    <linearGradient id="_Áåçûìÿííûé_ãðàäèåíò_535" data-name="Áåçûìÿííûé ãðàäèåíò 535" x1="80.64" y1="53.64" x2="80.64" y2="47.72" gradientUnits="userSpaceOnUse">
      <stop offset="0" stop-color="#cf6074"/>
      <stop offset="1" stop-color="#e04a7f"/>
    </linearGradient>
    <linearGradient id="_Áåçûìÿííûé_ãðàäèåíò_518-2" data-name="Áåçûìÿííûé ãðàäèåíò 518" x1="101.11" y1="-166.18" x2="101.11" y2="-168.53" gradientTransform="translate(14.27 233.64) rotate(-13.5)" xlink:href="#_Áåçûìÿííûé_ãðàäèåíò_518"/>
    <linearGradient id="_Áåçûìÿííûé_ãðàäèåíò_518-3" data-name="Áåçûìÿííûé ãðàäèåíò 518" x1="79.81" y1="47.23" x2="79.81" y2="41.78" gradientTransform="matrix(1, 0, 0, 1, 0, 0)" xlink:href="#_Áåçûìÿííûé_ãðàäèåíò_518"/>
    <linearGradient id="_Áåçûìÿííûé_ãðàäèåíò_450" data-name="Áåçûìÿííûé ãðàäèåíò 450" x1="63.03" y1="45.63" x2="63.03" y2="31.95" gradientUnits="userSpaceOnUse">
      <stop offset="0" stop-color="#d0c7f8"/>
      <stop offset="1" stop-color="#fff"/>
    </linearGradient>
    <linearGradient id="_Áåçûìÿííûé_ãðàäèåíò_450-2" data-name="Áåçûìÿííûé ãðàäèåíò 450" x1="82.07" y1="37.15" x2="82.07" y2="26.64" xlink:href="#_Áåçûìÿííûé_ãðàäèåíò_450"/>
    <linearGradient id="_Áåçûìÿííûé_ãðàäèåíò_875" data-name="Áåçûìÿííûé ãðàäèåíò 875" x1="290.14" y1="409.19" x2="290.14" y2="400" gradientTransform="translate(-152.04 -457.97) rotate(18.29) scale(1.25 1)" gradientUnits="userSpaceOnUse">
      <stop offset="0" stop-color="#c2862e"/>
      <stop offset=".98" stop-color="#74422f"/>
    </linearGradient>
    <linearGradient id="_Áåçûìÿííûé_ãðàäèåíò_875-2" data-name="Áåçûìÿííûé ãðàäèåíò 875" x1="81.88" y1="37.15" x2="81.88" y2="29.95" gradientTransform="matrix(1, 0, 0, 1, 0, 0)" xlink:href="#_Áåçûìÿííûé_ãðàäèåíò_875"/>
    <linearGradient id="_Áåçûìÿííûé_ãðàäèåíò_874" data-name="Áåçûìÿííûé ãðàäèåíò 874" x1="62.96" y1="6.04" x2="62.96" y2="5.05" gradientUnits="userSpaceOnUse">
      <stop offset="0" stop-color="#a6566d"/>
      <stop offset="1" stop-color="#e0a19f"/>
    </linearGradient>
    <linearGradient id="_Áåçûìÿííûé_ãðàäèåíò_874-2" data-name="Áåçûìÿííûé ãðàäèåíò 874" x1="51.4" y1="53.63" x2="51.4" y2="1.74" xlink:href="#_Áåçûìÿííûé_ãðàäèåíò_874"/>
    <linearGradient id="_Áåçûìÿííûé_ãðàäèåíò_873-2" data-name="Áåçûìÿííûé ãðàäèåíò 873" x1="113.12" y1="49.67" x2="113.12" y2="30.71" xlink:href="#_Áåçûìÿííûé_ãðàäèåíò_873"/>
    <linearGradient id="_Áåçûìÿííûé_ãðàäèåíò_873-3" data-name="Áåçûìÿííûé ãðàäèåíò 873" x1="28.34" y1="78.7" x2="28.34" y2="59.45" xlink:href="#_Áåçûìÿííûé_ãðàäèåíò_873"/>
    <linearGradient id="_Áåçûìÿííûé_ãðàäèåíò_32" data-name="Áåçûìÿííûé ãðàäèåíò 32" x1="100.36" y1="75.57" x2="100.36" y2="30.71" gradientUnits="userSpaceOnUse">
      <stop offset="0" stop-color="#ccb8ff"/>
      <stop offset="1" stop-color="#af8bc2"/>
    </linearGradient>
    <linearGradient id="_Áåçûìÿííûé_ãðàäèåíò_872" data-name="Áåçûìÿííûé ãðàäèåíò 872" x1="64.69" y1="111.03" x2="64.69" y2="59.45" gradientUnits="userSpaceOnUse">
      <stop offset="0" stop-color="#af8bc2"/>
      <stop offset="1" stop-color="#ccb8ff"/>
    </linearGradient>
    <linearGradient id="_Áåçûìÿííûé_ãðàäèåíò_222" data-name="Áåçûìÿííûé ãðàäèåíò 222" x1="85.45" y1="111.03" x2="85.45" y2="97.58" gradientUnits="userSpaceOnUse">
      <stop offset="0" stop-color="#890050"/>
      <stop offset="1" stop-color="#db6d57"/>
    </linearGradient>
    <linearGradient id="_Áåçûìÿííûé_ãðàäèåíò_871" data-name="Áåçûìÿííûé ãðàäèåíò 871" x1="88.15" y1="176.41" x2="88.15" y2="103.7" gradientUnits="userSpaceOnUse">
      <stop offset="0" stop-color="#fecaff"/>
      <stop offset="1" stop-color="#af8bc2"/>
    </linearGradient>
    <linearGradient id="_Áåçûìÿííûé_ãðàäèåíò_525-2" data-name="Áåçûìÿííûé ãðàäèåíò 525" x1="122.89" y1="29.03" x2="122.89" y2="18.04" xlink:href="#_Áåçûìÿííûé_ãðàäèåíò_525"/>
    <linearGradient id="_Áåçûìÿííûé_ãðàäèåíò_870" data-name="Áåçûìÿííûé ãðàäèåíò 870" x1="89.06" y1="126.25" x2="89.06" y2="114.04" gradientUnits="userSpaceOnUse">
      <stop offset="0" stop-color="#af8bc2"/>
      <stop offset="1" stop-color="#fecaff"/>
    </linearGradient>
    <linearGradient id="_Áåçûìÿííûé_ãðàäèåíò_870-2" data-name="Áåçûìÿííûé ãðàäèåíò 870" x1="98.67" y1="161.06" x2="98.67" y2="141.04" xlink:href="#_Áåçûìÿííûé_ãðàäèåíò_870"/>
    <linearGradient id="_Áåçûìÿííûé_ãðàäèåíò_870-3" data-name="Áåçûìÿííûé ãðàäèåíò 870" x1="61.36" y1="183.41" x2="61.36" y2="178.71" xlink:href="#_Áåçûìÿííûé_ãðàäèåíò_870"/>
    <linearGradient id="_Áåçûìÿííûé_ãðàäèåíò_870-4" data-name="Áåçûìÿííûé ãðàäèåíò 870" x1="120.37" y1="184.61" x2="120.37" y2="179.73" xlink:href="#_Áåçûìÿííûé_ãðàäèåíò_870"/>
    <linearGradient id="_Áåçûìÿííûé_ãðàäèåíò_508-3" data-name="Áåçûìÿííûé ãðàäèåíò 508" x1="22.22" y1="65.02" x2="26.16" y2="65.02" xlink:href="#_Áåçûìÿííûé_ãðàäèåíò_508"/>
    <linearGradient id="_Áåçûìÿííûé_ãðàäèåíò_525-3" data-name="Áåçûìÿííûé ãðàäèåíò 525" x1="11.19" y1="72.3" x2="11.19" y2="61.21" xlink:href="#_Áåçûìÿííûé_ãðàäèåíò_525"/>
    <linearGradient id="_Áåçûìÿííûé_ãðàäèåíò_508-4" data-name="Áåçûìÿííûé ãðàäèåíò 508" x1="120.28" y1="24.32" x2="126.64" y2="24.32" xlink:href="#_Áåçûìÿííûé_ãðàäèåíò_508"/>
    <linearGradient id="_Áåçûìÿííûé_ãðàäèåíò_508-5" data-name="Áåçûìÿííûé ãðàäèåíò 508" x1="116.01" y1="24.15" x2="118.58" y2="24.15" xlink:href="#_Áåçûìÿííûé_ãðàäèåíò_508"/>
    <linearGradient id="_Áåçûìÿííûé_ãðàäèåíò_508-6" data-name="Áåçûìÿííûé ãðàäèåíò 508" x1="124.84" y1="19.58" x2="130.65" y2="19.58" xlink:href="#_Áåçûìÿííûé_ãðàäèåíò_508"/>
    <linearGradient id="_Áåçûìÿííûé_ãðàäèåíò_508-7" data-name="Áåçûìÿííûé ãðàäèåíò 508" x1="12.49" y1="61.43" x2="15.75" y2="61.43" xlink:href="#_Áåçûìÿííûé_ãðàäèåíò_508"/>
    <linearGradient id="_Áåçûìÿííûé_ãðàäèåíò_508-8" data-name="Áåçûìÿííûé ãðàäèåíò 508" x1="1.31" y1="70.09" x2="9.23" y2="70.09" xlink:href="#_Áåçûìÿííûé_ãðàäèåíò_508"/>
    <linearGradient id="_Áåçûìÿííûé_ãðàäèåíò_508-9" data-name="Áåçûìÿííûé ãðàäèåíò 508" x1="7.37" y1="67.47" x2="12.93" y2="67.47" xlink:href="#_Áåçûìÿííûé_ãðàäèåíò_508"/>
  </defs>
  <g class="cls-21">
    <g id="Layer_2" data-name="Layer 2">
      <g id="factory_milk" data-name="factory milk">
        <g>
          <path class="cls-47" d="M66.22,190.41c0,1.17-.42,2.76-.97,3.32s-2.49,.42-5.25-.76c-2.76-1.17-4.76-3.24-5.91-8.15-1.14-4.91-2.93-10.78-2.93-10.78,.76-2.28,3.17-4.28,3.94-4.97,.76-.69,1.93-2.42,1.93-2.42l8.01,3.52c-.15,.44-.26,.97-.34,1.55-.17,1.17-.22,2.58-.19,4.08v.02c.03,2.25,.22,4.7,.39,6.85,.34,4.29,1.31,6.56,1.31,7.74Z"/>
          <path class="cls-51" d="M128.94,191.24c-.2,.69-4.49,.69-10.5-1.45-6.01-2.14-10.43-5.31-10.43-5.31,.27-3.76,1.84-6.09,1.93-6.72,0-.02,0-.04,0-.05v-2.28l6.21-3.03s.24,.96,.96,2.19c.25,.42,.55,.87,.91,1.33,.37,.47,1.05,1.3,1.89,2.27h0c2.36,2.81,5.94,6.89,7.01,7.6,1.45,.96,2.21,4.76,2,5.45Z"/>
          <path class="cls-1" d="M99.83,106.74s6.86-3.18,7.05-7.51-9.99-4.93-9.99-4.93l-8.15,2.62,11.1,9.81Z"/>
          <path class="cls-18" d="M99.6,96.7s1.01,3.91,1.15,10.54c0,0-3.59,2.35-12.57,3.18-8.98,.83-16.8-.57-16.8-.57,0,0,9.14-8.42,28.22-13.15Z"/>
          <path class="cls-28" d="M120.28,171.26c-4.24,4.6-11.05,5.15-11.05,5.15,0,0-5.99-4.51-8.47-11.14-.53-1.43-.9-2.83-1.16-4.21-.96-5.05-.48-9.88-1.42-14.95-.26-1.41-.87-3.17-1.66-5.07h0c-2.84-6.79-8.1-15.27-8.74-15.49-.83-.27-2.97,.14-4.15,1.45-.01,.01-.03,.03-.04,.05-1.16,1.35-2.4,4.8-4.99,11.49-2.62,6.77-4.56,9.25-5.46,10.36-.9,1.1-2.97,8.63-5.04,16.16-2.08,7.53-1.17,8.92-1.17,8.92-3.18,.27-9.81-4.19-10.36-5.76-.55-1.57-.83-6.9,0-11.33,.82-4.42,2.85-7.09,4.14-9.67,1.29-2.58,3.68-8.57,5.15-19.61,1.47-11.05,4.54-18.33,4.54-18.33l2.57-.62c19.91,2.6,27.79-1.92,27.79-1.92v-3.04s1.67,1.06,1.67,1.06c0,0-.23,1.25-.44,2.65-.18,1.25-.34,2.6-.3,3.27,.09,1.41,1.93,3.1,2.3,4.29,.36,1.2,0,2.58,0,2.58,0,0,4.21,16.89,6.35,30.45,.1,.61,.19,1.2,.28,1.79,2.03,13.81,9.67,21.46,9.67,21.46Z"/>
          <path class="cls-1" d="M21.77,61.97s-.4,9.36,3.37,15.26c0,0,2.16,1.61,3.13,0s-1.75-13.68-1.75-13.68l-2.26-2.53-2.5,.95Z"/>
          <path class="cls-46" d="M71.38,62.62s1.33,1.18,1.4,2.7c0,0,4.25,4.39,7.94,4.42,3.7,.03,3.21-2.9,3.21-2.9,0,0-2.85-3.07-3.67-6.35l-8.89,2.13Z"/>
          <path class="cls-38" d="M83.62,58.9c-.22,.12-.44,.25-.67,.37-5.56,2.95-14.95,4.66-22.05,2.81-5.1-1.33-13.89-11.32-18.6-19.15l-.03-.04c-.98-1.63-1.77-3.15-2.33-4.49h0v-.02c-.41-.98-.69-1.87-.79-2.61-.17-1.14-.01-2.53,.43-4.06,2.07-7.26,10.56-17.59,21.4-18.39,0,0,7.32-.49,12.71,2.97,5.39,3.46,8.84,13.47,10.64,16.86,.39,.75,.93,1.42,1.52,2.06,2.08,2.26,4.96,4.1,5.66,7.33,.9,4.15-2.41,13.2-7.87,16.37Z"/>
          <path class="cls-23" d="M61.41,24.1s8.78,8.34,9.97,16.49c0,0-3.3,8.13-15.73,6.64,0,0,2.06,4.45,7.37,9.37,4.2,3.89,11.92,6.09,19.92,2.67-5.56,2.95-14.95,4.66-22.05,2.81-5.1-1.33-13.89-11.32-18.6-19.15l-.03-.04-2.33-4.49h0v-.02l-.36-6.67c2.07-7.26,10.56-17.59,21.4-18.39,0,0,7.32-.49,12.71,2.97,5.39,3.46,8.84,13.47,10.64,16.86,.39,.75,.93,1.42,1.52,2.06,0,0-.93,2.19-3.02,2.22-2.1,.02-7.17-5.73-8.4-15.54,0,0-7.74-.55-13.01,2.22Z"/>
          <path class="cls-50" d="M50.05,51.84s-2.63-.45-5.11,1.69c-2.48,2.14-2.13,5.3-.81,7.19,1.32,1.88,4.15,3.75,8.58,3.91,4.43,.16,7.13-2.21,6.53-4.42-.59-2.21-9.2-8.37-9.2-8.37Z"/>
          <path class="cls-34" d="M54.91,58.87s-2.18-2.14-5.88-1.51c-3.7,.63-4.77,2.7-4.77,2.7,0,0,2.77-1.81,5.57-1.84,0,0,1,2.77,1.97,3.85,.97,1.08,2.58,.61,2.58,.61,0,0-1.46-1.11-1.37-2.62,.1-1.51,1.9-1.2,1.9-1.2Z"/>
          <path class="cls-54" d="M73.34,9.16c-2.19-3.45-4.19-4.48-4.35-4.55,.17,.18,2.98,3.03,3.43,5.1,0,0-1.89-2.69-2.68-2.62-.79,.07,.83,5.46,.66,5.84-.17,.38-2.17-2.6-3.9-5.42-.59-.96-1.51-1.98-2.46-2.89-1.84-1.74-3.82-3.05-3.82-2.78s1.41,2.06,2.35,3.21c.42,.52,.74,.91,.81,.99-.22-.23-2.46-2.53-5.69-4.24-.04-.02-.08-.04-.1-.05-.01,0-.03-.01-.04-.01h-.01c-2.18-1.13-4.8-1.96-7.53-1.69-6.73,.66-7.9,4.58-8,5-.55,.18-1.09,.42-1.6,.71-4.1,2.35-5.16,9.53-4.33,11.83,0,0,.55-1.79,2.03-1.52s2.3,1.7,2.3,3.17c0,.71-.71,2.76-1.68,4.74-1.03,2.12-2.37,4.17-3.48,4.48-2.16,.6-5.69-.82-8.28-3.12h0s0,.02,.02,.04c0,.01,.01,.03,.03,.05,0,.02,.02,.04,.04,.07,.44,.74,2.3,3.76,4.17,5.3,.07,.06,.15,.12,.23,.18,.15,.1,.29,.2,.44,.29,1.17,.71,1.97,1.07,2.47,1.25,.06,.02,.12,.04,.17,.06,.37,.12,.53,.12,.53,.12,0,0,.09,3.36-1.33,3.68l-1.43,.32h0s.12,.09,.12,.09c.39,.28,1.66,1.11,2.73,.87,.42-.09,.68,.23,.9,.82,.47,1.22,.75,3.57,1.91,5.53,.09,.15,.2,.31,.35,.48,2.63,3.1,13.93,9.13,13.93,9.13l-.04-.2s-2.62-7.31-4-10.14c-1.38-2.83-3.11-4.97-4.76-4.7,0,0-1.87-3.52-.31-8.29,1.55-4.76,5.21-7.25,12.88-9.67,7.66-2.42,11.06-4.67,12.15-6.62,0,0,5.85,1.83,7.71,4.1,0,0-.25-5.36-2.52-8.95ZM46.83,1.52c1.27,.09,2.11,.62,2.67,1.23h0s.01,.02,.02,.04c.04,.04,.07,.07,.09,.11,.69,.81,.9,1.71,.93,1.9,0,.01,0,.02,0,.04,0,0-4.13-.97-7.87,0,.18-.58,1.24-3.54,4.14-3.32Z"/>
          <path class="cls-53" d="M129.19,28.05c-.46,.34-.93,.67-1.37,.98-.28,.19-.54,.37-.79,.55-2.11,1.45-2.81,1.95-6.04,3.42-1.66,.75-3.28,1.21-3.41,1.28-.14,.07-2.56,2.42-2.56,2.42l-3.49-3.31s1.33-1.47,1.42-2.89c.09-1.43-1.24-5.07-1.01-6.59,.23-1.52,2.26-3.73,2.72-4.88,.46-1.15,.28-3.87,.74-4.05s1.98,1.15,1.93,2.9c-.04,1.75-.92,2.39-1.15,3.18-.23,.78-.02,1.12-.02,1.12,0,0,.16-.04,.43-.11,.86-.25,2.79-.93,3.6-2.34,.26-.45,.53-1.04,.82-1.68,.88-1.99,1.87-4.48,2.82-4.75,1.24-.35,.87,1.26,.83,1.95-.04,.57-1.01,3.05-1.82,4.48-.17,.31-.34,.58-.49,.77l.74,.37s1-.66,1.92-1.39c.04-.03,.07-.05,.07-.05,.5-.39,.96-.81,1.23-1.14,.78-.97,1.93-2.35,2.95-2.67,0,0,1.2-.47,1.2,.98,0,0,.63,.2,.25,1.97-.18,.82-1.18,2.47-2.19,4h0c-1.14,1.74-2.3,3.33-2.3,3.38,0,.11,.17,.42,.58,.45,.27,.02,.79-.07,1.34-.28,.31-.11,.62-.26,.9-.44,.79-.52,2.56-1.21,2.97-.55,.28,.45-1.19,1.71-2.82,2.92Z"/>
          <path class="cls-35" d="M26.16,67.81l-4.8,.39s-1.45,1.15-3.57,1.89c-1.16,.4-2.54,.91-3.86,1.47-.56,.24-1.11,.49-1.61,.74-.47,.24-.92,.48-1.3,.73-1.77,1.13-4.37,2.56-4.42,1.91-.04-.64,.99-1.75,1.91-2.35,.69-.44,1.47-1.2,1.82-1.64,.12-.15,.19-.26,.19-.31,0-.21-.28-.18-.28-.18,0,0-.06,.03-.17,.09-.37,.19-1.36,.66-2.94,1.12-2.05,.6-3.75,1.25-4.67,1.08-.93-.16-1.15-.62-1.15-.62-.65,.18-1.25,.07-1.31-.16-.07-.23,.78-2.51,2.51-3.46,1.39-.76,3.35-1.76,4.27-2.31,.23-.13,.39-.24,.47-.31,.42-.36,.39-1.15,.39-1.15-.72,.11-1.44,.34-2.11,.61-1.41,.55-2.63,1.25-3.21,1.38-.85,.18-1.55,.12-1.64-.3-.09-.42,2.03-2.21,2.68-2.39,.35-.1,1.43-.62,2.65-1.12,1-.42,2.1-.82,2.98-.98,1.52-.28,3.27-.6,4-.73,.22-.04,.34-.07,.34-.07,0,0-.74-1.85-1.48-2.33-.74-.49-2.79-.44-3.92-1.45-1.13-1.01-.88-2.95-.44-3.33,.45-.38,3.42,2.04,4.97,2.52,1.55,.49,3.94,.04,4.73,.69,.79,.65,1.69,3.76,2.87,4.32,1.17,.55,4.15,.59,4.15,.59,1.04,1.17,1.94,5.66,1.94,5.66Z"/>
          <path class="cls-31" d="M118.99,43.24s-1.75,1.84-3.04,3.22c-.5,.54-1.2,1.7-2.19,3.21-1.56,2.37-3.86,5.58-7.3,8.55-5.62,4.83-10.87,9.48-12.34,11.53-1.47,2.05-2.48,5.83-2.48,5.83,.04,.07,.07,.14,.11,.2,.69,1.31,4.48,8.49,6.15,13.34,0,0,1.57,2.11,3.68,3.59,1.6,1.11,4.03,2.69,5.25,4.03,.4,.44,.67,.85,.74,1.22,.11,.58-.01,1.57-.45,2.67-.66,1.68-2.06,3.59-4.49,4.49l.03-.02c.42-.26,2.16-1.47,3.13-3.13h0c.58-.98,.87-2.11,.5-3.27-1.13-3.45-12.44-.28-23.95,4.97-11.51,5.25-11.94,7.37-11.94,7.37,0,0-1.68-.28-1.96-1.01-.28-.74,2.13-5.34,2.95-12.53,.3-2.57-.66-5.9-2.06-9.13-2.49-5.77-6.35-11.24-6.88-11.59-.83-.55-21-1.75-27.26-.65-.09,.01-.17,.03-.26,.04-6.06,1.11-7.98,2.54-7.98,2.54l-1.78-1.47c.14,.09,1.36,.87,2.06,.31,.74-.6-.58-10.64-2.99-15.4l-2.46-.18s1.85-2.52,2.52-2.52,1.59,2.52,1.59,2.52c0,0,1.28-.2,3.66-.4,2.5-.2,6.21-.41,10.89-.36,9.12,.09,17.22,3.22,22.11,3.92,4.88,.69,8.84,0,8.84,0,0,0,.23-.79,1.08-1.01,.81-.23,2.42,2.68,6.16,3.78,.16,.04,.32,.09,.49,.13,2.52,.61,3.4-.42,3.7-1.29,.2-.55,.16-1.05,.16-1.05l-1.25-1.85,.02-.04c.05-.08,.16-.27,.33-.54h0c.41-.64,1.12-1.74,1.88-2.7,.81-1.04,1.68-1.92,2.25-1.92h1.84s5.25-3.13,10.59-10.59c3-4.19,6.3-8.18,8.6-10.87,1.8-2.09,3-3.4,3-3.4,0,0,.78-2.81,1.75-3.04,.96-.23,7.36,4.97,7,12.53Z"/>
          <path class="cls-42" d="M102.6,105.11c.5-.28,4.75-3.17,3.68-6.43-1.13-3.45-12.44-.28-23.95,4.97-11.51,5.25-11.94,7.37-11.94,7.37,0,0-1.68-.28-1.96-1.01-.28-.74,2.13-5.34,2.95-12.53,.3-2.57-.66-5.9-2.06-9.13,0,0,1.96-1.37,4.91-7.36,2.89-5.86,3.05-12.47,3.05-12.74h0s1.33-.38,1.33-.38c.16,.04,.32,.09,.49,.13,2.52,.61,3.4-.42,3.7-1.29l1.14-.32s.16,.15,.44,.41c1.35,1.25,5.4,5.18,7.24,8.76,.04,.07,.07,.14,.11,.2,.69,1.31,4.48,8.49,6.15,13.34,0,0,1.57,2.11,3.68,3.59,2.12,1.47,5.72,3.78,5.99,5.25,.28,1.47-.95,5.69-4.97,7.17Z"/>
          <path class="cls-16" d="M83.42,69.05c-1.72,1.08-4.16,.28-6.13-.79-1.44-.78-2.63-1.71-3.13-2.18-1.17-1.11-2.78-.97-2.78-.97,0,0,.23-.79,1.08-1.01,.81-.23,2.42,2.68,6.16,3.78,.16,.04,.32,.09,.49,.13,2.52,.61,3.4-.42,3.7-1.29,.2-.55,.16-1.05,.16-1.05l-1.25-1.85s.13-.22,.35-.58h0s1.99,1.82,2.33,3.57c.17,.83-.03,1.64-.98,2.24Z"/>
          <path class="cls-37" d="M53.18,34.15s.42-3.36,1.8-5.62c2.32-3.82,6.37-6.37,6.37-6.37,0,0,.37,1.67-.32,4.11,0,0-2.78,.47-5.08,2.63-1.38,1.29-2.76,5.25-2.76,5.25Z"/>
          <path class="cls-15" d="M76.32,26.89s-.84-3.37,.68-7.47c0,0,1.58,1.11,1.96,2.85,0,0-1.25,.27-1.72,1.09-.92,1.59-.92,3.53-.92,3.53Z"/>
          <path class="cls-25" d="M74.31,49.1s4.74,6.29,9.26,4.91c4.52-1.38,1.77-9.95,1.77-9.95l-11.04,5.03Z"/>
          <g>
            <path class="cls-12" d="M77.17,42.8s1.63-.24,2.88-.12c1.24,.12,2.03-.39,2.03-.39,1.4-1.64,1.76-3.18,1.31-3.88-.11-.18-.27-.31-.48-.37-1.03-.33-2.45-.29-2.45-.29-2.18-.22-4.48,1.97-4.36,2.95,.08,.64,.51,1.32,.79,1.73,.16,.23,.28,.37,.28,.37Z"/>
            <path class="cls-30" d="M77.17,42.8s1.63-.24,2.88-.12c1.24,.12,2.03-.39,2.03-.39,1.4-1.64,1.76-3.18,1.31-3.88,0,0-1.14-.2-3.16,.74-2.43,1.13-2.59,2.26-3.34,3.29,.16,.23,.28,.37,.28,.37Z"/>
            <path class="cls-41" d="M79.68,42.65s-1.56-2.06-2.51,.15c0,0,1.31-.16,2.51-.15Z"/>
          </g>
          <path class="cls-19" d="M73.26,47.39s3.91-.92,7.83-2.81c3.91-1.89,4.65-2.8,4.65-2.8,0,0-.48,1.14-.4,1.84,.08,.69,2.08,8.52-2.59,9.9-3.72,1.1-9.85-5.87-9.85-5.87l.37-.26Z"/>
          <path class="cls-17" d="M76.65,46.42s2.89,.76,5.17,0c2.28-.76,2.26-3.39,2.26-3.39,0,0-2.86,1.94-7.43,3.39Z"/>
          <path class="cls-13" d="M75.44,50.15s2.25-1.62,5.52-2.21c3.27-.6,4.88,.23,4.88,.23,0,0,.17,5.14-3.63,5.46-3.23,.27-6.77-3.47-6.77-3.47Z"/>
          <path class="cls-17" d="M80.91,53.54s2-2.31,3.05-2.48c1.05-.17,1.14,.55,1.14,.55,0,0-1.08,2.73-4.19,1.94Z"/>
          <path class="cls-56" d="M72.57,48.74s-.05-1.16,.28-1.74c.32-.57,1.58-1.12,1.58-1.12,0,0-.04,.46-.21,.9,0,0-1.12,.66-1.64,1.96Z"/>
          <path class="cls-45" d="M73.88,47.23s2.84-.74,5.26-2.35c2.42-1.61,4.6-1.57,6.61-3.1,0,0-3.75,3.71-11.87,5.45Z"/>
          <path class="cls-48" d="M56.26,42.29s-1.75-3.41,.71-7.74c2.35-4.14,7.53-3.84,9.17-1.75,1.62,2.06-9.88,9.49-9.88,9.49Z"/>
          <path class="cls-48" d="M79.68,34.55s-2.18-5-.9-8.08,3.36,1.98,3.36,1.98l-2.47,6.1Z"/>
          <path class="cls-24" d="M69.81,41.49c-.52,2.21-4.17,3.8-6.98,4.08-2.81,.28-4.54-.39-5.55-1.22-1.01-.83-1.72-3.84-.84-6.58,1.28-3.98,4.8-5.99,7.52-5.81,2.72,.18,7.02,4.56,5.85,9.53Z"/>
          <path class="cls-2" d="M85.35,34.64s0,1.08-.83,1.84c-.16,.15-.36,.3-.6,.42h0c-.13,.07-.27,.12-.42,.17-.18,.05-.35,.08-.52,.08-1.72,.08-3.54-2.09-4-4.8v-.04c-.02-.1-.03-.19-.04-.29-.08-.49-.11-.96-.13-1.4-.08-2.15,.43-3.69,1.11-3.93,1.21-.42,2.24,1.76,2.24,1.76,0,0,2.84,4.61,3.2,6.19Z"/>
          <path class="cls-32" d="M69.04,41.25c-.8,2.41-3.39,3.71-5.8,2.92-2.41-.8-3.71-3.39-2.92-5.8,.8-2.41,3.39-3.71,5.8-2.92,2.41,.8,3.71,3.39,2.92,5.8Z"/>
          <path class="cls-55" d="M67.77,41.19c-.56,1.7-2.4,2.63-4.1,2.06-1.7-.56-2.63-2.4-2.06-4.1,.56-1.7,2.4-2.63,4.1-2.06,1.7,.56,2.63,2.4,2.06,4.1Z"/>
          <path class="cls-26" d="M83.92,36.9h0c-.13,.07-.27,.12-.42,.17-.18,.05-.35,.08-.52,.08-1.72,.08-3.54-2.09-4-4.8v-.04c-.02-.1-.03-.19-.04-.29,.11-.84,.51-1.53,1.17-1.86,1.32-.67,3.18,.33,4.15,2.24,.9,1.77,.74,3.69-.33,4.5Z"/>
          <path class="cls-55" d="M83.11,36.25c-.93,.48-2.25-.23-2.94-1.59-.69-1.35-.49-2.84,.44-3.31,.93-.48,2.25,.23,2.94,1.59,.69,1.35,.49,2.84-.44,3.31Z"/>
          <path class="cls-14" d="M65.76,37.16c0,.38-.31,.68-.68,.68s-.68-.31-.68-.68,.31-.68,.68-.68,.68,.31,.68,.68Z"/>
          <path class="cls-14" d="M81.59,30.47c0,.38-.31,.68-.68,.68s-.68-.31-.68-.68,.31-.68,.68-.68,.68,.31,.68,.68Z"/>
          <path class="cls-11" d="M62.56,5.05c.31,.32,.6,.65,.81,.99-.07-.08-.39-.47-.81-.99Z"/>
          <path class="cls-7" d="M75.86,18.12c-1.86-2.27-7.71-4.1-7.71-4.1-1.09,1.95-4.48,4.2-12.15,6.62-7.67,2.42-11.33,4.91-12.88,9.67-1.56,4.77,.31,8.29,.31,8.29,1.66-.28,3.38,1.87,4.76,4.7,1.39,2.84,4,10.14,4,10.14l.04,.2s-11.3-6.03-13.93-9.13c0,0,3.75,.44,3.68-3.17-.07-3.61-1.31-7.68-1.31-7.68-2.05,3.12-3.64,4.35-4.63,4.83-.22-.58-.48-.9-.9-.82-1.07,.23-2.34-.59-2.73-.87l-.12-.09c.14,.06,1.66,.72,3.56,.23,1.74-.45,5.96-6.07,6.98-7.47-.8,1-3.59,4-7.79,3.24-.18-.04-.36-.07-.53-.12-.06-.02-.12-.04-.17-.06-1.07-.31-2.05-.88-2.91-1.55-.08-.06-.15-.12-.23-.18-2.34-1.91-3.82-4.6-4.17-5.3-.01-.02-.03-.04-.04-.07-.01-.02-.02-.04-.03-.05-.01-.01-.01-.03-.02-.04h0c.27,.33,4.79,5.75,9.08,5.37,4.28-.38,9.79-6.23,10.13-6.61-.31,.2-5.05,3.35-6.6,2.33-.58-.39-.81-1.37-.86-2.45,.97-1.98,1.68-4.02,1.68-4.74,0-1.47-.83-2.89-2.3-3.17s-2.03,1.52-2.03,1.52c-.18-1.06,.6-5.53,3.51-5.07,2.92,.47,6.71,6.72,10.25,7.33,3.55,.6,5.11-1.01,5.11-1.01,0,0-.18-2.81-2.21-5.16-2.03-2.35-5.39-3.64-5.39-3.64,6.5,1.31,13.68,7.33,13.99,7.59-.04-.07-.33-.58-2.66-4.69-2.67-4.7-8.11-8.1-8.11-8.1,0-.01,0-.02,0-.04-.21-.87-.71-1.6-.93-1.9-.02-.04-.05-.07-.09-.11,0-.01-.01-.02-.02-.03,7.41,2.76,12.89,13.73,12.89,13.73,0,0,1.93-3.69,.31-8.01-1.57-4.17-4.92-6.56-5.17-6.74,0,0,.02,0,.04,.01,.02,.01,.06,.03,.1,.05,3.24,1.71,5.48,4.01,5.69,4.24,0,0,.01,0,.01,.01,1.5,2.33,3,6.66,3,6.66,0,0,.61,.09,0-3.18-.37-1.97-1.51-3.78-2.35-4.91,.96,.9,1.87,1.92,2.46,2.89,1.73,2.83,3.73,5.8,3.9,5.42,.17-.38-1.45-5.77-.66-5.84,.79-.07,2.68,2.62,2.68,2.62-.45-2.08-3.26-4.93-3.43-5.1,.15,.07,2.15,1.1,4.35,4.55,2.27,3.59,2.52,8.95,2.52,8.95Z"/>
          <path class="cls-36" d="M118.99,43.24s-1.75,1.84-3.04,3.22c-.5,.54-1.2,1.7-2.19,3.21,0,0-.95-7.44-2.88-10.02-1.93-2.57-3.65-2.49-3.65-2.49,1.8-2.09,3-3.4,3-3.4,0,0,.78-2.81,1.75-3.04,.96-.23,7.36,4.97,7,12.53Z"/>
          <path class="cls-29" d="M34.92,76.16c-6.06,1.11-7.98,2.54-7.98,2.54l-1.78-1.47c.14,.09,1.36,.87,2.06,.31,.74-.6-.58-10.64-2.99-15.4l-2.46-.18s1.85-2.52,2.52-2.52,1.59,2.52,1.59,2.52c0,0,1.28-.2,3.66-.4,0,0,5.42,8.43,5.38,14.6Z"/>
          <path class="cls-9" d="M118.99,43.24s-1.75,1.84-3.04,3.22c-.5,.54-1.2,1.7-2.19,3.21-1.56,2.37-3.86,5.58-7.3,8.55-5.62,4.83-10.87,9.48-12.34,11.53-1.47,2.05-2.48,5.83-2.48,5.83-2.88-5.69-8.67-9.89-8.67-9.89l-1.25-1.85,.02-.04,2.22-3.24s3.81,5.72,7.68,4.99c3.87-.74,9.2-8.29,9.2-8.29-4.51,1.1-12.8,1.38-12.8,1.38,0,0,9.21-.64,14.64-3.96,5.43-3.31,13.08-13.68,13.08-13.68-1.29-5.31-5.53-7.22-5.53-7.22,0,0,.78-2.81,1.75-3.04,.96-.23,7.36,4.97,7,12.53Z"/>
          <path class="cls-4" d="M107.11,100.61l-1.33,1.33c.58-.97,.87-2.09,.5-3.26-1.13-3.45-12.44-.28-23.95,4.97-11.51,5.25-11.94,7.37-11.94,7.37,0,0-1.68-.28-1.96-1.01-.28-.74,2.13-5.34,2.95-12.53,.3-2.57-.66-5.9-2.06-9.13-2.49-5.77-6.35-11.24-6.88-11.59-.83-.55-21-1.75-27.26-.65-.09,.01-.17,.03-.26,.04-6.06,1.11-7.98,2.54-7.98,2.54l-1.78-1.47c.14,.09,1.36,.87,2.06,.31,.74-.6-.58-10.64-2.99-15.4l-2.46-.18s1.85-2.52,2.52-2.52c0,0,2.37,6.2,4.18,13.17-.06-.52-1-8.01-1.52-9.35,.18,.34,3.13,5.85,4.59,9.86,0,0,28.39-1.52,37.85,1.11l-5,1.88s11.35,10.68,12.25,18.84c0,0,9.88-4.84,18.72-3.59,0,0-12.6,1.38-19.76,8.56l-1.59,5.8s17.23-7.92,26.73-9.46c2.56-.41,4.83-.05,6.08,.46,.4,.44,.67,.85,.74,1.22,.11,.58-.01,1.57-.45,2.67Z"/>
          <path class="cls-10" d="M70.39,111.03s16.46-8.37,30.11-8.38c0,0-.41-3.99-.71-5.07,0,0-22.38,4.75-29.41,13.45Z"/>
          <path class="cls-5" d="M110.61,149.8c-.09-.59-.17-1.18-.28-1.79-.12,.1-3.38,2.82-7.09-.42-3.78-3.32-10.5-21.83-10.16-23.21,.34-1.38,1.73-2.83,1.73-2.83h-2.62c3.9-4.55,7.32-10.08,8.98-12.71,.34-.53,.6-1.01,.8-1.42,.2-1.4,.44-2.65,.44-2.65l-1.65-1.06v3.04s-7.89,4.51-27.8,1.92l-2.57,.62s-3.07,7.28-4.54,18.33c-1.47,11.05-3.86,17.03-5.15,19.61-1.29,2.58-3.32,5.25-4.14,9.67-.83,4.43-.55,9.76,0,11.33,.55,1.57,7.18,6.03,10.36,5.76,0,0-.9-1.39,1.17-8.92,2.07-7.52,4.14-15.06,5.04-16.16,0,0-7.55-3.43-6.9-11.26,.65-7.82,5.48-19.87,9.64-19.61,6.8,.41,7.31,8.65,7.31,8.65,0,0,.15,.13,.42,.37,.01-.02,.03-.04,.04-.05,1.17-1.31,3.32-1.72,4.15-1.45,.82,.28,9.21,14.12,10.4,20.56,1.2,6.45,.09,12.53,2.58,19.16,2.49,6.63,8.47,11.14,8.47,11.14,0,0,6.82-.55,11.05-5.15,0,0-7.65-7.65-9.67-21.46Zm-35.16-39.43c.31,.07,5.21,1.24,13.28,.32,7.84-.9,11.55-2.47,11.98-2.66-.51,.31-5.58,3.27-12.55,4.13-7.17,.88-12.43-1.65-12.71-1.79Z"/>
          <path class="cls-20" d="M129.19,28.05c-.46,.34-.93,.67-1.37,.98-.27-.37-.74-.93-1.26-1.16-.81-.36-5.36,.75-6.83-.08-1.47-.83-1.44-1.94-1.84-3.62-.25-1.06-.87-1.75-1.3-2.12,.86-.25,2.79-.93,3.6-2.34,.26-.45,.53-1.04,.82-1.68,.19,.28,.45,.65,.79,1.08,.36,.47,.75,.61,1.05,.61-.17,.31-.34,.58-.49,.77l.74,.37s1-.66,1.92-1.39c-.18,.17-.66,.71,0,1.2,.74,.53,1.48,.09,1.6,.01-.08,.16-.9,1.72,.01,2.11,.97,.42,1.88-.23,1.88-.23h0c-1.14,1.74-2.3,3.33-2.3,3.38,0,.11,.17,.42,.58,.45,.27,.02,.79-.07,1.34-.28,0,.22,.02,.45,.07,.69,.13,.83,.6,1.12,.99,1.23Z"/>
          <path class="cls-1" d="M66.22,190.41c0,1.17-.42,2.76-.97,3.32s-2.49,.42-5.25-.76c-2.76-1.17-4.76-3.24-5.91-8.15-1.14-4.91-2.93-10.78-2.93-10.78,.76-2.28,3.17-4.28,3.94-4.97,0,0,1.72,2.83,2.6,3.29,.87,.47,4.78-3.28,7.69-1.42,2.28,1.45-.73,4.67-.88,4.87,0,0,0,0,0,0h0c.03,2.27,.22,4.72,.39,6.86,.34,4.29,1.31,6.56,1.31,7.74Z"/>
          <path class="cls-1" d="M128.94,191.24c-.2,.69-4.49,.69-10.5-1.45-6.01-2.14-10.43-5.31-10.43-5.31,.27-3.76,1.84-6.09,1.93-6.72,.59,.09,1.79,.28,2.35,.43,0,0,2.6-2.27,4.82-3.61,1-.6,1.92-1.01,2.5-.95,1.87,.21,.3,4.56,.3,4.56h0c2.36,2.81,5.94,6.89,7.01,7.6,1.45,.96,2.21,4.76,2,5.45Z"/>
          <path class="cls-6" d="M84.54,126.25s-2.39-4.49-4.23-6.43c0,0,12.16,.19,17.5-5.78,0,0-6.07,9.08-10.04,11.51,0,0-2.31-.06-3.23,.7Z"/>
          <path class="cls-8" d="M99.6,161.06c-.96-5.05-.48-9.88-1.42-14.95-.26-1.41-.87-3.17-1.66-5.07,0,0,3.83,5.16,4.24,7.37,.42,2.21-1.49,7.74-1.16,12.64Z"/>
          <path class="cls-3" d="M57.75,182.63s4.05-.43,7.23,.77l-.25-3.06s-1.18-1.63-6.98-1.63v3.92Z"/>
          <path class="cls-44" d="M121.23,179.73s-2.8,1.05-3.71,3.68l3.03,1.2s1.4-2.05,2.68-2.59l-2-2.29Z"/>
          <path class="cls-39" d="M22.22,62s1.37,2.6,1.17,6.04l2.77-.23s-.79-3.88-1.94-5.66l-2-.15Z"/>
          <path class="cls-33" d="M16.58,67.7c-1.01,1.99-3.22,3.16-3.22,3.16l.59,.69c-.56,.24-1.11,.49-1.61,.74-.58-.6-1.59-1.14-2-1.35-.12-.06-.18-.09-.18-.09,0,0-.02-.12-.07-.31-.08-.31-.24-.78-.5-1.07-.41-.47-1.38-1.02-1.38-1.02,0,0-.01-1.29-.83-1.92-.17-.14-.38-.25-.58-.34,.23-.13,.39-.24,.47-.31,.42-.36,.39-1.15,.39-1.15-.72,.11-1.44,.34-2.11,.61,.17-.34,.42-.83,.63-1.34,.15-.34,.04-.72-.15-1.09,1-.42,2.1-.82,2.98-.98,1.52-.28,3.27-.6,4-.73l2.31,1.87s2.28,2.64,1.27,4.63Z"/>
          <path class="cls-43" d="M120.28,20.76s1.61-.04,3.5,2.03c1.89,2.07,2.85,5.3,2.85,5.3,0,0,.13-2.56-1.8-5.53s-4.56-1.8-4.56-1.8Z"/>
          <path class="cls-49" d="M116.01,22.11s1.87,1.79,2.56,4.78c0,0-.28-3.27-1.21-4.62-.52-.75-1.27-.87-1.27-.87l-.09,.7Z"/>
          <path class="cls-52" d="M130.46,16.59s-.97,.13-1.89,1.65c-.92,1.52-3.73,4.33-3.73,4.33,0,0,2.01-1.49,2.81-2.81s2.35-2.96,3-2.98l-.2-.19Z"/>
          <path class="cls-22" d="M12.49,59.45s1.65,2.9,3.26,3.96c0,0-2.12-1.06-2.67-1.98-.55-.92-.59-1.98-.59-1.98Z"/>
          <path class="cls-40" d="M1.68,72.48s.72-1.18,2.1-2.11c1.38-.93,4.11-1.69,5.46-2.33l-.41-.33s-5.2,2.15-7.51,4.43c0,0,.23,.27,.36,.34Z"/>
          <path class="cls-27" d="M7.37,63.76s.83,2.84,2.24,4.67,3.32,2.76,3.32,2.76c0,0-2.73-.98-4.13-2.96-1.4-1.99-1.43-4.47-1.43-4.47Z"/>
        </g>
      </g>
    </g>
  </g>
</svg>