<?xml version="1.0" encoding="utf-8"?>
<!-- Generator: Adobe Illustrator 26.5.0, SVG Export Plug-In . SVG Version: 6.00 Build 0)  -->
<svg version="1.1" id="Layer_2_00000047028920185023263170000002223022596743638444_"
	 xmlns="http://www.w3.org/2000/svg" xmlns:xlink="http://www.w3.org/1999/xlink" x="0px" y="0px" viewBox="0 0 349.6 192"
	 style="enable-background:new 0 0 349.6 192;" xml:space="preserve">
<style type="text/css">
	.st0{fill:#FDBBCB;}
	.st1{fill:#FCDC3E;}
	.st2{fill:#95D4E9;}
</style>
<g id="Layer_1-2">
	<g>
		<path class="st0" d="M192.6,90.4c-0.3,0.7-0.8,1.4-1.4,1.9c1.5,0.8,2.4,2.3,2.4,4c0,2.6-2.4,4.8-5.4,4.8c-3,0-5.4-2.1-5.4-4.8
			c0-1,0.4-2,1-2.8c-2-0.8-3.4-2.5-3.6-4.6v6.9c0,0.1,0,0.3,0,0.4c0,3.9,3.6,7,8,7s8-3.1,8-7C196.2,93.9,194.8,91.7,192.6,90.4
			L192.6,90.4z"/>
		<path class="st1" d="M185.7,97.2c0.3-0.1,0.6,0.1,0.8,0.3c0.5,0.7,1.4,1.1,2.4,0.9c1-0.2,1.6-0.9,1.6-1.8c0-0.3,0.2-0.5,0.6-0.6
			l0,0c0.5-0.1,0.9,0.2,0.9,0.6c-0.1,1.4-1.2,2.6-2.8,2.9s-3.2-0.3-4-1.5C185,97.8,185.2,97.3,185.7,97.2L185.7,97.2L185.7,97.2z"/>
		<path class="st2" d="M188.2,83.2c-0.9-0.3-1.7-0.7-1.9-1.8c0-0.1-0.2-0.1-0.2,0c-0.2,0.7-0.2,1.2,0.2,1.6c-0.1,0-0.2,0-0.4,0
			c-0.3-0.3-0.4-0.6-0.5-1.1c0-0.1-0.2-0.1-0.2,0c-0.2,0.5-0.2,0.9-0.1,1.2c-2.2,0.4-4,1.9-4.7,3.8c-0.2,0.5-0.3,1.1-0.3,1.6
			c0,0.1,0,0.3,0,0.4V89c0.2,2,1.6,3.7,3.6,4.6c0,0,0,0,0,0c0.8,0.4,1.8,0.6,2.8,0.6c1.8,0,3.5-0.7,4.6-1.8c0,0,0,0,0,0
			c0.6-0.6,1-1.2,1.4-1.9l0,0c0.2-0.4,0.3-0.8,0.3-1.1c0,0,0,0,0,0c0-0.1,0-0.1,0-0.2c0,0,0,0,0-0.1c0-0.1,0-0.1,0-0.2s0-0.1,0-0.2
			c0,0,0,0,0-0.1C192.9,86,190.9,83.8,188.2,83.2L188.2,83.2z M186.6,91.9c-2.1,0-3.8-1.5-3.8-3.3c0-1.8,1.7-3.3,3.8-3.3
			s3.8,1.5,3.8,3.3C190.4,90.4,188.7,91.9,186.6,91.9z"/>
	</g>
</g>
</svg>
