<?xml version="1.0" encoding="utf-8"?>
<!-- Generator: Adobe Illustrator 26.5.0, SVG Export Plug-In . SVG Version: 6.00 Build 0)  -->
<svg version="1.1" id="Layer_2_00000047028920185023263170000002223022596743638444_"
	 xmlns="http://www.w3.org/2000/svg" xmlns:xlink="http://www.w3.org/1999/xlink" x="0px" y="0px" viewBox="0 0 349.6 192"
	 style="enable-background:new 0 0 349.6 192;" xml:space="preserve">
<style type="text/css">
	.st0{fill:#FDBBCB;}
	.st1{fill:#FCDC3E;}
	.st2{fill:#95D4E9;}
</style>
<g id="Layer_1-2">
	<g>
		<path class="st0" d="M248,77.8c-4.9,10.2-13.2,20.5-23,27.8c24.7,11.7,39.5,33.6,39.5,58.5c0,38-39.5,70.2-88.9,70.2
			s-88.9-30.7-88.9-70.2c0-14.6,6.6-29.3,16.5-41c-32.9-11.7-56-36.6-59.3-67.3v100.9c0,1.5,0,4.4,0,5.9
			c0,57.1,59.3,102.4,131.7,102.4s131.7-45.3,131.7-102.4C307.3,129,284.3,96.9,248,77.8L248,77.8z"/>
		<path class="st1" d="M134.5,177.3c4.9-1.5,9.9,1.5,13.2,4.4c8.2,10.2,23,16.1,39.5,13.2s26.3-13.2,26.3-26.3
			c0-4.4,3.3-7.3,9.9-8.8l0,0c8.2-1.5,14.8,2.9,14.8,8.8c-1.6,20.5-19.8,38-46.1,42.4s-52.7-4.4-65.8-21.9
			C123,186.1,126.2,178.8,134.5,177.3L134.5,177.3L134.5,177.3z"/>
		<path class="st2" d="M175.6-27.5c-14.8-4.4-28-10.2-31.3-26.3c0-1.5-3.3-1.5-3.3,0c-3.3,10.2-3.3,17.6,3.3,23.4
			c-1.6,0-3.3,0-6.6,0c-4.9-4.4-6.6-8.8-8.2-16.1c0-1.5-3.3-1.5-3.3,0c-3.3,7.3-3.3,13.2-1.6,17.6C88.4-23.1,58.8-1.1,47.2,26.6
			c-3.3,7.3-4.9,16.1-4.9,23.4c0,1.5,0,4.4,0,5.9v1.5c3.3,29.3,26.3,54.1,59.3,67.3l0,0c13.2,5.9,29.6,8.8,46.1,8.8
			c29.6,0,57.6-10.2,75.7-26.3l0,0c9.9-8.8,16.5-17.6,23-27.8l0,0c3.3-5.9,4.9-11.7,4.9-16.1l0,0c0-1.5,0-1.5,0-2.9c0,0,0,0,0-1.5
			s0-1.5,0-2.9c0-1.5,0-1.5,0-2.9c0,0,0,0,0-1.5C253,13.5,220.1-18.7,175.6-27.5L175.6-27.5z M149.3,99.8
			c-34.6,0-62.5-21.9-62.5-48.3s28-48.3,62.5-48.3s62.5,21.9,62.5,48.3C211.8,77.8,183.9,99.8,149.3,99.8z"/>
	</g>
</g>
</svg>
