<?xml version="1.0" encoding="UTF-8"?>
<svg width="3000px" height="655px" viewBox="0 0 3000 655" version="1.1" xmlns="http://www.w3.org/2000/svg" xmlns:xlink="http://www.w3.org/1999/xlink">
    <!-- Generator: Sketch 62 (91390) - https://sketch.com -->
    <title>footer-bg</title>
    <desc>Created with Sketch.</desc>
    <g id="footer-bg" stroke="none" stroke-width="1" fill="none" fill-rule="evenodd">
        <path d="M3000.01122,159.812722 L3000,655 L1062.89533,655.005344 C1416.21079,567.435696 1808.12386,459.315834 1800.87299,422.09442 C1733.2959,418.334472 1660.56265,398.851042 1651.45479,396.289878 C1642.34692,393.728714 1616.0989,400.272596 1609.23634,401.983624 C1567.29594,408.79252 1484.63296,388.184855 1469.78238,382.17499 C1462.94443,379.047388 1447.5523,375.589034 1449.53917,364.197374 C1451.23725,351.645461 1471.21917,353.959451 1456.65158,349.063257 C1440.98142,344.489752 1427.00516,337.029875 1427.87869,325.915802 C1430.16816,310.800434 1451.54185,313.951646 1438.71118,311.086424 C1427.03901,307.932354 1416.4602,299.673672 1422.74829,285.977338 C1430.45209,268.279766 1471.79112,288.294129 1461.53546,281.139106 C1451.27951,273.983911 1460.9908,249.721304 1484.91318,258.34984 C1531.38867,274.667533 1591.84624,283.850841 1584.4299,278.403415 C1576.73563,271.841297 1542.25165,240.40549 1555.94829,222.445994 C1569.64492,204.486498 1598.71839,257.880351 1621.81817,263.017204 C1646.03141,267.876927 1652.89184,300.135549 1667.4277,300.159615 C1678.75136,300.178363 2322.10082,267.088497 2493,263 C2602.2993,260.385184 2824.16301,209.837611 3000.01122,159.812722 Z M3000,0 L3000.03496,42.1808103 C2539.47495,21.3982656 1612.64234,9.60324808 1475.49527,1.38545835 C1391.67916,-3.63676546 1386.29467,21.0657372 1397.64426,34.3914567 C1408.99386,47.7171761 1434.82951,73.6505113 1476.4787,99.6518106 C1498.14922,113.673807 1485.58683,136.182513 1473.6368,131.913977 C1461.96463,128.759906 1503.01487,147.614015 1495.31107,165.311587 C1489.02343,179.007807 1476.19253,176.142643 1465.93681,168.987391 C1455.40282,160.717047 1471.0805,175.000967 1461.94193,186.943971 C1455.38931,194.641992 1440.54357,188.631161 1426.28933,180.056362 C1413.48281,172.352625 1427.71284,185.765712 1419.17693,195.190479 C1410.64091,204.614791 1398.6595,195.473556 1391.53241,191.18627 C1380.40709,185.479609 1160.72152,49.969355 1088.64876,37.0270356 C1008.59099,22.6508264 287.934801,45.0568929 -0.0425174433,111.842514 L4.97379915e-13,0 L3000,0 Z" id="Combined-Shape" fill="#FFFFFF"></path>
    </g>
</svg>