<?xml version="1.0" encoding="UTF-8"?>
<svg xmlns="http://www.w3.org/2000/svg" xmlns:xlink="http://www.w3.org/1999/xlink" viewBox="0 0 302.93 236.83">
  <defs>
    <style>
      .cls-1 {
        fill: #ea7b59;
      }

      .cls-2 {
        fill: #ffc95c;
      }

      .cls-3 {
        fill: #f9e7c5;
      }

      .cls-4 {
        fill: #ff9f48;
      }

      .cls-5 {
        fill: #f46296;
      }

      .cls-6 {
        clip-path: url(#clippath-2);
      }

      .cls-7 {
        isolation: isolate;
      }

      .cls-8 {
        fill: #843131;
        mix-blend-mode: multiply;
        opacity: .6;
      }

      .cls-9 {
        fill: #ff9566;
      }

      .cls-10 {
        clip-path: url(#clippath-1);
      }

      .cls-11 {
        fill: #db4077;
      }

      .cls-12 {
        fill: #3a478e;
      }

      .cls-13 {
        clip-path: url(#clippath);
      }

      .cls-14 {
        fill: #ffda73;
      }

      .cls-15 {
        fill: none;
      }

      .cls-16 {
        fill: #3f7fa5;
      }

      .cls-17 {
        clip-path: url(#clippath-3);
      }

      .cls-18 {
        fill: #7a2f25;
      }

      .cls-19 {
        fill: #e84989;
      }

      .cls-20 {
        fill: #893d30;
      }

      .cls-21 {
        fill: #ffb882;
      }

      .cls-22 {
        fill: #763224;
      }

      .cls-23 {
        fill: #ed4f8f;
      }

      .cls-24 {
        fill: #fffbdd;
      }

      .cls-25 {
        fill: #505aa5;
      }
    </style>
    <clipPath id="clippath">
      <path class="cls-15" d="M76.02,189.43c-2.59-8.43-8.51-15.35-13.23-15.44-4.72-.09-6.45,6.67-3.87,15.1,2.59,8.43,8.51,15.35,13.23,15.44,4.72,.09,6.45-6.67,3.87-15.1Z"/>
    </clipPath>
    <clipPath id="clippath-1">
      <path class="cls-15" d="M59.27,157.25c-2.59-8.43-8.51-15.35-13.23-15.44-4.72-.09-6.45,6.67-3.87,15.1,2.59,8.43,8.51,15.35,13.23,15.44,4.72,.09,6.45-6.67,3.87-15.1Z"/>
    </clipPath>
    <clipPath id="clippath-2">
      <path class="cls-15" d="M44.08,124.63c-2.59-8.43-8.51-15.35-13.23-15.44s-6.45,6.67-3.87,15.1c2.59,8.43,8.51,15.35,13.23,15.44,4.72,.09,6.45-6.67,3.87-15.1Z"/>
    </clipPath>
    <clipPath id="clippath-3">
      <path class="cls-15" d="M27.1,92.24c-2.59-8.43-8.51-15.35-13.23-15.44-4.72-.09-6.45,6.67-3.87,15.1,2.59,8.43,8.51,15.35,13.23,15.44,4.72,.09,6.45-6.67,3.87-15.1Z"/>
    </clipPath>
  </defs>
  <g class="cls-7">
    <g id="Layer_2" data-name="Layer 2">
      <g id="_1" data-name="1">
        <g>
          <ellipse class="cls-2" cx="231.28" cy="192.82" rx="8.04" ry="11.84"/>
          <path class="cls-4" d="M230.66,181.02c-4.4,0-7.79,5.56-7.79,11.8,0,5.12,2.58,9.48,5.68,11.12,4.15-.47,7.42-5.56,7.42-11.8,0-5.12-2.22-9.48-5.31-11.13Z"/>
          <ellipse class="cls-2" cx="202.45" cy="166.01" rx="8.04" ry="11.84"/>
          <path class="cls-4" d="M201.84,154.21c-4.4,0-7.79,5.56-7.79,11.8,0,5.12,2.58,9.48,5.68,11.12,4.15-.47,7.42-5.56,7.42-11.8,0-5.12-2.22-9.48-5.31-11.13Z"/>
          <ellipse class="cls-2" cx="174.3" cy="138.75" rx="8.04" ry="11.84"/>
          <path class="cls-4" d="M173.68,126.96c-4.4,0-7.79,5.56-7.79,11.8,0,5.12,2.58,9.48,5.68,11.12,4.15-.47,7.43-5.56,7.43-11.8,0-5.12-2.22-9.48-5.31-11.13Z"/>
          <ellipse class="cls-2" cx="146.37" cy="113.28" rx="8.04" ry="11.84"/>
          <path class="cls-4" d="M145.76,101.49c-4.4,0-7.79,5.56-7.79,11.8,0,5.12,2.58,9.48,5.68,11.13,4.15-.47,7.42-5.56,7.42-11.8,0-5.12-2.22-9.48-5.31-11.13Z"/>
          <ellipse class="cls-2" cx="117.33" cy="85.8" rx="8.04" ry="11.84"/>
          <path class="cls-4" d="M116.71,74c-4.4,0-7.79,5.56-7.79,11.8,0,5.12,2.58,9.48,5.68,11.13,4.15-.47,7.42-5.56,7.42-11.8,0-5.12-2.22-9.48-5.31-11.13Z"/>
          <path class="cls-11" d="M170.22,236.83h132.71c-.54-8.29-6.28-15.33-14.29-17.53l-43.5-11.95L118.42,88.74c-3.59-3.36-8.26-5.36-13.17-5.63-3.25-.18-6.34,1.4-8.1,4.13-1.76,2.73-1.92,6.2-.41,9.08l73.47,140.51Z"/>
          <path class="cls-5" d="M113.01,89.25l124.28,121.87c25.38,6.63,53.51,10.17,53.91,25.71h11.73c-.54-8.29-5.8-16.36-13.81-18.56s-43.68-11.95-43.68-11.95L119.04,88.08c-3.59-3.36-8.87-4.69-13.79-4.97-2.13-.12-4.19,.53-5.86,1.76,4.53-1.74,11.91,2.77,13.61,4.38Z"/>
          <path class="cls-11" d="M108.29,99.81c-1.55-5.2-6.17-8.9-11.58-9.29L6.07,84.01l10.28,46.02H117.33l-9.03-30.23Z"/>
          <path class="cls-23" d="M92.22,97.03c-1.23-4.1-4.86-7.01-9.13-7.32l-71.45-5.13,8.1,36.28H99.34l-7.12-23.83Z"/>
          <path class="cls-4" d="M23.94,92.95l81.51,4.93c9.33,.56,18.07,4.76,24.34,11.7l99.7,110.28,49.7,8.61c4.07,.71,7.04,4.24,7.04,8.37H37.79L23.94,92.95Z"/>
          <path class="cls-4" d="M280.42,228.79c-.4-.13-.8-.25-1.22-.33l-49.16-9.97-100.24-108.92c-6.27-6.93-15.01-11.13-24.34-11.7l-81.51-4.93,13.08,135.84h243.4Z"/>
          <path class="cls-2" d="M275.95,229.68c-.4-.13-.8-.25-1.22-.33l-56.98-12.2L125.32,110.47c-6.27-6.93-17.38-12.44-26.71-13.01l-80.44-5.87,14.38,138.09h243.4Z"/>
          <path class="cls-14" d="M186.67,188.33l-63.68-73.52c-5.71-6.31-15.82-11.32-24.31-11.84l-73.22-5.34,4.85,46.54c14.52,12.53,34.72,24.55,58.28,33.77,39.37,15.41,77.15,18.71,98.09,10.38Z"/>
          <path class="cls-5" d="M13.66,236.83H159.78c.26-4.15-2.47-7.9-6.49-8.93l-56.13-14.38c-5.36-1.37-9.86-4.99-12.35-9.93L27.14,89.43c-3.09-6.12-9.21-10.13-16.05-10.52-3.05-.18-6.03,.99-8.15,3.19C.82,84.29-.24,87.31,.05,90.35L13.66,236.83Z"/>
          <path class="cls-11" d="M146.9,236.83c-.93-2.68-3.12-4.84-6.02-5.58l-66.59-14.38c-5.36-1.37-9.86-4.99-12.35-9.93L6.69,94.02c-2.53-5.01,.96-9.85-4.37-11.2-1.7,2.11-2.52,4.81-2.27,7.53L11.63,236.83H146.9Z"/>
          <path class="cls-19" d="M5.5,159.33l6.13,77.51h25.14c-14.75-21.91-24.29-72.12-31.27-77.51Z"/>
          <path class="cls-11" d="M234.82,196.39c-8.54-3.69-14.01-6.82-15.63-10.23s4.9,.19,4.9,.19l10.73,10.04Z"/>
          <path class="cls-11" d="M71.28,204.43c-12.2-2.79-22.11-7.16-20.21-13.19,1.19-3.8,12.29-1.34,12.29-1.34l7.92,14.53Z"/>
          <path class="cls-11" d="M54.74,172.14c-12.2-2.79-22.11-7.16-20.21-13.19,1.19-3.8,12.29-1.34,12.29-1.34l7.92,14.53Z"/>
          <path class="cls-11" d="M38.21,139.86c-12.2-2.79-22.11-7.16-20.21-13.19,1.19-3.8,12.29-1.34,12.29-1.34l7.92,14.53Z"/>
          <path class="cls-11" d="M21.68,107.58c-12.2-2.79-22.11-7.16-20.21-13.19,1.19-3.8,12.29-1.34,12.29-1.34l7.92,14.53Z"/>
          <path class="cls-11" d="M206.51,169.9c-8.54-3.69-15.58-8.24-17.2-11.64s6.02,1.19,6.02,1.19l11.19,10.45Z"/>
          <path class="cls-11" d="M178.08,143.37c-8.54-3.69-15.58-8.24-17.2-11.64-1.62-3.41,6.02,1.19,6.02,1.19l11.19,10.45Z"/>
          <path class="cls-11" d="M150.43,117.4c-8.54-3.69-15.58-8.24-17.2-11.64s6.02,1.19,6.02,1.19l11.19,10.45Z"/>
          <path class="cls-11" d="M103.89,83.15c4.23,2.61,11.96,5.19,17.41,7.03l-2.51-2.57c-4.59-4.29-12.09-4.74-14.9-4.46Z"/>
          <g class="cls-13">
            <ellipse class="cls-2" cx="68.62" cy="196.39" rx="8.04" ry="11.84"/>
            <path class="cls-4" d="M68.01,184.6c-4.4,0-7.79,5.56-7.79,11.8,0,5.12,2.58,9.48,5.68,11.12,4.15-.47,7.42-5.56,7.42-11.8,0-5.12-2.22-9.48-5.31-11.13Z"/>
          </g>
          <g class="cls-10">
            <ellipse class="cls-2" cx="51.87" cy="164.22" rx="8.04" ry="11.84"/>
            <path class="cls-4" d="M51.25,152.43c-4.4,0-7.79,5.56-7.79,11.8,0,5.12,2.58,9.48,5.68,11.12,4.15-.47,7.42-5.56,7.42-11.8,0-5.12-2.22-9.48-5.31-11.13Z"/>
          </g>
          <g class="cls-6">
            <ellipse class="cls-2" cx="36.67" cy="131.6" rx="8.04" ry="11.84"/>
            <path class="cls-4" d="M36.06,119.81c-4.4,0-7.79,5.56-7.79,11.8,0,5.12,2.58,9.48,5.68,11.12,4.15-.47,7.43-5.56,7.43-11.8,0-5.12-2.22-9.48-5.31-11.13Z"/>
          </g>
          <g class="cls-17">
            <ellipse class="cls-2" cx="19.69" cy="99.21" rx="8.04" ry="11.84"/>
            <path class="cls-4" d="M19.08,87.41c-4.4,0-7.79,5.56-7.79,11.8,0,5.12,2.58,9.48,5.68,11.12,4.15-.47,7.43-5.56,7.43-11.8,0-5.12-2.22-9.48-5.31-11.13Z"/>
          </g>
          <polygon class="cls-4" points="221.98 216.93 128.37 216.93 217.07 213.81 221.98 216.93"/>
          <polygon class="cls-4" points="187.35 208.67 140.66 156.16 103.35 105.22 187.35 208.67"/>
          <polygon class="cls-4" points="153.84 208.22 112.71 158.19 76.98 105 153.84 208.22"/>
          <polygon class="cls-4" points="119.88 209.11 84.21 160.89 50.62 104.78 119.88 209.11"/>
          <path class="cls-8" d="M92.64,103.7c-1.03-2.23-11.1-5.33-22.49-6.93-11.39-1.6-19.8-1.09-18.77,1.14,1.03,2.23,11.1,5.33,22.49,6.93,11.39,1.6,19.8,1.09,18.77-1.14Z"/>
          <g>
            <path class="cls-18" d="M38.11,45.35c-4.27-1.01-4.69-8.04-5.95-10.72-1.26-2.68-4.19-3.02-4.19-3.02,2.35,1.84,2.76,5.53,2.51,10.64-.25,5.11,4.02,10.14,12,12.77l-4.38-9.67Z"/>
            <path class="cls-20" d="M61.9,21.72c-3.91-1.9-11.06-2.96-15.53-13.13C41.91-1.57,32.63,.1,32.63,.1c1.79,1.12,1.56,2.9-1.01,10.28-2.57,7.37,.22,10.39,3.35,15.53,3.13,5.14-1.68,15.47,1.9,22.96,3.57,7.48,20.47,11.28,30.64,5.36l3.27-11.9c7.15-11.84-4.97-18.71-8.88-20.61Z"/>
            <path class="cls-18" d="M42.3,10.83c-1.17-5.19-4.27-5.61-4.27-5.61,2.68,4.36,1.34,9.05-.34,13.99-1.68,4.94,1.59,10.89,8.8,16.09l6.4-6.22c-12.28-2.79-9.42-13.05-10.59-18.24Z"/>
            <path class="cls-18" d="M31.71,10.15c-.03,.08-.05,.15-.08,.23-2.57,7.37-.78,11.17,2.35,16.31s-1.79,15.3,1.79,22.79c3.57,7.48,21.59,10.67,31.75,4.75l3.27-11.9c.43-.72,.79-1.41,1.09-2.1-16.7,6.49-41.28-15.89-40.16-30.09Z"/>
            <path class="cls-21" d="M90.31,75.47c.76-.1,16.96-4.55,30.14-8.72l-.17-1.39s-22.72,3.91-28.07,5.78c-1.76,1.57-1.9,4.33-1.9,4.33Z"/>
            <path class="cls-9" d="M102.54,71.38c-.28-.85-.03-1.83,.64-2.84-4.68,.94-9,1.91-10.98,2.6-1.76,1.57-1.9,4.33-1.9,4.33,.43-.05,5.7-1.48,12.58-3.45-.15-.2-.27-.41-.35-.64Z"/>
            <path class="cls-21" d="M90.81,67.26c.76-.1,16.96-4.55,30.14-8.72l-.17-1.39s-22.72,3.91-28.07,5.78c-1.76,1.57-1.9,4.33-1.9,4.33Z"/>
            <path class="cls-9" d="M103.09,62.07c-.21-.48-.24-1.02-.11-1.59-4.4,.9-8.4,1.8-10.27,2.46-1.76,1.57-1.9,4.33-1.9,4.33,.45-.06,6.32-1.64,13.77-3.79-.71-.32-1.23-.79-1.49-1.4Z"/>
            <path class="cls-21" d="M73.71,61.45c.38-.67,6.43-16.35,10.92-29.42l-1.22-.69s-10.37,20.59-12.05,26.01c.22,2.35,2.35,4.1,2.35,4.1Z"/>
            <path class="cls-9" d="M75.28,48.08c-1.81,3.9-3.36,7.45-3.93,9.28,.22,2.35,2.35,4.1,2.35,4.1,.15-.27,1.22-2.96,2.73-6.93-.64-1.69-1.05-3.91-1.16-6.44Z"/>
            <path class="cls-25" d="M63.3,61.15s8.87,21.06,31.26,22.72c0,0,4.85-11.47,5.47-24.22,0,0-12.94,2.99-18.41,1.16-5.47-1.82-9.33-4.35-10.99-4.35s-7,1.21-7.33,4.7Z"/>
            <path class="cls-12" d="M64.48,60.48c-1.54-1.68-1.67,.1-1.73,.72,0,0,9.42,21.01,31.82,22.67,0,0,1.2-2.84,2.48-7.26-19.17,.32-29.61-12.19-32.57-16.13Z"/>
            <path class="cls-21" d="M65.55,64.78c-.76,.01-16.93-2.93-29.66-5.23l.27-.92s20.68,2.5,27.68,1.79c1.52,1.33,1.72,4.36,1.72,4.36Z"/>
            <path class="cls-9" d="M59.11,60.65c0,.86-1.95,1.63-5.06,2.18,6.31,1.13,11.09,1.96,11.5,1.96,0,0-.2-3.03-1.72-4.36-1.23,.13-2.88,.15-4.75,.11,0,.04,.03,.08,.03,.12Z"/>
            <path class="cls-21" d="M63.14,59.95c2.91,.26,6.72,3.3,8.31,2.6,3.17-1.39,1.69-4.78-1.06-6.08-1.62-.19-6.02,.69-7.25,3.48Z"/>
            <polygon class="cls-21" points="63.85 58.86 62.57 55.69 66.89 53.31 68.73 57.12 63.85 58.86"/>
            <path class="cls-8" d="M75.06,58.12c.1-.25,.2-.52,.31-.8,.02-.04,.03-.08,.05-.12,.15-.39,.31-.79,.47-1.22,.01-.03,.02-.05,.03-.08,.16-.43,.33-.87,.51-1.33,0-.02,.01-.03,.02-.04h0c.03-.07,.06-.15,.08-.22-.9-.68-2-1.32-3.2-1.88-.14,.32-.27,.63-.4,.93-.04,.08-.07,.17-.11,.25-.15,.35-.29,.69-.43,1.02,0,.01-.01,.03-.02,.04-.14,.33-.26,.64-.38,.94-.03,.08-.06,.15-.09,.23-.08,.22-.16,.42-.23,.62-.02,.07-.05,.14-.08,.21-.37-.11-.7-.19-.96-.19-.07,0-.16,0-.24,0-.46-.05-1.15,0-1.91,.13l-1.59-3.29-4.31,2.39,1.28,3.17h.04c-.27,.29-.51,.62-.68,.98-.19,.12-.3,.37-.36,.65-.05,0-.1,0-.15,0-.29,.01-.6,.03-.92,.03-.03,0-.07,0-.1,0-.79,.02-1.66,.01-2.59,0-1.15-.03-2.39-.08-3.67-.15,5.8,6.15,22.54,3.1,19.65-2.27Z"/>
            <path class="cls-21" d="M72.77,35.56c-3.1-7.84-10.67-10-17.62-7.54-6.95,2.47-11.59,10.64-8.77,18.58,2.82,7.94,12.52,11.61,19.47,9.15,6.95-2.47,11.9-7.63,6.92-20.19Z"/>
            <path class="cls-18" d="M53.24,52.22c-.34-6.14-6.65-8.94-6.03-17.43,0,0-6.07-.34-5.12,8.71,.95,9.05,11.16,8.71,11.16,8.71Z"/>
            <path class="cls-21" d="M50.23,50.89c-4.03-1.34-5.11,1.86-3.74,3.35s6.83,.52,6.73-.55-1.72-2.38-2.98-2.8Z"/>
            <path class="cls-1" d="M49.93,51.54c-2.45-.49-2.85,1.45-1.95,2.22s4.03-.18,3.89-.8c-.14-.62-1.17-1.27-1.94-1.42Z"/>
            <path class="cls-21" d="M51.11,51.93c-1.73-.35-2.02,1.03-1.38,1.57,.64,.55,2.86-.13,2.76-.57-.1-.44-.83-.9-1.38-1.01Z"/>
            <path class="cls-3" d="M120.05,68.3l5.11-7.54s-6.28,3.18-6.79,4.86c-.5,1.68,1.68,2.68,1.68,2.68Z"/>
            <path class="cls-3" d="M121.47,59.59l5.11-7.54s-6.28,3.18-6.79,4.86c-.5,1.68,1.68,2.68,1.68,2.68Z"/>
            <g>
              <path class="cls-24" d="M59.24,41.33c-.88-1.79-2.65-2.86-3.97-2.39-1.31,.47-1.67,2.3-.8,4.09,.88,1.79,2.24,2.06,3.55,1.59,1.31-.47,2.09-1.5,1.21-3.29Z"/>
              <path class="cls-16" d="M58.61,41.33c-.38-.99-1.3-1.65-2.07-1.49-.76,.17-1.07,1.1-.69,2.09,.38,.99,1.3,1.65,2.07,1.49,.76-.17,1.07-1.1,.69-2.09Z"/>
              <path class="cls-24" d="M58.3,40.5c-.15-.38-.5-.64-.8-.57-.29,.06-.41,.43-.27,.81,.15,.38,.5,.64,.8,.57,.29-.06,.41-.43,.27-.81Z"/>
              <path class="cls-20" d="M49.89,37.35l1.25,.89c.18-1.03,2.71-4.38,5.99-4.63l-1.15-2.32s-5.24,1.16-6.08,6.05Z"/>
              <path class="cls-24" d="M69.68,37.08c-.86-1.77-2.59-2.79-3.85-2.28-1.26,.51-1.58,2.37-.72,4.14,.86,1.77,2.18,2,3.44,1.49,1.26-.51,1.99-1.58,1.13-3.35Z"/>
              <path class="cls-16" d="M69.14,37.23c-.37-.98-1.29-1.64-2.06-1.47-.76,.17-1.08,1.1-.7,2.08,.37,.98,1.29,1.64,2.06,1.47,.76-.17,1.08-1.1,.7-2.08Z"/>
              <path class="cls-24" d="M68.84,36.41c-.14-.38-.5-.63-.79-.57-.29,.07-.42,.42-.27,.8,.14,.38,.5,.63,.79,.57,.29-.06,.42-.42,.27-.8Z"/>
              <path class="cls-20" d="M68.85,31.43l-.28,1.34c-.61-.71-3.73-2.05-5.74-.56l-.48-2.41s3.6-1.78,6.5,1.63Z"/>
              <path class="cls-22" d="M61.42,48.61l7.58-2.16s.4,3.16-2.07,4.14c-2.81,1.12-5.51-1.98-5.51-1.98Z"/>
              <path class="cls-24" d="M62.26,48.65l6.33-1.84s.16,2.03-2.01,2.84c-2.43,.91-4.31-1-4.31-1Z"/>
              <path class="cls-1" d="M65.94,43.3c-.64-.79-1.89-1.13-1.89-1.13l-.68,3.07c2.11,.61,3.38-.93,2.56-1.94Z"/>
              <path class="cls-21" d="M65.33,43.34c-.45-.62-1.42-.93-1.42-.93l-.56,2.45c1.58,.39,2.52-.78,1.97-1.53Z"/>
              <path class="cls-1" d="M67.95,51.83c-.07-.13-.62-.04-1.23,.21-.61,.25-1.05,.56-.99,.7,.07,.13,.62,.04,1.23-.21,.61-.25,1.05-.56,.99-.7Z"/>
            </g>
            <g>
              <path class="cls-21" d="M83.03,35.2c1.16-1.4,3.37-2.08,3.78-3.39,.32-1.02-1.55-3.31-2.22-3.11-.66,.2-2.55,5.3-2.55,5.3l.99,1.2Z"/>
              <path class="cls-21" d="M82.65,32.67c.04-1.56-.7-4.21-.74-4.73-.04-.52,.56-.49,1.09,.84,.53,1.33,.32,1.83,1,1.94,.75,.12-1.37,2.7-1.35,1.95Z"/>
              <path class="cls-21" d="M84.97,29.86c.48-1.2,1.64-4.04,1.25-4.21-.39-.17-2.3,3.94-2.3,3.94l1.05,.27Z"/>
              <path class="cls-21" d="M85.94,30.7c.67-1.09,2.27-3.67,1.91-3.9-.36-.23-2.91,3.45-2.91,3.45l1,.45Z"/>
              <path class="cls-21" d="M86.36,32.52c.89-.9,3.01-3.01,2.7-3.32-.3-.31-3.59,2.64-3.59,2.64l.88,.67Z"/>
            </g>
            <g>
              <path class="cls-21" d="M40.98,60.33c-1.82,.06-3.75,1.38-5.03,.9-1-.38-1.63-3.28-1.05-3.69,.57-.4,6.65,1.88,6.65,1.88l-.56,.91Z"/>
              <path class="cls-21" d="M39.3,58.58c-1.25-.93-2.93-3.29-3.31-3.64-.38-.36-.73,.14-.02,1.39,.71,1.24,1.23,1.39,.89,2-.37,.67,3.05,.71,2.44,.26Z"/>
              <path class="cls-21" d="M35.3,58.64c-1.2-.5-4.04-1.66-3.88-2.06s4.44,1.12,4.44,1.12l-.56,.94Z"/>
              <path class="cls-21" d="M35.62,59.85c-1.28-.15-4.3-.47-4.26-.9,.04-.43,4.53-.17,4.53-.17l-.27,1.07Z"/>
              <path class="cls-21" d="M36.79,61.31c-1.26,.15-4.24,.53-4.3,.09s4.32-1.21,4.32-1.21l-.02,1.12Z"/>
            </g>
          </g>
        </g>
      </g>
    </g>
  </g>
</svg>