<?xml version="1.0" encoding="UTF-8"?>
<svg xmlns="http://www.w3.org/2000/svg" viewBox="0 0 336.67 146.97">
  <defs>
    <style>
      .cls-1, .cls-2 {
        fill: #2983ad;
      }

      .cls-3 {
        fill: #40c7f4;
      }

      .cls-4 {
        fill: #fff;
      }

      .cls-5 {
        fill: #154070;
      }

      .cls-6 {
        fill: #f7d6b6;
      }

      .cls-7 {
        fill: #2d6fb7;
      }

      .cls-8, .cls-9 {
        fill: #b91133;
      }

      .cls-10, .cls-11 {
        fill: #f4abca;
      }

      .cls-2, .cls-12, .cls-9, .cls-13, .cls-11, .cls-14, .cls-15, .cls-16 {
        mix-blend-mode: multiply;
      }

      .cls-17 {
        isolation: isolate;
      }

      .cls-12 {
        fill: #6bc07d;
      }

      .cls-12, .cls-13, .cls-15 {
        opacity: .5;
      }

      .cls-18 {
        fill: #0b335f;
      }

      .cls-19 {
        fill: #f9a731;
      }

      .cls-20, .cls-13 {
        fill: #cc7924;
      }

      .cls-21 {
        fill: #ed1942;
      }

      .cls-22 {
        fill: #1a4168;
      }

      .cls-23 {
        fill: #f16667;
      }

      .cls-24 {
        fill: #ffe790;
      }

      .cls-25 {
        fill: #d81f2c;
      }

      .cls-26 {
        fill: #82252f;
      }

      .cls-27 {
        fill: #f8af43;
      }

      .cls-28 {
        fill: #e5e2cd;
      }

      .cls-14 {
        fill: #828487;
      }

      .cls-29 {
        fill: #221f1f;
      }

      .cls-30 {
        fill: #bed86e;
      }

      .cls-15 {
        fill: #5cc0d5;
      }

      .cls-31 {
        fill: #8cbd3f;
      }

      .cls-32 {
        fill: #231f20;
      }

      .cls-33 {
        fill: #ef7daf;
      }

      .cls-34 {
        fill: #b4b922;
      }

      .cls-35 {
        fill: #1d1c1a;
      }

      .cls-36 {
        fill: #1d1d1b;
      }
    </style>
  </defs>
  <g class="cls-17">
    <g id="Layer_2" data-name="Layer 2">
      <g id="Layer_1-2" data-name="Layer 1">
        <g>
          <g>
            <g>
              <path class="cls-20" d="M285.28,29.29s.05,8.93-5.22,12.66c0,0,2.04,2.03,4.77,2.6l1.82-2.69-.75,2.86s7.03,4.2,15.81,3.04c8.79-1.16-16.55-23.81-16.43-18.47Z"/>
              <path class="cls-29" d="M298.59,48.17h0c-7.24,0-12.74-3.24-12.79-3.27-.08-.05-.12-.14-.09-.23l.45-1.7-1.15,1.7c-.05,.07-.12,.1-.21,.09-2.76-.58-4.78-2.58-4.87-2.66-.04-.04-.06-.1-.06-.16,0-.06,.04-.12,.08-.15,5.12-3.63,5.13-12.4,5.13-12.49,0-.33,.08-.59,.25-.77,.16-.17,.4-.25,.69-.25,3.73,0,17.42,12.65,17.74,17.54,.06,.85-.25,1.92-2.02,2.15-1.03,.14-2.09,.21-3.14,.21Zm-12.45-3.55c.87,.49,5.95,3.14,12.45,3.14h0c1.04,0,2.08-.07,3.09-.2,1.19-.16,1.73-.72,1.67-1.72-.33-5-14.26-17.15-17.33-17.15-.18,0-.32,.04-.4,.13-.09,.09-.14,.25-.13,.48,0,.09-.01,8.85-5.1,12.68,.53,.48,2.23,1.87,4.35,2.36l1.74-2.58c.06-.08,.16-.11,.25-.07,.09,.04,.14,.14,.11,.24l-.71,2.71Z"/>
            </g>
            <g>
              <path class="cls-35" d="M269.38,86.23c-.16,0-.32-.1-.38-.26-.08-.21,.02-.45,.23-.53,.47-.18,11.5-4.43,14.71-5.06,3.19-.63,12.21-1.58,12.59-1.62,.21-.03,.43,.14,.45,.36,.02,.23-.14,.43-.36,.45-.09,0-9.36,.98-12.52,1.6-3.14,.62-14.46,4.97-14.57,5.02-.05,.02-.1,.03-.15,.03Z"/>
              <g>
                <g>
                  <g>
                    <path class="cls-25" d="M268.91,87.72s.04-.01,.06-.02c1.03-.33,1.85-1.28,1.49-2.4-.49-1.55-2.91-5.29-4.63-6.09-1.64-.75-2.24,.46-1.99,1.8,.34,1.78,2.46,7.53,5.07,6.71Z"/>
                    <path class="cls-35" d="M268.4,88.01c-2.62,0-4.47-5.42-4.76-6.96-.14-.75-.03-1.42,.32-1.83,.41-.5,1.11-.57,1.96-.19,1.77,.81,4.23,4.61,4.74,6.21,.41,1.27-.51,2.3-1.62,2.66-.04,.01-.06,.02-.08,.02-.17,.05-.36,.08-.55,.08Zm.45-.48l.12,.18-.06-.2c.92-.3,1.68-1.13,1.36-2.15-.48-1.5-2.87-5.21-4.52-5.96-.66-.3-1.18-.28-1.47,.08-.26,.31-.35,.87-.23,1.5,.34,1.82,2.2,6.62,4.36,6.62,.15,0,.3-.02,.45-.07Z"/>
                  </g>
                  <g>
                    <path class="cls-28" d="M265.83,79.22c.72,.33,1.56,1.18,2.33,2.17-.05,.91-.5,1.76-1.31,2.35-.43,.32-1.07,.7-1.72,.89-.69-1.38-1.15-2.85-1.29-3.61-.25-1.34,.35-2.55,1.99-1.8Z"/>
                    <path class="cls-35" d="M265.14,84.82c-.08,0-.15-.04-.18-.11-.69-1.39-1.17-2.87-1.31-3.66-.14-.75-.03-1.42,.32-1.83,.41-.5,1.11-.57,1.96-.19,.85,.39,1.78,1.42,2.4,2.23,.03,.04,.05,.09,.04,.14-.05,1-.55,1.89-1.39,2.5-.27,.2-.99,.69-1.78,.92-.02,0-.04,0-.06,0Zm-.21-5.63c-.28,0-.49,.1-.65,.29-.26,.31-.35,.87-.23,1.5,.14,.75,.59,2.14,1.2,3.39,.67-.23,1.25-.63,1.49-.8,.72-.52,1.15-1.27,1.22-2.12-.84-1.06-1.6-1.77-2.21-2.04-.31-.14-.58-.21-.82-.21Z"/>
                  </g>
                  <g>
                    <path class="cls-28" d="M265.69,83.76c-.57-1.16-1.56-3.19-1.22-4.69-.59,.27-.79,1.09-.63,1.94,.33,1.77,2.44,7.48,5.04,6.72-1.46-.82-2.5-2.57-3.19-3.97Z"/>
                    <path class="cls-35" d="M268.41,88h0c-2.59,0-4.49-5.48-4.76-6.95-.2-1.02,.1-1.87,.74-2.17,.07-.03,.15-.02,.21,.03,.06,.05,.09,.13,.07,.2-.33,1.45,.67,3.47,1.2,4.55,.63,1.28,1.64,3.07,3.11,3.88,.07,.04,.11,.12,.1,.2,0,.08-.07,.15-.15,.17-.18,.05-.36,.08-.54,.08Zm-4.21-8.42c-.2,.33-.26,.83-.15,1.39,.34,1.79,2.13,6.46,4.25,6.62-1.3-.95-2.2-2.56-2.79-3.74-.5-1-1.37-2.76-1.31-4.26Z"/>
                  </g>
                </g>
                <path class="cls-35" d="M267.25,83.75c.03,.08,.12,.11,.19,.09,1.09-.4,2.03,.33,2.04,.33,.07,.05,.16,.04,.22-.03,.05-.07,.04-.16-.02-.21-.05-.03-1.08-.84-2.33-.38-.08,.03-.12,.12-.09,.2,0,0,0,0,0,0Z"/>
                <path class="cls-35" d="M268.4,85.4s.04,.06,.08,.08c.08,.04,.17,0,.21-.08,.03-.06,.67-1.45-.18-3.34-.04-.08-.12-.11-.2-.08-.08,.04-.11,.11-.08,.2,.02,.04,.04,.08,.05,.12,.71,1.68,.13,2.96,.13,2.97-.02,.04-.02,.09,0,.12Z"/>
              </g>
            </g>
            <g>
              <path class="cls-1" d="M296.49,73.07l8.07-.5s6.95,3.77,1.31,7.42c-5.63,3.65-15.48,3.93-15.48,3.93l-4.99-9.41c.69-.86,6.28-.61,11.09-1.44Z"/>
              <path class="cls-35" d="M290.39,84.12c-.08,0-.15-.04-.18-.11l-4.99-9.41c-.04-.07-.03-.16,.02-.22,.42-.53,1.98-.66,4.92-.86,1.96-.14,4.19-.29,6.3-.65l8.09-.51s.08,0,.11,.03c.14,.08,3.53,1.94,3.62,4.4,.05,1.22-.72,2.36-2.29,3.37-5.62,3.64-15.49,3.96-15.59,3.96h0Zm-4.74-9.57l4.86,9.15c1.17-.05,10.07-.54,15.25-3.89,1.44-.93,2.15-1.95,2.11-3.01-.08-2.07-2.94-3.79-3.36-4.03l-8.01,.5c-2.1,.37-4.34,.52-6.32,.66-2.05,.14-4,.28-4.53,.63Z"/>
            </g>
            <path class="cls-2" d="M296.49,73.07l8.07-.5s6.95,3.77,1.31,7.42c-5.63,3.65-15.48,3.93-15.48,3.93l-4.99-9.41c.69-.86,6.28-.61,11.09-1.44Z"/>
            <g>
              <g>
                <g>
                  <g>
                    <path class="cls-25" d="M48.39,133.44s0-.04,0-.06c.06-1.08,.76-2.12,1.94-2.06,1.62,.08,5.86,1.45,7.07,2.92,1.15,1.39,.13,2.29-1.23,2.38-1.8,.13-7.91-.45-7.78-3.19Z"/>
                    <path class="cls-35" d="M55.63,136.84c-2.02,0-5.5-.51-6.85-1.92-.42-.44-.62-.94-.6-1.5v-.06c.06-1.15,.83-2.3,2.16-2.25,1.68,.09,5.98,1.49,7.22,2.99,.64,.78,.6,1.36,.45,1.71-.24,.56-.92,.94-1.82,1-.16,.01-.34,.02-.55,.02Zm-5.4-5.32c-1.01,0-1.59,.94-1.64,1.87,0,0,0,.05,0,.06-.02,.44,.14,.83,.48,1.2,1.26,1.32,4.61,1.79,6.55,1.79,.2,0,.38,0,.52-.02,.73-.05,1.3-.34,1.48-.76,.15-.35,.02-.8-.39-1.29-1.15-1.4-5.35-2.76-6.92-2.84h-.09Z"/>
                  </g>
                  <g>
                    <path class="cls-28" d="M57.4,134.24c-.5-.61-1.54-1.2-2.69-1.69-.86,.28-1.57,.93-1.94,1.86-.2,.5-.4,1.22-.42,1.89,1.51,.31,3.05,.38,3.82,.33,1.36-.1,2.38-1,1.23-2.38Z"/>
                    <path class="cls-35" d="M55.65,136.84c-1.01,0-2.26-.13-3.33-.35-.1-.02-.16-.11-.16-.21,.02-.82,.31-1.64,.43-1.96,.38-.97,1.11-1.67,2.06-1.98,.05-.01,.1-.01,.14,0,.93,.4,2.17,1.02,2.77,1.75,.64,.78,.6,1.36,.45,1.71-.24,.56-.92,.94-1.82,1-.15,.01-.34,.02-.54,.02Zm-3.08-.72c1,.19,2.14,.31,3.08,.31,.2,0,.37,0,.51-.02,.73-.05,1.3-.34,1.48-.76,.15-.35,.02-.8-.39-1.29-.43-.52-1.3-1.07-2.54-1.61-.8,.28-1.42,.89-1.74,1.72-.11,.27-.35,.95-.4,1.65Z"/>
                  </g>
                  <g>
                    <path class="cls-28" d="M53.05,135.54c1.27,.26,3.48,.7,4.85-.02-.11,.64-.85,1.04-1.72,1.11-1.8,.13-7.86-.44-7.78-3.16,1.16,1.21,3.12,1.76,4.66,2.07Z"/>
                    <path class="cls-35" d="M55.63,136.84c-2,0-5.47-.51-6.83-1.9-.42-.44-.63-.93-.62-1.48,0-.08,.05-.16,.13-.19,.08-.03,.16-.01,.22,.05,.88,.91,2.36,1.57,4.55,2.01,.67,.14,1.8,.37,2.85,.37h0c.77,0,1.4-.12,1.86-.37,.07-.04,.15-.03,.21,.02,.06,.04,.1,.12,.08,.2-.12,.7-.87,1.2-1.91,1.28-.16,.01-.34,.02-.56,.02Zm-6.96-2.84c.08,.23,.22,.45,.42,.65,1.27,1.3,4.6,1.78,6.54,1.78,.2,0,.38,0,.53-.02,.57-.04,1.04-.23,1.3-.51-.43,.13-.94,.2-1.52,.2h0c-1.09,0-2.24-.24-2.93-.38-1.29-.26-3.08-.72-4.33-1.74Z"/>
                  </g>
                </g>
                <path class="cls-35" d="M52.65,134.02c-.08,0-.14-.08-.13-.16,.11-1.16-.83-1.88-.84-1.89-.07-.05-.08-.14-.03-.21,.05-.07,.15-.08,.21-.03,.04,.03,1.09,.83,.97,2.16,0,.08-.08,.15-.17,.14,0,0,0,0,0,0Z"/>
                <path class="cls-35" d="M50.77,133.33s-.07-.02-.1-.05c-.05-.07-.05-.16,.02-.22,.05-.04,1.23-1.02,3.27-.68,.08,.01,.14,.09,.12,.18-.01,.08-.08,.13-.17,.13-.04,0-.08-.01-.12-.02-1.81-.26-2.89,.62-2.9,.63-.04,.03-.08,.04-.12,.04Z"/>
              </g>
              <path class="cls-35" d="M50.01,131.97s-.1,0-.14-.03c-.21-.08-.32-.31-.24-.53,2.03-5.5,4.7-14.3,3.73-16.01-.92-1.61-6.15-.69-9.23,.27-.22,.07-.45-.05-.51-.27-.07-.22,.05-.45,.27-.51,.88-.27,8.64-2.6,10.19,.11,1.48,2.59-3.14,15.27-3.67,16.7-.06,.16-.22,.27-.38,.27Z"/>
            </g>
            <g>
              <path class="cls-1" d="M38.87,111.12l-8.07-.5s-6.95,3.77-1.31,7.42c5.63,3.65,15.48,3.93,15.48,3.93l4.99-9.41c-.69-.86-6.28-.61-11.09-1.44Z"/>
              <path class="cls-35" d="M44.97,122.17h0c-.1,0-9.97-.32-15.59-3.96-1.57-1.02-2.34-2.15-2.29-3.37,.1-2.46,3.48-4.32,3.62-4.4,.03-.02,.07-.03,.11-.02l8.07,.5c2.13,.37,4.35,.52,6.32,.66,2.94,.2,4.5,.33,4.92,.86,.05,.06,.06,.15,.02,.22l-4.99,9.41c-.04,.07-.1,.11-.18,.11Zm-14.12-11.35c-.42,.24-3.28,1.95-3.36,4.03-.04,1.07,.67,2.08,2.11,3.01,5.18,3.36,14.08,3.84,15.25,3.89l4.86-9.15c-.53-.35-2.48-.48-4.53-.62-1.97-.14-4.21-.29-6.34-.66l-7.98-.5Z"/>
            </g>
            <path class="cls-2" d="M38.87,111.12l-8.07-.5s-6.95,3.77-1.31,7.42c5.63,3.65,15.48,3.93,15.48,3.93l4.99-9.41c-.69-.86-6.28-.61-11.09-1.44Z"/>
            <g>
              <g>
                <path class="cls-26" d="M176.92,100.86c0,4.68-3.79,8.47-8.47,8.47s-8.47-3.79-8.47-8.47,3.79-8.47,8.47-8.47,8.47,3.79,8.47,8.47Z"/>
                <path class="cls-32" d="M168.45,109.54c-4.78,0-8.68-3.89-8.68-8.67s3.89-8.67,8.68-8.67,8.67,3.89,8.67,8.67-3.89,8.67-8.67,8.67Zm0-16.94c-4.56,0-8.27,3.71-8.27,8.26s3.71,8.26,8.27,8.26,8.26-3.71,8.26-8.26-3.71-8.26-8.26-8.26Z"/>
              </g>
              <g>
                <path class="cls-23" d="M176.92,101.88c0,4.68-3.79,8.47-8.47,8.47s-8.47-3.79-8.47-8.47,3.79-8.47,8.47-8.47,8.47,3.79,8.47,8.47Z"/>
                <path class="cls-32" d="M168.45,110.56c-4.78,0-8.68-3.89-8.68-8.68s3.89-8.67,8.68-8.67,8.67,3.89,8.67,8.67-3.89,8.68-8.67,8.68Zm0-16.94c-4.56,0-8.27,3.71-8.27,8.26s3.71,8.27,8.27,8.27,8.26-3.71,8.26-8.27-3.71-8.26-8.26-8.26Z"/>
              </g>
              <g>
                <path class="cls-7" d="M173.92,101.82c0,3.02-2.45,5.47-5.47,5.47s-5.47-2.45-5.47-5.47,2.45-5.47,5.47-5.47,5.47,2.45,5.47,5.47Z"/>
                <path class="cls-32" d="M168.45,107.49c-3.13,0-5.67-2.55-5.67-5.67s2.54-5.67,5.67-5.67,5.67,2.54,5.67,5.67-2.55,5.67-5.67,5.67Zm0-10.94c-2.9,0-5.26,2.36-5.26,5.26s2.36,5.26,5.26,5.26,5.26-2.36,5.26-5.26-2.36-5.26-5.26-5.26Z"/>
              </g>
              <g>
                <path class="cls-3" d="M173.92,102.84c0,3.02-2.45,5.47-5.47,5.47s-5.47-2.45-5.47-5.47,2.45-5.47,5.47-5.47,5.47,2.45,5.47,5.47Z"/>
                <path class="cls-32" d="M168.45,108.51c-3.13,0-5.67-2.54-5.67-5.67s2.54-5.67,5.67-5.67,5.67,2.54,5.67,5.67-2.55,5.67-5.67,5.67Zm0-10.93c-2.9,0-5.26,2.36-5.26,5.26s2.36,5.26,5.26,5.26,5.26-2.36,5.26-5.26-2.36-5.26-5.26-5.26Z"/>
              </g>
              <g>
                <path class="cls-5" d="M171.66,102.03c0,1.78-1.44,3.21-3.21,3.21s-3.21-1.44-3.21-3.21,1.44-3.21,3.21-3.21,3.21,1.44,3.21,3.21Z"/>
                <path class="cls-32" d="M168.45,105.45c-1.88,0-3.42-1.53-3.42-3.42s1.53-3.42,3.42-3.42,3.42,1.53,3.42,3.42-1.53,3.42-3.42,3.42Zm0-6.42c-1.66,0-3.01,1.35-3.01,3.01s1.35,3.01,3.01,3.01,3.01-1.35,3.01-3.01-1.35-3.01-3.01-3.01Z"/>
              </g>
              <g>
                <path class="cls-18" d="M170.77,101.65c0,1.28-1.04,2.32-2.32,2.32s-2.32-1.04-2.32-2.32,1.04-2.32,2.32-2.32,2.32,1.04,2.32,2.32Z"/>
                <path class="cls-32" d="M168.45,104.17c-1.39,0-2.52-1.13-2.52-2.53s1.13-2.52,2.52-2.52,2.52,1.13,2.52,2.52-1.13,2.53-2.52,2.53Zm0-4.64c-1.17,0-2.11,.95-2.11,2.11s.95,2.12,2.11,2.12,2.11-.95,2.11-2.12-.95-2.11-2.11-2.11Z"/>
              </g>
            </g>
            <g>
              <g>
                <g>
                  <polygon class="cls-21" points="166.15 101.56 20.29 123.23 15.17 132.25 167.35 109.65 166.15 101.56"/>
                  <path class="cls-32" d="M15.17,132.46c-.07,0-.13-.03-.17-.09-.04-.07-.05-.15,0-.22l5.12-9.02c.03-.06,.09-.09,.15-.1l145.86-21.66c.05,0,.11,0,.15,.04,.04,.03,.07,.08,.08,.13l1.2,8.08c.02,.11-.06,.22-.17,.23L15.2,132.45s-.02,0-.03,0Zm5.25-9.04l-4.86,8.57,151.57-22.51-1.14-7.68L20.42,123.42Z"/>
                </g>
                <g>
                  <rect class="cls-8" x="14.53" y="120.93" width="153.88" height="3.06" transform="translate(-17 14.77) rotate(-8.45)"/>
                  <path class="cls-32" d="M15.59,135.49c-.1,0-.19-.07-.2-.17l-.45-3.03c0-.05,0-.11,.04-.15,.03-.04,.08-.07,.13-.08l152.21-22.61c.12-.02,.22,.06,.23,.17l.45,3.03c0,.05,0,.11-.04,.15-.03,.04-.08,.07-.13,.08L15.62,135.49s-.02,0-.03,0Zm-.22-3.06l.39,2.63,151.81-22.55-.39-2.62L15.37,132.43Z"/>
                </g>
              </g>
              <g>
                <g>
                  <polygon class="cls-21" points="170.48 100.92 316.34 79.26 323.87 86.4 171.68 109 170.48 100.92"/>
                  <path class="cls-32" d="M171.68,109.21c-.1,0-.19-.07-.2-.17l-1.2-8.08c0-.05,0-.11,.04-.15,.03-.04,.08-.07,.13-.08l145.86-21.66c.07-.01,.12,.01,.17,.05l7.52,7.14c.06,.05,.08,.14,.05,.21-.02,.07-.09,.13-.16,.14l-152.18,22.6s-.02,0-.03,0Zm-.97-8.11l1.14,7.68,151.57-22.51-7.14-6.78-145.56,21.62Z"/>
                </g>
                <path class="cls-9" d="M284.71,83.96l-2.03,.3c2.16,2.76,5,4.86,7.68,7.12l3.61-.54c-3.09-2.29-6.31-4.41-9.26-6.88Z"/>
                <g>
                  <rect class="cls-8" x="171.07" y="97.69" width="153.88" height="3.06" transform="translate(-11.88 37.51) rotate(-8.45)"/>
                  <path class="cls-32" d="M172.13,112.24s-.09-.01-.12-.04c-.05-.03-.07-.08-.08-.13l-.45-3.03c-.02-.11,.06-.22,.17-.23l152.21-22.61c.05,0,.11,0,.15,.04,.04,.03,.07,.08,.08,.13l.45,3.03c.02,.11-.06,.22-.17,.23l-152.21,22.61s-.02,0-.03,0Zm-.22-3.06l.39,2.63,151.81-22.55-.39-2.62-151.81,22.55Z"/>
                </g>
              </g>
            </g>
            <g>
              <g>
                <path class="cls-27" d="M201.75,133.42s-19.78-26.81-24.54-33.79c-2.86-4.19-5.81-5.49-7.71-5.87,0,0-.39-.16-1.04-.13-.66-.03-1.04,.13-1.04,.13-1.9,.38-4.85,1.68-7.71,5.87-4.77,6.98-24.55,33.79-24.55,33.79,0,0-2.58,3.57-1.05,6.78,0,0,1.97-.34,6.55-.34h55.6c4.58,0,6.41,.82,6.41,.82,1.52-3.2-.92-7.25-.92-7.25Z"/>
                <path class="cls-32" d="M202.66,140.88s-.06,0-.08-.02c-.02,0-1.86-.8-6.33-.8h-55.6c-4.5,0-6.5,.33-6.52,.34-.09,.02-.18-.03-.22-.11-1.56-3.27,.97-6.83,1.07-6.98,.2-.27,19.83-26.89,24.54-33.79,2.87-4.21,5.85-5.56,7.84-5.96h0s.41-.17,1.09-.13c.04,0,.11,0,.17,0,.58,0,.93,.15,.94,.15,1.95,.38,4.93,1.73,7.8,5.94,4.71,6.9,24.34,33.52,24.54,33.79,.11,.19,2.49,4.2,.94,7.46-.04,.07-.11,.12-.19,.12Zm-62.01-1.23h55.6c3.81,0,5.73,.56,6.31,.76,1.29-3.04-.96-6.85-.98-6.89-.19-.25-19.83-26.88-24.54-33.79-2.8-4.09-5.67-5.41-7.58-5.78-.05-.02-.39-.16-.99-.13-.08,0-.13,0-.19,0-.49,0-.78,.12-.78,.12-1.96,.39-4.83,1.7-7.62,5.8-4.71,6.9-24.35,33.53-24.55,33.8-.02,.03-2.42,3.41-1.1,6.43,.55-.08,2.55-.32,6.43-.32Z"/>
              </g>
              <g>
                <path class="cls-24" d="M201.75,136.49s-19.78-26.82-24.54-33.79c-2.86-4.19-5.81-5.49-7.71-5.87,0,0-.39-.16-1.04-.13-.66-.04-1.04,.13-1.04,.13-1.9,.38-4.85,1.68-7.71,5.87-4.77,6.98-24.55,33.79-24.55,33.79,0,0-2.17,1.71-.65,4.91,0,0,1.57,1.66,6.15,1.66h55.6c4.58,0,6.14-1.66,6.14-1.66,1.53-3.2-.65-4.91-.65-4.91Z"/>
                <path class="cls-32" d="M196.25,143.26h-55.6c-4.62,0-6.23-1.65-6.3-1.72-.01-.02-.03-.03-.04-.05-1.49-3.12,.44-4.93,.68-5.14,.62-.85,19.87-26.95,24.53-33.77,2.87-4.21,5.85-5.56,7.84-5.96h0s.41-.17,1.09-.13c.04,0,.11,0,.17,0,.58,0,.93,.15,.94,.15,1.95,.38,4.92,1.73,7.8,5.94,4.66,6.82,23.9,32.92,24.53,33.77,.24,.21,2.17,2.01,.68,5.14,0,.02-.02,.04-.04,.05-.07,.07-1.68,1.72-6.29,1.72Zm-61.57-1.98c.2,.19,1.83,1.57,5.98,1.57h55.6c4.14,0,5.78-1.39,5.97-1.57,1.4-2.99-.52-4.56-.61-4.63-.01-.01-.03-.02-.04-.04-.2-.27-19.84-26.9-24.55-33.8-2.8-4.09-5.67-5.41-7.58-5.78-.05-.02-.39-.16-.99-.13-.08,0-.13,0-.19,0-.49,0-.78,.12-.78,.12-1.96,.39-4.83,1.7-7.62,5.8-4.71,6.9-24.35,33.53-24.55,33.8-.01,.01-.02,.03-.04,.04-.08,.07-2.01,1.64-.61,4.63Z"/>
              </g>
              <g>
                <path class="cls-3" d="M197.2,133.27s-17.08-22.29-21.19-28.31c-2.47-3.61-5.02-4.2-6.66-4.2h-1.79c-1.64,0-4.19,.59-6.66,4.2-4.11,6.03-21.19,28.75-21.19,28.75,0,0-1.88,2.12-.56,4.88,0,0,1.35,2.07,5.31,2.07h48c3.95,0,5.31-2.29,5.31-2.29,1.31-2.76-.56-5.1-.56-5.1Zm-4.93,2.13s-1.1,2.07-4.31,2.07h-39.02c-3.21,0-4.31-2.01-4.31-2.01-1.07-2.25,.45-4.04,.45-4.04,0,0,13.88-18.7,17.23-23.6,2.01-2.94,4.08-3.87,5.41-3.87h1.46c1.34,0,3.4,.81,5.41,3.75,3.35,4.9,17.23,23.66,17.23,23.66,0,0,1.52,1.79,.45,4.04Z"/>
                <path class="cls-32" d="M192.45,140.86h-48c-4.02,0-5.42-2.08-5.48-2.17-1.37-2.88,.56-5.11,.58-5.13,.16-.21,17.11-22.77,21.17-28.72,1.95-2.85,4.24-4.29,6.83-4.29h1.79c2.59,0,4.88,1.44,6.83,4.29,4.07,5.95,21.02,28.08,21.19,28.3,.02,.02,1.94,2.47,.58,5.31-.07,.11-1.47,2.41-5.49,2.41Zm-53.12-2.37s1.34,1.96,5.12,1.96h48c3.79,0,5.12-2.17,5.13-2.19,1.23-2.59-.53-4.85-.54-4.87-.17-.23-17.13-22.36-21.2-28.33-1.86-2.73-4.05-4.11-6.49-4.11h-1.79c-2.44,0-4.63,1.38-6.49,4.11-4.07,5.96-21.02,28.53-21.2,28.75-.08,.1-1.78,2.07-.54,4.67h0Zm48.63-.83h-39.02c-3.3,0-4.44-2.03-4.49-2.11-1.12-2.35,.46-4.25,.48-4.27,.13-.18,13.91-18.74,17.21-23.58,2.51-3.68,4.91-3.96,5.58-3.96h1.46c.89,0,3.21,.37,5.58,3.84,3.3,4.84,17.08,23.47,17.22,23.65,0,0,1.59,1.91,.47,4.25-.05,.1-1.2,2.19-4.5,2.19Zm-20.24-33.52c-.62,0-2.85,.27-5.24,3.78-3.31,4.85-17.09,23.42-17.23,23.61-.07,.08-1.43,1.73-.43,3.83,.04,.07,1.08,1.89,4.13,1.89h39.02c3.04,0,4.09-1.88,4.13-1.96,1-2.09-.41-3.79-.43-3.81-.15-.2-13.93-18.83-17.24-23.68-2.26-3.3-4.42-3.66-5.24-3.66h-1.46Z"/>
              </g>
              <g>
                <g>
                  <path class="cls-26" d="M176.92,116.18c0,4.68-3.79,8.47-8.47,8.47s-8.47-3.79-8.47-8.47,3.79-8.47,8.47-8.47,8.47,3.79,8.47,8.47Z"/>
                  <path class="cls-32" d="M168.45,124.86c-4.78,0-8.68-3.89-8.68-8.67s3.89-8.67,8.68-8.67,8.67,3.89,8.67,8.67-3.89,8.67-8.67,8.67Zm0-16.94c-4.56,0-8.27,3.71-8.27,8.26s3.71,8.26,8.27,8.26,8.26-3.71,8.26-8.26-3.71-8.26-8.26-8.26Z"/>
                </g>
                <g>
                  <path class="cls-23" d="M176.92,117.2c0,4.68-3.79,8.47-8.47,8.47s-8.47-3.79-8.47-8.47,3.79-8.47,8.47-8.47,8.47,3.79,8.47,8.47Z"/>
                  <path class="cls-32" d="M168.45,125.88c-4.78,0-8.68-3.89-8.68-8.67s3.89-8.67,8.68-8.67,8.67,3.89,8.67,8.67-3.89,8.67-8.67,8.67Zm0-16.94c-4.56,0-8.27,3.71-8.27,8.26s3.71,8.26,8.27,8.26,8.26-3.71,8.26-8.26-3.71-8.26-8.26-8.26Z"/>
                </g>
                <g>
                  <path class="cls-7" d="M173.92,117.14c0,3.02-2.45,5.47-5.47,5.47s-5.47-2.45-5.47-5.47,2.45-5.47,5.47-5.47,5.47,2.45,5.47,5.47Z"/>
                  <path class="cls-32" d="M168.45,122.81c-3.13,0-5.67-2.54-5.67-5.67s2.54-5.67,5.67-5.67,5.67,2.55,5.67,5.67-2.55,5.67-5.67,5.67Zm0-10.94c-2.9,0-5.26,2.36-5.26,5.26s2.36,5.26,5.26,5.26,5.26-2.36,5.26-5.26-2.36-5.26-5.26-5.26Z"/>
                </g>
                <g>
                  <path class="cls-3" d="M173.92,118.16c0,3.02-2.45,5.47-5.47,5.47s-5.47-2.45-5.47-5.47,2.45-5.47,5.47-5.47,5.47,2.45,5.47,5.47Z"/>
                  <path class="cls-32" d="M168.45,123.83c-3.13,0-5.67-2.54-5.67-5.67s2.54-5.67,5.67-5.67,5.67,2.54,5.67,5.67-2.55,5.67-5.67,5.67Zm0-10.93c-2.9,0-5.26,2.36-5.26,5.26s2.36,5.26,5.26,5.26,5.26-2.36,5.26-5.26-2.36-5.26-5.26-5.26Z"/>
                </g>
                <g>
                  <path class="cls-5" d="M171.66,117.35c0,1.78-1.44,3.21-3.21,3.21s-3.21-1.44-3.21-3.21,1.44-3.21,3.21-3.21,3.21,1.44,3.21,3.21Z"/>
                  <path class="cls-32" d="M168.45,120.77c-1.88,0-3.42-1.53-3.42-3.42s1.53-3.41,3.42-3.41,3.42,1.53,3.42,3.41-1.53,3.42-3.42,3.42Zm0-6.42c-1.66,0-3.01,1.35-3.01,3.01s1.35,3.01,3.01,3.01,3.01-1.35,3.01-3.01-1.35-3.01-3.01-3.01Z"/>
                </g>
                <g>
                  <path class="cls-18" d="M170.77,116.97c0,1.28-1.04,2.32-2.32,2.32s-2.32-1.04-2.32-2.32,1.04-2.32,2.32-2.32,2.32,1.04,2.32,2.32Z"/>
                  <path class="cls-32" d="M168.45,119.49c-1.39,0-2.52-1.13-2.52-2.52s1.13-2.52,2.52-2.52,2.52,1.13,2.52,2.52-1.13,2.52-2.52,2.52Zm0-4.64c-1.17,0-2.11,.95-2.11,2.11s.95,2.11,2.11,2.11,2.11-.95,2.11-2.11-.95-2.11-2.11-2.11Z"/>
                </g>
              </g>
            </g>
            <g>
              <path class="cls-34" d="M290.17,90.89c.42-.06,.74-.46,.68-.88l-1.65-11.11c-.08-.55-.41-3.47-1.49-4.6-.16-.17-4.32-4.99-5.39-4.52-.98,.43-.65,1.86-.56,2.48l1.88,12.63c.06,.42,.49,.7,.9,.64,.42-.06,.74-.46,.68-.88l-1.88-12.63c-.04-.28,.26-.08,.58,.14,.77,.58,2.46,2.99,2.66,3.2,.55,.57,.86,2.55,1.04,3.75l1.65,11.13c.06,.42,.49,.7,.9,.64Z"/>
              <path class="cls-32" d="M290.06,91.1h0c-.5,0-.92-.35-.99-.82l-1.65-11.13c-.13-.85-.46-3.09-.99-3.64-.06-.06-.18-.23-.44-.57-.58-.77-1.65-2.2-2.19-2.61-.05-.04-.14-.1-.23-.15l1.85,12.44c.04,.26-.03,.51-.2,.73-.16,.2-.4,.34-.65,.38-.55,.08-1.06-.3-1.13-.81l-1.9-12.8c-.12-.72-.34-2.06,.7-2.52,.08-.03,.16-.05,.25-.05,1.05,0,3.45,2.45,5.27,4.5l.1,.11c1.05,1.09,1.4,3.69,1.52,4.55l.02,.16,1.65,11.11c.08,.52-.31,1.03-.85,1.11-.05,0-.1,.01-.14,.01Zm-6.65-19.42c.16,0,.34,.12,.63,.31,.6,.45,1.65,1.86,2.28,2.69,.19,.25,.36,.49,.41,.53,.54,.57,.86,2.27,1.1,3.87l1.65,11.13c.04,.27,.3,.48,.59,.48h0s.06,0,.09,0c.32-.05,.55-.34,.5-.64l-1.67-11.28c-.3-2.2-.78-3.66-1.41-4.32-.01-.01-.05-.06-.11-.12-2.43-2.73-4.28-4.37-4.96-4.37-.04,0-.07,0-.09,.02-.7,.31-.6,1.24-.47,2.08l.03,.18,1.87,12.63c.04,.29,.35,.52,.67,.47,.15-.02,.29-.11,.39-.23,.1-.12,.14-.27,.12-.41l-1.88-12.63c-.02-.12,0-.21,.06-.28,.05-.06,.12-.09,.21-.09Z"/>
            </g>
            <g>
              <path class="cls-14" d="M51.62,124.7c.87-2.19,1.82-4.35,2.73-6.53l-2.29,.34c-1.76,2.96-3.44,5.97-5.05,9.01l3.74-.56c.29-.76,.56-1.52,.86-2.26Z"/>
              <g>
                <path class="cls-34" d="M48.61,126.77c-.42,.06-.84-.22-.9-.64l-1.65-11.11c-.08-.55-.37-3.47,.34-4.88,.11-.21,2.55-6.01,3.72-5.87,1.06,.13,1.04,1.61,1.13,2.23l1.87,12.63c.06,.42-.26,.81-.68,.88-.42,.06-.84-.22-.9-.64l-1.88-12.63c-.04-.28-.02-.04-.26,.26-.57,.78-1.61,3.59-1.74,3.85-.36,.71-.21,2.71-.03,3.92l1.65,11.13c.06,.42-.26,.81-.68,.88Z"/>
                <path class="cls-32" d="M48.49,126.98c-.5,0-.92-.35-.99-.82l-1.65-11.11s-.45-3.39,.36-5c.01-.02,.04-.09,.09-.19,2.57-5.79,3.48-5.79,3.77-5.79h.07c1.07,.14,1.2,1.37,1.27,2.1,.01,.11,.02,.22,.03,.3l1.87,12.63c.08,.52-.31,1.03-.85,1.11-.55,.08-1.06-.3-1.14-.81l-1.81-12.21c-.41,.61-1.07,2.26-1.43,3.16-.12,.31-.21,.54-.25,.6-.29,.58-.23,2.35-.01,3.79l1.65,11.13c.08,.52-.31,1.03-.85,1.11-.05,0-.1,.01-.15,.01Zm1.6-22.51c-.24,0-1.13,.41-3.42,5.55-.05,.12-.09,.19-.1,.21-.66,1.3-.42,4.08-.32,4.75l1.65,11.11c.04,.29,.35,.51,.67,.47,.31-.05,.55-.35,.5-.64l-1.65-11.13c-.17-1.13-.35-3.25,.05-4.04,.03-.06,.12-.27,.23-.57,.38-.94,1.08-2.7,1.52-3.31,.1-.12,.15-.23,.18-.29,.03-.07,.08-.18,.22-.18,.19,0,.21,.18,.23,.3l1.88,12.63c.04,.29,.35,.52,.67,.47,.31-.05,.55-.35,.5-.64l-1.88-12.63c-.01-.09-.02-.2-.04-.32-.08-.83-.22-1.65-.91-1.73h0Z"/>
              </g>
            </g>
            <g>
              <path class="cls-22" d="M32.67,129.2l-.48,2.7s5.27,.37,12.12-6.64c0,0-6.96-3.33-11.64,3.93Z"/>
              <path class="cls-35" d="M32.33,132.11c-.1,0-.16,0-.16,0-.06,0-.11-.03-.15-.08-.04-.05-.05-.11-.04-.16l.48-2.7s.01-.05,.03-.08c2.55-3.96,5.78-4.79,8.05-4.79s3.79,.75,3.85,.78c.06,.03,.1,.08,.11,.15,.01,.07,0,.13-.05,.18-6.24,6.38-11.2,6.7-12.13,6.7Zm.54-2.83l-.43,2.42c1.1-.03,5.7-.51,11.52-6.36-.54-.21-1.82-.63-3.41-.63-2.16,0-5.23,.79-7.68,4.57Z"/>
            </g>
            <g>
              <path class="cls-35" d="M26.66,137.32c-.2,0-.37-.15-.41-.35-.03-.22,.12-.43,.35-.46,.12-.02,12.12-1.76,15.16-2.76,.38-.12,.46-.31,.48-.43,.24-1.25-2.81-4.38-4.79-6.06-.17-.15-.19-.41-.05-.58,.15-.17,.41-.19,.58-.05,.92,.78,5.47,4.76,5.07,6.84-.07,.35-.3,.82-1.03,1.05-3.11,1.02-14.8,2.72-15.3,2.79-.02,0-.04,0-.06,0Z"/>
              <g>
                <g>
                  <g>
                    <path class="cls-25" d="M25.33,135.49s.04,0,.06-.01c1.06-.22,2.24,.21,2.48,1.37,.33,1.59,.06,6.04-1.06,7.57-1.06,1.46-2.18,.7-2.61-.59-.58-1.71-1.55-7.77,1.14-8.33Z"/>
                    <path class="cls-35" d="M25.59,145.41c-.67,0-1.28-.58-1.6-1.53-.42-1.24-1.24-5.5-.06-7.56,.33-.57,.78-.92,1.35-1.04,0,0,.05-.01,.06-.01,.19-.04,.38-.06,.58-.06,1.1,0,1.94,.62,2.14,1.58,.34,1.64,.05,6.16-1.09,7.73-.53,.72-1.04,.88-1.37,.88Zm-.27-9.92l.04,.2c-.46,.1-.81,.37-1.08,.84-1.05,1.83-.37,5.85,.1,7.22,.26,.76,.73,1.25,1.21,1.25,.34,0,.71-.24,1.04-.71,1.06-1.46,1.34-5.87,1.02-7.41-.19-.92-1.02-1.26-1.74-1.26-.17,0-.33,.02-.5,.05l-.1-.19Z"/>
                  </g>
                  <g>
                    <path class="cls-28" d="M26.8,144.41c.47-.64,.78-1.79,.97-3.03-.49-.77-1.29-1.29-2.29-1.41-.54-.07-1.28-.08-1.93,.07,.08,1.54,.39,3.05,.64,3.78,.44,1.29,1.55,2.05,2.61,.59Z"/>
                    <path class="cls-35" d="M25.59,145.41c-.67,0-1.28-.58-1.6-1.53-.26-.76-.57-2.28-.65-3.83,0-.1,.06-.19,.16-.21,.57-.13,1.31-.16,2-.07,1.03,.12,1.9,.66,2.44,1.5,.03,.04,.04,.09,.03,.14-.16,1.01-.46,2.37-1.01,3.12-.53,.72-1.04,.88-1.37,.88Zm-1.83-5.2c.09,1.39,.37,2.82,.61,3.55,.26,.76,.73,1.25,1.21,1.25,.34,0,.71-.24,1.04-.71,.39-.53,.71-1.52,.92-2.86-.47-.7-1.21-1.15-2.1-1.25-.58-.07-1.2-.06-1.69,.03Z"/>
                  </g>
                  <g>
                    <path class="cls-28" d="M24.46,140.52c.07,1.29,.2,3.55,1.23,4.69-.65,.05-1.22-.56-1.5-1.39-.58-1.71-1.54-7.72,1.11-8.32-.88,1.43-.92,3.46-.84,5.03Z"/>
                    <path class="cls-35" d="M25.61,145.42c-.67,0-1.3-.6-1.62-1.53-.47-1.41-1.17-5.57-.08-7.53,.32-.57,.77-.93,1.33-1.06,.08-.02,.16,.01,.21,.08,.05,.07,.05,.16,0,.23-.88,1.43-.88,3.49-.81,4.91,.06,1.21,.18,3.46,1.18,4.56,.05,.06,.07,.14,.04,.21-.03,.07-.09,.12-.17,.13-.03,0-.06,0-.1,0Zm-.76-9.51c-.22,.15-.41,.36-.57,.65-1.03,1.85-.35,5.84,.11,7.2,.18,.55,.48,.95,.82,1.14-.79-1.27-.89-3.24-.95-4.36-.07-1.32-.07-3.16,.6-4.63Z"/>
                  </g>
                </g>
                <path class="cls-35" d="M25.82,139.76c0-.08,.05-.16,.13-.17,1.14-.18,1.61-1.28,1.61-1.29,.03-.08,.12-.11,.2-.08,.08,.03,.12,.12,.08,.2-.02,.05-.53,1.26-1.85,1.48-.08,.01-.16-.04-.18-.13,0,0,0,0,0,0Z"/>
                <path class="cls-35" d="M26.02,137.76s0-.08,.03-.11c.05-.07,.15-.08,.21-.04,.05,.04,1.3,.94,1.48,3,0,.08-.05,.16-.14,.17-.08,0-.15-.04-.17-.14,0-.04,0-.08-.01-.12-.2-1.81-1.33-2.64-1.34-2.65-.04-.03-.06-.07-.06-.11Z"/>
              </g>
            </g>
            <g>
              <path class="cls-1" d="M36.8,128.37c2.06-1.35,4.84-2.98,7.51-3.1l-10.02-9.88-5.5-6.58-6.08-.97s-5.8,8.75,.31,14.05c4.32,3.75,7.7,8.05,9.15,10.01,1.47-1.33,3.07-2.52,4.61-3.53Z"/>
              <path class="cls-35" d="M32.18,132.11s-.01,0-.02,0c-.06,0-.11-.04-.15-.08-1.28-1.73-4.74-6.17-9.12-9.98-6.18-5.36-.41-14.23-.35-14.32,.04-.07,.12-.1,.2-.09l6.08,.97s.09,.03,.12,.07l5.49,6.58,10,9.87c.06,.06,.08,.14,.05,.22-.03,.08-.1,.13-.18,.13-2.58,.12-5.31,1.7-7.41,3.07-1.7,1.11-3.25,2.29-4.59,3.51-.04,.03-.09,.05-.14,.05Zm-9.37-24.05c-.63,1.02-5.2,8.87,.35,13.67,4.27,3.7,7.66,8.01,9.05,9.87,1.32-1.18,2.82-2.32,4.47-3.4,2.02-1.32,4.62-2.83,7.16-3.1l-9.7-9.57-5.46-6.53-5.87-.93Z"/>
            </g>
            <g>
              <path class="cls-1" d="M36.8,128.37c2.06-1.35,4.84-2.98,7.51-3.1l-10.02-9.88-5.5-6.58-6.08-.97s-5.8,8.75,.31,14.05c4.32,3.75,7.7,8.05,9.15,10.01,1.47-1.33,3.07-2.52,4.61-3.53Z"/>
              <path class="cls-35" d="M32.18,132.11s-.01,0-.02,0c-.06,0-.11-.04-.15-.08-1.28-1.73-4.74-6.17-9.12-9.98-6.18-5.36-.41-14.23-.35-14.32,.04-.07,.12-.1,.2-.09l6.08,.97s.09,.03,.12,.07l5.49,6.58,10,9.87c.06,.06,.08,.14,.05,.22-.03,.08-.1,.13-.18,.13-2.58,.12-5.31,1.7-7.41,3.07-1.7,1.11-3.25,2.29-4.59,3.51-.04,.03-.09,.05-.14,.05Zm-9.37-24.05c-.63,1.02-5.2,8.87,.35,13.67,4.27,3.7,7.66,8.01,9.05,9.87,1.32-1.18,2.82-2.32,4.47-3.4,2.02-1.32,4.62-2.83,7.16-3.1l-9.7-9.57-5.46-6.53-5.87-.93Z"/>
            </g>
            <path class="cls-2" d="M34.79,117.15c.76,.23,1.51,.56,2.25,.95l-2.75-2.71-5.5-6.58-6.08-.97s-2.34,3.53-2.48,7.47c4.17,3.67,9.7,.36,14.56,1.84Z"/>
            <path class="cls-35" d="M48.62,105.9c-.27,0-2.71-.02-3.82-.76-3.45-2.3-5.01-7.19-5.08-7.39-.07-.21,.05-.45,.27-.51,.22-.07,.45,.05,.51,.27,.01,.05,1.55,4.82,4.75,6.96,.77,.51,2.69,.63,3.37,.63,.23,0,.41,.18,.41,.41s-.18,.41-.41,.41Z"/>
            <g>
              <g>
                <g>
                  <path class="cls-30" d="M36.09,87.86c.28,.16,.54,.36,.76,.6,1.5,1.63,2.79,3.36,3.88,5.3,1.04,1.86,1.87,3.84,2.52,5.87,0,0-4.72,2.82-8.14,2.5,0,0-2.99-6.98-3.11-10.19-.04-.97-.09-1.9,.23-2.84,.59-1.69,2.48-2,3.86-1.23Z"/>
                  <path class="cls-35" d="M35.66,102.36c-.2,0-.39,0-.58-.03-.08,0-.14-.05-.17-.12-.12-.29-3-7.05-3.12-10.26v-.16c-.04-.94-.08-1.83,.25-2.76,.38-1.11,1.33-1.77,2.54-1.77,.56,0,1.12,.15,1.61,.43,.31,.17,.58,.39,.81,.64,1.59,1.73,2.87,3.47,3.91,5.34,1,1.8,1.85,3.79,2.53,5.9,.03,.09,0,.19-.09,.24-.17,.1-4.31,2.55-7.68,2.55Zm-.42-.42c2.99,.21,6.96-1.95,7.75-2.4-.66-2.03-1.49-3.94-2.45-5.67-1.02-1.84-2.28-3.56-3.85-5.26-.2-.22-.44-.41-.71-.56-.44-.24-.92-.37-1.41-.37-1.02,0-1.82,.56-2.15,1.5-.3,.85-.26,1.71-.23,2.61v.16c.12,2.91,2.66,9.09,3.05,10Z"/>
                </g>
                <path class="cls-12" d="M36.09,87.86c.28,.16,.54,.36,.76,.6,1.5,1.63,2.79,3.36,3.88,5.3,1.04,1.86,1.87,3.84,2.52,5.87,0,0-4.72,2.82-8.14,2.5,0,0-2.99-6.98-3.11-10.19-.04-.97-.09-1.9,.23-2.84,.59-1.69,2.48-2,3.86-1.23Z"/>
                <path class="cls-35" d="M31.93,92.87c-.05-.34-.08-.66-.09-.93v-.16c-.04-.94-.08-1.82,.24-2.74,.26-.75,.78-1.29,1.49-1.56,.81-.31,1.78-.22,2.6,.24,.3,.17,.57,.38,.8,.63,1.59,1.72,2.86,3.47,3.9,5.33,1,1.8,1.85,3.78,2.53,5.89,.02,.08,0,.15-.07,.19-.2,.12-4.8,2.84-8.24,2.52-.06,0-.11-.04-.13-.1-.02-.06-2.51-5.88-3.03-9.32Zm11.12,6.68c-.67-2.05-1.49-3.97-2.46-5.71-1.03-1.84-2.29-3.56-3.85-5.27-.21-.22-.45-.41-.72-.56-.74-.41-1.61-.49-2.33-.22-.62,.24-1.07,.71-1.3,1.36-.3,.86-.27,1.71-.23,2.62v.16c.02,.26,.05,.56,.1,.89,.48,3.16,2.65,8.4,2.96,9.15,3.03,.23,7.1-2,7.83-2.42Z"/>
              </g>
              <path class="cls-15" d="M38.3,96.33c.21-2.7-.07-4.93-.89-7.22-.19-.21-.37-.43-.57-.65-.22-.24-.48-.44-.76-.6-1.38-.77-3.27-.46-3.86,1.23-.33,.94-.27,1.87-.23,2.84,.12,3.21,3.11,10.19,3.11,10.19,.74,.07,1.55-.01,2.35-.18,.43-1.85,.71-3.73,.85-5.62Z"/>
              <g>
                <path class="cls-30" d="M24.96,115.25c2.41,.16,4.79-.01,7.17-.49,3.28-.66,6.39-1.67,9.32-3.15-.36-5.94-1.35-15.77-3.39-19.79-1.03-2.03-2.15-4.16-4.03-5.54-.71-.52-1.51-.88-2.35-1.14-.84-.26-1.71-.42-2.56-.54-1.08-.16-2.88,.18-3.87,.67-4.57,2.3-5.56,21.72-5.78,29.27,1.75,.53,3.77,.61,5.49,.72Z"/>
                <path class="cls-35" d="M26.71,115.51h0c-.58,0-1.17-.02-1.76-.06l-.5-.03c-1.61-.1-3.43-.21-5.04-.7-.09-.03-.15-.11-.15-.2,.13-4.37,.45-10.8,1.27-16.63,1.04-7.48,2.6-11.8,4.63-12.82,1.03-.51,2.91-.85,3.99-.69,1.07,.16,1.87,.33,2.59,.55,.96,.3,1.75,.68,2.41,1.17,1.84,1.36,2.94,3.34,4.09,5.61,2.33,4.59,3.2,16.37,3.41,19.87,0,.08-.04,.16-.11,.2-2.87,1.44-5.93,2.48-9.37,3.17-1.83,.37-3.67,.55-5.46,.55Zm-7.03-1.13c1.53,.43,3.26,.54,4.8,.64l.5,.03c2.35,.15,4.73,0,7.11-.49,3.36-.67,6.35-1.68,9.15-3.07-.22-3.64-1.1-15.11-3.36-19.58-1.12-2.22-2.2-4.16-3.96-5.47-.63-.46-1.38-.83-2.29-1.11-.71-.22-1.49-.38-2.53-.54-.17-.02-.37-.04-.58-.04-1.04,0-2.37,.29-3.16,.69-4.38,2.2-5.42,20.84-5.67,28.93Z"/>
              </g>
              <g>
                <path class="cls-6" d="M31.94,90.67c1.11,.11,2.08-.51,2.17-1.39l.56-5.63c.09-.88-.74-1.68-1.85-1.79-1.11-.11-2.08,.51-2.17,1.39l-.56,5.62c-.09,.88,.74,1.68,1.85,1.79Z"/>
                <path class="cls-35" d="M29.94,89.22h0c-.02-.12-.02-.24,0-.36l.56-5.62c.1-.97,1.15-1.66,2.34-1.54,1.03,.1,1.86,.78,1.99,1.61,.02,.12,.02,.24,.01,.36l-.56,5.62c-.1,.97-1.15,1.66-2.34,1.54-1.03-.1-1.86-.78-1.99-1.61Zm4.56-5.87c-.1-.69-.82-1.25-1.7-1.33-1.02-.1-1.91,.46-1.99,1.25l-.56,5.62c-.08,.78,.7,1.51,1.7,1.61,1.02,.1,1.91-.46,1.99-1.25l.56-5.62c0-.09,0-.19,0-.28Z"/>
              </g>
            </g>
            <path class="cls-35" d="M42.09,109.88s-.04,0-.05,0c-.41-.05-10.05-1.32-14.37-2.64-4.53-1.39-5.84-9.79-5.89-10.15-.03-.22,.12-.43,.34-.47,.22-.03,.43,.12,.46,.34,.01,.08,1.28,8.25,5.32,9.49,4.26,1.3,14.14,2.6,14.24,2.62,.22,.03,.38,.24,.35,.46-.03,.21-.2,.36-.41,.36Z"/>
            <g>
              <g>
                <g>
                  <path class="cls-6" d="M51.3,57.75c-.88-2.86-2.27-5.56-4.15-7.93-2.79-3.51-6.56-6.32-10.85-7.66-6.65-2.08-14.3-1.15-20.28,2.44-1.59,.96-3.1,2.16-4.41,3.48-1.17,1.17-2.29,2.54-3.13,3.97-3.9,6.54-4.21,14.55-1.02,21.47,2.61,5.66,7.94,9.8,14.17,11.6,6.52,1.88,14.34,2.15,20.33-1.2,1.59-.89,3.01-2.02,4.3-3.26,2.96-2.87,4.94-5.58,5.73-9.6,.86-4.4,.64-9.02-.68-13.3Z"/>
                  <path class="cls-35" d="M9.66,77.43h0c-.94-1.2-1.73-2.49-2.35-3.84-3.24-7.04-2.85-15.12,1.03-21.62,.81-1.36,1.91-2.75,3.16-4,1.36-1.35,2.89-2.57,4.44-3.5,6.05-3.64,13.68-4.56,20.41-2.46,4.12,1.29,8,4.03,10.94,7.72l.12,.16c1.79,2.29,3.15,4.93,4.05,7.82,1.33,4.28,1.56,8.9,.69,13.38-.83,4.2-2.91,6.91-5.78,9.69-1.43,1.38-2.84,2.45-4.33,3.29-5.33,2.98-12.79,3.43-20.46,1.22-4.83-1.39-9.06-4.18-11.92-7.84Zm37.5-27.35l-.13-.16c-2.89-3.64-6.72-6.34-10.78-7.61-6.64-2.08-14.17-1.17-20.15,2.43-1.53,.92-3.04,2.11-4.38,3.45-1.23,1.23-2.31,2.6-3.11,3.94-3.83,6.41-4.2,14.38-1.01,21.32,.61,1.33,1.39,2.6,2.31,3.78,2.82,3.61,6.99,6.36,11.76,7.73,7.58,2.18,14.95,1.75,20.21-1.19,1.46-.82,2.86-1.88,4.26-3.23,2.83-2.74,4.88-5.4,5.68-9.52,.87-4.42,.63-8.99-.67-13.22-.88-2.86-2.23-5.46-3.99-7.72Z"/>
                </g>
                <g>
                  <path class="cls-19" d="M55.89,48.16c-1.28-.66-2.17-.73-3.59-.5-1.16,.19,1.01-3.18-3.74-6.2-1.77-1.12-3.96-.84-5.84,.08-.14-.41-.31-.81-.48-1.18-1.51-3.19-5.35-4.32-8.55-4.41-2.58-.07-5.18,1.21-7.11,3.16-2.42-2.39-7.17-1.93-10.1,.12-1.97,1.38-3.67,3.48-4.62,5.82-4.1-.17-7.48,2.86-9.55,6.69-1.12,2.07-1.77,7.45-.25,10.25-.7,1.15-1.2,2.44-1.45,3.89-.38,2.25,.76,6.7,3.18,7.55-.59,2.26-.42,4.68,.89,6.76,1.32,2.09,3.42,4,5.59,3.32,1.32,1.82,3.79,2.71,6.08,1.48,.58,1.51,3.32,2.83,4.59,2.39,1.61-.57,2.57-2.28,1.63-3.88-1.65-2.82-2.74-4.86-2.69-8.25,.02-.91,.08-1.9,.19-2.89,.02,0,.04,0,.06-.01,.08-.05,.1-.15,.05-.23,0,0-.03-.04-.07-.1,.04-.34,.1-.69,.16-1.03,2.35-.6,4.09-2.81,4.35-5.43,1.41,1.9,4.35,2.76,6.46,1.31,2.11-1.45,3.04-3.65,3.05-6.02,2.78,3.09,7.72,2.03,9.96-1.26,.59,.57,1.39,.92,2.4,.94,.36,0,.79-.1,1.23-.29,.51,1.36,1.4,2.45,3.1,2.93,2.11,.6,3.89-.35,5.37-1.74,3.41-3.19,4.61-10.72-.33-13.27Z"/>
                  <path class="cls-29" d="M20.37,87.66c-1.37,0-3.45-1.08-4.11-2.4-.67,.33-1.38,.5-2.1,.5-1.52,0-2.99-.75-3.96-2.02-.27,.07-.55,.11-.83,.11-2.35,0-4.18-2.49-4.85-3.55-1.54-2.44-1.39-4.98-.96-6.75-2.45-1.05-3.5-5.57-3.14-7.71,.24-1.38,.71-2.68,1.41-3.87-1.48-2.86-.85-8.21,.3-10.34,2.38-4.4,5.91-6.9,9.59-6.8,.96-2.28,2.64-4.38,4.64-5.78,1.58-1.11,3.72-1.77,5.72-1.77,1.82,0,3.41,.54,4.5,1.53,2.06-2.02,4.66-3.12,7.12-3.08,1.57,.04,6.83,.49,8.73,4.53,.16,.33,.29,.66,.41,.98,2.1-.97,4.25-.98,5.83,.03,3.25,2.06,3.36,4.3,3.41,5.5,.02,.5,.05,.67,.14,.67,.02,0,.03,0,.05,0,.5-.08,.91-.12,1.28-.12,.83,0,1.55,.19,2.43,.65,2.36,1.22,3.11,3.36,3.33,4.94,.43,3.07-.79,6.64-2.96,8.67-1.42,1.33-2.8,1.97-4.23,1.97h0c-.44,0-.89-.06-1.34-.19-1.51-.43-2.54-1.36-3.16-2.87-.4,.15-.77,.23-1.08,.23-.95-.01-1.76-.3-2.4-.84-1.35,1.86-3.55,3-5.8,3-1.53,0-2.93-.55-4-1.56-.13,2.39-1.23,4.4-3.12,5.7-.73,.5-1.6,.76-2.52,.76-1.47,0-2.93-.66-3.92-1.75-.41,2.47-2.09,4.47-4.31,5.1-.05,.27-.09,.54-.12,.81,.02,.03,.03,.04,.03,.05,.1,.16,.06,.38-.1,.49-.1,.92-.16,1.84-.18,2.75-.06,3.26,.97,5.25,2.66,8.14,.43,.73,.51,1.55,.24,2.31-.31,.84-1.05,1.54-1.98,1.86-.19,.07-.41,.1-.65,.1Zm-4.01-2.88s.05,0,.07,.01c.05,.02,.1,.06,.12,.12,.47,1.24,2.53,2.34,3.82,2.34,.2,0,.37-.03,.51-.08,.81-.29,1.46-.89,1.73-1.62,.24-.65,.17-1.33-.2-1.96-1.73-2.95-2.77-4.99-2.71-8.36,.02-.96,.08-1.94,.19-2.92,0-.07,.05-.13,.11-.16,0,0-.01-.02-.02-.03-.03-.04-.05-.1-.04-.15,.05-.35,.1-.69,.16-1.04,.01-.08,.07-.14,.15-.16,2.26-.58,3.95-2.69,4.2-5.25,0-.08,.07-.15,.15-.18,.08-.02,.17,0,.22,.08,.88,1.19,2.41,1.95,3.9,1.95,.83,0,1.62-.24,2.29-.69,2.44-1.67,2.96-4.11,2.96-5.85,0-.08,.05-.16,.13-.19,.08-.03,.17,0,.23,.05,1.32,1.47,2.92,1.77,4.04,1.77,2.16,0,4.36-1.18,5.6-3.01,.04-.05,.09-.08,.15-.09,.06,0,.12,.01,.16,.06,.59,.57,1.36,.87,2.27,.88h0c.34,0,.73-.09,1.14-.27,.05-.02,.11-.02,.16,0,.05,.02,.09,.06,.11,.12,.56,1.5,1.51,2.4,2.96,2.81,1.75,.49,3.43-.05,5.18-1.69,2.04-1.91,3.24-5.41,2.83-8.31-.21-1.48-.91-3.49-3.11-4.63-.83-.43-1.47-.6-2.24-.6-.35,0-.74,.04-1.22,.11-.63,.1-.64-.44-.67-1.05-.05-1.13-.14-3.23-3.22-5.18-1.51-.96-3.6-.91-5.64,.09-.05,.03-.11,.03-.17,0-.05-.02-.1-.07-.12-.12-.13-.38-.29-.77-.47-1.16-1.8-3.82-6.87-4.25-8.38-4.29-2.41-.06-4.95,1.07-6.96,3.1-.08,.08-.21,.08-.29,0-1.02-1-2.56-1.56-4.36-1.56-1.91,0-3.96,.63-5.48,1.69-1.97,1.38-3.63,3.47-4.55,5.73-.03,.08-.11,.13-.19,.13h0c-.11,0-.21,0-.32,0-3.48,0-6.78,2.4-9.04,6.59-1.12,2.08-1.74,7.33-.25,10.05,.04,.06,.03,.14,0,.2-.71,1.16-1.19,2.45-1.42,3.82-.35,2.07,.66,6.48,3.04,7.32,.1,.04,.16,.14,.13,.25-.44,1.69-.64,4.2,.87,6.6,1.33,2.11,3.02,3.36,4.51,3.36,.28,0,.57-.04,.84-.13,.08-.03,.17,0,.23,.07,.9,1.23,2.29,1.96,3.72,1.96,.72,0,1.43-.18,2.1-.55,.03-.02,.06-.02,.1-.02Z"/>
                </g>
                <g class="cls-16">
                  <path class="cls-6" d="M50.75,63.22c1.38,8.54-2.79,16.14-10.47,20.21-2.38,1.26-5.04,2.32-7.8,3.01,3.35-.17,6.62-.94,9.48-2.54,1.59-.89,3.01-2.02,4.3-3.26,2.96-2.87,4.94-5.58,5.73-9.6,.47-2.4,.61-4.88,.43-7.32-.56-.11-1.13-.29-1.66-.5Z"/>
                </g>
                <path class="cls-6" d="M19.17,79.72c-7.29-1.69-8.35-10.29-4.25-10.4,3.22-.09,5.14,2.88,5.14,2.88,0,0,2.12,3.6,1.11,6.21,0,0-.34,1.02-1.17,1.17l-.83,.15Z"/>
                <path class="cls-35" d="M19.17,79.92s-.03,0-.05,0c-2.81-.65-4.44-2.22-5.32-3.43-1.06-1.45-1.6-3.2-1.45-4.69,.17-1.65,1.12-2.65,2.55-2.69,.05,0,.1,0,.15,0,3.21,0,5.09,2.85,5.17,2.98,.06,.09,.04,.22-.06,.28-.09,.06-.22,.04-.28-.06-.02-.03-1.89-2.9-4.96-2.79-1.21,.03-2.01,.9-2.16,2.32-.24,2.43,1.62,6.54,6.41,7.67l.79-.14c.42-.08,.71-.44,.87-.73,.05-.1,.18-.13,.28-.08,.1,.05,.13,.18,.08,.28-.21,.37-.57,.82-1.15,.93l-.83,.15s-.02,0-.04,0Z"/>
                <g>
                  <path class="cls-35" d="M18.36,76.31c.08-.03,.13-.11,.12-.2-.02-.1-.36-2.58-2.37-3.39-.71-.29-1.3-.3-1.75-.05-.58,.33-.68,.98-.69,1.01-.02,.1,.05,.2,.16,.21,.1,.01,.2-.06,.21-.16,0,0,.09-.51,.5-.75,.34-.19,.82-.17,1.42,.07,1.81,.73,2.14,3.07,2.14,3.09,.01,.1,.11,.18,.21,.16,.01,0,.03,0,.04,0Z"/>
                  <path class="cls-35" d="M16.7,75.57c.21-.08,.44-.21,.6-.44,.26-.37,.27-.88,.03-1.52-.04-.1-.14-.14-.24-.11-.1,.04-.15,.15-.11,.24,.19,.52,.2,.91,.01,1.18-.27,.38-.88,.4-.88,.39-.1,0-.19,.08-.19,.19,0,.1,.08,.19,.19,.19,.02,0,.29,0,.59-.12Z"/>
                </g>
              </g>
              <path d="M41.85,73.28c-.26,.78-.89,1.28-1.41,1.11-.52-.17-.73-.94-.47-1.73,.26-.79,.89-1.28,1.4-1.11,.52,.17,.73,.94,.47,1.73Z"/>
              <path d="M50.69,73.47c-.2,.61-.68,.99-1.08,.86-.4-.13-.56-.73-.36-1.33,.2-.6,.68-.99,1.08-.85,.4,.13,.57,.72,.36,1.33Z"/>
            </g>
            <g>
              <g>
                <path class="cls-31" d="M27.21,87.68c.13,.29,.22,.61,.25,.94,.22,2.21,.22,4.36-.09,6.56-.29,2.11-.81,4.19-1.51,6.2,0,0-5.46-.58-8.01-2.89,0,0,1.8-7.37,3.64-10.01,.55-.8,1.07-1.58,1.89-2.13,1.49-1,3.19-.11,3.83,1.33Z"/>
                <path class="cls-35" d="M25.84,101.55c-.23-.02-5.55-.61-8.1-2.93-.04-.04-.06-.1-.05-.16,.07-.3,1.83-7.43,3.66-10.07l.09-.13c.54-.77,1.04-1.5,1.84-2.04,.14-.09,.28-.17,.43-.24,1.52-.67,3.04,.3,3.63,1.64,.14,.32,.23,.65,.26,.98,.23,2.33,.21,4.49-.08,6.6-.28,2.04-.79,4.14-1.52,6.23-.01,.04-.05,.08-.09,.1-.03,.01-.05,.02-.08,.01Zm-2.37-15.06c-.75,.51-1.24,1.21-1.75,1.95l-.09,.13c-1.68,2.42-3.37,8.99-3.58,9.86,2.28,2,6.88,2.66,7.71,2.77,.7-2.04,1.19-4.07,1.46-6.05,.29-2.08,.31-4.22,.08-6.52-.03-.3-.11-.6-.24-.89-.53-1.18-1.87-2.06-3.2-1.47-.13,.06-.26,.13-.38,.21Z"/>
              </g>
              <g>
                <g>
                  <path class="cls-30" d="M27.21,87.68c.13,.29,.22,.61,.25,.94,.22,2.21,.22,4.36-.09,6.56-.29,2.11-.81,4.19-1.51,6.2,0,0-5.46-.58-8.01-2.89,0,0,1.8-7.37,3.64-10.01,.55-.8,1.07-1.58,1.89-2.13,1.49-1,3.19-.11,3.83,1.33Z"/>
                  <path class="cls-35" d="M25.86,101.59h-.02c-.22-.02-5.56-.61-8.12-2.94-.06-.05-.08-.13-.06-.2,.07-.3,1.83-7.44,3.67-10.08l.08-.12c.54-.78,1.05-1.52,1.86-2.06,.46-.31,.95-.46,1.46-.46,1.1,0,2.17,.75,2.67,1.88,.14,.32,.23,.66,.27,1,.23,2.34,.2,4.5-.09,6.61-.28,2.04-.79,4.14-1.52,6.24-.03,.08-.11,.14-.19,.14Zm-7.78-3.16c2.25,1.96,6.73,2.62,7.64,2.74,.69-2.02,1.18-4.04,1.45-6,.29-2.08,.32-4.21,.09-6.52-.03-.3-.11-.59-.23-.87-.43-.98-1.36-1.63-2.29-1.63-.43,0-.84,.13-1.23,.39-.75,.5-1.24,1.21-1.75,1.96l-.08,.12c-1.66,2.39-3.33,8.86-3.58,9.82Z"/>
                </g>
                <path class="cls-35" d="M25.84,101.55c-.23-.02-5.55-.61-8.1-2.93-.04-.04-.06-.1-.05-.16,.07-.3,1.83-7.43,3.66-10.07l.09-.13c.54-.77,1.04-1.5,1.84-2.04,.14-.09,.28-.17,.43-.24,1.52-.67,3.04,.3,3.63,1.64,.14,.32,.23,.65,.26,.98,.23,2.33,.21,4.49-.08,6.6-.28,2.04-.79,4.14-1.52,6.23-.01,.04-.05,.08-.09,.1-.03,.01-.05,.02-.08,.01Zm-2.37-15.06c-.75,.51-1.24,1.21-1.75,1.95l-.09,.13c-1.68,2.42-3.37,8.99-3.58,9.86,2.28,2,6.88,2.66,7.71,2.77,.7-2.04,1.19-4.07,1.46-6.05,.29-2.08,.31-4.22,.08-6.52-.03-.3-.11-.6-.24-.89-.53-1.18-1.87-2.06-3.2-1.47-.13,.06-.26,.13-.38,.21Z"/>
              </g>
              <path class="cls-12" d="M27,87.3c-.81-.39-1.72-.27-2.6,.86-1.34,1.71-1.49,3.91-1.99,5.96-.5,2.03-1.01,4.06-1.49,6.1-1.14-.42-2.25-.98-3.07-1.72,0,0,1.8-7.37,3.64-10.01,.55-.8,1.07-1.58,1.89-2.13,1.35-.91,2.87-.26,3.62,.95Z"/>
            </g>
            <g>
              <path class="cls-6" d="M48.87,103.44c-1.2,.49-1.93,1.79-1.18,3.15l1.04-.75s1.62,1.63,1.36,3.51c-.26,1.88,3.69-.85,3.16-3.34-.32-1.51-1.95-2.88-3.51-2.77-.31,.02-.61,.09-.88,.2Z"/>
              <path class="cls-35" d="M50.49,110.18c-.24,0-.38-.1-.46-.19-.13-.15-.18-.38-.14-.67,.2-1.46-.83-2.8-1.19-3.21l-.89,.65s-.11,.05-.17,.03c-.06-.01-.11-.05-.13-.1-.36-.64-.43-1.31-.21-1.94,.23-.66,.77-1.21,1.49-1.5,.3-.12,.62-.2,.95-.22,1.65-.12,3.37,1.28,3.72,2.94,.25,1.2-.45,2.29-.89,2.83-.66,.82-1.52,1.38-2.08,1.38Zm-1.75-4.55c.05,0,.11,.02,.15,.06,.07,.07,1.69,1.73,1.42,3.69-.02,.16,0,.29,.04,.34,0,.01,.04,.05,.15,.05,.38,0,1.14-.46,1.77-1.23,.67-.82,.96-1.73,.8-2.49-.3-1.45-1.86-2.7-3.29-2.61-.28,.02-.56,.08-.82,.19-.61,.25-1.06,.71-1.26,1.26-.16,.45-.13,.92,.08,1.4l.85-.61s.08-.04,.12-.04Z"/>
            </g>
            <g>
              <path class="cls-6" d="M50.86,106.14s1.33,1.82,.35,3.44l-.35-3.44Z"/>
              <path class="cls-35" d="M51.21,109.79s-.07,0-.11-.03c-.1-.06-.13-.18-.07-.28,.9-1.48-.33-3.2-.34-3.21-.07-.09-.05-.22,.04-.29,.09-.07,.22-.05,.29,.04,.06,.08,1.4,1.95,.36,3.67-.04,.06-.11,.1-.17,.1Z"/>
            </g>
            <g>
              <path class="cls-6" d="M51.98,105.37s1.35,.62,.93,2.44l-.93-2.44Z"/>
              <path class="cls-35" d="M52.91,108.01s-.03,0-.05,0c-.11-.03-.18-.14-.15-.25,.38-1.64-.8-2.2-.81-2.2-.1-.05-.15-.17-.1-.27,.05-.1,.17-.15,.27-.1,.02,0,1.5,.71,1.04,2.67-.02,.09-.11,.16-.2,.16Z"/>
            </g>
            <g>
              <path class="cls-6" d="M42.01,108.5s1.62-2.94,4.33-2.78c2.71,.15,3.32,1.24,3.44,3.4,.12,2.17-1.28,4.72-2.09,3.87-.81-.85-1.2-1.78-1.74-1.31-.54,.46-1.97,1.47-2.98,.89-1.01-.58-2.09-2.2-.97-4.06Z"/>
              <path class="cls-35" d="M48.05,113.36c-.19,0-.36-.08-.5-.23-.23-.24-.43-.49-.6-.71-.27-.34-.53-.67-.7-.67-.02,0-.07,0-.15,.08-.3,.26-1.38,1.11-2.42,1.11-.29,0-.56-.07-.79-.2-.54-.31-1.21-.99-1.45-1.93-.2-.79-.06-1.63,.41-2.42,.06-.11,1.63-2.89,4.3-2.89,.07,0,.14,0,.22,0,2.89,.16,3.52,1.44,3.63,3.59,.08,1.54-.55,3.17-1.2,3.86-.25,.26-.49,.39-.74,.39Zm-1.81-2.02c.37,0,.66,.36,1.02,.82,.17,.21,.36,.45,.58,.68,.18,.19,.39,.11,.65-.16,.58-.62,1.16-2.15,1.09-3.56-.11-2.05-.62-3.06-3.25-3.21-.06,0-.13,0-.19,0-2.43,0-3.93,2.66-3.95,2.68-.43,.71-.55,1.41-.37,2.11,.21,.82,.79,1.4,1.26,1.67,.17,.1,.37,.15,.59,.15,.92,0,1.96-.85,2.15-1.02,.13-.12,.28-.17,.42-.17Z"/>
            </g>
            <g>
              <path class="cls-35" d="M48.51,112.88s0,0-.01,0c-.11,0-.2-.11-.19-.22,0,0,.06-1.01-.56-2.33-.17-.37-.4-.59-.67-.67-.44-.12-.88,.17-.88,.17-.1,.06-.22,.04-.28-.06-.06-.09-.04-.22,.05-.28,.02-.02,.6-.39,1.22-.23,.4,.11,.71,.41,.94,.89,.67,1.42,.6,2.49,.6,2.54,0,.11-.1,.19-.2,.19Z"/>
              <path class="cls-35" d="M49.39,111.53c-.1,0-.19-.07-.2-.17,0,0-.16-1.04-.72-2.55-.16-.43-.4-.72-.7-.84-.45-.18-.91,.03-.91,.03-.11,.05-.22,0-.27-.1-.05-.1,0-.22,.1-.27,.03-.01,.62-.29,1.24-.04,.42,.17,.73,.53,.94,1.08,.58,1.55,.74,2.59,.74,2.63,.02,.11-.06,.21-.17,.23-.01,0-.02,0-.03,0Z"/>
              <path class="cls-35" d="M49.74,108.48c-.08,0-.16-.05-.19-.13-.84-2.07-2.23-1.53-2.29-1.51-.1,.04-.22,0-.27-.11-.04-.1,0-.22,.11-.27,.02,0,1.82-.71,2.82,1.74,.04,.1,0,.22-.11,.27-.03,.01-.05,.02-.08,.02Z"/>
            </g>
            <g>
              <path class="cls-22" d="M302.7,91.15l.48,2.7s-5.27,.37-12.12-6.64c0,0,6.96-3.33,11.64,3.93Z"/>
              <path class="cls-35" d="M303.04,94.06c-.93,0-5.89-.32-12.13-6.7-.05-.05-.07-.11-.05-.18,.01-.06,.05-.12,.11-.15,.07-.03,1.66-.78,3.85-.78s5.5,.83,8.05,4.79c.01,.02,.02,.05,.03,.08l.48,2.7c.01,.06,0,.12-.04,.16-.04,.04-.09,.07-.15,.08,0,0-.05,0-.16,0Zm-11.62-6.77c5.82,5.85,10.42,6.34,11.52,6.36l-.43-2.42c-2.45-3.77-5.53-4.57-7.68-4.57-1.59,0-2.87,.42-3.41,.63Z"/>
            </g>
            <g>
              <path class="cls-35" d="M281.02,107.54c-.08,0-.16-.02-.23-.07-.19-.13-.23-.38-.1-.57,.29-.41,7.02-10.13,9.32-12.45,2.29-2.32,9.21-8.17,9.51-8.42,.17-.14,.43-.12,.58,.05,.15,.17,.12,.43-.05,.58-.07,.06-7.19,6.08-9.45,8.37-2.25,2.27-9.16,12.24-9.23,12.34-.08,.12-.21,.18-.34,.18Z"/>
              <g>
                <g>
                  <g>
                    <path class="cls-25" d="M281.69,108.96s.02-.03,.04-.05c.67-.85,.81-2.1-.12-2.83-1.28-1-5.38-2.75-7.25-2.43-1.78,.3-1.59,1.64-.63,2.6,1.28,1.28,6.26,4.85,7.96,2.7Z"/>
                    <path class="cls-35" d="M280.15,109.84h0c-2.37,0-5.68-2.55-6.56-3.43-.64-.64-.9-1.37-.72-1.95,.12-.36,.46-.83,1.46-1,1.84-.31,6.02,1.38,7.41,2.47,1.04,.82,.86,2.21,.15,3.11l-.2-.08,.16,.13c-.39,.5-.97,.75-1.71,.75Zm-5.29-6.01c-.17,0-.33,.01-.46,.03-.63,.11-1.02,.36-1.14,.72-.14,.43,.1,1.02,.62,1.54,.97,.97,4.15,3.31,6.27,3.31h0c.62,0,1.07-.2,1.39-.6l.05-.06c.58-.75,.75-1.86-.09-2.52-1.2-.94-4.71-2.42-6.63-2.42Z"/>
                  </g>
                  <g>
                    <path class="cls-28" d="M274.37,103.66c.78-.13,1.95,.1,3.14,.48,.47,.78,.58,1.74,.24,2.68-.18,.51-.5,1.18-.92,1.7-1.34-.75-2.56-1.71-3.1-2.25-.96-.97-1.14-2.3,.63-2.6Z"/>
                    <path class="cls-35" d="M276.83,108.72s-.07,0-.1-.03c-1.35-.76-2.58-1.72-3.14-2.29-.63-.64-.9-1.37-.72-1.95,.12-.36,.46-.83,1.46-1,.73-.13,1.84,.04,3.24,.49,.05,.02,.09,.05,.11,.09,.52,.86,.61,1.87,.26,2.85-.11,.32-.43,1.12-.96,1.76-.04,.05-.1,.07-.16,.07Zm-1.97-4.89c-.17,0-.32,.01-.46,.03-.63,.11-1.02,.36-1.14,.72-.14,.43,.1,1.02,.62,1.54,.54,.54,1.69,1.43,2.9,2.13,.42-.56,.68-1.23,.78-1.5,.3-.84,.23-1.7-.19-2.44-1.01-.32-1.88-.49-2.51-.49Z"/>
                  </g>
                  <g>
                    <path class="cls-28" d="M276.8,107.5c-1.13-.64-3.08-1.76-3.64-3.19-.34,.55-.04,1.34,.57,1.96,1.27,1.28,6.22,4.82,7.94,2.72-1.67,.15-3.51-.72-4.87-1.49Z"/>
                    <path class="cls-35" d="M280.14,109.84c-2.37,0-5.69-2.55-6.56-3.43-.74-.74-.97-1.61-.6-2.21,.04-.07,.12-.11,.19-.1,.08,0,.14,.06,.17,.13,.54,1.39,2.5,2.49,3.55,3.09,1.21,.69,3.08,1.61,4.76,1.46,.09-.02,.16,.04,.2,.11,.04,.07,.03,.16-.02,.23-.39,.48-.96,.72-1.69,.72Zm-6.92-4.96c.02,.38,.25,.83,.65,1.24,.97,.97,4.15,3.31,6.27,3.31,.38,0,.7-.07,.96-.23-1.62-.06-3.29-.9-4.41-1.53-.97-.55-2.69-1.52-3.48-2.79Z"/>
                  </g>
                </g>
                <path class="cls-35" d="M278.09,106.62c.07,.05,.16,.03,.21-.04,.67-.94,1.86-.87,1.87-.87,.09,0,.16-.06,.16-.14,0-.08-.06-.16-.14-.16-.05,0-1.37-.09-2.14,1-.05,.07-.03,.17,.04,.22,0,0,0,0,0,0Z"/>
                <path class="cls-35" d="M279.97,107.33s.07,.03,.11,.02c.08-.01,.14-.09,.13-.18-.01-.06-.26-1.58-2.03-2.66-.07-.04-.17-.02-.21,.05-.04,.07-.03,.15,.05,.21,.04,.02,.07,.05,.11,.07,1.53,.99,1.77,2.37,1.78,2.38,0,.04,.03,.08,.07,.11Z"/>
              </g>
            </g>
            <g>
              <path class="cls-1" d="M298.57,90.32c-2.06-1.35-4.84-2.98-7.51-3.1l10.02-9.88,5.5-6.58,6.08-.97s5.8,8.75-.31,14.05c-4.32,3.75-7.7,8.05-9.15,10.01-1.47-1.33-3.07-2.52-4.61-3.53Z"/>
              <path class="cls-35" d="M303.18,94.06c-.05,0-.1-.02-.14-.05-1.34-1.22-2.89-2.4-4.59-3.51-2.1-1.37-4.83-2.95-7.41-3.07-.08,0-.15-.06-.18-.13-.03-.08,0-.16,.05-.22l10.02-9.88,5.48-6.56s.08-.06,.12-.07l6.08-.97c.08-.01,.16,.02,.2,.09,.06,.09,5.83,8.96-.35,14.32-4.23,3.67-7.53,7.83-9.12,9.98-.03,.05-.09,.08-.15,.08,0,0-.01,0-.02,0Zm-11.66-7.01c2.53,.27,5.14,1.79,7.16,3.1,1.65,1.07,3.15,2.22,4.47,3.4,1.65-2.21,4.91-6.27,9.05-9.86,5.55-4.81,.98-12.65,.35-13.67l-5.87,.93-5.45,6.52-9.71,9.58Z"/>
            </g>
            <g>
              <path class="cls-1" d="M298.57,90.32c-2.06-1.35-4.84-2.98-7.51-3.1l10.02-9.88,5.5-6.58,6.08-.97s5.8,8.75-.31,14.05c-4.32,3.75-7.7,8.05-9.15,10.01-1.47-1.33-3.07-2.52-4.61-3.53Z"/>
              <path class="cls-35" d="M303.18,94.06c-.05,0-.1-.02-.14-.05-1.34-1.22-2.89-2.4-4.59-3.51-2.1-1.37-4.83-2.95-7.41-3.07-.08,0-.15-.06-.18-.13-.03-.08,0-.16,.05-.22l10.02-9.88,5.48-6.56s.08-.06,.12-.07l6.08-.97c.08-.01,.16,.02,.2,.09,.06,.09,5.83,8.96-.35,14.32-4.23,3.67-7.53,7.83-9.12,9.98-.03,.05-.09,.08-.15,.08,0,0-.01,0-.02,0Zm-11.66-7.01c2.53,.27,5.14,1.79,7.16,3.1,1.65,1.07,3.15,2.22,4.47,3.4,1.65-2.21,4.91-6.27,9.05-9.86,5.55-4.81,.98-12.65,.35-13.67l-5.87,.93-5.45,6.52-9.71,9.58Z"/>
            </g>
            <path class="cls-2" d="M300.57,79.1c-.76,.23-1.51,.56-2.25,.95l2.75-2.72,5.5-6.58,6.08-.97s2.34,3.53,2.48,7.47c-4.17,3.67-9.7,.36-14.56,1.84Z"/>
            <path class="cls-35" d="M286.74,67.85c-.23,0-.41-.18-.41-.41s.18-.41,.41-.41c.68,0,2.6-.11,3.37-.63,3.21-2.14,4.74-6.91,4.75-6.96,.07-.21,.3-.34,.51-.27,.22,.07,.34,.3,.27,.51-.06,.21-1.63,5.09-5.08,7.39-1.12,.74-3.55,.76-3.82,.76Z"/>
            <g>
              <g>
                <path class="cls-33" d="M300.02,49.05c-.31,.08-.61,.2-.89,.37-1.89,1.17-3.6,2.48-5.16,4.06-1.5,1.51-2.83,3.19-4,4.97,0,0,3.79,3.98,7.17,4.6,0,0,4.75-5.92,5.73-8.98,.3-.93,.6-1.8,.54-2.8-.11-1.79-1.84-2.6-3.38-2.23Z"/>
                <path class="cls-35" d="M297.13,63.26s-.02,0-.04,0c-3.41-.62-7.12-4.49-7.28-4.66-.07-.07-.07-.17-.02-.25,1.23-1.86,2.58-3.54,4.03-5,1.5-1.52,3.2-2.86,5.2-4.09,.28-.17,.6-.31,.95-.4,.26-.06,.53-.09,.79-.09,1.3,0,2.74,.78,2.84,2.51,.06,.98-.21,1.83-.5,2.73l-.05,.15c-.98,3.06-5.57,8.8-5.77,9.04-.04,.05-.1,.08-.16,.08Zm-6.9-4.83c.64,.65,3.9,3.8,6.82,4.4,.62-.78,4.73-6.04,5.62-8.82l.05-.15c.28-.86,.54-1.67,.48-2.58-.09-1.46-1.32-2.12-2.43-2.12-.23,0-.47,.03-.69,.08-.3,.08-.59,.19-.83,.35-1.97,1.22-3.64,2.54-5.12,4.03-1.39,1.41-2.7,3.02-3.89,4.8Z"/>
              </g>
              <g class="cls-16">
                <path class="cls-10" d="M300.02,49.05c-.13,.03-.25,.08-.37,.12,0,0,0,0,0,.01-2.75,3.77-4.78,7.81-6.19,12.19,1.14,.77,2.44,1.45,3.68,1.67,0,0,4.75-5.92,5.73-8.98,.3-.93,.6-1.8,.54-2.8-.11-1.79-1.84-2.6-3.38-2.23Z"/>
              </g>
              <g>
                <path class="cls-33" d="M310.4,77.2c-2.41,.16-4.79-.01-7.17-.49-3.28-.66-6.39-1.67-9.32-3.15,.36-5.95,1.35-15.77,3.39-19.79,1.03-2.03,2.15-4.16,4.03-5.54,.71-.52,1.51-.88,2.35-1.14,.84-.26,1.71-.42,2.56-.54,1.08-.16,2.88,.18,3.87,.67,4.57,2.3,5.56,21.72,5.78,29.27-1.75,.53-3.77,.61-5.49,.72Z"/>
                <path class="cls-35" d="M308.66,77.46c-1.8,0-3.64-.19-5.46-.55-3.44-.69-6.51-1.72-9.37-3.17-.07-.04-.12-.11-.11-.2,.21-3.5,1.09-15.28,3.41-19.87,1.15-2.27,2.25-4.26,4.09-5.61,.67-.49,1.46-.88,2.41-1.17,.95-.29,1.94-.45,2.59-.55,1.07-.16,2.96,.17,3.99,.69,2.03,1.02,3.59,5.34,4.63,12.82,.81,5.83,1.14,12.26,1.27,16.63,0,.09-.06,.18-.15,.2-1.61,.49-3.44,.6-5.04,.7l-.5,.03c-.58,.04-1.17,.06-1.76,.06Zm-14.53-4.03c2.8,1.4,5.79,2.4,9.15,3.07,2.38,.48,4.77,.64,7.11,.49l.5-.03c1.54-.09,3.27-.2,4.8-.64-.25-8.1-1.29-26.73-5.67-28.93-.8-.4-2.12-.69-3.16-.69-.21,0-.41,.01-.58,.04-.65,.09-1.61,.25-2.53,.54-.91,.28-1.66,.64-2.29,1.11-1.77,1.3-2.84,3.25-3.96,5.47-2.26,4.47-3.13,15.94-3.36,19.58Z"/>
              </g>
              <g>
                <path class="cls-6" d="M303.42,52.62c-1.11,.11-2.08-.51-2.17-1.39l-.56-5.63c-.09-.88,.74-1.68,1.85-1.79,1.11-.11,2.08,.51,2.17,1.39l.56,5.62c.09,.88-.74,1.68-1.85,1.79Z"/>
                <path class="cls-35" d="M303.44,52.78c-1.2,.12-2.25-.57-2.34-1.54l-.56-5.62c-.01-.12,0-.24,0-.36,.12-.83,.96-1.51,1.99-1.61,1.2-.12,2.25,.57,2.34,1.54l.56,5.62c.01,.12,0,.24,0,.36h0c-.13,.83-.96,1.5-1.99,1.61Zm-2.58-7.2l.56,5.62c.08,.79,.97,1.35,1.99,1.25,1-.1,1.78-.83,1.7-1.61l-.56-5.62c-.08-.79-.97-1.35-1.99-1.25-.88,.09-1.59,.65-1.7,1.33-.01,.09-.02,.19,0,.28Z"/>
              </g>
            </g>
            <path class="cls-35" d="M293.28,71.83c-.2,0-.38-.15-.41-.36-.03-.22,.13-.43,.35-.46,.1-.01,9.98-1.31,14.24-2.61,4.04-1.24,5.31-9.4,5.32-9.49,.03-.22,.24-.38,.47-.34,.22,.03,.38,.24,.34,.47-.05,.36-1.36,8.76-5.89,10.15-4.32,1.32-13.96,2.59-14.37,2.64-.02,0-.04,0-.05,0Z"/>
            <g>
              <g>
                <path class="cls-6" d="M284.06,19.7c.88-2.86,2.27-5.56,4.15-7.93,2.79-3.51,6.56-6.32,10.85-7.66,6.65-2.08,14.3-1.16,20.28,2.44,1.59,.96,3.1,2.17,4.41,3.48,1.17,1.17,2.29,2.54,3.13,3.97,3.9,6.54,4.21,14.55,1.02,21.47-2.61,5.67-7.94,9.8-14.17,11.6-6.52,1.88-14.34,2.15-20.33-1.2-1.59-.89-3.01-2.02-4.29-3.26-2.96-2.87-4.94-5.58-5.73-9.6-.86-4.39-.64-9.02,.68-13.3Z"/>
                <path class="cls-35" d="M313.79,47.22c-7.67,2.21-15.13,1.76-20.46-1.22-1.49-.83-2.91-1.91-4.33-3.29-2.87-2.78-4.95-5.49-5.78-9.69-.88-4.47-.64-9.1,.69-13.38,.89-2.9,2.26-5.53,4.05-7.82l.12-.16c2.93-3.69,6.82-6.43,10.94-7.72,6.73-2.1,14.36-1.18,20.41,2.46,1.55,.93,3.09,2.14,4.44,3.5,1.25,1.25,2.35,2.64,3.16,4,3.88,6.5,4.27,14.58,1.03,21.62-.62,1.35-1.41,2.65-2.35,3.84h0c-2.86,3.67-7.1,6.45-11.92,7.85Zm-29.57-27.47c-1.31,4.23-1.54,8.8-.68,13.22,.81,4.11,2.86,6.78,5.68,9.52,1.4,1.36,2.8,2.42,4.26,3.23,5.26,2.94,12.62,3.38,20.21,1.19,4.76-1.37,8.94-4.12,11.76-7.73,.92-1.18,1.7-2.45,2.31-3.78,3.19-6.94,2.82-14.91-1.01-21.32-.8-1.34-1.88-2.7-3.11-3.94-1.34-1.34-2.86-2.53-4.38-3.45-5.97-3.6-13.5-4.5-20.15-2.43-4.06,1.27-7.89,3.97-10.78,7.61l-.13,.16c-1.76,2.26-3.11,4.86-3.99,7.72Z"/>
              </g>
              <g>
                <path class="cls-4" d="M294.41,44.22c2.28,1.69,4.91,3.2,6.19,2.37,1.59-1.03,1.35-3.24,.95-4.75-2.23,1.24-4.76,2.17-7.14,2.37Z"/>
                <path class="cls-35" d="M299.72,47.04h0c-1.23,0-3.06-.89-5.43-2.65-.07-.05-.1-.14-.08-.22,.02-.08,.09-.14,.18-.15,2.76-.24,5.37-1.41,7.06-2.35,.05-.03,.12-.03,.18,0,.06,.03,.1,.08,.12,.14,.45,1.68,.63,3.9-1.04,4.97-.27,.18-.61,.27-1,.27Zm-4.75-2.67c2.06,1.48,3.7,2.26,4.75,2.26h0c.31,0,.57-.07,.78-.2,1.38-.89,1.29-2.76,.93-4.27-1.62,.88-3.95,1.9-6.46,2.21Z"/>
              </g>
              <path d="M293.51,35.23c.26,.78,.89,1.28,1.41,1.11,.52-.17,.73-.94,.47-1.73-.26-.79-.89-1.28-1.4-1.11-.52,.17-.73,.94-.47,1.73Z"/>
              <path d="M284.67,35.42c.2,.61,.68,.99,1.08,.86,.4-.13,.56-.73,.36-1.33-.2-.6-.68-.99-1.08-.85-.4,.13-.56,.72-.36,1.33Z"/>
            </g>
            <g>
              <g>
                <path class="cls-31" d="M308.16,49.63c-.13,.29-.22,.61-.25,.94-.22,2.2-.22,4.36,.09,6.56,.29,2.11,.81,4.19,1.51,6.2,0,0,5.46-.58,8-2.89,0,0-1.8-7.37-3.64-10.01-.55-.8-1.07-1.58-1.89-2.13-1.49-1-3.19-.11-3.83,1.33Z"/>
                <path class="cls-35" d="M309.44,63.49s-.07-.05-.09-.1c-.73-2.09-1.24-4.19-1.52-6.23-.29-2.11-.32-4.27-.09-6.6,.03-.33,.12-.67,.26-.99,.59-1.34,2.12-2.31,3.63-1.64,.15,.07,.29,.15,.43,.24,.81,.54,1.31,1.27,1.84,2.04l.09,.13c1.83,2.63,3.58,9.76,3.66,10.07,.01,.06,0,.12-.05,.16-2.55,2.32-7.87,2.91-8.1,2.93-.03,0-.06,0-.08-.01Zm2.07-15.26c-1.33-.59-2.68,.29-3.2,1.47-.13,.29-.21,.59-.24,.89-.23,2.31-.2,4.44,.08,6.52,.27,1.98,.76,4.01,1.46,6.05,.83-.11,5.43-.77,7.71-2.77-.22-.87-1.9-7.44-3.58-9.87l-.09-.13c-.52-.74-1-1.45-1.75-1.95-.12-.08-.25-.15-.38-.21Z"/>
              </g>
              <g>
                <g>
                  <path class="cls-33" d="M308.16,49.63c-.13,.29-.22,.61-.25,.94-.22,2.2-.22,4.36,.09,6.56,.29,2.11,.81,4.19,1.51,6.2,0,0,5.46-.58,8-2.89,0,0-1.8-7.37-3.64-10.01-.55-.8-1.07-1.58-1.89-2.13-1.49-1-3.19-.11-3.83,1.33Z"/>
                  <path class="cls-35" d="M309.5,63.54c-.09,0-.17-.05-.19-.14-.73-2.1-1.24-4.2-1.52-6.24-.29-2.11-.32-4.28-.09-6.61,.03-.34,.12-.68,.27-1,.5-1.12,1.57-1.88,2.67-1.88,.51,0,1,.16,1.46,.46,.82,.55,1.32,1.29,1.86,2.07l.08,.12c1.83,2.64,3.59,9.78,3.67,10.08,.02,.07,0,.15-.06,.2-2.56,2.33-7.9,2.92-8.12,2.94,0,0-.01,0-.02,0Zm1.13-15.46c-.94,0-1.86,.66-2.29,1.63-.12,.28-.2,.57-.23,.87-.23,2.31-.2,4.44,.08,6.52,.27,1.97,.75,3.99,1.45,6,.9-.12,5.38-.78,7.64-2.74-.24-.96-1.91-7.43-3.58-9.82l-.08-.12c-.52-.75-1.01-1.46-1.76-1.96-.39-.26-.8-.39-1.23-.39Z"/>
                </g>
                <path class="cls-35" d="M309.44,63.49s-.07-.05-.09-.1c-.73-2.09-1.24-4.19-1.52-6.23-.29-2.11-.32-4.27-.09-6.6,.03-.33,.12-.67,.26-.99,.59-1.34,2.12-2.31,3.63-1.64,.15,.07,.29,.15,.43,.24,.81,.54,1.31,1.27,1.84,2.04l.09,.13c1.83,2.63,3.58,9.76,3.66,10.07,.01,.06,0,.12-.05,.16-2.55,2.32-7.87,2.91-8.1,2.93-.03,0-.06,0-.08-.01Zm2.07-15.26c-1.33-.59-2.68,.29-3.2,1.47-.13,.29-.21,.59-.24,.89-.23,2.31-.2,4.44,.08,6.52,.27,1.98,.76,4.01,1.46,6.05,.83-.11,5.43-.77,7.71-2.77-.22-.87-1.9-7.44-3.58-9.87l-.09-.13c-.52-.74-1-1.45-1.75-1.95-.12-.08-.25-.15-.38-.21Z"/>
              </g>
              <path class="cls-11" d="M308.37,49.25c.81-.39,1.72-.27,2.6,.86,1.34,1.71,1.49,3.91,1.99,5.96,.5,2.03,1.01,4.06,1.49,6.1,1.14-.42,2.25-.98,3.07-1.72,0,0-1.8-7.37-3.64-10.01-.55-.8-1.07-1.58-1.89-2.13-1.35-.91-2.87-.26-3.62,.95Z"/>
            </g>
            <g>
              <g>
                <path class="cls-6" d="M286.49,65.39c1.2,.5,1.93,1.79,1.18,3.15l-1.04-.75s-1.62,1.63-1.36,3.51c.26,1.88-3.69-.85-3.16-3.34,.32-1.51,1.95-2.88,3.51-2.77,.31,.02,.61,.09,.88,.2Z"/>
                <path class="cls-35" d="M284.87,72.13c-.57,0-1.42-.57-2.09-1.38-.44-.54-1.14-1.63-.89-2.83,.35-1.66,2.08-3.04,3.72-2.94,.33,.02,.65,.1,.95,.22,.72,.29,1.26,.84,1.49,1.5,.22,.63,.15,1.29-.21,1.94-.03,.05-.08,.09-.13,.1s-.12,0-.16-.03l-.9-.65c-.36,.41-1.39,1.75-1.19,3.21,.04,.29,0,.52-.14,.67-.08,.09-.22,.19-.46,.19Zm.57-6.75c-1.38,0-2.85,1.22-3.14,2.62-.16,.76,.14,1.66,.8,2.49,.63,.77,1.39,1.23,1.77,1.23,.07,0,.12-.02,.15-.05,.05-.05,.06-.18,.04-.34-.27-1.96,1.35-3.62,1.42-3.69,.07-.07,.18-.08,.26-.02l.85,.61c.21-.47,.23-.95,.08-1.4-.19-.55-.65-1.01-1.26-1.26-.26-.11-.54-.17-.82-.19-.05,0-.1,0-.15,0Z"/>
              </g>
              <path class="cls-35" d="M284.15,71.74c-.07,0-.14-.04-.17-.1-1.05-1.72,.3-3.59,.36-3.67,.07-.09,.2-.11,.29-.04,.09,.07,.11,.19,.04,.29-.01,.02-1.24,1.73-.34,3.21,.06,.1,.03,.22-.07,.28-.03,.02-.07,.03-.11,.03Z"/>
              <path class="cls-35" d="M283.2,71.02c-.07,0-.14-.04-.17-.1-1.04-1.72,.3-3.59,.36-3.67,.07-.09,.2-.11,.29-.04,.09,.07,.11,.19,.04,.29-.01,.02-1.24,1.73-.34,3.21,.06,.1,.03,.22-.07,.28-.03,.02-.07,.03-.11,.03Z"/>
            </g>
            <g>
              <g>
                <path class="cls-6" d="M293.35,70.45s-1.62-2.94-4.33-2.78c-2.7,.15-3.32,1.24-3.44,3.4s1.28,4.72,2.09,3.87c.81-.85,1.2-1.78,1.74-1.31,.54,.46,1.97,1.47,2.98,.89,1-.58,2.09-2.2,.97-4.06Z"/>
                <path class="cls-35" d="M287.31,75.31c-.24,0-.49-.13-.74-.39-.66-.69-1.28-2.32-1.2-3.86,.12-2.15,.75-3.43,3.63-3.59,2.79-.15,4.45,2.77,4.52,2.89,.47,.78,.61,1.62,.41,2.41-.24,.94-.91,1.61-1.45,1.93-.23,.13-.5,.2-.79,.2h0c-1.04,0-2.12-.85-2.42-1.11-.09-.08-.14-.08-.15-.08-.17,0-.43,.32-.7,.67-.17,.22-.37,.47-.6,.71-.14,.15-.32,.23-.5,.23Zm1.91-7.44c-.06,0-.13,0-.19,0-2.62,.15-3.14,1.15-3.25,3.21-.08,1.41,.51,2.94,1.09,3.56,.25,.27,.46,.35,.65,.16,.22-.23,.41-.47,.58-.68,.36-.46,.65-.82,1.02-.82,.15,0,.29,.06,.42,.17,.2,.17,1.23,1.01,2.15,1.01h0c.22,0,.42-.05,.59-.15,.47-.27,1.05-.85,1.26-1.67,.18-.7,.06-1.4-.37-2.1-.02-.03-1.52-2.69-3.95-2.69Z"/>
              </g>
              <g>
                <path class="cls-35" d="M286.86,74.83c-.11,0-.2-.08-.2-.19,0-.05-.07-1.11,.6-2.54,.23-.48,.54-.78,.94-.89,.62-.17,1.19,.21,1.22,.23,.09,.06,.12,.19,.05,.28-.06,.09-.19,.12-.28,.06,0,0-.44-.29-.88-.17-.27,.08-.5,.3-.67,.67-.62,1.32-.56,2.32-.56,2.33,0,.11-.08,.21-.19,.22,0,0,0,0-.01,0Z"/>
                <path class="cls-35" d="M285.97,73.48s-.02,0-.03,0c-.11-.02-.19-.12-.17-.23,0-.04,.16-1.08,.75-2.63,.21-.55,.52-.91,.94-1.08,.61-.25,1.21,.03,1.24,.04,.1,.05,.15,.17,.1,.27-.05,.1-.17,.15-.27,.1,0,0-.47-.21-.91-.03-.31,.13-.54,.41-.7,.84-.56,1.5-.72,2.54-.72,2.55-.01,.1-.1,.17-.2,.17Z"/>
                <path class="cls-35" d="M285.62,70.43s-.05,0-.08-.02c-.1-.04-.15-.16-.11-.27,.99-2.44,2.8-1.75,2.82-1.74,.11,.04,.16,.16,.11,.27-.04,.11-.16,.15-.27,.11-.07-.02-1.45-.54-2.29,1.51-.03,.08-.11,.13-.19,.13Z"/>
              </g>
            </g>
            <g>
              <path class="cls-20" d="M335.81,22.65c-1.03-5.24-5.12-12.77-10.78-14.09-.79-2.63-2.61-4.47-5.79-6.14-4.8-2.52-10.6-2.62-15.79-1.62-4.88,.94-9.47,3.38-13.12,6.79-7.77,6.6-13.4,17.49-10.22,27.41,.14,.45,.93-.3,.98-.54,.18-.77,.36-1.51,.55-2.23,.13,1.05,.31,2.11,.54,3.21,.28-.13,.56-.25,.84-.37,.22-2.22,.6-4.31,1.18-6.38-.05,.45-.08,.91-.07,1.35,.09,2.15,.77,3.36,1.89,3.78,1.82-.71,3.67-1.32,5.65-1.82,.17-.19,.25-.41,.33-.83,.57-3.21,.53-5.81,1.5-8.74-.41,1.45-.65,2.95-.83,4.44-.16,1.34-.4,3.51,.37,4.81,.12-.03,.24-.06,.36-.09,1.18-.25,2.36-.47,3.53-.68,.16-.13,.29-.27,.34-.46,.68-2.27,.32-4.88,.83-7.27,.28-1.3,.81-2.84,1.27-4.02-.41,1.05-.54,2.12-.72,3.22-.22,1.32-.42,6.56,1.06,8.09,2.38-.34,4.78-.59,7.23-.71,.72-.2,1.21-.36,1.22-.43,.04-.22,.06-.44,.1-.66,.08-.05,.14-.12,.22-.17,.29,.97,.63,1.92,1.07,2.9,.84,1.9,2.26,5.21,4.05,6.46,.28,.19,.69-.23,.81-.45,.08-.16,.15-.33,.23-.49,.32,4.04,.51,8.02-1.62,11.78-.04,.08-.09,.28,.05,.3,2.54,.48,7.05-.02,8.76-1.78,.86-.89,1.14-3.32,1.11-4.63,0-.11,0-.19,0-.29,.08,.75,.66,5.65,.75,5.61,.93-.37,3.64-1.89,4.29-2.09,.2-1.09,.06-6.53,.38-5.88,.51,1.05,1.58,5.07,1.59,5.07,6.91-4.05,7.27-15.3,5.88-22.4Z"/>
              <path class="cls-29" d="M315.12,49.41c-.77,0-1.5-.06-2.11-.17-.1-.02-.18-.08-.23-.17-.08-.16,0-.35,.03-.43,1.93-3.4,1.94-6.98,1.65-10.94-.16,.2-.43,.45-.73,.45-.1,0-.19-.03-.28-.09-1.76-1.23-3.17-4.41-4.01-6.31l-.11-.24c-.35-.8-.66-1.61-.94-2.47-.02,.12-.03,.24-.05,.36-.03,.14-.04,.22-1.37,.59-2.43,.12-4.79,.36-7.26,.71-.07,0-.13-.01-.18-.06-1.42-1.47-1.36-5.99-1.18-7.78-.03,.13-.06,.26-.09,.39-.23,1.07-.28,2.21-.33,3.31-.06,1.33-.12,2.71-.5,3.97-.08,.26-.27,.44-.41,.56-.03,.02-.06,.04-.09,.04-1.18,.21-2.36,.43-3.52,.67-.06,.01-.12,.03-.19,.04-.06,.01-.12,.03-.18,.04-.09,.02-.18-.02-.22-.1-.27-.46-.42-1.03-.5-1.62-.05,.34-.11,.69-.17,1.05-.08,.46-.18,.71-.38,.93-.03,.03-.06,.05-.1,.06-1.85,.46-3.69,1.06-5.63,1.81-.05,.02-.1,.02-.15,0-1.16-.44-1.83-1.61-2-3.5-.33,1.46-.57,2.98-.73,4.58,0,.07-.05,.14-.12,.17l-.31,.14c-.18,.08-.35,.16-.53,.24-.06,.03-.12,.02-.18,0-.06-.03-.09-.08-.11-.14-.15-.74-.29-1.48-.4-2.2-.1,.41-.2,.81-.29,1.22-.06,.26-.61,.84-1.01,.84-.18,0-.32-.11-.37-.28-3.29-10.27,2.8-21.28,10.29-27.63,3.72-3.48,8.42-5.91,13.22-6.84,2.05-.4,4.08-.6,6.01-.6,3.76,0,7.1,.75,9.92,2.23,3.29,1.73,5.04,3.57,5.86,6.15,5.82,1.45,9.83,9.17,10.82,14.22,.81,4.12,.88,8.65,.18,12.42-.9,4.84-3.02,8.36-6.15,10.2-.03,.02-.07,.02-.11,.03q-.16,0-.33-.61c-.24-.86-.82-2.93-1.23-4.05-.04,.6-.06,1.58-.08,2.36-.03,1.27-.05,2.47-.13,2.94-.01,.08-.07,.14-.14,.16-.33,.1-1.25,.58-2.14,1.04-.83,.43-1.68,.87-2.13,1.05-.02,0-.05,.01-.08,.01-.17,0-.28,0-.69-3.45-.17,1.07-.49,2.14-1.02,2.69-1.44,1.49-4.58,2.01-6.83,2.01Zm-1.95-.56c.57,.1,1.24,.15,1.95,.15,2.35,0,5.28-.58,6.54-1.89,.78-.81,1.09-3.11,1.05-4.49v-.28c-.01-.11,.07-.2,.18-.21,.11-.02,.21,.07,.22,.18,.12,1.1,.53,4.49,.68,5.36,.46-.21,1.19-.58,1.89-.94,.86-.44,1.67-.86,2.09-1.02,.07-.52,.09-1.66,.11-2.76,.06-3.04,.1-3.22,.4-3.22,.07,0,.17,.03,.23,.17,.41,.85,1.16,3.51,1.48,4.64,.02,.07,.04,.14,.06,.2,3.37-2.15,8.11-9.04,5.55-22.05-.98-4.98-4.92-12.6-10.63-13.93-.07-.02-.13-.07-.15-.14-.76-2.52-2.46-4.32-5.69-6.02-2.76-1.45-6.03-2.19-9.73-2.19-1.9,0-3.9,.2-5.93,.59-4.73,.91-9.35,3.3-13.02,6.74-7.39,6.27-13.4,17.11-10.17,27.2,.14,0,.55-.39,.59-.52,.17-.75,.35-1.48,.55-2.23,.02-.09,.12-.17,.21-.15,.1,0,.18,.08,.19,.18,.12,.96,.29,1.95,.49,2.94,.1-.04,.2-.09,.3-.13l.2-.09c.23-2.23,.62-4.29,1.17-6.29,.03-.1,.13-.16,.24-.15,.11,.02,.18,.12,.16,.22-.06,.51-.08,.93-.07,1.31,.08,1.93,.65,3.13,1.69,3.56,1.9-.74,3.71-1.32,5.54-1.78,.11-.15,.18-.34,.24-.68,.2-1.14,.33-2.21,.45-3.24,.22-1.86,.43-3.63,1.06-5.53,.04-.11,.15-.16,.25-.13,.11,.03,.17,.14,.14,.25-.35,1.26-.61,2.62-.82,4.41-.14,1.16-.39,3.27,.27,4.55h.02c.07-.02,.13-.04,.2-.05,1.14-.24,2.31-.46,3.48-.67,.13-.11,.2-.21,.24-.32,.36-1.21,.42-2.5,.48-3.87,.05-1.12,.11-2.27,.34-3.38,.3-1.38,.86-2.96,1.28-4.04h0s.39,.14,.39,.14c-.34,.87-.48,1.75-.63,2.67l-.08,.51c-.23,1.39-.38,6.31,.94,7.84,2.44-.35,4.78-.58,7.14-.7,.62-.17,.93-.29,1.04-.34,.02-.11,.03-.22,.05-.32l.04-.25c0-.05,.04-.1,.08-.14,.04-.03,.07-.06,.11-.09,.03-.03,.07-.05,.1-.08,.05-.04,.12-.05,.19-.03,.06,.02,.11,.07,.13,.14,.3,1.02,.65,1.96,1.06,2.88l.11,.24c.82,1.86,2.21,4.97,3.87,6.14,0,0,0,0,.01,0,.18,0,.41-.23,.49-.38,.05-.09,.1-.2,.14-.3l.08-.18c.04-.08,.12-.13,.22-.11,.09,.02,.16,.09,.17,.19,.34,4.31,.46,8.19-1.65,11.9,0,0,0,.01,0,.02Z"/>
            </g>
            <path class="cls-13" d="M313.57,47.59c-.17,.38-.35,.76-.57,1.14-.04,.08-.09,.28,.05,.3,2.54,.48,7.05-.02,8.76-1.78,.59-.61,.9-1.92,1.03-3.12-2.88,1.66-6.03,2.84-9.27,3.46Z"/>
            <path class="cls-13" d="M323.1,43.98c.2,1.69,.49,3.99,.56,3.96,.93-.37,3.64-1.89,4.29-2.09,.16-.89,.1-4.71,.25-5.69-1.55,1.45-3.26,2.74-5.1,3.82Z"/>
            <path class="cls-13" d="M335.81,22.65c-.02-.1-.05-.2-.07-.3,.26,2.73-.03,5.51-1.03,8.22-1.35,3.62-3.58,6.81-6.35,9.46,.51,1.1,1.56,5.03,1.58,5.03,6.91-4.05,7.27-15.3,5.88-22.4Z"/>
            <path class="cls-6" d="M316.19,41.67c7.29-1.69,8.35-10.29,4.25-10.41-3.22-.09-5.14,2.88-5.14,2.88,0,0-2.12,3.6-1.11,6.21,0,0,.34,1.02,1.17,1.17l.83,.15Z"/>
            <path class="cls-35" d="M316.19,41.88s-.02,0-.04,0l-.83-.15c-.58-.1-.95-.56-1.15-.93-.05-.1-.02-.22,.08-.28,.1-.06,.22-.02,.28,.08,.16,.29,.45,.65,.87,.72l.79,.14c4.78-1.13,6.65-5.24,6.41-7.67-.14-1.42-.95-2.29-2.16-2.33-3.08-.09-4.95,2.76-4.96,2.79-.06,.09-.19,.12-.28,.06-.1-.06-.12-.19-.06-.28,.08-.12,1.96-2.98,5.17-2.98,.05,0,.1,0,.15,0,1.43,.04,2.39,1.05,2.55,2.69,.26,2.58-1.71,6.94-6.76,8.12-.01,0-.03,0-.05,0Z"/>
            <g>
              <path class="cls-35" d="M317.01,38.27c-.08-.03-.13-.11-.12-.2,.02-.1,.36-2.58,2.37-3.39,.71-.29,1.3-.3,1.75-.05,.58,.33,.68,.98,.69,1.01,.02,.1-.05,.2-.16,.21-.1,.01-.2-.06-.21-.15,0,0-.08-.51-.5-.75-.34-.19-.82-.17-1.42,.07-1.81,.73-2.14,3.07-2.14,3.09-.01,.1-.11,.18-.21,.16-.01,0-.03,0-.04,0Z"/>
              <path class="cls-35" d="M318.66,37.53c-.21-.08-.44-.21-.6-.44-.26-.37-.27-.88-.03-1.52,.04-.1,.14-.14,.24-.11,.1,.04,.15,.15,.11,.24-.19,.52-.2,.91-.01,1.18,.27,.38,.88,.4,.88,.39,.1,0,.19,.08,.19,.19,0,.1-.08,.19-.19,.19-.02,0-.3,0-.6-.11Z"/>
            </g>
            <g>
              <path class="cls-4" d="M30.29,80.43s1.62,5.92,10.44,2.32c0,0-5.45,2.55-10.44-2.32Z"/>
              <path class="cls-29" d="M35.67,84.11c-4.53,0-5.57-3.59-5.58-3.63-.02-.09,.01-.18,.09-.23,.08-.05,.18-.04,.25,.03,1.99,1.94,4.28,2.93,6.81,2.93,1.42,0,2.53-.32,3.07-.52,.11-.04,.23-.09,.34-.14,.1-.04,.22,0,.26,.11,.04,.1,0,.22-.1,.27,0,0-.13,.06-.36,.15-1.77,.69-3.38,1.03-4.78,1.03Zm-4.8-2.88c.58,.99,1.93,2.47,4.8,2.47,.4,0,.82-.03,1.25-.09-2.18-.08-4.25-.89-6.04-2.39Z"/>
            </g>
          </g>
          <g>
            <path class="cls-36" d="M327.27,101.65c-.06,0-.11-.02-.15-.07-.08-.08-.07-.21,.01-.29,4.78-4.44,10.07-11.64,8.09-20.74-1.19-5.45-4.47-9.06-4.5-9.09-.08-.08-.07-.21,.01-.29,.08-.08,.21-.07,.29,.01,.13,.15,13.27,14.75-3.61,30.42-.04,.04-.09,.05-.14,.05Z"/>
            <path class="cls-36" d="M324.65,98.87c-.05,0-.11-.02-.15-.07-.08-.08-.07-.21,.01-.29,12.46-11.57,3.11-21.99,2.7-22.43-.08-.08-.07-.21,.01-.29,.08-.08,.21-.07,.29,.01,.1,.11,10.04,11.16-2.73,23.01-.04,.04-.09,.05-.14,.05Z"/>
          </g>
          <g>
            <path class="cls-36" d="M16.17,146.97s-.03,0-.05,0C-3.52,142.2,.28,125.38,.32,125.21c.03-.11,.14-.18,.25-.15,.11,.03,.18,.14,.15,.25-.04,.17-3.74,16.59,15.5,21.26,.11,.03,.18,.14,.15,.25-.02,.09-.11,.16-.2,.16Z"/>
            <path class="cls-36" d="M16.99,143.72s-.03,0-.05,0c-14.86-3.6-11.99-16.34-11.96-16.47,.03-.11,.14-.18,.25-.15,.11,.03,.18,.14,.15,.25-.03,.12-2.8,12.47,11.65,15.97,.11,.03,.18,.14,.15,.25-.02,.09-.11,.16-.2,.16Z"/>
          </g>
        </g>
      </g>
    </g>
  </g>
</svg>