<?xml version="1.0" encoding="UTF-8"?>
<svg xmlns="http://www.w3.org/2000/svg" viewBox="0 0 157.85 121.62">
  <defs>
    <style>
      .cls-1 {
        fill: #ea7b59;
      }

      .cls-2 {
        fill: #ea332a;
      }

      .cls-3 {
        fill: #5b314b;
      }

      .cls-4 {
        fill: #cc5444;
      }

      .cls-5 {
        fill: #ffdf99;
      }

      .cls-6 {
        isolation: isolate;
      }

      .cls-7 {
        fill: #fff1d4;
      }

      .cls-8 {
        fill: #ff5444;
      }

      .cls-9 {
        fill: #e53c3c;
      }

      .cls-10 {
        fill: #704b75;
      }

      .cls-11 {
        fill: #b74941;
      }

      .cls-12 {
        fill: #ffb452;
      }

      .cls-13 {
        fill: #b74444;
        mix-blend-mode: multiply;
        opacity: .6;
      }

      .cls-14 {
        fill: #ff9566;
      }

      .cls-15 {
        fill: #e24a2b;
      }

      .cls-16 {
        fill: #f96d30;
      }

      .cls-17 {
        fill: #9b567c;
      }

      .cls-18 {
        fill: #ffdb76;
      }

      .cls-19 {
        fill: #ffb288;
      }

      .cls-20 {
        fill: #3f7fa5;
      }

      .cls-21 {
        fill: #ff5a5a;
      }

      .cls-22 {
        fill: #ffb882;
      }

      .cls-23 {
        fill: #b23329;
      }

      .cls-24 {
        fill: #f9cc73;
      }

      .cls-25 {
        fill: #763224;
      }

      .cls-26 {
        fill: #ff6a36;
      }

      .cls-27 {
        fill: #fffbdd;
      }

      .cls-28 {
        fill: #ffcd50;
      }

      .cls-29 {
        fill: #ffe05c;
      }

      .cls-30 {
        fill: #634666;
      }
    </style>
  </defs>
  <g class="cls-6">
    <g id="Layer_2" data-name="Layer 2">
      <g id="_1" data-name="1">
        <g>
          <path class="cls-10" d="M49.19,103.78c10.81,10.39,36.37,8.85,53.92-.56,0,0-12.22,8.99-29.91,9.41-18.28,.44-24.01-8.85-24.01-8.85Z"/>
          <polygon class="cls-3" points="27.86 72.48 22.24 121.62 25.89 121.62 29.54 72.48 27.86 72.48"/>
          <polygon class="cls-3" points="148.05 72.48 153.67 121.62 150.02 121.62 146.37 72.48 148.05 72.48"/>
          <path class="cls-3" d="M14.38,75.73s21.28,28.17,56.7,29.81c36.44,1.69,76.78-30.37,76.78-30.37l-133.48,.56Z"/>
          <path class="cls-30" d="M12.97,74.16s22.69,27.21,58.11,28.85c36.44,1.69,79-29.27,79-29.27l-137.12,.42Z"/>
          <path class="cls-10" d="M23.64,84.18c9.98,7.94,26.49,18.92,47.45,19.89,31.98,1.48,68.67-23.24,77.17-29.05-42.46,19.58-82.62,28.59-124.62,9.16Z"/>
          <polygon class="cls-17" points="133.31 72.48 138.93 121.62 135.28 121.62 131.63 72.48 133.31 72.48"/>
          <path class="cls-3" d="M135.46,91.28l-2.15-18.81h-1.68l1.73,23.25c.62-1.85,1.33-3.36,2.11-4.44Z"/>
          <polygon class="cls-17" points="13.33 72.48 7.71 121.62 11.36 121.62 15.01 72.48 13.33 72.48"/>
          <path class="cls-3" d="M13.29,95.62l1.72-23.15h-1.68l-2.03,17.8c.78,1.32,1.46,3.15,2,5.35Z"/>
          <path class="cls-3" d="M155.56,73.17c.05-2.03-17.38,1.49-77.49,1.11-60.11-.37-75.73-4.1-75.78-2.07-.05,2.04,15.49,9.53,75.6,9.91s77.63-6.92,77.68-8.96Z"/>
          <path class="cls-12" d="M157.85,71.68c.05-2.03-17.9,1.47-79.8,1.06C16.14,72.32,.05,68.58,0,70.61c-.05,2.03,15.95,9.07,77.86,9.49,61.91,.42,79.94-6.39,79.99-8.43Z"/>
          <path class="cls-18" d="M1.83,70.02c11.16,2.61,33.88,5.47,75.96,5.82,43.34,.36,67.03-2.28,78.49-4.76-5.52-.38-26.5,1.6-78.16,1.25-50.58-.34-70.64-2.49-76.29-2.31Z"/>
          <path class="cls-3" d="M131.61,74.43c0,.74,.6,1.33,1.33,1.33s1.33-.6,1.33-1.33-.6-1.33-1.33-1.33-1.33,.6-1.33,1.33Z"/>
          <path class="cls-3" d="M12.4,73.31c0,.74,.6,1.33,1.33,1.33s1.33-.6,1.33-1.33-.6-1.33-1.33-1.33-1.33,.6-1.33,1.33Z"/>
          <g>
            <path class="cls-26" d="M131.02,12.62c-.42,2.32-1.79,4.05-4.84,5.74-3.85,2.12-4.84,5.9-5.27,13.9l8.64-12.22c2.84-4.21,1.47-7.42,1.47-7.42Z"/>
            <polygon class="cls-22" points="122.29 45.62 108.06 33.82 107.69 34.21 120.57 47.33 122.29 45.62"/>
            <path class="cls-14" d="M117.04,41.26c-.79,.07-1.82-.13-2.99-.57l6.52,6.64,1.72-1.71-5.25-4.36Z"/>
            <polygon class="cls-8" points="121.36 50.59 115.16 47.14 119.58 42.15 125.53 46.72 121.36 50.59"/>
            <path class="cls-2" d="M116.55,45.57l-1.39,1.57,5.75,3.92,2.37-2.24c-2.33-.31-4.97-1.58-6.72-3.25Z"/>
            <polygon class="cls-22" points="106.71 49.65 91.02 39.88 90.71 40.31 105.23 51.57 106.71 49.65"/>
            <path class="cls-14" d="M100.69,45.9c-.77,.14-1.73,.12-2.81-.03l7.36,5.71,1.48-1.93-6.02-3.75Z"/>
            <polygon class="cls-22" points="104.38 53.53 87.32 43.02 86.98 43.35 102.97 55.35 104.38 53.53"/>
            <path class="cls-14" d="M99.36,50.44c-.62,.27-1.34,.47-2.14,.59l5.76,4.32,1.4-1.82-5.02-3.09Z"/>
            <path class="cls-5" d="M115.73,59.58s-6.44,1.44-17.25,1.16l5.9-14.67s9.21,2.8,10.81,3.68c1.61,.88,3.7,7.81,.54,9.83Z"/>
            <path class="cls-24" d="M115.19,49.75c-.76-.42-3.2-1.26-5.57-2.03-.46,8.96-7.9,10.54-9.99,10.15h0l-1.15,2.87c10.81,.28,17.25-1.16,17.25-1.16,3.16-2.02,1.07-8.95-.54-9.83Z"/>
            <path class="cls-8" d="M110.25,47.56l.11,13.06s13.53-.24,18.32-7.47c1.43-2.15-.24-4.34-1.47-5.3-1.63-1.27-3.27-2.44-4.3-1.53-2.64,2.36-6.22,3.64-12.66,1.24Z"/>
            <path class="cls-2" d="M127.59,52.36c-2.45,1.27-6.06,4.51-17.27,5.21l.02,3.06s14.22-.03,19.01-7.26c1.01-1.52-.94,.1-1.77-1.01Z"/>
            <polygon class="cls-22" points="130.91 52.64 149.17 49.83 149.1 48.96 130.77 50.22 130.91 52.64"/>
            <path class="cls-14" d="M135.8,51.6c-.11-.57,.27-1.19,.99-1.79l-6.02,.41,.14,2.42,4.99-.77c-.04-.09-.08-.18-.09-.28Z"/>
            <polygon class="cls-8" points="127.96 49.31 134.16 49.62 132.79 56.14 124.56 55.02 127.96 49.31"/>
            <polygon class="cls-2" points="125.43 53.56 123.83 55.74 132.79 56.14 133.2 54.18 125.43 53.56"/>
            <path class="cls-5" d="M124.21,45.71c-1.89,1.38,.76,3.21,4.29,3.56-.16-.7-1.39-3.03-4.29-3.56Z"/>
            <path class="cls-19" d="M130.84,44.91l-4.81-1.31-1.23,2.5c.09,1.27,1,1.95,3.19,2.54l2.84-3.73Z"/>
            <path class="cls-13" d="M120.46,47.64c.4,2.11,5.52,2.58,13.44,1.96l-5.35-.27s-.03-.05-.05-.07c-.04-.18-.16-.48-.36-.82l2.35-3.09-1.64-.98-2.83-.77-1.13,2.3c-.22-.07-.44-.14-.69-.19l-2.55-1.96c-.75,1.28-1.41,2.77-1.2,3.89Z"/>
            <path class="cls-26" d="M145.02,16.02c4.42-4-3.09-13.27-3.09-13.27,0,0,3.03,8.56-5.55,11.79-11.7,4.41-17.55,15.8-15.09,21.69l10.62,10.55c7.64,.68,13.32-4.79,13.46-10.27s-4.77-16.5-.35-20.5Z"/>
            <path class="cls-15" d="M138.32,31.94c-4.44,3.11-5.88,8.06-6.41,14.84,7.64,.68,14.02-4.51,14.16-9.99s-3.09-16.87-.21-20.24c.97-1.13,.84-3.11,.54-4.31-1.08,5.58-8.88,3.74-8.09,19.69Z"/>
            <path class="cls-22" d="M121.51,35.11c-1.76,4.98-1.95,8.24,6.65,11.43,4.64,1.72,10.83-1.41,11.6-7.53,.74-5.91-1.74-10.47-6.82-11.83-8.36-2.24-10.28,4.68-11.43,7.93Z"/>
            <path class="cls-15" d="M139.18,30.62c.39,3.43-5.92,5.11-4.88,15.14,0,0,3.93,.96,6.3-4.01,2.95-6.19-1.42-11.13-1.42-11.13Z"/>
            <path class="cls-22" d="M133.27,45.96c2.82,.68,5.16,0,5.09-1.61-.07-1.61-3.06-.97-3.8-.53-.74,.44-1.3,2.14-1.3,2.14Z"/>
            <path class="cls-1" d="M134.16,45.68c1.63,.39,2.99,0,2.95-.93-.04-.93-1.77-.56-2.2-.31-.43,.25-.75,1.24-.75,1.24Z"/>
            <path class="cls-22" d="M133.96,45.64c1.01,.24,1.85,0,1.83-.58-.02-.58-1.1-.35-1.36-.19-.26,.16-.46,.77-.46,.77Z"/>
            <path class="cls-26" d="M145.69,13.46c-2.04,3.16-3.44,7.06-3.55,10.88,0,0-2.07-5.13-.46-7.9,1.61-2.77,4-2.98,4-2.98Z"/>
            <path class="cls-7" d="M87.7,43.61c-.56,.63-1.61,.25-1.61,.25,0,0-.39-3.05,.32-5.02,0,0,1.98,4.01,1.3,4.77Z"/>
            <path class="cls-7" d="M91.28,40.52c-.56,.63-1.61,.25-1.61,.25,0,0-.39-3.05,.32-5.02,0,0,1.98,4.01,1.3,4.77Z"/>
            <g>
              <path class="cls-26" d="M123.83,32.87c.77-1.17,2.08-1.67,2.93-1.12s.91,1.95,.14,3.12-1.72,1.16-2.57,.6c-.85-.55-1.27-1.43-.5-2.6Z"/>
              <path class="cls-26" d="M129.78,36.16c.77-1.17,2.08-1.67,2.93-1.12,.85,.55,.91,1.95,.14,3.12-.77,1.17-1.72,1.16-2.57,.6-.85-.55-1.27-1.43-.5-2.6Z"/>
              <path class="cls-27" d="M129.5,36.51c.75-1.29,2.06-1.87,2.92-1.3,.86,.57,.94,2.08,.19,3.37-.75,1.29-1.71,1.3-2.56,.73-.86-.57-1.3-1.51-.54-2.8Z"/>
              <path class="cls-20" d="M129.93,36.61c.34-.73,1.03-1.11,1.54-.87,.51,.25,.64,1.04,.29,1.77-.34,.73-1.03,1.11-1.54,.87-.51-.25-.64-1.04-.29-1.77Z"/>
              <path class="cls-27" d="M130.21,35.99c.13-.28,.4-.43,.6-.33s.25,.4,.11,.68-.4,.43-.6,.33-.25-.4-.11-.68Z"/>
              <path class="cls-11" d="M134.73,37.27l-.5,.03c.23-.6,.49-3.75-1.02-4.99l.44-.29s2.19,2.38,1.08,5.24Z"/>
              <path class="cls-27" d="M123.46,33.18c.77-1.17,2.08-1.67,2.93-1.12s.91,1.95,.14,3.12-1.72,1.16-2.57,.6c-.85-.55-1.27-1.43-.5-2.6Z"/>
              <path class="cls-20" d="M123.82,33.37c.35-.66,1.06-1.01,1.59-.78,.53,.23,.66,.95,.31,1.61-.35,.66-1.06,1.01-1.59,.78-.52-.23-.66-.95-.31-1.61Z"/>
              <path class="cls-27" d="M124.11,32.81c.14-.26,.41-.39,.61-.3s.26,.37,.12,.62c-.14,.26-.41,.39-.61,.3-.2-.09-.26-.37-.12-.62Z"/>
              <path class="cls-11" d="M124.85,29.72l.21,.32c.41-.36,2.31-1.13,3.37,0l.3-.55s-1.96-1.5-3.89,.23Z"/>
              <path class="cls-25" d="M127.91,41l-4.24-2.19s-.46,1.87,.9,2.75c1.55,1.01,3.34-.56,3.34-.56Z"/>
              <path class="cls-27" d="M127.42,40.93l-3.53-1.85s-.24,1.21,.96,1.95c1.34,.83,2.57-.1,2.57-.1Z"/>
              <path class="cls-1" d="M125.68,37.26c.43-.4,1.18-.46,1.18-.46l.17,1.94c-1.27,.13-1.89-.96-1.35-1.47Z"/>
              <path class="cls-22" d="M126.02,37.35c.31-.33,.89-.4,.89-.4l.14,1.55c-.94,.05-1.4-.76-1.03-1.16Z"/>
              <path class="cls-1" d="M123.88,42.19c.05-.07,.36,.05,.7,.27,.34,.22,.57,.46,.52,.54-.05,.07-.36-.05-.7-.27-.34-.22-.57-.46-.52-.54Z"/>
            </g>
            <g>
              <path class="cls-22" d="M145.23,50.38c1.3,.05,2.38,.9,3.27,.56,.7-.26,1.04-2.28,.62-2.56-.42-.28-4.04,.86-4.04,.86l.15,1.14Z"/>
              <path class="cls-22" d="M146.08,49.01c.85-.65,1.92-2.19,2.18-2.44,.26-.25,.52,.1,.07,.97-.46,.86-.83,.96-.57,1.39,.29,.47-2.09,.4-1.68,.09Z"/>
              <path class="cls-22" d="M148.68,49.09c.87-.25,2.94-.82,2.85-1.11s-3.2,.41-3.2,.41l.35,.7Z"/>
              <path class="cls-22" d="M148.69,49.98c.9-.1,3.04-.31,2.99-.61-.04-.3-3.22-.13-3.22-.13l.23,.74Z"/>
              <path class="cls-22" d="M147.91,51c.9,.11,3.03,.38,3.05,.08,.02-.3-3.11-.85-3.11-.85l.06,.78Z"/>
            </g>
            <g>
              <path class="cls-22" d="M109.4,35.9c-.97-.43-2.06-.2-2.61-.76-.42-.43,.02-2,.43-2.05,.41-.05,2.94,2.44,2.94,2.44l-.76,.37Z"/>
              <path class="cls-22" d="M109.25,34.62c-.41-.76-.66-2.25-.77-2.52-.11-.27-.42-.11-.38,.67,.04,.78,.28,.98-.06,1.19-.37,.23,1.41,1.03,1.21,.66Z"/>
              <path class="cls-22" d="M107.3,33.86c-.51-.54-1.73-1.82-1.56-2s2.06,1.62,2.06,1.62l-.5,.38Z"/>
              <path class="cls-22" d="M106.99,34.39c-.63-.39-2.13-1.3-1.99-1.5,.14-.2,2.42,1.05,2.42,1.05l-.43,.45Z"/>
              <path class="cls-22" d="M107.21,35.39c-.7-.24-2.36-.8-2.28-1.03s2.58,.49,2.58,.49l-.31,.54Z"/>
            </g>
          </g>
          <g>
            <polygon class="cls-16" points="64.55 56.96 60.32 57.51 61.9 52.18 64.55 56.96"/>
            <polygon class="cls-16" points="52.73 56.86 48.53 56.13 51.62 51.51 52.73 56.86"/>
            <polygon class="cls-22" points="51.48 56.75 61.8 78.45 62.78 78.36 54.86 55.31 51.48 56.75"/>
            <path class="cls-14" d="M59.17,67.84l-4.3-12.52-3.38,1.44,6.86,14.42c.08-1.44,.36-2.61,.82-3.34Z"/>
            <polygon class="cls-22" points="57.66 55.31 65.01 78.06 65.98 78.06 61.17 54.16 57.66 55.31"/>
            <path class="cls-14" d="M64.02,68.33l-2.86-14.17-3.5,1.15,5.47,16.94c.2-1.68,.51-3.04,.89-3.92Z"/>
            <polygon class="cls-22" points="63.61 41.25 74.54 52.67 75.03 52.47 64.98 39.88 63.61 41.25"/>
            <path class="cls-14" d="M69.52,45.57l-4.54-5.69-1.36,1.37,5.96,6.22c-.08-.69-.1-1.33-.05-1.91Z"/>
            <polygon class="cls-22" points="50.34 37.83 36.17 44.83 36.21 45.35 51.24 39.54 50.34 37.83"/>
            <path class="cls-14" d="M46.03,41.56l5.21-2.01-.9-1.71-6.27,3.09c.81,.13,1.48,.34,1.96,.63Z"/>
            <path class="cls-21" d="M54.17,65.73l4.83-.76-.96-4.28,.52,.04,1.28,4.25,4.72-.5-2.08-11.29-12.02-1.35s-1.65,3.91,3.7,13.89Z"/>
            <g>
              <path class="cls-9" d="M59.62,56.51c1.55,.18,2.83,.56,3.65,1l-.8-4.32-12.02-1.35s-2.1,3.98,3.25,13.95l2.03-.32c-2.52-5.06-5.4-10.06,3.87-8.97Z"/>
              <path class="cls-9" d="M59.98,59.69c-.76,.01-1.77,.43-2.74,.32,.24,.5,.81,1.09,1.03,1.73l-.24-1.05,.52,.04,1.08,4.36,1.02-.19c-.69-1.58-.92-3.81-.68-5.2Z"/>
            </g>
            <path class="cls-29" d="M65.43,46.66l3.62-3.23s-5.16-7.14-6.25-6.91c-1.09,.23-.52,5.95-.19,6.56s2.82,3.59,2.82,3.59Z"/>
            <path class="cls-28" d="M62.16,38.92c-.02,1.73-.1,3.99,.09,4.35,.33,.61,3.18,3.4,3.18,3.4l1.16-1.04c-1.88-2.47-4.08-5.39-4.43-6.71Z"/>
            <path class="cls-29" d="M48.51,56.14c4.05-3.21,14.43-.62,16.03,.82,0,0-1.7-13.41-.4-17.97,1.29-4.55-9.6-7.06-12.25,.15s-3.38,17-3.38,17Z"/>
            <path class="cls-28" d="M52.91,48.42c.22-5.82,1.01-8.72,2.91-11.76-1.9,.84-3.06,.13-3.93,2.48-2.65,7.21-3.38,17-3.38,17,1.15-.91,2.82-1.35,4.64-1.49-.23-1.93-.33-4.03-.25-6.23Z"/>
            <path class="cls-29" d="M48.67,42.71l-2.3-4.82s10.06-3.66,11.24-2.95c1.18,.7-2.99,5.18-3.62,5.57-.63,.4-5.33,2.2-5.33,2.2Z"/>
            <path class="cls-28" d="M47.93,41.16l.77,1.93s4.66-2.17,5.3-2.57c.14-.09,.45-.38,.84-.77-2.36,.53-5.74,1.19-6.9,1.41Z"/>
            <path class="cls-21" d="M57.17,34.75c1.19,2.27,5.53,5.49,6.72,2.21-.73-1.78-3.78-3.11-6.72-2.21Z"/>
            <path class="cls-19" d="M63.69,32.62l-4.14-1.37-1.09,3.55c.7,1.33,3.21,2.48,4.34,1.71l.89-3.89Z"/>
            <path class="cls-13" d="M59.97,41.29c1.82,.39,3.97-.98,5.16-2.84-.37-.42-.73-.8-1.05-1.12-.05-.13-.11-.26-.19-.38-.18-.44-.5-.84-.92-1.2l.72-3.14-4.14-1.37-.99,3.24c-.46,.04-.92,.12-1.39,.26-.21,.04-.43,.09-.64,.15-.64,.08-1.49,.27-2.43,.52,1.58,.86,1.48,4.93,5.87,5.88Z"/>
            <path class="cls-4" d="M74.46,5.48s.34,2.56-.15,3.01-1.28-.52-2.7-2.99c-2.36-4.1-9.06-5.49-9.06-5.49,1.19,1.07,.59,4.03-.25,4.11-2.12,.22-4.1-2.7-6.69-2.64,1.15,1.42,1.3,6.76-1.09,9.33-2.39,2.57-3.07,7.05-3.03,10.47,.05,3.42,2.46,9.62,7.16,11.55l13.14-1.88c10.86-11.74,2.66-25.46,2.66-25.46Z"/>
            <path class="cls-23" d="M61.9,26.62c1.87-13.51-4.49-24.29-6.29-25.15,.71,3.49,.25,7.35-1.54,8.93-2.63,2.32-3.1,7.47-3.05,10.88,.05,3.42,2.93,9.6,7.63,11.53l3.25-6.19Z"/>
            <path class="cls-22" d="M74.29,23.78c.42-6.23-.34-10.33-9.96-9.98-7.37,.26-10.47,5.15-9.93,11.37,.54,6.22,4.91,10.53,10.11,10.89,9.5,.65,9.51-8.16,9.78-12.27Z"/>
            <path class="cls-23" d="M55.81,29.18c2.67-1.76,1.12-13.27,5.86-15.16,0,0-3.19-2.46-6.99,2.14s1.12,13.02,1.12,13.02Z"/>
            <path class="cls-22" d="M56.13,29.38c-3.46,1.29-4.4-2.07-3.38-3.98,1.42-2.66,3.92,3.77,3.38,3.98Z"/>
            <path class="cls-1" d="M55.16,28.59c-1.82,.68-2.32-1.09-1.78-2.1,.75-1.4,2.07,1.99,1.78,2.1Z"/>
            <path class="cls-22" d="M55.03,28.73c-.94,.35-1.2-.56-.92-1.08,.39-.72,1.07,1.03,.92,1.08Z"/>
            <g>
              <path class="cls-27" d="M64.47,24.7c.17-1.36-.46-2.6-1.42-2.76-.96-.16-1.88,.81-2.05,2.17-.17,1.36,.53,1.98,1.49,2.14,.96,.16,1.81-.2,1.99-1.56Z"/>
              <path class="cls-20" d="M64.09,24.49c.16-.72-.13-1.42-.65-1.58-.52-.16-1.06,.3-1.22,1.01s.13,1.42,.65,1.58c.52,.16,1.06-.3,1.22-1.01Z"/>
              <path class="cls-27" d="M64.23,23.89c.06-.28-.05-.55-.25-.61-.2-.06-.41,.11-.47,.39-.06,.28,.05,.55,.25,.61,.2,.06,.41-.11,.47-.39Z"/>
              <path class="cls-4" d="M60.47,18.98l.39,.95c.5-.55,3.29-1.71,5.33-.76l.21-1.77s-3.55-1.07-5.93,1.57Z"/>
              <path class="cls-27" d="M72.28,25.66c.17-1.35-.45-2.53-1.4-2.65-.94-.12-1.85,.88-2.02,2.23-.17,1.35,.52,1.92,1.46,2.04,.94,.12,1.79-.27,1.96-1.62Z"/>
              <path class="cls-20" d="M71.91,25.58c.16-.71-.13-1.41-.65-1.56-.52-.16-1.06,.29-1.22,1-.16,.71,.13,1.41,.65,1.56,.52,.15,1.06-.29,1.22-1Z"/>
              <path class="cls-27" d="M72.05,24.98c.06-.27-.05-.54-.25-.6-.2-.06-.41,.11-.47,.39-.06,.27,.05,.54,.25,.6,.2,.06,.41-.11,.47-.39Z"/>
              <path class="cls-4" d="M73.97,21.81l-.68,.71c-.09-.63-1.42-2.47-3.18-2.26l.65-1.6s2.82,.15,3.22,3.15Z"/>
              <path class="cls-25" d="M62.95,29.78l5.32,1.25s-.98,2.02-2.82,1.78c-2.09-.27-2.5-3.03-2.5-3.03Z"/>
              <path class="cls-27" d="M63.43,30.08l4.45,1.02s-.69,1.26-2.29,1.02c-1.79-.27-2.17-2.04-2.17-2.04Z"/>
              <path class="cls-1" d="M67.67,28.12c-.07-.68-.68-1.3-.68-1.3l-1.58,1.6c1.01,1.07,2.36,.58,2.26-.3Z"/>
              <path class="cls-22" d="M67.3,27.94c-.03-.52-.48-1.03-.48-1.03l-1.27,1.28c.78,.76,1.79,.38,1.76-.25Z"/>
              <path class="cls-1" d="M65.57,33.89c.01-.1-.35-.23-.81-.29s-.84-.02-.85,.09c-.01,.1,.35,.23,.81,.29,.46,.06,.84,.02,.85-.09Z"/>
            </g>
            <g>
              <path class="cls-22" d="M38.09,44.6c-.86,.53-1.26,1.51-1.99,1.64-.57,.1-1.56-1.09-1.39-1.44,.18-.35,3.5-1,3.5-1l-.12,.8Z"/>
              <path class="cls-22" d="M37,44.03c-.82-.09-2.12-.69-2.39-.75-.27-.06-.32,.27,.32,.66s.92,.31,.91,.69c-.02,.42,1.56-.55,1.17-.6Z"/>
              <path class="cls-22" d="M35.36,45.15c-.7,.11-2.36,.38-2.4,.15-.05-.23,2.38-.75,2.38-.75l.03,.59Z"/>
              <path class="cls-22" d="M35.61,45.68c-.64,.28-2.17,.97-2.25,.76-.08-.21,2.12-1.34,2.12-1.34l.13,.58Z"/>
              <path class="cls-22" d="M36.52,46.04c-.57,.42-1.9,1.42-2.03,1.24-.13-.19,1.77-1.77,1.77-1.77l.26,.53Z"/>
            </g>
            <g>
              <path class="cls-22" d="M73.32,51.48c.55,.66,.62,1.56,1.18,1.86,.44,.23,1.57-.45,1.52-.78-.05-.33-2.58-1.76-2.58-1.76l-.12,.68Z"/>
              <path class="cls-22" d="M74.37,51.31c.69,.15,1.92,.02,2.15,.05,.23,.02,.18,.3-.44,.44-.62,.14-.83,0-.92,.31-.1,.34-1.12-.87-.79-.8Z"/>
              <path class="cls-22" d="M75.4,52.66c.54,.28,1.82,.95,1.92,.77s-1.74-1.25-1.74-1.25l-.18,.47Z"/>
              <path class="cls-22" d="M75.05,53.02c.45,.4,1.5,1.37,1.63,1.22,.13-.15-1.37-1.66-1.37-1.66l-.26,.43Z"/>
              <path class="cls-22" d="M74.22,53.07c.35,.49,1.16,1.66,1.32,1.55,.16-.12-.97-1.91-.97-1.91l-.35,.36Z"/>
            </g>
          </g>
        </g>
      </g>
    </g>
  </g>
</svg>