<?xml version="1.0" encoding="UTF-8"?>
<svg xmlns="http://www.w3.org/2000/svg" xmlns:xlink="http://www.w3.org/1999/xlink" viewBox="0 0 221.71 311.46">
  <defs>
    <style>
      .cls-1 {
        fill: url(#_300);
      }

      .cls-2 {
        fill: #fff;
      }

      .cls-3 {
        fill: url(#_300-2);
      }

      .cls-4 {
        fill: #d077b7;
      }

      .cls-4, .cls-5, .cls-6, .cls-7, .cls-8, .cls-9, .cls-10, .cls-11, .cls-12, .cls-13, .cls-14, .cls-15, .cls-16, .cls-17, .cls-18, .cls-19, .cls-20, .cls-21, .cls-22 {
        mix-blend-mode: multiply;
      }

      .cls-4, .cls-5, .cls-6, .cls-7, .cls-8, .cls-10, .cls-11, .cls-12, .cls-16, .cls-19, .cls-20, .cls-21, .cls-22 {
        opacity: .6;
      }

      .cls-23 {
        fill: url(#_21-3);
      }

      .cls-24 {
        fill: #4e1b3d;
      }

      .cls-25 {
        fill: url(#_56);
      }

      .cls-26 {
        fill: #ef7172;
      }

      .cls-5 {
        fill: url(#_5);
      }

      .cls-6 {
        fill: url(#_123-2);
      }

      .cls-7 {
        fill: url(#_123-5);
      }

      .cls-8 {
        fill: url(#linear-gradient-5);
      }

      .cls-27 {
        fill: #dc6b7c;
      }

      .cls-9 {
        fill: url(#_123-9);
      }

      .cls-28 {
        isolation: isolate;
      }

      .cls-29 {
        fill: #9b1e52;
      }

      .cls-30 {
        fill: #dd4c6b;
      }

      .cls-10 {
        fill: url(#linear-gradient-2);
      }

      .cls-11 {
        fill: url(#linear-gradient-6);
      }

      .cls-31 {
        fill: url(#_14);
      }

      .cls-12 {
        fill: url(#linear-gradient-4);
      }

      .cls-32 {
        fill: #832751;
      }

      .cls-33 {
        fill: url(#_14-3);
      }

      .cls-13 {
        fill: url(#_14-4);
      }

      .cls-14 {
        fill: url(#_123-8);
      }

      .cls-34 {
        clip-path: url(#clippath-1);
      }

      .cls-15 {
        fill: url(#_14-2);
      }

      .cls-35 {
        fill: url(#_97-2);
      }

      .cls-36 {
        fill: #ffdfed;
      }

      .cls-16 {
        fill: url(#_123-6);
      }

      .cls-17 {
        fill: url(#_123-10);
      }

      .cls-18 {
        fill: url(#_123-7);
      }

      .cls-19 {
        fill: url(#_123-4);
      }

      .cls-37 {
        fill: url(#_15-2);
      }

      .cls-38 {
        fill: url(#_21);
      }

      .cls-20 {
        fill: url(#linear-gradient-3);
      }

      .cls-39 {
        fill: #dc4c6a;
      }

      .cls-40 {
        clip-path: url(#clippath);
      }

      .cls-41 {
        fill: url(#_15);
      }

      .cls-42 {
        fill: url(#_97-4);
      }

      .cls-43 {
        fill: none;
      }

      .cls-44 {
        fill: url(#_97-3);
      }

      .cls-45 {
        fill: url(#_121-2);
      }

      .cls-46 {
        fill: url(#_21-2);
      }

      .cls-47 {
        fill: #ffcebe;
      }

      .cls-48 {
        fill: url(#_121);
      }

      .cls-49 {
        fill: url(#linear-gradient);
      }

      .cls-50 {
        fill: #ffd8ba;
        mix-blend-mode: soft-light;
      }

      .cls-51 {
        fill: url(#_97);
      }

      .cls-21 {
        fill: url(#_123);
      }

      .cls-52 {
        fill: url(#_307);
      }

      .cls-53 {
        fill: #f5a79c;
      }

      .cls-22 {
        fill: url(#_123-3);
      }
    </style>
    <linearGradient id="_97" data-name="  97" x1="94.11" y1="88.64" x2="122.72" y2="48.58" gradientUnits="userSpaceOnUse">
      <stop offset="0" stop-color="#c6544b"/>
      <stop offset="1" stop-color="#b53651"/>
    </linearGradient>
    <linearGradient id="_97-2" data-name="  97" x1="134.28" y1="117.33" x2="162.89" y2="77.27" xlink:href="#_97"/>
    <linearGradient id="_97-3" data-name="  97" x1="124.75" y1="110.53" x2="153.37" y2="70.47" xlink:href="#_97"/>
    <linearGradient id="linear-gradient" x1="109.31" y1="275.45" x2="109.31" y2="311.46" gradientUnits="userSpaceOnUse">
      <stop offset="0" stop-color="#63a1c6"/>
      <stop offset="1" stop-color="#543f8e"/>
    </linearGradient>
    <linearGradient id="linear-gradient-2" x1="36.62" y1="301.86" x2="56.62" y2="301.86" gradientUnits="userSpaceOnUse">
      <stop offset="0" stop-color="#61a5b0"/>
      <stop offset=".34" stop-color="#6fa6c9"/>
      <stop offset=".74" stop-color="#7ca8e0"/>
      <stop offset=".99" stop-color="#81a9e9"/>
    </linearGradient>
    <linearGradient id="linear-gradient-3" x1="62.21" y1="294.83" x2="102.44" y2="294.83" xlink:href="#linear-gradient-2"/>
    <linearGradient id="linear-gradient-4" x1="128.81" y1="292.23" x2="177.96" y2="292.23" xlink:href="#linear-gradient-2"/>
    <linearGradient id="linear-gradient-5" x1="72.9" y1="285.48" x2="81.62" y2="285.48" xlink:href="#linear-gradient-2"/>
    <linearGradient id="linear-gradient-6" x1="-5700.72" y1="285.85" x2="-5692.24" y2="285.85" gradientTransform="translate(-5551.58) rotate(-180) scale(1 -1)" xlink:href="#linear-gradient-2"/>
    <linearGradient id="_21" data-name="  21" x1="19.51" y1="194.53" x2="19.51" y2="139.64" gradientUnits="userSpaceOnUse">
      <stop offset="0" stop-color="#ffb29c"/>
      <stop offset=".22" stop-color="#ff9b8d"/>
      <stop offset=".48" stop-color="#ff8781"/>
      <stop offset=".74" stop-color="#ff7b79"/>
      <stop offset="1" stop-color="#f77"/>
    </linearGradient>
    <linearGradient id="_123" data-name="  123" x1="20.15" y1="183.9" x2="20.15" y2="147.81" gradientUnits="userSpaceOnUse">
      <stop offset="0" stop-color="#ffe9da"/>
      <stop offset=".99" stop-color="#d077f3"/>
    </linearGradient>
    <linearGradient id="_123-2" data-name="  123" x1="31.44" y1="181.85" x2="31.44" y2="166.34" xlink:href="#_123"/>
    <linearGradient id="_21-2" data-name="  21" x1="-6106.52" x2="-6106.52" y2="139.64" gradientTransform="translate(-5904.32) rotate(-180) scale(1 -1)" xlink:href="#_21"/>
    <linearGradient id="_123-3" data-name="  123" x1="-6105.88" x2="-6105.88" y2="147.81" gradientTransform="translate(-5904.32) rotate(-180) scale(1 -1)" xlink:href="#_123"/>
    <linearGradient id="_123-4" data-name="  123" x1="-6094.59" y1="181.85" x2="-6094.59" y2="166.34" gradientTransform="translate(-5904.32) rotate(-180) scale(1 -1)" xlink:href="#_123"/>
    <linearGradient id="_21-3" data-name="  21" x1="110.96" y1="290.2" x2="110.96" y2="236.8" xlink:href="#_21"/>
    <linearGradient id="_56" data-name="  56" x1="110.73" y1="247.62" x2="110.73" y2="49.68" gradientUnits="userSpaceOnUse">
      <stop offset="0" stop-color="#ffa995"/>
      <stop offset=".43" stop-color="#f8aa98"/>
      <stop offset=".54" stop-color="#faa28f"/>
      <stop offset=".77" stop-color="#fd9883"/>
      <stop offset="1" stop-color="#ff957f"/>
    </linearGradient>
    <linearGradient id="_5" data-name="  5" x1="110.73" y1="247.62" x2="110.73" y2="180.02" gradientUnits="userSpaceOnUse">
      <stop offset="0" stop-color="#d077f3"/>
      <stop offset=".16" stop-color="#d37ff1"/>
      <stop offset=".4" stop-color="#dd97eb"/>
      <stop offset=".7" stop-color="#ecbde3"/>
      <stop offset="1" stop-color="#ffe9da"/>
    </linearGradient>
    <linearGradient id="_307" data-name="  307" x1="110.73" y1="197.15" x2="110.73" y2="175.21" gradientUnits="userSpaceOnUse">
      <stop offset="0" stop-color="#f87a7e"/>
      <stop offset=".06" stop-color="#f87b7e"/>
      <stop offset=".53" stop-color="#fd877e"/>
      <stop offset="1" stop-color="#ff8c7f"/>
    </linearGradient>
    <linearGradient id="_123-5" data-name="  123" x1="97.1" y1="182.94" x2="99.61" y2="182.94" xlink:href="#_123"/>
    <linearGradient id="_123-6" data-name="  123" x1="-5546.74" y1="182.94" x2="-5544.24" y2="182.94" gradientTransform="translate(-5422.69) rotate(-180) scale(1 -1)" xlink:href="#_123"/>
    <linearGradient id="_300" data-name="  300" x1="-9553.17" y1="178.06" x2="-9553.17" y2="140.44" gradientTransform="translate(-9397.33) rotate(-180) scale(1 -1)" gradientUnits="userSpaceOnUse">
      <stop offset="0" stop-color="#ede1ff"/>
      <stop offset="1" stop-color="#bcc8fa"/>
    </linearGradient>
    <clipPath id="clippath">
      <path class="cls-43" d="M134.07,172.04s9.87,5.68,23.33,6.01c18.63,.45,19.51-12.79,20.19-21.08,.67-8.3-12.11-20.05-26.24-15.52-14.13,4.53-17.05,21.4-17.27,30.6Z"/>
    </clipPath>
    <linearGradient id="_14" data-name="  14" x1="-9553.51" y1="171.96" x2="-9553.51" y2="144.91" gradientTransform="translate(-9109.2 -2176.96) rotate(-166.8) scale(1 -1)" gradientUnits="userSpaceOnUse">
      <stop offset="0" stop-color="#a893e9"/>
      <stop offset="1" stop-color="#674498"/>
    </linearGradient>
    <linearGradient id="_15" data-name="  15" x1="-9553.51" y1="170.67" x2="-9553.51" y2="145.42" gradientTransform="translate(-3385.61 -8717.2) rotate(-112.7) scale(1 -1)" gradientUnits="userSpaceOnUse">
      <stop offset="0" stop-color="#b69bda"/>
      <stop offset=".96" stop-color="#3d3886"/>
    </linearGradient>
    <linearGradient id="_14-2" data-name="  14" y1="165.4" y2="148.42" gradientTransform="translate(-6488.22 -6709.39) rotate(-135) scale(1 -1)" xlink:href="#_14"/>
    <linearGradient id="_300-2" data-name="  300" x1="-813.46" x2="-813.46" y2="140.44" gradientTransform="translate(881.29)" xlink:href="#_300"/>
    <clipPath id="clippath-1">
      <path class="cls-43" d="M89.59,172.04s-9.87,5.68-23.33,6.01c-18.63,.45-19.51-12.79-20.19-21.08s12.11-20.05,26.24-15.52c14.13,4.53,17.05,21.4,17.27,30.6Z"/>
    </clipPath>
    <linearGradient id="_14-3" data-name="  14" x1="-813.8" x2="-813.8" y2="144.91" gradientTransform="translate(753.88 621.4) rotate(45)" xlink:href="#_14"/>
    <linearGradient id="_15-2" data-name="  15" x1="-813.8" x2="-813.8" y2="145.42" gradientTransform="translate(881.29)" xlink:href="#_15"/>
    <linearGradient id="_14-4" data-name="  14" x1="-813.8" y1="165.4" x2="-813.8" y2="148.42" gradientTransform="translate(881.29)" xlink:href="#_14"/>
    <linearGradient id="_121" data-name="  121" x1="66.03" y1="125.73" x2="76.53" y2="114.42" gradientUnits="userSpaceOnUse">
      <stop offset="0" stop-color="#91314b"/>
      <stop offset="1" stop-color="#992542"/>
    </linearGradient>
    <linearGradient id="_121-2" data-name="  121" x1="-7956.26" y1="125.73" x2="-7945.76" y2="114.42" gradientTransform="translate(-7799.91) rotate(-180) scale(1 -1)" xlink:href="#_121"/>
    <linearGradient id="_97-4" data-name="  97" x1="105.45" y1="227.61" x2="105.45" y2="53.78" xlink:href="#_97"/>
    <linearGradient id="_123-7" data-name="  123" x1="105.45" y1="174.68" x2="105.45" y2="25.88" xlink:href="#_123"/>
    <linearGradient id="_123-8" data-name="  123" x1="25.81" y1="171.59" x2="25.81" y2="120.81" xlink:href="#_123"/>
    <linearGradient id="_123-9" data-name="  123" x1="174.08" y1="100.73" x2="174.24" y2="100.73" xlink:href="#_123"/>
    <linearGradient id="_123-10" data-name="  123" x1="189.96" y1="171.59" x2="189.96" y2="120.81" xlink:href="#_123"/>
  </defs>
  <g class="cls-28">
    <g id="Layer_2" data-name="Layer 2">
      <g id="Avatar_face" data-name="Avatar face">
        <g>
          <g>
            <path class="cls-29" d="M50.99,218.89s-6.66,11.93,1.94,26.09c8.6,14.15,14.99,17.53,14.99,17.53,0,0-1.94-8.08-6.11-14.88,0,0,7.62,6.79,13.83,10.12,6.21,3.33,11.98,3.88,11.98,3.88l2.5-33.37-39.13-9.36Z"/>
            <path class="cls-29" d="M146.27,233.59s-2.13,14.15,0,23.87c0,0,24.04-20.83,23.91-35.81l-23.91,11.94Z"/>
            <path class="cls-51" d="M137.09,44.05s7.99-5.65,13.32-15.61c5.88-11,3.02-24.43,1.87-25.6-3.52-3.61-8.74-3.12-9.16-2.08-.42,1.04,4.79,15.61,3.12,23.1-1.67,7.49-7.28,16.86-9.16,20.19Z"/>
            <path class="cls-35" d="M137.09,46.34c1.25,0,35.66-9.78,58.76-3.75,23.1,6.04,23.51,9.1,23.73,9.92,.81,3.07,.69,12.14-.42,12.97s-25.25-12.05-48.15-15.81c-22.9-3.76-33.93-3.34-33.93-3.34Z"/>
            <path class="cls-44" d="M128.42,47.38c1.25-.62,28.58-16.1,51.52-20.61,15.54-3.06,28.92-1.87,31,0,2.08,1.87,6.04,9.99,5.41,13.53,0,0-6.8-3.05-28.84-3.89-25.39-.96-59.09,10.96-59.09,10.96Z"/>
          </g>
          <g>
            <g>
              <path class="cls-49" d="M114.13,275.45c-38.67,0-50.07,6.11-51.93,9.17,0,0-1.16,6.33-3.49,8.51,0,0-3.49,3.71-6.98,3.93-3.49,.22-6.98-2.84-9.3-1.75-2.33,1.09-5.81,7.42-5.81,7.42l-18.38,8.73H200.37s-31.4-11.79-38.61-18.01c0,0-5.81-7.31-3.72-11.24,0,0-4.77-6.76-43.9-6.77Z"/>
              <path class="cls-10" d="M56.62,308.41s-13.96,.44-20.01-5.68c0,0,3.49-6.33,5.82-7.42,0,0,.93,10.04,14.19,13.1Z"/>
              <path class="cls-20" d="M62.21,284.61c6.28,12.01,26.98,20.3,40.24,20.3,0,0-24.19,1.31-31.4-4.37-7.21-5.68-8.84-15.93-8.84-15.93Z"/>
              <path class="cls-12" d="M177.96,302.25c-8.77-2.28-19.76-5.52-19.76-5.52-9.82,5.02-19.43,5.52-29.39,5.11,10.46-3.03,20.77-5.33,29.23-19.63-2.09,3.93,3.72,11.24,3.72,11.24,2.82,2.43,9.32,5.71,16.2,8.8Z"/>
              <path class="cls-8" d="M81.62,281.12s-5.59-.42-8,2.64c-2.41,3.06,2.03,6.1,2.03,6.1,0,0,4.68-1.54,5.97-8.74Z"/>
              <path class="cls-11" d="M140.66,282.21s5.36-1.51,7.77,1.54c2.41,3.06-2.03,6.1-2.03,6.1,0,0-4.45-.44-5.74-7.65Z"/>
            </g>
            <g>
              <path class="cls-38" d="M39.02,156.92s-2.95-9.5-17.68-15.39c-14.73-5.89-20.3,2.95-21.28,12.77-.98,9.82,10.48,34.71,21.61,38.96,11.13,4.26,17.35-3.6,17.35-3.6v-32.74Z"/>
              <path class="cls-21" d="M39.02,173.92v9.98s-4.58-11.42-7.37-11.26c-2.78,.16-1.64,7.69-2.62,10.31-.98,2.62-4.91-.16-5.8-8.68-.88-8.51,4.98-8.42,4.98-8.42,0,0-6.49-15.21-14.51-10.79-8.02,4.42-3.39,24.67-3.39,24.67,0,0-11.04-19.22-8.73-26.3,2.31-7.08,9.17-7.58,20.3-.87,5.46,3.29,10.79,10.66,14.8,17.32,.84,1.39,1.62,2.76,2.34,4.04Z"/>
              <path class="cls-6" d="M39.02,173.01v6.8c-1.68-3.23-6.02-10.98-8.02-8.97-2.51,2.51-1.19,7.12-3.27,10.32-2.09,3.2-5.09-5.42-3.36-11.14,1.74-5.73,8.62-3.46,10.67-1.83,.49,.39,1.05,.98,1.65,1.69,.75,.9,1.56,1.99,2.34,3.13Z"/>
            </g>
            <g>
              <path class="cls-46" d="M182.69,156.92s2.95-9.5,17.68-15.39c14.73-5.89,20.3,2.95,21.28,12.77,.98,9.82-10.48,34.71-21.61,38.96-11.13,4.26-17.35-3.6-17.35-3.6v-32.74Z"/>
              <path class="cls-22" d="M182.69,173.92v9.98s4.58-11.42,7.37-11.26c2.78,.16,1.64,7.69,2.62,10.31,.98,2.62,4.91-.16,5.8-8.68,.88-8.51-4.98-8.42-4.98-8.42,0,0,6.49-15.21,14.51-10.79,8.02,4.42,3.39,24.67,3.39,24.67,0,0,11.04-19.22,8.73-26.3-2.31-7.08-9.17-7.58-20.3-.87-5.46,3.29-10.79,10.66-14.8,17.32-.84,1.39-1.62,2.76-2.34,4.04Z"/>
              <path class="cls-19" d="M182.69,173.01v6.8c1.68-3.23,6.02-10.98,8.02-8.97,2.51,2.51,1.18,7.12,3.27,10.32,2.09,3.2,5.09-5.42,3.36-11.14-1.74-5.73-8.62-3.46-10.67-1.83-.49,.39-1.05,.98-1.65,1.69-.75,.9-1.56,1.99-2.34,3.13Z"/>
            </g>
            <path class="cls-23" d="M140.06,278.32v-50.07l-29.11,3.48-29.11-3.48v50.07c0,8.69-6.21,11.54-6.21,11.54,0,0,5.88,8.43,35.31,8.43s35.31-8.43,35.31-8.43c0,0-6.21-2.85-6.21-11.54Z"/>
            <path class="cls-4" d="M140.06,228.25v38.86c-4.63,4.71-10.68,8.42-18.43,8.99-19.06,1.41-34.6-21.31-39.78-29.93v-17.93l29.11,3.48,29.11-3.48Z"/>
            <g>
              <path class="cls-25" d="M184.07,131.61c0-24.7,3.51-81.93-73.34-81.93S37.38,106.91,37.38,131.61s-7.53,63.62-.33,76.12c17.28,29.99,59.26,39.88,73.67,39.88s56.39-9.89,73.67-39.88c7.2-12.5-.33-50.31-.33-76.12Z"/>
              <path class="cls-5" d="M184.39,207.73c-17.28,29.99-59.26,39.89-73.67,39.89s-56.39-9.89-73.67-39.89c-2.5-4.34-3.23-20.37-3.11-27.71,.1,6.09,.94,21.07,3.11,24.83,17.28,29.99,59.26,39.88,73.67,39.88s56.39-9.89,73.67-39.88c2.17-3.76,3-18.75,3.11-24.83,.12,7.33-.61,23.36-3.11,27.71Z"/>
            </g>
          </g>
          <g>
            <path class="cls-52" d="M128.43,193.98c-1.11,.6-5.16-.71-9.1,1.03-3.93,1.75-5.65,2.14-8.6,2.14s-4.67-.39-8.6-2.14c-3.93-1.75-7.99-.44-9.1-1.03-1-.54-3-4.06,1.68-10.19,.5-.66,1.09-1.36,1.76-2.09,6.89-7.42,14.26-6.44,14.26-6.44,0,0,7.37-.98,14.26,6.44,.67,.73,1.26,1.42,1.76,2.09,4.67,6.13,2.67,9.66,1.68,10.19Z"/>
            <path class="cls-4" d="M128.43,193.98c-1.11,.6-5.16-.71-9.1,1.03-3.93,1.75-5.65,2.14-8.6,2.14s-4.67-.39-8.6-2.14c-3.93-1.75-7.99-.44-9.1-1.03-1-.54-3-4.06,1.68-10.19,0,0-.89,4.68,1.62,6.1,0,0,7.42,1.42,14.41,1.42s14.41-1.42,14.41-1.42c2.51-1.42,1.62-6.1,1.62-6.1,4.67,6.13,2.67,9.66,1.68,10.19Z"/>
            <path class="cls-7" d="M97.1,181.03c2-.13,2.24,5.15,2.24,5.15,0,0,.96-4.91-.79-6.48l-1.45,1.34Z"/>
            <path class="cls-16" d="M124.06,181.03c-2-.13-2.24,5.15-2.24,5.15,0,0-.96-4.91,.79-6.48l1.45,1.34Z"/>
            <path class="cls-24" d="M97.1,194.06s3.14-.63,7.32,1.83c0,0-3.59-.46-7.32-1.83Z"/>
            <path class="cls-24" d="M124.06,194.06s-3.14-.63-7.32,1.83c0,0,3.59-.46,7.32-1.83Z"/>
            <path class="cls-4" d="M93.03,193.98s1.28-2.23,4.04-3.96c0,0,5.32,1.28,13.66,1.28s14.41-1.42,14.41-1.42c0,0,2.82,1.86,3.29,4.1,0,0-6.9,9.19-17.7,9.19s-17.7-9.19-17.7-9.19Z"/>
            <path class="cls-47" d="M116.74,184.1c-.96,.6-.2,2.21,.45,2.21s1.88,0,1.8-1.11c-.08-1.11-1.07-1.84-2.25-1.11Z"/>
          </g>
          <g>
            <path class="cls-1" d="M134.07,172.04s9.87,5.68,23.33,6.01c18.74,.45,19.51-12.79,20.19-21.08,.67-8.3-12.11-20.05-26.24-15.52-14.13,4.53-17.05,21.4-17.27,30.6Z"/>
            <g class="cls-40">
              <circle class="cls-31" cx="156.17" cy="156.91" r="14.81" transform="translate(-31.7 39.8) rotate(-13.2)"/>
              <circle class="cls-41" cx="156.17" cy="156.91" r="13.63" transform="translate(-48.85 240.44) rotate(-67.3)"/>
              <circle class="cls-15" cx="156.17" cy="156.91" r="8.49" transform="translate(-65.21 156.39) rotate(-45)"/>
            </g>
            <path class="cls-39" d="M175.4,149.84c.23,.14-.19-12.06-16.59-12.06-15.31,0-19.6,14.47-19.6,14.47,0,0,13.38-15.98,36.19-2.41Z"/>
            <path class="cls-4" d="M134.73,164.43s6.85-11.29,19.47-13.72c12.62-2.43,23.41,5.47,23.41,5.47,0,0-.02-13.98-20.21-14.73-20.19-.74-22.66,22.98-22.66,22.98Z"/>
            <path class="cls-24" d="M176.87,152.65s.06-5.13-1.45-6.69c-9.5-9.76-37.87-9.72-40.68,18.47,0,0,6.18-24.88,30.65-17.39,7.81,2.39,11.48,5.61,11.48,5.61Z"/>
            <path class="cls-27" d="M134.43,166.76s-1.5,2.02-1.5,5.33c0,1.3,3.09,2.4,6.28,2.28,0,0-3.95-1.77-4.35-2.67-.79-1.76-.42-4.94-.42-4.94Z"/>
            <path class="cls-2" d="M173.17,157.99s-2.24-2.02-8.52,0c0,0,2.8,1.91,8.52,0Z"/>
            <path class="cls-2" d="M161.77,157.09s1.05,1.58,0,1.74c-1.05,.16-2.46-.56-2.43-.87s2.1-1.49,2.43-.87Z"/>
            <path class="cls-27" d="M142.42,175.5s17.09,3.57,27.03,0c0,0-5.09,4.4-14.62,3.16-9.53-1.23-12.41-3.16-12.41-3.16Z"/>
          </g>
          <g>
            <path class="cls-3" d="M89.59,172.04s-9.87,5.68-23.33,6.01c-18.74,.45-19.51-12.79-20.19-21.08s12.11-20.05,26.24-15.52c14.13,4.53,17.05,21.4,17.27,30.6Z"/>
            <g class="cls-34">
              <circle class="cls-33" cx="67.49" cy="156.91" r="14.81" transform="translate(-91.19 93.68) rotate(-45)"/>
              <path class="cls-37" d="M67.49,170.54c-7.51,0-13.63-6.11-13.63-13.63s6.11-13.63,13.63-13.63,13.63,6.11,13.63,13.63-6.11,13.63-13.63,13.63Z"/>
              <path class="cls-13" d="M67.49,165.4c-4.68,0-8.49-3.81-8.49-8.49s3.81-8.49,8.49-8.49,8.49,3.81,8.49,8.49-3.81,8.49-8.49,8.49Z"/>
            </g>
            <path class="cls-39" d="M48.26,149.84c-.23,.14,.19-12.06,16.59-12.06,15.31,0,19.6,14.47,19.6,14.47,0,0-13.38-15.98-36.19-2.41Z"/>
            <path class="cls-4" d="M88.93,164.43s-6.85-11.29-19.47-13.72c-12.62-2.43-23.41,5.47-23.41,5.47,0,0,.02-13.98,20.21-14.73,20.19-.74,22.66,22.98,22.66,22.98Z"/>
            <path class="cls-24" d="M46.79,152.65s-.06-5.13,1.45-6.69c9.5-9.76,37.87-9.72,40.68,18.47,0,0-6.18-24.88-30.65-17.39-7.81,2.39-11.48,5.61-11.48,5.61Z"/>
            <path class="cls-27" d="M89.23,166.76s1.5,2.02,1.5,5.33c0,1.3-3.09,2.4-6.28,2.28,0,0,3.95-1.77,4.35-2.67,.79-1.76,.42-4.94,.42-4.94Z"/>
            <path class="cls-2" d="M50.49,157.99s2.24-2.02,8.52,0c0,0-2.8,1.91-8.52,0Z"/>
            <path class="cls-2" d="M61.89,157.09s-1.05,1.58,0,1.74c1.05,.16,2.46-.56,2.43-.87-.03-.31-2.1-1.49-2.43-.87Z"/>
            <path class="cls-27" d="M81.24,175.5s-17.09,3.57-27.03,0c0,0,5.09,4.4,14.62,3.16,9.53-1.23,12.41-3.16,12.41-3.16Z"/>
          </g>
          <g>
            <path class="cls-4" d="M90.1,221.47s6.25,14.02,21.99,14.02c12.78,0,20.25-14.02,20.25-14.02,0,0-19.01,7.56-42.24,0Z"/>
            <path class="cls-32" d="M83.92,208.26s13.74,3.11,27.4,3.11,26.86-3.11,26.86-3.11c0,0-15.26,20.87-28.07,20.87s-26.19-20.87-26.19-20.87Z"/>
            <path class="cls-30" d="M111.05,209.15c-3.56,0-27.13-.9-27.13-.9,6.67,3.92,18.24,6.23,27.13,6.23s20.47-2.31,27.13-6.23c0,0-23.58,.9-27.13,.9Z"/>
            <path class="cls-26" d="M83.92,208.26s11.59,14.53,27.13,14.53,27.13-14.53,27.13-14.53c0,0-1.87,21.71-26.86,21.71s-27.4-21.71-27.4-21.71Z"/>
            <path class="cls-36" d="M88.87,210.57s.91,1.61,2.74,3.91c0,0,8.28,5.59,20.48,5.59,9.38,0,19.33-5.97,19.33-5.97l1.82-3.54s-21.14,8.37-44.37,0Z"/>
            <path class="cls-32" d="M85,208.85s-2.47-1.11-3.08-3.1c0,0,.35-.61,.86-1.47,0,0-2.33-.09-2.59,2.68,0,0,3.04,1.79,4.81,2.54v-.64Z"/>
            <path class="cls-32" d="M136.92,208.85s2.47-1.11,3.08-3.1c0,0-.35-.61-.86-1.47,0,0,2.33-.09,2.59,2.68,0,0-3.04,1.79-4.81,2.54v-.64Z"/>
            <path class="cls-53" d="M121.13,223.11s-1.85,2.78,.76,5.27c0,0,5.22-1.62,9.39-5.76,0,0,.04-2.49-1.45-3.24,0,0-3.28,.79-8.7,3.73Z"/>
          </g>
          <g>
            <g>
              <path class="cls-48" d="M89.98,123.85s-5.23,.5-12,1.21h0c-8.99,.95-20.68,2.29-26.37,3.37,0,0-4.58,1.62-7.4,4.17,0,0-1.48-7.52,4.57-11.9-.03,.08-.54,1.31-.54,2.48,0,0,.94-2.69,6.19-4.98,.87-.38,2.29-.86,4.05-1.38,8.86-2.67,26.38-6.69,26.38-6.69,0,0,1.88,1.88,.94,5.39-.85,3.17-2.04,4.86-2.25,5.15,.33-.42,2.91-3.72,4.04-6.49,1.21-2.96,.77-4.31,.77-4.31,0,0,1.62-1.48,3.23-.94,0,0,3.64,7.81-1.62,14.94Z"/>
              <path class="cls-4" d="M77.99,125.06c-8.99,.95-20.68,2.29-26.37,3.37,0,0-4.58,1.62-7.4,4.17,0,0-1.48-7.52,4.57-11.9-.03,.08-.54,1.31-.54,2.48,0,0,.94-2.69,6.19-4.98,.87-.38,2.29-.86,4.05-1.38-2.52,1.99-5.11,4.68-7.15,8.25,0,0,10.6-3.1,26.64,0Z"/>
            </g>
            <g>
              <path class="cls-45" d="M132.4,123.85s5.23,.5,12,1.21h0c8.99,.95,20.68,2.29,26.37,3.37,0,0,4.58,1.62,7.4,4.17,0,0,1.48-7.52-4.57-11.9,.03,.08,.54,1.31,.54,2.48,0,0-.94-2.69-6.19-4.98-.87-.38-2.29-.86-4.05-1.38-8.86-2.67-26.38-6.69-26.38-6.69,0,0-1.88,1.88-.94,5.39,.85,3.17,2.04,4.86,2.25,5.15-.33-.42-2.91-3.72-4.04-6.49-1.21-2.96-.77-4.31-.77-4.31,0,0-1.62-1.48-3.23-.94,0,0-3.64,7.81,1.62,14.94Z"/>
              <path class="cls-4" d="M144.4,125.06c8.99,.95,20.68,2.29,26.37,3.37,0,0,4.58,1.62,7.4,4.17,0,0,1.48-7.52-4.57-11.9,.03,.08,.54,1.31,.54,2.48,0,0-.94-2.69-6.19-4.98-.87-.38-2.29-.86-4.05-1.38,2.52,1.99,5.11,4.68,7.15,8.25,0,0-10.6-3.1-26.64,0Z"/>
            </g>
          </g>
          <g>
            <path class="cls-42" d="M209.46,110.65c-1.95,12.21-9.44,20.26-9.44,20.26-2.21,8.33-14.64,24.78-14.64,24.78-4.32-11.05-11.17-56.81-11.17-56.81,.28,3.88-1.81,15.47-2.5,19.27-1.38,7.77-3.88,10.55-3.88,10.55,0,0,2.98-32.4-7.49-44.07-10.99-12.23-22.2-30.35-22.2-30.35,0,0-2.23,5.59-4.45,8.36-2.22,2.78-17.77,12.77-39.13,21.99-21.37,9.22-48.01,14.25-48.01,14.25,0,0,0,8.17-2.22,19.54-2.21,11.38-8.26,37.27-8.26,37.27-2.71-6.03-14.73-14.15-14.73-14.15,0,0-20.58-13.67-20.07-21.97,.51-8.29,13.65-32.24,13.65-32.24-3.18-7.96-1.04-12.85,16.46-31.77,.02-.02,.02-.03,.03-.04,.02-.02,.02-.03,.02-.03,.8-.87,1.64-1.77,2.51-2.69C49.18,36.49,85.27,15.28,107.98,10.65c0,0,.02,0,.02,0,6.86-1.4,12.5-1.28,15.98,.94,14.99,9.57,14.15,31.67,14.15,31.67,12.49-3.02,29.7,10.23,44.56,21.06,3.01,2.19,5.97,4.9,8.78,7.92,11.04,11.89,19.54,28.69,17.99,38.43Z"/>
            <path class="cls-18" d="M209.46,110.65c-1.95,12.21-9.44,20.26-9.44,20.26-2.21,8.33-14.64,24.78-14.64,24.78-4.32-11.05-11.17-56.81-11.17-56.81,.07,.89,0,2.17-.13,3.69-.47,5.09-1.84,12.65-2.36,15.58-1.38,7.77-3.88,10.55-3.88,10.55,0,0,2.98-32.4-7.49-44.07-10.99-12.23-22.2-30.35-22.2-30.35,0,0-2.23,5.59-4.45,8.36-2.22,2.78-17.77,12.77-39.13,21.99-21.37,9.22-48.01,14.25-48.01,14.25,0,0,0,8.17-2.22,19.54-2.21,11.38-8.26,37.27-8.26,37.27-.77-1.71-2.27-3.57-4.05-5.38-4.5-4.6-10.68-8.78-10.68-8.78,0,0-20.58-13.67-20.07-21.97,.51-8.29,13.65-32.24,13.65-32.24-3.18-7.96-1.04-12.85,16.46-31.77-.77,1.11-9.01,13.15-9.8,21.02,0,0,16.65-11.44,42.19-18.93,0,0-39.41,22.76-49.4,47.46,0,0,70.44-20.54,105.73-45.75,4.72-3.37,13.25-12.8,13.25-12.8,0,0-24.08-4.11-31.85-4.7-7.52-.56-26.38,7.3-27.59,7.8,1.27-.74,21.65-12.55,31.54-13.1,10.21-.56,20.47,1.11,20.47,1.11,0,0-16.37-10.13-22.48-12.15-6.1-2.01-37.46,10.76-57.45,21.86,0,0,26.83-26.84,61.98-36.73,0,0,.02,0,.02,0,6.86-1.4,12.5-1.28,15.98,.94,14.99,9.57,14.15,31.67,14.15,31.67,0,0,14.69,5.51,24.67,19.08-.76-.71-12.93-12.19-21.06-14.68,0,0,11.66,25.26,24.98,36.92,13.32,11.66,29.42,21.65,29.42,21.65,0,0,2.06-19.18-4.67-33.99,6.59,7.09,12.26,15.92,15.44,23.96,2.16,5.45,3.17,10.53,2.55,14.47Z"/>
            <path class="cls-50" d="M85.96,49.68s-13.04,6.08-29.42,18.54c0,0,12.77-.31,16.93,5.24,4.16,5.55,4.16,6.66,4.16,6.66,0,0,23.76-8.98,30.73-13.26,0,0-21.57-4.89-22.4-17.19Z"/>
            <path class="cls-50" d="M50.72,57.93s23.59-11.1,36.35-17.48c0,0-5.57-3.65-4.62-6.94,.95-3.29-1.21,0-1.21,0,0,0-17.21,14.87-35.52,16.18,0,0-2.69,5.2,5,8.24Z"/>
            <path class="cls-50" d="M171.44,57.93s0,7.77-11.93,13.32c0,0,1.66,7.47,13.88,16.08,0,0,2.74-12.75,14.13-15.8,0,0-5.25-8.88-16.08-13.6Z"/>
            <path class="cls-14" d="M46.55,98.88s0,8.17-2.22,19.54c-2.21,11.38-8.26,37.27-8.26,37.27-.77-1.71-2.27-3.57-4.05-5.38-9.07-14.84-28.8-26.55-26.82-30.75,2.35-4.99,26.64-16.96,41.35-20.68Z"/>
            <path class="cls-9" d="M174.08,102.57c.07-2.24,.13-3.69,.13-3.69,.07,.89,0,2.17-.13,3.69Z"/>
            <path class="cls-17" d="M209.46,110.65c-1.95,12.21-9.44,20.26-9.44,20.26-2.21,8.33-14.64,24.78-14.64,24.78-4.32-11.05-11.17-56.81-11.17-56.81-.99-4.36-3.43-7.49-3.93-8.1,1.32,1.46,15.74,17.14,27.58,23.76,0,0,9.56-7.3,9.05-18.36,2.16,5.45,3.17,10.53,2.55,14.47Z"/>
          </g>
        </g>
      </g>
    </g>
  </g>
</svg>