<?xml version="1.0" encoding="UTF-8"?>
<svg xmlns="http://www.w3.org/2000/svg" xmlns:xlink="http://www.w3.org/1999/xlink" viewBox="0 0 94.29 104.04">
  <defs>
    <style>
      .cls-1 {
        fill: #ffd4e0;
        mix-blend-mode: soft-light;
      }

      .cls-2 {
        fill: url(#_Áåçûìÿííûé_ãðàäèåíò_69);
      }

      .cls-3 {
        fill: url(#_Áåçûìÿííûé_ãðàäèåíò_31);
      }

      .cls-3, .cls-4, .cls-5, .cls-6, .cls-7, .cls-8, .cls-9, .cls-10 {
        mix-blend-mode: multiply;
      }

      .cls-3, .cls-4, .cls-6, .cls-7, .cls-8, .cls-9, .cls-10 {
        opacity: .6;
      }

      .cls-4 {
        fill: url(#_Áåçûìÿííûé_ãðàäèåíò_123-5);
      }

      .cls-5 {
        opacity: .9;
      }

      .cls-5, .cls-10 {
        fill: #d177b8;
      }

      .cls-11 {
        fill: url(#_Áåçûìÿííûé_ãðàäèåíò_21);
      }

      .cls-12 {
        isolation: isolate;
      }

      .cls-13 {
        fill: #dd6b7c;
      }

      .cls-14 {
        fill: url(#_Áåçûìÿííûé_ãðàäèåíò_56);
      }

      .cls-6 {
        fill: url(#_Áåçûìÿííûé_ãðàäèåíò_123);
      }

      .cls-7 {
        fill: url(#_Áåçûìÿííûé_ãðàäèåíò_123-3);
      }

      .cls-8 {
        fill: url(#_Áåçûìÿííûé_ãðàäèåíò_123-4);
      }

      .cls-15 {
        fill: url(#_Áåçûìÿííûé_ãðàäèåíò_21-2);
      }

      .cls-16 {
        fill: url(#_Áåçûìÿííûé_ãðàäèåíò_30);
      }

      .cls-9 {
        fill: url(#_Áåçûìÿííûé_ãðàäèåíò_123-2);
      }

      .cls-17 {
        fill: url(#_Áåçûìÿííûé_ãðàäèåíò_21-3);
      }
    </style>
    <linearGradient id="_Áåçûìÿííûé_ãðàäèåíò_21" data-name="Áåçûìÿííûé ãðàäèåíò 21" x1="47.21" y1="104.04" x2="47.21" y2="77.12" gradientUnits="userSpaceOnUse">
      <stop offset="0" stop-color="#ffb39d"/>
      <stop offset=".23" stop-color="#ff9b8d"/>
      <stop offset=".48" stop-color="#ff8781"/>
      <stop offset=".74" stop-color="#ff7b79"/>
      <stop offset="1" stop-color="#f77"/>
    </linearGradient>
    <linearGradient id="_Áåçûìÿííûé_ãðàäèåíò_30" data-name="Áåçûìÿííûé ãðàäèåíò 30" x1="47.07" y1="104.04" x2="47.07" y2="94.15" gradientUnits="userSpaceOnUse">
      <stop offset="0" stop-color="#ffaed8"/>
      <stop offset="1" stop-color="#ffc5e0"/>
    </linearGradient>
    <linearGradient id="_Áåçûìÿííûé_ãðàäèåíò_31" data-name="Áåçûìÿííûé ãðàäèåíò 31" x1="29.61" y1="99.51" x2="43.04" y2="99.51" gradientUnits="userSpaceOnUse">
      <stop offset="0" stop-color="#d177f4"/>
      <stop offset="1" stop-color="#ffeadb"/>
    </linearGradient>
    <linearGradient id="_Áåçûìÿííûé_ãðàäèåíò_123" data-name="Áåçûìÿííûé ãðàäèåíò 123" x1="55.54" y1="99.46" x2="64.08" y2="99.46" gradientUnits="userSpaceOnUse">
      <stop offset="0" stop-color="#ffeadb"/>
      <stop offset=".99" stop-color="#d177f4"/>
    </linearGradient>
    <linearGradient id="_Áåçûìÿííûé_ãðàäèåíò_21-2" data-name="Áåçûìÿííûé ãðàäèåíò 21" x1="80.92" y1="59.63" x2="80.92" y2="36.14" xlink:href="#_Áåçûìÿííûé_ãðàäèåíò_21"/>
    <linearGradient id="_Áåçûìÿííûé_ãðàäèåíò_123-2" data-name="Áåçûìÿííûé ãðàäèåíò 123" x1="80.93" y1="55.61" x2="80.93" y2="40.3" xlink:href="#_Áåçûìÿííûé_ãðàäèåíò_123"/>
    <linearGradient id="_Áåçûìÿííûé_ãðàäèåíò_123-3" data-name="Áåçûìÿííûé ãðàäèåíò 123" x1="78.17" y1="53.85" x2="78.17" y2="46.34" xlink:href="#_Áåçûìÿííûé_ãðàäèåíò_123"/>
    <linearGradient id="_Áåçûìÿííûé_ãðàäèåíò_21-3" data-name="Áåçûìÿííûé ãðàäèåíò 21" x1="-506.29" y1="59.63" x2="-506.29" y2="36.14" gradientTransform="translate(-493.88) rotate(-180) scale(1 -1)" xlink:href="#_Áåçûìÿííûé_ãðàäèåíò_21"/>
    <linearGradient id="_Áåçûìÿííûé_ãðàäèåíò_123-4" data-name="Áåçûìÿííûé ãðàäèåíò 123" x1="-506.28" y1="55.61" x2="-506.28" y2="40.3" gradientTransform="translate(-493.88) rotate(-180) scale(1 -1)" xlink:href="#_Áåçûìÿííûé_ãðàäèåíò_123"/>
    <linearGradient id="_Áåçûìÿííûé_ãðàäèåíò_123-5" data-name="Áåçûìÿííûé ãðàäèåíò 123" x1="-509.04" y1="53.85" x2="-509.04" y2="46.34" gradientTransform="translate(-493.88) rotate(-180) scale(1 -1)" xlink:href="#_Áåçûìÿííûé_ãðàäèåíò_123"/>
    <linearGradient id="_Áåçûìÿííûé_ãðàäèåíò_56" data-name="Áåçûìÿííûé ãðàäèåíò 56" x1="46.65" y1="80.3" x2="46.65" y2="2.64" gradientUnits="userSpaceOnUse">
      <stop offset="0" stop-color="#ffaa96"/>
      <stop offset=".43" stop-color="#f9ab99"/>
      <stop offset=".55" stop-color="#fba28f"/>
      <stop offset=".78" stop-color="#fe9983"/>
      <stop offset="1" stop-color="#ff967f"/>
    </linearGradient>
    <linearGradient id="_Áåçûìÿííûé_ãðàäèåíò_69" data-name="Áåçûìÿííûé ãðàäèåíò 69" x1="47.15" y1="79.51" x2="47.15" y2="0" gradientUnits="userSpaceOnUse">
      <stop offset="0" stop-color="#471f4b"/>
      <stop offset="1" stop-color="#310a39"/>
    </linearGradient>
  </defs>
  <g class="cls-12">
    <g id="Layer_2" data-name="Layer 2">
      <g id="layer1">
        <g>
          <g>
            <g>
              <path class="cls-11" d="M59.13,94.84c-.44-2.82,0-17.72,0-17.72l-11.92,.78-11.92-.78s.44,14.9,0,17.72c0,0-6.73,7.18-18.21,9.2h60.26c-11.48-2.02-18.21-9.2-18.21-9.2Z"/>
              <path class="cls-10" d="M35.46,85.57s10.41,8.98,23.48,5.22l.19-13.66s-6.89,4.92-23.83,.67l.15,7.77Z"/>
              <path class="cls-16" d="M78.98,104.04H15.16s11.08-3.47,13.1-5.29c.49-.43,.94-.92,1.35-1.41,.72-.85,1.32-1.71,1.74-2.32l.03-.04c.33-.49,.54-.8,.59-.83,.16-.07,3.14,.64,3.32,.69h0s-1.49,1.38-1.49,1.38c0,0,3.44,5.16,13.43,5.16,6.67,0,10.25-2.42,11.9-4.03h0c.82-.8,1.16-1.41,1.16-1.41l-1.16-1.09,3.36-.69s.14,.78,.57,1.77c.24,.57,.57,1.2,1.01,1.8,.37,.51,.83,.98,1.38,1.37,2.34,1.64,13.53,4.95,13.53,4.95Z"/>
              <path class="cls-10" d="M62.5,94.15l-3.36,3.19h0c.82-.8,1.16-1.41,1.16-1.41l-1.16-1.09,3.36-.69Z"/>
              <path class="cls-10" d="M35.29,94.85l-1.49,1.37-1.84-2.06c.16-.07,3.14,.64,3.32,.69h0Z"/>
              <path class="cls-3" d="M31.38,94.99s-.33,2.97,3.91,6.26c3.22,2.5,7.75,2.8,7.75,2.8,0,0-8.05-.19-13.43-6.69l1.77-2.36Z"/>
              <path class="cls-6" d="M63.06,95.92s-2.43,5.01-7.53,7.07c0,0,6.49-1.3,8.54-5.27l-1.01-1.8Z"/>
            </g>
            <g>
              <g>
                <path class="cls-15" d="M86.31,46.94c-.16,.77-.34,1.46-.53,2.08,0,.01,0,.02-.01,.03-1.36,4.41-3.44,5.44-4.27,7.43-.72,1.72-3.56,5.17-6.37,1.58,0,0-.01-.01-.01-.01,0,0,1.33-14.59,2.41-17.24,0,0,1.55-3.98,4.34-4.58,3.58-.77,5.84,3.94,4.45,10.72Z"/>
                <path class="cls-9" d="M76.09,49s5.61-8.14,8.29-8.67c2.68-.53,1.34,6.37,.8,8.67-.54,2.3-1.35,3.66-1.35,3.66,0,0,.68-2.72,.81-4.91,.19-3.16-.81-5.87-1.94-5.61-1.13,.26-2.64,4.23-2.74,4.68-.1,.45,.75,1.26,.7,3.71-.05,2.45-1.22,5.12-1.86,5.08-.64-.03-.36-2.02-.36-4.31s-1.79-1.85-2.58-.36l.23-1.94Z"/>
                <path class="cls-7" d="M75.86,50.94s1.44-2.18,2.31-1.19,.24,3.74,.91,4.07c.66,.33,1.55-1.89,1.38-3.92s-.98-3.85-2.12-3.51l-2.23,2.61-.23,1.94Z"/>
                <path class="cls-13" d="M85.77,49.05c-1.36,4.41-3.44,5.44-4.27,7.43-.72,1.72-3.56,5.17-6.37,1.58,.17,.14,1.79,1.46,3.44,.86,1.74-.63,2.29-2.26,3.03-3.51,.73-1.26,2.62-2.12,4.17-6.36Z"/>
              </g>
              <g>
                <path class="cls-17" d="M7.01,46.94c.16,.77,.34,1.46,.53,2.08,0,.01,0,.02,.01,.03,1.36,4.41,3.44,5.44,4.27,7.43,.72,1.72,3.56,5.17,6.37,1.58,0,0,.01-.01,.01-.01,0,0-1.33-14.59-2.41-17.24,0,0-1.55-3.98-4.34-4.58-3.58-.77-5.84,3.94-4.45,10.72Z"/>
                <path class="cls-8" d="M17.23,49s-5.61-8.14-8.29-8.67c-2.68-.53-1.34,6.37-.8,8.67,.54,2.3,1.35,3.66,1.35,3.66,0,0-.68-2.72-.81-4.91-.19-3.16,.81-5.87,1.94-5.61,1.13,.26,2.64,4.23,2.74,4.68,.1,.45-.75,1.26-.7,3.71,.05,2.45,1.22,5.12,1.86,5.08,.64-.03,.36-2.02,.36-4.31s1.79-1.85,2.58-.36l-.23-1.94Z"/>
                <path class="cls-4" d="M17.46,50.94s-1.44-2.18-2.31-1.19c-.86,.99-.24,3.74-.91,4.07-.66,.33-1.55-1.89-1.38-3.92s.98-3.85,2.12-3.51l2.23,2.61,.23,1.94Z"/>
                <path class="cls-13" d="M7.55,49.05c1.36,4.41,3.44,5.44,4.27,7.43,.72,1.72,3.56,5.17,6.37,1.58-.17,.14-1.79,1.46-3.44,.86-1.74-.63-2.29-2.26-3.03-3.51-.73-1.26-2.62-2.12-4.17-6.36Z"/>
              </g>
              <path class="cls-14" d="M76.39,52.87c-.01,.07-.04,.2-.07,.38-.72,3.93-1.47,7.21-2.09,9.2-2.43,7.74-14.89,17.86-27.57,17.86s-25.15-10.11-27.57-17.86c-.29-.91-.6-2.1-.92-3.5-1.14-4.9-2.43-12.4-3.18-19.74h0c-.86-8.33-1.03-16.44,.47-20.33,1.05-2.72,3.67-5.88,7.5-8.69h0c5.66-4.17,13.96-7.55,23.71-7.55,16.32,0,28.59,9.49,31.21,16.24,2.35,6.09,.59,22.6-1.47,33.99Z"/>
              <path class="cls-10" d="M76.31,53.24c-.72,3.93-1.47,7.21-2.09,9.2-2.43,7.74-14.89,17.86-27.57,17.86s-25.15-10.11-27.57-17.86c-.29-.91-.6-2.1-.92-3.5l.04-.88s.48,4.57,4.35,9.71c3.87,5.13,14.16,11.29,24.12,11.29s20.73-7.49,24.33-11.81c3.15-3.78,4.93-12,5.33-14Z"/>
            </g>
          </g>
          <g>
            <path class="cls-2" d="M94.26,53.25c-.05,.5-.22,1.08-.48,1.72-.49,1.2-1.29,2.59-2.22,4-2.73,4.13-6.6,8.45-6.89,8.76,.05-.15,.58-1.52,.44-2.44l-2.05,2.47-.02,.02c-1.66,1.99-3.76,4.45-4.05,4.58-.5,.23-5.42,2.31-5.42,2.31,0,0-2.23,2.83-4.61,4.84h-1.56s9.3-15.1,8.93-27.54c-.37-12.42-3.73-29.8-5.72-35.11,.09,.31,.75,2.95,.82,6.37l-11.1-.82s1.12-9.08-1.19-12.66c0,0,1.12,8.04,.53,12.8l-8.34-1.19s.12-12.6-2.78-16.62l-2.28,.64s-4.2,6.68-3.8,17.59l-5.26,.79s-.4-7.94,2.48-14.79c0,0,0,0-.02,.02,0,.02-.03,.05-.04,.07-.17,.31-.81,1.42-1.55,3.06-.02,.02-.02,.05-.02,.07-1.34,2.97-3,7.62-2.94,12.27h-7.84l-.4-5.12-.64,5.12-2.43,.35s-1.31,13.38-3.08,23.13c-1.73,9.56,2.65,27.89,6.75,31.36,.09,.07,.16,.14,.25,.2h-3.36s-1.58-.86-3.43-2.34c-.03-.02-.05-.03-.08-.06-.34-.28-.69-.57-1.05-.88-.02-.02-.04-.04-.06-.06-.99-.9-1.99-1.94-2.81-3.1-.8-1.14-1.44-2.4-1.73-3.73,.15,.83,.83,4.45,2.27,7.8,0,0-4.27-5.63-6.21-8.34-1.08-1.52-4.88-4.85-7.84-9.82v-.02c-.56-.91-1.07-1.87-1.53-2.89-.83-1.82-1.49-3.8-1.88-5.96,0,0,6.41-11.91,10.59-21.51,1.76-4.06,3.07-8.53,4.61-12.66,.02-.04,.02-.08,.04-.12,.04-.1,.07-.2,.12-.31,.17-.46,.35-.9,.53-1.35,.15-.36,.3-.72,.46-1.06,.33-.81,.68-1.6,1.07-2.36,.13-.25,.25-.5,.39-.74,.05-.1,.09-.18,.12-.24,0-.02,0-.02,.02-.04h0s0-.02,0-.02h0s0-.02,0-.02c1.63-2.98,3.66-5.46,6.48-7.04C28.83,.16,32.88-.2,36.54,.09c.14,0,.28,.02,.41,.03,4.04,.39,7.59,1.53,10.59,1.48,1.98-.04,5.04-.27,8.41-.38h.02c3.1-.1,6.46-.11,9.51,.22,.02,0,.05,.02,.07,.02,3.36,.36,6.36,1.13,8.16,2.61,1.44,1.18,2.69,2.69,3.8,4.42,.02,.02,.02,.02,.02,.04,1.15,1.81,2.15,3.85,3.02,6,0,0,0,.02,.02,.04,3.18,7.81,4.83,17.05,6.77,21.56,2.98,6.96,7.37,12.73,6.92,17.11Z"/>
            <path class="cls-5" d="M39.65,9s-.03,.05-.04,.07c-.57,.79-1.08,1.86-1.55,3.06-.02,.02-.02,.05-.02,.07-1.34,2.97-3,7.62-2.94,12.27-3.48-9.19,4.16-15.17,4.55-15.47Z"/>
            <path class="cls-5" d="M15.16,65.36c.83,5.73,2.72,8.97,4.57,10.81-.99-.9-1.99-1.94-2.81-3.1-.62-1.16-1.22-2.46-1.76-3.91-3.76-10.1-2.49-17,1.28-30.8,3.77-13.8,.24-22.14,4.61-30.07C24.57,1.88,33.3,.42,36.54,.09c.78-.08,1.24-.09,1.24-.09,0,0-.31,.03-.83,.13-2.51,.43-10.12,2.16-14.25,7.57-5.01,6.55-2.98,17.27-3.77,24.91-.79,7.65-5.66,19.65-3.76,32.76Z"/>
            <path class="cls-5" d="M43.31,1.32c-.64,.23-10.92,3.88-15.06,9.65-4.27,5.96-4.46,13.85-4.46,13.85,0,0-1.31,13.38-3.08,23.13-1.73,9.56,2.65,27.89,6.75,31.36l-.15,.2h-2.95s-1.58-.86-3.43-2.34c1.93,1.38,3.56,1.4,3.56,1.4,0,0-8.53-16.38-4.86-32.23,3.67-15.84,1.29-28.42,7.05-35.47C32.24,4.04,42.66,1.48,43.31,1.32Z"/>
            <path class="cls-5" d="M3.41,58.97s-2.75-5.96,5.49-17.3c8.24-11.34,6.07-27.72,9.06-31.98,0,0-1.67,3.2-2.71,6.13-1.05,2.93-1.02,13.66-4.78,21.41-3.76,7.75-7.91,9.82-8.58,18.83l1.53,2.91Z"/>
            <path class="cls-5" d="M51.18,1.44s14.59,3.37,19.41,15.38c0,0-3.32-13.89-19.41-15.38Z"/>
            <path class="cls-5" d="M55.95,1.23s15.22,1.96,19.17,16.45c3.95,14.49,3.81,26.13,7.45,35.57,3.65,9.44,.47,14.53,.47,14.53l2.06-2.49s2.68-4.7-2.16-15.19c-4.84-10.49-4.01-28.01-7.81-35.56-3.8-7.54-12.66-12.53-16.9-13.31h-2.28Z"/>
            <path class="cls-5" d="M65.47,1.44s11.07,2.5,14.49,13.22c3.42,10.72,1.19,19.73,6.48,28.89s5.12,15.42,5.12,15.42l2.22-4s-1.02-2.01-7.3-12.31c-4.28-7.02-3.65-22.26-6.44-29.7-2.79-7.44-9.78-10.29-14.57-11.51Z"/>
            <path class="cls-1" d="M74.55,4.82s.59,1.04,0,2.08c-.59,1.04-5.31,3.47-5.5,5.01-.19,1.55-8.16,2.33-8.16,2.33v3.13s7.77,.07,9.06-.64c1.29-.7-.18-4.42,.95-5.64s4.62-1.53,5.25-1.96c.63-.44,.68-1.66,.68-1.66,0,0-1.43-1.91-2.27-2.66Z"/>
            <path class="cls-1" d="M59.07,14.44l-7.05-.35v3.67s4.71-1.44,7.35,0l-.3-3.33Z"/>
            <path class="cls-1" d="M42.74,12.95s-.79,2.24-.79,4.42l-4.17,.4s.2-3.47,1.29-5.16l3.67,.35Z"/>
            <path class="cls-1" d="M36.41,12.61s-3.03,.35-5.41-.84c-2.38-1.19-2.03-1-5.66-2.63-3.64-1.63-1.65-4.75-.91-6.49,0,0-2.06,1.06-3.45,2.75,0,0,.04,3.2,2.66,4.3,2.61,1.09,3.27,3.42,4.06,4.41,.79,.99,7.85,0,7.85,0l.85-1.49Z"/>
            <path class="cls-1" d="M83.29,51s1.29,1.68,2.4,7.97c0,0,.93-3.84,2.42-4.63,1.49-.79,2.43-1.39,2.43-1.39l-2.13-4.61s.25,1.76-1.14,2.66c-2.31,1.49-3.97,0-3.97,0Z"/>
            <path class="cls-1" d="M90.53,48.72s2.09-1,2.31-1.45l.6,1.45-1.46,2.27s-.61-1.51-1.46-2.27Z"/>
            <path class="cls-1" d="M81.5,51.96l-3.34,.5s.58,3.52-1.34,9.7c0,0,4.29-2.93,7.29-3.19,0,0-1.39-4.81-2.61-7.01Z"/>
            <path class="cls-1" d="M18.79,51.96s-.31,7.09,.8,11.83c0,0-4.02-3.64-4.44-3.59,0,0-.06-4.57,.39-8.24,0,0,2.57-.15,3.25,0Z"/>
            <path class="cls-1" d="M13.62,50.1s-5.86-2.78-6.63-5.59c0,0-1.54,2.25-2.38,4.55,0,0,5.75,3.87,8.24,8.33,0,0,.33-5.06,.77-7.28Z"/>
            <path class="cls-1" d="M6.6,43.48s-1.93-1.33-2.22-1.81l-1.83,4.68,1.24,.59s.99-1.66,2.81-3.46Z"/>
          </g>
        </g>
      </g>
    </g>
  </g>
</svg>