<?xml version="1.0" encoding="UTF-8"?>
<svg id="Layer_2" data-name="Layer 2" xmlns="http://www.w3.org/2000/svg" viewBox="0 0 140 150">
  <defs>
    <style>
      .cls-1 {
        opacity: .6;
      }

      .cls-2 {
        fill: #9495b2;
      }

      .cls-3 {
        fill: #dc663d;
      }

      .cls-4 {
        fill: #54271c;
      }

      .cls-5 {
        fill: #ffa969;
      }

      .cls-6 {
        fill: #e0463b;
      }

      .cls-7 {
        fill: #d5e1ef;
      }

      .cls-8 {
        fill: #f9f2f4;
      }

      .cls-9 {
        fill: #ff8a54;
      }
    </style>
  </defs>
  <g id="Layer_1-2" data-name="Layer 1">
    <g class="cls-1">
      <path class="cls-2" d="M28.85,139.47c6.83,5.16,34.54,5.74,47.04,5.74,10.27,0-1.45,3.11,12.49,4.02,20.69,1.34,48.6,1.15,51.33-2.1,1.07-1.27,.15-4.54-19.13-4.02-2.54,.07-5.66-5.35-11.32-7.27-5.66-1.91-6.44-3.25-10.93-3.06-4.49,.19-27.32,.77-48.99,.96-21.66,.19-24.02,3.07-20.49,5.74Z"/>
    </g>
    <g>
      <g>
        <path class="cls-5" d="M12.64,108.94c3.33,2.15,8.6-4.09,17.82-16.29,.65-.87,1.69,3.19,2.3,2.28,7.01-10.39,9.37-20.97,5.27-23.63-4.1-2.66-15.85,1.74-21.49,12.91-6.62,13.09-8,22.07-3.9,24.73Z"/>
        <path class="cls-5" d="M6.33,111.03c.65,.8-5.87,5.71-4.15,7.33,2.61,2.47,5.98-4.7,7.01-3.57,.65,.72-4.36,5.98-1.2,7.47,2.28,1.08,4.35-6.6,5.46-5.65,.78,.67-2.32,5.94-.13,6.71,3.8,1.33,3.46-8.55,5.62-8.42,1.49,.09,1.91,4.83,3.49,3.3,1.92-1.85,.03-9.01-1.83-11.9-1.85-2.87-7.75-5.2-11.43-3.52-3.82,1.97-10.26,7.76-9.02,10.27,.98,1.99,5.1-3.37,6.18-2.03Z"/>
        <path class="cls-5" d="M94.28,77.6c12.75-7.56,18.43-13.37,16.43-17.77-2-4.4-13.04-3.85-24.65,1.23-11.61,5.08-19.39,12.77-17.39,17.17,1.42,3.12,14.23,16.16,13.47,8.65-.39-3.82,8.97-7.39,12.15-9.28Z"/>
        <path class="cls-5" d="M107.02,45.45c-2.76,.58-5.2,7.95-5.21,11.53,0,3.56,3.87,8.87,8.08,9.42,4.52,.36,13.53-1.21,13.88-4.11,.27-2.3-6.45,.17-6.63-1.61-.11-1.07,8.47-1.81,7.88-4.19-.89-3.62-7.99,.86-8.25-.71-.16-1,7.29-2.89,5.36-5.95-1.4-2.21-7.64,3.43-8.08,1.98-.3-1.02,5.47-3.97,3.97-5.86-2.59-3.27-7.97,5.65-9.8,4.35-1.27-.9,1.08-5.33-1.19-4.85Z"/>
        <path class="cls-5" d="M49.93,111.56c19.33,.43,29.89-.22,33.81-.92-.27-4.83-.87-19.85-2.04-28.03-2-13.97-13.84-20.84-27.75-20.04-13.91,.8-20.78,8.96-23.66,26.95-.26,1.63,.2,16.44,.27,19.79,2.29,1,8.68,2.01,19.37,2.25Z"/>
        <path class="cls-9" d="M56.4,79.55c15.33-.07,20.75-6.06,20.47-11.7-.27-5.65-9.88-9.57-21.46-8.76-11.58,.81-20.75,6.05-20.47,11.7,.27,5.65,9.86,8.81,21.46,8.76Z"/>
        <path class="cls-5" d="M22.17,57.35c.2-.04,.38-.11,.57-.18,2.09,4.34,5.01,8.19,8.53,11.32,14.16,9.58,30.22,9.82,41.05,4.23,6.64-3.92,11.01-10.29,13.96-17.6,.08,.03,.16,.06,.24,.08,4.09,1.07,8.79-3.11,10.5-9.34,1.71-6.23-.23-12.16-4.32-13.23-1.52-.4-3.12-.07-4.62,.82C88.09,17.07,79.83,.81,53.36,.81S19.68,19.36,19.68,34.8c-1-.34-2.02-.42-3.01-.19-4.12,.96-6.23,6.83-4.71,13.1,1.52,6.28,6.09,10.6,10.21,9.64Z"/>
        <path class="cls-9" d="M20.37,52.09c2.45-.32,.77-12.81-1.68-12.49-2.45,.32-4.06,3.36-3.59,6.81,.46,3.45,2.82,5.99,5.27,5.68Z"/>
        <path class="cls-9" d="M94.67,44.69c.47-3.45-1.14-6.5-3.59-6.81-2.45-.32-4.13,12.17-1.68,12.49,2.45,.31,4.81-2.22,5.27-5.68Z"/>
        <path class="cls-9" d="M57.59,105.34c1.16-.07,2.06-.77,2.02-1.58-.05-.8-1.03-1.4-2.19-1.33-1.16,.07-2.06,.77-2.02,1.58,.05,.8,1.03,1.4,2.19,1.33Z"/>
        <path class="cls-6" d="M54.72,64.61c-4.9,0-9.53-1.58-12.04-4.16-.67-.69-.64-1.77,.06-2.42,.7-.65,1.81-.63,2.47,.06,2,2.06,6.22,3.29,10.49,3.07,4.05-.21,7.41-1.66,9.23-3.98,.59-.75,1.69-.89,2.45-.31,.77,.58,.91,1.65,.32,2.4-2.44,3.11-6.75,5.05-11.82,5.31-.39,.02-.78,.03-1.17,.03Z"/>
        <path class="cls-4" d="M46.33,45.66c-.68,0-1.33-.38-1.64-1.02-.66-1.37-2.35-2.15-4.51-2.09-2.02,.06-3.57,.78-4.25,1.97-.48,.86-1.59,1.17-2.46,.69-.88-.47-1.19-1.56-.71-2.41,1.31-2.32,3.98-3.71,7.32-3.8,3.66-.1,6.6,1.44,7.89,4.13,.43,.89,.04,1.94-.87,2.36-.25,.11-.51,.17-.77,.17Z"/>
        <path class="cls-4" d="M77.36,45.66c-.68,0-1.33-.38-1.64-1.02-.66-1.37-2.35-2.15-4.51-2.09-2.02,.06-3.57,.78-4.25,1.97-.48,.86-1.59,1.17-2.46,.69-.88-.47-1.19-1.56-.71-2.41,1.31-2.32,3.98-3.71,7.32-3.8,3.66-.1,6.6,1.44,7.89,4.13,.43,.89,.04,1.94-.87,2.36-.25,.11-.51,.17-.77,.17Z"/>
        <path class="cls-3" d="M48.9,12.49c2.04-1.52-7.02,10.03-9.37,9.74,4.1,.72,8.64,.29,12.59-1.58,5.62-2.65,7.93-5.7,7.22-4.09-.63,2.87-6.91,7.83-5.36,7.48,7.37-.67,15.47-5.32,17.65-10.77,2.17-5.41-1.66-12.27-11.5-13.16-6.66-.61-12.81,1.64-15.97,4.13-2.18,1.72-2.32,3.25-3.15,5.81-1.31,4.03-5.12,6.74-5.42,6.88,6.29,.57,8.93,0,13.32-4.44Z"/>
      </g>
      <path class="cls-8" d="M43.4,142.2c4.13,.62,9.9-9.43,14.34-9.62,4.07-.17,10.23,5.12,13.7,4.39,8.55-1.78,16.77-7.25,12.4-28.31,0,0-1.41,.21-23.09-.24-15.69-.33-30.6,.96-30.67,.88-5.32,23.14,1.6,31.14,13.33,32.89Z"/>
      <path class="cls-7" d="M43.4,142.2c3.97,.59,7.92-5.98,12.15-6.68,.05-.64,.15-1.3,.34-2,1.35-5.1,21.87-14.66,6.21-20.19-15.66-5.54-28.47,.79-30.05,1.23s-1.79-1.79-1.98-5.24c-5.32,23.14,1.6,31.14,13.33,32.89Z"/>
      <g>
        <path class="cls-5" d="M86.8,140.14c10.57-1.81,27.52-13.07,25.65-20.69-2.17-8.82-12.94-9.84-23.51-8.04-10.57,1.81-18.77,6.08-18.37,16.54,.33,8.75,5.66,13.99,16.23,12.18Z"/>
        <path class="cls-5" d="M127.54,141.97c2.24-3.07-1.25,1.47-2.93-5.41-3.05-12.56-12.03-20.89-17.03-23.49-6.97-3.62-8.92,.82-10.96,3.62-3.51,4.8,3.03,14.23,11.47,21.32,8.43,7.08,15.95,8.77,19.45,3.96Z"/>
        <path class="cls-5" d="M115.9,144.63c6.43,5.26,11.44-2.5,15.08-8.75,2.03-3.48,2.27-4.21,3.39-7.14,.14-.37,.27-.71,.39-1.01,.32-.26,.62-.6,.87-1.03,.73-1.29,.65-2.78-.19-3.33-.07-.05-.14-.08-.22-.11,.34-1.07,.16-2.14-.52-2.58-.4-.26-.9-.26-1.39-.05,.17-.91-.05-1.76-.63-2.14-.34-.22-.74-.25-1.16-.13,.11-.84-.12-1.59-.66-1.95-.7-.46-1.71-.11-2.45,.77,.1-1.2-.29-2.26-1.1-2.69-1.2-.64-2.86,.32-3.72,2.16-.4,.86-.55,1.76-.48,2.54-1.21,1.75-2.55,4.37-3.96,8.05-2.63,6.84-6.39,14.83-3.24,17.41Z"/>
        <path class="cls-9" d="M117.85,145.97c6.43,5.26,11.44-2.5,15.08-8.75,2.03-3.48,2.27-4.21,3.39-7.14,.14-.37,.27-.71,.39-1.01,.32-.26,.62-.6,.87-1.03,.73-1.29,.65-2.78-.19-3.33-.07-.05-.14-.08-.22-.11,.34-1.07,.16-2.14-.52-2.58-.4-.26-.9-.26-1.39-.05,.17-.91-.05-1.76-.63-2.14-.34-.22-.74-.25-1.16-.13,.11-.84-.12-1.59-.66-1.95-.7-.46-1.71-.11-2.45,.77,.1-1.2-.29-2.26-1.1-2.69-1.2-.64-2.86,.32-3.72,2.16-.4,.86-.55,1.76-.48,2.54-1.21,1.75-2.55,4.37-3.96,8.05-2.63,6.84-6.39,14.83-3.24,17.41Z"/>
        <path class="cls-9" d="M120.74,147.37c3.84,1.05,.21-2.82,.21-2.82,0,0-2.45-10.13-3.4-6.37-.57,2.26-6.77,.03-9.7-2.1-9.66-7.04-10.19-12.66-10.19-12.66,0,0-1.86,9.79,8.4,16.82,3.35,2.29,12.25,6.47,14.68,7.13Z"/>
        <path class="cls-9" d="M89.33,136.62c-6.71,2.37-14.63,1.27-14.63,1.27,0,0,4.81,6.06,14.07,3.94,13-2.98,12.8-8.98,12.8-8.98,0,0-3.79-7.3-3.69-5.82,.22,3.18-2.05,7.3-8.55,9.6Z"/>
        <path class="cls-5" d="M47.94,140.36c10.57-1.81,27.52-13.07,25.65-20.68-2.17-8.82-12.94-9.84-23.51-8.04-10.57,1.81-18.77,6.08-18.37,16.54,.33,8.75,5.66,13.99,16.23,12.18Z"/>
        <path class="cls-5" d="M69.23,138.22c8.43,7.08,15.95,8.77,19.45,3.96,2.24-3.07-1.25,1.47-2.93-5.41-3.05-12.56-12.03-20.89-17.03-23.49-6.97-3.62-8.92,.82-10.96,3.62-3.51,4.8,3.03,14.23,11.47,21.32Z"/>
        <path class="cls-9" d="M67.2,140.45c3.35,2.29,12.25,6.47,14.68,7.13,3.84,1.05,.21-2.82,.21-2.82,0,0-6.65-3.77-13.1-8.48-9.66-7.04-10.46-11.63-10.46-11.63,0,0-1.6,8.76,8.67,15.79Z"/>
        <path class="cls-9" d="M49.91,142.03c13-2.98,12.8-8.98,12.8-8.98,0,0-4.21-7.01-4.16-5.52,.09,2.78-1.58,7.01-8.08,9.3-6.71,2.37-14.63,1.27-14.63,1.27,0,0,4.81,6.06,14.07,3.94Z"/>
      </g>
      <path class="cls-5" d="M67.71,127.66c.23,.43,.52,.78,.83,1.04,.11,.31,.23,.64,.36,1.01,1.04,2.93,1.25,3.66,3.17,7.16,3.44,6.28,8.19,14.1,14.68,9.09,3.17-2.45-.34-10.46-2.76-17.3-1.3-3.67-2.56-6.3-3.71-8.07,.09-.77-.03-1.66-.41-2.52-.8-1.84-2.42-2.84-3.62-2.24-.81,.41-1.22,1.44-1.15,2.63-.71-.89-1.7-1.27-2.4-.83-.55,.34-.79,1.07-.71,1.91-.41-.13-.81-.11-1.15,.1-.59,.36-.83,1.19-.68,2.1-.48-.22-.97-.23-1.37,.01-.68,.42-.89,1.47-.58,2.54-.07,.03-.15,.06-.22,.1-.84,.52-.97,1.99-.28,3.28Z"/>
      <path class="cls-9" d="M69.91,128.38c.23,.43,.52,.78,.83,1.04,.11,.31,.23,.64,.36,1.01,1.04,2.93,1.25,3.66,3.17,7.16,3.44,6.28,8.19,14.1,14.68,9.09,3.17-2.45-.34-10.46-2.76-17.3-1.3-3.67-2.56-6.3-3.71-8.07,.09-.77-.03-1.66-.41-2.52-.8-1.84-2.42-2.84-3.62-2.24-.81,.41-1.22,1.44-1.15,2.63-.71-.89-1.7-1.27-2.4-.83-.55,.34-.79,1.07-.71,1.91-.41-.13-.81-.11-1.15,.1-.59,.36-.83,1.19-.68,2.1-.48-.22-.97-.23-1.37,.01-.68,.42-.89,1.47-.58,2.54-.07,.03-.15,.06-.22,.1-.84,.52-.97,1.99-.28,3.28Z"/>
      <path class="cls-9" d="M47.94,140.36c1.22-.64,2.84-.63,4.36-1.15-.66,.17-1.3,.31-1.92,.42-3.83,.65-5.37-1.28-8.06-1.21-5.78,.14-8.27-5.46-8.49-11.21-.23-6.06,2.37-10.08,6.63-12.76-5.48,2.58-9,6.79-8.74,13.73,.33,8.75,8.12,16.48,16.23,12.18Z"/>
    </g>
  </g>
</svg>