<?xml version="1.0" encoding="UTF-8"?>
<svg id="Layer_2" data-name="Layer 2" xmlns="http://www.w3.org/2000/svg" viewBox="0 0 150 161.75">
  <defs>
    <style>
      .cls-1 {
        opacity: .6;
      }

      .cls-2 {
        fill: #9495b2;
      }

      .cls-3 {
        fill: #dc663d;
      }

      .cls-4 {
        fill: #54271c;
      }

      .cls-5 {
        fill: #ffa969;
      }

      .cls-6 {
        fill: #e0463b;
      }

      .cls-7 {
        fill: #d5e1ef;
      }

      .cls-8 {
        fill: #f9f2f4;
      }

      .cls-9 {
        fill: #ff8a54;
      }
    </style>
  </defs>
  <g id="Layer_1-2" data-name="Layer 1">
    <g>
      <g class="cls-1">
        <path class="cls-2" d="M36.14,151.92c5.86,4.82,29.61,5.35,40.32,5.35,8.8,0-1.24,2.91,10.71,3.75,17.73,1.25,41.65,1.07,44-1.96,.91-1.19,.13-4.24-16.39-3.75-2.17,.06-4.85-5-9.7-6.78-4.85-1.79-5.52-3.03-9.37-2.86-3.85,.18-23.42,.71-41.99,.89-18.57,.18-20.59,2.87-17.57,5.35Z"/>
      </g>
      <g>
        <g>
          <path class="cls-5" d="M13.73,117.55c3.61,2.32,9.34-4.42,19.36-17.57,.71-.93,1.83,3.45,2.5,2.46,7.62-11.22,10.18-22.63,5.72-25.5-4.46-2.87-17.22,1.88-23.35,13.93-7.19,14.12-8.69,23.82-4.23,26.68Z"/>
          <path class="cls-5" d="M6.88,119.8c.7,.87-6.37,6.16-4.5,7.9,2.84,2.66,6.49-5.08,7.61-3.85,.7,.78-4.73,6.45-1.3,8.06,2.48,1.16,4.73-7.12,5.93-6.09,.84,.72-2.52,6.41-.14,7.24,4.13,1.44,3.76-9.22,6.1-9.08,1.62,.1,2.08,5.21,3.8,3.56,2.08-2,.04-9.72-1.99-12.84-2.01-3.09-8.42-5.61-12.41-3.8-4.15,2.13-11.14,8.37-9.8,11.08,1.07,2.15,5.54-3.64,6.71-2.19Z"/>
          <path class="cls-5" d="M102.42,83.73c13.86-8.16,20.02-14.43,17.84-19.17-2.18-4.75-14.17-4.15-26.78,1.33-12.61,5.48-21.07,13.77-18.89,18.52,1.54,3.36,15.46,17.44,14.63,9.33-.42-4.13,9.75-7.98,13.2-10.01Z"/>
          <path class="cls-5" d="M116.25,49.05c-3,.63-5.65,8.58-5.66,12.45,0,3.84,4.2,9.57,8.78,10.16,4.91,.39,14.7-1.3,15.08-4.43,.3-2.48-7.01,.18-7.2-1.74-.12-1.15,9.2-1.96,8.56-4.52-.97-3.91-8.68,.93-8.96-.77-.17-1.07,7.92-3.12,5.82-6.42-1.52-2.39-8.3,3.71-8.77,2.14-.33-1.1,5.94-4.29,4.31-6.33-2.82-3.53-8.66,6.1-10.65,4.69-1.38-.97,1.18-5.75-1.3-5.23Z"/>
          <path class="cls-5" d="M54.24,120.38c21,.47,32.47-.24,36.72-.99-.3-5.21-.95-21.42-2.22-30.24-2.17-15.08-15.04-22.49-30.14-21.63-15.11,.86-22.58,9.67-25.7,29.08-.28,1.76,.22,17.73,.29,21.35,2.49,1.08,9.43,2.17,21.05,2.43Z"/>
          <path class="cls-9" d="M61.26,85.84c16.65-.08,22.54-6.53,22.24-12.63-.3-6.1-10.74-10.33-23.31-9.45-12.58,.88-22.54,6.53-22.24,12.63,.3,6.1,10.72,9.51,23.32,9.45Z"/>
          <path class="cls-5" d="M24.09,61.88c.21-.05,.42-.12,.62-.19,2.27,4.69,5.44,8.84,9.27,12.21,15.39,10.34,32.83,10.6,44.59,4.56,7.22-4.23,11.96-11.1,15.17-18.99,.09,.03,.17,.07,.26,.09,4.44,1.16,9.55-3.35,11.4-10.08,1.85-6.72-.25-13.12-4.69-14.28-1.65-.43-3.39-.08-5.02,.88C95.69,18.42,86.72,.88,57.97,.88S21.38,20.89,21.38,37.55c-1.08-.36-2.19-.45-3.27-.2-4.48,1.03-6.77,7.36-5.12,14.14,1.65,6.78,6.62,11.43,11.09,10.4Z"/>
          <path class="cls-9" d="M22.13,56.21c2.66-.34,.84-13.82-1.82-13.48-2.66,.34-4.41,3.63-3.9,7.35,.5,3.73,3.07,6.46,5.73,6.12Z"/>
          <path class="cls-9" d="M102.85,48.22c.51-3.72-1.24-7.01-3.9-7.35-2.66-.34-4.48,13.13-1.82,13.48,2.66,.34,5.22-2.4,5.73-6.12Z"/>
          <path class="cls-9" d="M62.56,113.67c1.26-.07,2.24-.83,2.19-1.7-.05-.87-1.12-1.51-2.38-1.44-1.26,.07-2.24,.83-2.19,1.7,.05,.87,1.12,1.51,2.38,1.44Z"/>
          <path class="cls-6" d="M59.45,69.72c-5.32,0-10.36-1.71-13.08-4.49-.72-.74-.69-1.91,.07-2.62,.76-.7,1.96-.68,2.69,.06,2.17,2.22,6.75,3.55,11.39,3.32,4.39-.22,8.05-1.79,10.02-4.29,.64-.81,1.83-.96,2.66-.34,.83,.62,.99,1.78,.35,2.59-2.65,3.36-7.33,5.45-12.84,5.73-.42,.02-.85,.03-1.27,.03Z"/>
          <path class="cls-4" d="M50.33,49.27c-.74,0-1.45-.41-1.78-1.1-.71-1.48-2.55-2.32-4.9-2.25-2.2,.06-3.88,.84-4.62,2.13-.53,.93-1.72,1.26-2.67,.75-.95-.51-1.3-1.68-.77-2.6,1.43-2.51,4.32-4,7.95-4.1,3.98-.11,7.17,1.56,8.58,4.45,.46,.96,.04,2.1-.94,2.55-.27,.12-.56,.18-.84,.18Z"/>
          <path class="cls-4" d="M84.04,49.27c-.74,0-1.45-.41-1.78-1.1-.71-1.48-2.55-2.32-4.9-2.25-2.2,.06-3.88,.84-4.62,2.13-.53,.93-1.72,1.26-2.67,.75-.95-.51-1.3-1.68-.77-2.6,1.43-2.51,4.32-4,7.95-4.1,3.98-.11,7.18,1.56,8.58,4.45,.46,.96,.04,2.1-.94,2.55-.27,.12-.56,.18-.84,.18Z"/>
          <path class="cls-3" d="M53.12,13.47c2.22-1.64-7.63,10.82-10.17,10.52,4.45,.77,9.38,.31,13.68-1.7,6.11-2.86,8.61-6.15,7.84-4.42-.69,3.1-7.51,8.45-5.82,8.07,8.01-.72,16.8-5.74,19.17-11.62,2.35-5.84-1.8-13.24-12.5-14.2-7.23-.65-13.92,1.77-17.35,4.46-2.37,1.86-2.52,3.51-3.43,6.27-1.43,4.35-5.57,7.27-5.88,7.43,6.84,.62,9.7,0,14.47-4.79Z"/>
        </g>
        <path class="cls-8" d="M47.14,153.44c4.49,.67,10.76-10.17,15.58-10.38,4.42-.18,11.11,5.52,14.88,4.74,9.29-1.93,18.22-7.82,13.47-30.55,0,0-1.53,.23-25.09-.26-17.04-.35-33.24,1.03-33.32,.95-5.78,24.97,1.73,33.6,14.48,35.49Z"/>
        <path class="cls-7" d="M47.14,153.44c4.31,.64,8.6-6.46,13.2-7.21,.06-.69,.17-1.41,.37-2.16,1.47-5.5,23.75-15.81,6.75-21.79-17.01-5.97-30.93,.86-32.65,1.32s-1.94-1.94-2.15-5.66c-5.78,24.97,1.73,33.6,14.48,35.49Z"/>
        <g>
          <path class="cls-5" d="M94.29,151.22c11.48-1.95,29.9-14.1,27.87-22.32-2.36-9.52-14.06-10.62-25.54-8.67-11.48,1.95-20.39,6.56-19.96,17.85,.36,9.44,6.15,15.09,17.63,13.15Z"/>
          <path class="cls-5" d="M138.55,153.19c2.44-3.32-1.36,1.58-3.18-5.83-3.32-13.55-13.06-22.54-18.5-25.35-7.57-3.9-9.69,.88-11.91,3.9-3.81,5.18,3.3,15.36,12.46,23,9.16,7.64,17.32,9.46,21.13,4.28Z"/>
          <path class="cls-5" d="M125.91,156.06c6.99,5.68,12.42-2.7,16.38-9.44,2.21-3.75,2.46-4.55,3.69-7.7,.15-.4,.29-.76,.42-1.09,.35-.28,.68-.65,.94-1.11,.8-1.39,.7-3-.21-3.59-.08-.05-.15-.09-.24-.12,.37-1.16,.17-2.31-.57-2.79-.43-.28-.97-.28-1.51-.06,.19-.99-.05-1.9-.69-2.31-.37-.24-.81-.27-1.26-.14,.12-.9-.13-1.72-.72-2.1-.77-.5-1.86-.12-2.67,.83,.1-1.3-.31-2.44-1.19-2.9-1.3-.69-3.11,.35-4.04,2.33-.44,.93-.6,1.9-.52,2.74-1.31,1.89-2.77,4.72-4.3,8.68-2.85,7.38-6.94,16.01-3.52,18.78Z"/>
          <path class="cls-9" d="M128.03,157.51c6.99,5.68,12.42-2.7,16.38-9.44,2.21-3.75,2.46-4.55,3.69-7.7,.15-.4,.29-.76,.42-1.09,.35-.28,.68-.65,.94-1.11,.8-1.39,.7-3-.21-3.59-.08-.05-.16-.09-.24-.12,.37-1.16,.17-2.31-.57-2.79-.43-.28-.97-.28-1.51-.06,.19-.99-.05-1.9-.69-2.31-.37-.24-.81-.27-1.26-.14,.12-.9-.13-1.72-.72-2.1-.77-.5-1.86-.12-2.67,.83,.1-1.3-.31-2.44-1.19-2.9-1.3-.7-3.11,.35-4.04,2.33-.44,.93-.6,1.9-.52,2.74-1.31,1.89-2.77,4.72-4.3,8.68-2.85,7.38-6.94,16.01-3.52,18.78Z"/>
          <path class="cls-9" d="M131.16,159.02c4.17,1.13,.23-3.04,.23-3.04,0,0-2.67-10.94-3.69-6.88-.62,2.44-7.35,.04-10.54-2.27-10.5-7.6-11.07-13.66-11.07-13.66,0,0-2.03,10.57,9.13,18.15,3.64,2.47,13.31,6.99,15.94,7.7Z"/>
          <path class="cls-9" d="M97.04,147.42c-7.29,2.56-15.89,1.37-15.89,1.37,0,0,5.22,6.54,15.28,4.25,14.12-3.22,13.91-9.69,13.91-9.69,0,0-4.12-7.88-4.01-6.27,.23,3.43-2.23,7.88-9.29,10.35Z"/>
          <path class="cls-5" d="M52.08,151.45c11.48-1.95,29.9-14.1,27.87-22.32-2.36-9.52-14.06-10.62-25.54-8.67-11.48,1.95-20.39,6.56-19.96,17.85,.36,9.44,6.15,15.09,17.63,13.14Z"/>
          <path class="cls-5" d="M75.21,149.14c9.16,7.64,17.32,9.46,21.13,4.28,2.44-3.32-1.36,1.58-3.18-5.83-3.32-13.55-13.06-22.54-18.5-25.35-7.57-3.9-9.69,.88-11.91,3.9-3.81,5.18,3.3,15.36,12.46,23Z"/>
          <path class="cls-9" d="M73,151.55c3.64,2.47,13.31,6.99,15.94,7.7,4.17,1.13,.23-3.04,.23-3.04,0,0-7.22-4.07-14.23-9.15-10.5-7.6-11.36-12.55-11.36-12.55,0,0-1.74,9.45,9.42,17.04Z"/>
          <path class="cls-9" d="M54.21,153.26c14.12-3.22,13.91-9.69,13.91-9.69,0,0-4.57-7.56-4.52-5.96,.1,3-1.72,7.56-8.78,10.04-7.29,2.56-15.89,1.37-15.89,1.37,0,0,5.22,6.54,15.28,4.25Z"/>
        </g>
        <path class="cls-5" d="M73.55,137.75c.25,.46,.56,.84,.9,1.12,.12,.33,.25,.69,.39,1.09,1.13,3.16,1.36,3.95,3.44,7.72,3.74,6.78,8.9,15.21,15.94,9.81,3.45-2.64-.37-11.29-3-18.66-1.41-3.96-2.78-6.8-4.03-8.71,.1-.83-.04-1.79-.44-2.72-.87-1.98-2.63-3.07-3.93-2.42-.88,.44-1.32,1.55-1.25,2.84-.77-.96-1.84-1.37-2.61-.9-.6,.36-.86,1.16-.77,2.06-.44-.14-.88-.12-1.24,.11-.64,.39-.9,1.28-.74,2.26-.52-.24-1.05-.25-1.49,.01-.74,.45-.97,1.58-.63,2.74-.08,.03-.16,.06-.24,.11-.92,.56-1.05,2.14-.3,3.54Z"/>
        <path class="cls-9" d="M75.95,138.53c.25,.46,.56,.84,.9,1.12,.12,.33,.25,.69,.39,1.09,1.13,3.16,1.36,3.95,3.45,7.72,3.74,6.78,8.9,15.21,15.94,9.81,3.45-2.64-.37-11.29-3-18.66-1.41-3.96-2.78-6.8-4.03-8.71,.1-.83-.04-1.79-.44-2.72-.87-1.98-2.63-3.07-3.93-2.42-.88,.44-1.32,1.55-1.25,2.84-.77-.96-1.84-1.37-2.61-.9-.6,.36-.86,1.16-.77,2.06-.44-.14-.88-.12-1.24,.11-.64,.39-.9,1.28-.74,2.26-.52-.24-1.05-.25-1.49,.01-.74,.45-.97,1.58-.63,2.74-.08,.03-.16,.06-.24,.11-.92,.56-1.05,2.14-.3,3.54Z"/>
        <path class="cls-9" d="M52.08,151.45c1.32-.7,3.08-.68,4.74-1.24-.72,.18-1.42,.33-2.09,.45-4.16,.71-5.84-1.38-8.76-1.31-6.28,.15-8.99-5.89-9.22-12.1-.25-6.54,2.57-10.87,7.2-13.77-5.96,2.78-9.78,7.33-9.5,14.82,.36,9.44,8.82,17.78,17.63,13.14Z"/>
      </g>
    </g>
  </g>
</svg>