<?xml version="1.0" encoding="UTF-8"?>
<svg xmlns="http://www.w3.org/2000/svg" xmlns:xlink="http://www.w3.org/1999/xlink" viewBox="0 0 239.63 296.52">
  <defs>
    <style>
      .cls-1 {
        fill: url(#_300);
      }

      .cls-2 {
        fill: url(#_300-2);
      }

      .cls-3, .cls-4, .cls-5, .cls-6, .cls-7, .cls-8, .cls-9, .cls-10, .cls-11, .cls-12, .cls-13, .cls-14, .cls-15, .cls-16, .cls-17, .cls-18, .cls-19, .cls-20, .cls-21, .cls-22 {
        mix-blend-mode: multiply;
      }

      .cls-3, .cls-4, .cls-5, .cls-6, .cls-7, .cls-10, .cls-11, .cls-12, .cls-14, .cls-16, .cls-17, .cls-20, .cls-21, .cls-22 {
        opacity: .6;
      }

      .cls-3, .cls-18 {
        fill: #d077b7;
      }

      .cls-23 {
        fill: url(#_21-3);
      }

      .cls-24 {
        fill: #4e1b3d;
      }

      .cls-25 {
        fill: url(#_56);
      }

      .cls-26 {
        fill: #ef7172;
      }

      .cls-4 {
        fill: url(#_5);
      }

      .cls-5 {
        fill: url(#_123-2);
      }

      .cls-6 {
        fill: url(#_123-5);
      }

      .cls-27 {
        fill: url(#_300-3);
      }

      .cls-7 {
        fill: url(#linear-gradient-5);
      }

      .cls-28 {
        fill: #dc6b7c;
      }

      .cls-29 {
        fill: #fffbb7;
        opacity: .5;
      }

      .cls-29, .cls-30 {
        mix-blend-mode: soft-light;
      }

      .cls-31 {
        fill: url(#_11);
      }

      .cls-8 {
        fill: url(#_123-9);
      }

      .cls-32 {
        fill: url(#_42);
      }

      .cls-9 {
        fill: url(#_8-2);
      }

      .cls-33 {
        isolation: isolate;
      }

      .cls-34 {
        fill: url(#_300-4);
      }

      .cls-35 {
        fill: #dd4c6b;
      }

      .cls-10 {
        fill: url(#linear-gradient-2);
      }

      .cls-11 {
        fill: url(#linear-gradient-6);
      }

      .cls-12 {
        fill: url(#linear-gradient-4);
      }

      .cls-36 {
        fill: url(#_100);
      }

      .cls-37 {
        fill: #832751;
      }

      .cls-13 {
        fill: url(#_123-8);
      }

      .cls-38 {
        clip-path: url(#clippath-1);
      }

      .cls-39 {
        fill: url(#_13-2);
      }

      .cls-40 {
        fill: url(#_300-6);
      }

      .cls-14 {
        fill: url(#_123-6);
      }

      .cls-41 {
        fill: #e390b7;
      }

      .cls-15 {
        fill: url(#_123-7);
      }

      .cls-16 {
        fill: url(#_123-4);
      }

      .cls-42 {
        fill: url(#_21);
      }

      .cls-17 {
        fill: url(#linear-gradient-3);
      }

      .cls-43 {
        fill: #dc4c6a;
      }

      .cls-44 {
        clip-path: url(#clippath);
      }

      .cls-45 {
        fill: none;
      }

      .cls-46 {
        fill: url(#_300-5);
      }

      .cls-47 {
        fill: url(#_11-2);
      }

      .cls-18 {
        opacity: .8;
      }

      .cls-48 {
        fill: url(#_121-2);
      }

      .cls-49 {
        fill: url(#_21-2);
      }

      .cls-50 {
        fill: #ffcebe;
      }

      .cls-51 {
        fill: url(#_42-2);
      }

      .cls-19 {
        fill: url(#_8);
      }

      .cls-52 {
        fill: url(#_121);
      }

      .cls-53 {
        fill: url(#linear-gradient);
      }

      .cls-20 {
        fill: url(#_18);
      }

      .cls-30 {
        fill: #ffd8ba;
      }

      .cls-21 {
        fill: url(#_123);
      }

      .cls-54 {
        fill: url(#_13);
      }

      .cls-55 {
        fill: url(#_307);
      }

      .cls-22 {
        fill: url(#_123-3);
      }
    </style>
    <linearGradient id="linear-gradient" x1="121.47" y1="260.5" x2="121.47" y2="296.52" gradientUnits="userSpaceOnUse">
      <stop offset="0" stop-color="#80b092"/>
      <stop offset="1" stop-color="#377c78"/>
    </linearGradient>
    <linearGradient id="linear-gradient-2" x1="48.78" y1="286.92" x2="68.79" y2="286.92" gradientUnits="userSpaceOnUse">
      <stop offset="0" stop-color="#7d9e8c"/>
      <stop offset=".3" stop-color="#86b29a"/>
      <stop offset=".73" stop-color="#91c9aa"/>
      <stop offset=".99" stop-color="#96d2b1"/>
    </linearGradient>
    <linearGradient id="linear-gradient-3" x1="74.37" y1="279.88" x2="114.61" y2="279.88" xlink:href="#linear-gradient-2"/>
    <linearGradient id="linear-gradient-4" x1="140.97" y1="277.29" x2="190.12" y2="277.29" xlink:href="#linear-gradient-2"/>
    <linearGradient id="linear-gradient-5" x1="85.06" y1="270.54" x2="93.78" y2="270.54" xlink:href="#linear-gradient-2"/>
    <linearGradient id="linear-gradient-6" x1="-6771.35" y1="270.9" x2="-6762.87" y2="270.9" gradientTransform="translate(-6610.04) rotate(-180) scale(1 -1)" xlink:href="#linear-gradient-2"/>
    <linearGradient id="_21" data-name="  21" x1="31.67" y1="179.58" x2="31.67" y2="124.69" gradientUnits="userSpaceOnUse">
      <stop offset="0" stop-color="#ffb29c"/>
      <stop offset=".22" stop-color="#ff9b8d"/>
      <stop offset=".48" stop-color="#ff8781"/>
      <stop offset=".74" stop-color="#ff7b79"/>
      <stop offset="1" stop-color="#f77"/>
    </linearGradient>
    <linearGradient id="_123" data-name="  123" x1="32.31" y1="168.95" x2="32.31" y2="132.86" gradientUnits="userSpaceOnUse">
      <stop offset="0" stop-color="#ffe9da"/>
      <stop offset=".99" stop-color="#d077f3"/>
    </linearGradient>
    <linearGradient id="_123-2" data-name="  123" x1="43.6" y1="166.91" x2="43.6" y2="151.4" xlink:href="#_123"/>
    <linearGradient id="_21-2" data-name="  21" x1="-7177.15" x2="-7177.15" y2="124.69" gradientTransform="translate(-6962.78) rotate(-180) scale(1 -1)" xlink:href="#_21"/>
    <linearGradient id="_123-3" data-name="  123" x1="-7176.51" x2="-7176.51" y2="132.86" gradientTransform="translate(-6962.78) rotate(-180) scale(1 -1)" xlink:href="#_123"/>
    <linearGradient id="_123-4" data-name="  123" x1="-7165.22" y1="166.91" x2="-7165.22" y2="151.4" gradientTransform="translate(-6962.78) rotate(-180) scale(1 -1)" xlink:href="#_123"/>
    <linearGradient id="_21-3" data-name="  21" x1="123.12" y1="275.25" x2="123.12" y2="221.85" xlink:href="#_21"/>
    <linearGradient id="_56" data-name="  56" x1="122.89" y1="232.67" x2="122.89" y2="34.74" gradientUnits="userSpaceOnUse">
      <stop offset="0" stop-color="#ffa995"/>
      <stop offset=".43" stop-color="#f8aa98"/>
      <stop offset=".54" stop-color="#faa28f"/>
      <stop offset=".77" stop-color="#fd9883"/>
      <stop offset="1" stop-color="#ff957f"/>
    </linearGradient>
    <linearGradient id="_5" data-name="  5" x1="122.89" y1="232.67" x2="122.89" y2="165.08" gradientUnits="userSpaceOnUse">
      <stop offset="0" stop-color="#d077f3"/>
      <stop offset=".16" stop-color="#d37ff1"/>
      <stop offset=".4" stop-color="#dd97eb"/>
      <stop offset=".7" stop-color="#ecbde3"/>
      <stop offset="1" stop-color="#ffe9da"/>
    </linearGradient>
    <linearGradient id="_307" data-name="  307" x1="122.89" y1="182.3" x2="122.89" y2="161.22" gradientUnits="userSpaceOnUse">
      <stop offset="0" stop-color="#f87a7e"/>
      <stop offset=".06" stop-color="#f87b7e"/>
      <stop offset=".53" stop-color="#fd877e"/>
      <stop offset="1" stop-color="#ff8c7f"/>
    </linearGradient>
    <linearGradient id="_42" data-name="  42" x1="109.74" y1="181.05" x2="117.58" y2="181.05" gradientUnits="userSpaceOnUse">
      <stop offset="0" stop-color="#77254b"/>
      <stop offset="1" stop-color="#8d2542"/>
    </linearGradient>
    <linearGradient id="_42-2" data-name="  42" x1="-10054.22" y1="181.17" x2="-10046.4" y2="181.17" gradientTransform="translate(-9918.1) rotate(-180) scale(1 -1)" xlink:href="#_42"/>
    <linearGradient id="_123-5" data-name="  123" x1="109.97" y1="169.51" x2="109.97" y2="165.24" xlink:href="#_123"/>
    <linearGradient id="_123-6" data-name="  123" x1="135.8" y1="169.51" x2="135.8" y2="165.24" xlink:href="#_123"/>
    <linearGradient id="_300" data-name="  300" x1="808.63" y1="-703.48" x2="808.63" y2="-739.83" gradientTransform="translate(-829.6 731.71) rotate(9.01)" gradientUnits="userSpaceOnUse">
      <stop offset="0" stop-color="#ede1ff"/>
      <stop offset="1" stop-color="#bcc8fa"/>
    </linearGradient>
    <clipPath id="clippath">
      <path class="cls-45" d="M59.13,140.06c-2.63,3.62,3.37,20.79,13.85,22.46,10.48,1.66,31.38-5.15,31.38-5.15,0,0,1.78-19.37-8.55-26.68-10.33-7.31-31.94,2.83-36.68,9.38Z"/>
    </clipPath>
    <linearGradient id="_13" data-name="  13" x1="795.02" y1="-725.65" x2="825.83" y2="-725.65" gradientTransform="translate(-629.77 -678.64) rotate(90.8)" gradientUnits="userSpaceOnUse">
      <stop offset="0" stop-color="#566496"/>
      <stop offset="1" stop-color="#341752"/>
    </linearGradient>
    <linearGradient id="_11" data-name="  11" x1="810.43" y1="-716.41" x2="810.43" y2="-744.95" gradientTransform="translate(-612.67 -693.21) rotate(91.99)" gradientUnits="userSpaceOnUse">
      <stop offset="0" stop-color="#687aeb"/>
      <stop offset="1" stop-color="#21034c"/>
    </linearGradient>
    <linearGradient id="_8" data-name="  8" x1="810.43" y1="-719.46" x2="810.43" y2="-732.92" gradientTransform="translate(-570.02 -727.04) rotate(94.85)" gradientUnits="userSpaceOnUse">
      <stop offset="0" stop-color="#c57daa"/>
      <stop offset=".99" stop-color="#912e4e"/>
    </linearGradient>
    <linearGradient id="_300-2" data-name="  300" x1="2008.89" y1="-3588.98" x2="2008.89" y2="-3592.1" gradientTransform="translate(-3599.34 2003.29) rotate(33.92)" xlink:href="#_300"/>
    <linearGradient id="_300-3" data-name="  300" x1="805.29" y1="-719.79" x2="805.29" y2="-721.72" xlink:href="#_300"/>
    <linearGradient id="_300-4" data-name="  300" x1="-9427.87" y1="919.73" x2="-9427.87" y2="883.38" gradientTransform="translate(-9287.17 731.71) rotate(170.99) scale(1 -1)" xlink:href="#_300"/>
    <clipPath id="clippath-1">
      <path class="cls-45" d="M188.89,140.27c2.63,3.62-3.37,20.79-13.85,22.46-10.48,1.66-31.38-5.15-31.38-5.15,0,0-1.78-19.37,8.55-26.68,10.33-7.31,31.94,2.83,36.68,9.38Z"/>
    </clipPath>
    <linearGradient id="_13-2" data-name="  13" x1="-9441.48" y1="897.56" x2="-9410.67" y2="897.56" gradientTransform="translate(-2859.6 -8831.41) rotate(-114.06) scale(1 -1)" xlink:href="#_13"/>
    <linearGradient id="_11-2" data-name="  11" x1="-9426.07" y1="890.99" x2="-9426.07" y2="862.45" gradientTransform="translate(-8328.65 -4046.71) rotate(-159.18) scale(1 -1)" xlink:href="#_11"/>
    <linearGradient id="_8-2" data-name="  8" x1="-9426.07" y1="903.74" x2="-9426.07" y2="890.29" gradientTransform="translate(-9287.17 731.71) rotate(170.99) scale(1 -1)" xlink:href="#_8"/>
    <linearGradient id="_300-5" data-name="  300" x1="-6592.28" y1="2195.13" x2="-6592.28" y2="2192.01" gradientTransform="translate(-6517.44 2003.29) rotate(146.08) scale(1 -1)" xlink:href="#_300"/>
    <linearGradient id="_300-6" data-name="  300" x1="-9431.21" y1="903.42" x2="-9431.21" y2="901.48" gradientTransform="translate(-9287.17 731.71) rotate(170.99) scale(1 -1)" xlink:href="#_300"/>
    <linearGradient id="_121" data-name="  121" x1="-60.41" y1="252.71" x2="-66.63" y2="244.85" gradientTransform="translate(218.55 -146.25) rotate(-2.64)" gradientUnits="userSpaceOnUse">
      <stop offset="0" stop-color="#91314b"/>
      <stop offset="1" stop-color="#992542"/>
    </linearGradient>
    <linearGradient id="_121-2" data-name="  121" x1="-6520.83" y1="-120.6" x2="-6527.05" y2="-128.46" gradientTransform="translate(-6437.89 -190.04) rotate(-176.31) scale(1 -1)" xlink:href="#_121"/>
    <linearGradient id="_100" data-name="  100" x1="119.81" y1="6.03" x2="119.81" y2="145.06" gradientUnits="userSpaceOnUse">
      <stop offset="0" stop-color="#da6a4b"/>
      <stop offset="1" stop-color="#b53651"/>
    </linearGradient>
    <linearGradient id="_18" data-name="  18" x1="219.42" y1="78.15" x2="219.43" y2="78.09" gradientUnits="userSpaceOnUse">
      <stop offset="0" stop-color="#ffe9da"/>
      <stop offset=".99" stop-color="#8880ea"/>
    </linearGradient>
    <linearGradient id="_123-7" data-name="  123" x1="119.81" y1="147.18" x2="119.81" y2="-15.91" xlink:href="#_123"/>
    <linearGradient id="_123-8" data-name="  123" x1="115.88" y1="127.69" x2="87.85" y2="52.49" xlink:href="#_123"/>
    <linearGradient id="_123-9" data-name="  123" x1="39.33" y1="156.23" x2="11.3" y2="81.02" xlink:href="#_123"/>
  </defs>
  <g class="cls-33">
    <g id="Layer_2" data-name="Layer 2">
      <g id="Avatar_face" data-name="Avatar face">
        <g>
          <g>
            <g>
              <path class="cls-53" d="M126.3,260.5c-38.67,0-50.07,6.11-51.93,9.17,0,0-1.16,6.33-3.49,8.51,0,0-3.49,3.71-6.98,3.93-3.49,.22-6.98-2.84-9.3-1.75-2.33,1.09-5.81,7.42-5.81,7.42l-18.38,8.73H212.53s-31.4-11.79-38.61-18.01c0,0-5.81-7.31-3.72-11.24,0,0-4.77-6.76-43.9-6.77Z"/>
              <path class="cls-10" d="M68.79,293.46s-13.96,.44-20.01-5.68c0,0,3.49-6.33,5.82-7.42,0,0,.93,10.04,14.19,13.1Z"/>
              <path class="cls-17" d="M74.37,269.67c6.28,12.01,26.98,20.3,40.24,20.3,0,0-24.19,1.31-31.4-4.37-7.21-5.68-8.84-15.93-8.84-15.93Z"/>
              <path class="cls-12" d="M190.12,287.31c-8.77-2.28-19.76-5.52-19.76-5.52-9.82,5.02-19.43,5.52-29.39,5.11,10.46-3.03,20.77-5.33,29.23-19.63-2.09,3.93,3.72,11.24,3.72,11.24,2.82,2.43,9.32,5.71,16.2,8.8Z"/>
              <path class="cls-7" d="M93.78,266.18s-5.59-.42-8,2.64c-2.41,3.06,2.03,6.1,2.03,6.1,0,0,4.68-1.54,5.97-8.74Z"/>
              <path class="cls-11" d="M152.82,267.27s5.36-1.51,7.77,1.54c2.41,3.06-2.03,6.1-2.03,6.1,0,0-4.45-.44-5.74-7.65Z"/>
            </g>
            <g>
              <path class="cls-42" d="M51.19,141.98s-2.95-9.5-17.68-15.39c-14.73-5.89-20.3,2.95-21.28,12.77-.98,9.82,10.48,34.71,21.61,38.96,11.13,4.26,17.35-3.6,17.35-3.6v-32.74Z"/>
              <path class="cls-21" d="M51.19,158.98v9.98s-4.58-11.42-7.37-11.26c-2.78,.16-1.64,7.69-2.62,10.31-.98,2.62-4.91-.16-5.8-8.68-.88-8.51,4.98-8.42,4.98-8.42,0,0-6.49-15.21-14.51-10.79-8.02,4.42-3.39,24.67-3.39,24.67,0,0-11.04-19.22-8.73-26.3,2.31-7.08,9.17-7.58,20.3-.87,5.46,3.29,10.78,10.66,14.8,17.32,.84,1.39,1.62,2.76,2.34,4.04Z"/>
              <path class="cls-5" d="M51.19,158.07v6.8c-1.68-3.23-6.02-10.98-8.02-8.97-2.51,2.51-1.19,7.12-3.27,10.32-2.09,3.2-5.09-5.42-3.36-11.14,1.74-5.73,8.62-3.46,10.67-1.83,.49,.39,1.05,.98,1.65,1.69,.75,.9,1.56,1.99,2.34,3.13Z"/>
            </g>
            <g>
              <path class="cls-49" d="M194.85,141.98s2.95-9.5,17.68-15.39c14.73-5.89,20.3,2.95,21.28,12.77,.98,9.82-10.48,34.71-21.61,38.96-11.13,4.26-17.35-3.6-17.35-3.6v-32.74Z"/>
              <path class="cls-22" d="M194.85,158.98v9.98s4.58-11.42,7.37-11.26c2.78,.16,1.64,7.69,2.62,10.31,.98,2.62,4.91-.16,5.8-8.68,.88-8.51-4.98-8.42-4.98-8.42,0,0,6.49-15.21,14.51-10.79,8.02,4.42,3.39,24.67,3.39,24.67,0,0,11.04-19.22,8.73-26.3-2.31-7.08-9.17-7.58-20.3-.87-5.46,3.29-10.78,10.66-14.8,17.32-.84,1.39-1.62,2.76-2.34,4.04Z"/>
              <path class="cls-16" d="M194.85,158.07v6.8c1.68-3.23,6.02-10.98,8.02-8.97,2.51,2.51,1.19,7.12,3.27,10.32,2.09,3.2,5.09-5.42,3.36-11.14-1.74-5.73-8.62-3.46-10.67-1.83-.49,.39-1.05,.98-1.65,1.69-.75,.9-1.56,1.99-2.34,3.13Z"/>
            </g>
            <path class="cls-23" d="M152.23,263.37v-50.07l-29.11,3.48-29.11-3.48v50.07c0,8.69-6.21,11.54-6.21,11.54,0,0,5.88,8.43,35.31,8.43s35.31-8.43,35.31-8.43c0,0-6.21-2.85-6.21-11.54Z"/>
            <path class="cls-3" d="M152.23,213.3v38.86c-4.63,4.71-10.68,8.42-18.43,8.99-19.06,1.41-34.6-21.31-39.78-29.93v-17.93l29.11,3.48,29.11-3.48Z"/>
            <g>
              <path class="cls-25" d="M196.23,116.66c0-24.7,3.51-81.93-73.34-81.93S49.55,91.96,49.55,116.66s-7.53,63.62-.33,76.12c17.28,29.99,59.26,39.88,73.67,39.88s56.39-9.89,73.67-39.88c7.2-12.5-.33-50.31-.33-76.12Z"/>
              <path class="cls-4" d="M196.56,192.78c-17.28,29.99-59.26,39.89-73.67,39.89s-56.39-9.89-73.67-39.89c-2.5-4.34-3.23-20.37-3.11-27.71,.1,6.09,.94,21.07,3.11,24.83,17.28,29.99,59.26,39.88,73.67,39.88s56.39-9.89,73.67-39.88c2.17-3.76,3-18.75,3.11-24.83,.12,7.33-.61,23.36-3.11,27.71Z"/>
            </g>
          </g>
          <g>
            <path class="cls-18" d="M102.14,202.48s9.67,14.3,20.54,14.3,21.08-14.3,21.08-14.3h-41.63Z"/>
            <path class="cls-26" d="M122.97,210.98c14.72-.02,27.93-15.02,27.93-15.02-23.22,.57-27.63,3.44-27.95,3.67-.32-.23-4.73-3.1-27.95-3.67,0,0,13.2,15,27.93,15.02h0s.01,0,.02,0,.02,0,.02,0Z"/>
            <path class="cls-35" d="M122.97,190.71s-14.34,1.06-25.3,5.03c0,0,8.22,.09,18.01,1.88,3.86,.7,10.19,.55,14.04-.16,9.54-1.75,17.62-1.7,17.62-1.7-10.96-3.97-24.38-5.06-24.38-5.06Z"/>
            <path class="cls-37" d="M89.66,194.03c.49,.43,1.13,.77,1.77,1.01,.65,.25,1.33,.41,2.01,.51,.69,.1,1.38,.13,2.09,.14l2.14,.04c2.85,.07,5.7,.2,8.55,.46,3.62,.32,9.34,1.37,13.01,2.1,2.21,.44,4.48,.41,6.68-.08,.11-.02,.22-.05,.33-.07,1.16-.26,2.32-.47,3.49-.68,2.33-.41,4.68-.72,7.03-.98,2.35-.25,4.7-.44,7.06-.57,1.18-.07,2.36-.1,3.54-.15l3.54-.07h-.02c.42-.05,.86-.12,1.29-.21,.43-.09,.85-.2,1.27-.33,.83-.26,1.64-.61,2.31-1.13l.24,.29c-.72,.59-1.56,.98-2.41,1.28-.43,.15-.86,.27-1.3,.38-.44,.11-.88,.2-1.33,.26h0s-.02,0-.02,0l-3.52,.17c-1.17,.09-2.34,.14-3.51,.25-2.34,.19-4.67,.44-7,.76-2.32,.32-4.64,.7-6.93,1.17-1.15,.24-2.29,.48-3.42,.77-.01,0-.02,0-.03,0-2.43,.6-4.96,.64-7.4,.1-3.72-.82-9.4-2-12.94-2.4-2.82-.33-5.65-.54-8.49-.69l-2.13-.1c-.71-.02-1.45-.08-2.16-.2-.72-.12-1.42-.32-2.1-.6-.68-.28-1.32-.63-1.88-1.16l.27-.26Z"/>
            <path class="cls-28" d="M93.91,190.61s-4.64,4.92-6.05,7.56c0,0-1.62-4.86,.13-5.9,1.74-1.04,5.93-1.66,5.93-1.66Z"/>
            <path class="cls-28" d="M152.15,191.84s5.28,3.49,5.66,6.33c0,0,.53-4.67-.82-5.9-1.35-1.23-4.84-.43-4.84-.43Z"/>
            <path class="cls-29" d="M142.44,203.47s-2.62-2.69-8.31-1.75c0,0-5.8,2.22-6.06,5.48,0,0,2.09,1.6,4.45,1.84,0,0,5.91-2.37,9.92-5.57Z"/>
            <path class="cls-41" d="M110.52,196.74s11.99-1.15,22.67,.18c0,0-7.11,1.99-10.51,1.95-3.39-.04-12.16-2.14-12.16-2.14Z"/>
          </g>
          <g>
            <path class="cls-55" d="M136.82,181.79c-3.54,.61-4.15-.91-7.19-.91s-4.05,2.02-6.74,2.02-3.7-2.02-6.74-2.02-3.65,1.52-7.19,.91c-3.19-.55-4.66-7.47-3.23-11.81,0-.02,0-.02,0-.03,.16-.48,.35-.92,.58-1.33,2.33-4.05,11.85-8.31,16.57-8.31s14.23,4.26,16.57,8.31c.36,.63,.64,1.37,.82,2.17,1.02,4.34-.46,10.49-3.46,11Z"/>
            <path class="cls-3" d="M136.82,181.79c-3.54,.61-4.15-.91-7.19-.91s-4.05,2.02-6.74,2.02-3.7-2.02-6.74-2.02-3.65,1.52-7.19,.91c-3.19-.55-4.66-7.47-3.23-11.81-.11,.41-1.01,4.39,.88,7.55,.68,1.14,2.11,1.59,3.35,1.11,2.79-1.09,8.57-2.91,14.82-2.37,5.12,.45,8.68,1.44,10.74,2.18,1.4,.51,2.95-.17,3.52-1.54,.62-1.48,1.21-3.57,1.22-6.12,1.02,4.34-.46,10.49-3.46,11Z"/>
            <path class="cls-32" d="M110.27,181.93c-1.74-.18,.84-3.23,7.31-.89,0,0-6,1.02-7.31,.89Z"/>
            <path class="cls-51" d="M135.6,181.93c1.74-.18-1.01-2.7-7.31-.89,0,0,6,1.02,7.31,.89Z"/>
            <path class="cls-3" d="M108.31,181.58c-.93-1.52,.54-2.54,1.65-2.95,1.11-.41,5.94-2.46,12.93-2.46s16.6,2.37,14.57,5.41c-2.03,3.04-9.38,4.77-15.84,4.77-9.27,0-13.31-4.77-13.31-4.77Z"/>
            <path class="cls-6" d="M106.96,167.68c2.4-.98,4.4,1.43,5.68,2.3,1.28,.87-1.3-2.95-4.21-3.73l-1.47,1.43Z"/>
            <path class="cls-14" d="M138.81,167.68c-2.4-.98-4.4,1.43-5.68,2.3-1.28,.87,1.37-2.95,4.28-3.73l1.39,1.43Z"/>
            <path class="cls-50" d="M126.28,171.61c-.25,.55-.77,2.38,.68,2.58s2.87-.86,3.07-1.29c.2-.43-.06-1.75-1.15-1.95-1.08-.2-2.16-.31-2.6,.66Z"/>
          </g>
          <g>
            <path class="cls-1" d="M104.36,157.37s-20.9,6.81-31.38,5.15c-8.8-1.4-14.44-13.72-14.46-19.78,0-1.16,.19-2.09,.61-2.67,4.74-6.54,26.36-16.68,36.68-9.37,5.18,3.66,7.31,10.36,8.16,16.13,.84,5.73,.39,10.55,.39,10.55Z"/>
            <g class="cls-44">
              <circle class="cls-54" cx="84.49" cy="141.9" r="15.41" transform="translate(-68.02 205.27) rotate(-81.79)"/>
              <circle class="cls-31" cx="84.49" cy="141.9" r="14.18" transform="translate(-66.68 208.4) rotate(-82.98)"/>
              <circle class="cls-19" cx="84.49" cy="141.9" r="8.69" transform="translate(-63.16 215.88) rotate(-85.84)"/>
            </g>
            <path class="cls-3" d="M103.96,146.82c-7.97-5.5-22.51-8.21-45.45-4.09,0-1.16,.19-2.09,.61-2.67,4.74-6.54,26.36-16.68,36.68-9.37,5.18,3.66,7.31,10.36,8.16,16.13Z"/>
            <path class="cls-43" d="M79.6,121.85c-12.06,1.71-19.78,17.36-19.78,17.36,0,0,12.57-12.24,27.67-7.73,12.92,3.85,15.88,12.19,15.88,12.17,0-.02,.29-25.21-23.77-21.8Z"/>
            <path class="cls-28" d="M60.25,150.09c5.57,6.11,10.42,12.44,22.34,12.29,0,0-6.56,1.92-13.68-1.06-7.12-2.98-8.65-11.23-8.65-11.23Z"/>
            <path class="cls-28" d="M104.39,151.18s3.11,3.69,1.45,6.14c-1.66,2.45-8.53,2.08-8.53,2.08,0,0,5.25-1.46,6.26-3.06s.82-5.16,.82-5.16Z"/>
            <path class="cls-24" d="M59.13,140.06s3.18-9.8,22.98-11.55c15.31-1.35,21.2,8.57,22.03,10.36,.83,1.8-.76,4.77-.76,4.77,0,0-7.75-11.71-22.06-11.65-14.31,.06-22.18,8.06-22.18,8.06Z"/>
            <path class="cls-2" d="M67.18,143.73s.97-1.03,7.96,1.88c.23,.1-.06,.49-.31,.45-1.7-.22-7.63-1.09-7.64-2.33Z"/>
            <path class="cls-27" d="M78.02,145.21c-1.01,.86-.16,1.62,.93,1.75,.8,.09,.93-1.17,.61-1.5-.32-.33-.89-.79-1.54-.24Z"/>
          </g>
          <g>
            <path class="cls-34" d="M143.65,157.57s20.9,6.81,31.38,5.15c8.8-1.4,14.44-13.72,14.46-19.78,0-1.16-.19-2.09-.61-2.67-4.74-6.54-26.36-16.68-36.68-9.37-5.18,3.66-7.31,10.36-8.16,16.13-.84,5.73-.39,10.55-.39,10.55Z"/>
            <g class="cls-38">
              <circle class="cls-39" cx="163.52" cy="142.11" r="15.41" transform="translate(-16.17 263.13) rotate(-74.95)"/>
              <circle class="cls-47" cx="163.52" cy="142.11" r="14.18" transform="translate(-49.02 100.15) rotate(-29.83)"/>
              <path class="cls-9" d="M154.94,143.47c.75,4.74,5.2,7.97,9.94,7.22,4.74-.75,7.97-5.2,7.22-9.94s-5.2-7.97-9.94-7.22c-4.74,.75-7.97,5.2-7.22,9.94Z"/>
            </g>
            <path class="cls-3" d="M144.05,147.03c7.97-5.5,22.51-8.21,45.45-4.09,0-1.16-.19-2.09-.61-2.67-4.74-6.54-26.36-16.68-36.68-9.37-5.18,3.66-7.31,10.36-8.16,16.13Z"/>
            <path class="cls-43" d="M168.41,122.06c12.06,1.71,19.78,17.36,19.78,17.36,0,0-12.57-12.24-27.67-7.73-12.92,3.85-15.88,12.19-15.88,12.17,0-.02-.29-25.21,23.77-21.8Z"/>
            <path class="cls-28" d="M187.76,150.3c-5.57,6.11-10.42,12.44-22.34,12.29,0,0,6.56,1.92,13.68-1.06,7.12-2.98,8.65-11.23,8.65-11.23Z"/>
            <path class="cls-28" d="M143.62,151.39s-3.11,3.69-1.45,6.14c1.66,2.45,8.53,2.08,8.53,2.08,0,0-5.25-1.46-6.26-3.06-1.01-1.6-.82-5.16-.82-5.16Z"/>
            <path class="cls-24" d="M188.89,140.27s-3.18-9.8-22.98-11.55c-15.31-1.35-21.2,8.57-22.03,10.36-.83,1.8,.76,4.77,.76,4.77,0,0,7.75-11.71,22.06-11.65,14.32,.06,22.18,8.06,22.18,8.06Z"/>
            <path class="cls-46" d="M180.84,143.94s-.97-1.03-7.96,1.88c-.23,.1,.06,.49,.31,.45,1.7-.22,7.63-1.09,7.64-2.33Z"/>
            <path class="cls-40" d="M170,145.42c1.01,.86,.16,1.62-.93,1.75-.8,.09-.93-1.17-.61-1.5,.32-.33,.89-.79,1.54-.24Z"/>
          </g>
          <g>
            <path class="cls-52" d="M192.79,108.1s-13.23-2.5-23.64-1.86c-3.64,.22-7.68,.79-11.4,1.43-6.92,1.19-12.71,2.63-12.71,2.63-4.22-6.2-1.9-12.7-1.9-12.7,3.45-3.44,7.47-2.64,7.47-2.64-2.26,3.05-3.43,9.3-3.43,9.3,3.79-5.94,8.45-9.53,8.45-9.53,0,0,14.65,.92,23.92,2.4,3.26,.52,5.85,1.11,6.91,1.75,4.08,2.46,6.32,9.21,6.32,9.21Z"/>
            <path class="cls-3" d="M192.79,108.1s-13.23-2.5-23.64-1.86c-3.64,.22-7.68,.79-11.4,1.43,13.7-6.12,23.73-6.75,24.88-6.71,2.71,.1-3.08-3.82-3.08-3.82,3.26,.52,5.85,1.11,6.91,1.75,4.08,2.46,6.32,9.21,6.32,9.21Z"/>
          </g>
          <g>
            <path class="cls-48" d="M54.06,107.62s13.27-2.26,23.67-1.43c3.64,.29,7.67,.93,11.37,1.63,6.89,1.31,12.66,2.87,12.66,2.87,4.33-6.12,2.13-12.66,2.13-12.66-3.38-3.5-7.42-2.77-7.42-2.77,2.21,3.1,3.26,9.36,3.26,9.36-3.68-6.01-8.27-9.68-8.27-9.68,0,0-14.66,.66-23.96,1.97-3.27,.46-5.87,1-6.95,1.62-4.12,2.39-6.49,9.1-6.49,9.1Z"/>
            <path class="cls-3" d="M54.06,107.62s13.27-2.26,23.67-1.43c3.64,.29,7.67,.93,11.37,1.63-13.59-6.37-23.6-7.18-24.75-7.16-2.71,.05,3.15-3.76,3.15-3.76-3.27,.46-5.87,1-6.95,1.62-4.12,2.39-6.49,9.1-6.49,9.1Z"/>
          </g>
          <g>
            <path class="cls-36" d="M239.45,124.69c-1.04,2.76-8.74,5.02-8.74,5.02-3.61-4.45-9-3.62-16.98-1.74-7.98,1.88-16.29,9.79-16.29,9.79,0,0,2.89,6.51,1.08,14.38,0,0-7.77-6.34-12.5-21.01-3.06-9.47-7.55-26.68-7.34-29.8s10.62-11.66,10.62-11.66c-7.49-.83-16.23-12.9-20.61-19.57-1.07-1.64,1.25-14.36,1.25-14.36-1.67-2.08-8.12-5.62-8.12-5.62l.42-3.54,.42-1.66-2.29,1.87-1.87,3.54c-8.95,19.36-83.05,31.01-83.05,31.01,0,0,4.37,7.7,4.58,12.07,.21,4.37-13.74,22.9-17.28,23.52-3.54,.62-7.43-.42-7.43-.42,.62,19.15-7.69,31.36-7.69,31.36-1.52-5.83-.52-12.06-.52-12.06-4.85-5.64-13.6-9.24-21.62-10.57-8.02-1.32-12.36,9.34-12.36,9.34,0,0-10.53-9.34-9.7-14.75,.83-5.41,6.24-10.82,6.24-10.82,0,0-12.28-13.74-9.16-20.81,3.12-7.08,22.34-16.09,22.34-16.09,0,0-2.03-12.42-1.94-14.71,.03-.82,.27-1.77,.71-2.81h0c3.23-7.76,17.38-20.89,39.52-28.55,9.87-3.41,32.47-5.27,32.47-5.27v-.02c-.15-.4-2.67-7.41-.78-12.54,.41-1.1,1.66-2.19,3.58-3.2,7.25-3.8,24.04-6.42,40.5-4.23,14.07,1.87,22.95,8.57,27.89,14.59h0c2.38,2.89,3.85,5.63,4.57,7.61,2.22,6.1,1.39,13.32,1.39,13.32,0,0,2.71-3.89,5.62-3.89,.87,0,3.99,1.01,8.1,2.52,9.61,3.52,24.66,9.77,29.24,12.26,6.54,3.54,8.03,12.07,8.03,16.44,0,1.15-.19,2.7-.47,4.35h0c-.77,4.6-2.23,10.01-2.23,10.01,.23,0,.48,.04,.75,.12h0c2.71,.85,6.9,5.81,10.38,10.96,3.4,5.03,6.11,10.25,6.14,12.01,.04,3.75-3.72,5.83-3.72,5.83,4.18,2.08,7.88,14.99,6.84,17.74Z"/>
            <g>
              <path class="cls-20" d="M219.05,78.02l.75,.12c-.27-.08-.52-.12-.75-.12Z"/>
              <path class="cls-15" d="M232.61,106.95s3.76-2.08,3.72-5.83c-.02-1.77-2.74-6.99-6.14-12.01,0,0,.52,5.21,.24,7.16-.28,1.94-17.48,1.38-21.93,0-4.44-1.39-14.15-11.11-11.1-13.88,3.06-2.77,21.65-4.37,21.65-4.37,0,0,1.47-5.41,2.23-10.01-.36,.31-8.97,7.43-13.05,6.89-4.16-.56-21.37-20.81-24.14-26.64-2.77-5.83,.4-13.3,.4-13.3-4.11-1.52-7.23-2.52-8.1-2.52-2.91,0-5.62,3.89-5.62,3.89,0,0,.83-7.22-1.39-13.32-.72-1.98-2.19-4.72-4.57-7.61h0s2.08,11.21-2.91,14.27c-1.24,.76-9.66,1.94-14.43-3.61,0,0,10.06-13.39,4.61-17.34-5.44-3.95-32.64-2.54-34.58-1.25-1.87,1.25,.63,9.37,5.41,10.82-.32-.18-1.07-6.34,2.92-6.94,4.17-.62,18.73,.9,20.19,4.02,1.46,3.12-24.19,8.43-29.14,7.79-5.55-.72-9.74-2.51-11.59-3.21-7.21-2.77-8.86-14.92-8.86-14.92-1.92,1.01-3.17,2.1-3.58,3.2-1.89,5.13,.63,12.14,.77,12.54v.02s3.06,3.6,2.79,6.39c-.04,.39-.95,1.33-2.49,2.66,0,0-33.04,16.55-36.99,15.42-3.95-1.14-10.2-4.28-4.34-7.19,5.86-2.91,11.21-3.12,10.17-1.87s-7.08,2.5-7.08,2.5c0,0,8.95,1.46,9.99-.83,1.04-2.29,2.91-6.87,1.46-8.02-4.15-3.26-24.98,10.72-26.43,13.01-1.46,2.29,11.86,13.74,17.57,12.51-2.66,1.73-5.04,3.22-6.93,4.35-1.89,1.12-3.31,1.88-4.05,2.14-5.55,1.95-23.87-3.05-25.65-7.26h0c-.44,1.06-.67,2-.71,2.82-.09,2.29,1.94,14.71,1.94,14.71,0,0-2.7,1.27-6.24,3.22-.04,.02-.08,.05-.12,.07,0,0-.02,.02-.03,.02-5.89,3.26-14,8.39-15.94,12.78-3.12,7.08,9.16,20.81,9.16,20.81,0,0-5.41,5.41-6.24,10.82-.09,.59-.05,1.23,.11,1.9,1.23,5.44,9.59,12.85,9.59,12.85,0,0,4.35-10.66,12.36-9.34,8.02,1.32,16.77,4.92,21.62,10.57,0,0-1.01,6.23,.52,12.06,0,0,3.46-5.09,5.75-13.85,1.26-4.8,2.16-10.72,1.94-17.52,0,0,3.89,1.04,7.43,.42,3.54-.62,17.48-19.15,17.28-23.52-.21-4.37-4.58-12.07-4.58-12.07,0,0,74.1-11.66,83.05-31.01l1.87-3.54,2.29-1.87-.42,1.66-.42,3.54s6.45,3.54,8.12,5.62c0,0-2.32,12.72-1.25,14.36,4.37,6.66,13.11,18.73,20.61,19.57,0,0-10.41,8.53-10.62,11.66s4.28,20.32,7.34,29.8c4.73,14.68,12.5,21.01,12.5,21.01,1.81-7.87-1.08-14.38-1.08-14.38,0,0,8.32-7.91,16.29-9.79,7.98-1.88,13.38-2.71,16.98,1.74,0,0,7.7-2.26,8.74-5.02,1.04-2.76-2.66-15.66-6.84-17.74Zm-172.01,3.47c-5.83,2.77-20.82-.27-23.31-1.39-2.5-1.11-4.95-29.33,6.32-26.64,10.48,2.5,7.73,14.21,7.73,14.21-3.16-2.71-12.11-3.11-11.56,0,.55,3.11,10.54,6.04,13.87,6.6,3.33,.56,15.27-8.6,12.21-10.82-2.96-2.16-11.12-5.86-11.63-6.09,.77,.13,18.87,3.42,19.96,8.03,1.11,4.72-7.77,13.32-13.6,16.1ZM126.64,52.69c-9.72,4.72-41.9,4.16-43.02,1.39-1.67-4.16,24.43-17.76,31.36-19.34,6.94-1.59,32.47,1.3,34.41,3.52,1.95,2.22-13.04,9.72-22.75,14.43Zm93.16,60.56c-.92,2.56-11.57,11.6-16.01,11.44-4.45-.16-18.59-20.79-15.27-22.88,11.94-7.49,21.5,6.11,21.5,6.11-8.28-3.88-9.56,6.38-7.59,7.5,1.98,1.11,11.62-.56,11.93-3.86,.3-3.31-.64-5.29-.64-5.29,0,0,6.99,4.44,6.08,6.99Z"/>
            </g>
            <path class="cls-13" d="M77.31,48.67s-6.41,5.65-19.11,13.36c-12.7,7.7-23.42,10.1-23.42,10.1,0,0,18.51,8.26,28.58,8.33,41.91,.26,87.12-21.91,87.12-21.91,0,0-61.59,20.05-76.2,11.09-5.41-3.31,3.03-20.95,3.03-20.95Z"/>
            <path class="cls-8" d="M53.38,134.04c-2.29,8.76-5.75,13.85-5.75,13.85-1.52-5.83-.52-12.06-.52-12.06-4.85-5.64-13.6-9.24-21.62-10.57-8.02-1.32-12.36,9.34-12.36,9.34,0,0-8.36-7.41-9.59-12.85h0c8.7,1.41,19.94-14.32,20.27-14.79-.33,.07-7.63,1.87-14.15,2.07,0,0-12.28-13.74-9.16-20.81,1.93-4.39,10.04-9.52,15.94-12.78-1.75,1.1-18.64,13.23-7.51,19.23,4.5,2.43,13.91-6.87,13.91-6.87,0,0-3.33-3.26-9.41-2.71,0,0,3.51-2.65,8.3-2.89,4.79-.23,7.49,5.18,7.91,7.88,.42,2.71,0,18.11,0,18.11,0,0,16.64,6.24,21.54,18.11,.86,2.08,1.58,4.75,2.19,7.73Z"/>
            <path class="cls-30" d="M100.21,45.24s12.9-8.23,27.73-7.78c8.28,.25,13.88,5.41,13.21,6.42-.67,1.01-10.66,5.36-10.66,5.36,0,0,3.37-3.42,3.8-5.66,.23-1.19-8.25-2.21-10.2-1.91-10.14,1.55-4.27,7-2.23,10.01,0,0-22.83,2.54-21.65-6.43Z"/>
            <path class="cls-30" d="M206.4,43.78s-14.82-1.97-17.11,1.46c-2.29,3.43,14.03,22.57,17.11,23.82,3.08,1.25,7.96-11.45,7.96-11.45,0,0-4.68,5.41-5.51,5.62-.83,.21-6.57-11.03-7.14-11.86-.56-.83,16.5,1.46,19.62,7.91,0,0-.33-11.02-14.94-15.5Z"/>
            <path class="cls-30" d="M57.4,43.22s13.91-3.14,30.36-11.65c16.45-8.51-13.48-5.8-13.48-5.8,0,0,11.51,1.5,3.37,6.8-6.64,4.33-14.57,8.05-20.26,10.65Z"/>
          </g>
        </g>
      </g>
    </g>
  </g>
</svg>