<?xml version="1.0" encoding="UTF-8"?>
<svg id="Layer_2" data-name="Layer 2" xmlns="http://www.w3.org/2000/svg" xmlns:xlink="http://www.w3.org/1999/xlink" viewBox="0 0 243.35 299.5">
  <defs>
    <style>
      .cls-1 {
        fill: url(#Sfumatura_senza_nome_27);
      }

      .cls-2 {
        fill: url(#Sfumatura_senza_nome_40);
      }

      .cls-3 {
        fill: url(#Sfumatura_senza_nome_1479);
      }

      .cls-4 {
        fill: url(#linear-gradient-2);
      }

      .cls-5 {
        fill: url(#Sfumatura_senza_nome_20-2);
      }

      .cls-6 {
        fill: url(#Sfumatura_senza_nome_691-9);
      }

      .cls-7 {
        fill: url(#Sfumatura_senza_nome_691-12);
      }

      .cls-8 {
        fill: url(#Sfumatura_senza_nome_878-5);
      }

      .cls-9 {
        fill: #fff;
      }

      .cls-10 {
        fill: #c2832a;
      }

      .cls-11 {
        fill: url(#Sfumatura_senza_nome_7-2);
      }

      .cls-12 {
        fill: url(#Sfumatura_senza_nome_37);
      }

      .cls-13 {
        fill: url(#Sfumatura_senza_nome_27-4);
      }

      .cls-14 {
        fill: url(#Sfumatura_senza_nome_1479-8);
      }

      .cls-15 {
        fill: #c20c03;
      }

      .cls-16 {
        fill: #9a5a05;
      }

      .cls-17 {
        fill: url(#linear-gradient-6);
      }

      .cls-18 {
        fill: url(#Sfumatura_senza_nome_691-14);
      }

      .cls-19 {
        fill: url(#Sfumatura_senza_nome_7-3);
      }

      .cls-20 {
        fill: url(#radial-gradient-4);
      }

      .cls-21 {
        fill: url(#Sfumatura_senza_nome_691-4);
      }

      .cls-22 {
        fill: #121601;
      }

      .cls-23 {
        fill: url(#Sfumatura_senza_nome_40-2);
      }

      .cls-24 {
        fill: #65ffff;
      }

      .cls-25 {
        fill: url(#Sfumatura_senza_nome_1479-5);
      }

      .cls-26 {
        fill: url(#Sfumatura_senza_nome_53);
      }

      .cls-27 {
        fill: url(#Sfumatura_senza_nome_691-10);
      }

      .cls-28 {
        fill: url(#Sfumatura_senza_nome_1479-7);
      }

      .cls-29 {
        fill: url(#linear-gradient-11);
      }

      .cls-30 {
        fill: url(#Sfumatura_senza_nome_878);
      }

      .cls-31 {
        fill: url(#Sfumatura_senza_nome_878-7);
      }

      .cls-32 {
        fill: #d6170f;
      }

      .cls-33 {
        fill: url(#linear-gradient-10);
      }

      .cls-34 {
        fill: url(#Sfumatura_senza_nome_43);
      }

      .cls-35 {
        fill: url(#radial-gradient);
      }

      .cls-36 {
        fill: #e7957c;
      }

      .cls-37 {
        fill: url(#Sfumatura_senza_nome_878-3);
      }

      .cls-38 {
        fill: url(#Sfumatura_senza_nome_691-11);
      }

      .cls-39 {
        fill: url(#Sfumatura_senza_nome_878-2);
      }

      .cls-40 {
        fill: #894e00;
      }

      .cls-41 {
        fill: #ae690f;
      }

      .cls-42 {
        fill: url(#Sfumatura_senza_nome_7);
      }

      .cls-43 {
        fill: #cf6858;
      }

      .cls-44 {
        fill: #fbcc77;
      }

      .cls-45 {
        fill: url(#Sfumatura_senza_nome_20-4);
      }

      .cls-46 {
        fill: url(#Sfumatura_senza_nome_878-10);
      }

      .cls-47 {
        fill: url(#Sfumatura_senza_nome_691-6);
      }

      .cls-48 {
        fill: url(#linear-gradient-5);
      }

      .cls-49 {
        fill: #ffc29f;
      }

      .cls-50 {
        fill: url(#Sfumatura_senza_nome_691);
      }

      .cls-51 {
        fill: url(#Sfumatura_senza_nome_23-2);
      }

      .cls-52 {
        fill: url(#radial-gradient-2);
      }

      .cls-53 {
        fill: url(#Sfumatura_senza_nome_878-9);
      }

      .cls-54 {
        fill: url(#Sfumatura_senza_nome_1479-4);
      }

      .cls-55 {
        fill: url(#Sfumatura_senza_nome_878-8);
      }

      .cls-56 {
        fill: #960403;
      }

      .cls-57 {
        fill: url(#radial-gradient-3);
      }

      .cls-58 {
        fill: url(#Sfumatura_senza_nome_1479-2);
      }

      .cls-59 {
        fill: url(#linear-gradient-7);
      }

      .cls-60 {
        fill: url(#Sfumatura_senza_nome_30);
      }

      .cls-61 {
        fill: url(#Sfumatura_senza_nome_691-2);
      }

      .cls-62 {
        fill: url(#Sfumatura_senza_nome_27-2);
      }

      .cls-63 {
        fill: url(#Sfumatura_senza_nome_1479-6);
      }

      .cls-64 {
        fill: url(#Sfumatura_senza_nome_23);
      }

      .cls-65 {
        fill: url(#Sfumatura_senza_nome_878-6);
      }

      .cls-66 {
        fill: url(#linear-gradient-9);
      }

      .cls-67 {
        fill: url(#Sfumatura_senza_nome_3-2);
      }

      .cls-68 {
        fill: #dba34c;
      }

      .cls-69 {
        fill: url(#Sfumatura_senza_nome_878-4);
      }

      .cls-70 {
        fill: url(#linear-gradient-3);
      }

      .cls-71 {
        fill: url(#Sfumatura_senza_nome_30-2);
      }

      .cls-72 {
        fill: url(#linear-gradient);
      }

      .cls-73 {
        fill: url(#Sfumatura_senza_nome_691-3);
      }

      .cls-74 {
        fill: url(#Sfumatura_senza_nome_27-3);
      }

      .cls-75 {
        fill: url(#Sfumatura_senza_nome_691-13);
      }

      .cls-76 {
        fill: url(#Sfumatura_senza_nome_691-7);
      }

      .cls-77 {
        fill: url(#Sfumatura_senza_nome_3);
      }

      .cls-78 {
        fill: #f3ac8e;
      }

      .cls-79 {
        fill: url(#Sfumatura_senza_nome_1479-3);
      }

      .cls-80 {
        fill: url(#Sfumatura_senza_nome_691-5);
      }

      .cls-81 {
        fill: url(#Sfumatura_senza_nome_20);
      }

      .cls-82 {
        fill: url(#Sfumatura_senza_nome_37-2);
      }

      .cls-83 {
        fill: url(#linear-gradient-4);
      }

      .cls-84 {
        fill: url(#Sfumatura_senza_nome_20-3);
      }

      .cls-85 {
        fill: url(#Sfumatura_senza_nome_43-2);
      }

      .cls-86 {
        fill: url(#linear-gradient-8);
      }

      .cls-87 {
        fill: url(#Sfumatura_senza_nome_691-8);
      }

      .cls-88 {
        fill: url(#Sfumatura_senza_nome_53-2);
      }

      .cls-89 {
        fill: url(#linear-gradient-12);
      }

      .cls-90 {
        fill: #ffebd2;
      }

      .cls-91 {
        fill: url(#linear-gradient-13);
      }
    </style>
    <linearGradient id="linear-gradient" x1="116.74" y1="201.76" x2="116.74" y2="258.37" gradientUnits="userSpaceOnUse">
      <stop offset="0" stop-color="#e7957c"/>
      <stop offset="1" stop-color="#ffc29f"/>
    </linearGradient>
    <linearGradient id="linear-gradient-2" x1="195.31" y1="143.75" x2="202.37" y2="141.58" xlink:href="#linear-gradient"/>
    <radialGradient id="radial-gradient" cx="-211.93" cy="-872.62" fx="-211.93" fy="-872.62" r="25.05" gradientTransform="translate(263.35 630.65) scale(.83 .54)" gradientUnits="userSpaceOnUse">
      <stop offset="0" stop-color="#ffa68f"/>
      <stop offset="1" stop-color="#ffc29f"/>
    </radialGradient>
    <radialGradient id="radial-gradient-2" cx="-323.26" cy="-872.61" fx="-323.26" fy="-872.61" r="25.05" gradientTransform="translate(392.89 630.65) scale(.64 .54)" xlink:href="#radial-gradient"/>
    <linearGradient id="linear-gradient-3" x1="56.11" y1="151.86" x2="43.49" y2="157.36" xlink:href="#linear-gradient"/>
    <linearGradient id="linear-gradient-4" x1="145.72" y1="160.17" x2="145.72" y2="145.64" gradientUnits="userSpaceOnUse">
      <stop offset="0" stop-color="#ffd7b6"/>
      <stop offset="1" stop-color="#ffc29f"/>
    </linearGradient>
    <linearGradient id="linear-gradient-5" x1="117.64" y1="75.4" x2="118.55" y2="68.42" gradientTransform="translate(10.45 130.19) rotate(-6.35) skewX(-.03)" xlink:href="#linear-gradient-4"/>
    <radialGradient id="radial-gradient-3" cx="-81.66" cy="-114.73" fx="-81.66" fy="-114.73" r="13.65" gradientTransform="translate(228.54 287.62) rotate(-3.46) scale(.9 .78) skewX(3.42)" gradientUnits="userSpaceOnUse">
      <stop offset="0" stop-color="#f93d36"/>
      <stop offset="1" stop-color="#f3251c"/>
    </radialGradient>
    <radialGradient id="radial-gradient-4" cx="-82.86" cy="-118.06" fx="-82.86" fy="-118.06" r="14.8" gradientTransform="translate(228.54 287.62) rotate(-3.46) scale(.9 .78) skewX(3.42)" gradientUnits="userSpaceOnUse">
      <stop offset="0" stop-color="#ffbdff"/>
      <stop offset="1" stop-color="#f3251c"/>
    </radialGradient>
    <linearGradient id="linear-gradient-6" x1="96.42" y1="97.98" x2="99.67" y2="122.01" xlink:href="#linear-gradient"/>
    <linearGradient id="linear-gradient-7" x1="180.78" y1="98.91" x2="177.52" y2="120.9" xlink:href="#linear-gradient"/>
    <radialGradient id="Sfumatura_senza_nome_53" data-name="Sfumatura senza nome 53" cx="637.97" cy="92.61" fx="637.97" fy="92.61" r="8.14" gradientTransform="translate(-813.26 -1088.59) rotate(48.19) scale(2.4 1.34) skewX(-.21)" gradientUnits="userSpaceOnUse">
      <stop offset="0" stop-color="#ffffd2"/>
      <stop offset=".16" stop-color="#f9fece"/>
      <stop offset=".34" stop-color="#ebfcc5"/>
      <stop offset=".5" stop-color="#d8f9b8"/>
      <stop offset="1" stop-color="#ffc29f"/>
    </radialGradient>
    <linearGradient id="Sfumatura_senza_nome_40" data-name="Sfumatura senza nome 40" x1="70.74" y1="137.21" x2="122.75" y2="137.21" gradientUnits="userSpaceOnUse">
      <stop offset="0" stop-color="#a38366"/>
      <stop offset="1" stop-color="#ffc29f"/>
    </linearGradient>
    <linearGradient id="Sfumatura_senza_nome_30" data-name="Sfumatura senza nome 30" x1="70.56" y1="121.47" x2="121.8" y2="121.47" gradientUnits="userSpaceOnUse">
      <stop offset="0" stop-color="#a88769"/>
      <stop offset="1" stop-color="#ffc29f"/>
    </linearGradient>
    <linearGradient id="Sfumatura_senza_nome_27" data-name="Sfumatura senza nome 27" x1="70.68" y1="122.42" x2="121.68" y2="122.42" gradientUnits="userSpaceOnUse">
      <stop offset="0" stop-color="#6b5d43"/>
      <stop offset="1" stop-color="#ffc29f"/>
    </linearGradient>
    <linearGradient id="Sfumatura_senza_nome_37" data-name="Sfumatura senza nome 37" x1="70.68" y1="125.11" x2="116.6" y2="125.11" gradientUnits="userSpaceOnUse">
      <stop offset="0" stop-color="#433926"/>
      <stop offset="1" stop-color="#d79b78"/>
    </linearGradient>
    <linearGradient id="Sfumatura_senza_nome_27-2" data-name="Sfumatura senza nome 27" x1="73.11" y1="139" x2="122.75" y2="139" xlink:href="#Sfumatura_senza_nome_27"/>
    <linearGradient id="Sfumatura_senza_nome_43" data-name="Sfumatura senza nome 43" x1="98.55" y1="141.41" x2="147.15" y2="148.89" gradientUnits="userSpaceOnUse">
      <stop offset="0" stop-color="#3b3c25"/>
      <stop offset="1" stop-color="#ffc29f"/>
    </linearGradient>
    <linearGradient id="Sfumatura_senza_nome_23" data-name="Sfumatura senza nome 23" x1="91.14" y1="139.53" x2="122.01" y2="144.28" gradientUnits="userSpaceOnUse">
      <stop offset="0" stop-color="#202a14"/>
      <stop offset="1" stop-color="#ffc29f"/>
    </linearGradient>
    <linearGradient id="linear-gradient-8" x1="101.07" y1="128.09" x2="119.12" y2="131.21" gradientUnits="userSpaceOnUse">
      <stop offset="0" stop-color="#0d1c2b"/>
      <stop offset="1" stop-color="#ed7d61"/>
    </linearGradient>
    <linearGradient id="Sfumatura_senza_nome_20" data-name="Sfumatura senza nome 20" x1="85.45" y1="123.49" x2="120.37" y2="133.47" gradientUnits="userSpaceOnUse">
      <stop offset="0" stop-color="#202a14"/>
      <stop offset=".48" stop-color="#00b470"/>
      <stop offset="1" stop-color="#fff5a4"/>
    </linearGradient>
    <linearGradient id="Sfumatura_senza_nome_20-2" data-name="Sfumatura senza nome 20" x1="82.31" y1="128.64" x2="113.34" y2="117.24" xlink:href="#Sfumatura_senza_nome_20"/>
    <linearGradient id="linear-gradient-9" x1="100.51" y1="139.49" x2="100.51" y2="128.35" gradientUnits="userSpaceOnUse">
      <stop offset="0" stop-color="#008ec5"/>
      <stop offset="1" stop-color="#0039c5"/>
    </linearGradient>
    <linearGradient id="linear-gradient-10" x1="100.51" y1="139.49" x2="100.51" y2="128.35" gradientUnits="userSpaceOnUse">
      <stop offset="0" stop-color="#00c3c5"/>
      <stop offset="1" stop-color="#0059c5"/>
    </linearGradient>
    <radialGradient id="Sfumatura_senza_nome_53-2" data-name="Sfumatura senza nome 53" cx="1252.14" cy="-1132.18" fx="1252.14" fy="-1132.18" r="8.15" gradientTransform="translate(2468.85 -1067.42) rotate(123.54) scale(2.13 -1.11) skewX(9.12)" xlink:href="#Sfumatura_senza_nome_53"/>
    <linearGradient id="Sfumatura_senza_nome_40-2" data-name="Sfumatura senza nome 40" x1="1896.86" y1="147.74" x2="1943.3" y2="147.74" gradientTransform="translate(1754.27 12.22) rotate(-179.16) scale(.82 -1) skewX(-1.02)" xlink:href="#Sfumatura_senza_nome_40"/>
    <linearGradient id="Sfumatura_senza_nome_30-2" data-name="Sfumatura senza nome 30" x1="1896.7" y1="132" x2="1942.45" y2="132" gradientTransform="translate(1754.27 12.22) rotate(-179.16) scale(.82 -1) skewX(-1.02)" xlink:href="#Sfumatura_senza_nome_30"/>
    <linearGradient id="Sfumatura_senza_nome_27-3" data-name="Sfumatura senza nome 27" x1="1896.81" y1="132.95" x2="1942.34" y2="132.95" gradientTransform="translate(1754.27 12.22) rotate(-179.16) scale(.82 -1) skewX(-1.02)" xlink:href="#Sfumatura_senza_nome_27"/>
    <linearGradient id="Sfumatura_senza_nome_37-2" data-name="Sfumatura senza nome 37" x1="1896.81" y1="135.63" x2="1937.8" y2="135.63" gradientTransform="translate(1754.27 12.22) rotate(-179.16) scale(.82 -1) skewX(-1.02)" xlink:href="#Sfumatura_senza_nome_37"/>
    <linearGradient id="Sfumatura_senza_nome_27-4" data-name="Sfumatura senza nome 27" x1="1898.98" y1="149.52" x2="1943.3" y2="149.52" gradientTransform="translate(1754.27 12.22) rotate(-179.16) scale(.82 -1) skewX(-1.02)" xlink:href="#Sfumatura_senza_nome_27"/>
    <linearGradient id="Sfumatura_senza_nome_43-2" data-name="Sfumatura senza nome 43" x1="1921.67" y1="151.72" x2="1965.29" y2="158.43" gradientTransform="translate(1754.27 12.22) rotate(-179.16) scale(.82 -1) skewX(-1.02)" xlink:href="#Sfumatura_senza_nome_43"/>
    <linearGradient id="Sfumatura_senza_nome_23-2" data-name="Sfumatura senza nome 23" x1="1915.08" y1="150.04" x2="1942.89" y2="154.32" gradientTransform="translate(1754.27 12.22) rotate(-179.16) scale(.82 -1) skewX(-1.02)" xlink:href="#Sfumatura_senza_nome_23"/>
    <linearGradient id="linear-gradient-11" x1="1924.08" y1="138.82" x2="1940.28" y2="141.62" gradientTransform="translate(1754.27 12.22) rotate(-179.16) scale(.82 -1) skewX(-1.02)" xlink:href="#linear-gradient-8"/>
    <linearGradient id="Sfumatura_senza_nome_20-3" data-name="Sfumatura senza nome 20" x1="1910.2" y1="134.35" x2="1941.63" y2="143.33" gradientTransform="translate(1754.27 12.22) rotate(-179.16) scale(.82 -1) skewX(-1.02)" xlink:href="#Sfumatura_senza_nome_20"/>
    <linearGradient id="Sfumatura_senza_nome_20-4" data-name="Sfumatura senza nome 20" x1="1907" y1="138.46" x2="1934.77" y2="128.26" gradientTransform="translate(1754.27 12.22) rotate(-179.16) scale(.82 -1) skewX(-1.02)" xlink:href="#Sfumatura_senza_nome_20"/>
    <linearGradient id="linear-gradient-12" x1="1925.36" y1="160.01" x2="1925.36" y2="149" gradientTransform="translate(1754.27 22.91) rotate(-178.45) scale(.82 -1) skewX(-1.89)" xlink:href="#linear-gradient-9"/>
    <linearGradient id="linear-gradient-13" x1="1925.36" y1="160.01" x2="1925.36" y2="149" gradientTransform="translate(1754.27 22.91) rotate(-178.45) scale(.82 -1) skewX(-1.89)" xlink:href="#linear-gradient-10"/>
    <linearGradient id="Sfumatura_senza_nome_1479" data-name="Sfumatura senza nome 1479" x1="55.34" y1="132.59" x2="52.01" y2="171.54" gradientUnits="userSpaceOnUse">
      <stop offset=".02" stop-color="#ae690f"/>
      <stop offset=".63" stop-color="#e0a952"/>
      <stop offset="1" stop-color="#fbcc77"/>
    </linearGradient>
    <linearGradient id="Sfumatura_senza_nome_1479-2" data-name="Sfumatura senza nome 1479" x1="66.85" y1="187.34" x2="68.75" y2="195.89" xlink:href="#Sfumatura_senza_nome_1479"/>
    <linearGradient id="Sfumatura_senza_nome_691" data-name="Sfumatura senza nome 691" x1="38.43" y1="201.51" x2="38.43" y2="142.46" gradientUnits="userSpaceOnUse">
      <stop offset="0" stop-color="#ffffd2"/>
      <stop offset=".95" stop-color="#fbd783"/>
      <stop offset="1" stop-color="#fbd680"/>
    </linearGradient>
    <linearGradient id="Sfumatura_senza_nome_691-2" data-name="Sfumatura senza nome 691" x1="217.92" y1="201.5" x2="217.92" y2="142.46" xlink:href="#Sfumatura_senza_nome_691"/>
    <linearGradient id="Sfumatura_senza_nome_1479-3" data-name="Sfumatura senza nome 1479" x1="107.54" y1="23.54" x2="107.54" y2="210.41" xlink:href="#Sfumatura_senza_nome_1479"/>
    <linearGradient id="Sfumatura_senza_nome_3" data-name="Sfumatura senza nome 3" x1="38.02" y1="127.4" x2="38.02" y2="199.25" gradientUnits="userSpaceOnUse">
      <stop offset="0" stop-color="#cd9427"/>
      <stop offset=".88" stop-color="#f5cd75"/>
      <stop offset="1" stop-color="#fbd680"/>
    </linearGradient>
    <linearGradient id="Sfumatura_senza_nome_3-2" data-name="Sfumatura senza nome 3" x1="218.16" y1="127.4" x2="218.16" y2="199.25" xlink:href="#Sfumatura_senza_nome_3"/>
    <linearGradient id="Sfumatura_senza_nome_1479-4" data-name="Sfumatura senza nome 1479" x1="139.28" y1="52.67" x2="139.28" y2="71.67" xlink:href="#Sfumatura_senza_nome_1479"/>
    <linearGradient id="Sfumatura_senza_nome_1479-5" data-name="Sfumatura senza nome 1479" x1="45.75" y1="100.76" x2="19.78" y2="169.16" xlink:href="#Sfumatura_senza_nome_1479"/>
    <linearGradient id="Sfumatura_senza_nome_1479-6" data-name="Sfumatura senza nome 1479" x1="209.32" y1="116.97" x2="228.96" y2="177.77" xlink:href="#Sfumatura_senza_nome_1479"/>
    <linearGradient id="Sfumatura_senza_nome_691-3" data-name="Sfumatura senza nome 691" x1="61.02" y1="15.32" x2="83.35" y2="41.92" xlink:href="#Sfumatura_senza_nome_691"/>
    <linearGradient id="Sfumatura_senza_nome_691-4" data-name="Sfumatura senza nome 691" x1="194.32" y1="28.75" x2="182.45" y2="37.77" xlink:href="#Sfumatura_senza_nome_691"/>
    <radialGradient id="Sfumatura_senza_nome_878" data-name="Sfumatura senza nome 878" cx="-102.58" cy="-141.06" fx="-102.58" fy="-141.06" r="37.36" gradientTransform="translate(167.85 211.37) scale(.95)" gradientUnits="userSpaceOnUse">
      <stop offset="0" stop-color="#ffffd2"/>
      <stop offset=".95" stop-color="#fbd783"/>
      <stop offset="1" stop-color="#fbd680"/>
    </radialGradient>
    <radialGradient id="Sfumatura_senza_nome_878-2" data-name="Sfumatura senza nome 878" cx="26.76" cy="-141.72" fx="26.76" fy="-141.72" r="41.49" xlink:href="#Sfumatura_senza_nome_878"/>
    <linearGradient id="Sfumatura_senza_nome_1479-7" data-name="Sfumatura senza nome 1479" x1="123.56" y1="155.9" x2="123.56" y2="-49.79" xlink:href="#Sfumatura_senza_nome_1479"/>
    <linearGradient id="Sfumatura_senza_nome_7" data-name="Sfumatura senza nome 7" x1="67.24" y1="203.4" x2="67.24" y2="74.2" gradientUnits="userSpaceOnUse">
      <stop offset=".02" stop-color="#9a5a05"/>
      <stop offset=".6" stop-color="#c9933d"/>
      <stop offset="1" stop-color="#e7b861"/>
    </linearGradient>
    <linearGradient id="Sfumatura_senza_nome_7-2" data-name="Sfumatura senza nome 7" x1="201.82" y1="203.4" x2="201.82" y2="74.2" xlink:href="#Sfumatura_senza_nome_7"/>
    <linearGradient id="Sfumatura_senza_nome_691-5" data-name="Sfumatura senza nome 691" x1="83.6" y1="26.07" x2="52.25" y2="106.82" xlink:href="#Sfumatura_senza_nome_691"/>
    <linearGradient id="Sfumatura_senza_nome_691-6" data-name="Sfumatura senza nome 691" x1="105.79" y1="27.81" x2="122.26" y2="36.05" xlink:href="#Sfumatura_senza_nome_691"/>
    <linearGradient id="Sfumatura_senza_nome_691-7" data-name="Sfumatura senza nome 691" x1="88.94" y1="28.14" x2="57.59" y2="108.89" xlink:href="#Sfumatura_senza_nome_691"/>
    <linearGradient id="Sfumatura_senza_nome_691-8" data-name="Sfumatura senza nome 691" x1="176.55" y1="34.6" x2="180.82" y2="61.67" xlink:href="#Sfumatura_senza_nome_691"/>
    <linearGradient id="Sfumatura_senza_nome_691-9" data-name="Sfumatura senza nome 691" x1="116.54" y1="14.73" x2="133.32" y2="26.76" xlink:href="#Sfumatura_senza_nome_691"/>
    <linearGradient id="Sfumatura_senza_nome_691-10" data-name="Sfumatura senza nome 691" x1="162.71" y1="11.38" x2="139.91" y2="31.01" xlink:href="#Sfumatura_senza_nome_691"/>
    <linearGradient id="Sfumatura_senza_nome_691-11" data-name="Sfumatura senza nome 691" x1="134.66" y1="24.38" x2="109.64" y2="45.92" xlink:href="#Sfumatura_senza_nome_691"/>
    <linearGradient id="Sfumatura_senza_nome_691-12" data-name="Sfumatura senza nome 691" x1="156.6" y1="23.15" x2="141.7" y2="35.98" xlink:href="#Sfumatura_senza_nome_691"/>
    <linearGradient id="Sfumatura_senza_nome_691-13" data-name="Sfumatura senza nome 691" x1="160.57" y1="30.24" x2="141.2" y2="46.92" xlink:href="#Sfumatura_senza_nome_691"/>
    <linearGradient id="Sfumatura_senza_nome_691-14" data-name="Sfumatura senza nome 691" x1="128.75" y1="32.32" x2="97.72" y2="59.04" xlink:href="#Sfumatura_senza_nome_691"/>
    <radialGradient id="Sfumatura_senza_nome_878-3" data-name="Sfumatura senza nome 878" cx="-106.41" cy="-117.73" fx="-106.41" fy="-117.73" r="18.55" xlink:href="#Sfumatura_senza_nome_878"/>
    <radialGradient id="Sfumatura_senza_nome_878-4" data-name="Sfumatura senza nome 878" cx="36.59" cy="-105.79" fx="36.59" fy="-105.79" r="12.71" xlink:href="#Sfumatura_senza_nome_878"/>
    <radialGradient id="Sfumatura_senza_nome_878-5" data-name="Sfumatura senza nome 878" cx="44.84" cy="-92.33" fx="44.84" fy="-92.33" r="10.03" xlink:href="#Sfumatura_senza_nome_878"/>
    <radialGradient id="Sfumatura_senza_nome_878-6" data-name="Sfumatura senza nome 878" cx="-112.41" cy="-105.5" fx="-112.41" fy="-105.5" r="7.8" xlink:href="#Sfumatura_senza_nome_878"/>
    <radialGradient id="Sfumatura_senza_nome_878-7" data-name="Sfumatura senza nome 878" cx="-43.41" cy="-170.86" fx="-43.41" fy="-170.86" r="9.33" xlink:href="#Sfumatura_senza_nome_878"/>
    <radialGradient id="Sfumatura_senza_nome_878-8" data-name="Sfumatura senza nome 878" cx="-10.16" cy="-171.82" fx="-10.16" fy="-171.82" r="7.97" xlink:href="#Sfumatura_senza_nome_878"/>
    <radialGradient id="Sfumatura_senza_nome_878-9" data-name="Sfumatura senza nome 878" cx="-150.67" cy="-62.39" fx="-150.67" fy="-62.39" r="12.66" xlink:href="#Sfumatura_senza_nome_878"/>
    <radialGradient id="Sfumatura_senza_nome_878-10" data-name="Sfumatura senza nome 878" cx="54.34" cy="-61.89" fx="54.34" fy="-61.89" r="9.26" xlink:href="#Sfumatura_senza_nome_878"/>
    <linearGradient id="Sfumatura_senza_nome_7-3" data-name="Sfumatura senza nome 7" x1="29.88" y1="132.62" x2="29.88" y2="106.07" xlink:href="#Sfumatura_senza_nome_7"/>
    <linearGradient id="Sfumatura_senza_nome_1479-8" data-name="Sfumatura senza nome 1479" x1="126.18" y1="97.95" x2="126.18" y2="-29.85" xlink:href="#Sfumatura_senza_nome_1479"/>
  </defs>
  <g id="Head_1">
    <g>
      <g>
        <g>
          <path class="cls-72" d="M88.03,192.8c4.07,38.28-6.11,72.89-50.5,79.41,0,0,21.99,6.52,39.09,15.88,17.11,9.37,50.9,19.55,76.56-.41,25.66-19.96,42.76-21.18,42.76-21.18,0,0-45.61,8.55-52.53-42.76l-55.38-30.95Z"/>
          <path class="cls-36" d="M122.65,240.85c9.95,1.4,17.86-1.69,23.35-5.21-1.11-3.56-1.99-7.5-2.58-11.9l-55.38-30.95c.85,8,1.08,15.84,.5,23.3,1.26,.82,2.46,1.73,3.59,2.76,9.68,8.77,16.3,20,30.52,21.99Z"/>
          <path class="cls-43" d="M88.03,192.8c1.68,16.26,1.16,33.63-5.82,48.71-3.18,6.88-7.82,13.02-13.69,17.84-6.69,5.49-14.78,8.99-23.13,11.06-2.61,.65-5.26,1.15-7.93,1.54-.28,.04-.24,.45,0,.52,5.47,1.63,10.87,3.56,16.21,5.59,5.09,1.94,10.12,4.04,15.05,6.35,4.18,1.96,8.17,4.29,12.34,6.26,16.16,7.66,35.28,11.4,52.86,6.85,4.92-1.27,9.65-3.27,14.02-5.87,2.47-1.47,4.73-3.2,7.01-4.93,2.48-1.89,5.02-3.69,7.61-5.42,7.38-4.92,15.3-9.21,23.7-12.11,3.08-1.06,6.42-2.15,9.7-2.39-.03-.2-.05-.4-.08-.59-5.29,.99-11.03,.67-16.29-.25-11.49-2-21.58-8.32-27.89-18.21-4.59-7.2-7-15.65-8.15-24.05-.02-.16-.27-.09-.25,.07,1.14,8.34,3.41,16.59,7.82,23.82,3.23,5.29,7.62,9.81,12.88,13.11,7.78,4.87,17.15,6.85,26.26,6.6,1.92-.05,3.88-.17,5.77-.52,.33-.06,.26-.62-.08-.59-2.78,.2-5.57,1.03-8.21,1.86-7.79,2.44-15.15,6.21-22.07,10.5-2.49,1.55-4.93,3.18-7.32,4.89-2.53,1.79-4.93,3.76-7.46,5.55-4.35,3.08-9.18,5.44-14.24,7.08-9.45,3.06-19.61,3.39-29.39,1.97-8.65-1.25-17.13-3.88-25.08-7.51-4.06-1.86-7.93-4.12-11.95-6.06-4.81-2.32-9.75-4.39-14.72-6.33-5.88-2.28-11.84-4.42-17.89-6.21v.52c8.91-1.33,17.68-3.97,25.41-8.67,6.44-3.92,11.9-9.28,15.96-15.62,8.59-13.43,10.44-30.04,9.8-45.64-.13-3.25-.39-6.5-.74-9.74,0,0-.01,0-.01,0h0Z"/>
        </g>
        <g>
          <path class="cls-43" d="M201.81,133.43c-.22-.91-.53-2.01-1.37-2.81l-.42,.44,.42-.44c-.94-.89-2.13-1.34-3.35-1.34-.15,0-.31,0-.46,.02,.58-3.56,1.56-7.17,1.56-10.94,0-.19,0-.39,0-.58-.06-2.09-.47-4.14-1.14-6.09-.19-.55-.4-1.1-.62-1.64-.05-.12-.1-.2-.12-.25,0-.01,0-.03-.01-.03,0-.19-.02-.39-.03-.58-.38-7.29-1.17-14.57-2.3-21.77-.63-4.05-1.4-8.07-2.71-12.01-1.16-3.47-2.65-6.84-4.45-10.03-3.61-6.39-8.43-12.06-14.1-16.71-5.88-4.81-12.64-8.49-19.83-10.91-7.22-2.43-14.74-3.5-22.31-3.5-1.27,0-2.54,.03-3.81,.09-9.81,.45-19.58,2.4-28.86,5.59-18.21,6.26-35.13,18.28-44.28,35.57-4.77,9.01-7.32,19.06-7.87,29.21-.06,1.26-.1,2.51-.1,3.77,0,3.89,.3,7.76,.71,11.61,.56,5.16,1.35,10.3,2.45,15.38,.13,.58,.26,1.15,.39,1.73-1.17-.7-2.53-1.2-3.93-1.21-.53,0-1.06,.07-1.58,.24-1.49,.48-2.43,1.52-2.94,2.71-.51,1.19-.66,2.53-.68,3.77,0,.15,0,.3,0,.46,0,3,.53,5.99,1.17,8.85,.71,3.2,1.62,6.38,2.78,9.46,1.15,3.05,2.66,5.82,4.74,8.37,2.16,2.62,5.37,5.77,9.31,5.8,.29,0,.58-.02,.87-.05,1.69-.21,3.36-1.03,4.25-2.66,.04-.07,.07-.13,.1-.2,.47,1.21,1,2.4,1.54,3.55,2.15,4.61,4.8,9,7.8,13.1,4.35,5.97,9.48,11.36,15.2,16.02,3.45,2.81,7.11,5.36,10.95,7.63,4.08,2.42,8.22,4.79,12.46,6.94,8.52,4.32,17.82,7.92,27.6,8.04,.14,0,.27,0,.41,0,4.18,0,8.29-.72,12.17-2.34,3.73-1.55,7.11-3.8,10.19-6.36,3.15-2.61,5.99-5.54,8.72-8.54,2.93-3.21,5.87-6.46,8.56-9.92,5.89-7.57,10.75-15.98,14.6-24.75,1.92-4.4,3.63-8.94,4.79-13.63,.54-2.21,1.01-4.51,1.01-6.86,0-.07,0-.13,0-.19,0-.09,0-.16,0-.21,0-.1,0-.1,.02-.12,.06-.12,.11-.24,.16-.36,.12-.28,.23-.56,.33-.84,.22-.62,.42-1.25,.6-1.88,.88-3.13,1.4-6.36,1.69-9.58,.12-1.39,.23-2.84,.23-4.29,0-1.59-.12-3.18-.49-4.73Z"/>
          <g>
            <g>
              <path class="cls-4" d="M194.12,130.84s3.25-2.28,5.9,.23c3.66,3.47,.41,23.59-2.44,25.44-2.85,1.85-4.07-6.48-4.07-6.48l.61-19.2Z"/>
              <path class="cls-49" d="M63.19,170.68s7.74,25.38,36.24,42.08c12.61,7.39,27.25,15.6,42.39,14.59,14.49-.97,23.98-12.34,32.95-22.47,14.66-16.56,23.89-40.17,23.89-49.14,0-10.99-4.07-17.92-2.72-26.06,1.36-8.14,2.99-12.22-.27-19.82,0,0-.51-12.31-2.95-26.15-4.4-24.95-25.04-44.59-52.53-48.25-8.81-1.17-18.95-.48-27.7,1.24-8.29,1.62-17.2,4.32-24.75,8.17-9.92,5.06-21.35,12.56-27.92,21.76-3.88,5.43-7.49,11.91-9.65,18.24-3.26,9.56-4.49,19.76-3.71,29.82,.62,7.95,1.78,16.21,3.7,23.96,0,0-5.16-4.34-8.42-.27-3.26,4.07,1.63,21.99,4.89,27.42,3.26,5.43,7.87,9.77,12.22,9.23,4.34-.54,4.34-4.34,4.34-4.34Z"/>
              <path class="cls-35" d="M88.17,143.26c-15.44,0-27.96,8.14-27.96,18.19s12.52,18.19,27.96,18.19,27.96-8.14,27.96-18.19-12.52-18.19-27.96-18.19Z"/>
              <path class="cls-52" d="M197.77,146.52c-3.52-2.05-7.79-3.26-12.41-3.26-11.99,0-21.72,8.14-21.72,18.19s9.72,18.19,21.72,18.19c2.15,0,4.23-.27,6.2-.76,4.55-9.66,7.11-18.42,7.11-23.14,0-3.41-.39-6.43-.89-9.22Z"/>
            </g>
            <g>
              <path class="cls-70" d="M43.44,142.92s-1.02,7.53,2.85,15.47c3.87,7.94,5.7,9.16,6.92,9.16s.81-3.46,3.87-3.66l-2.24-2.04-1.02-5.09v-6.31l-3.46-6.31-3.46-2.24s-1.42,0-3.46,1.02Z"/>
              <path class="cls-36" d="M57.08,155.34c-1.42-3.46-8.76-19.14-13.85-12.01,0,0,5.09-1.63,7.74,4.68,.18,.42,.33,.82,.46,1.21-2.01,.52-5.31,2.51-3.11,9.99v-.81s-.33-6.55,3.73-6.99c.79,3.85-.42,5.87,.55,9.43,1.22,4.48,4.68,3.05,4.68,3.05-3.05-1.83-3.26-6.51-.2-8.55Z"/>
              <path class="cls-43" d="M43.25,143.34c4.26-5.18,9.4,3.9,11.19,7.09,.62,1.09,1.18,2.22,1.72,3.36,.19,.4,.37,.79,.55,1.2,.11,.24,.16,.27,.06,.34-.35,.25-.65,.57-.93,.91-1.95,2.36-1.27,6.27,1.39,7.77,.13,.07,.24-.12,.12-.2-2.82-2-3.12-6.23-.16-8.28,.07-.05,.12-.14,.09-.22-1.48-3.65-8.95-19.77-14.05-11.97-.01,.02,.02,.04,.03,.02h0Z"/>
            </g>
          </g>
          <g>
            <g>
              <g>
                <path class="cls-36" d="M131.2,172.04s.2-3.06,5.3-2.85c5.09,.2,6.72,2.24,10.38,1.83,3.67-.41,6.31-2.24,6.31-2.24,0,0-.2,5.09-5.5,7.13,0,0-1.02,4.89-5.5,4.89s-8.75-1.83-11-7.94v-.81Z"/>
                <path class="cls-43" d="M134.76,171.42s1.53,2.44,4.99,1.12c0,0-1.83-1.73-4.99-1.12Z"/>
                <path class="cls-78" d="M139.89,170.54s3.73,1.56,6.65,1.43c2.92-.14,4.82-1.22,4.82-1.22,0,0-1.56,2.85-5.91,3.19,0,0-1.63-.2-2.78-1.02-1.15-.81-1.76-1.9-2.78-2.38Z"/>
                <path class="cls-43" d="M133.17,172.25c-.07,.07,.02,.19,.1,.14,1.39-.84,2.74-1.08,4.32-.7,1.35,.33,2.39,1.24,3.47,2.05,.09,.07,.16-.07,.1-.14-1.96-2.47-5.48-3.66-8-1.36Zm19.26-2.15c-1.35,3.12-4.23,4-7.28,4.85-.1,.03-.06,.18,.04,.16,2.88-.76,6.44-1.69,7.39-4.94,.03-.09-.12-.16-.16-.07Z"/>
              </g>
              <path class="cls-83" d="M139.89,159.01c.82,2.89,2.53,9.53,6.24,9.23,10.18-.81,5.07-23.91-1.08-24.43-4.78-.4-6.32,11.11-5.16,15.21Z"/>
              <path class="cls-49" d="M136.89,160.27s10.6-4.28,16.25,.62l.31-1.82s-8.55-5.21-17.73,.14l1.17,1.07Z"/>
            </g>
            <path class="cls-90" d="M149.28,161.92c0,.86-1.02,1.55-2.27,1.55s-2.27-.7-2.27-1.55,1.02-1.56,2.27-1.56,2.27,.7,2.27,1.56Z"/>
          </g>
        </g>
      </g>
      <g>
        <path class="cls-49" d="M146.56,178.71c-.94,1.57-2.59,3.09-5.18,3.09-3.4,0-6.16-1.02-8.26-3.04-23.25,.45-45.76,2.63-45.76,2.63,0,0,28.78,39.91,55.11,37.74,0,0,5.97,2.44,18.73-11.4,12.76-13.85,18.19-27.15,18.19-27.15,0,0-10.73-1.63-32.83-1.87Z"/>
        <g>
          <path class="cls-36" d="M136.64,206.78c2.98,.11,5.97,.11,8.97-.01,.08,0-4.5,3.41-8.97,.01Z"/>
          <g>
            <g>
              <path class="cls-48" d="M103.83,183.18c.08,.5,18.66,2.51,27.1,2.23,8.5,.24,10.44,2.55,17.72-.14,.03,.12,8.84-1.64,11.77-1.49,2.94,.36,7.33,.73,7.34,.71,.09,.03-5.1,5.62-8.72,6.92-3.33,2.11-24.01,4.62-24.08,3.99-7.41-.68-14.65-2.2-21.55-4.5-1.9-1.23-3.73-2.51-5.48-3.85-1.43-1.26-2.8-2.55-4.11-3.87Z"/>
              <path class="cls-90" d="M110.01,187.68s6.56,2.27,12.17,2.17c5.56,.06,13.17,.19,15.78,.03,2.57-.09,4.75,2.08,4.77,2.09,.02,0,2.45-2.42,4.68-2.73,2.26-.3,4.46,.13,6.78,.19,2.3,.1,7.92-.93,11.88-3.63,.02,.01-2.6,2.75-3.2,3.08-.4,.61-13.16,5.69-15.13,5.98-1.77,.82-13.5,1.73-15.3,1.16-8.03-1.85-15.57-4.68-22.42-8.33Z"/>
            </g>
            <g>
              <g>
                <path class="cls-32" d="M103.81,183.86c-.42,.16,10.8,11.88,16.84,15.36,5.42,3.74,12.08,6.97,21.17,6.57,9.12-.47,14.66-4.58,15.91-7.88,1.68-3.19,10.27-12.44,10-12.55-2.23,1.7-4.56,3.31-7.02,4.82-4.81,1.66-9.78,2.94-14.84,3.81-5.13,.4-10.28,.39-15.38-.03-4.66-.63-9.24-1.61-13.69-2.91-2.89-1.08-5.71-2.29-8.43-3.63-1.57-1.15-3.1-2.34-4.55-3.57Z"/>
                <path class="cls-57" d="M119.1,195.93s2.28-.71,7.41,.69c5.13,1.41,12.34,2.88,17.85,1.8,5.54-.99,11.15-4.45,12.71-4.25,2.51,.32-1.11,5.47-1.73,6.02-4.27,4.52-12.66,5.45-19.6,4.25-3.15-.52-6.2-1.39-8.89-2.68-.95-.3-8.22-5.65-7.76-5.83Z"/>
                <path class="cls-20" d="M130.68,202.13c-.07,.01,7.48,2.73,14.62,1.47,7.07-1.26,8.96-4.11,8.06-4.86-.87-.84-2.79,1.96-9.57,2.51-6.77,.49-11.67-.91-11.65-.89,.01,.02-4.13,.22-1.46,1.77Z"/>
              </g>
              <path class="cls-32" d="M167.84,184.45c-2.44,4.73-12.17,9.93-18.99,11.05-.19-.03-.39-.06-.57-.09-1.43,.66-3.15,1.34-5.01,1.58-1.41-.21-2.81-.44-4.45-.69-.44,.04-.87,.07-1.31,.11-11.52,.17-25.05-3.06-34.17-13.26-.13,0,7.08,6.25,14.87,7.04,7.61,.99,16.77,.53,19.57,.47,2.78,.04,5.19,2.31,5.21,2.31,.02,0,2.48-2.44,4.34-2.94,1.87-.45,6.49,.46,9.3,.05,5.27-.61,11.31-5.62,11.22-5.64Z"/>
              <path class="cls-15" d="M137.5,196.41c.44-.03,.88-.07,1.31-.11,1.65,.25,3.04,.48,4.45,.69,1.85-.24,3.58-.92,5.01-1.58,.19,.03,.38,.06,.57,.09,6.82-1.12,16.56-6.32,18.99-11.05,.03,0-3.65,3.18-7.91,4.76-2.42,2.75-12.28,4.87-12.29,4.73,0,0-1.64,1.1-3.85,1.54-2.22,.44-4.4-.66-4.39-.66,0,0-5.38,.32-11.61-.38-5.48-.54-10.99-3.85-12.21-4.74-6.8-1.64-12.3-6.56-12.24-6.55,9.12,10.19,22.65,13.43,34.17,13.26Z"/>
              <path class="cls-56" d="M103.38,183.12c-.06-.06-.15,.01-.09,.07,7.8,8.88,20.75,13.87,34.22,13.27,.08,0,.09-.11,0-.11-13.2-.31-26.1-4.49-34.13-13.24Zm44.79,12.16c-1.41,.46-2.83,.9-4.31,1.22-1.62,.35-3.42-.06-5.03-.26-.12-.01-.13,.11-.02,.13,1.05,.2,2.11,.4,3.17,.6,1.46,.27,.74,.49,2.08,.29,1.65-.25,3.09-.98,4.35-1.75,.19-.12-.03-.31-.24-.24Zm19.56-10.88c-2.27,2.57-4.56,4.87-7.98,6.7-3.36,1.79-7.04,3.36-10.93,4.32-.16,.04-.11,.21,.05,.18,4.15-.64,7.98-2.01,11.37-4,2.93-1.69,6.8-4.35,7.73-7.11,.04-.12-.14-.18-.24-.08Z"/>
            </g>
          </g>
        </g>
      </g>
      <g>
        <g>
          <path class="cls-49" d="M176.11,101.74l-10.18,.82-3.26-.82s-20.77,2.44-39.91-1.22l-12.62,1.22-19.14-1.63-8.55,4.07s-12.62,4.89-8.96,31.76c0,0,6.92,12.22,25.65,13.44,18.73,1.22,32.17-2.85,44.8-2.85,15.88,0,27.28,3.26,35.84,2.04,6.45-.92,12.9-5.78,16.21-9.87-.56-3.12-.86-6.1-.33-9.28,1.26-7.57,2.76-11.63,.34-18.27l-6.04-7.39-13.85-2.04Z"/>
          <path class="cls-17" d="M102.81,100.52c-6.92-1.63-17.92,2.44-17.92,2.44-15.88,6.11-8.55,32.17-8.55,32.17l5.29,3.66s11,1.22,17.1,1.63c6.11,.41,19.55,.81,19.55,.81,6.11-13.03,4.07-39.91,4.07-39.91,0,0-12.62,.81-19.55-.81Z"/>
          <path class="cls-59" d="M186.29,100.92c-2.04-.81-8.14-1.22-12.22-.41-4.07,.81-11.81,2.04-11.81,2.04-5.7,10.59-5.7,38.28-5.7,38.28l14.66-.41s12.62-.82,15.88-1.63c3.26-.81,6.11-3.66,6.11-3.66l2.19-1.18c-.07-1.49,0-2.98,.25-4.52,.58-3.49,1.21-6.23,1.49-8.82-.32-3.1-.6-6.11-.66-7.96-.28-.95-.64-1.96-1.1-3.03,0,0-.06-.4-.17-1.12-2.37-3.56-7.38-6.96-8.92-7.57Z"/>
          <path d="M76.07,112.87s3.53-9.23,16.29-10.32c12.76-1.09,21.99,3.26,27.96,3.26,0,0,2.17-2.44,2.71-5.43,0,0-11.95-2.17-19.82-3.26-7.87-1.09-21.18,0-27.15,15.75Z"/>
          <path d="M197.01,113.95s-2.61-9.23-12.05-10.32c-9.44-1.09-16.27,3.26-20.69,3.26,0,0-1.61-2.44-2.01-5.43,0,0,8.84-2.17,14.66-3.26,5.82-1.09,15.67,0,20.09,15.75Z"/>
        </g>
        <g>
          <path class="cls-26" d="M128.89,150.88c-4.52,3.99-14.03,.69-21.24-7.37-7.21-8.06-9.39-17.83-4.87-21.82,4.52-3.99,14.03-.69,21.24,7.37,7.21,8.06,9.39,17.83,4.87,21.82Z"/>
          <path class="cls-2" d="M70.74,126.89s2.61,14.72,14.73,19.71c12.11,4.99,28.26,2.85,37.29-2.38l-6.89-4.75-36.1-14.49-9.02,1.9Z"/>
          <path class="cls-60" d="M72.17,128.79c-4.27-4.27,.96-12.04,4.27-14.01,5.67-3.38,12.44-4.33,19.13-3.83,4.43,.33,9.4,2.63,13.41,4.54,5.22,2.49,8.55,7.06,12.82,10.69,0,0-10.93-9.26-20.42-9.26-16.38,0-18.53,9.18-23.51,14.25l-1.66,.95-2.14-1.43s-1.86-1.86-1.9-1.9Z"/>
          <path class="cls-1" d="M121.68,126.08c-.98-.81-7.56-6.09-14.69-8.24-1.86-.57-3.77-.92-5.61-.92-9.5,0-23.51,14.25-23.51,14.25l-1,.57-.67,.38-2.14-1.43s-.73-.73-1.28-1.28c0,0,0-.02-.02-.02l-.6-.6c-1.62-1.62-1.77-3.49-1.14-5.27,1.03-2.91,4.07-5.61,6.13-6.84,5.67-3.38,12.44-4.33,19.13-3.83,4.43,.33,8.8,1.5,12.81,3.41,5.17,2.46,8.37,6.22,12.59,9.81Z"/>
          <path class="cls-12" d="M102.8,135.44l-25.93-3.71-.67-.1s-1.71-1.3-3.42-2.23c0,0,0-.02-.02-.02l-.6-.6c-1.62-1.62-1.77-3.49-1.14-5.27,1.27,.17,3.31,.02,5.89-1.62,4.51-2.85,9.02-7.36,18.29-7.12,4.29,.11,8.33,1.2,11.79,3.06,3.99,2.15,7.2,5.34,9.11,9.29,3.56,7.36-13.3,8.31-13.3,8.31Z"/>
          <path class="cls-62" d="M73.11,129.51s3.56,17.1,23.75,18.76c16.85,1.39,25.89-4.27,25.89-4.27l-44.41-11.87-5.23-2.61Z"/>
          <path class="cls-34" d="M74.54,131.41s3.33,9.74,14.96,14.25c11.64,4.51,27.55,.71,29.92-.71,2.38-1.43-10.21-3.33-10.21-3.33l-28.26-8.79-4.99-1.19-1.42-.24Z"/>
          <g>
            <path class="cls-64" d="M76.07,132.01s7.46,16.7,27.69,14.93c0,0-1.49-3.8-2.04-4.07-.54-.27-6.11-5.43-7.47-5.84-1.36-.41-5.29-2.85-6.79-3.39-1.49-.54-3.53-1.63-3.53-1.63h-7.87Z"/>
            <g>
              <path class="cls-86" d="M75.66,131.6s3.26-14.25,17.92-15.88c14.66-1.63,26.47,11.54,29.32,28.1l-13.57-2.99-27.15-7.6s-6.24-.81-6.51-1.63Z"/>
              <path class="cls-81" d="M75.66,131.6s3.53-13.57,18.19-15.2c14.66-1.63,26.33,11.67,29.05,27.42l-13.57-2.99-27.15-7.6s-6.24-.81-6.51-1.63Z"/>
            </g>
            <path class="cls-5" d="M81.67,126.89s6.65-7.6,14.25-7.92c7.6-.32,13.46,2.22,17.42,6.17-1.73-1.73-2.96-3.72-5.23-5.07-4.83-2.88-10.89-3.94-16.4-2.7-2.09,.47-3.9,1.55-5.48,2.98-2.11,1.89-2.8,4.52-4.56,6.53Z"/>
            <path class="cls-22" d="M89.98,145.18s-9.5-6.65-11.64-12.35c0,0,.24-6.65,5.46-12.83,0,0-5.94,3.09-8.08,11.64,0,0,3.8,8.79,14.25,13.54Z"/>
            <path d="M96.1,119.85c-2.06,.25-3.84,.77-5.4,1.45-1.25-1.66-1.11-3.48-1.11-3.48-.44,1.5,.11,2.89,.58,3.73-.56,.27-1.09,.56-1.59,.88-1.62-1.62-1.86-3.57-1.86-3.57-.15,1.65,.6,3.03,1.3,3.93-.51,.35-.99,.71-1.43,1.09-2.46-1.55-3.21-3.97-3.21-3.97,.19,2.12,1.55,3.65,2.59,4.52-.54,.5-1.02,1.02-1.45,1.55-3.1-1.6-4.23-4.44-4.23-4.44,.45,2.57,2.27,4.28,3.62,5.21-.28,.38-.54,.76-.78,1.13-4.05-1.3-5.87-4.59-5.87-4.59,.96,3.09,3.6,4.81,5.27,5.61-.24,.44-.45,.86-.63,1.26-4.69-.65-7.31-3.89-7.31-3.89,1.63,3.17,4.79,4.54,6.8,5.11-.1,.27-.19,.52-.27,.74-5.77,0-9.24-3.84-9.24-3.84,2.39,4.12,7.18,5.14,8.94,5.38,9.02,17.21,30.41,12.86,30.41,12.86l10.92-5.13c-3.21-11.2-13.04-23.13-26.05-21.53Z"/>
            <path class="cls-9" d="M82.25,133.57c4.4,10.31,19.77,14.55,31.85,12.52,0,0,3.25-.4,5.18-.87,1.93-.47,3.66-.95,3.66-.95-4.25-13.15-11.29-20.18-19.93-22.35-8.27-2.08-17.98,1.9-20.94,11.25l.17,.39Z"/>
            <g>
              <path class="cls-66" d="M112.7,133.74c0,6.6-5.46,11.95-12.19,11.95s-12.19-5.35-12.19-11.95,5.46-11.95,12.19-11.95,12.19,5.35,12.19,11.95Z"/>
              <path class="cls-33" d="M110.88,133.74c0,5.61-4.64,10.16-10.37,10.16s-10.37-4.55-10.37-10.16,4.64-10.16,10.37-10.16,10.37,4.55,10.37,10.16Z"/>
              <path d="M107.84,133.74c0,3.97-3.28,7.18-7.33,7.18s-7.33-3.22-7.33-7.18,3.28-7.18,7.33-7.18,7.33,3.22,7.33,7.18Z"/>
              <path class="cls-9" d="M104.22,129.88c0,1.53-1.66,1.53-3.72,1.53s-3.71,0-3.71-1.53,1.66-2.78,3.71-2.78,3.72,1.24,3.72,2.78Z"/>
              <path class="cls-9" d="M101.4,138.62c0,.48-.4,.87-.89,.87s-.89-.39-.89-.87,.4-.87,.89-.87,.89,.39,.89,.87Z"/>
              <path class="cls-24" d="M103,142.3c0,.75-1.12,1.36-2.49,1.36-1.38,0-2.49-.61-2.49-1.36s1.12-.31,2.49-.31,2.49-.44,2.49,.31Z"/>
            </g>
            <path d="M108.57,123.82c-6.69-3.72-15.11-3.66-21.18,1.29-2.56,2.09-4.33,4.94-5.31,8.07,0,0,0,.01,.01,0,2.89-8.58,12.2-13.12,20.85-11,8.2,2,13.99,8.63,17.52,15.98,.95,1.98,1.75,4.04,2.45,6.12,.02,.05,.09,.03,.07-.02-2.55-8.04-6.79-16.2-14.41-20.44Zm5.53,22.23c-6.25,.94-12.68,.45-18.66-1.62-5.49-1.9-10.73-5.44-13.17-10.88,0-.02-.03,0-.02,.01,2.32,5.48,7.5,8.92,12.92,10.89,5.96,2.17,12.72,2.76,18.96,1.66,.04,0,.03-.07-.01-.07Z"/>
            <path d="M82.06,133.56s6.8-9.91,17.61-9.34c10.81,.57,17.29,7.57,21.96,16.18,0,0-5.44-15.88-19.52-19.29,0,0-16.65-1.64-20.82,12.59l.77-.15Z"/>
          </g>
        </g>
        <g>
          <path class="cls-88" d="M152.96,150.22c3.32,4.04,10.29,.85,15.58-7.13,5.29-7.98,6.89-17.72,3.57-21.77-3.32-4.04-10.29-.85-15.58,7.13-5.29,7.98-6.89,17.72-3.57,21.77Z"/>
          <path class="cls-23" d="M195.62,126.89s-1.92,14.7-10.8,19.55c-8.89,4.85-20.73,2.53-27.35-2.79l5.05-4.67,26.48-14.08,6.62,2Z"/>
          <path class="cls-71" d="M194.58,128.77c3.13-4.22-.7-12.05-3.14-14.06-4.16-3.44-9.12-4.47-14.03-4.04-3.25,.28-6.89,2.53-9.84,4.39-3.83,2.43-6.27,6.97-9.41,10.54,0,0,8.02-9.14,14.99-9.03,12.02,.18,13.59,9.39,17.25,14.51l1.22,.97,1.57-1.4s1.37-1.84,1.4-1.88Z"/>
          <path class="cls-74" d="M158.25,125.5c.72-.8,5.55-6,10.77-8.07,1.37-.55,2.77-.88,4.12-.86,6.97,.11,17.25,14.51,17.25,14.51l.73,.58,.49,.39,1.57-1.4s.54-.72,.94-1.27c0,0,0-.02,.01-.02l.44-.59c1.19-1.61,1.3-3.47,.83-5.26-.75-2.92-2.99-5.66-4.49-6.91-4.16-3.45-9.12-4.47-14.04-4.04-3.25,.28-6.45,1.4-9.39,3.27-3.79,2.4-6.14,6.13-9.23,9.67Z"/>
          <path class="cls-82" d="M172.1,135.08l19.03-3.41,.49-.09s1.25-1.28,2.51-2.19c0,0,0-.02,.01-.02l.44-.59c1.19-1.61,1.3-3.47,.83-5.26-.93,.16-2.42-.02-4.32-1.68-3.31-2.9-6.62-7.46-13.42-7.33-3.15,.07-6.11,1.1-8.65,2.93-2.93,2.1-5.28,5.26-6.68,9.19-2.61,7.32,9.76,8.46,9.76,8.46Z"/>
          <path class="cls-13" d="M193.88,129.48s-2.61,17.06-17.42,18.5c-12.36,1.2-18.99-4.57-18.99-4.57l32.58-11.38,3.83-2.55Z"/>
          <path class="cls-85" d="M192.84,131.36s-2.44,9.7-10.98,14.08c-8.54,4.38-20.21,.4-21.95-1.05-1.74-1.45,7.49-3.21,7.49-3.21l20.73-8.47,3.66-1.13,1.05-.22Z"/>
          <g>
            <path class="cls-51" d="M191.71,131.94s-5.48,16.61-20.31,14.62c0,0,1.09-3.78,1.49-4.05,.4-.26,4.48-5.36,5.48-5.75,.99-.39,3.88-2.79,4.98-3.32,1.1-.52,2.59-1.59,2.59-1.59l5.77,.09Z"/>
            <g>
              <path class="cls-29" d="M192.01,131.54s-2.39-14.29-13.15-16.08c-10.75-1.8-19.42,11.24-21.51,27.77l9.96-2.83,19.92-7.3s4.58-.74,4.78-1.56Z"/>
              <path class="cls-84" d="M192.01,131.54s-2.59-13.61-13.34-15.41c-10.76-1.79-19.32,11.38-21.31,27.09l9.96-2.83,19.92-7.3s4.58-.74,4.78-1.56Z"/>
            </g>
            <path class="cls-45" d="M187.61,126.77s-4.88-7.67-10.46-8.08c-5.57-.4-9.87,2.06-12.78,5.98,1.27-1.71,2.17-3.68,3.83-5.01,3.54-2.82,7.99-3.82,12.03-2.52,1.53,.49,2.86,1.59,4.02,3.04,1.54,1.92,2.06,4.56,3.34,6.58Z"/>
            <path class="cls-22" d="M181.51,144.96s6.97-6.54,8.54-12.22c0,0-.17-6.65-4.01-12.89,0,0,4.36,3.15,5.92,11.73,0,0-2.79,8.74-10.45,13.38Z"/>
            <path d="M177.02,119.56c1.51,.28,2.82,.81,3.96,1.51,.92-1.65,.82-3.47,.82-3.47,.32,1.5-.08,2.89-.42,3.72,.41,.28,.8,.58,1.17,.89,1.19-1.6,1.36-3.55,1.36-3.55,.11,1.65-.44,3.02-.96,3.91,.37,.35,.72,.72,1.05,1.11,1.81-1.52,2.35-3.93,2.35-3.93-.14,2.12-1.14,3.63-1.9,4.49,.39,.51,.75,1.03,1.06,1.56,2.27-1.57,3.1-4.39,3.1-4.39-.33,2.57-1.67,4.25-2.66,5.17,.21,.38,.4,.76,.57,1.14,2.97-1.25,4.31-4.52,4.31-4.52-.7,3.08-2.64,4.76-3.86,5.55,.17,.44,.33,.86,.46,1.26,3.44-.6,5.37-3.81,5.37-3.81-1.19,3.15-3.51,4.49-4.99,5.03,.07,.27,.14,.52,.19,.75,4.24,.07,6.78-3.74,6.78-3.74-1.75,4.09-5.27,5.06-6.56,5.28-6.62,17.11-22.31,12.52-22.31,12.52l-8.01-5.25c2.36-11.16,9.57-22.98,19.12-21.24Z"/>
            <path class="cls-9" d="M187.18,133.44c-3.23,10.26-14.5,14.32-23.37,12.17,0,0-2.39-.44-3.8-.93-1.42-.49-2.69-.99-2.69-.99,3.12-13.11,8.28-20.06,14.62-22.13,6.07-1.98,13.19,2.11,15.36,11.49l-.12,.39Z"/>
            <g>
              <path class="cls-89" d="M162.76,134.03c0,6.52,4.23,11.91,9.44,12.06,5.22,.14,9.44-5.02,9.44-11.53s-4.23-11.91-9.44-12.06c-5.22-.15-9.44,5.02-9.44,11.53Z"/>
              <path class="cls-91" d="M164.17,134.07c0,5.54,3.6,10.13,8.03,10.26,4.44,.12,8.03-4.27,8.03-9.81s-3.6-10.13-8.03-10.26c-4.44-.12-8.03,4.27-8.03,9.81Z"/>
              <path d="M166.53,134.14c0,3.92,2.54,7.16,5.68,7.25,3.14,.09,5.68-3.02,5.68-6.93s-2.54-7.16-5.68-7.25c-3.14-.09-5.68,3.02-5.68,6.93Z"/>
              <path class="cls-9" d="M169.33,130.41c0,1.51,1.29,1.55,2.88,1.59,1.59,.04,2.88,.08,2.88-1.43s-1.29-2.78-2.88-2.82c-1.59-.04-2.88,1.15-2.88,2.66Z"/>
              <path class="cls-9" d="M171.52,139.1c0,.48,.31,.87,.69,.88,.38,.01,.69-.37,.69-.84s-.31-.87-.69-.88c-.38-.01-.69,.37-.69,.84Z"/>
              <path class="cls-24" d="M170.27,142.7c0,.74,.87,1.37,1.93,1.4,1.07,.03,1.93-.55,1.93-1.29s-.87-.33-1.93-.36c-1.06-.03-1.93-.49-1.93,.25Z"/>
            </g>
            <path d="M167.87,123.4c4.91-3.65,11.09-3.49,15.54,1.52,1.87,2.12,3.18,4.99,3.9,8.13,0,0,0,.01,0,0-2.12-8.61-8.95-13.26-15.3-11.24-6.02,1.91-10.27,8.48-12.86,15.79-.7,1.97-1.28,4.02-1.8,6.1,0,.05-.06,.03-.05-.02,1.87-8.01,4.98-16.12,10.58-20.28Zm-4.06,22.17c4.58,1.01,9.3,.59,13.69-1.41,4.03-1.84,7.87-5.32,9.66-10.73,0-.02,.02,0,.02,.01-1.7,5.45-5.5,8.84-9.48,10.75-4.37,2.1-9.33,2.61-13.91,1.44-.03,0-.02-.07,.01-.07Z"/>
            <path d="M187.32,133.43s-4.99-9.99-12.92-9.54c-7.93,.45-12.68,7.38-16.11,15.94,0,0,3.99-15.82,14.32-19.07,0,0,12.21-1.45,15.28,12.82l-.56-.16Z"/>
          </g>
        </g>
      </g>
      <g>
        <g>
          <path class="cls-3" d="M47.76,135c7.6,13.3,7.12,19.95,7.6,32.3,8.08-11.88,7.13-32.3,4.28-45.6l-11.88,13.3Z"/>
          <path class="cls-58" d="M47.73,135.02c2.81,5.15,5.2,10.44,6.33,16.22,1.03,5.27,.97,10.71,1.17,16.06,0,.14,.18,.18,.25,.07,4.23-6.39,5.73-14.09,6.22-21.63,.52-8-.17-16.26-1.96-24.07-.03-.13-.22-.07-.19,.05,2.49,12.99,3.55,27.4-1.38,39.97-.61,1.56-1.39,3.06-2.24,4.5-.52,.88-.44,.38-.47-.38-.03-.94-.06-1.88-.09-2.82-.11-3.14-.24-6.29-.65-9.41-.87-6.67-3.54-12.84-6.9-18.61-.02-.04-.09,0-.06,.04h0Z"/>
        </g>
        <g>
          <g>
            <path class="cls-41" d="M234.08,195.92c-.46-1.05-.94-1.79-1.57-2.74-.51-.78-.78-1.66-1.4-2.39-1.06-1.26-1.36-2.62-2.19-4.01-.89-1.49-2.01-2.8-2.85-4.32-2.19-3.92-4.07-7.73-5.29-12.09-.73-2.62-1.34-5.56-1.57-8.28-.25-2.97,.14-5.89,.5-8.8,0,0-4.99-21.38-5.7-21.85-.71-.47-9.5-7.12-12.11-7.6-1.39-.25-2.97-.77-4.44-.95-.34,2.34-.87,4.64-1.24,6.91,.15-.01,.3-.02,.46-.02,1.22,0,2.42,.45,3.36,1.34,.83,.8,1.15,1.9,1.37,2.81,.36,1.55,.49,3.15,.49,4.73,0,1.45-.11,2.9-.23,4.29-.29,3.22-.81,6.45-1.69,9.58-.18,.63-.38,1.26-.6,1.88-.1,.28-.21,.56-.33,.84-.05,.12-.1,.24-.16,.36,0,.02-.01,.02-.01,.12,0,.05,0,.11,0,.21v.19c0,2.35-.47,4.65-1.01,6.86-1.16,4.69-2.87,9.23-4.79,13.63-3.84,8.77-8.7,17.18-14.6,24.75-2.69,3.46-5.63,6.7-8.56,9.92-2.73,3-5.58,5.93-8.72,8.54-3.08,2.56-6.46,4.8-10.19,6.36-2.33,.97-4.75,1.62-7.21,1.98,1.32,7.06,3.63,14.02,7.5,20.08,6.31,9.89,16.4,16.21,27.89,18.21,3,.52,6.15,.84,9.28,.84,2.24-.36,4.47-.62,6.56-.72,9.98-.48,21.85-.95,21.85-.95,2.36-4.58,2.27-10.21,1.02-15.1-1.46-5.73-4.6-10.88-7.67-15.87-.06-.09-.1-.19-.16-.29,.85,.42,1.34,.62,1.34,.62l.39,.03c6.48,9.25,16.59,18.03,7.45,30.13h1.9c.77-.79,1.21-2.05,1.76-2.96,2.62-4.32,3.76-8.62,3.73-12.77,14.92-16.15,13.42-40.03,7.46-53.5Z"/>
            <path class="cls-41" d="M37.06,272.45c2.66-.39,5.31-.89,7.93-1.54,8.35-2.07,16.44-5.57,23.13-11.06,5.86-4.82,10.5-10.96,13.69-17.84,5.08-10.98,6.73-23.19,6.6-35.29-.33-.26-.67-.52-1-.78-5.72-4.67-10.85-10.06-15.2-16.02-3-4.11-5.64-8.49-7.8-13.1-.54-1.16-1.07-2.34-1.54-3.55-.04,.07-.07,.14-.11,.2-.89,1.63-2.56,2.45-4.25,2.66-.29,.04-.58,.05-.87,.05-3.94-.03-7.16-3.18-9.31-5.8-2.08-2.55-3.59-5.33-4.74-8.37-1.16-3.08-2.07-6.25-2.78-9.46-.63-2.87-1.17-5.85-1.17-8.85,0-.15,0-.31,0-.46,.02-1.25,.17-2.58,.68-3.77,.51-1.19,1.45-2.23,2.94-2.71,.52-.17,1.05-.24,1.58-.24,1.4,0,2.76,.51,3.94,1.21-.14-.58-.27-1.15-.39-1.73-.29-1.31-.55-2.62-.79-3.93-6.01,1.98-14.45,6.77-17.89,10.56-4.75,5.23-10.45,13.77-10.93,15.67-.47,1.9-.95,9.02-.95,9.02l-3.8,22.8c-2.09,2.09-4.05,4.04-5.35,6.65-.81,1.64-1.85,3.09-2.27,4.89-.31,1.33-.84,2.52-1.18,3.85-.77,3.1-1.68,6.11-1.66,9.32,.01,1.88,.03,3.52,.37,5.34,.22,1.21,.6,2.45,.58,3.67l.38,1.24c-4.04,7.53-5.25,16.63-3.81,25.26,.17,1.01,.44,1.96,.61,2.94,.07,.39-.06,.79,.01,1.19,.08,.43,.36,.74,.43,1.19l.51-.24c-.09,2.3,.06,4.65,.5,7.07,.39,2.17,.97,4.72,2.03,6.67,.36,.66,.55,1.25,.82,1.94,.23,.61,.71,1.06,.9,1.66l5.25,1.06c.04-1.75-.1-3.61,.25-5.31,1.32-6.58,4.63-12.72,9.81-17.35,4.41-3.94,11.03-5.91,15.69-9.58-3.19,3.38-6.36,6.78-9.3,10.39-3.84,4.73-5.98,10.19-6.02,16.29-.01,1.95,.65,3.58,.95,5.45,0,0,5.89-.77,13.62-.71-.03-.01-.06-.02-.09-.03-.24-.07-.28-.48,0-.52Z"/>
            <path class="cls-10" d="M82.3,233.81c-1.19,.02-2.47,.09-3.66,.01-1.47-.09-2.48-.93-3.77-1.3-1.21-.35-2.13-.25-3.04-1.38-2.14-2.66-1.69-6.71-4.59-8.8-1.39-1-3.06-.66-4.58-.11-2.04,.73-4.06,1.1-6.08,1.94-2.94,1.21-5.77,2.21-8.98,2.05-4.45-.22-4.45-8.33-4.43-11.45,.01-2.55-.17-5.14-.04-7.69,.14-2.59,1.02-5.08,1.33-7.63,.45-3.62-.96-7.13-3.83-9.38-1.42-1.11-2.54-1.25-4.29-1.23-.71,0-3.34,.41-3.85-.1-.77-.77,.24-3.31-.19-4.35-.7-1.68-3.06-1.49-4.48-1.43-3.25,.14-7.3,.66-9.36,3.34l3.8-11.4c-2.33,4.15-5.83,8.49-5.65,13.37,.1,2.88-1.85,6.14-2.93,8.72-.84,2.01-3.08,6.57-.58,8.32,1.22,.86,2.74,.43,4.09,.62,.29,2.11-2.01,4.97-3.1,6.59-1.75,2.61-3.62,5.05-5.03,7.88-2.02,4.07-3.48,8.82-3.38,13.41,.03,1.5,.12,3.75,1.86,4.4,1.5,.55,1.9-.32,2.09,1.86,.12,1.38,.23,2.61,.44,3.99,.32,2.16,.03,4.16,2.64,4.89,1.46,.41,3.28,.04,4.65-.5,3.85-1.54,6.88-4.99,10.57-6.9,2.66-1.37,6.5-4.04,9.75-2.6,2.02,.89,1.83,3.38,1.55,5.21-.7,4.6-1.96,8.69-1.81,13.4,.26,7.99,8.63,7.97,14.69,7.89,1.62-.02,2.37-.44,2.47,1.35,.02,.33,.02,.64,.03,.95,4.85-1.99,9.44-4.59,13.51-7.93,5.86-4.82,10.5-10.96,13.69-17.84,1.12-2.43,2.07-4.92,2.87-7.45-.56-.63-1.13-.78-2.38-.75Zm151.78-37.88c-.46-1.05-.94-1.79-1.57-2.74-.51-.78-.78-1.66-1.4-2.39-1.06-1.26-1.36-2.62-2.19-4.01-.1-.16-.21-.32-.31-.48-.39-.21-.78-.42-1.16-.63-2.45-1.37-4.12-4.49-6.96-5.11-1.79-.39-3.21,.62-4.74,1.32-1.76,.81-2.67,.73-4.43,0-4.95-2.07-7.08,1.92-8.41,6.27-1.32,4.31-1.44,9.72-1.42,14.19,.02,3.97-.34,7.72-.63,11.63-.19,2.62-.83,5.16-3.29,6.59-.94,.54-2.23,.78-3.29,.93-1.09,.15-1.93-.46-2.97-.39-3.58,.24-2.49,7.63-4.67,7.65-.83,0-1.73-1.3-2.56-1.61-.77-.29-1.37-.27-2.18-.28-2.63-.05-3.21,0-5.07,1.87-2.8,2.81-4.85,5.92-6.62,9.49-.95,1.93-1.82,4.16-2.17,6.29-.25,1.54-.08,2.58-1.03,3.94-1.47,2.11-2.57-.13-4.64,.7-2.04,.83-1.36,3.2-2.67,4.3l1.27-.63c-.05,2.46,.41,4.75,1.37,6.87,1.59,1.09,3.25,2.07,4.98,2.93,.39-.04,.79-.1,1.19-.2,2.18-.18,2.53-.16,3.9-1.36,1.14-1.01,1.35-1.59,3.05-1.17,1.7,.42,3.02,1.15,4.81,1.4,3.84,.54,7.59-1.32,9.08-4.99,1.31-3.21,1.61-6.69,3.31-9.76,.54-.98,.45-.88,1.21-1.35,.4,.11,.78,.08,1.14-.09,.2-.3,.46-.53,.77-.72,1.41-.28,2.17,.74,3.49-.74,2.02-2.28,2.2-6.25,2.67-9.16,.7-4.31,2.09-8.47,5.85-11.01,1.94-1.31,4.03-1.82,6.32-1.7,.85,.04,1.83,.53,2.6,.54,1.15,0,1.29-.5,2.01-1.15,.8-.72,.55-.87,1.73-.84,1.05,.03,2.24,.48,3.21,.84,1.69,.62,4.38,1.67,6.04,.52,1.74-1.2,1.85-3.83,2.65-5.62,.85-1.9,1.57-3.66,2.05-5.66,.37-1.54,.35-4.27,2.54-3.69,.14,.04,.26,.09,.39,.14-.75-4.04-1.89-7.76-3.29-10.9Zm-195.94-14.72c.35,1.64-.21,2.81,1.71,3.37,1.17,.34,2.5-.53,3.97-.04,1,.34,1.05,1.29,1.85,1.66,.72,.33,1.79,.13,2.56,.11,1.48-.03,2.66,.14,2.41,1.88-.29,2-1.37,3.41,.76,4.44,1.14,.55,1.23,.51,1.28,1.89,.04,1.03-.02,2.07,0,3.1,.04,3.24-.65,6.45-.64,9.75,0,.69-.13,1.68-.01,2.38,.2,1.2-.07,1.15,1.23,1.28,3.11,.31,6.41-6.04,8.93-4.82,.98,.47,1.58,2.21,1.74,3.02,.1,.48-.09,1.39,.09,1.81,.42,.95,1.03,.41,1.96,.71,.92,.29,2.35,1.65,2.99,2.38,1.06,1.21,1.76,4.65,3.19,5.05,.47-.95-.46-2.82-.64-3.89-.3-1.75-1.14-3.3-1.76-4.92-1.23-3.24-.93-6.9-2.36-10.13-.6-1.34-.86-4.03-2.71-2.63-.7,.53-1.35,1.96-1.91,2.65-.26,.32-1.26,1.81-1.65,1.87-2.95,.46-3.05-8.84-2.81-10.63,.24-1.81,1.44-3.51,.04-5.08-.83-.93-2.05-1.2-3.18-1.55-1.4-.43-2.96-1.05-4.43-1.13-.59-.03-1.32,.18-1.9,.06-1.14-.23-1.8-1.24-2.68-1.95-1.79-1.45-2.78-2.32-3.81-4.43-.67-1.36-1.3-3.86-3-4.32-3.17-.86-5.88,3.38-8.77,4.82l1.15,.77c2.63-1.27,5.68-.73,6.37,2.5Zm122.23,65.28c.69-.84,1.13-1.72,1.86-2.55,.58-.66,1.26-1.31,1.74-2.04,1.74-2.66,3.64-5.23,5.07-8.09,1.67-3.35,3.58-6.48,6.48-8.83,.71-.57,1.84-1.41,2.42-2.07,.6-.67,.44-1.51,1.36-1.81,.43,.04,.86,.07,1.3,.08,.46-.08,.88-.25,1.27-.53,.8-.21,1.52-.17,2.34-.1-1.22-.49-2.61-2.15-3.45-3.18-.87-1.06-1.57-3.16-3.34-2.48-1.06,.41-2.36,2.96-3,3.86-1.2,1.69-2.07,3.62-3.64,5.03-.97,.87-2.27,2.02-3.45,2.62-1.1,.56-.92-.09-1.93,.08-.44,.08-1.78,1-2.07,1.25-1.81,1.57-1.9,4.64-2.36,6.76-.39,1.84-1.29,1.97-3.05,1.27-1.94,2.99-2.03,5.78-2.03,9.22v4.02c.04,.13,.07,.26,.11,.38,1.44-.4,3.42-1.75,4.36-2.9Zm28.94-33.74c.48-.56,1.28-1.17,1.58-1.7,.77-1.34,1.27-2.56,2.2-3.83,.89-1.21,5.01-8.1,7.18-5.32,.1-2.07-.93-4.13-1.24-6.16-.24-1.64-.02-4.77-1.36-6.06,.13,1.77-1.27,4.86-2.1,6.38-1.09,2-2.58,3.88-3.84,5.75-.58,.86-.62,2.23-1.63,2.77-.73,.39-1.85,.04-2.45,.84-.73,.97-.1,4.36-.1,5.57l1.74,1.75Zm9-27.74c.09-.77,.76-1.25,1.13-1.97,.93-1.81,1.01-3.3,2.55-4.89,.93-.96,1.36-1.53,2.67-1.22,1,.23,1.04,.83,1.93,.17,.62-.46,.23-1.55,1.25-1.64,.22-.02,1.61,.75,1.88,.87,.9,.37,1.68,.27,2.55,.58,.93,.34,1.17,1.58,2.34,1.08-1.2-1.88-3.74-4.24-5.51-5.65-.87-.69-1.82-1-2.56-1.87-.58-.67-.86-1.56-1.7-1.83-1.25,2.2-2.99,4.24-4.42,6.32-1.03,1.5-2.27,2.8-3.1,4.44-.45,.88-.73,1.81-1.26,2.64,.13,.15,.26,.31,.38,.46l1.88,2.51Z"/>
            <path class="cls-68" d="M40.13,222.9c-.55-.44-1-1.18-1.39-1.74-1.14-1.67-1.81-3.54-1.91-5.54-.14-2.79,1.17-5.19,1.29-7.91,.12-2.63,.29-5.37-1.04-7.72-.37-.67-.83-1.41-1.48-1.82-.95-.6-1.61-.19-2.57-.41-2.13-.48-3.09-1.31-3.81-3.35-.41-1.14-.53-2.32-.62-3.51-.08-1.07,0-2.06-1.22-2.6-.97-.43-2.43,.1-3.24,.68-.78,.55-1.01,1.52-1.87,1.77h-1.27c-1.03,2.1-2.42,3.75-3.65,5.7-.53,.83-1.24,1.95-.33,2.74,.75,.65,1.48-.09,2.4-.23,.94-.14,2.37-.1,3.17,.37,4.51,2.64,4.13,10.66,2.85,14.83-.95,3.08-2.42,5.48-4.11,8.21-1.51,2.43-3.4,4.65-3.5,7.67-.04,1.28,.55,1.98,.69,3.15,.12,1.02-.57,1.87-.71,2.85-.27,2.05-.72,3.81-1.18,5.81,3.99-2.85,8.3-5.32,11.97-8.65,2.53-2.29,5.15-4.41,7.94-6.37,1.48-1.04,3.5-2.41,5.3-2.63,.09-1.35-1.02-.74-1.71-1.28Zm3.68,16.61l.11-.11c-.04-.11-.1-.2-.14-.31l.03,.42Zm24.74-.76c-1.27-.93-1.98-2-2.64-3.34-1.07-2.16-1.28-1.6-3.06-.49-2.83,1.76-6,3.37-7.81-.34-.87-1.79-1.37-2.7-3.66-1.59-1.4,.68-2.3,2.23-3.77,2.72l-3.69,3.69c1.09,2.57,2.97,3.98,3.06,7.04,.07,2.39,.02,4.79,0,7.18-.02,2.1,.06,3.05,2.38,3.01,5.1-.09,15.61-14.29,19.17-5.32,1.24-1.73,2.56-3.39,3.79-5.16,1.51-2.19,3.88-5.07,4.37-7.71-2.41,1.76-5.68,2.1-8.13,.3Zm-32.33-62.23c.91,.16,2.05,1.03,1.88,2.08,1.68-2.15,5.11,3.34,6.2,4.4,.62,.61,1.14,1.46,1.81,1.98,.71,.55,1.47,.35,2.3,.39,.67,.03,1.86,.23,2.39,.7,.31,.27,.71,.82,.95,1.13,.26,.34,.34,.52,.46,1.02,.26,1.06-.04,2.12,.14,3.17,.2,1.17,.97,.94,1.77,1.41,.84,.5,.46,2.12,.47,3,.02,1.3-.3,2.53-.34,3.83-.04,1.29-.03,2.45-.23,3.73-.12,.77-.07,1.54-.07,2.32,0,.17-.16,1.37,.05,1.5,.34,.22,.58-.14,.86-.27,.66-.3,1.28-.59,1.94-.96,1.68-.95,3.99-2.85,6.01-1.52,1.01,.67,1.96,1.79,2.62,2.78,.38,.57,.78,1.05,1.19,1.58,.32,.41,.49,1.21,.89,1.5,.14-.25-.2-1.2-.25-1.55-.1-.72-.26-1.44-.4-2.15-.27-1.31-.45-2.71-.91-3.97-.48-1.31-1.06-1.21-2.22-.73-.86,.36-1.8,.66-2.63,1.08-.48,.25-.87,.72-1.45,.78-1.7,.18-2.76-1.89-3.11-3.25-.19-.75-.17-1.61-.31-2.38-.16-.86-.07-1.76-.07-2.64,0-.61-.05-1.24-.01-1.86,.04-.55,.28-1,.34-1.54,.1-.79-.11-1.45-.56-2.06-.15-.2-.57-.39-.66-.61-.18-.42,.14-.64,.23-1.05,.12-.55,.22-1.99,0-2.51-.3-.72-.93-.73-1.56-.88-.88-.22-1.65-.25-2.6-.25-.77,0-1.71,.15-2.46,.02-1.51-.27-2.88-1.09-3.92-2.23-.63-.69-1.45-1.16-2.1-1.88-.9-1.02-1.12-2.38-2.06-3.36-.71-.74-1.47-1.76-2.53-1.9-.66-.09-1.45,.17-2.06,.49h-2.85c-.38,1.06,2.31,.56,2.85,.66Zm131.73,55.51c.24-.51,.42-.72,.8-1.11,.28-.29,.35-.59,.55-.92,.38-.63,.82-1.22,1.34-1.73,1.12-1.1,2.25-2.19,3.34-3.32,.51-.54,.93-1.14,1.41-1.7,.6-.71,1.41-1.13,2.07-1.78,.55-.55,2.08-2.07,3.01-1.55-.4-.29-.88-.47-1.26-.81-.61-.52-1.13-1.51-1.79-1.92-1.31-.8-1.69,1.84-2.08,2.56-1.2,2.22-2.93,4.02-4.48,5.99-.62,.78-1.01,1.68-1.73,2.38-.47,.47-.9,1.15-1.48,1.5-1.34,.8-2.56,1.52-3.25,2.99-.47,1-1.05,1.94-1.52,2.94-.41,.87-.59,1.84-1.01,2.7-.44,.9-.81,1.06-1.75,.87-.79-.16-1.46-.63-1.93,.27-.37,.69-.03,4.84-.69,4.87l.63,1.9c.65-.14,.97-1.13,1.33-1.58,.55-.71,1.24-1.32,1.84-1.99,.93-1.05,2.2-1.97,2.79-3.31,.57-1.3,1.08-2.6,1.72-3.89,.6-1.21,1.58-2.18,2.14-3.36Zm1.27,24.9l-.05-.04c-.06,.09-.11,.17-.16,.26,.07-.07,.14-.15,.22-.23Zm39.33-36.71c-.72-.78-1.44-1.49-2.22-2.22-.8-.74-2.61-1.98-2.94-3.1,.3,2.17-.27,4.48-1.29,6.39-.75,1.4-1.88,2.59-3.12,3.59-.95,.76-2.06,1.74-3.18,2.23-.63,.27-1.14,.19-1.58,.82-.54,.78-.49,1.93-.92,2.79-.57,1.15-1.46,2.41-2.87,2.43-1.17,.01-2.41-.41-3.45-.91-.84-.4-1.76-.57-2.6-.95-.51-.23-1.03-.77-1.54-.91-.92-.25-2.03,.45-2.77,.94-1.7,1.15-2.79,3.77-3.57,5.59-.86,2.01-1.67,3.98-2.79,5.85-.54,.91-.72,1.86-1.01,2.86-.29,.98-.69,1.91-.87,2.92-.21,1.15-.71,3.22-2.01,3.61-.85,.26-1.58-.54-2.51-.24-1.07,.35-1.48,1.23-1.89,2.16l3.75,2.81c1.44-2.22,3.39-.88,5.11,.35,1.27,.91,2.12,1.85,3.75,1.57,1.22-.21,1.81-1.48,2.61-2.34,3.33-3.56,4.69-8.26,7.35-12.28,.55-.82,1.24-2.68,2.27-3.08,.77-.3,1.27,.54,1.9,.79,2.82,1.13,3.85-2.65,4.37-4.61,.51-1.94,1.54-3.8,2.22-5.68,.4-1.11,.81-2.01,1.57-2.93,1.04-1.25,1.73-2.63,2.69-3.92,1.53-2.06,4.41-2.91,6.79-3.11-.25-.56-.84-.98-1.25-1.43Zm24.89-14.51s-.23-.49-.25-.55c-.56-1.24-1.08-2.66-1.7-3.95-1.29-2.65-1.95-5.64-3.66-8.07-.87-1.23-1.48-2.6-2.32-3.83-.32-.47-.52-.98-.86-1.42-.24-.31-.5-.47-.67-.84,0,.7,.42,1.45,.59,2.12,.16,.61,.18,1.59,.02,2.19-.86-.1-1.84-.88-2.64-1.23-1.04-.45-1.92-.26-2.85,.42-1.35,.98-.7,3-2.09,3.85-1.33,.81-3.48-.69-4.53-1.4-.97-.66-1.82-1.53-2.75-2.26-1.27-1-1.56-.46-2.03,1.01-1.2,3.7-2.45,7.13-2.38,11.09,.02,.94,.02,2.12-.47,2.97-.27,.47-.68,.62-.82,1.15-.24,.89,.2,1.97,.31,2.82,.09,.72,.03,1.48,.03,2.21,.39,1.95,1.24,3.45,2.51,5.07,.32,.41,1.21,1.74,1.95,1.62,.34-.06,.48-.42,.67-.65,.69-.84,1.37-1.63,2-2.52,1.21-1.72,3.61-4.12,5.8-4.44,.9-.13,1.54,.47,2.27,.9,1.09,.65,1.9,1.59,2.79,2.48,1.03,1.04,2.85,3.53,4.37,2.12,1.59-1.47,2.08-3.48,2.35-5.55,.13-1.01,.21-3.54,1.14-4.25,.81-.62,1.69,.91,2.29,1.32,.05-.64,.57-1.12,.76-1.73,.14-.42,.23-.11,.18-.63Zm-30.5-29.67c.36-.21,1.02-.29,1.45-.19,.39,.1,.47,.34,.93,.35,.63,0,.56-.17,.87-.66,.53-.82,1.28-.71,2.13-.47,.57,.16,1.17,.44,1.76,.5,.36,.04,.69-.13,.97,.17-.33-.34-.66-.55-1.05-.8-.77-.5-1.28-1.16-1.98-1.73-.9-.73-1.67-.91-2.37-1.9-.22-.31-.55-1.07-.9-1.1-.02,.41-.31,.61-.4,.97-.16,.65-.04,.91-.45,1.52-.38,.55-.56,1.15-.88,1.69-.22,.38-.6,.63-.62,1.1-.09,.02-.17,.04-.26,.06l-.32,1.58c.49-.1,.65-.83,1.1-1.1Zm-13.45,34.54c.32-.33,.26-.81,.48-1.18,.41-.67,.93-1.44,1.39-2.1,.63-.91,1.5-1.66,2.18-2.53,.58-.74,.73-1.4,1.45-2.12,.5-.49,.93-.75,1.53-1.11,.61-.37,1.06-.95,1.67-1.3,.83-.47,2.07-.96,3.01-.94l-1.58-2.53c0,.06,.02,.13,.02,.19-.45-.38-1.04-1.09-1.62-.68-.36,.26-.17,.45-.29,.79-.16,.48-.36,.9-.57,1.38-.32,.71-.67,1.46-1.09,2.13-.25,.4-1.21,1.5-1.71,1.57-.91,.12-1.21-.85-1.97,.32-.44,.67-.68,1.7-.94,2.45-.32,.97-.63,1.74-1.12,2.63-.53,.97-.66,1.16-1.78,1.33,.31,.67,.29,1.19,.93,1.72Zm15.83-23.45c-.62,1.12-1.04,2.42-1.42,3.64-.23,.73-.43,1.48-.65,2.21-.11,.37-.07,.85-.22,1.22l1.34-1.87c1.25-1.43,1.32-4.79,3.46-5.4,.87-.25,2.43-.02,3.27,.25,.6,.19,1.27,.35,1.84,.63,.51,.25,.88,.67,1.41,.89,.86,.36,1.74,.71,2.51-.04,.78-.77,1.15-1.94,1.76-2.84,.5-.74,1.24-1.24,2.07-.8,.76,.41,1.53,1.35,2.33,1.57,.11-.65-1-2.3-1.3-2.84-.31-.54-.78-1.63-1.43-1.77-.61,.73-.99,1.73-1.62,2.43-.69,.76-1.91,1-2.88,.95-.95-.05-1.95-.94-2.78-1.44-.95-.58-1.64-.81-2.75-.79-2.19,.04-3.92,2.18-4.92,3.99Zm-2.29,7.07l-.25,.34c.12-.09,.19-.21,.25-.34ZM14.02,233.11c-.33-1.45,.18-3.3,.38-4.73,.55-4,1.54-7.82,3.46-11.38,.7-1.3,1.62-2.34,2.54-3.47,.46-.57,1.36-1.14,1.53-1.84-.74,.04-1.42,.7-2.05,1.06-.58,.33-1.19,.56-1.72,.97-.51,.4-.94,.91-1.44,1.34-.84,.73-1.71,1.5-2.48,2.29-.72,.74-1.53,1.26-2.34,1.89-.72,.57-.98,1.35-1.5,2.07-.53,.73-.99,1.47-1.13,2.38-.12,.77-.12,1.62-.33,2.38-.13,.49-.58,1.22-.24,1.75,.38,.6,1.05,.06,1.55,.34,.6,.33,.61,1.27,.62,1.84,.04,1.71,.5,3.37,.63,5.07,.17,2.1,.45,4.28,.79,6.37,.28,1.74,.2,3.55,.17,5.33l1.89-4.09c.02-1.25,.49-1.98,.88-3.16,.32-.97,1.12-2.79,.66-3.81-.44-.97-1.62-1.47-1.88-2.6Zm-1.56,14.57c0-.3,0-.61,.01-.91v.03s-.01,.88-.01,.88Zm51.47-23.39c-2.25,.13-3.74,2.69-5.86,3.36-1.34,.42-3.33,0-4.13-1.12l.63,2.53c.21,.24,.28,.55,.5,.76,.24,.23,.55,.28,.78,.55,.57,.68,.78,1.82,1.58,2.37,.57,.39,1.37,.34,1.98,.07,.64-.28,.78-.66,1.26-1.15,.32-.33,.74-.54,1.04-.89,.65-.75,.79-1.3,1.85-1.57,.91-.23,1.4,.1,2.25,.48,1.89,.85,2.54,2.98,4.24,4.04,.3-.78-.15-1.75-.35-2.5-.38-1.48-.69-2.52-1.51-3.83-.89-1.42-2.4-3.2-4.26-3.09Z"/>
            <path class="cls-16" d="M229.22,203.4c3.73,8.2,2.78,20.19,2.19,24.98-1.99-10.35-7.69-21.53-10.74-25.93-4.27-6.18-14.25-30.4-14.25-30.4,0,0,8.07,23.75,13.77,35.15,4.23,8.46,4.8,18.75,4.81,23.49-3.17-2.65-7.09-5.61-11.93-9.24-.61-.45-1.19-.92-1.76-1.39-14.07-25.15-11.07-52.28-11.07-52.28,3.8-5.23,12.35,.47,16.62,8.07,3.67,6.52,16.75,17.23,20.71,32.12-.74-4.49-1.97-8.62-3.49-12.05-.46-1.05-.94-1.79-1.57-2.74-.51-.78-.78-1.66-1.4-2.39-1.06-1.26-1.36-2.62-2.19-4.01-.89-1.49-2.01-2.8-2.85-4.32-2.19-3.92-4.07-7.73-5.29-12.09-.73-2.62-1.34-5.56-1.57-8.28-.25-2.97,.14-5.89,.5-8.8,0,0-4.99-21.38-5.7-21.85-.71-.47-9.5-7.12-12.11-7.6-1.39-.25-2.97-.77-4.44-.95-.34,2.34-.87,4.64-1.24,6.91,.15-.01,.3-.02,.46-.02,1.22,0,2.42,.45,3.36,1.34,.83,.8,1.15,1.9,1.37,2.81,.36,1.55,.49,3.15,.49,4.73,0,1.45-.11,2.9-.23,4.29-.29,3.22-.81,6.45-1.69,9.58-.18,.63-.38,1.26-.6,1.88-.1,.28-.21,.56-.33,.84-.05,.12-.1,.24-.16,.36,0,.02-.01,.02-.01,.12,0,.05,0,.11,0,.21v.19c0,2.35-.47,4.65-1.01,6.86-1.16,4.69-2.87,9.23-4.79,13.63-3.84,8.77-8.7,17.18-14.6,24.75-2.69,3.46-5.63,6.7-8.56,9.92-2.73,3-5.58,5.93-8.72,8.54-3.08,2.56-6.46,4.8-10.19,6.36-2.33,.97-4.75,1.62-7.21,1.98,1.32,7.06,3.63,14.02,7.5,20.08,6.31,9.89,16.4,16.21,27.89,18.21,3,.52,6.15,.84,9.28,.84,1.44-.23,2.87-.42,4.26-.55-25.03-.08-35.25-18.56-39.31-31.29,.37-.8,.83-1.74,1.34-2.75,3.21,7.72,10.54,21.65,24.11,29.59,0,0-18.19-16.62-21.37-34.33,1.21-1.85,2.56-3.56,3.95-4.72,3.78,36.86,28.5,42.69,32.52,43.4,.31-.02,.61-.04,.91-.06-18.06-9.81-24.07-30.57-25.6-48.61,3.01-2.65,6.73-6.48,10.47-11.11l13.36,29.31-12.35-17.1s9.02,16.15,12.82,21.85c3.25,4.87,5.45,17.02,4.83,25.49,1.75-.08,3.52-.16,5.22-.23,.14-3.92-.03-16-6.25-30.01-5.53-12.45-11.56-26.65-14.44-33.46,1.74-2.37,3.44-4.89,5.05-7.53,1.75,8.92,4.97,20.97,10.82,32.91,8.46,17.27,7.5,29.83,5.09,38.07,2.94-.13,5.68-.25,7.89-.34,.09-5.81-.3-17.55-4.42-26.81-5.4-12.16-17.2-35.4-16.39-49.12,1.74-3.36,3.26-6.86,4.44-10.41,.43,19.12,10.19,34.05,13.06,38.04-11.39-10.94-14.41-24.11-14.41-24.11,.48,13.3,4.27,17.1,21.85,34.67,2.05,2.05,3.76,3.94,5.22,5.69h0c3.22,4.75,4.92,10.29,5.81,15.27,3.51-3.89,6.1-8.22,7.9-12.73,5.29-31-14.18-50.5-14.18-50.5,0,0,3.8,7.12,8.55,17.58Zm-163.87,2.37s-6.17,32.77-22.8,44.65c-13.21,9.44-17.72,19.46-19.02,23.19,0,.03,.01,.06,.02,.09,0,0,3.34-.43,8.28-.62,2.62-6.8,7.96-13.49,17.37-25.03,14.73-18.05,16.15-42.27,16.15-42.27Zm-30.94,14.6c.49-.27,.97-.56,1.49-.82,0,0-.55,.26-1.49,.82Zm.97,23.9s.04-.02,.04-.02c18.52-13.77,27.08-42.75,27.08-42.75-8.55,25.17-30.88,31.35-44.18,43.22-3.37,3.01-5.55,6.6-6.92,10.28,3.73-21.58,18.3-31.83,23.01-34.63-26.49,14.63-28.44,42.96-28.47,50.49,.03,.08,.06,.15,.09,.23,.23,.61,.71,1.06,.9,1.66l5.25,1.06c.04-1.75-.1-3.61,.25-5.31,1.32-6.58,4.63-12.72,9.81-17.35,4.41-3.94,11.03-5.91,15.69-9.58-.84,.9-1.69,1.79-2.53,2.7Zm52.04-38.34c-5.72-4.67-10.85-10.06-15.2-16.02-3-4.11-5.64-8.49-7.8-13.1-.54-1.16-1.07-2.34-1.54-3.55-.04,.07-.07,.14-.11,.2-.89,1.63-2.56,2.45-4.25,2.66-.29,.04-.58,.05-.87,.05-3.94-.03-7.16-3.18-9.31-5.8-2.08-2.55-3.59-5.33-4.74-8.37-1.16-3.08-2.07-6.25-2.78-9.46-.63-2.87-1.17-5.85-1.17-8.85,0-.15,0-.31,0-.46,.02-1.25,.17-2.58,.68-3.77,.51-1.19,1.45-2.23,2.94-2.71,.52-.17,1.05-.24,1.58-.24,1.4,0,2.76,.51,3.94,1.21-.14-.58-.27-1.15-.39-1.73-.29-1.31-.55-2.62-.79-3.93-6.01,1.98-14.45,6.77-17.89,10.56-4.75,5.23-10.45,13.77-10.93,15.67-.47,1.9-.95,9.02-.95,9.02l-3.8,22.8c-2.09,2.09-4.05,4.04-5.35,6.65-.81,1.64-1.85,3.09-2.27,4.89-.13,.57-.31,1.1-.49,1.64,4.73-8.06,12.96-11.99,15.22-16.51,2.85-5.7,14.25-22.32,19.95-16.62,.62,.62,1.29,1.19,1.97,1.72-2.45,7.3-7.08,17.55-14.8,22.98-7.44,5.23-12.46,10.29-15.39,13.63-3.61,2.13-6.76,4.5-9.31,6.98,.02,1.61,.07,3.08,.36,4.69,.22,1.21,.6,2.45,.58,3.67l.34,1.12,.14-.17s4.27-10.92,19.95-16.62c15.68-5.7,23.28-10.45,29.45-23.27,0,0-6.65,12.35-22.8,16.15-3.97,.94-7.8,2.22-11.38,3.75,5.97-6.38,10.35-6.69,17.08-12.3,4.71-3.92,9.27-11.15,12.42-16.86,3.81,1.59,7.52,2.5,9.91,3.56,3.28,1.46,6.55,7.09,7.9,9.65,2.66,19.47,4.52,45.3-2.2,55.75-9.24,14.37-20.13,22.49-29.66,28.43,.48,0,.97,0,1.47,0-.03-.01-.06-.02-.09-.03-.24-.07-.28-.48,0-.52,2.66-.39,5.31-.89,7.93-1.54,8.35-2.07,16.44-5.57,23.13-11.06,5.86-4.82,10.5-10.96,13.69-17.84,5.08-10.98,6.73-23.19,6.6-35.29-.33-.26-.67-.52-1-.78Zm-25.91,56.02l.04-.28s15.83-19,13.93-42.43c-.55-6.72-1.35-13.33-2.19-19.51,2.72,1.03,8,3.46,11.61,7.86-1.38,29.05-12.97,45.43-23.39,54.36Zm-36.54-40.49s-7.8,2.15-15.04,8.7c4.53-6.97,13.36-18.06,25.96-22.47,0,0-23.75,4.68-32.37,30.05-1.13,1.78-2.14,3.75-2.99,5.9,.02,2.24,.21,4.49,.58,6.71,.17,1.01,.44,1.96,.61,2.94,.07,.39-.06,.79,.01,1.19,.07,.42,.34,.72,.42,1.15,.09-4.08,1.84-20.18,22.81-34.16Z"/>
            <path class="cls-40" d="M61.63,202.82c-2.54,6.44-4.83,13.04-8.29,19.07-3.82,6.66-9.21,12.22-14.46,17.75-.63,.67-1.28,1.34-1.94,2.01-5.1,3.6-11.42,5.44-16,9.87-2.92,2.83-5.23,6.27-6.82,10.01-1.75,4.12-2.13,7.87-2.11,12.28,0,.19,.28,.19,.29,0,.24-8.96,4.39-17.98,11.74-23.39,2.98-2.2,6.51-3.71,9.78-5.55-3.25,3.39-6.4,6.94-8.58,10.97-1.43,2.64-2.4,5.49-2.83,8.46-.49,3.47,.24,6.1,.96,9.44,.04,.21,.35,.12,.32-.09-.63-3.96-.9-7.45,.19-11.39,.87-3.16,2.35-6.11,4.29-8.74,4.44-6.05,10.05-11.29,15.1-16.82,4.51-4.94,8.75-10.03,11.87-15.98,2.97-5.66,5.04-11.72,7.25-17.69,.18-.48-.58-.68-.77-.21ZM3.15,257.38c-.07-4.99,1.02-9.92,3.08-14.45,4-8.81,10.97-15.43,18.48-21.26,.27-.21-.08-.67-.37-.48-8.31,5.43-15.8,13.25-19.62,22.51-1.46,3.54-2.33,7.32-2.53,11.14-.41-1.64-.56-3.56-.77-5.17-.2-1.54-.32-3.1-.36-4.65-.09-3.27,.16-6.56,.83-9.76,1.36-6.54,4.38-12.71,9.18-17.41,5.05-4.93,11.82-7.5,18.14-10.37,6.26-2.84,12.55-5.93,17.4-10.92,.34-.35-.19-.88-.54-.54-10.8,10.45-27.82,11.37-37.69,22.86-4.2,4.9-6.83,11.03-7.85,17.38-.5,3.12-.65,6.28-.43,9.44,.11,1.59,.31,3.19,.63,4.75,.37,1.77,.56,3.6,1.22,5.28,.04,.1,.13,.14,.21,.14-.01,.75-.01,1.5,.03,2.25,.29,5.48,2.19,9.92,4.56,14.75,.11,.23,.44,.03,.34-.2-2.26-4.98-3.86-9.71-3.94-15.27Zm1.59-33.56c-.04-2.75-.7-5.44-.67-8.22,.04-3.28,.81-6.39,1.66-9.53,.78-2.9,1.73-5.67,3.14-8.32,1.49-2.81,3.43-4.95,5.47-7.35,.35-.42-.18-.95-.6-.6-4.74,4.03-7.3,9.25-8.96,15.14-.86,3.05-1.66,6.25-1.68,9.44-.01,3.28,1.04,6.23,1.24,9.45,.02,.25,.39,.25,.39,0Zm213.11,24.52c-1.02-3.12-2.48-6.08-4.13-8.92-.84-1.46-1.75-2.88-2.63-4.31-.82-1.34-1.44-2.8-2.48-3.98-.35-.4-.88,.17-.57,.57,.92,1.17,1.44,2.63,2.19,3.91,.71,1.21,1.44,2.41,2.13,3.63,1.57,2.77,3.04,5.6,4.11,8.6,2.02,5.64,2.7,12.06,.22,17.66-.11,.24,.24,.46,.37,.21,2.84-5.4,2.64-11.69,.8-17.38Zm3.6-.41c-3.08-6.22-8.2-11.3-11.9-17.15-.22-.35-.72-.05-.55,.32,2.48,5.52,7.1,9.92,10.25,15.06,3.88,6.32,4.02,12.62-.16,18.89-.11,.17,.16,.38,.28,.22,4.25-5.32,5.12-11.19,2.08-17.34Zm17.9-34.17c-.32-5.41-1.5-10.76-3.53-15.78-2.49-6.18-6.87-11.45-9.98-17.3-2.06-3.87-3.68-7.9-4.68-12.18-1.15-4.96-.9-9.5-.56-14.51,.03-.45-.72-.56-.8-.11-1.27,7.12-.45,14.13,2.11,20.9,2.46,6.52,6.51,12.18,9.89,18.2,5.92,10.56,7.87,22.72,5.3,34.63-.83,3.83-2.1,7.55-3.73,11.1-1.75,3.81-4.08,7.21-6.21,10.79,0-.49,0-.98-.03-1.47-.36-5.92-3.12-11.43-6.91-15.9-4.42-5.2-10.33-8.83-14.92-13.9-4.89-5.41-8.55-11.67-10.54-18.7-.08-.28-.51-.17-.44,.12,1.44,5.96,4.22,11.48,7.98,16.31,3.87,4.96,8.68,8.64,13.26,12.87,4.81,4.44,8.81,10.11,10.11,16.62,.67,3.36,.55,6.84-.33,10.15-.84,3.11-2.32,6.89-4.28,9.48-.06,.08,.08,.19,.15,.11,3.44-3.96,5.65-9.49,5.92-14.82,4.74-5.03,8.01-12,10.02-18.55,1.79-5.83,2.55-11.98,2.19-18.07Z"/>
            <path class="cls-10" d="M46.34,228.74s-6.65,6.02-15.83,9.82c-9.18,3.8-19.32,12.98-19.95,26.28,0,0,3.17-9.82,9.18-14.25,6.02-4.43,18.68-10.77,26.6-21.85Zm1.27,19s-.2,.21-.55,.58c.36-.37,.55-.58,.55-.58Zm-8.23,7.6c-5.07,4.12-11.08,13.62-11.08,13.62l2.85,1.9c1.68-7,13.26-19.69,15.92-22.53-1.11,1.16-3.85,3.9-7.68,7.02Zm34.52-28.5c-.32,.95-5.07,16.47-9.18,22.48-4.12,6.02-15.2,16.78-15.2,16.78l8.55-2.22c13.93-16.15,16.15-38,15.83-37.05Zm-51.3-21.53c-7.6,3.17-15.83,9.5-15.83,9.5l-.95,5.38c6.33-11.08,31.03-19,31.03-19,0,0-6.65,.95-14.25,4.12Zm10.77-36.73c5.07-4.43,7.28-9.5,7.28-9.5l-1.9-6.02s-4.43,10.13-8.87,13.62l4.75-11.72s-7.92,8.23-10.77,23.75c-.18,.98,4.43-5.7,9.5-10.13Zm9.82,10.77l.63-4.12-7.28,14.25s8.23-7.28,11.4-13.62l-1.9-1.27-2.85,4.75Zm124.13,42.75s-.32,16.15,4.12,25.33c4.43,9.18,12.66,12.98,12.66,12.98-11.4-9.5-16.78-38.32-16.78-38.32Zm-17.1,12.35c.95,19,18.68,27.55,18.68,27.55-5.38-3.17-18.68-27.55-18.68-27.55Zm49.72,27.55l2.85,2.22c.32-11.72-5.7-22.8-5.7-22.8,2.22,5.38,2.85,20.58,2.85,20.58Zm6.21-22.09c-.31-.85-.51-1.34-.51-1.34,.19,.41,.35,.86,.51,1.34Zm1.39,19.24l3.17,4.75c.78-8.57-3.12-20.11-4.55-23.99,2.22,6.8,1.39,19.24,1.39,19.24Zm-4.75-55.73c-2.53-8.87-4.43-31.67-4.43-31.67,0,0-1.27,8.87-.63,15.83,.63,6.97,5.07,15.83,5.07,15.83Zm22.48,12.03s4.12,19.63,3.17,28.5c0,0,2.53-6.65,2.22-12.35-.32-5.7-5.38-16.15-5.38-16.15Zm8.23,.95l-.63,14.25c2.53-6.33,.63-14.25,.63-14.25Zm-25.02-68.72l2.85,15.52s6.02,7.6,9.18,15.2c0,0-3.17-10.45-4.43-15.2-1.27-4.75-7.6-15.52-7.6-15.52Zm-5.7,14.25c4.75,2.22,9.5,6.33,9.5,6.33l-5.07-6.02-4.43-.32Z"/>
          </g>
          <g>
            <path class="cls-50" d="M75.32,86.08c-.57,4.59-1.01,8.82-1.33,12.75-1.05,12.37-1.12,21.85-1.52,30.48-.62,13.47-.55,25.17-6.46,37.84-5.49,11.77-16.55,20.79-26.32,29.14-13.65,11.66-32.61,14.73-37.69,38.16,0,0-2.64-5.28,4.61-16.14,2.14-3.21,5.14-6.91,9.33-11.1,15.35-15.35,33.8-28.05,39.81-46.61,1.18-3.64,1.88-7.51,1.99-11.66,.64-25.34-8.24-32.94-8.24-32.94l3.34-3.89,22.47-26.04Z"/>
            <path class="cls-61" d="M242.04,230.48c-1.9,11.4-10.45,13.77-10.45,13.77l1.59-2.84c19.86-14.03-8.02-38.1-19.63-49.87-.98-.99-1.83-1.89-2.55-2.7-16.94-19.22-15.26-45.22-17.55-70.35l10.58,13.66c-.48,2.41-.82,4.77-1.04,7.07-2.87,29.8,14.61,49.9,24.31,61.81,10.45,12.83,16.63,18.05,14.73,29.45Z"/>
            <path class="cls-79" d="M212.28,189.79c-13.61-17.69-14.58-46.83-14.59-54.67,1.69,.97,3.63,2.32,5.32,4.1,.22-2.3,.56-4.65,1.04-7.07l-10.58-13.66c2.29,25.13,.61,51.13,17.55,70.35,.71,.81,1.57,1.71,2.55,2.7-.39-.56-.81-1.15-1.27-1.75ZM67.24,99.85s.22,1.87,.47,7.1c-1.84-.81-3.75-1.16-5.54-.76-1.86,.42-5.4,2.85-9.33,5.93l-3.34,3.89s8.87,7.6,8.24,32.94c-.1,4.15-.81,8.02-1.99,11.66l.08,.06s5.06-10.14,4.44-30.71c0,0,3.74-6.08,8.02-5.38,.09,4.03,.16,8.64,.21,13.93,.32,30.4-23.43,52.88-36.41,59.85-12.99,6.96-25.01,19.95-25.01,19.95h-.47c-7.25,10.87-4.61,16.15-4.61,16.15,5.07-23.44,24.04-26.5,37.69-38.16,9.77-8.34,20.82-17.37,26.32-29.14,5.91-12.66,5.84-24.37,6.46-37.84,.4-8.63,.47-18.11,1.52-30.48-3.37,.39-6.74,1.03-6.74,1.03Z"/>
            <path class="cls-77" d="M75.25,86.08c-1.59,12.28-2.48,24.53-3,36.9-.53,12.52-.33,25.58-4.3,37.6-4.4,13.34-14.25,22.83-24.66,31.74-3.87,3.31-7.74,6.48-12.06,9.2-3.88,2.45-7.9,4.69-11.71,7.24-9.3,6.23-15.74,14.43-18.23,25.48,.45-.06,.91-.12,1.36-.18-1.61-3.31,1.05-9.3,2.81-12.45,6.38-11.42,17.34-19.85,26.77-28.62,8.66-8.06,17.5-16.72,22.38-27.7,4.81-10.84,4.65-23.63,2.04-35.05-1.1-4.84-2.93-11.09-6.87-14.51-.37-.32-.91,.22-.54,.54,3.34,2.9,4.98,8.34,6.04,12.4,3.11,11.97,3.2,25.88-2.29,37.16-5.43,11.16-14.88,19.8-23.91,28.04-9.1,8.3-19.42,16.61-25.29,27.66-1.87,3.5-4.39,9.26-2.42,13.28,.28,.57,1.23,.43,1.36-.18,2.39-10.69,8.53-18.6,17.51-24.65,3.81-2.56,7.82-4.81,11.69-7.27,4.2-2.66,7.96-5.71,11.73-8.94,9.59-8.22,19.13-16.96,24.01-28.89,4.97-12.16,5.01-25.5,5.41-38.42,.42-13.49,.73-26.98,2.31-40.4,.01-.09-.13-.09-.14,0h0Z"/>
            <path class="cls-67" d="M193.35,118.49c1.87,23.11,.13,48.85,15.19,68.25,4.55,5.85,10.31,10.7,15.41,16.06,5.73,6.02,11.87,12.8,14.55,20.82,1.3,3.89,1.52,8.12-.51,11.82-1.18,2.14-2.89,3.52-4.66,5.14-1.03,.94-1.56,2.14-2.25,3.38-.25,.44,.16,1.01,.66,.86,4.86-1.4,8.45-6.13,9.99-10.71,1.31-3.89,1.66-8.3,.61-12.29-1-3.81-3.24-7.13-5.62-10.21-10.71-13.91-23.18-26.29-29.44-43.07-4.37-11.72-5.33-24.03-2.98-36.31,.07-.35-.46-.49-.53-.15-1.89,9.87-1.87,20.07,.55,29.85,2.05,8.31,5.78,16.11,10.4,23.29,3.67,5.69,7.93,10.95,12.21,16.19,3.49,4.28,7.26,8.4,10.43,12.93,2.38,3.4,4.24,7.14,4.43,11.35,.31,6.87-3.03,15.9-10.36,18,.22,.29,.44,.58,.66,.86,.69-1.23,1.2-2.4,2.27-3.29,1.48-1.23,2.86-2.5,3.95-4.1,1.81-2.65,2.59-5.83,2.34-9.03-.61-7.62-5.71-14.46-10.45-20.12-5.17-6.18-11.1-11.62-16.73-17.37-8.06-8.24-12.84-18.6-15.31-29.78-3.07-13.89-3.23-28.26-4.61-42.37-.01-.14-.23-.14-.22,0h0Z"/>
          </g>
          <path class="cls-54" d="M117.91,58.69s27.23-13.62,48.45,3.8c0,0-.63-11.72-1.58-12.67-.95-.95-5.7-9.18-8.55-10.45-2.85-1.27-9.19-4.75-15.83-5.07s-12.67-1.58-16.15,.95c-3.48,2.53-12.03,9.18-12.03,9.18l5.7,14.25Z"/>
          <g>
            <path class="cls-44" d="M240.43,188.53c-2.93-9.62-8.14-18.75-13.39-27.27-3.57-5.79-7.39-10.55-7.31-17.7,.02-1.77-.49-3.34-.48-5.1,0-.48-.08-1.04-.07-1.55,0-.17,0-.34,.04-.49,.09-.5,.42-.9,.5-1.41,0,0-.13-.34-.34-.87,8.08-4.9,12.72-16.47,11.9-25.27l-.44-.39s.03-.06,.05-.09c.59-.77,.54-.83,.82-1.78,.17-.62,.72-1.32,.88-1.98,.1-.47-.13-.99-.06-1.45,.1-.56,.42-.96,.52-1.53,.24-1.23-.43-2.34-.5-3.51-.08-1.18-.34-2.16-.46-3.31-.22-2.36-1.1-4.65-1.91-6.85-.35-.95-.78-2.39-1.38-3.22-.68-.93-2.13-1.72-3.14-2.24-.64-.34-1.46-1.04-2.11-1.21-.74-.21-2.09-.04-2.88,.01-.93,.05-2.08,.4-2.85,.92-.91,.63-1.26,1.7-1.96,2.48l-.61-.57c-.13-1.68-.33-3.38-.6-5.09-2.39-15.43-10.09-32.01-18.21-43.8-8.38-12.18-29.45-46.55-62.23-29.92l-.06,.2-1.37,.28c-.1,0-.22-.02-.33-.04-.92-.19-2.11-.99-2.88-1.39-.84-.43-1.57-.67-2.48-.94C112.43-.74,97.99-.17,83.87,5.96c-23.72,10.3-42.21,30.9-50.6,55.2-.39,1.12-.98,2.38-1.18,3.54l-.95,1.43c-.48,.06-.87,.18-1.22,.33-.65,.27-1.17,.68-1.87,1.1-.78,.47-1.55,.68-2.17,1.42-.77,.92-1.77,1.71-2.39,2.75-.71,1.18-1.09,2.55-1.52,3.84-.49,1.5-.4,3.2-.34,4.81,.05,1.21,.64,2.72,1.3,3.74,.7,1.06,2.25,1.44,1.53,2.9-.5,1.01-1.92,1.37-2.6,2.39-.46,.68-.96,1.24-1.42,1.89-.82,1.15-.7,2.4-.7,3.81,0,.89,.03,1.72,.1,2.54l-.58,.31c-.93,.17-1.96,2.07-2.4,2.75-.55,.85-1.34,1.74-1.65,2.71-.31,.96-.65,2.07-.7,3.09-.08,1.25,.39,2.05,.58,3.24,.12,.03,.26,.06,.38,.09l.48,1.43c.86,1.76,1.6,3.83,2.93,5.32,.18,.2,.35,.36,.54,.52-1.6,.69-2.94,2.02-4.07,3.7-3.37,4.99-4.87,13.12-5.38,17.46-.98,8.42,.34,16.95,2.28,25.15,.04,.16,.06,.32,.09,.48-.41,8.63,4.39,23.69-2.07,30.48,.39-.34,6.72-5.94,9.48-13.76l.47-3.33c-.31-12.52,9.85-24.83,18.51-32.63,7.69-6.93,16.1-13.8,22.23-22.29,1.25-1.73,2.4-3.53,3.44-5.4l-.76-.17c6.62-3.44,12.73-7.77,17.79-12.08,14.23-12.1,25.95-28.17,35.1-44.35,1.6-2.82,4.05-6.15,6.92-8.66,4.87-4.25,10.92-6.17,16.04,.63l4.83,.7c2.02-1.95,4.11-3.94,6.71-5.01,1.77-.72,3.35-.86,4.75-.55,3.77,.81,6.3,4.71,7.78,8.65,8.66,23.06,18.13,47.02,31.25,67.97,3.37,5.38,7.94,11,13.98,12.16v3.03c-.2,.95,.77,2.88,1.07,3.8,.58,1.77,1.4,3.47,2.26,5.12,.73,1.41,1.33,2.82,2.17,4.18,4.54,7.41,10.16,13.52,15.55,20.31,6.65,8.37,11.78,21.48,9.72,32.61-.3,1.61-1.04,3.15-1.32,4.75l.48,4.28c6.65-14.73,4.03-18.19,1.71-25.8Zm-22.85-92c.74,1.09,1.45,1.67,2.14,1.85l.16,.49-2.2-1.93c-.04-.14-.06-.29-.1-.43,0,0,0,0,0,0Z"/>
            <path class="cls-25" d="M60.95,122.35c-6.13,8.49-14.54,15.36-22.23,22.29-8.65,7.8-18.82,20.11-18.51,32.63l-.47,3.33c-2.77,7.82-9.09,13.41-9.48,13.76,6.46-6.78,1.66-21.85,2.07-30.48-.03-.16-.05-.32-.09-.48-1.94-8.2-3.26-16.73-2.28-25.15,.5-4.34,2-12.47,5.38-17.46,4.16,2,14.15,6.33,21.5,5.35,5.34-.71,15.89-2.43,24.11-3.79Z"/>
            <path class="cls-63" d="M238.72,214.33l-.48-4.28c.29-1.6,1.02-3.14,1.32-4.75,2.06-11.13-3.07-24.24-9.72-32.61-5.4-6.79-11.01-12.9-15.55-20.31-.84-1.36-1.43-2.77-2.17-4.18-.86-1.65-1.68-3.35-2.26-5.12-.3-.92-1.27-2.85-1.07-3.8v-1.22l10.38-1.16c0,.51,.08,1.06,.07,1.55,0,1.76,.5,3.33,.48,5.1-.08,7.14,3.73,11.9,7.31,17.7,5.25,8.52,10.47,17.65,13.39,27.27,2.32,7.61,4.94,11.08-1.71,25.8Z"/>
            <path class="cls-73" d="M132.46,5.77l-1.57,4.31c-13.3-12.35-35.62,25.18-35.62,25.18l-17.1,20.9c-19.48,21.85-47.98,17.1-47.98,17.1l-.27-6.79c.35-.15,.74-.28,1.22-.33l.95-1.43c.2-1.17,.79-2.42,1.18-3.54,8.39-24.3,26.88-44.91,50.6-55.2C97.99-.17,112.43-.74,127.1,3.44c.91,.27,1.64,.51,2.48,.94,.77,.4,1.96,1.2,2.88,1.39Z"/>
            <path class="cls-21" d="M214.65,79.06c-1.07,2.75-2.06,5.12-2.06,5.12,0,0-.95,7.6-10.45-15.2-9.5-22.8-29.45-44.17-43.23-58.42-13.77-14.25-28.02-.48-28.02-.48l1.57-4.31c.11,.02,.23,.04,.33,.04l1.37-.28,.06-.2c32.77-16.62,53.85,17.75,62.23,29.92,8.12,11.8,15.82,28.38,18.21,43.8Z"/>
            <path class="cls-30" d="M33.04,79.9s15.2,3.8,28.5-4.43c13.3-8.23,27.87-23.43,35.47-31.67l13.93-13.3s-8.23,38.63-32.3,53.2c-24.07,14.57-38.63,16.47-50.67,8.87,0,0-5.07-9.5,5.07-12.67Z"/>
            <path class="cls-39" d="M166.67,26.07s11.4,31.03,21.53,44.33c10.13,13.3,27.23,28.5,27.23,28.5,0,0-25.33-53.2-48.77-72.83Z"/>
            <path class="cls-28" d="M217.58,96.53s0,0,0-.01c.03,.14,.07,.28,.1,.42l2.21,1.93-.16-.49c-.69-.19-1.4-.76-2.14-1.85Zm-172.66,2.85c13.3,1.42,31.35-6.18,48.45-28.98,0,0-21.85,21.85-42.75,25.17,0,0-14.25,1.9-23.27-4.27,0,0,4.27,6.65,17.57,8.07Zm21.85-31.82c18.05-10.45,42.27-51.3,42.27-51.3,0,0-29.93,36.1-41.33,44.65-2.58,1.93-5.45,3.69-8.37,5.18,3.55-9.97,15.02-24.66,15.02-24.66-12.31,11.08-18.23,23.57-19.62,26.76-1.59,.64-3.16,1.19-4.67,1.61l1.49-.83s11.88-27.55,35.63-42.75c0,0-26.92,15.8-39.47,44.16-2.19,.46-4.18,.62-5.83,.42,1.25-5.66,6.78-26.49,23.45-43.16,0,0-18.98,15.76-26.32,42.22-.84-.54-1.43-1.3-1.71-2.32-1.45-5.44,1.24-16.39,2.61-21.28-2.64,4.76-4.88,9.74-6.66,14.89-.39,1.12-.98,2.38-1.18,3.55l-.45,.68c.28,.46,.45,.74,.45,.74l-1.9,6.18c12.82,8.55,36.58-4.75,36.58-4.75Zm166.27,34.09c.23-1.22-.42-2.31-.51-3.48-1.39,5.56-5.79,11-16.62,13.09-14.73,2.85-32.3-22.8-38-40.85,0,0,21.38,38,34.2,38.47,0,0,8.55,.48,12.83-6.17,0,0-6.18,4.27-13.77,2.38-6.88-1.72-25.81-20.55-33.93-36.79-5.45-16.89-10.65-28.34-20.22-29.71-5.56-.8-9.64,3.88-12.17,8.16-.27-2.99-1.61-5.5-2.56-8.64-.51-1.7-1.08-3.52-1.67-5.42,1.33-1.1,8.38-6.21,17.34,.2,0,0-9.46-8.55-18.29-3.3-.75-2.49-1.49-5.06-2.13-7.63-1.42-5.7-3.8-9.02-3.8-9.02,0,0,.48,3.32,.48,9.02s2.85,6.65,5.7,13.3c.24,.55,.43,1.09,.59,1.62-20.22-13.32-30.99,5.51-30.99,5.51,0,0,5.7-6.65,13.3-8.07,6.5-1.22,15.78,5.9,18.32,7.98-.13,1.8-.57,3.26-.88,4.32-4.2-7.4-15.87-11.51-25.52,1.47-12.35,16.62-36.57,51.3-59.85,53.67-20.55,2.1-32.58-6.54-35.11-8.59-.06,.62-.04,1.26-.04,1.94,0,.89,.03,1.72,.1,2.54l-.58,.31c-.93,.17-1.95,2.07-2.4,2.76-.55,.85-1.34,1.73-1.65,2.71-.31,.96-.65,2.07-.71,3.09-.08,1.26,.39,2.05,.58,3.24,.13,.03,.25,.05,.38,.08l.48,1.43c.86,1.76,1.61,3.83,2.93,5.32,.18,.2,.36,.37,.54,.52-1.74,.76-3.18,2.26-4.38,4.16,1.78,1.75,3.63,3.21,5.52,4.4-5.31,6.56-6.51,21.7-6.51,21.7,2.74-8.21,8.43-15.68,11.4-19.22,1.74,.69,3.5,1.19,5.26,1.54l-9.54,13.88c3.16-3.16,12.27-9.94,16.82-13.27,4.24-.09,8.3-.89,11.92-1.97-2.59,3.28-6.68,7.62-12.58,12.86-8.55,7.6-14.25,15.68-18.53,24.23-3.34,6.69-2.62,17.15-2.15,21.39,1.18-1.83,2.29-3.91,3.1-6.19l.47-3.33c-.31-12.52,9.85-24.83,18.51-32.63,9.26-8.35,19.55-16.6,25.67-27.69l-.76-.17c6.61-3.44,12.73-7.77,17.79-12.08,14.23-12.11,25.95-28.17,35.1-44.35,4.3-7.59,14.83-18.87,22.96-8.04l4.83,.7c2.02-1.95,4.11-3.95,6.71-5.01,6.48-2.66,10.5,2.69,12.53,8.1,8.66,23.06,18.12,47.02,31.25,67.97,3.38,5.38,7.94,11,13.98,12.17v3.03c-.04,.19-.02,.43,.02,.69,4.18,.61,8.17-.69,10.43-1.66-.01-.61-.13-1.32-.02-1.9,.09-.5,.42-.89,.5-1.4,0,0-.13-.34-.34-.87,8.08-4.9,12.72-16.48,11.9-25.27l-.45-.39s.03-.06,.05-.08c.59-.77,.55-.84,.82-1.78,.18-.61,.72-1.32,.87-1.98,.11-.46-.13-.99-.05-1.45,.1-.56,.42-.96,.52-1.53ZM166.52,36.68c2.43,6.33,5.33,12.36,8.48,18.03-5.18-10.24-8.48-18.03-8.48-18.03Zm24.23,11.4l9.97,18.52,15.2,27.07c6.17,10.93,9.5,0,9.5,0,1.42-6.65-6.17-8.07-6.17-8.07l2.85,2.38s.95,3.33-1.43,4.75c-1.7,1.02-3.89-1.62-4.99-3.19l-.23-3.93s.13-.36,.34-.95l-.53-.5c-1.3-16.78-9.79-35.79-18.81-48.9-.8-1.17-1.72-2.54-2.76-4.04,11.22,20.28,17,47.27,17,47.27l-3.24-4.94c-3.92-23.28-17.18-38.76-17.18-38.76,8.97,14.21,12.35,27.82,13.39,32.97l-4.63-7.05c-8.66-26.94-27.28-43.5-27.28-43.5,12.28,13.94,20.39,30.2,24.15,38.73l-5.15-7.85Zm-86.45,.95s-30.4,36.57-56.05,40.37c0,0-10.92,1.9-19.48-4.27,0,0,7.6,6.65,18.52,7.12,10.93,.48,29.45-8.08,57-43.22Zm5.7-17.58s8.55-8.07,19-9.02c0,0-8.55-5.7-19,9.02Zm7.6-11.4c4.75,0,12.82-.95,12.82-.95,0,0-4.75-6.65-12.35-2.37-7.6,4.27-18.53,24.22-18.53,24.22,0,0,13.3-20.9,18.05-20.9Zm95.95,82.65s-22.53-19.23-38.54-47.99c9.51,18.8,25.32,45.84,38.54,47.99ZM142.29,21.48c5.7,.95,13.77,3.33,13.77,3.33-6.65-7.6-13.77-3.33-13.77-3.33Zm20.9,6.65s-8.07-12.35-12.82-14.72c-4.75-2.38-9.98,3.32-9.98,3.32,13.77-.95,22.8,11.4,22.8,11.4Z"/>
            <path class="cls-42" d="M26.71,102.07s16.47,5.07,29.77,4.43c13.3-.63,39.9-24.07,53.83-45.6,0,0-15.83,37.37-48.77,54.47,0,0-19.63,10.13-37.37,.63,0,0,17.73,5.07,29.77-.63,0,0-13.93-1.27-27.23-13.3Z"/>
            <path class="cls-11" d="M176.18,78s18.37,33.57,29.77,36.73c11.4,3.17,19-2.53,19-2.53,0,0-5.07,9.5-12.03,10.77,0,0,9.5,0,14.57-5.07,0,0-5.07,19.63-19.63,13.93-14.57-5.7-28.5-44.33-31.66-53.83Z"/>
            <path class="cls-80" d="M51.57,51.88s21.38-31.35,56.05-38.47l4.75-4.75s-40.38,3.33-60.8,43.22Z"/>
            <path class="cls-47" d="M54.89,33.83S85.29,4.38,115.69,6.28l7.12-1.42S83.87-4.64,54.89,33.83Z"/>
            <path class="cls-76" d="M71.52,51.4s8.07-18.52,28.02-28.97l-9.5,10.93-18.52,18.05Z"/>
            <path class="cls-87" d="M158.44,4.86s17.57,1.9,30.87,25.65c0,0-15.67-19-30.87-25.65Z"/>
            <path class="cls-6" d="M109.04,21.96s12.67-14.57,21.22-5.38v-4.43s-9.18-10.45-21.22,9.82Z"/>
            <path class="cls-27" d="M139.13,13.72s6.02-5.38,11.72-2.53c5.7,2.85,21.85,16.78,21.85,16.78,0,0-11.72-16.15-23.12-19.95-11.4-3.8-13.93,1.9-13.93,1.9l3.48,3.8Z"/>
            <path class="cls-38" d="M113.79,33.04s7.6-9.18,12.98-8.55c5.38,.63,10.13,7.92,10.13,7.92,0,0-13.3-8.55-23.12,.63Z"/>
            <path class="cls-7" d="M141.97,25.76s8.23-4.75,18.05,4.43c0,0-10.45-3.8-18.05-4.43Z"/>
            <path class="cls-75" d="M143.56,33.04l1.58,4.75s12.67-4.43,19.32,.95c0,0-11.4-9.82-20.9-5.7Z"/>
            <path class="cls-18" d="M127.41,37.16s-10.45-4.43-19,12.35c0,0,8.23-11.4,19-12.35Z"/>
            <path class="cls-37" d="M44.44,108.88s19.48,6.18,44.65-20.42c0,0-20.42,29.45-44.65,20.42Z"/>
            <path class="cls-69" d="M187.89,102.23s12.83,20.42,29.45,14.25c0,0-13.77,12.83-29.45-14.25Z"/>
            <path class="cls-8" d="M197.86,118.85s12.35,10.45,25.18,3.33c0,0-10.45,16.15-25.18-3.33Z"/>
            <path class="cls-65" d="M51.09,113.63s13.78-2.38,19.95-5.7c0,0-8.08,9.02-19.95,5.7Z"/>
            <path class="cls-31" d="M115.22,54.25s15.2-12.82,22.8-7.12c0,0-12.35-10.92-22.8,7.12Z"/>
            <path class="cls-55" d="M149.42,46.66s12.35-4.28,17.57,7.6c0,0-5.7-21.38-17.57-7.6Z"/>
            <path class="cls-53" d="M33.99,137.85s-16.15,17.57-18.05,28.5c0,0-5.22-14.25,18.05-28.5Z"/>
            <path class="cls-46" d="M213.54,145.93s4.75,11.4,11.88,17.57c0,0-9.03-12.83-9.03-21.85l-2.85,4.28Z"/>
            <path class="cls-44" d="M58.06,80.85c-15.2,3.48-27.55-.63-27.55-.63l-3.17,1.9s13.93,6.65,31.98,.63c18.05-6.02,32.62-26.6,32.62-26.6,0,0-18.68,21.22-33.88,24.7Zm143.77-.63c-4.75-11.08-35.78-54.78-35.78-54.78l4.75,15.52c7.6,7.28,31.03,39.27,31.03,39.27Zm-23.12-2.22l-10.45-26.92c2.53,15.83,10.45,26.92,10.45,26.92Zm-84.55,.32c7.92-7.6,18.05-25.02,18.05-25.02-5.38,7.28-17.73,23.75-17.73,23.75l-.32,1.27Z"/>
            <path class="cls-19" d="M17.53,103.34s9.82,10.13,24.7,12.03c0,0-22.48,2.22-24.7-12.03Z"/>
            <path class="cls-14" d="M130.35,47.34c-3.88,.57-7.2,3.38-9.75,6.17-3.3,3.61-5.49,7.93-8,12.08-3,4.94-6.2,9.77-9.62,14.43-13.11,17.85-30.95,35.55-53.01,41.34-5.89,1.54-12.13,2.06-18.11,.71-3.17-.71-6.19-1.93-8.98-3.59-.95-.57-1.9-1.12-2.73-1.82-.06-.1-.16-.18-.27-.21-.32-.29-.61-.59-.88-.94-1.05-1.39-1.71-3.05-2.5-4.59-.39-.76-1.44-.09-1.12,.65,.83,1.92,1.58,3.9,2.96,5.45-5.71,3.11-7.52,11.94-8.52,17.67-.85,4.92-1.03,9.88-.57,14.85,.27,2.91,.75,5.81,1.37,8.66,.36,1.68,.8,3.31,1.16,4.96-.11,1.49-.12,2.98-.01,4.47,.32,4.4,1.09,8.76,1.35,13.17,.27,4.61,.16,9.75-3,13.43-.15,.18,.09,.43,.26,.26,5.64-5.9,3.71-16,2.99-23.28-.45-4.49-.56-8.74,.51-13.16,1.36-5.63,4.19-10.44,8.05-14.71,.34-.38-.18-.9-.56-.56-4.98,4.64-8.19,10.96-9.27,17.65-.47-2.87-1.06-5.74-1.37-8.64-.56-5.17-.62-10.38,.17-15.54,.92-5.99,2.57-15,8.29-18.42,.06,.05,.11,.1,.17,.15,1.91,1.49,4.21,2.71,6.43,3.68,4.41,1.92,9.21,2.78,14.01,2.69,8.17-.15,16.12-2.79,23.41-6.49-3.63,5.25-7.45,10.11-12.06,14.6-4.74,4.62-9.88,8.81-14.64,13.41-8.49,8.19-16.74,19.01-16.4,31.39,0,.15,.23,.15,.23,0,.14-12.99,9.96-24.26,19.12-32.45,4.72-4.22,9.56-8.31,14.03-12.81,4.3-4.33,8.75-9.22,11.3-14.83,.03-.06,.04-.11,.04-.16,1.43-.77,2.83-1.57,4.19-2.4,19.22-11.69,33.83-29.89,45.28-48.98,2.85-4.75,5.34-9.63,9.54-13.38,1.92-1.71,4.25-3.28,6.84-3.71,3.55-.6,6.45,1.31,8.71,3.85,.09,.11,.28-.03,.2-.15-2.19-3.16-5.23-5.51-9.25-4.91Zm81.56,89.86c3.7-.18,7.15-1.66,10.01-3.96,6.95-5.6,10.88-15.55,10.02-24.38-.03-.3-.22-.49-.44-.58,.39-.82,.74-1.65,1.09-2.39,.77-1.65,1.28-3.84,1.06-5.67-.33-2.69-.68-5.57-1.35-8.2-.6-2.36-1.38-5.27-2.69-7.35-1.03-1.63-3.01-2.52-4.65-3.42-1.6-.88-3.41-.84-5.19-.44-2.14,.47-2.88,1.68-3.98,3.14-.58-9.84-3.76-19.62-7.58-28.58-3.75-8.8-8.64-16.86-14.02-24.73-8.04-11.75-17.96-24.03-31.94-28.72-9.55-3.21-19.48-1.7-28.14,3.23-.25,.14-.03,.49,.22,.38,8.23-3.55,17.25-5.18,26-2.64,7.34,2.13,13.72,6.68,19.12,11.96,4.82,4.71,8.94,10.06,12.78,15.57,4.75,6.81,9.24,13.74,12.86,21.24,5.57,11.54,9.41,23.95,9.92,36.8,.02,.54,.83,.55,.85,0,.03-1.02,.01-2.04-.02-3.05,.53-.44,.83-.89,1.24-1.44,1.07-1.46,2.36-1.89,4.11-2.03,1.92-.16,3.06,.56,4.63,1.49,2.35,1.4,3.03,3.1,3.93,5.59,.81,2.25,1.36,4.38,1.73,6.75,.28,1.83,1.16,4.42,.78,6.24-.33,1.59-.57,3.2-1.08,4.77-1.11,3.36-3.7,5.54-6.28,7.76-.06,.05,.02,.14,.08,.11,1.87-.93,3.49-2.02,4.86-3.61,.3-.34,.57-.73,.82-1.15,.2,8.12-3.24,16.96-9.56,22.14-3.54,2.91-8.32,4.51-12.87,3.37-5.42-1.36-9.32-6.32-12.22-10.78-13.46-20.68-22.52-44.11-31.19-67.09-1.52-4.03-3.5-8.86-7.95-10.4-5.17-1.79-9.37,2.48-12.68,5.77-.16,.16,.09,.41,.25,.25,4.41-4.11,10.77-7.92,15.54-2.15,1.85,2.24,2.8,5,3.81,7.68,1.11,2.94,2.22,5.87,3.35,8.8,4.49,11.62,9.23,23.16,14.66,34.38,2.75,5.68,5.68,11.28,8.85,16.74,2.71,4.67,5.46,9.56,9.33,13.39,3.23,3.19,7.27,5.44,11.92,5.22ZM15.08,109.84c.13,.02,.25,.03,.38,.05,.07,0,.07-.09,.01-.11-.44-.14-.62-2.49-.62-2.57-.05-1.35,.47-3.07,1.1-4.25,.71-1.33,2.23-3.85,3.54-4.6,.05-.03,.09-.07,.12-.11,.55,2,1.29,3.98,1.43,5.88,.01,.15,.23,.15,.23,0-.11-3.75-1.98-7.7-.81-11.49,.68-2.22,2.78-3.11,4.12-4.72,.49-.59,.84-1.32,.62-2.11-.29-1.03-1.54-1.65-2.07-2.56-1.26-2.18-1.22-5.17-.63-7.54,1.06-4.26,4.43-8.01,8.72-9.25,.35-.1,.3-.72-.09-.67-3.14,.41-6.45,3.04-8.11,5.67-2.03,3.23-2.84,8.09-1.31,11.66,.21,.5,.45,1,.78,1.43,.15,.2,.83,.72,.92,.96,.21,.63-.28,1.76-.77,2.31-1.08,1.23-2.44,2.23-3.11,3.82-.81,1.92-.6,3.91-.11,5.88-.09-.04-.18-.05-.29-.02-1.81,.53-3.29,3.38-4.05,4.95-1.22,2.5-1.11,4.83-.09,7.32,.02,.04,.04,.06,.09,.07Zm16.39-40.16c.26-1.04,.82-1.97,.72-3.07-.01-.13-.21-.13-.2,0,.06,1.2-.68,2.22-.95,3.36-.15,.61-.22,1.2-.47,1.77-.16,.37-.35,.68-.49,1.03-.95-.43-1.86-.94-2.75-1.52-.11-.07-.24,.1-.14,.18,.9,.71,1.82,1.33,2.78,1.86,.03,.17,.22,.26,.35,.18,6.56,3.49,14.36,3.08,21.57,1.16,8.63-2.3,16.5-6.87,23.33-12.57,7.49-6.26,13.43-13.88,18.78-21.99,4.92-7.45,9.51-15.22,15.4-21.98,5.01-5.75,13.47-13.98,21.06-7.57,.42,.36,1.01-.21,.62-.62-10.5-10.95-24.93,9.47-30.1,16.95-5.86,8.5-11,17.55-17.8,25.36-6.29,7.22-13.93,13.48-22.58,17.65-8.84,4.26-20.63,7.19-30.06,3.12,.16-.43,.4-.82,.54-1.26,.22-.66,.22-1.36,.39-2.03ZM168.95,20.78c3.48,3.9,6.8,7.93,9.96,12.08,12.47,16.38,20.91,34.95,31.2,52.66,1.48,2.55,3,5.06,4.58,7.54,1.12,1.74,2.27,4.43,4.16,5.48,3.2,1.77,5.38-2.96,6.4-5.15,.24-.52-.52-.98-.78-.45-.97,1.97-3.17,6.79-5.8,4.04-1.92-2-3.3-4.69-4.75-7.06-2.68-4.37-5.17-8.86-7.6-13.37-4.78-8.89-9.29-17.93-14.42-26.63-5-8.46-10.65-16.5-16.85-24.12-5.48-6.74-11.22-13.92-18.9-18.26-3.43-1.93-7.31-3.4-11.29-3.52-4.26-.12-7.51,1.42-10.69,4.13-.15,.13,.06,.34,.22,.22,7.49-6,17.67-2.33,24.55,2.69,3.77,2.76,6.91,6.24,10.01,9.72ZM32.24,64.75c2.06-7.64,6.2-15.26,10.37-21.94,4.25-6.81,9.35-13.06,15.16-18.6C70.23,12.34,86.6,2.96,104.01,1.66c5.34-.4,10.75-.09,16.02,.85,2.52,.45,5.12,.96,7.55,1.77,1.78,.6,3.33,1.85,5.21,2.08,.63,.08,.76-.98,.15-1.1-1.67-.34-3.08-1.59-4.7-2.16-2.52-.89-5.21-1.46-7.84-1.96C115.84,.28,111.2-.12,106.55,.03c-9.44,.31-18.52,2.92-26.97,7.1-14.6,7.22-27.07,18.54-36.05,32.09-2.63,3.96-4.94,8.13-6.91,12.45-1.85,4.05-3.86,8.61-4.68,12.99-.04,.2,.25,.29,.31,.08ZM238.53,210.13c.7-3.13,1.69-5.94,1.79-9.18,.09-3.03-.27-6.07-.92-9.02-1.35-6.12-3.94-12.08-7.42-17.28-3.99-5.95-9.08-11.12-13.34-16.88-2.16-2.92-4.08-5.89-5.76-9.1-.85-1.63-1.74-3.22-2.44-4.93-.57-1.39-1.52-2.97-1.5-4.47,0-.19-.28-.18-.29,0-.16,2.24,1.21,4.95,2.08,6.96,1.36,3.1,2.87,6.13,4.71,8.97,3.82,5.87,8.46,11.16,12.89,16.56,4.26,5.19,7.71,10.91,9.65,17.38,1.01,3.35,1.65,6.83,1.72,10.33,.07,3.73-.96,6.92-1.76,10.5-.08,.38,.5,.54,.58,.16Zm4.73-12.61c-.49-5.09-2.66-10.57-4.51-15.25-3.19-8.09-7.54-15.68-12.21-22.99-2.14-3.35-4.45-6.71-5.61-10.55-.68-2.27-.67-4.56-.94-6.89-.28-2.4-.78-4.41-.14-6.79,.04-.17-.21-.29-.28-.12-.66,1.5-.74,2.73-.65,4.39,.12,2.19,.22,4.44,.42,6.62,.31,3.3,1.53,6.34,3.14,9.21,4.21,7.54,9.16,14.59,12.97,22.37,2.76,5.65,5.35,11.97,6.68,18.18,1.37,6.42-1.25,12.66-3.7,18.47-.16,.37,.38,.71,.56,.32,2.44-5.18,4.83-11.12,4.27-16.96Z"/>
          </g>
        </g>
      </g>
    </g>
  </g>
</svg>