<?xml version="1.0" encoding="UTF-8"?>
<svg xmlns="http://www.w3.org/2000/svg" viewBox="0 0 130 125">
  <defs>
    <style>
      .cls-1 {
        fill: #ffdfc7;
      }

      .cls-2 {
        fill: #7e411b;
      }

      .cls-3 {
        isolation: isolate;
      }

      .cls-4 {
        fill: #964f3f;
      }

      .cls-5 {
        fill: #ffd5b6;
      }

      .cls-5, .cls-6, .cls-7, .cls-8 {
        mix-blend-mode: multiply;
      }

      .cls-9, .cls-7 {
        fill: #45240f;
      }

      .cls-10 {
        fill: #ffd2d2;
      }

      .cls-6 {
        opacity: .8;
      }

      .cls-7 {
        opacity: .5;
      }

      .cls-11 {
        fill: #693617;
      }

      .cls-12 {
        mix-blend-mode: screen;
      }

      .cls-13 {
        fill: #840000;
      }

      .cls-14 {
        fill: #d60000;
      }

      .cls-15 {
        fill: #411907;
      }

      .cls-8 {
        opacity: .6;
      }

      .cls-16 {
        fill: #623429;
      }
    </style>
  </defs>
  <g class="cls-3">
    <g id="Layer_2" data-name="Layer 2">
      <g id="Layer_1-2" data-name="Layer 1">
        <g>
          <path class="cls-1" d="M21.64,74.92s-1.25-5.79-3.44-4.83c-2.19,.97-5.32,5.63-2.5,13.84,2.82,8.21,4.48,8,5.84,6.82,0,0,.41,9,1.2,12.68,.78,3.68,9.08,15.27,13.3,18.33,4.23,3.06,6.63,4.12,16.14-.76,9.52-4.88,15.64-9.01,19.62-18.94,3.98-9.92,5.23-13.95,7.58-18.13s3.13-14.33,2.66-18.35c-.47-4.02,.19-42.58-24.88-40.08-4.85,.48-22.22,2.74-25.66,20.92,0,0-9.7,5.15-9.86,28.49Z"/>
          <path class="cls-5" d="M82.04,65.59c-.47-4.02,.19-42.58-24.88-40.08-4.85,.48-22.22,2.74-25.66,20.92,0,0-9.7,5.15-9.86,28.49,0,0-1.12-5.16-3.09-4.92,.83,.93,1,2.63,1.06,3.82,.22,3.95-.02,7.79,.67,11.73,.28,1.59,1.48,5.45-1.4,5.03,1.07,1.16,1.91,.81,2.65,.17,0,0,.18,3.88,.52,7.59,.11-3.68,.26-7.35,.28-11.02,0-.58-.08-2.9,.92-.13,1.06,2.92,3.22,5.22,5.71,6.93-2.64-4.23-3.46-11.61-3.74-14.37-.54-5.38,.46-11.48,1.39-16.79,.67-3.8,1.98-7.31,3.53-10.81,.57-1.29,.75-2.68,2.43-2.98,7.98-7.57,13.74-9.69,18.93-6.6,5.95,3.54,9.32,6.73,11.47,12.77,2.1,5.92,5.22,11.59,6.35,17.85,1.83,10.16-1.43,21.54-5.18,30.99-1.78,4.48-4.55,8.08-8.48,10.77-4.39,3-10.31,9.14-15.99,7.66-7.21-1.87-14.26-14.03-17.18-20.4,.07,.45,.14,.87,.22,1.23,.78,3.68,9.08,15.27,13.3,18.33,4.23,3.06,6.63,4.12,16.14-.76,9.52-4.88,15.64-9.01,19.62-18.94,3.98-9.92,5.23-13.95,7.58-18.13s3.13-14.33,2.66-18.35Z"/>
          <g>
            <path class="cls-15" d="M32.23,47.56s22.58-26.72,44.49,12.39c0,0,1.88-22.05-13.61-28.33-15.49-6.28-31.4,6.77-30.88,15.94Z"/>
            <path class="cls-7" d="M32.23,47.56s22.58-26.72,44.49,12.39c0,0,1.88-22.05-13.61-28.33-15.49-6.28-31.4,6.77-30.88,15.94Z"/>
          </g>
          <path class="cls-11" d="M127.84,71.26c-2.18-6.18-6.55-11.02-11.42-15.11-3.22-2.7-6.79-4.93-10.18-7.38-1.08-.63-2.1-1.35-3.07-2.14-1.32-2.82-1.93-5.84-2.59-9.02-.82-3.97-2.41-8.3-4.18-11.92-1.84-3.76-3.78-7.92-6.56-11.06-3.14-3.54-6.97-6.75-10.91-9.3C71.93,.8,63.7-.52,55.58,.18c-4.05,.35-7.76,1.44-11.46,3.07-6.32,.53-12.15,3.69-16.79,8.2-2.5,2.43-4.63,5.24-6.26,8.35-.92,1.74-1.66,3.61-2.23,5.5-5.04,3.72-9.28,8.15-12.55,13.8C1.63,47.14-.93,57.51,.31,66.83c1.22,9.26,4.04,18.11,8.72,26.14,4.38,7.5,11.17,13.41,15.38,20.97-.06-2.6-.21-5.2-.55-7.78-.58-1.11-.98-2.05-1.13-2.72-.78-3.68-1.2-12.68-1.2-12.68-1.36,1.18-3.03,1.39-5.84-6.82-2.82-8.21,.31-12.88,2.5-13.84,.68-.3,1.42,.34,1.69,.62,0,.04-.01,.08-.02,.11,.13,1.21,.17,2.44,.13,3.66,.34,5.7,4,14.04,7.9,17.82-.13-.98-1.86-4.75-1.9-5.75-1.68-6.7-1.98-13.46-.91-20.42,.62-4.08,1.8-8.03,3.23-11.85,.61-1.63,1.34-3.2,2.16-4.71,.55-1.01,1.36-2.34,1.57-3.52,.05-.08,.09-.17,.14-.25-.07,.59-.1,1.18-.07,1.76,0,.07,.08,.04,.11,0,3.96-6.44,6.62-9.66,10.4-12.87,4.41-3.75,11.75-5.34,17.37-3.09,10.73,4.28,13.54,16.26,16.17,26.63,1.14,4.48,3.18,8.92,5.42,13.03,0,.02-.01,.04-.02,.06,.16,.18,.32,.37,.46,.58-.07,.48-1.05,9.19-2.65,12.04-2.35,4.18-3.6,8.21-7.58,18.13-3.59,8.96-8.94,13.2-16.95,17.52-.72,.66-1.62,1.37-2.78,2.1-.92,.58-1.89,1.2-3.25,1.76-.19,.08-.15,.44,.08,.54,4.69,2.01,10.42,.84,15.2-1.99,.41,.01,.82,0,1.23-.02,.01,0,.01,.02,.03,.02,2.41,.65,4.91-.23,7.12-1.69,0,.08,.02,.15,.13,.16,4.81,.68,10.4-1,14.14-4.35,4.45-.02,7.22-4.07,8.8-8.03,.91-2.28,1.58-5,1.66-7.7,.54,2.62,.7,5.28,.28,7.92-.32,1.98-.87,4.08-1.64,5.93-.43,1.03-.78,2.19-1.29,3.2-.27,.66-.57,1.29-.9,1.91,8.24-1.96,11.92-8.84,12.13-8.8,5.68,.91,11.19-.59,15.47-4.59,1.15-1.08,1.96-2.26,2.53-3.51,6.87-8.72,7.74-20.73,4.04-31.21Z"/>
          <path class="cls-4" d="M19.95,70.77c.06,.06,.06,.06,0,0h0Z"/>
          <g class="cls-8">
            <path class="cls-9" d="M127.84,71.26c-2.18-6.18-6.55-11.02-11.42-15.11-3.22-2.7-6.79-4.93-10.18-7.38-1.08-.63-2.1-1.35-3.07-2.14-1.32-2.82-1.93-5.84-2.59-9.02-.82-3.97-2.41-8.3-4.18-11.92-1.84-3.76-3.78-7.92-6.56-11.06-3.14-3.54-6.97-6.75-10.91-9.3-2.79-1.8-5.77-3.09-8.86-3.95-4.82-.94-9.7-1.12-14.58,.04,6.26,.08,12.83,.24,18.13,3.96,4.35,3.05,6.7,4.04,10.3,10.32,.24,.43,1.67,5.23,1.41,4.83-5.48-8.53-16.9-12.72-22.87-11.4,2.68,.13,13.58,2.36,16.85,6.73,4.46,5.95,4.97,10.42,4.69,10.14-6.26-6.28-15.67-10.76-20.13-9.73,10.34,1.2,16.1,8.3,19.26,13.11,6.04,9.18,6.19,21.09,11.07,30.89,4.71,9.46,10.29,19.04,11.88,29.72,1.04,7.02,1.35,18.2-4.87,23.03-.48,.38-.95-.46-.47-.83,.05-.04,.09-.08,.13-.11,0-.01,0-.02,.01-.04,4.37-7.21,1.21-17.43-1.7-24.67-3.7-9.19-10.19-16.61-14.77-25.28-2.37-4.49-3.91-9.1-5.17-14.02-1.23-4.8-2.46-9.92-5.43-13.94-3.1-4.19-7.41-7.9-12.6-8.8-5.87-1.02-10.83,1.19-16.28,3.09-.45,.16-.79-.48-.46-.81,1.89-1.85,4.08-3.17,6.4-4.24-3.78,1.09-7.44,2.63-11.11,4.08-.39,.16-.73-.37-.53-.71,1.34-2.25,3.27-3.91,5.08-5.72-2.24,.16-4.25,1.46-6.32,2.36-.39,.17-.93-.21-.64-.66,.39-.61,.84-1.16,1.31-1.69-2.06,1.25-4.29,2.25-5.34,1.14-2.04-2.16,5.99-10.51,7.92-11.04-2.99,.82-15.27,11.37-16.63,6.91-.63-2.05,2.61-6.4,4.28-7.99-.54,.46-1.07,.93-1.57,1.42-2.5,2.43-4.63,5.24-6.26,8.35-.92,1.74-1.66,3.61-2.23,5.5-.63,.47-1.25,.94-1.86,1.43-1.58,1.63-4.52,5.07-5.98,6.83-4.38,5.31-6.04,9.99-6.41,12.56,3.91-6.28,8.44-12.37,11.61-13.34,.41-.12,.72,.35,.53,.71-.59,1.1-1.57,2.54-1.49,3.85,.18,3.04,3.64,.57,4.49-.17,1.48-1.28,2.83-2.83,4.49-3.86,.32-.2,.85,.14,.69,.54-.48,1.19-1.08,2.55-1.13,3.86-.1,2.48,3.12-.07,3.85-.57,2.4-1.65,4.72-3.03,7.62-3.42,.36-.05,.62,.47,.41,.73-5.26,6.36-9.11,14.32-11.2,22.13-2.28,8.5-2.82,17.22-.63,28.17,.11,.56-1.22-2.28-1.39-2.77-2.19-6.3-2.69-13.3-1.86-19.91,.49-3.91,2.4-14.81,5.73-17.42-3.69,2.89-6.59,11.48-7.06,2-.18-3.68-3.23,1.37-3.73,2.31-1.04,1.97-2.83,7.7-5.57,7.84-3.86,.21-.79-8.68,.78-13.11,.42-2.87-4.46,4.29-5.68,7.91C3.4,56.48-.04,61.9,.3,57.24c-.37,3.23-.41,6.47,0,9.59,1.22,9.26,4.04,18.11,8.72,26.14,4.38,7.5,11.17,13.41,15.38,20.97-.06-2.6-.21-5.2-.55-7.78-.58-1.11-.98-2.05-1.13-2.72-.78-3.68-1.2-12.68-1.2-12.68-1.36,1.18-3.03,1.39-5.84-6.82-2.82-8.21,.31-12.88,2.5-13.84,.68-.3,1.42,.34,1.69,.62,0,.04-.01,.08-.02,.11,.13,1.21,.17,2.44,.13,3.66,.34,5.7,4,14.04,7.9,17.82-.13-.98-1.86-4.75-1.9-5.75-1.68-6.7-1.98-13.46-.91-20.42,.62-4.08,1.8-8.03,3.23-11.85,.61-1.63,1.34-3.2,2.16-4.71,.55-1.01,1.36-2.34,1.57-3.52,.05-.08,.09-.17,.14-.25-.07,.59-.1,1.18-.07,1.76,0,.07,.08,.04,.11,0,4.19-6.42,8.48-11.31,10.4-12.87,5.41-4.4,11.75-5.34,17.37-3.09,10.73,4.28,13.54,16.26,16.17,26.63,1.14,4.48,3.18,8.92,5.42,13.03,0,.02-.01,.04-.02,.06,.16,.18,.32,.37,.46,.58-.07,.48-1.05,9.19-2.65,12.04-2.35,4.18-3.6,8.21-7.58,18.13-3.59,8.96-8.94,13.2-16.95,17.52-.72,.66-1.62,1.37-2.78,2.1-.92,.58-1.89,1.2-3.25,1.76-.19,.08-.15,.44,.08,.54,4.69,2.01,10.42,.84,15.2-1.99,.41,.01,.82,0,1.23-.02,.01,0,.01,.02,.03,.02,2.41,.65,4.91-.23,7.12-1.69,0,.08,.02,.15,.13,.16,4.81,.68,10.4-1,14.14-4.35,4.45-.02,7.22-4.07,8.8-8.03,.91-2.28,1.58-5,1.66-7.7,.54,2.62,.7,5.28,.28,7.92-.32,1.98-.87,4.08-1.64,5.93-.43,1.03-.78,2.19-1.29,3.2-.27,.66-.57,1.29-.9,1.91,8.24-1.96,11.92-8.84,12.13-8.8,5.68,.91,11.19-.59,15.47-4.59,1.15-1.08,1.96-2.26,2.53-3.51,6.87-8.72,7.74-20.73,4.04-31.21Zm-2.15,21.21c1.56-6.83,.8-13.83-4.69-18.95,2.24,2.09,2.35,13.8-1.41,13.96-.72-.65-1.1-4.83-3.05-6.86,1.49,5.09-.29,10.39-2.42,15.23-1.73,3.94-4.69,6.44-4.54,5.96,2.82-8.85,1.84-18.7-.47-23.82-3.13-6.92-5.79-10.46-8.92-13.84-.2-.22,8.29,2.57,13.4,12.41,.77,1.48-.83-6.03-1.04-6.57-.15-.38,.27-.64,.57-.67,1.91-.21,2.56,1.76,5.29,1.12,3.03-.71-1.2-7.59-2.66-9.56-1.47-1.95-2.73-4.13-4.47-5.31,1.09,.45,1.92,1.24,2.84,2.02,4.89,4.12,9.23,7.42,11.73,13.49,3,7.29,3.44,15.93-.72,23.39-.3,.54,.43-1.38,.57-1.98Z"/>
          </g>
          <g class="cls-8">
            <path class="cls-9" d="M98.21,65.97c2.17,3.43,4.55,6.8,6.12,10.58,1.41,3.4,2.69,6.93,3.27,10.59,.49,3.08,.48,6.22,.72,9.33,3.3-15.11-6.34-30.11-8.6-32.33-3.44-3.38,.04-5.41,4.56-2.04,3.89,2.9,6.33,7.23,9.02,11.23-.03-.16-.06-.32-.09-.47-1.41-3.69-3.31-7.18-5.78-10.23-1.87-2.29-5.3-3.36-5.68-6.38,3.13,.64,14.25,6.24,15.81,10.78-.94-2.74-4.38-9.34-12.97-15.81-.26-.2,.13-.58,.45-.61,1.51-.16,2.93-.03,4.28,.31-1.03-.71-2.06-1.43-3.08-2.16-1.08-.63-2.1-1.35-3.07-2.14-1.32-2.82-1.93-5.84-2.59-9.02-.82-3.97-2.41-8.3-4.18-11.92-.48-.99-.97-2-1.49-3.02,.89,3.22,1.78,6.44,2.42,9.72,.41,2.09,1.45,6.35-.1,8.11-2.07,2.34-3.63-2.46-4.04-3.77-1.15-3.72-2.61-7.31-4.57-10.62,.63,2.4,4.68,16.16,4.04,20.94-.06,.44-.67,.44-.86,.12-1.96-3.3-2.76-7.11-4.4-10.57-.9-1.89-1.95-3.66-3.14-5.34,4.48,8.05,5.27,17.8,8.75,26.36,1.68,2.82,3.43,5.59,5.19,8.36Z"/>
          </g>
          <g class="cls-6">
            <path class="cls-9" d="M99.29,101.33c-1.03-5.25-3.53-9.64-6.2-14.16-3.3-5.59-6.75-11.14-9.36-17.12-4.56-10.4-4.96-22.88-12.19-31.99-3.5-4.4-8.75-8.34-14.45-8.73-5-.35-9.89,1.43-13.52,4.85,4.88-2.62,11.16-4.68,16.44-2.58,10.73,4.28,13.54,16.26,16.17,26.63,1.14,4.48,3.18,8.92,5.42,13.03,0,.02-.01,.04-.02,.06,.16,.18,.32,.37,.46,.58-.07,.48-1.05,9.19-2.65,12.04-2.35,4.18-3.6,8.21-7.58,18.13-3.59,8.96-8.94,13.2-16.95,17.52-.72,.66-1.62,1.37-2.78,2.1-.92,.58-1.89,1.2-3.25,1.76-.19,.08-.15,.44,.08,.54,.86,.37,1.75,.63,2.67,.79,3.52-.21,7.03-1.32,10.03-3.04,2.78-1.6,4.74-3.33,5.89-6.45,.64-1.74,1.25-3.41,2.47-4.82,.26-.3,.67-.1,.78,.21,.83,2.19,.55,4.38,.4,6.61,1.15-2.4,1.92-4.89,2.28-7.61,.33-2.56,.29-5.33,1.11-7.79,.24-.71,2.2-6.11,3.85-4.26,1.46,1.63,1.22,5.07,1.16,7.1-.11,4.12-1.34,7.85-3.01,11.49,3.71-3.65,5.93-9.01,6.92-14.07,.73-3.76,.89-7.92-.13-11.65-.58-2.13-1.54-4.17-.81-6.38,.09-.27,.31-.38,.58-.34,2.59,.41,4.35,3.26,5.5,5.43,1.73,3.26,3.06,6.81,3.92,10.42,1.24,5.23,.52,11.98-3.24,15.99,3.02-1.19,5.03-4.39,6.29-7.54,.91-2.28,1.58-5,1.66-7.7,.54,2.62,.7,5.28,.28,7.92-.32,1.98-.87,4.08-1.64,5.93-.43,1.03-.78,2.19-1.29,3.2-.21,.51-.45,1-.7,1.48,1.53-1.14,2.85-2.57,3.8-4.37,2.13-4.02,2.49-8.8,1.62-13.25Z"/>
          </g>
          <g class="cls-6">
            <path class="cls-16" d="M23.86,106.16c-.58-1.11-.98-2.05-1.13-2.72-.78-3.68-1.2-12.68-1.2-12.68-1.36,1.18-3.03,1.39-5.84-6.82-2.82-8.21,.31-12.88,2.5-13.84,.64-.28,1.34,.28,1.64,.57-.65-5.97,.07-11.96,1.94-17.92-1.18,1.44-2.35,2.92-3.16,4.58-.87,1.77-1.08,3.44-1.33,5.39-.2,1.58-.29,4.23-2.07,4.83-2.26,.76-1.81-6.05-1.71-8.92-3.71,4.76-3.73,11.82-2.61,17.44,.47,2.35,3.72,15.79,6.63,16.17-5.44-.71-9.82-19.89-9.95-24.05,.19,6.25,1.12,12.48,3.63,18.25,1.22,2.82,2.54,5.63,4.32,8.13,1.37,1.91,4.52,4.29,4.03,6.97-4.19-.17-9.84-7.18-11.74-10.75,.39,.73,.78,1.47,1.2,2.19,4.38,7.5,11.17,13.41,15.38,20.97-.06-2.6-.21-5.2-.55-7.78Z"/>
          </g>
          <g class="cls-12">
            <path class="cls-2" d="M80.68,11.71c-7.66-6.52-18.56-10.57-28.45-8.92-5.3,.9-16.39,5.39-21.5,13.3,3.4-2.41,6.87-4.39,9.54-5.36,3.28-1.19,6.07-2.01,9.91-2.41-6.27,1.55-11.96,5.11-15.69,10.74-.05,.07,.04,.15,.1,.09,5.56-5.73,11.62-8.04,19.37-8.94,3.85-.45,7.71-.06,11.48,.83,3.38,.79,8.83,2.52,12,4.93-.65-.89-3.59-4.35-4.07-4.8-1.01-.96-2.07-1.85-3.23-2.61-2.4-1.59-5.11-2.56-7.93-3.03-5.9-.99-12.07-.04-17.66,2.01-3.14,1.15-6.37,2.55-9.26,4.26,13.71-9.84,31.23-9.11,45.12,.23,.21,.14,.45-.14,.25-.31Z"/>
          </g>
          <g class="cls-12">
            <path class="cls-2" d="M96.67,67.28c-3.56-7.52-5.38-11.47-7.59-20.12-1.64-6.43-4.88-14.29-8.86-19.53-5.77-7.59-16.31-12.89-25.67-11.62,5.9-1.77,12.52-.98,18.73,.33-8.11-7.11-23.73-4.44-31.67,.94-.16,.11-.02,.4,.16,.32,5.44-2.53,10.76-3.74,16.16-3.87-3.47,.72-6.81,2.18-9.57,4.07-.07,.05-.1,.11-.11,.18-.76,.39-1.49,.82-2.17,1.32-.33,.25-.05,.86,.34,.68,6.03-2.8,11.71-2.79,17.39-1.3-5.79-.4-11.9,1.19-17.55,3.98-.11,.05-.05,.23,.06,.18,6.3-2.43,12.83-3.23,19.47-2.13,6.89,1.15,12.3,6.83,15.9,12.62,4.94,7.93,6.44,13.89,9.51,22.7,2.88,8.29,8.29,17.22,11.58,25.99,2.41,6.43,4.23,17.54,1.72,25.43-.11,.36,.55-.78,.69-1.15,5.21-12.93-2.24-27.62-8.52-39.01Z"/>
          </g>
          <g class="cls-12">
            <path class="cls-2" d="M30.31,39.32c-.4,.36-.76,.72-1.11,1.13-1.5,1.76-1.43-1.14-1.1-1.86,.17-.38,.46-.6,.07-.58-1.86,.09-3.59,2.25-5,3.32-3.84,2.91-.33-5.91,.19-6.92,.22-.43-.44,.32-.74,.63-3.39,3.51-5.82,6.75-8.46,10.86-.66,1.03-1.33,2.14-2.24,2.96-1.41,1.25-.72-2.77-.61-3.29,.37-1.67,2.22-7.28,3.44-9.54,.11-.21-.28,.08-.59,.31-5.82,4.1-10.02,11.41-12.01,19.28,.19-1.65,.43-3.28,.74-4.9,1.45-7.68,5.78-13.26,9.96-19.56,.12-.17,.72-.96,.58-.79-4.14,4.96-9.01,10.95-10.87,17.37C.68,54.17,.02,61.25,.93,68.05c.19,3.04,.77,5.95,1.78,8.57,.08,.2,.35,.09,.3-.11-2.86-12.44,1.46-25.95,8.83-36.13-1.94,4.16-3.94,11.29-.5,11.28,2.22,0,3.97-4.98,4.94-6.55,.86-1.4,1.67-2.94,2.67-4.24-.04,1.4,.4,3,1.83,3.42,2.65,.76,4.6-2.74,6.58-4.5-.18,.66-.34,1.29-.23,2.06,.03,.22,.19,.35,.4,.35,1.49,0,2.66-2.41,3.45-3.51,.14-.2-.47,.47-.68,.65Z"/>
          </g>
          <g>
            <path class="cls-14" d="M58.62,107.7s-.07-.01-.09-.01c-1.05-.29-.62-3.27-1.59-4.15-.93-.84-2-.25-2.9,.39-.42-1.04-1.34-1.96-2.37-2.27-.25-.1-.52-.18-.78-.23-2.91-.64-6.15,.92-8.92-.53-.34-.18,.31,.7,.34,.75,1.03,1.95,.24,4.59,1.5,6.35,1.11,1.55,2.93,2.53,4.58,3.36,1.28,.65,3,1.19,4.42,.82,1.13-.29,2.04-.98,2.87-1.8,.36-.36,.7-.9,1.13-1.18,.76-.49,1.32-.54,1.98-1.25,.11-.12-.04-.21-.15-.24Z"/>
            <path class="cls-10" d="M52.27,103.16c.06-.1,.1-.19,.08-.23-1.15-1.74-3.84-1.37-5.66-1.18-.03,0-.28,.01-.55,.02,2.21,.25,4.43,.04,6.13,1.39Z"/>
            <path class="cls-13" d="M58.62,107.7c-.61,.22-.83,.22-1.32-.22-.41-.38-.77-.57-1.3-.71-.16-.04-.33-.07-.5-.08,.15-.05,.28-.13,.43-.14,.85-.07,.11-.23-.36-.11-1.12,.29-1.9,.41-3.05,.21-1.16-.21-1.97-1.4-2.65-2.25-.85-1.05-1.44-1.57-2.72-1.94-.08-.02-.48-.19-.42-.16,.41,.25,.75,.57,1.06,.9-.34-.11-.69-.2-1.07-.22-.77-.04-1.45,.03-2.19-.3-.86-.38-1.73-.99-2.5-1.53-.04-.03-.1,.02-.06,.06,.77,1.08,1.83,2.13,3.09,2.54,.51,.17,1.1,.12,1.62,.11,.7,0,1.3,.1,1.9,.29,.8,1.1,1.48,2.29,2.67,3.06,.61,.4,1.22,.46,1.81,.35,1.32-.03,2.76-.35,3.8,.47,.72,.57,1.22,.66,1.92-.09,.1-.11-.03-.28-.16-.23Z"/>
            <path class="cls-10" d="M46.33,107.88c.18-.18,.33-.51,.41-1.01-1.03-.55-1.89-1.37-2.45-2.44-.14,.46-.25,1.01-.19,1.48,.05,.48,.24,.92,.54,1.28,.61,.73,1.26,1.13,1.69,.7Z"/>
            <path class="cls-10" d="M52.8,109.44c-.87,.02-2-.37-2.79-.71-.79-.34-1.37-.9-2.19-1.18-1.08-.35-1.53,.9-.86,1.59,.57,.6,2.37,1.25,3.16,1.41,1.13,.21,1.93-.12,2.8-.8,.13-.11,.05-.31-.11-.31Z"/>
          </g>
        </g>
      </g>
    </g>
  </g>
</svg>