<?xml version="1.0" encoding="UTF-8"?>
<svg id="Layer_2" data-name="Layer 2" xmlns="http://www.w3.org/2000/svg" viewBox="0 0 150 200">
  <defs>
    <style>
      .cls-1 {
        fill: #7c595c;
      }

      .cls-2 {
        fill: #694d4e;
      }

      .cls-3 {
        fill: #f7c39c;
      }

      .cls-4 {
        fill: #e69d3e;
      }

      .cls-5 {
        fill: #778a8e;
      }

      .cls-6 {
        fill: #a5b3bb;
      }
    </style>
  </defs>
  <g id="_Ñëîé_1" data-name="Ñëîé 1">
    <g>
      <path class="cls-3" d="M39.88,26.3s-5.53,15.97-5.16,24.15c.22,4.82,1.11,11.81,1.11,14.8s-.85,9.06,1.72,16.66c2.08,6.14,10.08,26.68,15.43,28.8,4.12,1.63,8.45,.44,8.45,.44,0,0,.4,20.36-9.3,25.48-9.7,5.12-31.53,5.55-40.42,15.37-8.89,9.82-8.49,33.3-8.49,33.3,0,0,46.08,19.21,97.81,11.53,50.66-7.52,46.92-25.29,46.92-25.29,0,0,1.58-18.67-10.54-28.07-12.13-9.39-34.59-6.51-38.32-21.63-3.65-14.78-4.96-30.89-4.96-30.89L39.88,26.3Z"/>
      <path class="cls-1" d="M77.38,100.09c1.52-1.12,4.59-4.18,5.6-4.11,1.36,.09,3.64,1.94,6.01,3.32,5.65,3.3,8.43-.08,12.18-5.64,3.43-5.09,12-23.71,14.23-34.95,1.31-6.63,.97-13.54-.45-20.14-2.02-9.34-6.08-18.81-13.65-24.1-6.13-4.29-18.75-4.14-24.92,.75-5.65-2.93-15.29-4.96-21.47-3.74-6.19,1.22-14.3,7.9-17.36,13.91-3.63,7.14-4.82,15-1.99,23.47,1.54,4.6,4.99,9.78,8.35,13.13,3.64,3.62,9.11-8.83,11.38,6.61,.42,2.86-.22,7.77,.44,10.58,1.65,7.05,4.51,13.15,9.12,18.54,1.33,1.55,2.76,3.13,4.62,3.84,2.81,1.08,5.47,.32,7.93-1.49Z"/>
      <path class="cls-1" d="M125.56,18.45c2.05-1.57,3.56-4.22,3.11-6.85s-3.42-4.67-5.65-3.42c-.38-3.87-2.98-6.98-6.66-7.24-5.26-.38-4.13,5.65-10.28,4.1-3.8-.96-10.47,1.1-10.73,6.62-.31,6.61,2.2,12.78,7.58,14.88,5.83,2.27,4.3,10.02,10.69,12.8,6.81,2.96,10.31-2.11,10.7-5.39,.08-.67,.07-1.4,.42-1.97,.66-1.07,2.16-1,3.22-1.61,2.07-1.2,2.5-4.35,1.77-6.72-.73-2.37-2.03-4.1-4.16-5.19Z"/>
      <path class="cls-2" d="M106.81,13.13c-.6-5.53,3.39-11.18,8.58-12.14-2.03,1.79-4.09,3.62-5.49,5.99-1.41,2.36-2.08,5.38-1.12,7.98,.39,1.05,1.03,1.99,1.29,3.08,.62,2.55-.91,5.06-1.57,7.6-1.3,5.01,.83,9.96,2.94,14.35-2.3-2.87-5.26-8.21-5.72-12.08-.26-2.25,1.1-4.05,1.71-6.16,.89-3.12-.27-5.44-.61-8.63Z"/>
      <path class="cls-2" d="M108.54,7.17c-.26,2.2-.12,3.89,.88,5.93,.83,1.69,2.89,3.93,4.35,4.66,2.51,1.25,4.55,3.31,7.32,3.18,1.84-.08,4.09-.54,4.52-2.43-3.05,1.36-6.4-.23-9.39-1.72-1.29-.64-2.55-1.38-3.56-2.44-2.51-2.64-2.91-7.22-.89-10.3-1.87,.8-3.07,1.86-3.22,3.12Z"/>
      <path class="cls-2" d="M122.98,7.99c-.82,.66-1.6,1.45-1.93,2.48-.32,1.03-.06,2.33,.83,2.88-1.49-.26-2.56-2.04-2.16-3.58s2.19-2.47,3.6-1.89l-.35,.1Z"/>
      <path class="cls-2" d="M120.01,18.82c2.59-1.4,4.07-4.77,3.4-7.76,.82,1.49,.95,3.38,.34,4.97-.61,1.6-1.95,2.86-3.52,3.32l-.23-.53Z"/>
      <path class="cls-2" d="M121.72,9.13c1.37,.07,2.68,.91,3.39,2.15s.78,2.86,.2,4.17c.9-.76,1.29-2.06,1.15-3.27-.14-1.21-.76-2.31-1.57-3.17-.86-.91-2.26-1.59-3.26-.85-.64,.47-.86,1.35-1.03,2.15,.56-.37,1.27-.47,1.89-.26l-.76-.92Z"/>
      <path class="cls-2" d="M130.01,26.8c.06,1.13-1.23,2.81-2.62,3.16-3.75,.96-7.16,1.1-10.41-1.1-1.65-1.12-3.66-3.38-4.92-4.97-1.47-1.85-2.29-3.17-2.73-5.54-.13,1.27-.89,2.19-.22,3.26,.74,1.2,2.18,4.84,4.22,6.93,.81,.83,2.23,1.94,3.22,2.52,1.05,.62,2.22,.96,3.39,1.22,2.22,.49,4.62,.69,6.7-.26,2.08-.95,3.86-2.88,3.37-5.22Z"/>
      <path class="cls-2" d="M106.09,27.73c-2.69-1.86-5.12-4.32-6.35-7.46-1.24-3.13-1.1-7,.89-9.66-1.09,2.68-.86,6.04,.34,8.67,1.19,2.63,3.5,4.66,6.16,5.44-.3,1.21-.74,1.8-1.04,3.01Z"/>
      <path class="cls-2" d="M119.43,26.01c-3.13-.47-6.01-2.02-8.82-3.54-.62-.34-1.27-.69-1.69-1.29-1.15-1.63-.24-4.01-.96-5.83,2.15,4.8,6.81,8.86,11.47,10.66Z"/>
      <path class="cls-2" d="M124.61,19.38c.68,1.27-.21,2.97-1.48,3.53-1.27,.56-2.73,.26-4.03-.21,.57,.68,1.3,1.2,2.1,1.52,1.06,.42,2.28,.45,3.3-.08s1.76-1.67,1.7-2.86c-.06-1.19-1.02-2.31-2.15-2.33,.24,.24,.49,.47,.73,.71l-.17-.28Z"/>
      <path class="cls-2" d="M110.54,30.89c1.13,3.23,4.73,5.25,7.9,4.42,1.56-.41,2.93-1.4,4.19-2.47,.22-.19,.45-.48,.32-.74-.06-.12-.19-.18-.31-.24-.63-.29-1.24-.59-1.88-.82-.49,3.48-9.15,2.9-10.21-.16Z"/>
      <path class="cls-1" d="M37.24,15.31c-1.71-1.96-2.7-4.88-1.77-7.36,.93-2.48,4.22-3.87,6.18-2.17,1.1-3.71,4.23-6.22,7.88-5.71,5.22,.72,2.99,6.4,9.31,6.16,3.91-.15,10.06,3.26,9.28,8.72-.93,6.54-4.54,12.07-10.21,13-6.14,1.01-6.09,8.92-12.87,10.32-7.23,1.48-9.71-4.22-9.48-7.51,.05-.68,.19-1.38-.05-2.02-.45-1.19-1.93-1.43-2.85-2.25-1.8-1.61-1.64-4.78-.48-6.96,1.16-2.17,2.76-3.6,5.05-4.22Z"/>
      <path class="cls-2" d="M56.04,7.81c-.16,2.21-.61,3.84-1.97,5.63-1.13,1.48-3.57,3.26-5.13,3.66-2.69,.7-5.07,2.29-7.77,1.59-1.79-.47-3.91-1.38-3.98-3.33,2.74,1.97,6.32,1.11,9.53,.27,1.38-.36,2.76-.82,3.95-1.65,2.95-2.06,4.2-6.47,2.8-9.91,1.68,1.18,2.67,2.46,2.58,3.73Z"/>
      <path class="cls-2" d="M41.73,5.59c.68,.81,1.3,1.76,1.42,2.84,.13,1.08-.38,2.3-1.35,2.65,1.51,.05,2.89-1.47,2.78-3.06-.11-1.59-1.69-2.88-3.17-2.6l.32,.17Z"/>
      <path class="cls-2" d="M42.62,16.83c-2.28-1.91-3.1-5.52-1.88-8.32-1.08,1.28-1.56,3.11-1.26,4.8s1.38,3.21,2.83,3.99l.32-.48Z"/>
      <path class="cls-2" d="M31.32,22.57c-.27,1.1,.68,3.01,1.98,3.65,3.49,1.72,6.81,2.57,10.41,1.09,1.83-.75,4.22-2.55,5.75-3.84,1.79-1.51,2.83-2.63,3.71-4.86-.11,1.28,.46,2.33-.39,3.24-.95,1.02-3.04,4.29-5.43,5.92-.95,.64-2.55,1.43-3.62,1.8-1.14,.39-2.35,.48-3.55,.49-2.27,.02-4.65-.28-6.52-1.65s-3.25-3.63-2.33-5.82Z"/>
      <path class="cls-2" d="M38,16.42c-.9,1.1-.35,2.95,.79,3.77,1.14,.81,2.63,.83,3.99,.64-.69,.54-1.5,.91-2.35,1.05-1.12,.19-2.32-.03-3.22-.76s-1.41-2.01-1.13-3.16c.28-1.16,1.43-2.05,2.54-1.83-.28,.18-.57,.36-.85,.54l.22-.24Z"/>
      <path class="cls-2" d="M49.65,30.64c-1.71,2.93-5.62,4.16-8.57,2.68-1.46-.73-2.61-1.98-3.64-3.29-.18-.23-.36-.57-.17-.79,.08-.1,.22-.14,.35-.17,.67-.15,1.33-.32,2-.41-.17,3.52,8.43,4.75,10.04,1.97Z"/>
      <path class="cls-2" d="M57.11,13.61c-1.09,2.75-3.8,4.43-6.53,5.18,2.18,1.11,4.95,.8,6.86-.77,1.91-1.57,2.88-4.33,2.4-6.84-.39-2.03-1.89-4.28-3.79-4.84,1.1,2.34,2.1,4.62,1.06,7.26Z"/>
      <path class="cls-2" d="M51.68,28.69c-1.52,2.9-4.74,4.86-7.83,4.32,2.29,1.16,5.08,1.15,7.36-.02,2.28-1.17,4.01-3.49,4.56-6.11,.46-2.19,.23-4.78,1.75-6.35,.59-.61,1.39-.98,1.97-1.61,.84-.91,1.11-2.3,.89-3.55-.22-1.25-.88-2.37-1.69-3.32,.35,1.72-.55,3.54-1.89,4.59-2.03,1.6-4.06,.75-4.34,3.58-.3,3.06,.85,5.39-.76,8.46Z"/>
      <path class="cls-2" d="M39.24,29.9c1.32,4.9,6.39,7.99,11.21,7.79,4.82-.2,9.24-3.16,12.41-7,3.86-4.68,6.91-12,5.26-17.95,2.6,3.99,1.51,10.29,.24,14.46-.86,2.81-2.64,5.21-4.67,7.24-4.31,4.31-10.14,7.24-16.06,6.8-1.66-.12-3.35-.53-4.74-1.49-2.86-1.97-4.08-7.01-4.93-10.5,.76-.33,1.07-.18,1.3,.66Z"/>
      <path class="cls-2" d="M83.12,94.2c5.89-7.81,9.17-17.77,9.14-27.75,0-2.86-.28-5.71-.17-8.57,.19-5.05,1.57-9.98,1.81-15.03,.24-5.05-1.49-11.67-5.03-16.66,2.97,3,6.44,9.02,7.13,13.3,.46,2.83-.1,5.72-.48,8.56-1.12,8.41-.66,16.99-1.86,25.39-1.19,8.4-3.94,15.92-10.55,20.75Z"/>
      <path class="cls-2" d="M86.72,48.67c-.91-1.16-2.35-1.71-3.77-1.88-1.41-.17-2.85-.02-4.27-.04-6.91-.11-13.58-4.72-16.43-11.37-.08-.18-.2-.4-.39-.38-.19,.01-.13,.43,.02,.31-.49,.48-1.09,.37-1.58,.85,1.8,2.71,3.74,5.15,6.06,7.39,1.18,1.14,2.38,2.29,3.78,3.09,5.12,2.93,11.05,.09,16.57,2.04Z"/>
      <path class="cls-2" d="M78.1,79.94c-3.83-2.96-3.04-9.15-4.84-13.79-2.07-5.33-7.42-8.23-11.16-12.43-3.92-4.4-6.09-10.49-5.88-16.53,.03,.08-.71,.79-.77,.74-.06-.06-.16-.02-.23,.02-.58,.32-1.15,.64-1.73,.96-.83,6.73,2.91,13.59,7.7,18.12,2.56,2.43,5.75,4.18,7.82,7.08,3.32,4.66,4.25,13.03,9.09,15.83Z"/>
      <path class="cls-2" d="M115.61,39.75c-1.13-.18-2.27-.04-3.41-.06-3.86-.09-7.62-2.3-9.72-5.72-2.1-3.42-2.48-7.95-.97-11.71-1.97,2.92-2.73,7.13-1.61,10.51,1.12,3.38,3.86,6.11,7.12,7.09,2.53,.76,5.98,.2,8.59-.11Z"/>
      <path class="cls-4" d="M59.37,104.56l-23.2-3.4,14.82-23.14,8.38,26.55Zm-20.25-4.79l17.76,2.61-6.41-20.32-11.35,17.72Z"/>
      <path class="cls-6" d="M140.27,144c6.39,6.46,9.45,15.48,9.72,24.63,.32,10.74-5.68,15.58-14.63,20.02-17.87,8.87-38.3,11.32-57.94,11.35-21.7,.02-49.33-1.99-69.83-10.04-15.13-5.95-4.63-32.77,5.59-41.33,7.13-5.97,16.79-6.86,25.58-9.35s21.18-5.69,21.8-20.06c16.49,6.53,34.62,3.7,37.51-3.26,1.65,9.14,6.14,13.36,11.95,15.45,10.3,3.7,22.51,4.74,30.26,12.59Z"/>
      <path class="cls-5" d="M80.09,123.35c-9.86,0-18.57-2.82-19.01-2.97-.45-.15-.7-.65-.56-1.13,.14-.48,.62-.74,1.07-.59,.13,.04,12.74,4.13,24.47,2.49,9.1-1.27,11.4-5.16,11.42-5.19,.24-.42,.76-.57,1.17-.32,.4,.25,.55,.79,.31,1.22-.1,.19-2.62,4.68-12.68,6.08-2.07,.29-4.16,.41-6.19,.41Z"/>
      <path class="cls-5" d="M38.61,196.98h0c-.2,0-.36-.18-.36-.4,.44-18.77-1.78-36.03-6.99-54.33-.06-.2,.05-.42,.25-.48,.19-.06,.4,.05,.46,.26,5.23,18.38,7.46,35.72,7.02,54.57,0,.21-.17,.38-.37,.38Z"/>
      <path class="cls-5" d="M129.86,190.41s-.03,0-.04,0c-.2-.02-.35-.21-.32-.43,1.97-19.17-.75-36.85-8.33-54.04-.09-.19,0-.42,.18-.51,.18-.09,.4,0,.49,.19,7.64,17.32,10.39,35.13,8.4,54.45-.02,.2-.18,.34-.36,.34Z"/>
    </g>
  </g>
</svg>