<?xml version="1.0" encoding="UTF-8"?>
<svg xmlns="http://www.w3.org/2000/svg" viewBox="0 0 300 375">
  <defs>
    <style>
      .cls-1 {
        fill: #fff;
      }

      .cls-2 {
        fill: #8196fc;
      }

      .cls-3 {
        fill: #8861e5;
      }

      .cls-4 {
        fill: #5a70e0;
      }

      .cls-5 {
        fill: #1d1b3a;
      }

      .cls-6 {
        isolation: isolate;
      }

      .cls-7 {
        fill: #ad3915;
      }

      .cls-8 {
        fill: #7585f8;
      }

      .cls-9 {
        fill: #f28f19;
      }

      .cls-10 {
        fill: #b38cff;
      }

      .cls-11 {
        mix-blend-mode: overlay;
        opacity: .3;
      }

      .cls-12 {
        fill: #88cfee;
      }

      .cls-13 {
        fill: #ef60ae;
      }

      .cls-14 {
        fill: #f4a517;
      }

      .cls-15 {
        fill: #a4dcff;
      }

      .cls-16 {
        fill: #be4719;
      }

      .cls-17 {
        fill: #f268b4;
      }
    </style>
  </defs>
  <g class="cls-6">
    <g id="Layer_2" data-name="Layer 2">
      <g id="Layer_1-2" data-name="Layer 1">
        <g>
          <g>
            <g>
              <path class="cls-17" d="M71.99,317.67l-1.18-.64s-.36,.77-.72,1.54c-.45,.71-.9,1.41-.9,1.41l1.06,.87s.49-.77,.98-1.53c.39-.84,.77-1.65,.77-1.65Z"/>
              <path class="cls-17" d="M73.36,312.36l-1.28-.25c.07,.01-.62,3.38-.72,3.35l1.24,.5c.11,.04,.85-3.6,.77-3.61Z"/>
              <path class="cls-17" d="M73.38,306.84l-1.3,.13c.08,0,.19,3.46,.11,3.45l1.31,.13c.08,0-.03-3.72-.12-3.71Z"/>
              <path class="cls-17" d="M72.35,301.49l-1.26,.41c.08-.01,.8,3.39,.8,3.39l1.28-.25s-.18-.9-.38-1.79c-.15-.92-.44-1.77-.44-1.77Z"/>
              <path class="cls-17" d="M70.44,296.45l-1.17,.64s.4,.76,.71,1.58c.31,.8,.62,1.62,.62,1.62l1.21-.5s-.33-.85-.64-1.69c-.32-.85-.73-1.65-.73-1.65Z"/>
              <path class="cls-17" d="M67.78,291.82l-1.05,.84s.51,.68,.93,1.42c.43,.74,.86,1.49,.86,1.49l1.13-.71s-.45-.77-.89-1.55c-.45-.79-.98-1.49-.98-1.49Z"/>
              <path class="cls-17" d="M64.45,287.73l-.91,1.02s.61,.56,1.15,1.22c.53,.67,1.07,1.32,1.07,1.32l1-.9s-.56-.68-1.12-1.38c-.56-.69-1.2-1.29-1.2-1.29Z"/>
            </g>
            <g>
              <path class="cls-17" d="M60.47,284.35l-.7,1.19s.69,.44,1.33,.97c.65,.55,1.27,1.08,1.27,1.08l.85-1.07s-.66-.58-1.33-1.16c-.67-.56-1.42-1.02-1.42-1.02Z"/>
              <path class="cls-17" d="M55.91,281.92l-.45,1.32s.77,.27,1.5,.64c.73,.39,1.45,.78,1.45,.78l.62-1.23s-.75-.42-1.52-.84c-.78-.38-1.59-.67-1.6-.67Z"/>
              <path class="cls-17" d="M50.95,280.67l-.13,1.39s.79,.09,1.59,.23c.78,.21,1.56,.42,1.56,.42l.35-1.35s-.83-.22-1.67-.43c-.84-.19-1.7-.25-1.7-.25Z"/>
              <path class="cls-17" d="M45.85,280.76l.19,1.39s.78-.17,1.6-.2c.8-.01,1.61-.02,1.61-.02l.03-1.41s-.86,.02-1.72,.03c-.86,.03-1.7,.2-1.7,.2Z"/>
              <path class="cls-17" d="M40.93,282.13l.45,1.31c-.03-.12,3.09-1.01,3.09-1.01l-.27-1.38s-3.32,.94-3.27,1.08Z"/>
              <path class="cls-17" d="M36.37,284.5l.68,1.21s.71-.42,1.43-.84c.36-.22,.71-.42,.98-.58,.28-.12,.47-.22,.47-.22l-.54-1.27c-.06-.11-3.01,1.7-3.01,1.7Z"/>
              <polygon class="cls-17" points="32.24 287.57 33.02 288.69 35.72 286.66 34.99 285.49 32.24 287.57"/>
            </g>
            <g>
              <path class="cls-17" d="M28.19,290.51l.68,1.2s.72-.47,1.44-.94c.69-.52,1.36-1.05,1.36-1.05l-.74-1.15s-.68,.52-1.34,1.02c-.71,.47-1.4,.92-1.4,.92Z"/>
              <path class="cls-17" d="M23.91,293.05l.57,1.26s3.03-1.6,2.99-1.67l-.65-1.22c.04,.07-2.9,1.64-2.9,1.64Z"/>
              <polygon class="cls-17" points="19.42 295.05 19.84 296.39 22.99 295.07 22.46 293.78 19.42 295.05"/>
              <path class="cls-17" d="M14.72,296.31l.22,1.38s.83-.17,1.67-.33c.81-.24,1.63-.49,1.63-.49l-.36-1.35s-.79,.25-1.57,.48c-.79,.17-1.59,.31-1.59,.31Z"/>
              <path class="cls-17" d="M9.92,296.79v1.41c0,.11,3.39-.21,3.39-.21l-.17-1.4s-3.23,.32-3.23,.2Z"/>
              <path class="cls-17" d="M5.1,296.37l-.22,1.38s3.36,.5,3.37,.4l.07-1.42c0,.12-3.22-.37-3.22-.37Z"/>
              <path class="cls-17" d="M.45,295.01l-.45,1.32s.8,.3,1.61,.6c.83,.22,1.66,.44,1.66,.44l.3-1.37s-.79-.21-1.57-.42c-.77-.28-1.53-.57-1.53-.57Z"/>
            </g>
          </g>
          <g>
            <g>
              <polygon class="cls-14" points="105.69 236.54 107.36 236.24 106.72 231.66 105.02 231.89 105.69 236.54"/>
              <polygon class="cls-14" points="106.88 243.38 108.55 243.03 107.73 238.46 106.05 238.8 106.88 243.38"/>
              <polygon class="cls-14" points="108.26 250.19 109.93 249.77 108.98 245.25 107.31 245.63 108.26 250.19"/>
              <polygon class="cls-14" points="109.85 256.96 111.49 256.48 110.41 251.99 108.77 252.42 109.85 256.96"/>
              <path class="cls-14" d="M111.62,263.65l1.64-.53s-.32-1.11-.62-2.22c-.29-1.12-.58-2.23-.58-2.23l-1.64,.49s.3,1.12,.59,2.25c.31,1.12,.62,2.24,.62,2.24Z"/>
              <polygon class="cls-14" points="113.6 270.3 115.21 269.71 113.87 265.3 112.25 265.85 113.6 270.3"/>
              <path class="cls-14" d="M115.8,276.85l1.6-.65s-.39-1.08-.77-2.17c-.37-1.09-.72-2.18-.72-2.18l-1.6,.61s.36,1.11,.72,2.2c.39,1.11,.77,2.19,.77,2.19Z"/>
            </g>
            <g>
              <polygon class="cls-14" points="118.25 283.32 119.81 282.6 118.16 278.32 116.58 278.99 118.25 283.32"/>
              <polygon class="cls-14" points="120.94 289.68 122.47 288.88 120.65 284.68 119.1 285.42 120.94 289.68"/>
              <path class="cls-14" d="M123.96,295.87l1.49-.9s-.57-.99-1.04-2.02c-.49-1.03-.98-2.07-.98-2.07l-1.52,.83s.5,1.05,.99,2.09c.49,1.05,1.05,2.06,1.05,2.06Z"/>
              <path class="cls-14" d="M127.3,301.88l1.43-1s-.58-.97-1.16-1.95c-.59-.96-1.08-1.98-1.08-1.98l-1.48,.92s.53,1.03,1.11,2.02c.58,.99,1.17,1.99,1.17,1.99Z"/>
              <polygon class="cls-14" points="131 307.63 132.36 306.54 129.86 302.79 128.45 303.81 131 307.63"/>
              <path class="cls-14" d="M135.13,313.06l1.26-1.21c-.05,.05-2.74-3.53-2.74-3.53l-1.34,1.14s2.75,3.68,2.82,3.61Z"/>
              <path class="cls-14" d="M139.73,318.05l1.16-1.36s-.79-.77-1.57-1.55c-.78-.79-1.48-1.66-1.48-1.66l-1.23,1.27s.73,.89,1.52,1.71c.81,.79,1.61,1.59,1.61,1.59Z"/>
            </g>
            <g>
              <polygon class="cls-14" points="144.8 322.52 145.79 321.03 142.42 318.23 141.32 319.62 144.8 322.52"/>
              <path class="cls-14" d="M150.38,326.22l.8-1.63c-.06,.12-3.66-2.32-3.66-2.32l-.93,1.53s.93,.64,1.86,1.28c.9,.67,1.93,1.14,1.92,1.14Z"/>
              <path class="cls-14" d="M156.4,329.06l.58-1.73s-1-.4-2-.79c-1.02-.35-1.94-.94-1.94-.94l-.72,1.66s.95,.61,2.01,.96c1.03,.43,2.07,.84,2.07,.84Z"/>
              <polygon class="cls-14" points="162.73 330.96 163.05 329.17 158.92 328.07 158.44 329.82 162.73 330.96"/>
              <path class="cls-14" d="M169.26,331.73l.08-1.83s-1.08,.06-2.13-.14c-1.04-.15-2.1-.29-2.1-.29l-.24,1.82s1.1,.16,2.19,.3c1.09,.21,2.2,.14,2.2,.14Z"/>
              <path class="cls-14" d="M175.81,331.53l-.15-1.82s-1.06,.11-2.12,.23c-1.06,.05-2.12,0-2.12,0v1.83s1.1,.06,2.21,0c1.1-.12,2.18-.23,2.18-.23Z"/>
              <path class="cls-14" d="M182.25,330.5l-.29-1.8s-4.22,.93-4.23,.8l.22,1.82c.03,.13,4.3-.82,4.3-.82Z"/>
            </g>
            <g>
              <polygon class="cls-14" points="188.64 329.15 188.23 327.37 184.02 328.26 184.35 330.06 188.64 329.15"/>
              <polygon class="cls-14" points="194.88 327.16 194.35 325.41 190.25 326.79 190.7 328.56 194.88 327.16"/>
              <path class="cls-14" d="M200.99,324.77l-.65-1.69s-.97,.47-1.96,.93c-.98,.46-2.03,.75-2.03,.75l.57,1.73s1.06-.3,2.06-.76c1-.48,2.01-.95,2.01-.95Z"/>
              <path class="cls-14" d="M206.93,321.87l-.79-1.62s-.23,.14-.57,.35c-.37,.17-.86,.41-1.35,.64-.98,.46-1.96,.92-1.96,.92l.7,1.67s4.04-1.84,3.97-1.97Z"/>
              <polygon class="cls-14" points="212.56 318.31 211.64 316.77 207.94 319.1 208.78 320.7 212.56 318.31"/>
              <polygon class="cls-14" points="217.85 314.19 216.8 312.75 213.36 315.49 214.33 317.01 217.85 314.19"/>
              <polygon class="cls-14" points="222.79 309.62 221.64 308.28 218.44 311.37 219.54 312.77 222.79 309.62"/>
            </g>
            <g>
              <polygon class="cls-14" points="227.4 304.7 226.18 303.44 223.19 306.76 224.38 308.08 227.4 304.7"/>
              <polygon class="cls-14" points="231.77 299.55 230.5 298.34 227.63 301.81 228.88 303.06 231.77 299.55"/>
              <polygon class="cls-14" points="236.01 294.3 234.72 293.11 231.9 296.64 233.19 297.83 236.01 294.3"/>
              <polygon class="cls-14" points="240.25 289.09 238.98 287.87 236.11 291.37 237.39 292.58 240.25 289.09"/>
              <path class="cls-14" d="M244.61,284.04l-1.22-1.29s-.76,.84-1.53,1.69c-.78,.82-1.48,1.72-1.48,1.72l1.26,1.23s.7-.9,1.47-1.71c.74-.83,1.5-1.65,1.5-1.65Z"/>
              <path class="cls-14" d="M249.22,279.29l-1.13-1.36s-.82,.77-1.65,1.55c-.81,.77-1.55,1.65-1.55,1.65l1.19,1.3s.72-.86,1.53-1.62c.8-.76,1.61-1.52,1.61-1.52Z"/>
              <path class="cls-14" d="M254.15,274.95l-1.02-1.47s-.89,.69-1.78,1.38c-.82,.77-1.65,1.55-1.65,1.55l1.1,1.4s.81-.76,1.61-1.52c.87-.67,1.74-1.34,1.74-1.34Z"/>
            </g>
            <g>
              <path class="cls-14" d="M259.41,271.13l-.88-1.57s-.23,.14-.59,.35c-.36,.22-.84,.5-1.28,.86-.9,.68-1.79,1.37-1.79,1.37l.97,1.5s.88-.67,1.75-1.33c.43-.36,.89-.64,1.23-.84,.36-.21,.59-.34,.59-.34Z"/>
              <path class="cls-14" d="M265,267.84l-.73-1.65s-.98,.53-1.94,1.11c-.96,.56-1.92,1.14-1.92,1.14l.83,1.6s.94-.55,1.88-1.11c.93-.56,1.88-1.08,1.88-1.08Z"/>
              <polygon class="cls-14" points="270.89 265.28 270.32 263.56 266.26 265.32 266.93 267 270.89 265.28"/>
              <polygon class="cls-14" points="276.98 263.29 276.55 261.53 272.33 262.76 272.86 264.5 276.98 263.29"/>
              <polygon class="cls-14" points="283.24 261.45 282.74 259.7 278.61 260.92 279.01 262.7 283.24 261.45"/>
              <path class="cls-14" d="M289.4,258.72l-.93-1.54s-.22,.14-.57,.35c-.33,.24-.79,.47-1.28,.68-.97,.43-1.93,.87-1.93,.87l.65,1.69s1.04-.46,2.08-.93c.53-.21,1.04-.48,1.38-.72,.36-.23,.6-.38,.6-.38Z"/>
              <path class="cls-14" d="M294.6,254.26l-1.3-1.22s-.17,.2-.43,.51c-.27,.32-.6,.75-1.03,1.07-.82,.72-1.63,1.41-1.63,1.41l1.07,1.45s.88-.76,1.74-1.52c.46-.36,.83-.82,1.12-1.15,.28-.34,.46-.55,.46-.55Z"/>
            </g>
            <g>
              <path class="cls-14" d="M298.19,248.22l-1.56-.78s-.45,1.02-.9,2.03c-.57,.93-1.14,1.87-1.14,1.87l1.4,1.07s.62-.99,1.23-2.01c.49-1.1,.97-2.18,.97-2.18Z"/>
              <path class="cls-14" d="M299.85,241.27l-1.69-.29c.08,.01-.72,4.41-.84,4.38l1.61,.63c.15,.05,1.02-4.7,.93-4.72Z"/>
              <path class="cls-14" d="M299.73,234.09l-1.7,.22c.1,0,.33,4.47,.25,4.47l1.7,.13c.1,0-.15-4.84-.25-4.82Z"/>
              <path class="cls-14" d="M298.23,227.16l-1.61,.57c.1-.02,1.12,4.39,1.12,4.39l1.66-.35s-.27-1.16-.52-2.33c-.23-1.17-.64-2.28-.64-2.28Z"/>
              <path class="cls-14" d="M295.62,220.64l-1.5,.87s.55,.97,.95,2.02c.43,1.05,.85,2.1,.85,2.1l1.58-.67s-.44-1.09-.88-2.18c-.43-1.11-.99-2.13-.99-2.13Z"/>
              <path class="cls-14" d="M292.05,214.7l-1.36,1.11s.7,.88,1.26,1.84c.58,.96,1.14,1.92,1.14,1.92l1.46-.95s-.6-1-1.2-2c-.6-1-1.31-1.92-1.31-1.92Z"/>
              <path class="cls-14" d="M287.59,209.47l-1.15,1.36s.82,.71,1.53,1.57c.72,.84,1.43,1.68,1.43,1.68l1.29-1.2s-.75-.88-1.5-1.76c-.75-.89-1.6-1.65-1.6-1.65Z"/>
            </g>
            <g>
              <path class="cls-14" d="M282.33,205.19l-.89,1.57s.92,.54,1.77,1.23c.85,.69,1.69,1.37,1.69,1.37l1.07-1.42s-.89-.72-1.77-1.46c-.89-.71-1.86-1.29-1.86-1.29Z"/>
              <path class="cls-14" d="M276.33,202.15l-.55,1.74s1.01,.31,1.97,.78c.95,.48,1.9,.97,1.9,.97l.78-1.62s-1.01-.52-2.01-1.03c-1.01-.49-2.09-.85-2.09-.85Z"/>
              <path class="cls-14" d="M269.84,200.69l-.15,1.82s1.05,.07,2.08,.25c1.03,.24,2.06,.47,2.06,.47l.41-1.78s-1.09-.25-2.18-.51c-1.1-.2-2.22-.26-2.22-.26Z"/>
              <path class="cls-14" d="M263.2,200.97l.27,1.81s1.04-.24,2.08-.3c1.05-.04,2.09-.08,2.09-.08v-1.83s-1.11,.04-2.23,.09c-1.12,.07-2.21,.32-2.21,.32Z"/>
              <path class="cls-14" d="M256.83,202.88l.64,1.71c-.05-.16,3.99-1.41,3.99-1.41l-.4-1.78s-4.28,1.33-4.22,1.48Z"/>
              <path class="cls-14" d="M250.95,206.12l.91,1.54s.92-.56,1.84-1.13c.45-.29,.91-.57,1.26-.79,.36-.17,.6-.28,.6-.28l-.73-1.65c-.07-.14-3.89,2.31-3.89,2.31Z"/>
              <polygon class="cls-14" points="245.66 210.22 246.7 211.67 250.16 208.94 249.18 207.44 245.66 210.22"/>
            </g>
            <g>
              <path class="cls-14" d="M240.46,214.19l.93,1.53s.92-.63,1.84-1.27c.88-.7,1.76-1.4,1.76-1.4l-1.01-1.48s-.86,.7-1.72,1.38c-.91,.62-1.81,1.24-1.81,1.24Z"/>
              <path class="cls-14" d="M234.96,217.61l.77,1.63s3.89-2.18,3.84-2.28l-.87-1.58c.05,.1-3.74,2.22-3.74,2.22Z"/>
              <polygon class="cls-14" points="229.16 220.35 229.74 222.08 233.81 220.27 233.1 218.6 229.16 220.35"/>
              <path class="cls-14" d="M223.07,222.12l.33,1.81s1.08-.24,2.16-.48c1.06-.35,2.11-.69,2.11-.69l-.49-1.75s-1.02,.34-2.03,.66c-1.04,.23-2.08,.45-2.08,.45Z"/>
              <path class="cls-14" d="M216.83,222.92l.05,1.84c0,.15,4.4-.38,4.4-.38l-.23-1.82s-4.21,.51-4.22,.36Z"/>
              <path class="cls-14" d="M210.55,222.49l-.26,1.82s4.41,.56,4.41,.42l.05-1.84c0,.14-4.21-.4-4.21-.4Z"/>
              <path class="cls-14" d="M204.45,220.86l-.54,1.74s1.06,.36,2.1,.72c1.08,.27,2.17,.53,2.17,.53l.35-1.79s-1.02-.25-2.06-.5c-1-.35-2.02-.7-2.02-.7Z"/>
            </g>
            <g>
              <path class="cls-14" d="M198.67,218.19l-.78,1.62s.94,.62,1.96,1.07c1.02,.46,2.03,.93,2.03,.93l.63-1.7s-.97-.46-1.94-.89c-.98-.44-1.9-1.03-1.9-1.03Z"/>
              <path class="cls-14" d="M193.29,214.61l-.99,1.49c-.05,.08,3.68,2.6,3.68,2.6l.86-1.58s-3.6-2.43-3.55-2.51Z"/>
              <path class="cls-14" d="M188.35,210.33l-1.15,1.36s.83,.76,1.67,1.54c.82,.78,1.71,1.48,1.71,1.48l1.04-1.44c-.05,.07-3.27-2.95-3.27-2.95Z"/>
              <path class="cls-14" d="M183.88,205.47l-1.27,1.23s.74,.86,1.49,1.73c.78,.83,1.56,1.65,1.56,1.65l1.18-1.31s-.75-.82-1.52-1.62c-.73-.85-1.44-1.69-1.44-1.69Z"/>
              <path class="cls-14" d="M179.81,200.19l-1.36,1.12s.64,.95,1.35,1.85c.7,.91,1.4,1.82,1.4,1.82l1.28-1.19s-.68-.89-1.36-1.77c-.7-.88-1.32-1.82-1.32-1.82Z"/>
              <path class="cls-14" d="M176.13,194.58l-1.43,1s.59,.98,1.22,1.95c.62,.96,1.24,1.93,1.24,1.93l1.38-1.07s-.61-.95-1.22-1.91c-.62-.93-1.2-1.9-1.2-1.9Z"/>
              <path class="cls-14" d="M172.83,188.69l-1.49,.9s.55,1.02,1.09,2.04c.54,1.02,1.12,2,1.12,2.01l1.46-.96s-.58-.97-1.11-1.98c-.54-1-1.08-2-1.08-2Z"/>
            </g>
            <g>
              <path class="cls-14" d="M169.93,182.56l-1.53,.79s.48,1.06,.95,2.11c.47,1.07,1,2.1,1,2.1l1.51-.85s-.53-1.01-.98-2.05c-.47-1.05-.95-2.1-.95-2.1Z"/>
              <path class="cls-14" d="M167.43,176.24l-1.59,.65s.4,1.1,.81,2.19c.42,1.08,.85,2.17,.85,2.17l1.56-.74s-.42-1.06-.84-2.12c-.39-1.07-.8-2.14-.8-2.14Z"/>
              <path class="cls-14" d="M165.43,169.74l-1.64,.5s.32,1.12,.62,2.25c.31,1.15,.69,2.25,.69,2.25l1.61-.61s-.38-1.08-.68-2.19c-.31-1.1-.61-2.2-.61-2.2Z"/>
              <path class="cls-14" d="M164.1,162.85l-1.6,.7,.09,.65c.15,1.26,.41,2.53,.66,3.8l1.65-.43c-.26-1.33-.52-2.65-.68-4.01l-.12-.7Z"/>
              <path class="cls-14" d="M160.36,156.89l-1.35,1.12s.66,.88,1.26,1.8c.63,.9,1.17,1.85,1.17,1.85l1.53-.84s-.58-1.03-1.27-2c-.64-.99-1.35-1.93-1.34-1.93Z"/>
              <path class="cls-14" d="M155.98,151.64l-1.19,1.3c.05-.06,2.91,3.34,2.91,3.34l1.29-1.19s-2.95-3.51-3.02-3.45Z"/>
              <path class="cls-14" d="M151.01,147.01l-1.02,1.47s3.34,2.83,3.27,2.93l1.14-1.37c.07-.08-3.4-3.02-3.4-3.02Z"/>
            </g>
            <g>
              <path class="cls-14" d="M145.48,143.22l-.81,1.6s.96,.49,1.85,1.13c.89,.64,1.77,1.27,1.77,1.27l.96-1.53s-.92-.65-1.84-1.31c-.91-.65-1.92-1.16-1.92-1.16Z"/>
              <path class="cls-14" d="M139.51,140.28l-.59,1.71s3.98,1.64,3.91,1.78l.74-1.64c.07-.15-4.07-1.85-4.07-1.85Z"/>
              <polygon class="cls-14" points="133.2 138.32 132.86 140.11 136.97 141.27 137.47 139.53 133.2 138.32"/>
              <path class="cls-14" d="M126.67,137.5l-.09,1.84c0-.19,4.22,.47,4.22,.47l.25-1.81s-4.37-.68-4.38-.5Z"/>
              <path class="cls-14" d="M120.11,137.67l.16,1.83s.25-.03,.65-.09c.39-.05,.92-.12,1.45-.09,1.07,0,2.13,.01,2.13,.01v-1.85s-1.1,0-2.19,0c-.56-.02-1.1,.03-1.52,.1-.41,.05-.68,.08-.68,.08Z"/>
              <path class="cls-14" d="M113.64,138.7l.34,1.79s.25-.06,.65-.16c.38-.13,.9-.25,1.44-.29,1.06-.15,2.11-.28,2.11-.28l-.21-1.82s-1.09,.15-2.19,.29c-.55,.04-1.09,.17-1.48,.3-.4,.1-.66,.17-.66,.17Z"/>
              <path class="cls-14" d="M107.3,140.45l.51,1.75c-.01-.11,4.14-1.17,4.14-1.17l-.4-1.77s-4.28,1.1-4.24,1.18Z"/>
            </g>
            <g>
              <polygon class="cls-14" points="101.15 142.65 101.72 144.37 105.82 142.91 105.29 141.17 101.15 142.65"/>
              <polygon class="cls-14" points="95.09 145.14 95.74 146.83 99.75 145.17 99.16 143.46 95.09 145.14"/>
              <path class="cls-14" d="M89.15,147.95l.73,1.66s.96-.52,1.96-.97c.99-.46,1.98-.92,1.98-.92l-.67-1.68s-1,.46-2.01,.93c-1,.44-1.99,.97-1.99,.97Z"/>
              <path class="cls-14" d="M83.36,151.11l.81,1.61s.94-.54,1.89-1.11c.96-.5,1.92-1.01,1.92-1.01l-.75-1.65s-.98,.52-1.96,1.04c-.95,.56-1.91,1.12-1.91,1.12Z"/>
              <path class="cls-14" d="M77.83,154.54l.7,1.69s.96-.63,1.93-1.25c.93-.6,1.86-1.18,1.86-1.18l-.84-1.59s-.94,.59-1.86,1.18c-.9,.59-1.79,1.16-1.79,1.16Z"/>
              <polygon class="cls-14" points="72.64 158.18 72.93 160.12 76.67 157.5 76.11 155.71 72.64 158.18"/>
              <path class="cls-14" d="M67.25,161.45l-.11,2.04s.27-.09,.67-.22c.38-.15,.87-.44,1.37-.7,.98-.53,1.91-1.18,1.91-1.18l-.16-1.99s-.87,.61-1.78,1.15c-.47,.25-.91,.53-1.28,.69-.37,.12-.61,.21-.61,.21Z"/>
            </g>
          </g>
          <g>
            <path class="cls-7" d="M145.03,203.03c-1.1,.63-5.4,2.57-6.35,9.25-.95,6.67-13.94,19.93-18.4,18.43-7.43-2.46-8.68-11.84-8.68-11.84l-13.7,9.04s10.62,17.75,20.13,18.28c2.43,.12,9.74,.85,20.22-20.17,11.56-23.23,7.53-23.42,6.79-22.99Z"/>
            <g>
              <g>
                <polygon class="cls-10" points="74.43 54.54 188.8 20.99 218.94 73.59 138.5 166.35 74.43 54.54"/>
                <polygon class="cls-3" points="243.85 65.84 214.4 75.92 184.54 23.8 206.13 0 243.85 65.84"/>
                <path class="cls-10" d="M175.35,230.64c2.16,3.79,1.07,8.76-2.45,11.09l-22.87,15.18c-3.52,2.34-8.14,1.17-10.31-2.62l-43.96-76.7c-2.18-3.8-1.07-8.76,2.44-11.1l22.87-15.18c3.52-2.34,8.13-1.16,10.32,2.62l43.95,76.71Z"/>
                <path class="cls-3" d="M147.21,84.18c18.46,32.24,9.16,74.51-20.79,94.39-29.95,19.88-69.21,9.87-87.69-22.37-18.48-32.24-9.17-74.5,20.78-94.39,29.95-19.89,69.21-9.88,87.7,22.36Z"/>
                <path class="cls-11" d="M118.31,100.37c9.05,15.81,4.49,36.52-10.19,46.27-14.69,9.75-33.93,4.85-42.99-10.97-9.05-15.8-4.49-36.52,10.19-46.26,14.68-9.75,33.93-4.84,42.99,10.96Z"/>
              </g>
              <path class="cls-3" d="M160.71,178.6c1.94,2.87,1.35,6.9-1.32,8.98l-19.36,15.15c-2.67,2.09-6.41,1.45-8.34-1.42h0c-1.94-2.87-1.35-6.9,1.32-8.99l19.36-15.15c2.66-2.09,6.41-1.45,8.34,1.42h0Z"/>
              <path class="cls-8" d="M101.89,115.75c.57,5.89-3.41,11.18-8.89,11.79-5.48,.62-10.38-3.66-10.96-9.56-.56-5.9,3.4-11.17,8.89-11.79,5.48-.62,10.38,3.67,10.95,9.56Z"/>
            </g>
            <path class="cls-9" d="M95.96,210.99c-2.05,1.76-7.6,3.68-4.95,11.84,2.07,6.36,14.67,16.13,14.67,16.13,0,0,9.75-3.05,11.59-11.81,0,0-13.63-22.69-21.31-16.16Z"/>
            <path class="cls-16" d="M105.45,262.62s11.17,16.49,10.37,49.4c-.83,32.9-15.73,44.77-5.72,57.33,1.09,1.36,5.22,2.9,5.07,4.59-.15,1.68-11.22,2.26-13.91-5.35,0,0-6.07-16.22-4.26-39.48,2.17-28.34-23.54-47.38-7.06-65.06,2.93-3.16,6.94-7.11,15.51-1.42Z"/>
            <path class="cls-13" d="M82.48,277.03s12.96,32.24,12.89,41.8c-.07,9.56-.39,32.34,2.59,41.08,0,0,4.75,3.53,9.87,.09,0,0,8.52-32.6,8.59-38.55,.07-5.96,.4-19.23-2.13-33.26-11.9-65.81-31.8-11.17-31.8-11.17Z"/>
            <path class="cls-16" d="M91.15,262.03s5.75,19.65-4.72,50.1c-10.49,30.44-28.16,35.87-22.36,51.42,.64,1.67,4.11,4.69,3.48,6.19-.65,1.53-11.33-2.11-11.64-10.26,0,0-.99-17.45,7.59-38.51,10.43-25.65-8.39-53.21,12.48-63.48,3.73-1.83,8.7-4.01,15.17,4.55Z"/>
            <path class="cls-17" d="M65.06,266.79s2.81,35.05-.08,43.96c-2.9,8.91-9.91,30.08-9.64,39.39,0,0,3.47,5.09,9.33,3.81,0,0,17.71-27.23,19.53-32.78,1.83-5.54,6.05-17.83,7.79-31.89,8.09-66.02-26.93-22.5-26.93-22.5Z"/>
            <path class="cls-5" d="M94.64,184.92c-3.34-3.88-16.14-10.15-23.23,5.31-3.49,7.57-9.87,5.8-13.51,11.79-7.16,11.74,2.87,17.89-5.5,34.59-6.97,13.95,8.1,20.95,16.98,22.41,26.46,4.43,19.04-16.64,25.2-31.43,9.7-23.25,6.78-34.85,.04-42.66Z"/>
            <path class="cls-14" d="M108.35,261.19c-3.2-11.15-3.16-26.99-3.64-37.03-.85-17.61-14.17-14.4-21.41-13.51-8.7,1.11-21.99,7.97-15.58,23.91,5.63,14.01-4.55,21.33-3.62,31.37,1.01,11.1,47.5,6.59,44.25-4.74Z"/>
            <path class="cls-7" d="M83.02,199.19s1.52,8.34-.82,12.04c-1.48,2.36,11.08,7.35,10.8,4.2-.4-4.04-2.58-6.49-.2-11.08l-9.78-5.16Z"/>
            <path class="cls-16" d="M93.95,187.41c2.28,4.21,5.67,22.48-2.31,23.65-3.61,.52-9.61-4.53-11.65-11.94-.85-3.05,.7-8.64,4.44-12.67,1.68-1.84,6.89-3.95,9.52,.96Z"/>
            <path class="cls-5" d="M96.97,194.1c-.17,2.13-3.6-5.91-5.68-1.9-2.18,4.2-6.4,1.89-8.83,9.91-1.66,5.46-5.39-5.95-5.65-6.82q-1.14-3.71,3.58-9.66c4.71-5.99,17.43-2.17,16.58,8.47Z"/>
            <path class="cls-1" d="M71.36,283.99c6.83-.78,8.54-7.53,8.55-7.6l-1.2-.34c-.06,.25-1.53,5.93-7.48,6.59-.06,0-.12,.01-.17,.02l.11,1.32c.06,0,.13,0,.18,0Z"/>
            <path class="cls-16" d="M117.09,202.67c-.96,.83-4.85,3.62-4.6,10.37,.23,6.74-10.18,22.41-14.85,21.85-7.72-.92-10.59-9.86-10.59-9.86l-11.88,11.66s13.57,15.26,22.98,13.84c2.42-.37,9.72-1.15,16.31-23.91,7.29-25.17,3.29-24.54,2.63-23.95Z"/>
            <path class="cls-9" d="M67.7,218.29c-2.36,2.27-4.54,5.79,.83,13.7,4.46,6.6,10.12,11.27,10.12,11.27,0,0,11.55-4.45,13.17-15.18,0,0-15.29-18.29-24.12-9.78Z"/>
            <path class="cls-5" d="M107.79,264.55s-3.7,7.01-27.22,7.77c0,0-11.77-.15-15.4-4.05l.53,5.47s30.42,7.98,42.09-9.19Z"/>
          </g>
          <path class="cls-2" d="M215.69,209.57c-3.11,0-5.65-2.69-5.65-5.98s2.54-5.98,5.65-5.98,5.65,2.69,5.65,5.98-2.53,5.98-5.65,5.98Zm0-10.32c-2.25,0-4.1,1.95-4.1,4.34s1.84,4.34,4.1,4.34,4.1-1.95,4.1-4.34-1.84-4.34-4.1-4.34Z"/>
          <path class="cls-15" d="M22.85,164.68c.64-.87,.95-3.91,1.99-3.91s1.25,3.12,1.98,3.91c.74,.78,3.69,1.02,3.62,2.13-.06,1.11-2.99,1.24-3.62,2.14-.64,.87-.96,3.96-1.98,3.91-1.04-.08-1.18-3.23-1.98-3.91-.82-.7-3.7-1.03-3.63-2.14,.06-1.12,2.99-1.26,3.61-2.13Z"/>
          <path class="cls-13" d="M256.32,169.66c.15,1.9-1.16,3.56-2.91,3.72-1.77,.16-3.31-1.24-3.46-3.12-.16-1.9,1.14-3.57,2.9-3.73,1.76-.16,3.32,1.24,3.47,3.13Z"/>
          <path class="cls-13" d="M137.14,277.91c.64-.88,.95-3.92,1.99-3.92s1.25,3.12,1.98,3.92c.74,.77,3.69,1.02,3.62,2.12-.06,1.11-2.99,1.24-3.62,2.15-.64,.86-.96,3.96-1.98,3.9-1.04-.07-1.18-3.23-1.98-3.9-.82-.7-3.7-1.04-3.63-2.15,.06-1.11,2.98-1.25,3.62-2.12Z"/>
          <g>
            <path class="cls-8" d="M260.16,335.91c0-17.29-7.37-31.41-16.68-32.57v-.11h-76.86v65.34h76.86v-.12c9.31-1.16,16.68-15.27,16.68-32.55Z"/>
            <g>
              <path class="cls-4" d="M187.72,309.93h26.93c-.3-.45-.6-.86-.91-1.27h-26.81c.26,.4,.53,.84,.78,1.27Z"/>
              <path class="cls-4" d="M216.1,309.93h26.92c-.28-.45-.6-.86-.89-1.27h-26.83c.28,.4,.53,.84,.8,1.27Z"/>
              <path class="cls-4" d="M244.47,309.93h8.14v-.62c-.18-.24-.36-.44-.54-.65h-8.38c.27,.4,.52,.84,.78,1.27Z"/>
              <path class="cls-4" d="M176.99,309.93h9.29c-.3-.45-.6-.86-.9-1.27h-8.39v1.27Z"/>
              <path class="cls-4" d="M176.99,325.2h14.94c-.08-.43-.16-.86-.25-1.27h-14.69v1.27Z"/>
              <path class="cls-4" d="M193.22,325.2h27.09c-.08-.43-.16-.86-.25-1.27h-27.1c.08,.41,.18,.84,.26,1.27Z"/>
              <path class="cls-4" d="M221.59,325.2h27.09c-.08-.43-.16-.86-.25-1.27h-27.1c.09,.41,.18,.84,.26,1.27Z"/>
              <path class="cls-4" d="M249.96,325.2h9.19c-.08-.42-.15-.86-.25-1.27h-9.19c.09,.41,.19,.84,.26,1.27Z"/>
              <path class="cls-4" d="M193.46,345.57h27.11c.06-.42,.12-.85,.18-1.27h-27.11c-.06,.43-.12,.84-.18,1.27Z"/>
              <path class="cls-4" d="M250.22,345.57h9.14c.06-.42,.13-.85,.18-1.27h-9.14c-.06,.43-.12,.84-.19,1.27Z"/>
              <path class="cls-4" d="M176.99,345.57h15.21c.06-.42,.11-.85,.17-1.27h-15.38v1.27Z"/>
              <path class="cls-4" d="M221.85,345.57h27.1c.07-.42,.12-.85,.18-1.27h-27.11c-.05,.43-.11,.84-.17,1.27Z"/>
              <path class="cls-4" d="M217.01,360.84h26.96c.23-.42,.46-.84,.67-1.28h-26.98c-.2,.44-.42,.86-.65,1.28Z"/>
              <path class="cls-4" d="M245.39,360.84h8.39c.27-.41,.53-.83,.78-1.28h-8.52c-.21,.44-.43,.86-.65,1.28Z"/>
              <path class="cls-4" d="M176.99,360.84h10.21c.24-.42,.46-.84,.69-1.28h-10.9v1.28Z"/>
              <path class="cls-4" d="M188.63,360.84h26.96c.23-.42,.45-.84,.67-1.28h-26.98c-.21,.44-.42,.86-.64,1.28Z"/>
              <path class="cls-12" d="M188.63,360.84c.23-.42,.44-.84,.64-1.28,1.94-3.98,3.38-8.75,4.19-13.99,.06-.43,.12-.85,.18-1.27,.34-2.62,.54-5.33,.54-8.13,0-3.82-.35-7.5-.96-10.96-.08-.43-.18-.86-.26-1.27-1.11-5.41-2.91-10.2-5.23-14-.26-.43-.53-.87-.78-1.27-1.52-2.23-3.22-4.06-5.06-5.43h-2.48c2.18,1.13,4.2,3,5.97,5.43,.31,.41,.61,.82,.9,1.27,2.39,3.71,4.26,8.52,5.4,14,.09,.41,.17,.84,.25,1.27,.63,3.45,.99,7.13,.99,10.96,0,2.8-.21,5.51-.56,8.13-.06,.43-.11,.85-.17,1.27-.82,5.31-2.32,10.08-4.31,13.99-.23,.44-.45,.86-.69,1.28-1.93,3.44-4.27,6.1-6.87,7.73h2.22c2.29-1.87,4.35-4.51,6.08-7.73Z"/>
              <path class="cls-12" d="M217.01,360.84c.22-.42,.44-.84,.65-1.28,1.94-3.98,3.39-8.75,4.19-13.99,.06-.43,.12-.85,.17-1.27,.35-2.62,.54-5.33,.54-8.13,0-3.82-.35-7.5-.97-10.96-.08-.43-.17-.86-.26-1.27-1.11-5.41-2.92-10.2-5.23-14-.27-.43-.52-.87-.8-1.27-1.51-2.23-3.21-4.06-5.05-5.43h-2.49c2.19,1.13,4.2,3,5.98,5.43,.31,.41,.61,.82,.91,1.27,2.39,3.71,4.26,8.52,5.4,14,.08,.41,.17,.84,.25,1.27,.63,3.45,.99,7.13,.99,10.96,0,2.8-.2,5.51-.54,8.13-.06,.43-.12,.85-.18,1.27-.83,5.31-2.31,10.08-4.31,13.99-.22,.44-.44,.86-.67,1.28-1.94,3.44-4.28,6.1-6.88,7.73h2.21c2.3-1.87,4.37-4.51,6.09-7.73Z"/>
              <path class="cls-12" d="M245.39,360.84c.22-.42,.43-.84,.65-1.28,1.93-3.98,3.38-8.75,4.18-13.99,.07-.43,.12-.85,.19-1.27,.33-2.62,.54-5.33,.54-8.13,0-3.82-.35-7.5-.98-10.96-.07-.43-.17-.86-.26-1.27-1.11-5.41-2.91-10.2-5.23-14-.26-.43-.51-.87-.78-1.27-1.52-2.23-3.22-4.06-5.05-5.43h-2.49c2.18,1.13,4.2,3,5.98,5.43,.29,.41,.6,.82,.89,1.27,2.39,3.71,4.26,8.52,5.41,14,.09,.41,.17,.84,.25,1.27,.63,3.45,.99,7.13,.99,10.96,0,2.8-.2,5.51-.55,8.13-.05,.43-.11,.85-.18,1.27-.82,5.31-2.32,10.08-4.31,13.99-.21,.44-.44,.86-.67,1.28-1.93,3.44-4.28,6.1-6.88,7.73h2.22c2.29-1.87,4.35-4.51,6.08-7.73Z"/>
            </g>
            <path class="cls-2" d="M184.51,335.91c0,18.04-8.01,32.66-17.89,32.66s-17.9-14.62-17.9-32.66,8.01-32.68,17.9-32.68,17.89,14.64,17.89,32.68Z"/>
            <path class="cls-8" d="M181.37,335.91c0,14.87-6.61,26.93-14.75,26.93s-14.76-12.06-14.76-26.93,6.61-26.95,14.76-26.95,14.75,12.06,14.75,26.95Z"/>
          </g>
        </g>
      </g>
    </g>
  </g>
</svg>