<?xml version="1.0" encoding="UTF-8"?>
<svg xmlns="http://www.w3.org/2000/svg" xmlns:xlink="http://www.w3.org/1999/xlink" viewBox="0 0 120 150">
  <defs>
    <style>
      .cls-1 {
        fill: #ffd1dd;
        mix-blend-mode: soft-light;
      }

      .cls-2, .cls-3, .cls-4, .cls-5, .cls-6, .cls-7, .cls-8, .cls-9, .cls-10, .cls-11, .cls-12, .cls-13 {
        mix-blend-mode: multiply;
      }

      .cls-2, .cls-3, .cls-4, .cls-5, .cls-6, .cls-7, .cls-8, .cls-9, .cls-11, .cls-12, .cls-13 {
        opacity: .6;
      }

      .cls-2, .cls-10 {
        fill: #ce77b5;
      }

      .cls-14 {
        fill: url(#_21-3);
      }

      .cls-15 {
        fill: url(#_56);
      }

      .cls-3 {
        fill: url(#_5);
      }

      .cls-4 {
        fill: url(#_12-3);
      }

      .cls-16 {
        isolation: isolate;
      }

      .cls-5 {
        fill: url(#_5-3);
      }

      .cls-6 {
        fill: url(#_12-4);
      }

      .cls-17 {
        fill: url(#_76);
      }

      .cls-7 {
        fill: url(#_5-4);
      }

      .cls-18 {
        fill: url(#_21);
      }

      .cls-8 {
        fill: url(#_12);
      }

      .cls-9 {
        fill: url(#_9);
      }

      .cls-10 {
        opacity: .9;
      }

      .cls-19 {
        fill: url(#_21-2);
      }

      .cls-20 {
        fill: url(#_10);
      }

      .cls-11 {
        fill: url(#_5-2);
      }

      .cls-12 {
        fill: url(#_12-2);
      }

      .cls-21 {
        fill: url(#_76-2);
      }

      .cls-13 {
        fill: url(#_12-5);
      }
    </style>
    <linearGradient id="_76" data-name="  76" x1="60" y1="9.7" x2="60" y2="70.63" gradientUnits="userSpaceOnUse">
      <stop offset="0" stop-color="#5a365d"/>
      <stop offset="1" stop-color="#5f1945"/>
    </linearGradient>
    <linearGradient id="_10" data-name="  10" x1="59.11" y1="130.82" x2="59.11" y2="150" gradientUnits="userSpaceOnUse">
      <stop offset="0" stop-color="#8f59ce"/>
      <stop offset="1" stop-color="#943773"/>
    </linearGradient>
    <linearGradient id="_12" data-name="  12" x1="20.09" y1="144.89" x2="30.83" y2="144.89" gradientUnits="userSpaceOnUse">
      <stop offset="0" stop-color="#705ab5"/>
      <stop offset=".19" stop-color="#8761c4"/>
      <stop offset=".54" stop-color="#ad6ddc"/>
      <stop offset=".82" stop-color="#c574eb"/>
      <stop offset=".99" stop-color="#ce77f1"/>
    </linearGradient>
    <linearGradient id="_12-2" data-name="  12" x1="33.83" y1="141.14" x2="55.43" y2="141.14" xlink:href="#_12"/>
    <linearGradient id="_12-3" data-name="  12" x1="69.58" y1="139.76" x2="95.97" y2="139.76" xlink:href="#_12"/>
    <linearGradient id="_12-4" data-name="  12" x1="39.57" y1="136.16" x2="44.25" y2="136.16" xlink:href="#_12"/>
    <linearGradient id="_12-5" data-name="  12" x1="-6643.95" y1="136.36" x2="-6639.39" y2="136.36" gradientTransform="translate(-6563.45) rotate(-180) scale(1 -1)" xlink:href="#_12"/>
    <linearGradient id="_21" data-name="  21" x1="10.91" y1="56.52" x2="10.91" y2="89.81" gradientUnits="userSpaceOnUse">
      <stop offset="0" stop-color="#ffb09a"/>
      <stop offset=".21" stop-color="#ff9b8d"/>
      <stop offset=".47" stop-color="#ff8780"/>
      <stop offset=".74" stop-color="#ff7b79"/>
      <stop offset="1" stop-color="#f77"/>
    </linearGradient>
    <linearGradient id="_5" data-name="  5" x1="11.25" y1="82.78" x2="11.25" y2="63.56" gradientUnits="userSpaceOnUse">
      <stop offset="0" stop-color="#ffe7d8"/>
      <stop offset=".99" stop-color="#ce77f1"/>
    </linearGradient>
    <linearGradient id="_5-2" data-name="  5" x1="17.31" y1="81.69" x2="17.31" y2="73.43" xlink:href="#_5"/>
    <linearGradient id="_21-2" data-name="  21" x1="-7025.17" y1="56.52" x2="-7025.17" y2="89.81" gradientTransform="translate(-6916.19) rotate(-180) scale(1 -1)" xlink:href="#_21"/>
    <linearGradient id="_5-3" data-name="  5" x1="-7024.83" y1="82.78" x2="-7024.83" y2="63.56" gradientTransform="translate(-6916.19) rotate(-180) scale(1 -1)" xlink:href="#_5"/>
    <linearGradient id="_5-4" data-name="  5" x1="-7018.77" y1="81.69" x2="-7018.77" y2="73.43" gradientTransform="translate(-6916.19) rotate(-180) scale(1 -1)" xlink:href="#_5"/>
    <linearGradient id="_21-3" data-name="  21" x1="60" y1="138.68" x2="60" y2="110.24" xlink:href="#_21"/>
    <linearGradient id="_56" data-name="  56" x1="59.28" y1="120.52" x2="59.28" y2="19.71" gradientUnits="userSpaceOnUse">
      <stop offset="0" stop-color="#ffa793"/>
      <stop offset=".43" stop-color="#f6a896"/>
      <stop offset=".52" stop-color="#f8a18f"/>
      <stop offset=".76" stop-color="#fd9683"/>
      <stop offset="1" stop-color="#ff937f"/>
    </linearGradient>
    <linearGradient id="_9" data-name="  9" x1="59.09" y1="120.52" x2="59.09" y2="83.12" gradientUnits="userSpaceOnUse">
      <stop offset="0" stop-color="#ce77f1"/>
      <stop offset=".16" stop-color="#d17fef"/>
      <stop offset=".41" stop-color="#dc97e9"/>
      <stop offset=".71" stop-color="#ecbde1"/>
      <stop offset="1" stop-color="#ffe7d8"/>
    </linearGradient>
    <linearGradient id="_76-2" data-name="  76" x1="60.19" y1="9.5" x2="60.19" y2="69.1" xlink:href="#_76"/>
  </defs>
  <g class="cls-16">
    <g id="Layer_2" data-name="Layer 2">
      <g id="Avatar_face" data-name="Avatar face">
        <g>
          <g>
            <path class="cls-17" d="M119.02,64.81c-2.96,10.87-13.67,35.59-22.45,39.23-3.16,1.31-18.28,5.74-20.62,5.29-11.17-2.16-21.88-5.01-42.87-3.64-1.39-17.88,1.47-72.36,2.39-77.24-4.3,8.6-10.32,28.25-11.63,36.37-1.47,9.06,3.22,25.7,1.61,25.26-.37-.1-.73-.24-1.08-.41,2.83,5.22,6.36,9.09,9.36,11.76-1.89,.79,3.62,5.72,2.11,6.73,0,0-3.06-.82-8.65-1.19-3.1-.21-15.39-14.87-17.58-24.32,0,0-4.69-1.59-8.06-10.03-3.37-8.43-.59-21.38,2.34-25.6,.62-.9,1.67-2.67,2.95-4.95,0,0,0-.01,0-.02,0,0,0,0,0,0,4.73-8.4,12.74-23.59,15.51-27.02,3.52-4.36,11,.58,11,.58,0,0,11.78-17.59,23.17-15.42,2.86,.54,6.57,2.27,11.04,4.44,6.31,3.05,14.11,6.99,23.13,9.7,11.66,3.51,18.19,7.11,22.26,13.08,1.31,1.91,2.37,4.07,3.25,6.54,0,0,6.13,18.71,2.82,30.88Z"/>
            <path class="cls-10" d="M119.02,64.81c-2.96,10.87-13.67,35.59-22.45,39.23-1.56,.65-2.01,.1-2.03-.9,2.08-2.04,3.93-4.33,5.43-6.92,1.8-3.11,1.86-9.21,1.42-16.2-.78,1.33-1.57,2.57-2.32,3.7-2.33,3.54-1.69-18.16-10.21-21.29-7.36-1.1-15.79-4.12-16.05-4.22,.08,.18,2.28,5.23-1.18,4.94-3.52-.29-11.63-5.82-11.63-5.82,0,0-8.02-.44-15.06-6.66-4.91-4.35-8.04-15.75-9.48-22.24,.54-2.87,.08-5.92-.55-8.33-.19-.75-.18-1.58-.39-2.18-.51-1.5-1.17-2.33-1.17-2.33,0,0,5.76-8.87,13.81-13.43,0,0-1.64,2.41-1.99,5.95,0,0-.17,3.41,3.28,6.32,0,0-3.57-2.33-8.07-.12,0,0-.33,1.18-.29,2.85,.01,.88,.13,1.89,.44,2.95,0,0,4.96,20.24,19.45,29.46,0,0-2.54-20.14-9.73-32.37,0,0,21.47,22.82,40.27,31.42,0,0,3.37-10.39,2.35-15.23-.73-3.42-5.73-10.97-8.6-15.09-1.19-1.71-2.01-2.84-2.01-2.84,0,0,0,0,.01,0,.56,.26,18.65,8.72,25.41,18.65,1.76,2.58,6.24-1.62,5.25-6.72,1.31,1.91,2.37,4.07,3.25,6.54,0,0,6.13,18.71,2.82,30.88Z"/>
            <path class="cls-10" d="M33.72,101.43c-1.89,.79,3.34,4.56,1.83,5.57,0,0-5.42,.78-8.37-.03-3-.82-15.39-14.87-17.58-24.32,0,0-4.69-1.59-8.06-10.03-3.37-8.43-.59-21.38,2.34-25.6,.62-.9,1.67-2.67,2.95-4.95-.23,.58-4.12,10.58-3.62,13.97,0,0,1.84,.29,5.06-5.38,2.71-4.77,5.96-10.84,6.93-12.66-.92,1.86-3.87,8.45-4.71,18.64,0,.05,0,.09-.01,.14-.09,1.13-.15,2.3-.19,3.53-.04,1.25-.04,2.54,0,3.88l.62,17.51,3.37-7.17s.79-23.43,6.19-33.9c4.92-9.54,7.42-13.65,7.83-14.3-.74,1.27-8.72,15.43-9.16,41.36-.15,9.04,2.11,16.31,5.2,21.99,2.83,5.22,6.36,9.09,9.36,11.76Z"/>
          </g>
          <g>
            <g>
              <path class="cls-20" d="M61.71,130.82c-20.76,0-26.88,3.25-27.88,4.88,0,0-.62,3.37-1.87,4.53,0,0-1.87,1.98-3.75,2.09s-3.75-1.51-4.99-.93c-1.25,.58-3.12,3.95-3.12,3.95l-9.86,4.65H108s-16.86-6.28-20.73-9.59c0,0-3.12-3.89-2-5.99,0,0-2.56-3.6-23.57-3.6Z"/>
              <path class="cls-8" d="M30.83,148.37s-7.49,.23-10.74-3.02c0,0,1.87-3.37,3.12-3.95,0,0,.5,5.35,7.62,6.97Z"/>
              <path class="cls-12" d="M33.83,135.7c3.37,6.39,14.48,10.81,21.6,10.81,0,0-12.99,.7-16.86-2.32s-4.74-8.49-4.74-8.49Z"/>
              <path class="cls-4" d="M95.97,145.1c-4.71-1.22-10.61-2.94-10.61-2.94-5.27,2.67-10.43,2.94-15.78,2.72,5.61-1.61,11.15-2.84,15.69-10.45-1.12,2.09,2,5.99,2,5.99,1.51,1.29,5,3.04,8.7,4.69Z"/>
              <path class="cls-6" d="M44.25,133.84s-3-.22-4.3,1.4,1.09,3.25,1.09,3.25c0,0,2.51-.82,3.21-4.65Z"/>
              <path class="cls-13" d="M75.95,134.42s2.87-.81,4.17,.82-1.09,3.25-1.09,3.25c0,0-2.39-.24-3.08-4.07Z"/>
            </g>
            <g>
              <path class="cls-18" d="M21.38,68.42s-1.58-5.06-9.49-8.2c-7.91-3.14-10.9,1.57-11.42,6.8-.53,5.23,5.62,18.48,11.6,20.75,5.98,2.27,9.32-1.92,9.32-1.92v-17.44Z"/>
              <path class="cls-3" d="M21.38,77.47v5.31s-2.46-6.08-3.95-6c-1.49,.09-.88,4.1-1.41,5.49-.53,1.39-2.64-.09-3.11-4.62-.47-4.53,2.67-4.48,2.67-4.48,0,0-3.49-8.1-7.79-5.75s-1.82,13.14-1.82,13.14c0,0-5.93-10.24-4.69-14.01,1.24-3.77,4.92-4.04,10.9-.46,2.93,1.75,5.79,5.68,7.94,9.22,.45,.74,.87,1.47,1.26,2.15Z"/>
              <path class="cls-11" d="M21.38,76.99v3.62c-.9-1.72-3.23-5.84-4.31-4.78-1.35,1.34-.64,3.79-1.76,5.5-1.12,1.71-2.73-2.88-1.8-5.93,.93-3.05,4.63-1.84,5.73-.97,.27,.21,.57,.52,.88,.9,.4,.48,.83,1.06,1.26,1.67Z"/>
            </g>
            <g>
              <path class="cls-19" d="M98.51,68.42s1.58-5.06,9.49-8.2c7.91-3.14,10.9,1.57,11.42,6.8,.53,5.23-5.62,18.48-11.6,20.75-5.98,2.27-9.32-1.92-9.32-1.92v-17.44Z"/>
              <path class="cls-5" d="M98.51,77.47v5.31s2.46-6.08,3.95-6,.88,4.1,1.41,5.49c.53,1.39,2.64-.09,3.11-4.62,.47-4.53-2.67-4.48-2.67-4.48,0,0,3.49-8.1,7.79-5.75s1.82,13.14,1.82,13.14c0,0,5.93-10.24,4.69-14.01-1.24-3.77-4.92-4.04-10.9-.46-2.93,1.75-5.79,5.68-7.94,9.22-.45,.74-.87,1.47-1.25,2.15Z"/>
              <path class="cls-7" d="M98.51,76.99v3.62c.9-1.72,3.23-5.84,4.31-4.78,1.35,1.34,.64,3.79,1.76,5.5,1.12,1.71,2.73-2.88,1.8-5.93-.93-3.05-4.63-1.84-5.73-.97-.27,.21-.57,.52-.88,.9-.4,.48-.83,1.06-1.25,1.67Z"/>
            </g>
            <path class="cls-14" d="M75.62,132.35v-26.66l-15.62,1.85-15.62-1.85v26.66c0,4.63-3.33,6.15-3.33,6.15,0,0,3.16,4.49,18.96,4.49s18.96-4.49,18.96-4.49c0,0-3.33-1.52-3.33-6.15Z"/>
            <path class="cls-2" d="M75.63,105.68v20.7c-2.49,2.51-5.74,4.48-9.89,4.79-10.23,.75-18.57-11.35-21.36-15.94v-9.55l15.63,1.85,15.62-1.85Z"/>
            <g>
              <path class="cls-15" d="M100.45,54.22c0-13.15,.69-34.51-40.57-34.51S19.3,41.07,19.3,54.22c0,26.25-7.69,24.28,3.06,42.78,9.28,15.97,29.78,23.52,37.52,23.52s27.68-7.55,36.95-23.52c8.7-14.97,3.62-20.72,3.62-42.78Z"/>
              <path class="cls-9" d="M96.83,97c-9.28,15.97-29.22,23.52-36.95,23.52s-28.24-7.55-37.52-23.52c-1.34-2.31-5.39-9.13-5.62-13.88,2,5.85,4.45,10.34,5.62,12.35,9.28,15.97,29.78,23.52,37.52,23.52s27.68-7.55,36.95-23.52c1.16-2,3.62-6.76,4.62-10.14-1.08,5.52-3.27,9.36-4.62,11.67Z"/>
            </g>
          </g>
          <g>
            <path class="cls-21" d="M110.04,58.8c-1.97,.14-3.67-.87-3.67-.87,1.97,7.88,.04,12.59-2.11,14.99-.91,1.03-1.87,1.63-2.59,1.87-.17,.06-.32,.1-.46,.12,0,0-3.46-.64-12.37-12.47-11.58-2.58-22.1-7.25-22.42-7.4,.65,.57,1.26,1.35,1.78,2.14,.97,1.47,1.59,2.93,1.45,2.94-3.53,.14-9.65-2.77-9.65-2.77,0,0-8.02-.44-15.06-6.66-4.49-3.97-7.49-13.84-9.07-20.46-.15-.62-.29-1.22-.41-1.78-9.73,9.33-11.63,25.06-11.63,36.37,0,.75,.02,1.55,.06,2.38,.45,9.33,3.15,22.9,1.55,22.88-5.9-.05-8.8-12.22-8.8-12.22,0,0-1.6-1.75-3.19-4.85-1.71-3.34-3.42-8.24-3.11-14.2,.58-11.49,6.3-24.12,6.3-24.12,6.89-10.59,17.89-16.76,17.89-16.76,0,0,4.36-5.86,10.65-9.81h0c3.35-2.11,7.25-3.68,11.33-3.53,7.1,.27,17.57,4.91,26.92,11.42h0c6.1,4.25,11.73,9.29,15.63,14.42,3.87,5.09,6.38,9.84,8.01,13.94h0c3.44,8.65,2.96,14.43,2.96,14.43Z"/>
            <path class="cls-10" d="M99.07,30.44c-3.9-5.14-26.75-17.95-41.96-17.75-13.6,.18-11.93-4.57-11.93-4.57-6.29,3.95-10.65,9.81-10.65,9.81,0,0,.86,3.62,.95,8.39-.03-.01-2.62-1.08-7.22,7.14-4.62,8.26-5.35,23.71-4.51,32.69,.04,.37,.08,.71,.14,1.04-.04-.83-.06-1.63-.06-2.38,0-11.31,1.9-27.04,11.63-36.37,.05,.23,.11,.47,.16,.72,.02,.11,.05,.21,.07,.32,.05,.23,.11,.47,.17,.71,0,0,0,.01,0,.02h0c1.58,6.62,4.58,16.49,9.07,20.46,7.04,6.23,15.06,6.66,15.06,6.66,0,0-14.03-9.02-17.99-26.91,0,0,6.38,11.54,24.42,24.6,.33,.14,10.84,4.82,22.42,7.4,0,0-16.35-26.33-49.19-41.31,0,0,9.74-4.25,33.57,4,25.83,8.95,33.13,32.8,33.13,32.8,0,0,1.69,1.02,3.67,.87,0,0,1.05-12.55-10.97-28.36Z"/>
            <path class="cls-10" d="M16.64,77.86s-1.6-1.75-3.19-4.85h0s-.04-22.68,12.28-40.79c0,0-9.27,24.29-9.09,45.63Z"/>
            <path class="cls-10" d="M110.04,58.8c-1.97,.14-3.67-.87-3.67-.87,1.97,7.88,.04,12.59-2.11,14.99-.91,1.03-1.87,1.63-2.59,1.87,3.37-4.5,2.06-11.79,1.39-14.83-4.39-19.93-29.84-34.83-29.84-34.83,0,0,16.6,4.15,29.84,15.9,6.98,6.2,6.97,17.77,6.97,17.77Z"/>
            <path class="cls-10" d="M46.91,24.75s27.65,7.47,38.94,19.8c13.15,14.36,14.37,28.07,14.37,28.07,0,0-12.87-22.77-23.54-30.69-15.38-11.41-29.77-17.18-29.77-17.18Z"/>
            <path class="cls-1" d="M62.63,22s1.96,.73,2.11,3.78c.15,3.05-4.13,3.62-4.13,3.62,0,0,6.28,2.56,9.17,4.05,0,0,5.88-3.53,3.46-8.33l-10.61-3.13Z"/>
            <path class="cls-1" d="M16.42,24.75c4.48,2.98,5.8,6.49,5.8,6.49,0,0,.44,5.02-1.21,8.73,0,0,1.46-4.04-1.41-7.75s-7.4,.14-7.4,.14l4.22-7.61Z"/>
            <path class="cls-1" d="M64.07,2.96s6.81,3.66,13.72,6.5c0,0,4.51,4.42-2.27,7.21,0,0-5.86-2.37-12.18-3.44,0,0,11.23,1.87,9.91-1.62-1.69-4.48-7.57-4.64-9.17-8.65Z"/>
          </g>
        </g>
      </g>
    </g>
  </g>
</svg>