<?xml version="1.0" encoding="UTF-8"?>
<svg xmlns="http://www.w3.org/2000/svg" xmlns:xlink="http://www.w3.org/1999/xlink" viewBox="0 0 70.05 144.37">
  <defs>
    <style>
      .cls-1 {
        fill: #b96f5e;
      }

      .cls-2 {
        fill: #aa5f4c;
      }

      .cls-3 {
        fill: #fff;
      }

      .cls-4, .cls-5 {
        fill: #faa424;
      }

      .cls-4, .cls-6, .cls-7, .cls-8 {
        mix-blend-mode: screen;
      }

      .cls-9, .cls-7, .cls-10 {
        fill: #f3d1bb;
      }

      .cls-11, .cls-12 {
        fill: #0062a4;
      }

      .cls-11, .cls-13, .cls-14, .cls-15, .cls-16, .cls-17, .cls-18, .cls-10, .cls-19, .cls-20, .cls-21, .cls-22, .cls-23 {
        mix-blend-mode: multiply;
      }

      .cls-11, .cls-19 {
        opacity: .4;
      }

      .cls-13 {
        fill: #d8d9da;
      }

      .cls-24 {
        fill: #974d34;
      }

      .cls-25 {
        fill: #a46053;
      }

      .cls-26 {
        isolation: isolate;
      }

      .cls-27 {
        fill: #f47e6c;
      }

      .cls-14, .cls-28 {
        fill: #28537d;
      }

      .cls-15 {
        opacity: .52;
      }

      .cls-15, .cls-18 {
        fill: #fab8a6;
      }

      .cls-16 {
        fill: url(#linear-gradient-2);
      }

      .cls-16, .cls-21, .cls-22 {
        opacity: .6;
      }

      .cls-17, .cls-29 {
        fill: #f26a60;
      }

      .cls-30 {
        clip-path: url(#clippath-1);
      }

      .cls-31, .cls-21 {
        fill: #49c2c9;
      }

      .cls-6 {
        opacity: .48;
      }

      .cls-6, .cls-20, .cls-32 {
        fill: #f8afac;
      }

      .cls-33 {
        fill: #003562;
      }

      .cls-34 {
        fill: #00818d;
      }

      .cls-19 {
        fill: #004071;
      }

      .cls-35 {
        clip-path: url(#clippath);
      }

      .cls-20 {
        opacity: .57;
      }

      .cls-36 {
        fill: none;
      }

      .cls-37 {
        fill: #ce6e3b;
      }

      .cls-38 {
        fill: #aa2d2d;
      }

      .cls-8, .cls-39 {
        fill: #488ac9;
      }

      .cls-22 {
        fill: url(#linear-gradient);
      }

      .cls-40 {
        fill: #440900;
      }

      .cls-23 {
        fill: #e2e3e4;
      }
    </style>
    <clipPath id="clippath">
      <path class="cls-36" d="M35.52,36.11s-.02,.02-.03,.03c.03-.04,.06-.09,.1-.14-.31,.38-.72,.75-1.22,.84-1.16,.23-2.32,.16-3.31-.57-.87-.64-1.1-1.87-1.09-2.88,0-1.19,.43-2.39,1.01-3.42,.54-.96,1.34-1.82,2.32-2.35,.53-.29,1.18-.43,1.76-.22,.05,.02,.09,.04,.14,.07,.94,.19,1.33,1.08,1.5,2.05,.2,.72,.26,1.49,.29,2.22,.03,1.03-.08,2.12-.52,3.05-.23,.48-.56,.91-.93,1.29Z"/>
    </clipPath>
    <clipPath id="clippath-1">
      <path class="cls-36" d="M21.93,32.32c-.16,.99-.48,1.99-1.43,2.48-.94,.48-2.28,.19-3.09-.4-.78-.58-.99-1.68-.98-2.58,0-1.07,.38-2.14,.9-3.06,.49-.86,1.21-1.63,2.08-2.11,.48-.26,1.06-.39,1.58-.19,.05,.02,.1,.05,.15,.08,0,0-.02,.02-.02,.03,.91,.37,1.04,1.61,1.06,2.54,0,.03,0,.07,0,.1,0,.04,0,.09,0,.13,0,0,0,.02,0,.03,0,0,0,.01,0,.02,.03,.98-.1,1.99-.26,2.95Z"/>
    </clipPath>
    <linearGradient id="linear-gradient" x1="-357.7" y1="408.18" x2="-358.96" y2="403.79" gradientTransform="translate(490.12 -256.94) rotate(15.46)" gradientUnits="userSpaceOnUse">
      <stop offset="0" stop-color="#fff"/>
      <stop offset="1" stop-color="#ea9c9e"/>
    </linearGradient>
    <linearGradient id="linear-gradient-2" x1="-55.68" y1="116.83" x2="-57.17" y2="111.69" gradientTransform="translate(79.79 -73.84) rotate(3.85)" xlink:href="#linear-gradient"/>
  </defs>
  <g class="cls-26">
    <g id="Layer_2" data-name="Layer 2">
      <g id="Layer_1-2" data-name="Layer 1">
        <g>
          <g>
            <path class="cls-2" d="M43.03,65.28c.19,.28,.48,.51,.74,.73,.41,.33,.8,.68,1.19,1.03,.39,.34,.77,.68,1.17,1.01,.09,.07,.17,.14,.26,.22,.03,.02,0,0,.04,.03,.06,.05,.11,.1,.17,.15,.37,.34,.74,.67,1.12,1,.41,.36,.82,.72,1.27,1.03,.09,.06,.39,.3,.6,.33-.43,.53-.84,1.09-1.25,1.65-.63,.87-1.24,1.75-1.88,2.62-.32,.44-.64,.87-.98,1.29-.3,.37-.6,.72-.87,1.11-.5,.7-.8,1.47-.78,2.33,0,.5,.09,1.01,.2,1.5,.11,.51,.26,1.08,.59,1.5,.12,.15,.28,.3,.49,.33,.19,.03,.35-.05,.49-.16,.15-.06,.3-.13,.45-.19,.54-.22,1.07-.44,1.59-.72,.54-.3,1.07-.62,1.6-.95,.98-.62,1.92-1.29,2.8-2.05,1.71-1.47,3.24-3.21,4.14-5.3,.45-1.04,.8-2.19,.66-3.33-.06-.52-.27-1.01-.51-1.47-.26-.48-.54-.95-.83-1.42-1.18-1.85-2.61-3.53-4.17-5.07-1.56-1.54-3.27-2.92-5.02-4.23-.04-.03-.06,0-.06,.03-.1-.02-.23,.08-.29,.15-.18,.17-.32,.4-.45,.61-.63,.97-1.14,2.02-1.67,3.05-.24,.48-.55,.92-.79,1.4-.26,.52-.56,1.36,0,1.8Z"/>
            <path class="cls-9" d="M43.05,65.03c-.14-.23-.14-.49-.07-.78,.1-.38,.3-.73,.49-1.07,.22-.37,.43-.74,.63-1.13,.24-.48,.49-.96,.74-1.43,.28-.52,.56-1.03,.86-1.53,.11-.18,.22-.35,.35-.52,.03-.04,.13-.23,.2-.22,0,0,.01,0,.02,0,.2,.16,.39,.32,.59,.48,1.66,1.37,3.29,2.78,4.79,4.32,1.49,1.54,2.85,3.21,3.95,5.05,.27,.45,.54,.91,.74,1.4,.21,.52,.27,1.08,.22,1.64-.05,.58-.21,1.15-.4,1.7-.18,.52-.41,1.02-.67,1.51-1.05,1.97-2.64,3.61-4.37,5-.92,.74-1.9,1.39-2.9,2-.5,.3-1.01,.61-1.54,.85-.35,.16-.72,.29-1.06,.46-.03-.01-.05-.01-.08,0-.09,.07-.19,.13-.29,.16-.4,.14-.64-.37-.76-.67-.2-.48-.31-.99-.39-1.5-.1-.58-.14-1.18-.01-1.76,.18-.8,.7-1.46,1.22-2.08,1.28-1.52,2.4-3.15,3.58-4.73,.43-.57,.85-1.15,1.33-1.69,.46-.52,1-1,1.65-1.27,.76-.32,1.63-.27,2.33,.17,.32,.2,.59,.44,.82,.73,.2,.25,.45,.6,.35,.94,0,.03,.06,.08,.08,.04,.05-.13,.05-.27,.03-.4-.07-.35-.3-.67-.53-.93-.28-.31-.62-.56-.99-.74-.76-.37-1.65-.33-2.4,.03-.68,.33-1.23,.87-1.71,1.43-.04,.05-.09,.11-.13,.16-.01,0-.02,0-.03,0-.02,0-.07-.02-.11-.04-.07-.03-.12-.07-.19-.11-.19-.13-.38-.27-.56-.42-.76-.6-1.45-1.27-2.18-1.9-.61-.52-1.23-1.02-1.83-1.55-.31-.27-.62-.54-.95-.8-.3-.24-.57-.5-.8-.81Z"/>
            <path class="cls-10" d="M42.99,64.25c.1-.38,.3-.73,.49-1.07,.22-.37,.43-.74,.63-1.13,.24-.48,.49-.96,.74-1.43,.28-.52,.56-1.03,.86-1.53,.11-.18,.22-.35,.35-.52,.03-.04,.13-.23,.2-.22,0,0,.01,0,.02,0,.2,.16,.39,.32,.59,.48,.38,.32,.77,.63,1.14,.96,.07,.9,.03,1.8-.22,2.67-.16,.54-.35,1.09-.34,1.66,.01,.45,.18,.86,.42,1.24,.49,.79,1.19,1.46,1.89,2.05,.32,.27,.65,.55,1.01,.77,.41,.25,.86,.39,1.33,.5,.18,.04,.36,.08,.55,.12-.38,.02-.75,.12-1.1,.28-.68,.33-1.23,.87-1.71,1.43-.04,.05-.09,.11-.13,.16-.01,0-.02,0-.03,0-.02,0-.07-.02-.11-.04-.07-.03-.12-.07-.19-.11-.19-.13-.38-.27-.56-.42-.76-.6-1.45-1.27-2.18-1.9-.61-.52-1.23-1.02-1.83-1.55-.31-.27-.62-.54-.95-.8-.3-.24-.57-.5-.8-.81-.14-.23-.14-.49-.07-.78Z"/>
            <path class="cls-10" d="M45.3,76.9c1.28-1.52,2.4-3.15,3.58-4.73,.43-.57,.85-1.15,1.33-1.69,.46-.52,1-1,1.65-1.27,.76-.32,1.63-.27,2.33,.17,0,0,0,0,0,0-.89-.05-1.84,.6-2.4,1.21-.47,.5-.88,1.05-1.29,1.6-.43,.58-.85,1.17-1.24,1.78-.39,.6-.76,1.21-1.1,1.83-.33,.6-.64,1.2-.85,1.85-.21,.66-.32,1.35-.28,2.04,.03,.45,.16,.9,.32,1.32,.1,.25,.21,.49,.34,.72-.33,.19-.66,.37-1.01,.53-.35,.16-.72,.29-1.06,.46-.03-.01-.05-.01-.08,0-.09,.07-.19,.13-.29,.16-.4,.14-.64-.37-.76-.67-.2-.48-.31-.99-.39-1.5-.1-.58-.14-1.18-.01-1.76,.18-.8,.7-1.46,1.22-2.08Z"/>
          </g>
          <path class="cls-25" d="M46.45,103.38c-.37-.17-.84-.11-1.23-.07-.5,.05-.99,.13-1.48,.17-1.37,.1-2.75,.1-4.12,0-2.75-.2-5.48-.64-8.17-1.26-2.59-.6-5.18-1.32-7.6-2.43-1.21-.55-2.32-1.23-3.41-1.99-1.05-.73-2.1-1.47-3.22-2.08-1.11-.61-2.29-1.13-3.54-1.34-.55-.09-1.11-.12-1.66,.03-.5,.14-.97,.39-1.37,.72-.02,.02-.04,.03-.06,.05-.41,.28-.79,.65-.94,1.12-.35,1.09,.53,2.23,1.23,2.96,.87,.9,1.9,1.57,2.98,2.21,1.33,.79,2.71,1.49,4.12,2.12,2.84,1.25,5.83,2.15,8.9,2.65,3.05,.5,6.17,.61,9.24,.26,1.71-.2,3.4-.53,5.07-.97,.8-.21,1.6-.45,2.37-.74,.36-.14,.72-.3,1.09-.42,.33-.11,.66-.21,.98-.34,.29-.11,.57-.25,.8-.45,.06-.05,.1-.14,.01-.18Z"/>
          <path class="cls-27" d="M44.51,104.2c-.75,.28-1.49,.59-2.26,.82-1.56,.48-3.17,.83-4.79,1.09-3.02,.48-6.1,.52-9.14,.14-2.99-.37-5.93-1.13-8.73-2.22-1.4-.55-2.77-1.17-4.1-1.88-.65-.35-1.29-.71-1.92-1.1-.51-.31-1.01-.62-1.48-.99-.89-.7-1.85-1.6-2.21-2.7-.17-.51-.16-1.05,.16-1.5,.02-.02,.03-.04,.05-.06,.04,.02,.09,.01,.13-.03,.47-.52,1.05-.92,1.7-1.12,.12-.03,.23-.06,.35-.08,0,0,0,0,.01,0,.28-.05,.58-.06,.88-.03,1.27,.14,2.49,.63,3.61,1.23,1.13,.59,2.18,1.3,3.22,2.03,1.04,.73,2.1,1.42,3.25,1.98,2.34,1.13,4.84,1.87,7.36,2.49,2.61,.64,5.26,1.1,7.93,1.35,1.36,.13,2.71,.2,4.07,.15,.58-.02,1.17-.05,1.75-.13,.47-.06,.95-.15,1.43-.14,.13,0,.26,0,.39,.04-.48,.34-1.11,.47-1.65,.67Z"/>
          <path class="cls-20" d="M45.77,103.5c-.48,0-.95,.08-1.43,.14-.58,.08-1.16,.1-1.75,.13-1.36,.05-2.72-.02-4.07-.15-2.67-.25-5.33-.71-7.93-1.35-2.52-.61-5.02-1.35-7.36-2.49-1.15-.56-2.2-1.25-3.25-1.98-1.04-.73-2.09-1.44-3.22-2.03-1.12-.59-2.34-1.09-3.61-1.23-.3-.03-.59-.02-.88,.03,0,0,0,0-.01,0-.12,.02-.24,.05-.35,.08-.36,.11-.7,.28-1.01,.5,.17,.59,.55,1.13,.94,1.58,.62,.71,1.35,1.31,2.11,1.87,1.93,1.43,4.04,2.57,6.24,3.5,2.5,1.06,5.09,1.93,7.73,2.55,2.61,.61,5.28,.97,7.96,1.1,1.1,.05,2.19,.06,3.29,.04,1.03-.21,2.06-.47,3.07-.77,.77-.23,1.51-.54,2.26-.82,.54-.2,1.17-.33,1.65-.67-.13-.03-.26-.04-.39-.04Z"/>
          <g>
            <g>
              <path class="cls-2" d="M14.98,140.34s0,.02,0,.04c-.32,.87-.73,1.31-1.62,1.59-.06,.02-.12,.03-.19,.05-.72,.32-1.46,.56-2.26,.65-.91,.1-2.68,.35-3.44-.37-.56-.53-.31-1.25,.32-1.64,.76-.46,1.62-.6,2.41-.98,.49-.31,.99-.59,1.1-1.31-.27-2.89-.19-5.83-.05-8.72,.16-3.16,.57-6.34,1.09-9.46,.99-6.02,2.46-12.03,4.95-17.62,0-.01,.02-.02,.03-.04-.08-.06,.09-.17,.15-.14,1.63,.79,3.44,1.21,5.08,2.01,.72,.35,1.63,.61,2.23,1.15,.29,.26-.12,.67-.28,.89,0,0-.02,.02-.03,.03-1.23,2.47-2.21,5.07-3.23,7.63-1.1,2.76-1.97,5.61-2.74,8.47-.77,2.85-1.5,5.71-2.06,8.61-.3,1.57-.63,3.13-.84,4.71-.2,1.46-.31,2.95-.59,4.39,0,.02-.02,.03-.03,.05,0,0,0,0,0,0Z"/>
              <path class="cls-9" d="M14.86,140.05c.02-.17,.02-.35,.04-.53,.03-.35,.06-.71,.09-1.06,.12-1.26,.28-2.52,.48-3.77,.19-1.24,.42-2.49,.66-3.71,.58-2.91,1.39-5.74,2.08-8.62,.36-1.52,.87-3.01,1.35-4.5,.41-1.27,.83-2.54,1.36-3.77,1.09-2.56,2.08-5.15,3.38-7.61-.02-.01-.02-.04,0-.08,.29-.54,.2-.72-.37-1.01-.33-.17-.66-.33-1-.49-.65-.3-1.29-.58-1.95-.85-.62-.25-1.22-.54-1.85-.76-.57-.2-1.19-.36-1.69-.7-2.32,5.67-3.83,11.73-4.75,17.78-.85,5.56-1.23,11.1-1.15,16.7-.02,.41-.04,.82-.05,1.23-.13,.45-.38,.85-.76,1.22-.01,0-.02,0-.03,.01-.52,.32-1.11,.47-1.67,.71-.23,.09-.46,.18-.67,.29-.24,.09-.46,.21-.62,.38-.95,1,.25,1.43,.85,1.52,1.04,.15,2,.08,2.94-.14,.82-.1,1.64-.34,2.25-.79,.07-.03,.14-.06,.22-.1,.14-.1,.28-.23,.41-.38,.25-.3,.43-.68,.48-.99Z"/>
              <path class="cls-7" d="M13.8,115.67c1.15-4.33,2.34-8.7,4.51-12.64-.31-.11-.62-.24-.89-.43-2.22,5.43-3.69,11.21-4.63,17,.32-1.31,.66-2.62,1.01-3.93Z"/>
              <path class="cls-10" d="M16.26,117.37c-.95-.21-2-.56-2.86-1.12-.1,.5-.19,.99-.28,1.49,1.03,.43,2.41,.35,3.14-.37Z"/>
              <path class="cls-10" d="M14.86,140.05c.02-.17,.02-.35,.04-.53,.03-.35,.06-.71,.09-1.06,.12-1.26,.28-2.52,.48-3.77,.19-1.24,.42-2.49,.66-3.71,.58-2.91,1.39-5.74,2.08-8.62,.36-1.52,.87-3.01,1.35-4.5,.41-1.27,.83-2.54,1.36-3.77,1.09-2.56,2.08-5.15,3.38-7.61-.02-.01-.02-.04,0-.08,.29-.54,.2-.72-.37-1.01-.33-.17-.66-.33-1-.49-.65-.3-1.29-.58-1.95-.85-.62-.25-1.22-.54-1.85-.76-.57-.2-1.19-.36-1.69-.7-.53,1.29-1.01,2.61-1.46,3.93,1.36,1.13,3.23,1.79,4.84,2.13,.08,.02,.11,.11,.09,.18-.8,2.55-2.1,4.93-2.71,7.54-.23,.97-.24,1.97-.41,2.95-.1,.55-.28,1.15-.75,1.51-1.04,.78-2.51,.69-3.72,.47-.23-.04-.48-.1-.74-.17-.77,5.3-1.12,10.59-1.04,15.94-.02,.41-.04,.82-.05,1.23-.13,.45-.38,.85-.76,1.22-.01,0-.02,0-.03,.01-.52,.32-1.11,.47-1.67,.71-.23,.09-.46,.18-.67,.29-.24,.09-.46,.21-.62,.38-.95,1,.25,1.43,.85,1.52,1.04,.15,2,.08,2.94-.14,.82-.1,1.64-.34,2.25-.79,.07-.03,.14-.06,.22-.1,.14-.1,.28-.23,.41-.38,.25-.3,.43-.68,.48-.99Z"/>
              <path class="cls-34" d="M14.98,140.34s0,.02,0,.04c-.32,.87-.73,1.31-1.62,1.59-.06,.02-.12,.03-.19,.05-.72,.32-1.46,.56-2.26,.65-.91,.1-2.68,.35-3.44-.37-.56-.53-.31-1.25,.32-1.64,.76-.46,1.62-.6,2.41-.98,.49-.31,.99-.59,1.1-1.31-.27-2.89-.19-5.83-.05-8.72,.15-3.03,.54-6.07,1.02-9.07,.11-.01,.23,.05,.32,.14,.01,0,.02,.02,.03,.03,0,0,0,0,0,0,0,0,0,0,0,0,.04,.05,.08,.1,.14,.14,.02,.02,.05,.03,.08,.05,.73,.56,1.79,.86,2.63,1.03,.95,.2,1.85,.16,2.8,.11,.09,0,.18,.02,.26,.05,.04,.01,.06,.05,.06,.1-.03,.11-.06,.22-.09,.33-.77,2.85-1.5,5.71-2.06,8.61-.3,1.57-.63,3.13-.84,4.71-.2,1.46-.31,2.95-.59,4.39,0,.02-.02,.03-.03,.05,0,0,0,0,0,0Z"/>
              <path class="cls-31" d="M14.86,140.05c.02-.17,.02-.35,.04-.53,.03-.35,.06-.71,.09-1.06,.12-1.26,.28-2.52,.48-3.77,.19-1.24,.42-2.49,.66-3.71,.58-2.91,1.39-5.74,2.08-8.62,0-.01,0-.03,.01-.04-1.09,.06-2.11,.09-3.18-.17-.82-.2-1.84-.5-2.45-1.15-.78,5.35-1.14,10.68-1.06,16.07-.02,.41-.04,.82-.05,1.23-.13,.45-.38,.85-.76,1.22-.01,0-.02,0-.03,.01-.52,.32-1.11,.47-1.67,.71-.23,.09-.46,.18-.67,.29-.24,.09-.46,.21-.62,.38-.95,1,.25,1.43,.85,1.52,1.04,.15,2,.08,2.94-.14,.82-.1,1.64-.34,2.25-.79,.07-.03,.14-.06,.22-.1,.14-.1,.28-.23,.41-.38,.25-.3,.43-.68,.48-.99Z"/>
              <path class="cls-3" d="M15.15,123.33c.89,.18,1.87,.28,2.79,.11,.09-.36,.17-.71,.26-1.07,0-.01,0-.03,.01-.04-1.09,.06-2.11,.09-3.18-.17-.82-.2-1.84-.5-2.45-1.15-.06,.38-.1,.77-.16,1.15,.78,.61,1.8,.97,2.73,1.16Z"/>
              <path class="cls-3" d="M17.17,126.5c.12-.47,.24-.94,.36-1.41-1.83,.17-3.77-.32-5.3-1.33-.07,.57-.13,1.15-.19,1.73,1.51,.88,3.42,1.31,5.13,1.02Z"/>
              <path class="cls-3" d="M15.1,129.93c.17,0,.71,0,1.27-.05,.11-.51,.23-1.03,.35-1.54-.45,.02-.87,.01-1.17,.02-1.25,.03-2.57-.09-3.71-.59-.04,.49-.07,.98-.1,1.46,1.01,.55,2.17,.72,3.36,.69Z"/>
              <path class="cls-3" d="M14.32,133.89c.38,0,.83,.04,1.28,.04,.1-.57,.2-1.15,.31-1.72-1.37,.39-2.91,.04-4.29-.58-.03,.62-.04,1.25-.06,1.87,.88,.31,1.85,.38,2.77,.39Z"/>
              <path class="cls-3" d="M15.16,136.9c.05-.43,.11-.85,.17-1.28-1.3,.12-2.64,.04-3.81-.35,0,.38,0,.76,0,1.13,1.12,.45,2.41,.62,3.64,.49Z"/>
              <path class="cls-21" d="M14.86,140.05c.02-.17,.02-.35,.04-.53,.03-.35,.06-.71,.09-1.06,.12-1.26,.28-2.52,.48-3.77,.19-1.24,.42-2.49,.66-3.71,.58-2.91,1.39-5.74,2.08-8.62,0-.01,0-.03,.01-.04-.78,.04-1.52,.07-2.27-.01-.65,2.7-1.22,5.42-1.63,8.16-.22,1.45-.41,2.9-.55,4.36-.13,1.35-.11,2.72-.25,4.07-.1,.99-.54,1.74-1.51,2.11-.74,.28-1.53,.37-2.31,.33-.63-.03-1.5-.2-1.68-.64-.1,.06-.2,.13-.28,.22-.95,1,.25,1.43,.85,1.52,1.04,.15,2,.08,2.94-.14,.82-.1,1.64-.34,2.25-.79,.07-.03,.14-.06,.22-.1,.14-.1,.28-.23,.41-.38,.25-.3,.43-.68,.48-.99Z"/>
              <g>
                <path class="cls-28" d="M15.35,141.28c.01-.43,0-.85-.1-1.26-.01-.01-.03-.02-.05-.03-.17-.04-.31,.04-.42,.18-.29,.37-.8,.7-1.26,.8,0,0,0,0-.02,0-.26-.5-.67-.93-1.1-1.25-.79-.59-1.57-.64-2.37-.21-.25,.08-.46,.27-.63,.46,0,0,0,0,0,0-.18,.07-.38,.17-.6,.28-1.08,.3-2.58,.64-3.18,1.61-.84,1.35,1.11,1.88,2.08,2.14,2.16,.58,5.62,.66,7.21-1.29,.16-.24,.31-.48,.43-.73,0-.24-.01-.47,0-.71Zm-5.85,.6c-.28-.02-2.36-.27-1.19-1.13,.39-.28,.82-.5,1.26-.68,1.16-.14,2.28,.53,2.94,1.49-.99,.34-1.95,.38-3.01,.31Z"/>
                <path class="cls-39" d="M9.81,139.8s.04,.01,.06,.02c0,0,.02,0,.02,0,.04,0,.09,0,.16,0,.16,0,.38,0,.54,.04,.48,.12,.86,.35,1.24,.66,.33,.27,.76,.56,.99,.95,.02,0,.02,.02,.02,.04,0,0,.01,.01,.01,.02,.09,.18,.17,.36,.24,.54,0,.13,.03,.25,.12,.35,.05,.05,.15,.07,.2,.01,.05-.05,.07-.11,.09-.17h0c.02-.09,.02-.19-.01-.29-.06-.71-.57-1.5-1.1-1.9-.83-.63-1.62-.86-2.58-.29,0,0-.01,0-.01,0Z"/>
                <path class="cls-39" d="M15.15,142.02c-.03-.38,.05-.77-.01-1.15-.03-.16-.05-.32-.09-.48-.06-.23-.12-.04-.22,.07-.3,.32-.81,.6-1.26,.67,.08,.17,.13,.34,.17,.52,.01,.42,0,1-.53,1.04-.06,0-.13-.02-.21-.06,0-.02-.02-.04-.02-.06-.08-.29-.21-.57-.37-.84-.84,.36-1.72,.45-2.64,.41-.74-.03-1.58-.03-2.18-.52-.42-.33,0-.75,.57-1.1-1.01,.3-2.34,.72-2.64,1.55-.5,1.37,2.26,1.81,3.05,1.94,2.07,.34,5.24,.27,6.34-1.93,.01-.02,.03-.04,.06-.06Z"/>
                <path class="cls-8" d="M6.14,141.94c.41-.43,.96-.72,1.55-.86,.12-.19,.37-.39,.66-.57-1.01,.3-2.34,.72-2.64,1.55-.09,.26-.07,.48,.03,.68,.05-.3,.19-.59,.4-.8Z"/>
                <path class="cls-14" d="M15.35,141.28c.01-.43,0-.85-.1-1.26-.01-.01-.03-.02-.05-.03-.17-.04-.31,.04-.42,.18-.29,.37-.8,.7-1.26,.8,0,0,0,0-.02,0-.26-.5-.67-.93-1.1-1.25-.6-.45-1.19-.58-1.79-.44,1.05,.13,2.06,.62,2.45,1.66,.05,.13-.08,.27-.21,.18-.65-.46-1.24-.9-1.99-1.17-.27-.1-.67-.27-1.05-.33-.16,.1-.3,.22-.41,.35,0,0,0,0,0,0-.18,.07-.38,.17-.6,.28-.2,.06-.42,.11-.64,.18-.62,.42-1.12,1.24-.17,1.61,.48,.19,.99,.3,1.5,.36,.63,.07,1.23,.04,1.86-.04,.19-.02,.62-.13,.8,0,.41,.28-.32,.79-.49,.93-.6,.49-1.39,.65-2.15,.74-.54,.06-1.19,.07-1.81-.03h0c2.16,.58,5.62,.66,7.21-1.29,.16-.24,.31-.48,.43-.73,0-.24-.01-.47,0-.71Zm-5.85,.6c-.28-.02-2.36-.27-1.19-1.13,.39-.28,.82-.5,1.26-.68,1.16-.14,2.28,.53,2.94,1.49-.99,.34-1.95,.38-3.01,.31Z"/>
              </g>
            </g>
            <path class="cls-33" d="M16.4,102.3c.34-1.51,.85-2.98,1.36-4.44,.38-1.08,.77-2.2,1.23-3.27-.44-.74-.77-1.54-.98-2.39l13.81,3.7-1.33,4.98c-.22-.04-.45-.08-.67-.12,0,.01-.01,.02-.03,.03-.56,.24-.85,.9-1.15,1.4-.41,.66-.79,1.34-1.15,2.03-.59,1.17-1.06,2.41-1.68,3.57,.1,.02,.19,.04,.29,.06-.07,.27-.14,.54-.21,.81-.08,.2-.15,.38-.17,.4-.24,.32-.69,.18-1.03,.11-1.27-.26-2.56-.68-3.76-1.15-1.81-.71-3.98-1.81-5.18-3.46,0,0,0,0,0,0-.03-.06-.07-.11-.1-.16,.05-.79,.22-1.55,.61-2.25,.06,.05,.11,.1,.16,.16Z"/>
            <path class="cls-12" d="M16.32,102.64s0,0,0,0c-.03-.03-.05-.06-.08-.09-.31,.51-.33,1.18-.44,1.76,1.07,1.5,2.99,2.5,4.6,3.21,.91,.4,1.85,.69,2.8,.96,.48,.14,.96,.28,1.45,.4,.74,.17,1.01-.23,1.22-.79-1.85-.35-3.66-1.34-5.27-2.25-1.41-.8-4.31-3.11-4.29-3.19Z"/>
            <path class="cls-12" d="M19.17,94.87c.27,.41,.56,.81,.88,1.19,0,0,.01,.01,.02,.02h0c-.17-.25-.29-.53-.45-.78-.28-.42-.53-.86-.67-1.35-.27-.53-.49-1.08-.64-1.67l13.52,3.63-1.25,4.68c-1.15-.21-2.29-.49-3.41-.84-.31-.04-.63-.08-.94-.13,.02,.03,.04,.06,.06,.07,1.01,.47,2.09,.77,3.18,1-.38,.22-.62,.62-.87,.99-.39,.58-.78,1.19-1.09,1.82-.68,1.35-1.5,2.76-1.9,4.24-1.8-.49-3.56-1.46-5.15-2.34-.77-.43-1.57-.85-2.23-1.43-.54-.47-1.07-.96-1.58-1.45,.5-1.54,.92-3.11,1.46-4.64,.35-1,.71-2,1.09-3Z"/>
            <path class="cls-11" d="M19.17,94.87c.27,.41,.56,.81,.88,1.19,0,0,.01,.01,.02,.02h0c-.17-.25-.29-.53-.45-.78-.28-.42-.53-.86-.67-1.35-.27-.53-.49-1.08-.64-1.67l6.34,1.7c.78,1.12,1.78,2.08,2.91,2.85,1.09,.74,2.29,1.36,3.54,1.82l-.52,1.93c-1.15-.21-2.29-.49-3.41-.84-.31-.04-.63-.08-.94-.13,.02,.03,.04,.06,.06,.07,1.01,.47,2.09,.77,3.18,1-.38,.22-.62,.62-.87,.99-.39,.58-.78,1.19-1.09,1.82-.68,1.35-1.5,2.76-1.9,4.24-1.8-.49-3.56-1.46-5.15-2.34-.77-.43-1.57-.85-2.23-1.43-.54-.47-1.07-.96-1.58-1.45,.5-1.54,.92-3.11,1.46-4.64,.35-1,.71-2,1.09-3Z"/>
            <path class="cls-19" d="M19.17,94.87c.27,.41,.56,.81,.88,1.19,0,0,.01,.01,.02,.02h0c-.17-.25-.29-.53-.45-.78-.28-.42-.53-.86-.67-1.35-.27-.53-.49-1.08-.64-1.67l4.76,1.28c1.66,2.61,4.19,4.54,7.1,5.73,.22,.09,.45,.18,.67,.26l-.28,1.04c-1.15-.21-2.29-.49-3.41-.84-.31-.04-.63-.08-.94-.13,.02,.03,.04,.06,.06,.07,1.01,.47,2.09,.77,3.18,1-.2,.12-.36,.28-.5,.46-2.8-.88-5.53-1.5-7.59-3.61-.12-.12,1.88,2.54,3.02,4.05-.75-.25-1.37-.81-2.05-1.2-.08-.05-.19,0-.21,.09-.45,1.66-1.03,3.3-1.81,4.83-.73-.4-1.47-.81-2.1-1.36-.54-.47-1.07-.96-1.58-1.45,.5-1.54,.92-3.11,1.46-4.64,.35-1,.71-2,1.09-3Z"/>
          </g>
          <g>
            <g>
              <path class="cls-2" d="M51.1,140.34s0,.02,0,.04c.32,.87,.73,1.31,1.62,1.59,.06,.02,.12,.03,.19,.05,.72,.32,1.46,.56,2.26,.65,.91,.1,2.68,.35,3.44-.37,.56-.53,.31-1.25-.32-1.64-.76-.46-1.62-.6-2.41-.98-.49-.31-.99-.59-1.1-1.31,.27-2.89,.19-5.83,.05-8.72-.16-3.16-.57-6.34-1.09-9.46-.99-6.02-2.46-12.03-4.95-17.62,0-.01-.02-.02-.03-.04,.08-.06-.09-.17-.15-.14-1.63,.79-3.44,1.21-5.08,2.01-.72,.35-1.63,.61-2.24,1.15-.29,.26,.12,.67,.28,.89,0,0,.02,.02,.03,.03,1.23,2.47,2.21,5.07,3.23,7.63,1.1,2.76,1.97,5.61,2.74,8.47,.77,2.85,1.5,5.71,2.06,8.61,.3,1.57,.63,3.13,.84,4.71,.2,1.46,.31,2.95,.59,4.39,0,.02,.02,.03,.03,.05,0,0,0,0,0,0Z"/>
              <path class="cls-9" d="M51.21,140.05c-.02-.17-.02-.35-.04-.53-.03-.35-.06-.71-.09-1.06-.12-1.26-.28-2.52-.48-3.77-.19-1.24-.42-2.49-.66-3.71-.58-2.91-1.39-5.74-2.08-8.62-.36-1.52-.87-3.01-1.35-4.5-.41-1.27-.83-2.54-1.36-3.77-1.09-2.56-2.08-5.15-3.38-7.61,.02-.01,.02-.04,0-.08-.29-.54-.2-.72,.37-1.01,.33-.17,.66-.33,1-.49,.64-.3,1.29-.58,1.95-.85,.62-.25,1.22-.54,1.85-.76,.57-.2,1.19-.36,1.69-.7,2.32,5.67,3.83,11.73,4.75,17.78,.85,5.56,1.23,11.1,1.15,16.7,.02,.41,.04,.82,.05,1.23,.13,.45,.38,.85,.76,1.22,.01,0,.02,0,.03,.01,.52,.32,1.11,.47,1.67,.71,.23,.09,.46,.18,.67,.29,.24,.09,.46,.21,.62,.38,.95,1-.25,1.43-.85,1.52-1.04,.15-2,.08-2.94-.14-.82-.1-1.63-.34-2.25-.79-.07-.03-.14-.06-.22-.1-.14-.1-.28-.23-.41-.38-.25-.3-.43-.68-.48-.99Z"/>
              <path class="cls-7" d="M52.27,115.67c-1.15-4.33-2.34-8.7-4.51-12.64,.31-.11,.62-.24,.89-.43,2.22,5.43,3.69,11.21,4.63,17-.32-1.31-.66-2.62-1.01-3.93Z"/>
              <path class="cls-10" d="M49.81,117.37c.95-.21,2-.56,2.86-1.12,.1,.5,.19,.99,.28,1.49-1.03,.43-2.41,.35-3.14-.37Z"/>
              <path class="cls-10" d="M51.21,140.05c-.02-.17-.02-.35-.04-.53-.03-.35-.06-.71-.09-1.06-.12-1.26-.28-2.52-.48-3.77-.19-1.24-.42-2.49-.66-3.71-.58-2.91-1.39-5.74-2.08-8.62-.36-1.52-.87-3.01-1.35-4.5-.41-1.27-.83-2.54-1.36-3.77-1.09-2.56-2.08-5.15-3.38-7.61,.02-.01,.02-.04,0-.08-.29-.54-.2-.72,.37-1.01,.33-.17,.66-.33,1-.49,.64-.3,1.29-.58,1.95-.85,.62-.25,1.22-.54,1.85-.76,.57-.2,1.19-.36,1.69-.7,.53,1.29,1.01,2.61,1.46,3.93-1.36,1.13-3.23,1.79-4.84,2.13-.08,.02-.11,.11-.09,.18,.8,2.55,2.1,4.93,2.71,7.54,.23,.97,.24,1.97,.41,2.95,.1,.55,.28,1.15,.75,1.51,1.04,.78,2.51,.69,3.72,.47,.23-.04,.48-.1,.74-.17,.77,5.3,1.12,10.59,1.04,15.94,.02,.41,.04,.82,.05,1.23,.13,.45,.38,.85,.76,1.22,.01,0,.02,0,.03,.01,.52,.32,1.11,.47,1.67,.71,.23,.09,.46,.18,.67,.29,.24,.09,.46,.21,.62,.38,.95,1-.25,1.43-.85,1.52-1.04,.15-2,.08-2.94-.14-.82-.1-1.63-.34-2.25-.79-.07-.03-.14-.06-.22-.1-.14-.1-.28-.23-.41-.38-.25-.3-.43-.68-.48-.99Z"/>
              <path class="cls-34" d="M51.1,140.34s0,.02,0,.04c.32,.87,.73,1.31,1.62,1.59,.06,.02,.12,.03,.19,.05,.72,.32,1.46,.56,2.26,.65,.91,.1,2.68,.35,3.44-.37,.56-.53,.31-1.25-.32-1.64-.76-.46-1.62-.6-2.41-.98-.49-.31-.99-.59-1.1-1.31,.27-2.89,.19-5.83,.05-8.72-.15-3.03-.54-6.07-1.02-9.07-.11-.01-.23,.05-.32,.14-.01,0-.02,.02-.03,.03,0,0,0,0,0,0,0,0,0,0,0,0-.04,.05-.08,.1-.14,.14-.02,.02-.05,.03-.08,.05-.73,.56-1.79,.86-2.63,1.03-.95,.2-1.85,.16-2.8,.11-.09,0-.18,.02-.26,.05-.04,.01-.06,.05-.06,.1,.03,.11,.06,.22,.09,.33,.77,2.85,1.5,5.71,2.06,8.61,.3,1.57,.63,3.13,.84,4.71,.2,1.46,.31,2.95,.59,4.39,0,.02,.02,.03,.03,.05,0,0,0,0,0,0Z"/>
              <path class="cls-31" d="M51.21,140.05c-.02-.17-.02-.35-.04-.53-.03-.35-.06-.71-.09-1.06-.12-1.26-.28-2.52-.48-3.77-.19-1.24-.42-2.49-.66-3.71-.58-2.91-1.39-5.74-2.08-8.62,0-.01,0-.03-.01-.04,1.09,.06,2.11,.09,3.18-.17,.82-.2,1.84-.5,2.45-1.15,.78,5.35,1.14,10.68,1.06,16.07,.02,.41,.04,.82,.05,1.23,.13,.45,.38,.85,.76,1.22,.01,0,.02,0,.03,.01,.52,.32,1.11,.47,1.67,.71,.23,.09,.46,.18,.67,.29,.24,.09,.46,.21,.62,.38,.95,1-.25,1.43-.85,1.52-1.04,.15-2,.08-2.94-.14-.82-.1-1.63-.34-2.25-.79-.07-.03-.14-.06-.22-.1-.14-.1-.28-.23-.41-.38-.25-.3-.43-.68-.48-.99Z"/>
              <path class="cls-3" d="M50.92,123.33c-.89,.18-1.87,.28-2.79,.11-.09-.36-.17-.71-.26-1.07,0-.01,0-.03-.01-.04,1.09,.06,2.11,.09,3.18-.17,.82-.2,1.84-.5,2.45-1.15,.06,.38,.1,.77,.16,1.15-.78,.61-1.8,.97-2.73,1.16Z"/>
              <path class="cls-3" d="M48.9,126.5c-.12-.47-.24-.94-.36-1.41,1.83,.17,3.77-.32,5.3-1.33,.07,.57,.13,1.15,.19,1.73-1.51,.88-3.42,1.31-5.13,1.02Z"/>
              <path class="cls-3" d="M50.98,129.93c-.17,0-.71,0-1.27-.05-.11-.51-.23-1.03-.35-1.54,.45,.02,.87,.01,1.17,.02,1.25,.03,2.57-.09,3.71-.59,.04,.49,.07,.98,.1,1.46-1.01,.55-2.17,.72-3.36,.69Z"/>
              <path class="cls-3" d="M51.76,133.89c-.38,0-.83,.04-1.28,.04-.1-.57-.2-1.15-.31-1.72,1.37,.39,2.91,.04,4.29-.58,.03,.62,.04,1.25,.06,1.87-.88,.31-1.85,.38-2.77,.39Z"/>
              <path class="cls-3" d="M50.91,136.9c-.05-.43-.11-.85-.17-1.28,1.3,.12,2.64,.04,3.81-.35,0,.38,0,.76,0,1.13-1.12,.45-2.41,.62-3.64,.49Z"/>
              <path class="cls-21" d="M51.21,140.05c-.02-.17-.02-.35-.04-.53-.03-.35-.06-.71-.09-1.06-.12-1.26-.28-2.52-.48-3.77-.19-1.24-.42-2.49-.66-3.71-.58-2.91-1.39-5.74-2.08-8.62,0-.01,0-.03-.01-.04,.78,.04,1.52,.07,2.27-.01,.65,2.7,1.22,5.42,1.63,8.16,.22,1.45,.41,2.9,.55,4.36,.13,1.35,.11,2.72,.25,4.07,.1,.99,.54,1.74,1.51,2.11,.74,.28,1.53,.37,2.31,.33,.63-.03,1.5-.2,1.68-.64,.1,.06,.2,.13,.28,.22,.95,1-.25,1.43-.85,1.52-1.04,.15-2,.08-2.94-.14-.82-.1-1.63-.34-2.25-.79-.07-.03-.14-.06-.22-.1-.14-.1-.28-.23-.41-.38-.25-.3-.43-.68-.48-.99Z"/>
              <g>
                <path class="cls-28" d="M50.72,141.99c.13,.25,.28,.49,.43,.73,1.59,1.95,5.05,1.87,7.21,1.29,.97-.26,2.92-.79,2.08-2.14-.6-.97-2.1-1.31-3.18-1.61-.21-.11-.42-.2-.6-.28,0,0,0,0,0,0-.16-.19-.38-.38-.63-.46-.8-.43-1.58-.38-2.37,.21-.42,.32-.84,.76-1.1,1.25,0,0-.01,0-.02,0-.46-.1-.97-.43-1.26-.8-.1-.13-.25-.21-.42-.18-.02,0-.03,.02-.05,.03-.09,.41-.11,.83-.1,1.26,0,.23,0,.47,0,.71Zm2.85-.43c.66-.96,1.78-1.64,2.94-1.49,.44,.18,.87,.4,1.26,.68,1.17,.86-.91,1.11-1.19,1.13-1.06,.06-2.02,.03-3.01-.31Z"/>
                <path class="cls-39" d="M56.26,139.8s-.04,.01-.06,.02c0,0-.02,0-.02,0-.04,0-.09,0-.16,0-.16,0-.38,0-.54,.04-.48,.12-.86,.35-1.24,.66-.33,.27-.76,.56-.99,.95-.02,0-.02,.02-.02,.04,0,0-.01,.01-.01,.02-.09,.18-.17,.36-.24,.54,0,.13-.03,.25-.12,.35-.05,.05-.15,.07-.2,.01-.05-.05-.07-.11-.09-.17h0c-.02-.09-.02-.19,.01-.29,.06-.71,.57-1.5,1.1-1.9,.83-.63,1.62-.86,2.58-.29,0,0,.01,0,.02,0Z"/>
                <path class="cls-39" d="M50.92,142.02c.03-.38-.05-.77,.01-1.15,.03-.16,.05-.32,.09-.48,.06-.23,.12-.04,.22,.07,.3,.32,.81,.6,1.26,.67-.08,.17-.13,.34-.17,.52-.01,.42,0,1,.53,1.04,.06,0,.14-.02,.21-.06,0-.02,.02-.04,.02-.06,.08-.29,.21-.57,.37-.84,.84,.36,1.72,.45,2.64,.41,.74-.03,1.58-.03,2.18-.52,.42-.33,0-.75-.57-1.1,1.01,.3,2.34,.72,2.64,1.55,.5,1.37-2.26,1.81-3.05,1.94-2.07,.34-5.24,.27-6.34-1.93-.01-.02-.03-.04-.06-.06Z"/>
                <path class="cls-8" d="M59.93,141.94c-.41-.43-.96-.72-1.55-.86-.12-.19-.37-.39-.66-.57,1.01,.3,2.34,.72,2.64,1.55,.09,.26,.07,.48-.03,.68-.05-.3-.19-.59-.4-.8Z"/>
                <path class="cls-14" d="M50.72,141.99c.13,.25,.28,.49,.43,.73,1.59,1.95,5.05,1.87,7.21,1.29h0c-.62,.1-1.27,.09-1.81,.03-.75-.08-1.55-.25-2.15-.74-.17-.14-.9-.66-.49-.93,.18-.12,.61-.02,.8,0,.63,.08,1.23,.11,1.86,.04,.51-.06,1.02-.17,1.5-.36,.94-.37,.44-1.19-.17-1.61-.22-.06-.44-.12-.64-.18-.21-.11-.42-.2-.6-.28,0,0,0,0,0,0-.11-.13-.25-.26-.41-.35-.38,.07-.78,.23-1.05,.33-.75,.27-1.34,.72-1.99,1.17-.13,.09-.26-.06-.21-.18,.39-1.03,1.4-1.52,2.44-1.66-.6-.15-1.19,0-1.79,.44-.42,.32-.84,.76-1.1,1.25,0,0-.01,0-.02,0-.46-.1-.97-.43-1.26-.8-.1-.13-.25-.21-.42-.18-.02,0-.03,.02-.05,.03-.09,.41-.11,.83-.1,1.26,0,.23,0,.47,0,.71Zm2.85-.43c.66-.96,1.78-1.64,2.94-1.49,.44,.18,.87,.4,1.26,.68,1.17,.86-.91,1.11-1.19,1.13-1.06,.06-2.02,.03-3.01-.31Z"/>
              </g>
            </g>
            <path class="cls-33" d="M49.68,102.3c-.34-1.51-.85-2.98-1.36-4.44-.38-1.08-.77-2.2-1.23-3.27,.44-.74,.77-1.54,.98-2.39l-13.81,3.7,1.33,4.98c.22-.04,.45-.08,.67-.12,0,.01,.01,.02,.03,.03,.56,.24,.85,.9,1.15,1.4,.41,.66,.8,1.34,1.15,2.03,.59,1.17,1.06,2.41,1.68,3.57-.1,.02-.19,.04-.29,.06,.07,.27,.14,.54,.21,.81,.08,.2,.15,.38,.17,.4,.24,.32,.69,.18,1.03,.11,1.27-.26,2.56-.68,3.77-1.15,1.81-.71,3.98-1.81,5.18-3.46,0,0,0,0,0,0,.03-.06,.07-.11,.1-.16-.05-.79-.22-1.55-.61-2.25-.06,.05-.11,.1-.16,.16Z"/>
            <path class="cls-12" d="M49.75,102.64s0,0,0,0c.03-.03,.05-.06,.08-.09,.31,.51,.33,1.18,.44,1.76-1.07,1.5-2.99,2.5-4.6,3.21-.91,.4-1.85,.69-2.8,.96-.48,.14-.96,.28-1.45,.4-.74,.17-1.01-.23-1.22-.79,1.85-.35,3.66-1.34,5.27-2.25,1.41-.8,4.31-3.11,4.29-3.19Z"/>
            <path class="cls-12" d="M46.91,94.87c-.27,.41-.56,.81-.88,1.19,0,0-.01,.01-.02,.02h0c.17-.25,.29-.53,.45-.78,.28-.42,.53-.86,.67-1.35,.27-.53,.49-1.08,.64-1.67l-13.52,3.63,1.25,4.68c1.15-.21,2.29-.49,3.41-.84,.31-.04,.63-.08,.94-.13-.02,.03-.04,.06-.06,.07-1.01,.47-2.09,.77-3.18,1,.38,.22,.62,.62,.87,.99,.39,.58,.78,1.19,1.09,1.82,.68,1.35,1.5,2.76,1.9,4.24,1.8-.49,3.56-1.46,5.15-2.34,.77-.43,1.57-.85,2.23-1.43,.54-.47,1.07-.96,1.58-1.45-.5-1.54-.92-3.11-1.46-4.64-.35-1-.71-2-1.09-3Z"/>
            <path class="cls-11" d="M46.91,94.87c-.27,.41-.56,.81-.88,1.19,0,0-.01,.01-.02,.02h0c.17-.25,.29-.53,.45-.78,.28-.42,.53-.86,.67-1.35,.27-.53,.49-1.08,.64-1.67l-6.34,1.7c-.78,1.12-1.78,2.08-2.91,2.85-1.09,.74-2.29,1.36-3.54,1.82l.52,1.93c1.15-.21,2.29-.49,3.41-.84,.31-.04,.63-.08,.94-.13-.02,.03-.04,.06-.06,.07-1.01,.47-2.09,.77-3.18,1,.38,.22,.62,.62,.87,.99,.39,.58,.78,1.19,1.09,1.82,.68,1.35,1.5,2.76,1.9,4.24,1.8-.49,3.56-1.46,5.15-2.34,.77-.43,1.57-.85,2.23-1.43,.54-.47,1.07-.96,1.58-1.45-.5-1.54-.92-3.11-1.46-4.64-.35-1-.71-2-1.09-3Z"/>
            <path class="cls-19" d="M46.91,94.87c-.27,.41-.56,.81-.88,1.19,0,0-.01,.01-.02,.02h0c.17-.25,.29-.53,.45-.78,.28-.42,.53-.86,.67-1.35,.27-.53,.49-1.08,.64-1.67l-4.76,1.28c-1.66,2.61-4.19,4.54-7.1,5.73-.22,.09-.45,.18-.67,.26l.28,1.04c1.15-.21,2.29-.49,3.41-.84,.31-.04,.63-.08,.94-.13-.02,.03-.04,.06-.06,.07-1.01,.47-2.09,.77-3.18,1,.2,.12,.36,.28,.5,.46,2.8-.88,5.53-1.5,7.59-3.61,.12-.12-1.88,2.54-3.02,4.05,.75-.25,1.37-.81,2.05-1.2,.08-.05,.19,0,.21,.09,.45,1.66,1.03,3.3,1.81,4.83,.73-.4,1.47-.81,2.1-1.36,.54-.47,1.07-.96,1.58-1.45-.5-1.54-.92-3.11-1.46-4.64-.35-1-.71-2-1.09-3Z"/>
          </g>
          <g>
            <path class="cls-2" d="M20.04,62.87c-.21-.5-.48-.96-.69-1.45-.45-1.07-.89-2.15-1.44-3.16-.12-.22-.24-.45-.41-.64-.06-.07-.17-.18-.28-.17,0-.03-.01-.06-.05-.04-1.84,1.19-3.64,2.44-5.31,3.86-1.67,1.42-3.22,2.99-4.52,4.76-.32,.44-.64,.89-.93,1.35-.28,.44-.52,.91-.62,1.43-.22,1.13,.05,2.3,.42,3.37,.75,2.15,2.15,3.99,3.75,5.58,.82,.82,1.71,1.56,2.65,2.25,.5,.37,1.01,.73,1.53,1.06,.49,.32,1.01,.57,1.53,.83,.15,.07,.29,.15,.43,.22,.13,.12,.29,.21,.48,.19,.2-.02,.38-.14,.51-.29,.36-.4,.55-.95,.7-1.45,.14-.48,.27-.98,.31-1.48,.08-.86-.16-1.65-.61-2.38-.25-.4-.52-.78-.79-1.17-.31-.44-.6-.9-.89-1.35-.57-.91-1.12-1.84-1.69-2.75-.36-.58-.73-1.17-1.13-1.73,.21-.01,.53-.23,.62-.29,.47-.28,.9-.61,1.34-.94,.4-.3,.79-.61,1.19-.92,.06-.05,.12-.09,.18-.14,.04-.03,.01,0,.04-.03,.09-.07,.18-.13,.27-.2,.42-.3,.83-.61,1.24-.93,.42-.32,.83-.64,1.26-.94,.28-.19,.58-.4,.79-.67,.59-.39,.36-1.25,.13-1.8Z"/>
            <path class="cls-9" d="M19.05,65.15c-.34,.24-.67,.48-1,.73-.64,.49-1.3,.94-1.94,1.41-.77,.58-1.52,1.19-2.32,1.74-.19,.13-.39,.26-.59,.37-.06,.04-.12,.07-.19,.09-.04,.01-.09,.04-.11,.03,0,0-.02,0-.03,0-.04-.06-.08-.11-.12-.17-.44-.6-.95-1.18-1.61-1.55-.72-.41-1.61-.52-2.39-.21-.38,.15-.74,.38-1.04,.66-.26,.25-.5,.55-.6,.89-.04,.13-.05,.27,0,.4,.01,.04,.09,0,.08-.04-.07-.34,.2-.67,.42-.91,.25-.27,.54-.49,.87-.66,.73-.39,1.6-.37,2.34,0,.63,.31,1.12,.83,1.55,1.38,.44,.56,.82,1.18,1.21,1.78,1.07,1.67,2.07,3.37,3.24,4.98,.47,.65,.94,1.34,1.07,2.16,.09,.59,0,1.18-.14,1.76-.12,.5-.27,1.01-.5,1.47-.14,.29-.42,.78-.81,.61-.1-.04-.2-.11-.28-.18-.02-.02-.05-.02-.08,0-.33-.19-.69-.35-1.03-.54-.52-.28-1-.62-1.48-.95-.96-.68-1.89-1.4-2.75-2.2-1.62-1.51-3.09-3.27-4-5.3-.22-.5-.41-1.02-.56-1.55-.16-.56-.28-1.14-.28-1.72,0-.56,.09-1.11,.34-1.62,.23-.47,.54-.91,.84-1.34,1.22-1.76,2.7-3.33,4.3-4.76,1.61-1.43,3.34-2.72,5.09-3.97,.21-.15,.41-.29,.62-.44,0,0,0,0,.02,0,.07,0,.15,.19,.18,.23,.11,.18,.21,.36,.31,.55,.27,.52,.51,1.06,.75,1.59,.22,.49,.43,.98,.64,1.48,.17,.4,.36,.78,.55,1.17,.17,.35,.34,.72,.42,1.1,.06,.29,.04,.55-.12,.77-.25,.29-.54,.53-.85,.75Z"/>
            <path class="cls-10" d="M20.02,63.63c-.07-.38-.24-.75-.42-1.1-.19-.39-.38-.77-.55-1.17-.21-.5-.42-.99-.64-1.48-.24-.54-.49-1.07-.75-1.59-.09-.19-.2-.37-.31-.55-.03-.05-.11-.23-.18-.23,0,0-.01,0-.02,0-.21,.14-.42,.29-.62,.44-.41,.29-.81,.58-1.21,.87-.14,.89-.16,1.8,.03,2.68,.12,.55,.27,1.11,.22,1.68-.04,.45-.24,.85-.5,1.21-.55,.75-1.29,1.37-2.04,1.91-.34,.25-.69,.5-1.06,.7-.42,.22-.89,.33-1.36,.4-.18,.03-.37,.05-.55,.08,.38,.05,.74,.17,1.08,.36,.65,.37,1.17,.95,1.61,1.55,.04,.05,.08,.11,.12,.17,.01,0,.02,0,.03,0,.02,0,.07-.02,.11-.03,.07-.02,.13-.06,.19-.09,.2-.12,.4-.24,.59-.37,.8-.55,1.54-1.16,2.32-1.74,.64-.48,1.3-.93,1.94-1.41,.33-.25,.66-.49,1-.73,.31-.22,.6-.46,.85-.75,.16-.22,.18-.48,.12-.77Z"/>
            <path class="cls-10" d="M16.82,76.1c-1.17-1.6-2.16-3.31-3.24-4.98-.39-.6-.77-1.21-1.21-1.78-.43-.55-.92-1.07-1.55-1.38-.74-.37-1.6-.38-2.34,0,0,0,0,0,0,0,.89,.02,1.79,.73,2.31,1.38,.43,.53,.81,1.11,1.18,1.69,.39,.61,.76,1.23,1.11,1.86,.34,.62,.67,1.26,.97,1.91,.29,.62,.56,1.24,.71,1.91,.16,.67,.22,1.37,.14,2.06-.06,.45-.22,.88-.42,1.29-.11,.24-.25,.47-.39,.7,.31,.21,.63,.42,.97,.6,.34,.18,.69,.34,1.03,.54,.03,0,.05,0,.08,0,.08,.07,.18,.14,.28,.18,.39,.17,.67-.33,.81-.61,.23-.46,.38-.97,.5-1.47,.14-.58,.23-1.17,.14-1.76-.12-.81-.59-1.51-1.07-2.16Z"/>
          </g>
          <path class="cls-1" d="M54.17,99.15c-.02-.06-.05-.12-.08-.18-.16-.3-.32-.6-.48-.9-.36-.66-.72-1.33-1.09-1.99-.36-.66-.75-1.3-1.14-1.94-.39-.64-.75-1.29-1.15-1.93-.22-.35-.45-.69-.69-1.03-.17-.25-.32-.54-.55-.74-.01-.6-.03-1.21-.06-1.81-.12-2.13-.26-4.26-.52-6.38-.27-2.13-.63-4.24-1.02-6.35-.39-2.07-.82-4.13-1.33-6.17-.29-1.16-.61-2.32-.97-3.47,.3-.28,.62-.55,.94-.81,.12-.12,.23-.24,.35-.36,.45-.45,.89-.92,1.3-1.4,.41-.47,.8-.96,1.18-1.45,.34-.45,.7-.9,.94-1.41,.09-.18,.17-.39,.16-.6,0,0,.01,.01,.02,.02-.01-.15-.06-.3-.14-.44-.07-.05-.14-.1-.2-.15-.27-.2-.55-.38-.82-.57-.35-.26-.68-.55-1.03-.81-.8-.59-1.61-1.17-2.42-1.74-1.52-1.06-3.16-1.97-4.88-2.66-1.6-.64-3.33-1.13-5.07-1.21-.24-.15-.49-.28-.74-.39-.64-.27-1.34-.42-2.03-.46-.68-.05-1.37,0-2.03,.14-.79,.16-1.58,.42-2.25,.87-.05,.04-.1,.07-.15,.11-.51,.03-1.02,.1-1.53,.2-.83,.15-1.64,.38-2.44,.63-.78,.25-1.55,.52-2.32,.8-.77,.28-1.55,.55-2.32,.85-.74,.3-1.47,.65-2.17,1.04-.34,.19-.68,.4-1.01,.62-.2,.13-.39,.29-.49,.52-.09,.21-.08,.44-.06,.66,.02,.37,.04,.73,.08,1.1,.09,.83,.26,1.65,.54,2.43,.3,.84,.69,1.65,1.15,2.42,.23,.38,.48,.72,.77,1.05,.25,.28,.52,.55,.76,.85-.25,.95-.48,1.91-.71,2.87-.27,1.13-.53,2.26-.77,3.4-.47,2.3-.74,4.63-.88,6.97-.14,2.36-.19,4.72-.08,7.08,.02,.53,.06,1.05,.1,1.58-1.68,2.23-3.84,4.02-5.68,6.11-.52,.59-1,1.2-1.44,1.85-.09,.13,.08,.18,.18,.12,.72-.43,1.53-.58,2.35-.4,.8,.18,1.55,.59,2.26,.99,1.4,.8,2.69,1.77,4.02,2.66,2.74,1.84,5.65,3.54,8.73,4.75,3.09,1.22,6.42,1.72,9.73,1.74,3.26,.02,6.51-.34,9.57-1.52,1.51-.58,2.95-1.34,4.31-2.23,1.17-.76,2.29-1.59,3.41-2.41-.02-.18-.07-.36-.09-.54Z"/>
          <path class="cls-32" d="M51.72,101.25c-1.36,.94-2.77,1.8-4.29,2.47-1.51,.66-3.08,1.15-4.7,1.45-1.63,.3-3.3,.4-4.96,.43-3.34,.05-6.72-.37-9.87-1.53-3.15-1.16-6.09-2.88-8.89-4.72-1.34-.88-2.62-1.86-4.01-2.68-1.25-.74-2.73-1.58-4.23-1.18-.21,.05-.4,.13-.59,.22,1.58-2.19,3.68-3.92,5.46-5.94,.43-.49,.83-1,1.2-1.54,.04,.58,.1,1.16,.16,1.74,.06,.57,.12,1.14,.22,1.71,.03,.19,.07,.38,.11,.58,.1,.35,.22,.69,.34,1.03-.07-.79-.26-1.56-.35-2.35-.13-1.2-.23-2.39-.29-3.6-.11-2.34-.1-4.69,.01-7.03,.11-2.33,.33-4.67,.75-6.97,.41-2.24,.96-4.46,1.49-6.67,.04-.16,.08-.32,.12-.48,.04-.23,.08-.47,.13-.7,.25-1.17,.64-2.31,1.03-3.44-.56,1.21-.97,2.5-1.31,3.78-.39-.47-.83-.9-1.17-1.42-.44-.66-.8-1.37-1.11-2.1-.31-.74-.53-1.49-.67-2.28-.07-.4-.12-.81-.15-1.21-.02-.3-.05-.6-.05-.9,0-.2,.06-.35,.21-.49,.25-.24,.59-.41,.89-.59,.67-.4,1.36-.75,2.08-1.05,.72-.31,1.47-.56,2.2-.83,.75-.27,1.5-.55,2.25-.8,.86-.29,1.74-.54,2.63-.74,.53-.12,1.06-.2,1.6-.26-.14,.12-.27,.25-.38,.4-.02,.03-.04,.05-.06,.08,.16-.13,.33-.24,.5-.34,.01-.01,.03-.02,.04-.04,.25-.21,.5-.38,.81-.48,.06-.02,.12-.04,.17-.05,.48-.22,1-.37,1.51-.47,1.24-.26,2.59-.22,3.8,.16,.19,.06,.39,.14,.57,.22,.25,.06,.5,.17,.73,.28,.09,.05,.18,.09,.27,.14-.08-.07-.15-.13-.24-.19,1.35,.17,2.68,.51,3.95,.97,1.7,.61,3.32,1.44,4.84,2.43,.77,.5,1.51,1.06,2.26,1.59,.4,.28,.81,.57,1.2,.87,.3,.23,.58,.47,.89,.68,.28,.19,.57,.38,.84,.59,0,0,0,0,.01,0,.03,.05,.06,.11,.07,.17,.06,.23-.08,.5-.18,.7-.25,.49-.6,.92-.94,1.35-.74,.93-1.51,1.84-2.35,2.68-.42,.41-.81,.85-1.2,1.28-.26-.83-.54-1.66-.84-2.48-.07-.2-.15-.4-.23-.6,.11,.51,.25,1.01,.4,1.51,.07,.22,.13,.44,.2,.65,.1,.34,.21,.67,.31,1.01,0,.02,.01,.04,.02,.06,0,0,0,0,0,0,.02,.06,.03,.11,.05,.17,.24,.84,.48,1.68,.69,2.53,.52,2.03,.97,4.08,1.36,6.14,.4,2.08,.74,4.17,1.03,6.27,.29,2.13,.48,4.27,.59,6.42,.06,1.07,.13,2.14,.13,3.21,0,.74,.02,1.49,0,2.23,.03,.38,.07,.76,.11,1.14,.18-.87,.13-1.77,.13-2.66,0-.36,0-.71,0-1.07,.1,.16,.19,.33,.29,.5,.18,.3,.39,.59,.57,.89,.39,.62,.74,1.26,1.11,1.89,.37,.61,.74,1.23,1.1,1.85,.36,.63,.7,1.28,1.05,1.92,.19,.35,.38,.7,.56,1.05,.12,.24,.34,.52,.32,.8-.76,.55-1.51,1.12-2.29,1.65Z"/>
          <path class="cls-6" d="M16.29,60.02c.11,.61,.27,1.2,.48,1.78-.09-.59-.14-1.18-.19-1.77-.03-.49-.09-1,.1-1.48,.19-.49,.6-.8,1.03-1.08,.5-.33,1.02-.62,1.56-.87,2.25-1.05,4.7-1.56,7.06-2.29,.06-.02,.12,.02,.14,.08,.37,1.21,1.03,2.34,1.93,3.23-.29-.41-.6-.79-.85-1.22-.3-.52-.51-1.13-.38-1.74,.11-.52,.47-.97,.85-1.33,.13-.13,.28-.25,.42-.36-.13,.08-.25,.17-.38,.27-.01,.01-.03,.02-.04,.04-.18,.1-.34,.22-.5,.34,.02-.03,.04-.06,.06-.08,.11-.14,.24-.28,.38-.4-.54,.07-1.07,.15-1.6,.26-.89,.19-1.76,.45-2.63,.74-.76,.25-1.51,.52-2.25,.8-.74,.27-1.48,.52-2.2,.83-.71,.31-1.41,.65-2.08,1.05-.3,.18-.64,.35-.89,.59-.15,.14-.2,.29-.21,.49,0,.3,.02,.6,.05,.9,.03,.41,.08,.81,.15,1.21Z"/>
          <path class="cls-6" d="M25.28,90.31c-.62-.93-1.21-1.88-1.7-2.88-.49-1.01-.88-2.08-1.22-3.15-.34-1.07-.62-2.15-.86-3.25-.46-2.17-.75-4.38-.93-6.59-.18-2.24-.22-4.5-.1-6.75,0-.07,0-.14,.01-.2-.05,.27-.09,.53-.13,.8-.38,2.38-.56,4.8-.51,7.22,.05,2.41,.29,4.84,.9,7.18,.31,1.18,.7,2.34,1.17,3.47,.4,.94,.91,1.84,1.46,2.71,1.04,1.62,2.33,3.22,3.97,4.27-.06-.1-.11-.2-.18-.29-.57-.89-1.31-1.65-1.89-2.53Z"/>
          <path class="cls-20" d="M53.69,98.8c-.18-.35-.37-.7-.56-1.05-.36-.64-.69-1.29-1.05-1.92-.36-.62-.73-1.23-1.1-1.85-.38-.63-.73-1.27-1.11-1.89-.19-.3-.39-.59-.57-.89-.1-.17-.19-.33-.29-.5,0,.36,0,.71,0,1.07,0,.89,.05,1.78-.13,2.66-.04-.38-.08-.76-.11-1.14,.03-.74,0-1.49,0-2.23,0-1.07-.08-2.14-.13-3.21-.11-2.15-.3-4.29-.59-6.42-.29-2.1-.63-4.19-1.03-6.27-.39-2.06-.84-4.11-1.36-6.14-.22-.85-.45-1.69-.69-2.53-.02-.06-.03-.11-.05-.17,0,0,0,0,0,0,0-.02-.01-.04-.02-.06-.1-.34-.2-.67-.31-1.01-.07-.22-.13-.44-.2-.65-.15-.5-.29-1-.4-1.51,.08,.2,.15,.4,.23,.6,.3,.82,.58,1.64,.84,2.48,.4-.43,.79-.87,1.2-1.28,.84-.84,1.61-1.75,2.35-2.68,.34-.43,.69-.86,.94-1.35,.1-.2,.24-.47,.18-.7-.01-.06-.04-.11-.07-.17,0,0,0,0-.01,0-.27-.21-.56-.39-.84-.59-.31-.21-.59-.46-.89-.68-.39-.3-.8-.58-1.2-.87-.75-.53-1.49-1.09-2.26-1.59-1.52-.99-3.14-1.82-4.84-2.43-1.27-.46-2.6-.8-3.95-.97,.08,.06,.16,.13,.24,.19-.09-.05-.18-.1-.27-.14-.22-.11-.47-.22-.73-.28-.19-.08-.38-.16-.57-.22-1.21-.39-2.56-.42-3.8-.16-.52,.11-1.03,.25-1.51,.47-.06,.02-.12,.03-.17,.05-.31,.1-.56,.27-.81,.48-.01,.01-.03,.02-.04,.04-.18,.1-.34,.22-.5,.34,.02-.03,.04-.06,.06-.08,.11-.14,.24-.28,.38-.4-.36,.04-.72,.1-1.08,.16-.01,.49,.04,.98,.16,1.46,.47,1.93,2.01,3.66,4.08,3.78,1.15,.07,2.29-.31,3.1-1.15,.79-.83,1.24-1.93,1.69-2.96,.03-.07,.13-.06,.17-.02,.22,.2,.43,.4,.64,.62,1.74,1.83,2.88,4.17,3.75,6.51,.92,2.48,1.61,5.09,2.03,7.7,.52,3.24,.61,6.53,.39,9.8-.2,2.93-.56,5.91-1.63,8.67-.89,2.31-2.26,4.36-3.79,6.29,1.57-.43,3.05-1.12,4.44-1.98,1.46-.91,2.83-1.96,4.22-2.97,.08-.06,.19,.04,.16,.12-.09,.24-.18,.48-.27,.71-.82,2.05-1.85,4.04-3.16,5.83-1.28,1.74-2.88,3.35-4.89,4.21-1.91,.82-3.96,.75-5.93,.16-2.14-.64-4.14-1.8-5.79-3.29-1.54-1.39-2.86-3.19-3.24-5.27-.02-.11,.1-.18,.18-.11,1.71,1.49,3.65,3.63,6.1,3.58-2.33-1.52-4.67-3.03-6.4-5.27-3.34-4.33-4-10.04-3.84-15.34,.17-5.55,1.28-11.07,3.1-16.31-.07,.12-.15,.23-.22,.35-.32,.51-.64,1.03-.97,1.54-.57,.89-1.14,1.8-1.84,2.59-.2,.23-.44,.5-.74,.61-.28,.11-.51-.08-.69-.29-.3-.34-.49-.78-.65-1.2-.22-.56-.38-1.14-.53-1.72-.17-.67-.31-1.36-.42-2.04,0,0,0,.01,0,.02,0,.3,.02,.6,.05,.9,.03,.41,.08,.81,.15,1.21,.14,.79,.36,1.54,.67,2.28,.3,.73,.67,1.44,1.11,2.1,.34,.51,.78,.95,1.17,1.42,.34-1.28,.75-2.57,1.31-3.78-.39,1.13-.78,2.27-1.03,3.44-.05,.23-.09,.47-.13,.7-.04,.16-.08,.32-.12,.48-.53,2.21-1.08,4.43-1.49,6.67-.42,2.3-.64,4.63-.75,6.97-.11,2.34-.12,4.69-.01,7.03,.06,1.2,.16,2.4,.29,3.6,.09,.78,.28,1.56,.35,2.35-.12-.34-.24-.68-.34-1.03-.04-.19-.07-.38-.11-.58-.1-.56-.16-1.14-.22-1.71-.06-.58-.12-1.16-.16-1.74-.37,.54-.77,1.05-1.2,1.54-1.77,2.02-3.88,3.75-5.46,5.94,.19-.09,.39-.17,.59-.22,1.5-.39,2.98,.44,4.23,1.18,1.38,.82,2.66,1.8,4.01,2.68,2.8,1.84,5.74,3.56,8.89,4.72,3.15,1.16,6.53,1.58,9.87,1.53,1.66-.02,3.33-.12,4.96-.43,1.62-.3,3.2-.79,4.7-1.45,1.52-.67,2.93-1.52,4.29-2.47,.77-.54,1.53-1.1,2.29-1.65,.03-.28-.19-.56-.32-.8Z"/>
          <path class="cls-20" d="M10.87,94.8c.68-.17,1.42-.11,2.1,0,.7,.12,1.41,.31,2.06,.6,2.27,1.02,4.37,2.43,6.29,4.02-.05-.05-.09-.11-.14-.16-1.32-1.51-2.69-2.98-4.16-4.35-.07-.07-.01-.18,.08-.19,.78-.03,1.53,.3,2.2,.67,.53,.3,1.04,.64,1.57,.95-.74-.89-1.37-1.88-1.88-2.93-1.08-2.2-1.67-4.61-1.99-7.03,.01,.31,.02,.62,.03,.93,.06,1.2,.16,2.4,.29,3.6,.09,.78,.28,1.56,.35,2.35-.12-.34-.24-.68-.34-1.03-.04-.19-.07-.38-.11-.58-.1-.56-.16-1.14-.22-1.71-.06-.58-.12-1.16-.16-1.74-.37,.54-.77,1.05-1.2,1.54-1.53,1.74-3.29,3.26-4.76,5.05Z"/>
          <path class="cls-20" d="M53.69,98.8c-.18-.35-.37-.7-.56-1.05-.36-.64-.69-1.29-1.05-1.92-.36-.62-.73-1.23-1.1-1.85-.38-.63-.73-1.27-1.11-1.89-.19-.3-.39-.59-.57-.89-.1-.17-.19-.33-.29-.5,0,.36,0,.71,0,1.07,0,.89,.05,1.78-.13,2.66-.04-.38-.08-.76-.11-1.14,.03-.74,0-1.49,0-2.23,0-1.07-.08-2.14-.13-3.21-.11-2.15-.3-4.29-.59-6.42-.29-2.1-.63-4.19-1.03-6.27-.39-2.06-.84-4.11-1.36-6.14-.22-.85-.45-1.69-.69-2.53-.02-.06-.03-.11-.05-.17,0,0,0,0,0,0,0-.02-.01-.04-.02-.06-.1-.34-.2-.67-.31-1.01-.07-.22-.13-.44-.2-.65-.15-.5-.29-1-.4-1.51,.08,.2,.15,.4,.23,.6,.3,.82,.58,1.64,.84,2.48,.4-.43,.79-.87,1.2-1.28,.84-.84,1.61-1.75,2.35-2.68,.34-.43,.69-.86,.94-1.35,.1-.2,.24-.47,.18-.7-.01-.06-.04-.11-.07-.17,0,0,0,0-.01,0-.27-.21-.56-.39-.84-.59-.31-.21-.59-.46-.89-.68-.21-.16-.42-.31-.63-.46,.02,.02,.04,.05,.06,.07,.35,.44,.66,.91,.88,1.43,.23,.53,.16,1.09-.08,1.6-.54,1.13-1.71,1.94-2.73,2.6-.05,.03-.12,.01-.15-.04-1.47-2.52-2.76-5.33-5.08-7.19,.09,.22,.18,.45,.27,.67,.55,1.28,1.2,2.51,1.72,3.81,.57,1.4,.95,2.89,1.33,4.35,.8,3.04,1.45,6.13,2.07,9.21,.61,3.07,1.18,6.17,1.43,9.3,.19,2.42,.35,4.88,.24,7.31-.08,1.84-.32,3.79-1.09,5.49,.64-.71,1.17-1.53,1.61-2.36,.05-.1,.2-.05,.21,.06,0,.18,0,.37,0,.55-.1,1.56-.86,3-1.81,4.21-.97,1.24-2.17,2.31-3.48,3.19-.72,.49-1.47,.93-2.22,1.37-.82,.48-1.67,.93-2.56,1.29-.4,.16-.82,.3-1.24,.43,.37,0,.73,0,1.1,0,1.66-.02,3.33-.12,4.96-.43,1.62-.3,3.2-.79,4.7-1.45,1.52-.67,2.93-1.52,4.29-2.47,.77-.54,1.53-1.1,2.29-1.65,.03-.28-.19-.56-.32-.8Z"/>
          <g>
            <path class="cls-2" d="M35.23,49.13c.05-.11,.05-.14,.05-.25,0-.03-.02-.06-.05-.07-.31-.08-.79,.03-1.07,.11-.67,.19-1.34,.31-2.01,.46-.65,.14-1.29,.32-1.95,.43-.54,.1-1.11,.29-1.65,.33-.12,0-.27,.26-.13,.27-.03,.02-.05,.05-.05,.08,.04,1.66-.29,3.58,.33,5.15,.51,1.32,1.79,2.32,3.23,1.97,1.39-.33,2.19-1.68,2.54-2.95,.26-.93,.35-1.92,.48-2.87,.11-.84,.25-1.74,.23-2.6,.03-.02,.05-.04,.05-.06Z"/>
            <path class="cls-9" d="M34.4,53.65c-.25,1.63-.89,3.45-2.76,3.74-1.46,.23-2.52-1.33-2.86-2.54-.2-.72-.16-1.54-.16-2.28,0-.72-.06-1.43-.12-2.15,0,0,0,0,0-.01,.94-.07,1.94-.36,2.86-.58,.57-.14,1.15-.24,1.73-.35,.12-.02,1.47-.39,1.84-.35-.21,1.5-.3,3.01-.53,4.51Z"/>
            <path class="cls-10" d="M28.62,52.57s0,.09,0,.14c.17,.05,.34,.09,.51,.12,1.49,.28,3.05,.06,4.48-.4,.33-.11,.66-.23,.98-.37,.11-.98,.19-1.95,.33-2.93-.37-.04-1.72,.33-1.84,.35-.58,.11-1.16,.22-1.73,.35-.91,.22-1.92,.51-2.86,.58,0,0,0,0,0,.01,.05,.71,.11,1.43,.12,2.15Z"/>
          </g>
          <g>
            <path class="cls-37" d="M18.68,49.04c-.98-1.28-2.11-2.46-3.01-3.8-.91-1.34-1.63-2.83-2.18-4.35-.55-1.52-.98-3.11-1.14-4.72-.18-1.73-.04-3.5,.35-5.2,.37-1.59,1.05-3.08,1.7-4.58,.64-1.49,1.18-3.01,1.47-4.6,.3-1.63,.36-3.29,.24-4.94-.06-.85-.17-1.69-.33-2.53-.13-.69-.28-1.38-.52-2.04-.2-.57-.49-1.14-1-1.49-.47-.32-1.04-.44-1.6-.36-1.16,.16-2.21,1.03-2.81,2-.15,.23-.28,.47-.39,.72-.24,.53-.41,1.08-.58,1.63-.2,.66-.36,1.32-.42,2.01-.06,.73-.03,1.48,.08,2.2,.18,1.09,.71,2.01,1.51,2.76,.41,.38,.86,.71,1.31,1.04,.24,.18,.46,.41,.53,.71,.06,.25-.02,.51-.13,.74-.26,.52-.7,.94-1.1,1.36-.5,.52-1.02,1.02-1.54,1.51-1.02,.97-2.08,1.9-3.09,2.88-1.73,1.67-3.31,3.51-4.52,5.59-1.01,1.74-2.03,4.06-1.22,6.07,.09,.23,.21,.45,.35,.66,.06,.09,.21,.02,.25-.05,.08-.15,.15-.3,.21-.45,.06-.08,.12-.16,.18-.25,.15-.22,.28-.46,.4-.7,.17-.34,.35-.68,.51-1.03-.01,.11-.03,.22-.03,.33-.04,.72,.09,1.44,.38,2.1,.19,.43,.44,.81,.72,1.19,.29,.4,.6,.78,.95,1.13,.29,.29,.61,.59,1,.72,.31,.1,.62,.03,.74-.29,.14-.38,.11-.85,.09-1.25-.02-.49-.06-.96,0-1.44,0,0,0-.01,0-.02,.04,1.66,.73,3.29,1.98,4.49,1.05,1.01,2.43,1.75,3.79,2.25,1.14,.42,2.34,.63,3.55,.73,.62,.05,1.25,.07,1.87,0,.5-.06,1.05-.2,1.41-.58,.04-.04,.07-.11,.03-.16Z"/>
            <path class="cls-5" d="M17.25,49.65c-.53,.07-1.07,.05-1.6,.01-1.11-.08-2.23-.25-3.29-.6-1.35-.45-2.68-1.13-3.78-2.05-.96-.8-1.67-1.88-2.02-3.08-.16-.56-.24-1.13-.24-1.7-.03-.2-.04-.41-.04-.62,0-.49,.03-.97,.11-1.45-.4,.99-.72,2.09-.67,3.15,.02,.43,.05,.85,.03,1.28,0,.17-.02,.35-.08,.51-.04,.1-.09,.1-.21,.08-.36-.06-.69-.37-.94-.62-.34-.32-.63-.69-.91-1.06-.66-.89-1.16-1.86-1.18-3,0-.84,.2-1.66,.49-2.44-.19,.29-.37,.59-.55,.89-.01,.05-.03,.09-.04,.14-.04,.08-.07,.16-.11,.24-.09,.19-.19,.37-.28,.56-.04,.09-.09,.17-.13,.26-.26,.63-.57,1.24-.9,1.83-.04,.08-.14,.06-.19,0-.07-.09-.1-.2-.11-.31-.76-1.77,.03-3.88,.91-5.48,1.12-2.05,2.63-3.88,4.28-5.52,.99-.98,2.03-1.91,3.06-2.86,.51-.47,1.02-.95,1.51-1.43,.45-.44,.91-.89,1.31-1.38,.3-.37,.6-.83,.57-1.33-.03-.58-.51-.9-.94-1.21-.84-.63-1.64-1.32-2.09-2.3-.26-.58-.38-1.22-.43-1.85-.07-.75-.04-1.51,.09-2.25,.11-.61,.29-1.2,.47-1.79,.09-.3,.19-.59,.31-.88,.07,0,.16-.04,.19-.11,.38-1.06,1.38-2.01,2.45-2.34,.55-.17,1.15-.15,1.65,.14,.55,.32,.85,.87,1.06,1.45,.22,.62,.36,1.28,.49,1.92,.17,.85,.28,1.7,.34,2.56,.12,1.62,.06,3.25-.23,4.84-.28,1.57-.81,3.07-1.44,4.53-.63,1.46-1.31,2.91-1.7,4.46-.41,1.6-.59,3.28-.49,4.93,.09,1.57,.44,3.13,.92,4.62,.48,1.49,1.12,2.94,1.91,4.3,.8,1.36,1.82,2.54,2.82,3.75,.23,.28,.46,.56,.67,.84-.29,.24-.71,.32-1.08,.37Z"/>
            <g>
              <path class="cls-4" d="M.79,38.33c.43-1.4,1.24-2.66,2.13-3.82,.98-1.29,2.09-2.48,3.17-3.68,.7-.77,1.41-1.55,2.07-2.36-.79,.73-1.59,1.45-2.35,2.21-1.65,1.64-3.16,3.47-4.28,5.52-.88,1.61-1.67,3.71-.91,5.48,.01,.11,.04,.21,.11,.31,.01,.02,.03,.03,.06,.04-.38-1.21-.36-2.49,.01-3.7Z"/>
              <path class="cls-4" d="M7.07,35.8c-.06-.53-.07-1.06-.03-1.6-.4,1.69-.22,3.51,.33,5.15,.57,1.7,1.59,3.34,3.03,4.45-.47-.73-.92-1.47-1.32-2.23-.96-1.79-1.77-3.73-2-5.77Z"/>
              <path class="cls-4" d="M3.8,38.57c-.04,1.46,.25,2.97,.99,4.24-.07-.73-.14-1.47-.19-2.2-.1-1.68-.1-3.4,.32-5.04,.2-.78,.5-1.55,.95-2.23,.05-.07,.1-.14,.15-.21-.25,.23-.47,.48-.68,.76-1,1.34-1.48,3.03-1.53,4.69Z"/>
            </g>
            <path class="cls-15" d="M17.65,48.44c-1-1.21-2.02-2.39-2.82-3.75-.79-1.35-1.43-2.8-1.91-4.3-.48-1.5-.83-3.05-.92-4.62-.1-1.65,.08-3.33,.49-4.93,.39-1.55,1.07-2.99,1.7-4.46,.63-1.46,1.15-2.96,1.44-4.53,.29-1.6,.35-3.23,.23-4.84-.06-.86-.18-1.72-.34-2.56-.13-.65-.27-1.3-.49-1.92-.21-.58-.51-1.13-1.06-1.45-.51-.29-1.1-.31-1.65-.14-1.07,.33-2.07,1.28-2.45,2.34-.03,.07-.12,.12-.19,.11-.12,.29-.22,.58-.31,.88-.19,.59-.37,1.18-.47,1.79-.13,.74-.16,1.5-.09,2.25,.06,.63,.17,1.27,.43,1.85,.44,.97,1.25,1.67,2.09,2.3,.42,.32,.9,.64,.94,1.21,.03,.5-.28,.96-.57,1.33-.39,.49-.86,.94-1.31,1.38-.49,.49-1,.96-1.51,1.43-1.03,.95-2.07,1.88-3.06,2.86-.16,.16-.32,.33-.48,.49,.09-.07,.17-.14,.26-.21,2.16-1.71,4.43-3.28,6.54-5.05,.09-.07,.25,.03,.17,.13-.91,1.19-1.82,2.37-2.62,3.63-.71,1.12-1.31,2.31-1.68,3.59-.39,1.35-.46,2.75-.3,4.15,.17,1.47,.59,2.94,1.37,4.2,.74,1.19,1.69,2.23,2.44,3.41,.07,.1-.06,.19-.15,.15-.83-.36-1.58-.87-2.22-1.51-1.08-1.09-1.78-2.51-2.19-3.98-.36-1.29-.53-2.64-.57-3.98-.15,.44-.29,.87-.42,1.31-.33,1.12-.6,2.26-.69,3.42-.09,1.17,.01,2.35,.33,3.48,.03,.1-.11,.19-.18,.11-.68-.78-1.19-1.7-1.47-2.7-.48-1.71-.28-3.54,.35-5.18,.55-1.44,1.42-2.77,2.52-3.87-.85,.48-1.62,1.1-2.31,1.8-1.6,1.64-2.8,3.77-3.19,6.04-.08,.43-.12,.88-.13,1.32,.22-.42,.43-.86,.61-1.3,.04-.09,.09-.17,.13-.26,.09-.19,.19-.37,.28-.56,.04-.08,.07-.16,.11-.24,.01-.05,.03-.09,.04-.14,.18-.3,.36-.6,.55-.89-.29,.79-.5,1.6-.49,2.44,.01,1.14,.51,2.11,1.18,3,.28,.37,.58,.74,.91,1.06,.25,.24,.58,.56,.94,.62,.12,.02,.16,.02,.21-.08,.07-.16,.07-.34,.08-.51,.02-.43,0-.86-.03-1.28-.05-1.07,.27-2.16,.67-3.15-.08,.48-.12,.96-.11,1.45,0,.21,.02,.41,.04,.62,0,.57,.07,1.14,.24,1.7,.35,1.2,1.06,2.28,2.02,3.08,1.1,.92,2.43,1.6,3.78,2.05,1.06,.35,2.18,.52,3.29,.6,.53,.04,1.07,.05,1.6-.01,.37-.05,.78-.12,1.08-.37-.22-.29-.44-.57-.67-.84Z"/>
            <path class="cls-2" d="M55.56,28.74c-.49-.85-1.38-1.43-2.32-1.67-1.11-.28-2.18-.01-3.07,.57,.25-1.72-.04-3.41-.41-5.09-.31-1.42-.71-2.82-1.21-4.19-.96-2.63-2.32-5.12-4.1-7.28-1.77-2.15-4.03-3.88-6.6-4.97-3.17-1.34-6.74-1.62-10.13-1.36-2.12,.16-4.17,.6-6.15,1.29,0-.01-.01-.02-.04-.01-1.18,.39-2.34,.83-3.43,1.42-.32,.24-.62,.5-.9,.79,.4-.26,.81-.51,1.23-.74-.86,.63-1.52,1.57-2.09,2.44-.82,1.25-1.32,2.62-1.6,4.08-.32,1.67-.35,3.34-.26,5.03,.05,.88,.13,1.75,.05,2.63-.07,.83-.26,1.64-.47,2.44-.42,1.58-.97,3.1-1.65,4.6-.55,1.22-1.14,2.42-1.68,3.64-.39,1.2-.56,2.45-.6,3.7,.01,.8,.11,1.61,.28,2.39,.44,1.98,1.24,3.89,2.36,5.57,.05,.07,.1,.14,.14,.2,.1,.16,.2,.32,.31,.47,.22,.27,.44,.53,.67,.79,1.07,1.22,2.26,2.34,3.6,3.26,.95,.66,1.96,1.21,2.99,1.72,.94,.36,1.91,.66,2.88,.93,.37,.1,.74,.19,1.11,.28,.73,.07,1.45,.14,2.18,.23,.79,.1,1.58,.15,2.38,.14,1.04-.02,2.07-.14,3.09-.36,1.54-.37,3.04-.96,4.46-1.75,2.75-1.54,5.04-3.72,6.79-6.33,1.15-1.71,2.15-3.56,2.95-5.48,.62,.62,1.81,.54,2.6,.47,1.08-.1,2.09-.6,2.97-1.2,.95-.64,1.69-1.5,2.33-2.44,.64-.95,1.26-2.04,1.57-3.15,.29-1.03,.33-2.11-.22-3.06Z"/>
            <path class="cls-9" d="M55.35,32.23c-.67,1.83-1.84,3.65-3.42,4.82-.84,.63-1.84,1.07-2.88,1.21-.81,.11-2.01,.13-2.59-.53,.45-1.14,.82-2.3,1.1-3.48,.19-.8,.35-1.62,.45-2.44-.18,.47-.36,.94-.54,1.41-.23,1.15-.48,2.29-.87,3.41-.6,1.74-1.42,3.4-2.32,5-1.72,3.07-3.94,5.65-6.92,7.56-2.74,1.75-5.8,2.63-9.02,2.69-.77-.08-1.54-.15-2.31-.24-.23-.07-.47-.09-.7-.12-.2-.02-.4-.05-.6-.07-.72-.13-1.43-.3-2.13-.53-1.77-.56-3.43-1.38-4.95-2.44-1.57-1.09-3.03-2.41-4.18-3.94-1.19-1.6-2.07-3.43-2.61-5.34-.09-.3-.16-.6-.23-.9-.07-.42-.15-.84-.2-1.27-.06-.49-.08-.98-.07-1.47,.02-.95,.15-1.88,.42-2.78,0-.03,.02-.06,.03-.09,1.06-2.43,2.36-4.77,3.13-7.32,.46-1.51,.89-3.09,.87-4.68-.01-.87-.1-1.73-.13-2.6-.03-.86-.02-1.73,.07-2.59,.16-1.5,.46-3.03,1.12-4.4,.29-.6,.66-1.15,1.03-1.7,.39-.58,.83-1.15,1.34-1.63,.25-.23,.52-.44,.82-.6,.02,0,.03-.03,.03-.04,.1-.05,.21-.1,.31-.15,3.24-1.34,6.74-1.98,10.24-2.01,3.4-.03,6.85,.65,9.82,2.35,5.06,2.89,8.1,8.38,9.59,13.86,.58,2.12,1.1,4.4,.79,6.6,0,.02,0,.04,0,.05-.62,.47-1.13,1.09-1.48,1.79-.06,.13,.11,.11,.16,.02,.46-.84,1-1.45,1.85-1.92,.9-.5,2-.57,2.96-.26,.83,.27,1.53,.89,1.96,1.64,.55,.95,.37,2.13,.01,3.11Z"/>
            <path class="cls-3" d="M13.13,43.59c-1.17-1.69-2.05-3.6-2.26-5.66-.12-1.12-.02-2.24,.25-3.34,.28-1.15,.71-2.25,1.17-3.33,.47-1.1,.98-2.19,1.42-3.3,.47-1.2,.8-2.43,.94-3.72,.07-.64,.09-1.28,.08-1.92-.16,1.03-.45,2.05-.75,3.04-.77,2.55-2.07,4.89-3.13,7.32,0,.03-.02,.06-.03,.09-.27,.91-.41,1.84-.42,2.78,0,.49,.01,.98,.07,1.47,.05,.43,.13,.84,.2,1.27,.07,.3,.14,.6,.23,.9,.55,1.92,1.42,3.75,2.61,5.34,.89,1.2,1.98,2.26,3.16,3.19-1.26-1.3-2.5-2.64-3.53-4.14Z"/>
            <path class="cls-10" d="M34.39,50.43c-2.75,.65-5.62,.77-8.42,.38-1.43-.2-2.83-.52-4.18-1.02-1.35-.5-2.64-1.15-3.84-1.95-1.22-.81-2.35-1.77-3.34-2.86-1.01-1.11-1.84-2.4-2.51-3.75-.71-1.43-1.23-2.94-1.66-4.48,0,.09,.02,.17,.03,.26,.05,.43,.13,.84,.2,1.27,.07,.3,.14,.6,.23,.9,.55,1.92,1.42,3.75,2.61,5.34,1.14,1.53,2.61,2.85,4.18,3.94,1.52,1.06,3.18,1.88,4.95,2.44,.7,.22,1.41,.39,2.13,.53,.2,.02,.4,.05,.6,.07,.23,.03,.48,.05,.7,.12,.77,.09,1.54,.16,2.31,.24,2.65-.05,5.19-.66,7.53-1.85-.5,.16-1,.29-1.5,.41Z"/>
            <path class="cls-10" d="M54.21,30.56c-.27-.39-.69-.63-1.14-.73-.56-.13-1.17-.12-1.71,.08-1.03,.39-1.61,1.43-1.98,2.4-.39,1.02-.59,2.1-.88,3.15-.03,.11-.17,.09-.21,0-.33-.8-.44-1.68-.37-2.53,.13-1.6,.81-3.16,1.84-4.38,.31-.36,.66-.7,1.03-.99-.13,.05-.25,.11-.38,.18-.85,.47-1.39,1.08-1.85,1.92-.05,.08-.22,.1-.16-.02,.35-.69,.86-1.32,1.48-1.79,0-.01,0-.03,0-.05,.31-2.21-.21-4.48-.79-6.6-1.49-5.48-4.53-10.97-9.59-13.86-2.97-1.7-6.42-2.38-9.82-2.35-3.5,.02-7,.67-10.24,2.01-.1,.05-.21,.1-.31,.15,0,.02-.01,.03-.03,.04-.3,.16-.57,.36-.82,.6-.51,.48-.94,1.05-1.34,1.63-.37,.55-.74,1.1-1.03,1.7-.66,1.37-.96,2.9-1.12,4.4-.09,.86-.1,1.72-.07,2.59,.03,.87,.12,1.73,.13,2.6,0,0,0,.01,0,.02,.04-.03,.09-.03,.14,0,.55,.45,1.07,.93,1.61,1.39,.47,.4,.96,.78,1.51,1.07,.59,.32,1.22,.52,1.88,.63,1.4,.24,2.89,.35,4.26-.08-.66-.8-1.11-1.77-1.4-2.75-.31-1.03-.48-2.16-.27-3.23,.02-.1,.16-.1,.2-.03,.58,.94,.74,2.06,1.45,2.93,1.17,1.41,2.85,2.44,4.57,3.04,1.69,.59,3.6,.9,5.36,.47-.45-.77-1.01-1.48-1.33-2.32-.03-.08,.06-.16,.14-.14,.5,.14,.87,.5,1.22,.87,.18,.19,.35,.38,.53,.55,.22,.2,.47,.36,.73,.5,1.17,.65,2.47,1.01,3.66,1.62,1.27,.65,2.42,1.53,3.2,2.7,.57,.64,.98,1.42,1.26,2.23,.54,1.59,.64,3.33,.51,5-.12,1.53-.42,3.11-1.08,4.51-.94,2.01-2.46,3.78-4.21,5.12-.48,.37-1,.71-1.54,1.02,.8,.63,1.7,1.11,2.66,1.42,1.76-1.6,3.2-3.5,4.4-5.63,.9-1.6,1.72-3.26,2.32-5,.39-1.12,.64-2.26,.87-3.41,.18-.47,.36-.94,.54-1.41-.1,.82-.26,1.64-.45,2.44-.28,1.18-.65,2.34-1.1,3.48,.58,.66,1.77,.64,2.59,.53,1.04-.14,2.04-.58,2.88-1.21,.97-.72,1.78-1.68,2.42-2.75,.07-.3,.14-.6,.19-.91,.15-.91,.22-2.03-.34-2.83Z"/>
            <path class="cls-2" d="M53.03,30c-.95-.38-1.82,.38-2.43,.99-.79,.8-1.28,1.68-1.56,2.77-.16,.6-.29,1.21-.34,1.83-.02,.28-.08,.58,.24,.68,.08,.03,.25-.14,.16-.21-.34-.26-.11-1.2,.05-1.8,.11-.06,.36,0,.48,0,.24,.01,.53-.09,.75-.18,.62-.23,1.11-.66,1.65-1.03,.1-.07,.07-.23-.06-.14-.58,.39-1.12,.82-1.81,1.02-.24,.07-.64-.01-.9,.06,0,0-.02,0-.03,0,0,0,0,0,0,0,.01-.05,.03-.09,.03-.13,.21-.86,.52-1.63,1.1-2.31,.58-.68,1.22-1.37,2.18-1.34,1.03,.02,1.12,1.01,.95,1.77-.03,.16,.19,.03,.21-.06,.21-.8,.2-1.57-.67-1.92Z"/>
            <g>
              <path class="cls-10" d="M23.79,39.45c-.76-.21-1.6-.68-1.98-1.39,.03,1.36,.54,2.98,1.82,3.38,1.82,.57,3.33-1.42,3.12-3.11-.74,.89-1.75,1.45-2.97,1.12Z"/>
              <path class="cls-10" d="M15.6,33.99c-.35-.18-.7-.36-1.07-.51,1.1,1.31,2.81,2.19,4.54,2.01,2.26-.24,3.34-2.03,3.61-4.14,.18-1.39,.18-2.81-.07-4.19-.23-1.24-.58-2.64-1.51-3.55-.96-.94-2.4-1.24-3.51-.37-.77,.6-1.56,1.57-1.54,2.6,.71-.61,1.52-1.04,2.47-1.17,.92-.13,1.89-.08,2.27,.9,.04,.09-.02,.17-.12,.18-1.92,.09-3.22,1.38-4.01,3.03-.71,1.48-1.5,3.4-.93,5.05,.03,.09-.04,.23-.15,.17Z"/>
              <path class="cls-10" d="M36.64,36.69c-.1,0-.2-.09-.13-.19,2.07-2.64,2.86-10.33-2.26-9.77-.09,.01-.21-.1-.13-.19,1.43-1.66,4.08-1.79,5.6-.25-.11-.37-.26-.72-.42-1.06-.69-.79-1.53-1.53-2.55-1.76-1.45-.32-3.02,.3-4.17,1.18-1.83,1.39-2.85,3.47-3.4,5.65,.71-.89,1.45-1.76,2.42-2.38,0,0,0,0,0,0h0s.02-.01,.03-.02c.12-.08,.24,.11,.14,.2-1.07,.95-1.69,2.39-2.01,3.75-.34,1.43-.49,3.11,.12,4.49,.35,.8,.89,1.41,1.73,1.7,.44,.15,.94,.32,1.41,.3,.57-.02,1.07-.26,1.57-.52,1.44-.75,3.11-.96,4.66-.49-.69-.65-1.66-.72-2.61-.65Z"/>
              <path class="cls-37" d="M22.55,25.52c-.13-.56-.33-1.06-.58-1.57-.49-1-1.03-1.69-2.14-1.98-.82-.22-1.69,.01-2.22,.7-.5,.65-1.05,1.68-.98,2.53,0,.06,.06,.05,.1,.01,.05,.01,.15-.04,.18-.1,.52-1.04,2.34-1.11,3.29-.77,.53,.19,1.02,.61,1.41,1.02,.49,.54,.64,1.25,.96,1.88,.06,.12,.25-.06,.24-.15-.1-.52-.12-1.05-.25-1.56Z"/>
              <path class="cls-5" d="M19.79,23.95c-.99-.17-2.44,.07-3,1.01,.03-.74,.49-1.56,.9-2.14,.66-.94,1.99-.82,2.88-.28,.71,.44,1.05,1.31,1.39,2.03,.24,.51,.35,1.05,.44,1.6-.18-.41-.38-.81-.7-1.16-.52-.56-1.16-.94-1.9-1.07Z"/>
              <path class="cls-15" d="M17.86,23.17c.62-.34,1.32-.46,2.01-.28,.59,.15,1.1,.52,1.5,.97,.29,.33,.53,.69,.74,1.08-.04-.12-.09-.24-.15-.36-.34-.72-.68-1.59-1.39-2.03-.89-.54-2.22-.66-2.88,.28-.17,.24-.35,.53-.5,.83,.2-.19,.43-.36,.67-.49Z"/>
              <path class="cls-37" d="M39.52,26.1c-.14-.56-.25-1.09-.46-1.63-.23-.61-.7-.97-1.17-1.41-.44-.41-1.15-.7-1.73-.79-.23-.03-.47,.02-.69,.07-.34,.08-.68,.09-1.01,.18-1.12,.31-2.06,1.09-2.81,1.96-.45,.52-.83,1.08-1.21,1.65-.3,.45-.54,.85-.63,1.39,0,0,0,0,0,.01-.02,.03-.04,.05-.06,.08-.12,.17,.09,.18,.18,.06,.54-.73,1.46-1.22,2.23-1.67,.79-.46,1.65-.82,2.51-1.1,.85-.27,1.89-.4,2.74-.1,.76,.27,1.37,.89,1.87,1.49,.09,.11,.26-.12,.23-.21Z"/>
              <path class="cls-5" d="M34.58,24.71c-.95,.31-1.87,.74-2.72,1.25-.62,.37-1.3,.77-1.81,1.31,.13-.45,.39-.83,.66-1.23,.33-.5,.69-.98,1.07-1.43,.79-.94,1.87-1.74,3.11-1.92,.56-.08,1.07-.21,1.62-.02,.53,.18,1.01,.46,1.41,.86,.16,.16,.33,.3,.48,.46,.26,.25,.36,.51,.48,.84,.1,.28,.18,.55,.24,.83-.47-.49-1.01-.9-1.67-1.14-.88-.32-2.01-.07-2.87,.2Z"/>
              <path class="cls-15" d="M31.53,25.03c.75-.61,1.61-1.07,2.56-1.29,.96-.22,2.02-.26,2.97,.03,.74,.23,1.34,.65,1.87,1.18-.02-.05-.03-.1-.05-.14-.12-.33-.22-.58-.48-.84-.16-.16-.33-.3-.48-.46-.4-.4-.88-.67-1.41-.86-.55-.19-1.06-.06-1.62,.02-1.24,.18-2.31,.99-3.11,1.92-.18,.21-.35,.43-.51,.65,.09-.08,.18-.15,.27-.23Z"/>
              <path class="cls-2" d="M36.73,28.84c-.19-.5-.47-.97-.88-1.32-.21-.18-.44-.27-.69-.32-.39-.18-.85-.12-1.25-.02-1.15,.27-2.1,1.28-2.77,2.2-1.33,1.83-2.27,5.21-.42,7.01,.81,.79,2.24,.98,3.3,.73,.01,0,.02,0,.03,0,.92-.13,1.61-.79,2.15-1.54,.69-.95,.92-2.03,.99-3.19,.07-1.18-.06-2.43-.47-3.54Z"/>
              <path class="cls-3" d="M35.52,36.11s-.02,.02-.03,.03c.03-.04,.06-.09,.1-.14-.31,.38-.72,.75-1.22,.84-1.16,.23-2.32,.16-3.31-.57-.87-.64-1.1-1.87-1.09-2.88,0-1.19,.43-2.39,1.01-3.42,.54-.96,1.34-1.82,2.32-2.35,.53-.29,1.18-.43,1.76-.22,.05,.02,.09,.04,.14,.07,.94,.19,1.33,1.08,1.5,2.05,.2,.72,.26,1.49,.29,2.22,.03,1.03-.08,2.12-.52,3.05-.23,.48-.56,.91-.93,1.29Z"/>
              <path class="cls-23" d="M36.41,28.85c-.02,.12-.17,.16-.23,.05-.77-1.39-2.9-.57-3.72,.29-.93,.97-1.48,2.35-1.61,3.68-.16,1.56,.39,2.9,1.8,3.69,.33,.18,.72,.31,1.14,.37,.19-.02,.39-.05,.58-.09,.5-.1,.91-.46,1.22-.84-.03,.05-.06,.09-.1,.14,.01-.01,.02-.02,.03-.03,.36-.39,.7-.81,.93-1.29,.45-.94,.56-2.02,.52-3.05-.02-.73-.09-1.5-.29-2.22-.06-.32-.14-.64-.26-.92,0,.08,0,.15,0,.23Z"/>
              <path class="cls-2" d="M22.37,28.76c.02-.13,.02-.27,.02-.4-.11-.66-.34-1.29-.73-1.8-.15-.12-.3-.21-.47-.26-.36-.23-.83-.17-1.22-.07-1.03,.25-1.89,1.15-2.49,1.97-1.19,1.64-2.04,4.67-.37,6.29,.73,.71,2.01,.88,2.96,.66,.92-.22,1.56-1.02,1.83-1.89,.36-1.16,.47-2.46,.5-3.67,0-.27,0-.55-.02-.82Z"/>
              <path class="cls-3" d="M21.93,32.32c-.16,.99-.48,1.99-1.43,2.48-.94,.48-2.28,.19-3.09-.4-.78-.58-.99-1.68-.98-2.58,0-1.07,.38-2.14,.9-3.06,.49-.86,1.21-1.63,2.08-2.11,.48-.26,1.06-.39,1.58-.19,.05,.02,.1,.05,.15,.08,0,0-.02,.02-.02,.03,.91,.37,1.04,1.61,1.06,2.54,0,.03,0,.07,0,.1,0,.04,0,.09,0,.13,0,0,0,.02,0,.03,0,0,0,.01,0,.02,.03,.98-.1,1.99-.26,2.95Z"/>
              <path class="cls-23" d="M22.18,29.35s0-.02,0-.03c0-.04,0-.09,0-.13,0-.03,0-.07,0-.1-.01-.41-.04-.88-.15-1.31-.36-.36-.8-.69-1.3-.66-.62,.04-1.25,.24-1.79,.56-1.17,.71-1.92,2.2-2.06,3.54-.17,1.64,.75,3.17,2.15,3.8,.51,.06,1.03,0,1.46-.22,.95-.49,1.27-1.49,1.43-2.48,.16-.97,.28-1.97,.26-2.95,0,0,0,0,0-.02Z"/>
              <path class="cls-2" d="M26.38,37.58c-.51-.36-1.09-.65-1.7-.86,.13-.15,.22-.33,.32-.51,.15-.27,.31-.53,.44-.81,.06-.11-.1-.07-.14,0-.22,.42-.47,.89-.78,1.26-.24-.08-.49-.14-.73-.18-.57-.1-1.46-.12-1.85,.43-.45,.65-.3,1.5-.05,2.2,.31,.89,.97,1.59,1.66,2.19,.09,.08,.28-.13,.2-.21-.25-.23-2.08-1.87-1.83-3.67,.15-1.06,1.72-.74,2.4-.56,.67,.18,1.35,.51,1.96,.85,.05,.03,.15-.09,.1-.13Z"/>
              <g class="cls-35">
                <g>
                  <path class="cls-24" d="M37.22,33.26c-.29,2.07-1.8,3.56-3.37,3.34-1.57-.22-2.62-2.07-2.33-4.14,.29-2.06,1.8-3.56,3.37-3.34,1.57,.22,2.61,2.07,2.33,4.14Z"/>
                  <path class="cls-40" d="M36.14,33.35c-.17,1.23-1.07,2.12-2.01,1.99-.94-.13-1.56-1.24-1.39-2.47,.17-1.23,1.07-2.12,2.01-1.99,.94,.13,1.56,1.24,1.39,2.47Z"/>
                  <path class="cls-3" d="M34.62,31.79c-.11,.76-.64,1.32-1.19,1.25-.55-.08-.91-.76-.8-1.53,.11-.77,.64-1.32,1.19-1.25,.55,.08,.91,.76,.8,1.53Z"/>
                </g>
              </g>
              <g class="cls-30">
                <g>
                  <path class="cls-24" d="M22.84,31.64c-.28,1.97-1.72,3.4-3.22,3.19-1.5-.21-2.5-1.98-2.22-3.95,.28-1.97,1.72-3.4,3.22-3.19,1.5,.21,2.5,1.98,2.22,3.95Z"/>
                  <path class="cls-40" d="M21.8,31.72c-.16,1.18-1.02,2.03-1.92,1.9-.9-.13-1.49-1.18-1.32-2.36,.17-1.18,1.03-2.03,1.92-1.9,.9,.12,1.49,1.18,1.32,2.36Z"/>
                  <path class="cls-3" d="M20.36,30.24c-.1,.73-.61,1.26-1.14,1.19-.53-.07-.87-.73-.77-1.46,.1-.73,.61-1.27,1.14-1.19,.53,.07,.87,.73,.77,1.46Z"/>
                </g>
              </g>
              <path class="cls-22" d="M39.77,39.09c.03-1.19-1.39-2.19-3.17-2.25-1.79-.05-3.27,.87-3.3,2.06-.03,1.19,1.39,2.2,3.17,2.25,1.79,.05,3.26-.87,3.3-2.06Zm-4.73-.73c-.12,.13-.31,.26-.49,.2-.14-.04-.25-.17-.27-.31-.07-.44,.3-.71,.69-.73,.08,0,.11,.05,.12,.11,.08,.04,.14,.1,.17,.19,.06,.2-.07,.41-.21,.55Zm.5-1.04s0,0,0,0c-.07-.14,.15-.27,.22-.12,.02,.04,.03,.08,.03,.13,0,.16-.25,.16-.25,0Z"/>
              <path class="cls-16" d="M18.87,37.64c.42-1.11-.59-2.53-2.26-3.16-1.67-.63-3.37-.25-3.79,.87-.42,1.11,.59,2.53,2.26,3.16,1.67,.63,3.37,.25,3.79-.87Zm-4.24-2.24c-.16,.08-.37,.14-.53,.03-.12-.08-.18-.24-.16-.39,.07-.44,.51-.57,.89-.47,.07,.02,.09,.08,.08,.14,.06,.06,.1,.14,.1,.23,0,.21-.2,.37-.38,.45Zm.81-.82s0,0,0,0c-.02-.16,.22-.2,.24-.04,0,.05,0,.09-.01,.13-.05,.15-.29,.07-.23-.08Z"/>
              <path class="cls-3" d="M24.66,37.72c-.07-.21-.21-.41-.42-.56-.54-.39-1.5-.6-1.95,.03-.68,.96,.72,1.54,1.46,1.62,.79,.08,1.1-.53,.91-1.09Z"/>
            </g>
            <path class="cls-37" d="M70,34.29c-.04-.23-.1-.47-.15-.7-.18-.81-.46-1.6-.87-2.32-.2-.36-.46-.67-.77-.94-.21-.18-.43-.34-.65-.52,.81-.08,1.66-.43,2.12-1.1,.05-.07,.01-.15-.07-.15-.37,0-.72,.14-1.09,.19-.01,0-.02,0-.04,0-.99,0-1.95-.28-2.85-.67-.23-.1-.45-.2-.67-.31-.49-.26-.96-.56-1.4-.92-.72-.6-1.33-1.33-1.88-2.08-1.13-1.52-2.02-3.19-2.87-4.87-.85-1.69-1.65-3.4-2.65-5-1.04-1.66-2.27-3.21-3.74-4.51-.77-.68-1.62-1.28-2.48-1.85-.43-.28-.86-.55-1.3-.8-.3-.17-.62-.33-.95-.45-.58-1.32-1.44-2.51-2.53-3.49-1.66-1.5-3.73-2.5-5.87-3.09-1.09-.31-2.22-.51-3.35-.61-1.34-.12-2.7-.09-4.04-.03-3.24,.16-6.46,.68-9.58,1.59-2.65,.77-5.31,1.78-7.46,3.54-1.74,.39-3.45,.99-4.98,1.92-.81,.49-1.58,1.08-2.23,1.78-.54,.58-1.01,1.22-1.42,1.9-.84,1.41-1.43,3.02-1.53,4.67-.09,1.35,.2,2.72,.97,3.83,.2,.43,.44,.83,.85,1.07,.07,.04,.17-.02,.18-.1,.09-.95-.31-1.88-.22-2.83,.07-.87,.34-1.75,.69-2.54,.13-.3,.29-.6,.47-.88-.34,1.57-.57,3.21,.02,4.74,.61,1.57,1.95,2.7,3.47,3.35,.8,.34,1.69,.55,2.56,.4,.07-.01,.18-.1,.15-.19-.29-.78-.58-1.56-.75-2.37-.17-.82-.19-1.65-.07-2.47,.1-.72,.27-1.43,.47-2.13,.2-.7,.44-1.4,.78-2.05,.07-.14,.15-.27,.23-.4-.59,1.39-.55,3.07-.19,4.49,.26,1.04,.71,2.04,1.41,2.86,.77,.89,1.79,1.54,2.9,1.92,1.26,.43,2.61,.58,3.93,.39,.08-.01,.15-.1,.11-.18-.27-.52-.64-.98-.94-1.49-.3-.52-.52-1.09-.67-1.67-.3-1.13-.41-2.34-.31-3.51,.09-1,.4-1.94,.86-2.79,.04,.49,.13,.97,.27,1.44,.43,1.44,1.21,2.78,2.13,3.96,.97,1.24,2.14,2.36,3.47,3.2,1.27,.8,2.72,1.37,4.23,1.41,.18,0,.37,0,.55,0,.07,0,.19-.09,.14-.18-.71-1.08-1.52-2.1-1.98-3.32-.44-1.16-.67-2.44-.73-3.68-.01-.26,0-.52,0-.78,.06,.52,.17,1.03,.34,1.52,.3,.86,.75,1.65,1.32,2.36,1.17,1.47,2.74,2.58,4.39,3.43,1.5,.78,3.1,1.31,4.76,1.6,1.14,.2,2.31,.3,3.47,.27,0,.22,.05,.45,.12,.66,.04,.12,.08,.23,.13,.35,0,0,0,.01,0,.02,0,0,0,0,0,.01,.07,.31,.14,.61,.22,.91,.02,.08,.04,.15,.05,.23,0,0,0-.02,0-.03,0,.02,0,.05,.01,.07,.18,.75,.3,1.51,.45,2.27,.17,.87,.32,1.74,.41,2.62,.09,.86,.07,1.73,.11,2.6,.03,.65,.06,1.29,.05,1.94,.05,.02,.13,0,.16-.02,.38-.32,.59-.8,.77-1.25,.22-.54,.44-1.09,.66-1.63,.26-.63,.52-1.27,.78-1.9,.2-.49,.4-.99,.65-1.45,.01-.02,.02-.04,.03-.06,.38-.45,.78-.89,1.24-1.26,.81-.65,1.82-1.15,2.89-1.07,.96,.07,1.87,.64,2.43,1.42,.98,1.35,.57,3.12-.09,4.51-.7,1.47-1.75,2.84-2.97,3.92-.67,.59-1.48,1.04-2.35,1.29-.89,.25-1.89,.31-2.73-.12-.21-.11-.4-.24-.57-.39-.07-.06-.21,.03-.23,.1-.34,1.36-1.54,2.28-2.67,2.99-.65,.41-1.31,.8-2.03,1.09-.79,.32-1.62,.5-2.46,.62-.47,.07-.96,.1-1.42-.02-.45-.11-.87-.32-1.33-.39-.06,0-.12,0-.16,.05-.32,.4-.1,1.03,.06,1.45,.19,.51,.44,1.01,.69,1.5,.68,1.33,1.62,2.66,3.07,3.2,1.51,.56,3.17,.14,4.55-.57,1.47-.76,2.78-1.83,3.93-3.01,.61-.63,1.18-1.29,1.73-1.98,.06-.08,.13-.16,.2-.24-.31,.56-.7,1.09-1.08,1.6-.49,.65-1.03,1.26-1.59,1.86-.54,.57-1.11,1.12-1.71,1.63-.33,.28-.68,.56-1.04,.79-.33,.21-.71,.35-.99,.63-.04,.04-.07,.14,0,.18,.9,.55,1.99,.72,3.03,.67,1-.05,2-.3,2.9-.74,1.58-.77,2.7-2.13,3.44-3.69-.08,.4-.18,.8-.31,1.19-.2,.61-.44,1.21-.59,1.84,0,.04,0,.08,.03,.11,.55,.37,1.26,.41,1.9,.37,.67-.03,1.34-.16,2-.29,1.66-.34,3.28-.94,4.75-1.79,1.33-.77,2.58-1.78,3.27-3.18,.33-.67,.52-1.39,.54-2.14,.01-.71-.11-1.42-.32-2.1-.03-.11-.08-.22-.12-.33,.28,.44,.54,.9,.77,1.37,.24,.49,.44,1,.61,1.51,.04,.12,.2,.02,.23-.05,.21-.44,.15-.96,.06-1.43-.09-.48-.22-.96-.35-1.44-.07-.24-.14-.48-.21-.71,.1,.1,.2,.2,.3,.31,.31,.35,.69,.82,1.19,.87,.45,.05,.85-.32,1.07-.68,.26-.41,.38-.9,.44-1.38,.06-.47,.08-.94,.05-1.41-.04-.6-.15-1.19-.32-1.76,.04,.02,.07,.05,.11,.07,.22,.16,.42,.33,.63,.51,.16,.14,.36,.34,.58,.39,.22,.04,.41-.14,.47-.34,.06-.23,.02-.49-.02-.72Z"/>
            <path class="cls-5" d="M69.7,35.11s-.02,.06-.03,.09c0,0-.01,0,0,0-.07,0-.15-.08-.21-.12-.1-.07-.2-.16-.29-.24-.35-.31-.72-.6-1.12-.85-.1-.28-.21-.55-.34-.81-.12-.25-.25-.49-.39-.73,.02,.07,.04,.15,.07,.22,.11,.37,.18,.75,.27,1.13,0,0,0,.01,0,.02,0,.02,.01,.03,.02,.05,.04,.12,.08,.24,.12,.37,.19,.57,.33,1.15,.39,1.73,.1,.84,.08,1.77-.21,2.57-.12,.34-.35,.78-.72,.91-.44,.15-.88-.36-1.13-.64-.29-.32-.6-.62-.9-.93-.09-.23-.19-.46-.29-.68,0,.18,0,.36,.01,.54,0,0,0,.02,0,.03,.12,.39,.22,.78,.32,1.18,.16,.52,.29,1.04,.41,1.57,.09,.37,.19,.82,.14,1.23-.44-1.23-1.07-2.39-1.86-3.43-.16-.16-.34-.31-.51-.45,.32,.64,.59,1.31,.82,2,.02,.05,0,.09-.03,.11,.29,1.1,.34,2.26-.06,3.34-.51,1.38-1.61,2.42-2.83,3.2-1.37,.88-2.91,1.5-4.49,1.89-.66,.16-1.33,.29-2,.37-.64,.08-1.34,.13-1.96-.09-.12-.04-.23-.1-.34-.17,.13-.54,.33-1.06,.51-1.59,.13-.37,.24-.75,.32-1.13,0-.39,0-.78-.08-1.17-.36,.94-.81,1.84-1.44,2.62-1.12,1.4-2.76,2.25-4.54,2.44-1.08,.12-2.24,0-3.21-.54,.23-.17,.51-.29,.76-.44,.33-.2,.63-.44,.93-.68,.61-.49,1.18-1.03,1.73-1.59,1.11-1.15,2.14-2.39,2.95-3.77,.12-.21,.22-.42,.32-.64,.08-.37,.16-.74,.26-1.1-.15,.26-.27,.55-.39,.83-.16,.21-.33,.41-.49,.61-.51,.63-1.02,1.26-1.57,1.86-1.08,1.18-2.29,2.25-3.66,3.07-1.28,.77-2.82,1.38-4.34,1.08-1.5-.29-2.55-1.42-3.29-2.69-.29-.49-.54-1.01-.78-1.53-.12-.26-.23-.52-.31-.8-.08-.24-.14-.5-.12-.75,0-.05,.01-.1,.03-.15,.37,.08,.73,.23,1.09,.34,.42,.12,.85,.14,1.28,.1,.88-.08,1.76-.25,2.59-.55,.78-.28,1.5-.67,2.2-1.11,.62-.38,1.23-.8,1.77-1.3,.52-.49,.96-1.08,1.2-1.75,1.53,1.21,3.86,.51,5.32-.5,.66-.46,1.23-1.05,1.76-1.66,.59-.68,1.13-1.42,1.57-2.21,.79-1.42,1.44-3.25,.71-4.82-.39-.83-1.16-1.5-2.02-1.82-1.04-.39-2.17-.15-3.12,.37-.43,.24-.82,.53-1.19,.85-.4,.25-.7,.6-.96,1-.01,.01-.02,.02-.03,.04-.03,.05-.06,.11-.1,.16-.14,.24-.25,.5-.37,.75,0,0,0,0,0,0-.05,.11-.1,.23-.15,.34-.24,.58-.49,1.15-.72,1.73-.24,.59-.5,1.17-.73,1.77-.11,.28-.21,.56-.34,.83-.08,.16-.17,.33-.28,.48-.02-.37-.01-.74-.02-1.11,0-.46-.03-.91-.06-1.37-.02-.3-.04-.61-.06-.91,0,0,0,0,.01,0,0-.06-.01-.12-.02-.18,0,0,0,0,0,0-.04-.55-.09-1.1-.15-1.65-.21-1.86-.54-3.72-1.02-5.53-.03-.1-.06-.2-.09-.31-.01-.06-.02-.14-.05-.21,.52-.02,1.04-.07,1.55-.15,1.3-.2,2.61-.63,3.72-1.36,.1-.13,.2-.27,.29-.41-.12,.03-.24,.06-.37,.08-.2,.07-.4,.12-.61,.16-.49,.1-.99,.19-1.5,.21-.69,.03-1.37-.07-2.03-.28,0,0,0,0,0,0-.55-.13-1.08-.32-1.59-.55,.14,.11,.28,.21,.43,.3,.43,.27,.91,.47,1.41,.6,1.06,.27,2.13,.2,3.19-.05,.14-.03,.29-.07,.43-.12-.86,.52-1.84,.85-2.82,1.05-1.69,.34-3.46,.32-5.16,.06-1.61-.24-3.2-.69-4.67-1.4-1.64-.79-3.23-1.81-4.47-3.16-1.03-1.12-1.79-2.48-2.06-3.98-.06-.17-.12-.34-.18-.52-.07-.24-.14-.49-.18-.75-.23,1.15-.14,2.36,.06,3.51,.11,.6,.25,1.21,.44,1.79,.21,.62,.5,1.21,.84,1.77,.35,.57,.75,1.12,1.11,1.69-1.37-.02-2.7-.45-3.88-1.12-1.32-.75-2.48-1.76-3.47-2.91-.93-1.09-1.74-2.32-2.27-3.66-.27-.67-.47-1.4-.54-2.13-.06-.37-.09-.74-.08-1.11,.01-.42,.06-.87,.18-1.27,0-.01,0-.02,.01-.04-.27,.6-.4,1.24-.41,1.9-.04,.07-.08,.13-.12,.2-.5,.84-.84,1.76-.98,2.73-.08,.55-.09,1.11-.07,1.67,.02,.62,.09,1.24,.22,1.85,.15,.67,.37,1.33,.68,1.95,.29,.56,.7,1.03,1.01,1.57-2.21,.26-4.54-.43-6.11-2.04-.73-.75-1.22-1.68-1.53-2.68-.31-1.01-.43-2.09-.32-3.15,.08-.74,.29-1.48,.66-2.12,.1-.25,.22-.49,.34-.73,.05-.1,.1-.19,.15-.29-1.17,.85-1.8,2.27-2.21,3.61-.21,.68-.37,1.37-.51,2.07-.17,.86-.21,1.73-.08,2.6,.14,.9,.44,1.75,.75,2.61-.67,.06-1.35-.11-1.97-.35-.73-.29-1.42-.71-2.03-1.21-.6-.51-1.1-1.13-1.43-1.85-.35-.76-.49-1.6-.49-2.44,0-.97,.17-1.92,.39-2.87,.03-.11-.12-.12-.17-.05-.56,.7-.93,1.54-1.19,2.4-.12,.41-.22,.84-.29,1.27-.07,.49-.04,.97,.03,1.45,.07,.47,.17,.95,.17,1.43-.14-.11-.25-.24-.36-.38-.03-.1-.07-.2-.09-.3-.29-.37-.53-.78-.71-1.22-.28-.71-.4-1.47-.4-2.23,0-1.6,.5-3.19,1.25-4.59,.78-1.46,1.85-2.71,3.21-3.65,1.42-.98,3.05-1.64,4.72-2.07,.05-.03,.1-.05,.16-.08,.42-.19,.85-.34,1.3-.46-.1,.02-.19,.04-.29,.06,.63-.46,1.28-.88,1.98-1.24,1.31-.69,2.7-1.21,4.11-1.65,3.06-.95,6.22-1.55,9.41-1.77,2.56-.18,5.13-.21,7.64,.38,2.14,.5,4.23,1.39,5.96,2.76,1.28,1.01,2.29,2.27,2.98,3.71,0,0,0,0-.01,0-.15-.03-.31-.05-.47-.05,.29,.1,.57,.24,.83,.38,.06,.03,.11,.07,.17,.1,0-.02-.01-.03-.02-.05,.06,.03,.13,.06,.19,.1,.44,.23,.86,.5,1.27,.77,.87,.57,1.73,1.16,2.53,1.83,1.51,1.24,2.76,2.77,3.82,4.4,1.04,1.59,1.85,3.31,2.69,5,.83,1.68,1.69,3.35,2.78,4.88,.53,.75,1.11,1.47,1.77,2.11,.06,.06,.12,.11,.18,.16-.01,0-.03-.02-.04-.03,1.14,.95,2.46,1.75,3.91,2.09,.02,0,.04,.02,.05,.03,.22,.05,.44,.09,.66,.11,.19,.02,.38,.02,.58,0,.03,0,.06,0,.09,0,.33,0,.64-.12,.97-.15-.51,.55-1.37,.77-2.09,.76-.11,0-.26,.14-.15,.24,.48,.44,1.04,.77,1.42,1.31,.43,.61,.7,1.35,.9,2.06,.08,.29,.14,.59,.2,.88,.05,.2,.09,.41,.11,.62,0,.1,.01,.2,0,.3Z"/>
            <g>
              <path class="cls-4" d="M5.34,16.26c-.11-1.23,.04-2.48,.5-3.63,.49-1.22,1.31-2.25,2.28-3.13,.99-.89,2.09-1.69,3.27-2.32,1.15-.61,2.42-1.07,3.74-1.08,.1,0,.16,.16,.06,.21-1.22,.6-1.98,1.76-2.53,2.99,.33-.45,.7-.87,1.11-1.26,1.44-1.34,3.27-2.22,5.15-2.77,1.69-.5,3.47-.75,5.23-.71-2.33-1.17-5.2,.13-7.34,1.17-.11,.05-.23-.08-.13-.17,.18-.18,.36-.35,.55-.51,1.62-1.4,3.67-2.24,5.71-2.84,2.1-.62,4.28-.98,6.45-1.24,2.28-.27,4.55-.47,6.85-.35,.86,.04,1.72,.13,2.57,.24-.12-.03-.25-.07-.37-.1-2.51-.59-5.08-.57-7.64-.38-3.19,.23-6.35,.82-9.41,1.77-1.41,.44-2.8,.96-4.11,1.65-.69,.37-1.35,.78-1.98,1.24,.1-.02,.19-.04,.29-.06-.44,.12-.88,.27-1.3,.46-.05,.02-.1,.05-.16,.08-1.67,.44-3.3,1.09-4.72,2.07-1.36,.94-2.43,2.2-3.21,3.65-.75,1.4-1.25,2.99-1.25,4.59,0,.76,.12,1.52,.4,2.23,.18,.44,.42,.85,.71,1.22,.03,.1,.06,.2,.09,.3,.02,.03,.04,.05,.06,.07-.44-1.1-.75-2.24-.86-3.42Z"/>
              <path class="cls-4" d="M10.75,21.12c-1.28-1.1-2.16-2.61-2.32-4.3-.15-1.51,.28-3,.97-4.33-.25,.32-.48,.65-.68,1-.69,1.18-1.11,2.52-1.09,3.89,0,0,0,0,0,0,.08,.48,.21,.95,.41,1.4,.33,.72,.83,1.34,1.43,1.85,.6,.51,1.29,.93,2.03,1.21,.17,.07,.35,.13,.53,.18-.45-.27-.88-.57-1.28-.91Z"/>
              <path class="cls-4" d="M16.3,20.03c-.74-1.05-1.18-2.36-1.27-3.64-.16-2.34,.87-4.56,2.23-6.41-.41,.3-.8,.62-1.15,.98-.39,.4-.74,.83-1.05,1.29-.01,.03-.02,.05-.04,.08-.38,.64-.59,1.37-.66,2.12-.11,1.06,.01,2.14,.32,3.15,.3,1,.79,1.93,1.53,2.68,.41,.42,.86,.77,1.35,1.06-.48-.37-.91-.81-1.26-1.32Z"/>
              <path class="cls-4" d="M28.14,21.57c-1.09-.73-2.06-1.65-2.87-2.68-.81-1.04-1.47-2.19-1.93-3.42-.46-1.21-.72-2.5-.75-3.8-.02-1.16,.16-2.32,.55-3.41-.34,.35-.59,.79-.75,1.25-.45,1.25-.47,2.65-.36,3.96,.01,.18,.03,.36,.05,.54,.09,.34,.2,.67,.33,.99,.53,1.34,1.34,2.57,2.27,3.66,.98,1.15,2.15,2.16,3.47,2.91,0,0,0,0,0,0,0,0-.01,0-.02-.01Z"/>
              <path class="cls-4" d="M33.39,16.24c-.72-1.11-1.3-2.32-1.63-3.61-.22-.88-.32-1.78-.25-2.68-.05,.16-.09,.32-.13,.49-.27,1.19-.18,2.43,.16,3.59,.36,1.23,.98,2.37,1.75,3.38,.79,1.04,1.76,1.96,2.83,2.7,.78,.54,1.63,.99,2.52,1.32-.94-.59-1.82-1.29-2.63-2.06-.99-.94-1.88-1.99-2.62-3.13Z"/>
            </g>
            <path class="cls-18" d="M7.98,12.7c.37-.61,.81-1.13,1.32-1.62,.44-.41,.92-.81,1.28-1.31-.83,.06-1.61,.47-2.25,1-.73,.6-1.32,1.36-1.8,2.17-.49,.84-.87,1.75-1.09,2.7-.17,.72-.26,1.51-.18,2.27,.02,.06,.04,.11,.06,.17,.18,.44,.42,.85,.71,1.22,.03,.1,.06,.2,.09,.3,.1,.14,.22,.27,.36,.38,0-.48-.1-.96-.17-1.43-.07-.49-.11-.97-.03-1.45,.06-.43,.16-.85,.29-1.27,.19-.64,.45-1.28,.8-1.85,.16-.44,.36-.87,.61-1.27Z"/>
            <path class="cls-15" d="M12.79,17c.14-.7,.3-1.39,.51-2.07,.42-1.34,1.05-2.76,2.21-3.61-.05,.1-.09,.2-.15,.29-.12,.24-.24,.47-.34,.72,.24-.52,.54-1.01,.89-1.45,.38-.47,.84-.85,1.28-1.26,.35-.32,.72-.66,.96-1.08-.07,0-.14,.01-.21,.03-1.05,.17-2.04,.61-2.89,1.24-.87,.64-1.6,1.46-2.18,2.37-.59,.94-1.04,1.97-1.31,3.04-.28,1.06-.39,2.17-.3,3.26,.09,1.04,.37,2.07,.88,2.99,.05,.09-.03,.18-.12,.16-.44-.07-.86-.22-1.26-.4-.77-.35-1.48-.86-2.08-1.45-.05-.04-.09-.09-.14-.14,.07,.09,.14,.18,.21,.27,.44,.47,.95,.87,1.53,1.15,.08,.04,.07,.13,.01,.17,.38,.24,.79,.45,1.21,.62,.62,.24,1.3,.41,1.97,.35-.3-.85-.61-1.71-.75-2.61-.13-.87-.09-1.74,.08-2.6Z"/>
            <path class="cls-18" d="M14.36,14.45c0,.06,0,.11-.01,.17,.01-.1,.03-.21,.05-.31,.12-.67,.34-1.34,.63-1.97-.37,.64-.58,1.37-.66,2.11Z"/>
            <path class="cls-15" d="M20.62,18.81c-.13-.61-.2-1.23-.22-1.85-.02-.56,0-1.12,.07-1.67,.14-.97,.48-1.89,.98-2.73,.04-.07,.08-.13,.12-.2,.01-.65,.14-1.3,.41-1.9,0,.01,0,.02-.01,.04-.12,.41-.17,.85-.18,1.27-.01,.37,.01,.74,.08,1.11,.03,.33,.09,.66,.17,.98-.07-.66-.06-1.33,.03-2,.16-1.16,.66-2.19,1.32-3.15,.6-.88,1.27-1.7,1.78-2.64-.08,.02-.17,.03-.25,.05-1.37,.36-2.54,1.24-3.47,2.28-.98,1.09-1.74,2.38-2.27,3.74-.44,1.11-.7,2.26-.75,3.45-.05,1.21,.05,2.45,.43,3.61,.35,1.05,.99,2.06,2.09,2.42,.12,.04,.1,.21-.03,.22-.68,.01-1.37-.11-2.01-.33-1.25-.43-2.38-1.18-3.31-2.11-.08-.08-.16-.17-.24-.26,.24,.41,.52,.8,.86,1.15,1.57,1.61,3.9,2.31,6.11,2.04-.31-.54-.73-1.02-1.01-1.57-.31-.61-.54-1.27-.68-1.95Z"/>
            <path class="cls-15" d="M30.08,19.24c-.19-.58-.33-1.18-.44-1.79-.17-.95-.25-1.94-.14-2.91-.05-.93,.07-1.87,.28-2.78,.38-1.67,1.03-3.26,1.62-4.86-.03,.01-.05,.03-.08,.04-.91,.55-1.66,1.33-2.24,2.22-.6,.93-1.02,1.98-1.29,3.05-.27,1.11-.38,2.25-.32,3.39,.06,1.11,.28,2.21,.7,3.23,.39,.96,.97,1.85,1.75,2.54,.09,.08,0,.2-.11,.18-.69-.14-1.36-.33-2.01-.59-.56-.22-1.11-.49-1.65-.79,.61,.53,1.28,1.01,1.99,1.42,1.19,.67,2.52,1.1,3.88,1.12-.36-.57-.76-1.12-1.11-1.69-.34-.56-.64-1.15-.84-1.77Z"/>
            <path class="cls-15" d="M69.71,34.81c-.02-.21-.06-.42-.11-.62-.07-.29-.12-.59-.2-.88-.2-.71-.48-1.45-.9-2.06-.38-.54-.94-.88-1.42-1.31-.11-.1,.04-.24,.15-.24,.71,.01,1.58-.21,2.09-.76-.33,.03-.64,.14-.97,.15-.03,0-.06,0-.09,0-.19,.01-.38,.01-.58,0-.22-.02-.44-.06-.66-.11-.01-.01-.03-.03-.05-.03-1.45-.34-2.77-1.14-3.91-2.09,.02,0,.03,.02,.04,.03-.06-.05-.12-.1-.18-.16-.66-.64-1.24-1.36-1.77-2.11-1.08-1.53-1.94-3.21-2.78-4.88-.84-1.7-1.66-3.41-2.69-5-1.06-1.63-2.32-3.16-3.82-4.4-.8-.66-1.66-1.26-2.53-1.83-.42-.27-.83-.54-1.27-.77-.06-.03-.13-.06-.19-.1,0,.02,.01,.03,.02,.05-.06-.03-.11-.07-.17-.1-.26-.15-.54-.28-.83-.38,.16,0,.31,.02,.47,.05,0,0,0,0,.01,0-.69-1.44-1.7-2.7-2.98-3.71-1.74-1.37-3.82-2.25-5.96-2.75,.95,.47,1.85,1.02,2.7,1.64,.78,.56,1.52,1.18,2.19,1.87,.57,.59,1.11,1.24,1.51,1.96,.05,.1-.05,.2-.15,.15-.54-.29-1.11-.52-1.71-.69-1.2-.34-2.43-.38-3.66-.31,.32,.05,.64,.12,.96,.21,2.1,.6,3.98,1.88,5.54,3.39,1.34,1.29,2.54,2.83,3.29,4.54-.04-.74-.32-1.44-.7-2.07-.48-.8-1.11-1.5-1.77-2.16-.08-.08,0-.22,.11-.18,.18,.05,.35,.11,.53,.18,1.61,.64,3.02,1.88,3.99,3.31,.91,1.34,1.51,3.1,.85,4.68-.37,.87-1.05,1.53-1.84,2.04-.91,.6-1.95,.99-3.03,1.13-2.14,.28-4.27-.41-6.12-1.44-1.77-.99-3.37-2.32-4.73-3.82,.09,.59,.3,1.15,.58,1.67,.64,1.19,1.61,2.18,2.62,3.06,.97,.84,2.02,1.59,3.08,2.32,.08,.05,.07,.17-.03,.2-.92,.29-1.95,.13-2.88-.08-.89-.2-1.76-.5-2.62-.82-.98-.37-1.91-.84-2.79-1.39-.93-.59-1.83-1.23-2.59-2.03-.58-.6-1.08-1.26-1.55-1.94,.32,.97,.85,1.87,1.51,2.66,.11,.11,.23,.22,.35,.33,.03,.03,.04,.06,.03,.09,1.23,1.31,2.77,2.3,4.38,3.08,1.47,.71,3.06,1.16,4.67,1.4,1.7,.25,3.47,.28,5.16-.06,.98-.2,1.95-.54,2.82-1.05-.14,.05-.29,.09-.43,.12-1.05,.25-2.13,.32-3.19,.05-.49-.13-.97-.33-1.41-.6-.15-.09-.29-.2-.43-.3,.51,.23,1.04,.42,1.59,.55,0,0,0,0,0,0,.65,.21,1.33,.31,2.03,.28,.5-.02,1-.11,1.5-.21,.21-.04,.41-.1,.61-.16,.12-.02,.25-.05,.37-.08-.09,.14-.19,.28-.29,.41-1.11,.73-2.42,1.16-3.72,1.36-.51,.08-1.03,.13-1.55,.15,.03,.06,.04,.14,.05,.21,.03,.1,.06,.2,.09,.31,.04,.15,.08,.3,.11,.45,.21,.23,.37,.5,.49,.79,.4,.96,.46,2.02,.51,3.06,.22-1.14,.17-2.33,.48-3.46,.02-.06,.1-.11,.16-.07,.45,.31,.57,.86,.91,1.26,.54-.43,1.1-.82,1.68-1.19,1.3-.81,2.76-1.56,4.3-1.78,.67-.1,1.37-.09,2.01,.15,.67,.26,1.19,.75,1.54,1.37,.05,.09-.03,.19-.12,.16-.89-.22-1.8-.19-2.7-.16,.08,.03,.15,.07,.23,.11,.61,.34,1.07,.91,1.43,1.5,.35,.58,.62,1.21,.82,1.85,.03,.11-.11,.18-.18,.11-.76-.76-1.5-1.62-2.5-2.06-.87-.39-1.89-.3-2.74,.09-.75,.34-1.35,.91-1.81,1.58-.14,.2-.26,.4-.38,.61,.21-.28,.46-.53,.76-.72,.36-.32,.76-.61,1.19-.85,.95-.52,2.08-.76,3.12-.37,.85,.32,1.63,.99,2.02,1.82,.73,1.57,.08,3.41-.71,4.82-.44,.79-.98,1.53-1.57,2.21-.52,.6-1.1,1.2-1.76,1.66-1.45,1.02-3.78,1.71-5.32,.5-.23,.68-.68,1.26-1.2,1.75-.18,.17-.36,.32-.55,.47,.31-.1,.63-.21,.93-.32,.88-.33,1.75-.73,2.66-.98,.07-.02,.17,.05,.14,.14-.46,1.12-1.17,2.12-2,2.99-1.58,1.68-3.63,3-5.86,3.61-.91,.24-1.85,.36-2.79,.29,.72,1.08,1.69,2,3.02,2.25,1.51,.29,3.06-.31,4.34-1.08,1.37-.82,2.58-1.9,3.66-3.07,.55-.6,1.05-1.23,1.57-1.86,.16-.2,.33-.4,.49-.61,.12-.28,.24-.57,.39-.83-.1,.36-.19,.73-.26,1.1-.1,.22-.2,.43-.32,.64-.81,1.38-1.84,2.62-2.95,3.77-.39,.4-.8,.79-1.22,1.16,.08-.03,.16-.06,.24-.09,1.03-.43,2.03-.96,2.91-1.65,.91-.71,1.72-1.58,2.42-2.5,1.39-1.85,2.4-3.99,2.99-6.23,.03-.12,.23-.1,.22,.03-.02,.18-.04,.36-.06,.53-.18,1.46-.56,2.89-1.09,4.26-.54,1.4-1.25,2.74-2.13,3.95-.85,1.17-1.86,2.22-3.04,3.05-.38,.27-.78,.5-1.19,.71,1.68-.24,3.21-1.07,4.29-2.41,.63-.78,1.08-1.68,1.44-2.62,.08,.38,.09,.77,.08,1.17-.08,.38-.19,.76-.32,1.13-.15,.42-.3,.85-.42,1.28,.47-.26,.91-.61,1.29-.96,.79-.73,1.45-1.59,2.02-2.5,.5-.81,.93-1.67,1.21-2.58,.78-2.58,.78-5.42,.27-8.05-.02-.12,.14-.2,.2-.09,.36,.62,.64,1.29,.85,1.98,.2,.62,.34,1.26,.44,1.91,.09,.6,.16,1.19,.14,1.8-.02,.63-.1,1.25-.15,1.87-.04,.46-.06,.93,0,1.39,.48-.93,.81-1.92,1.02-2.95,.41-2.03,.34-4.14-.01-6.17-.35-2-.97-3.95-1.82-5.8-.05-.11,.08-.23,.17-.13,.15,.17,.29,.34,.44,.51,1.19,1.46,2.15,3.11,2.87,4.85,.73,1.77,1.22,3.64,1.4,5.54,.18,1.82,.08,3.68-.4,5.45-.17,.63-.39,1.25-.66,1.84,.98-.73,1.83-1.65,2.27-2.81,.4-1.08,.36-2.24,.06-3.34,.03-.02,.05-.06,.03-.11-.22-.68-.49-1.35-.82-2,.17,.15,.34,.3,.51,.45,.79,1.04,1.42,2.2,1.86,3.43,.05-.41-.06-.85-.14-1.23-.12-.53-.26-1.05-.41-1.57-.1-.39-.2-.79-.32-1.18,0,0,0-.02,0-.03,0-.18-.01-.36-.01-.54,.1,.22,.2,.45,.29,.68,.3,.31,.61,.61,.9,.93,.26,.28,.69,.79,1.13,.64,.38-.13,.6-.56,.72-.91,.29-.8,.31-1.73,.21-2.57-.07-.58-.2-1.17-.39-1.73-.04-.12-.08-.25-.12-.37,0-.02-.01-.03-.02-.05,0,0,0-.01,0-.02-.09-.38-.17-.75-.27-1.13-.02-.07-.04-.15-.07-.22,.14,.24,.27,.49,.39,.73,.12,.26,.24,.54,.34,.81,.4,.25,.77,.54,1.12,.85,.09,.08,.19,.17,.29,.24,.05,.04,.14,.11,.21,.12,0,0,0,0,0,0,.02-.02,.03-.06,.03-.09,.02-.1,.02-.2,0-.3Z"/>
            <g>
              <path class="cls-2" d="M32.79,44.03c0-.06,0-.06,.01-.11,0-.08,0-.16,0-.23,0-.06,0-.12-.01-.19,0,0,0,0,0,0,0,0,0,0,0,0,0-.01,0-.03,0-.04,0-.02-.01-.05-.02-.07,0,0,0-.02-.01-.03,0,0,0,0,0-.02,0-.02-.03-.03-.03-.05,0,0,0,0,0,0,0,0-.01-.01-.02-.02,0,0,0,0-.01,0,0,0-.01,0-.01,0-.01,0-.02-.01-.03-.02,0,0,0,0,0,0-.02,0-.04-.01-.06-.02,0,0,0,0-.01,0-.01,0-.02,0-.04,0-.03,0-.06,0-.08,0,0,0-.06,0-.02,0-.02,0-.03,0-.05,.01-.03,0-.07,.02-.1,.03-.03,0-.06,.02-.09,.03,.03,0,.07,0,.1,.02,.01,0,.02,0,.03,0,0,0,.01,0,.02,0,.02,0,.03,.02,.05,.03,.02,.01,.03,.02,.05,.03,0,0,0,0,0,0,0,0,0,0,0,0,0,0,.01,.01,.02,.02,0,0,.02,.02,.03,.03-.27,.09-.54,.17-.82,.24-.51,.11-1.03,.19-1.55,.24-1.16,.12-2.32,.16-3.48,.11-2.4-.11-4.84-.51-7.12-1.3-.5-.18-1-.38-1.49-.58-.35-.15-.84-.37-.94-.77,0-.03-.07,0-.07,.02,.02,.35,.32,.57,.6,.73,.2,.12,.42,.22,.64,.31,.17,.16,.3,.41,.4,.58,.19,.32,.38,.64,.55,.97,.37,.68,.73,1.36,1.17,1.99,.82,1.16,1.89,2.16,3.17,2.81,1.21,.61,2.64,.9,3.99,.68,1.19-.2,2.27-.82,3.1-1.68,.49-.51,.89-1.09,1.22-1.71,.34-.64,.66-1.3,.87-1.99,.02,.02,.05,.02,.08,.02,0-.01,0-.02,0-.04Z"/>
              <path class="cls-38" d="M31.74,45.73c-.3,.57-.62,1.12-1.04,1.61-.77,.91-1.8,1.6-2.97,1.85-2.78,.59-5.53-1.09-7.14-3.25-.53-.71-.93-1.5-1.37-2.27-.18-.31-.36-.61-.56-.9-.06-.09-.13-.18-.2-.27,.08,.03,.17,.07,.25,.1,1.18,.49,2.4,.83,3.65,1.08,2.41,.48,4.87,.66,7.32,.45,.63-.05,1.26-.13,1.88-.26,.33-.07,.68-.15,1.02-.27,0,0,0,0,0,0-.17,.74-.48,1.44-.83,2.12Z"/>
              <path class="cls-3" d="M26.66,48.39c-.37-.51-.68-1.17-1.32-1.39-.55-.19-1.14,.01-1.64,.25-.4,.19-.78,.42-1.16,.63,1.48,1.08,3.29,1.69,5.12,1.32-.4-.17-.73-.45-1-.82Z"/>
              <path class="cls-13" d="M26.66,48.39c-.37-.51-.68-1.17-1.32-1.39-.13-.04-.26-.07-.39-.07,.13,.14,.19,.32,.1,.53-.08,.18-.28,.31-.44,.42-.17,.12-.34,.23-.49,.36-.13,.12-.26,.24-.38,.37,1.21,.6,2.56,.87,3.92,.59-.4-.17-.73-.45-1-.82Z"/>
              <path class="cls-29" d="M29.71,47.36c-1.12-.23-2.32-.17-3.41,.15-.81,.24-1.6,.66-2.18,1.28,1.13,.48,2.37,.67,3.61,.41,1.07-.23,2.02-.83,2.76-1.62-.25-.09-.51-.17-.77-.22Z"/>
              <path class="cls-17" d="M26.33,48.99c-.47-.06-1.06-.27-1.11-.82,0-.08,0-.16,.03-.23-.42,.22-.81,.5-1.13,.85,1.13,.48,2.37,.67,3.61,.41,.42-.09,.81-.23,1.19-.42-.83,.26-1.72,.33-2.58,.22Z"/>
              <path class="cls-3" d="M21.71,44.79c1.66,1.05,3.81,1.17,5.71,.9,.99-.14,1.97-.4,2.89-.79,.7-.3,1.38-.68,1.95-1.19-.23,.07-.47,.13-.7,.17-.62,.13-1.25,.21-1.88,.26-2.45,.21-4.91,.04-7.32-.45-.73-.15-1.44-.33-2.15-.55,.34,.67,.86,1.23,1.51,1.65Z"/>
              <path class="cls-13" d="M31.55,43.88c-.62,.13-1.25,.21-1.88,.26-2.45,.21-4.91,.04-7.32-.45-.68-.14-1.35-.31-2-.51,.44,.33,.96,.57,1.49,.73,.76,.23,1.56,.33,2.35,.39,.8,.05,1.62,.08,2.42,.06,.52-.01,1.03-.04,1.55-.06,.44-.01,.91-.03,1.35,.03,.27,.04,.54,.14,.74,.34,.05,.06,.1,.12,.14,.18,.67-.29,1.33-.67,1.87-1.16-.23,.07-.47,.13-.7,.17Z"/>
            </g>
          </g>
          <g>
            <path class="cls-2" d="M18.42,79.15c-.07-.28-.16-.55-.26-.82-.16-.43-.41-.83-.58-1.26-.39-.98-.07-2.01,.04-3.01,.03-.25,.04-.5,.03-.74,0-.05-.03-.07-.07-.07-.42-.5-1.15-.88-1.8-.72-.37,.09-.65,.33-.86,.63-.27,.38-.47,.81-.57,1.27-.07,.33-.09,.67-.06,1.01-.44-.03-.72,.58-.85,.93-.08,.23-.15,.47-.16,.71-.02,.41,.07,.82,.21,1.2,.06,.17,.14,.33,.22,.5-.34,.43-.35,1.08-.23,1.59,.09,.36,.23,.71,.42,1.03-.47,.87,.24,1.92,.85,2.51,.34,.32,.74,.61,1.19,.77,.35,.12,.81,.16,1.01-.22,.09-.17,.11-.37,.09-.56,0-.11-.02-.22-.04-.32-.02-.11-.04-.23-.12-.32,0,0,0,0,0,0,.07-.04,.13-.09,.18-.16,.31-.38,.23-1,.01-1.43,.27,.03,.57-.02,.77-.23,.23-.24,.21-.56,.09-.84,.07,0,.14-.01,.2-.04,.54-.22,.39-.96,.28-1.4Z"/>
            <path class="cls-9" d="M16.8,83.84c.02,.15,.03,.31-.01,.46-.1,.37-.5,.27-.78,.17-.79-.29-1.52-.97-1.89-1.72-.2-.41-.26-.82-.17-1.25,.12,.19,.25,.37,.38,.54,.36,.44,.79,.83,1.29,1.1,.32,.17,.74,.31,1.09,.2-.02,.17,.06,.35,.08,.51Z"/>
            <path class="cls-9" d="M16.96,82.92c-.26,.49-.96,.17-1.3-.03-.89-.53-1.63-1.43-1.94-2.42-.09-.29-.14-.59-.13-.9,.01-.26,.09-.48,.18-.71,.29,.54,.67,1.05,1.1,1.47,.52,.52,1.19,1.02,1.91,1.24,0,.01,0,.03,.01,.04,.23,.34,.38,.92,.18,1.31Z"/>
            <path class="cls-9" d="M17.68,81.38c-.23,.18-.55,.12-.81,.04-.69-.23-1.31-.67-1.83-1.17-.51-.5-.95-1.11-1.25-1.76-.26-.56-.43-1.2-.28-1.81,.06-.26,.16-.52,.3-.75,.11-.18,.26-.36,.49-.36,.05,.36,.15,.72,.3,1.05,.17,.37,.38,.72,.58,1.06,.3,.49,.61,.97,.96,1.43,.31,.42,.65,.83,1.06,1.16,.16,.13,.36,.26,.57,.31-.02,.02-.02,.05-.01,.08,.11,.23,.16,.55-.07,.73Z"/>
            <path class="cls-9" d="M18.28,80.21c-.12,.31-.48,.19-.7,.05-.38-.23-.69-.59-.97-.93-.34-.42-.65-.86-.94-1.31-.5-.78-1.04-1.61-1.16-2.55-.05-.43-.02-.86,.11-1.27,.13-.41,.34-.86,.64-1.18,.52-.55,1.31-.3,1.87,.06,.12,.08,.23,.16,.34,.24,0,.01-.02,.03-.01,.05,.05,.95-.28,1.87-.26,2.82,.01,.45,.13,.85,.32,1.26,.17,.36,.36,.7,.49,1.07,.1,.27,.18,.55,.25,.83,.06,.27,.13,.6,.03,.87Z"/>
            <path class="cls-10" d="M18.42,79.15c-.07-.28-.16-.55-.26-.82-.16-.43-.41-.83-.58-1.26-.39-.98-.07-2.01,.04-3.01,.03-.25,.04-.5,.03-.74,0-.05-.03-.07-.07-.07-.18-.21-.42-.4-.68-.54-.31,.2-.57,.47-.73,.81-.2,.43-.23,.92-.19,1.39,.05,.52,.2,1.05,.36,1.54,.14,.42,.35,.82,.44,1.25,.05,.25,.1,.64-.11,.84-.15,.14-.36,.05-.51-.05-.39-.28-.71-.71-.95-1.11-.37-.62-.71-1.26-.94-1.94-.04,0-.09,0-.13,.01,0,.26,.04,.52,.09,.77,.11,.46,.28,.9,.49,1.32,.28,.55,.74,.99,1.08,1.51,.16,.25,.32,.52,.38,.82,.04,.23,.02,.53-.21,.66-.23,.13-.53,0-.73-.13-.22-.13-.43-.3-.62-.48-.34-.34-.66-.72-.93-1.13,0,0,0,0,0,0,.12,.31,.26,.61,.42,.89,.14,.25,.29,.52,.46,.75,.08,.11,.18,.2,.28,.3,.24,.25,.48,.5,.69,.78,.14,.2,.33,.48,.26,.73-.05,.17-.21,.31-.39,.32-.2,0-.38-.11-.53-.23-.46-.35-.82-.84-1.14-1.31-.03-.05-.07-.1-.1-.15,.07,.18,.16,.35,.26,.52-.02,.03-.03,.06-.04,.09,.17,.36,.37,.7,.62,.99,.41,.49,.99,.81,1.34,1.35,.05,.07-.02,.16-.1,.17-.59,.03-1.09-.25-1.48-.66,.16,.22,.33,.42,.5,.58,.34,.32,.74,.61,1.19,.77,.35,.12,.81,.16,1.01-.22,.09-.17,.11-.37,.09-.56,0-.11-.02-.22-.04-.32-.02-.11-.04-.23-.12-.32,0,0,0,0,0,0,.07-.04,.13-.09,.18-.16,.31-.38,.23-1,.01-1.43,.27,.03,.57-.02,.77-.23,.23-.24,.21-.56,.09-.84,.07,0,.14-.01,.2-.04,.54-.22,.39-.96,.28-1.4Z"/>
          </g>
          <g>
            <path class="cls-2" d="M45.61,79.8c.06,.03,.13,.05,.2,.06-.15,.27-.19,.59,.01,.84,.18,.22,.47,.31,.74,.3-.26,.42-.39,1.02-.11,1.43,.05,.07,.11,.13,.17,.18,0,0,0,0,0,0-.09,.07-.11,.2-.14,.3-.03,.1-.06,.21-.07,.32-.03,.19-.03,.39,.04,.57,.17,.39,.63,.4,.99,.31,.46-.12,.88-.36,1.25-.66,.67-.53,1.47-1.52,1.07-2.42,.22-.31,.4-.64,.51-.99,.17-.5,.21-1.15-.09-1.61,.1-.15,.19-.31,.26-.47,.18-.36,.31-.77,.32-1.18,0-.24-.04-.49-.09-.72-.09-.36-.31-.99-.76-1,.06-.33,.07-.68,.03-1.01-.06-.46-.22-.91-.45-1.32-.18-.32-.44-.59-.8-.7-.64-.21-1.39,.1-1.86,.56-.04,0-.07,.02-.07,.06-.03,.25-.05,.49-.04,.74,.02,1.01,.24,2.06-.23,3-.21,.41-.49,.78-.69,1.2-.12,.26-.24,.52-.33,.79-.15,.43-.37,1.15,.15,1.42Z"/>
            <path class="cls-9" d="M46.78,82.69c.34,.15,.77,.05,1.1-.1,.52-.22,.99-.58,1.38-.98,.15-.16,.3-.33,.43-.51,.05,.44-.04,.85-.28,1.23-.44,.71-1.22,1.33-2.03,1.54-.28,.08-.7,.14-.76-.23-.02-.15,0-.31,.03-.45,.04-.16,.13-.34,.13-.5Z"/>
            <path class="cls-9" d="M46.87,80.98s.01-.02,.02-.04c.74-.15,1.44-.59,2.01-1.06,.47-.39,.89-.85,1.23-1.37,.07,.24,.13,.46,.12,.72-.01,.31-.09,.6-.21,.88-.4,.95-1.22,1.79-2.15,2.23-.36,.17-1.08,.42-1.3-.08-.17-.4,.03-.97,.29-1.29Z"/>
            <path class="cls-9" d="M45.99,79.94s.01-.05,0-.08c.21-.03,.42-.14,.59-.26,.44-.29,.81-.67,1.16-1.06,.39-.43,.74-.88,1.08-1.34,.24-.33,.48-.66,.68-1.01,.18-.31,.31-.66,.39-1.02,.22,.02,.36,.21,.45,.4,.12,.24,.19,.51,.23,.78,.09,.62-.13,1.25-.44,1.78-.36,.62-.85,1.19-1.41,1.64-.56,.46-1.22,.84-1.93,1-.26,.06-.59,.09-.8-.11-.21-.2-.14-.51,0-.73Z"/>
            <path class="cls-9" d="M45.62,78.59c.09-.27,.2-.54,.32-.8,.17-.36,.39-.68,.59-1.02,.22-.39,.38-.78,.43-1.23,.11-.94-.14-1.89,0-2.83,0-.02,0-.03-.01-.05,.12-.07,.23-.15,.36-.21,.58-.31,1.39-.48,1.86,.11,.27,.34,.45,.81,.54,1.23,.09,.42,.09,.86,0,1.28-.2,.93-.81,1.7-1.38,2.44-.33,.43-.68,.84-1.06,1.22-.31,.32-.65,.64-1.05,.84-.23,.11-.6,.2-.69-.12-.08-.27,.03-.6,.11-.86Z"/>
            <path class="cls-10" d="M45.46,78.38c.09-.27,.21-.53,.33-.79,.2-.42,.48-.79,.69-1.2,.48-.94,.25-1.99,.23-3,0-.25,0-.5,.04-.74,0-.05,.04-.07,.07-.06,.2-.19,.45-.36,.72-.47,.29,.22,.52,.51,.65,.87,.16,.45,.15,.94,.07,1.4-.09,.52-.29,1.02-.5,1.5-.18,.41-.42,.78-.56,1.21-.08,.24-.16,.63,.03,.85,.14,.15,.36,.09,.51,0,.41-.24,.77-.64,1.05-1.03,.43-.58,.82-1.19,1.11-1.85,.04,0,.09,.01,.12,.02-.02,.26-.08,.51-.16,.76-.15,.45-.36,.87-.61,1.27-.33,.52-.83,.92-1.21,1.41-.18,.23-.37,.49-.45,.78-.07,.23-.07,.52,.15,.67,.22,.15,.53,.04,.74-.06,.23-.11,.46-.26,.66-.42,.37-.3,.73-.65,1.03-1.04,0,0,0,0,0,0-.14,.3-.31,.58-.5,.85-.16,.24-.34,.5-.53,.7-.09,.1-.2,.18-.3,.27-.26,.23-.53,.45-.76,.72-.16,.18-.38,.44-.33,.71,.03,.18,.18,.33,.36,.35,.2,.02,.39-.08,.55-.18,.49-.31,.89-.76,1.26-1.2,.04-.05,.08-.09,.11-.14-.09,.17-.19,.34-.3,.5,.01,.03,.02,.06,.03,.09-.2,.34-.43,.66-.71,.93-.45,.45-1.06,.72-1.46,1.22-.05,.07,0,.16,.08,.17,.59,.09,1.11-.15,1.53-.52-.18,.2-.37,.38-.55,.53-.37,.29-.79,.54-1.25,.66-.36,.09-.82,.08-.99-.31-.08-.18-.07-.38-.04-.57,.02-.11,.04-.21,.07-.32,.03-.11,.06-.23,.14-.3,0,0,0,0,0,0-.06-.05-.12-.1-.17-.18-.28-.41-.14-1.01,.11-1.43-.28,0-.56-.08-.74-.3-.21-.26-.16-.57-.01-.84-.07,0-.13-.02-.2-.06-.52-.26-.3-.99-.15-1.42Z"/>
          </g>
        </g>
      </g>
    </g>
  </g>
</svg>