<?xml version="1.0" encoding="UTF-8"?>
<svg id="Layer_2" data-name="Layer 2" xmlns="http://www.w3.org/2000/svg" viewBox="0 0 349.56 192.01">
  <defs>
    <style>
      .cls-1 {
        fill: #fdbbcb;
      }

      .cls-2 {
        fill: #95d4e9;
      }

      .cls-3 {
        fill: #fcdc3e;
      }
    </style>
  </defs>
  <g id="Layer_1-2" data-name="Layer 1">
    <g>
      <path class="cls-2" d="M163.87,90.9c-3.49,0-6.97-.34-10.44-1.02-6.28-1.08-9.88-4.91-10.8-11.5-.9-4.17-1.34-8.36-1.34-12.57v-3.8c0-17.53,.63-29.77,1.9-36.73,1.02-4.64,3.68-7.53,7.98-8.7,4.3-1.16,8.47-1.74,12.52-1.74,10.66,0,18.78,3.38,24.38,10.15,.1,.12,.2,.26,.29,.39,2.63,3.86,3.94,7.65,3.94,11.39,0,4.17-1.14,7.97-3.43,11.38-1.31,1.95-2.58,3.59-3.82,4.9-1.31,1.39-1.31,3.56,.06,4.89,5.11,4.97,7.66,10.06,7.66,15.28-.31,6.83-3.66,11.52-10.06,14.05-5.72,2.41-12,3.62-18.83,3.62Zm1.53-61.07c-.37,0-.74,.02-1.12,.05-1.52,.13-2.77,1.23-3.16,2.7-.86,3.29-1.43,6.86-1.71,10.7-.16,2.23,1.85,4.03,4.05,3.66,2.9-.48,5.6-1.3,8.1-2.46,3.15-1.58,4.75-3.83,4.78-6.77,0-1.76-1.01-3.52-3.04-5.26m-7.02,42.41c5.56,0,8.35-1.45,8.35-4.36,0-1.39-.96-2.6-2.87-3.62-2.49-1.36-5.18-2.33-8.06-2.91-2.08-.42-4.05,1.11-4.18,3.23-.06,.96-.09,1.89-.09,2.78,0,.33,0,.65,0,.97,.02,1.55,1.09,2.87,2.58,3.3,1.41,.4,2.84,.6,4.28,.6Z"/>
      <path class="cls-2" d="M204.63,92.48c-1.89,0-3.59-.63-5.12-1.88-1.53-1.25-2.3-3.38-2.3-6.38,0-2.78,1.84-9.7,5.52-20.75,3.68-11.05,7.1-21.97,10.27-32.76,3.17-10.79,7.78-16.18,13.84-16.18,2.6,0,5.12,1.03,7.56,3.08,2.44,2.06,4.3,4.92,5.57,8.6,10.33,28.75,15.49,48.15,15.49,58.2,0,4.76-2.47,7.14-7.42,7.14-2.54,0-4.59-.84-6.17-2.53s-2.66-3.92-3.25-6.7c-.53-2.61-1.24-6.25-2.11-10.93-.27-1.47-1.46-2.61-2.94-2.79-1.17-.14-2.49-.22-3.95-.24-2.29,0-4.65,.59-7.09,1.76-2.44,1.18-3.88,2.88-4.31,5.1-.77,3.93-2.23,7.56-4.36,10.9-2.78,4.24-5.86,6.35-9.23,6.35Zm18.58-42.11c-.48,2.43,1.68,4.56,4.11,4.06l.24-.05c.62-.13,1.25-.26,1.88-.38,1.9-.39,3.09-2.26,2.63-4.14-.35-1.45-.74-2.91-1.18-4.37-1.02-3.42-5.92-3.23-6.71,.26-.35,1.55-.68,3.09-.98,4.62Z"/>
      <path class="cls-2" d="M318.25,89.84c-5.32-.06-8.1-2.4-8.35-7-.06-.71-.09-1.61-.09-2.69,0-3.09,.33-8.01,1-14.75,.26-2.62,.47-5.27,.64-7.95,.23-3.65-4.59-5.16-6.43-2-1.39,2.38-2.93,5.08-4.61,8.09-1.33,2.35-3.48,3.53-6.45,3.53-1.89,0-3.46-.73-4.73-2.2-.6-.7-1.61-2.32-3.01-4.88-1.73-3.13-6.49-1.92-6.49,1.65h0s.19,20.96,.19,20.96c0,4.48-2.32,6.77-6.96,6.86-3.68,0-6.29-1.51-7.84-4.52-1.55-3.01-2.41-7.12-2.6-12.31-.12-3.28-.19-6.52-.19-9.74,0-12.74,.21-22.1,.62-28.08,.42-5.98,1.28-10.86,2.57-14.63,1.3-3.77,3.49-5.66,6.59-5.66,3.43,0,6.68,2.02,9.74,6.07,2.52,3.34,5.95,9.04,10.29,17.11,1.28,2.37,4.64,2.46,6.03,.15,3.1-5.17,7.08-11.32,11.92-18.46,1.58-2.66,4.05-3.99,7.42-3.99,7.98,0,11.97,10.88,11.97,32.65,0,12.21-.54,21.18-1.62,26.9-1.92,9.92-5.12,14.89-9.6,14.89Z"/>
      <path class="cls-1" d="M161.59,166.63c-3.08,0-6.14-.3-9.18-.9-5.52-.95-8.69-4.33-9.51-10.12-.79-3.67-1.18-7.36-1.18-11.06v-3.35c0-15.43,.56-26.2,1.67-32.32,.9-4.08,3.24-6.63,7.02-7.65,3.78-1.02,7.45-1.53,11.02-1.53,9.38,0,16.52,2.98,21.45,8.93,.09,.11,.19,.24,.27,.36,2.31,3.39,3.46,6.73,3.46,10.02,0,3.67-1.01,7.01-3.02,10.02-1.15,1.72-2.27,3.15-3.36,4.31-1.16,1.23-1.12,3.17,.09,4.35,4.46,4.36,6.69,8.83,6.69,13.4-.27,6.01-3.22,10.14-8.86,12.37-5.03,2.12-10.56,3.18-16.57,3.18Zm-3.91-42.04c-.15,2.03,1.67,3.68,3.67,3.33,2.51-.43,4.84-1.14,7.01-2.14,2.77-1.39,4.18-3.37,4.2-5.96,0-1.55-.89-3.09-2.67-4.63-1.78-1.54-4.1-2.31-6.96-2.31-.3,0-.61,.01-.93,.04-1.38,.11-2.51,1.12-2.86,2.46-.73,2.84-1.23,5.91-1.47,9.21Zm6.03,27.92c4.9,0,7.35-1.28,7.35-3.84,0-1.22-.84-2.29-2.53-3.18-2.16-1.18-4.49-2.03-6.99-2.54-1.89-.38-3.67,1.01-3.79,2.93-.05,.81-.07,1.59-.07,2.34,0,.26,0,.53,0,.78,.02,1.41,.98,2.61,2.33,2.99,1.22,.34,2.46,.51,3.7,.51Z"/>
      <path class="cls-1" d="M201.3,167.98c-2.45,0-4.16-1.02-5.14-3.06-.98-2.04-1.52-3.97-1.63-5.8-.68-12.32-1.02-27.77-1.02-32.34,0-2.07,.12-4.21,.35-6.43,.23-2.22,.86-4.22,1.88-6.02,1.02-1.8,3.07-2.69,6.14-2.69,2.5,0,4.34,.71,5.51,2.14,1.17,1.43,1.86,3.56,2.08,6.39,.79,11.21,1.18,26.63,1.18,32.26,0,6.69-.86,11.16-2.57,13.39-1.17,1.44-3.43,2.16-6.77,2.16Z"/>
      <path class="cls-1" d="M227.01,165.47c-4,0-6.48-1.54-7.43-4.61-.95-3.07-1.46-6.24-1.51-9.51-.33-13.14-.57-26.38-.73-39.71,0-4.24,.5-7.24,1.51-9,1.01-1.76,2.92-2.63,5.75-2.63,2.18,0,4.2,1.02,6.06,3.06,1.86,2.04,3.77,4.73,5.73,8.08,1.82,3.18,5.05,9.08,9.7,17.7,1.6,2.97,6.12,1.66,5.89-1.7-.66-9.63-.99-14.99-.99-16.08,0-9.09,2.29-13.63,6.86-13.63,3.67,0,6.12,2.16,7.35,6.49,2.23,7.51,3.43,18.41,3.59,32.69,0,6.12-.5,11.57-1.49,16.34-.99,4.77-2.46,7.87-4.39,9.28-1.93,1.41-3.89,2.12-5.88,2.12s-3.82-.78-5.57-2.35c-1.31-1.17-5.14-6.59-11.49-16.27-1.8-2.74-6.06-1.22-5.74,2.04,.38,3.83,.56,6.62,.56,8.38,0,3.62-.74,6.08-2.22,7.37-1.48,1.29-3.34,1.94-5.57,1.94Z"/>
      <path class="cls-1" d="M301.82,167.47c-9.85,0-16.84-3.34-20.98-10.02-4.14-6.68-6.2-14.7-6.2-24.06s2.35-17,7.04-23.59c4.69-6.58,11.8-9.88,21.32-9.88,8.98,0,15.67,2.84,20.06,8.53,4.39,5.69,6.67,13.32,6.84,22.9-.11,7.7-1.28,14.14-3.51,19.32-2.23,5.18-5.45,9.28-9.65,12.28-4.2,3.01-9.18,4.51-14.92,4.51Zm.33-15.71c3.62,0,6.54-1.54,8.77-4.63,2.23-3.09,3.35-7.58,3.35-13.49,0-6.58-1.09-11.2-3.27-13.86-2.18-2.65-5.1-3.98-8.77-3.98-3.4,0-6.23,1.77-8.49,5.33-2.26,3.55-3.39,8.25-3.39,14.1,0,6.34,.98,10.68,2.94,13.02,1.96,2.34,4.91,3.51,8.86,3.51Z"/>
      <path class="cls-1" d="M94.16,79.54c-2.26,6.28-5.78,11.96-10.26,16.74,11.15,7.43,18.52,20.11,18.52,34.48,0,22.83-18.57,41.4-41.4,41.4s-41.4-18.57-41.4-41.4c0-8.93,2.86-17.21,7.69-23.98C12.19,99.43,1.49,84.47,.13,66.89v60.03C.05,128.2,0,129.47,0,130.76,0,164.46,27.32,191.78,61.02,191.78s61.02-27.32,61.02-61.02c0-21.48-11.1-40.35-27.87-51.22Z"/>
      <path class="cls-3" d="M41.8,138.62c2.36-.56,4.75,.58,5.93,2.7,3.47,6.27,10.82,9.74,18.12,7.99,7.3-1.75,12.28-8.17,12.54-15.33,.09-2.48,1.91-4.57,4.32-5.15h0c3.54-.85,6.91,1.92,6.78,5.56-.43,12.03-8.78,22.79-21.06,25.73-12.28,2.94-24.6-2.87-30.43-13.4-1.76-3.19-.01-7.18,3.53-8.03l.26-.06Z"/>
      <path class="cls-2" d="M60.93,16.22c-7.09-2.79-13.27-6.13-14.2-15.51-.09-.86-1.29-.97-1.54-.14-1.85,6.2-1.39,10.67,1.47,14.07-.96,.04-1.91,.1-2.85,.2-1.98-2.29-3.32-5.29-3.65-9.43-.06-.76-1.15-.87-1.37-.14-1.31,4.22-1.58,7.65-.79,10.5C20.96,19.51,7.29,32.2,2.16,48.67c-1.4,4.54-2.16,9.36-2.16,14.36,0,1.15,.05,2.28,.13,3.41v.46c1.35,17.58,12.06,32.54,27.17,39.89,.02-.03,.04-.06,.06-.09,6.39,3.1,13.57,4.84,21.15,4.84,13.94,0,26.49-5.89,35.34-15.3,.02,.01,.04,.03,.06,.04,4.48-4.78,8-10.46,10.26-16.74,0,0-.02-.01-.03-.02,1.16-3.2,1.99-6.56,2.45-10.03,0-.05,.01-.1,.02-.14,.08-.63,.15-1.26,.21-1.89,.02-.19,.03-.38,.04-.58,.04-.52,.08-1.05,.1-1.57,.02-.52,.03-1.04,.04-1.56,0-.22,.01-.44,.01-.67-.02-22.48-15.33-41.37-36.09-46.86Zm-12.42,75.71c-15.93,0-28.9-12.96-28.9-28.9s12.96-28.89,28.9-28.89,28.89,12.96,28.89,28.89-12.96,28.9-28.89,28.9Z"/>
      <path class="cls-3" d="M193.8,99.93c-.39,0-.7,.37-.59,.75,.38,1.34,1.07,2.59,2.07,3.76,1.62,1.88,3.76,2.82,6.43,2.82,2.23,0,4.25-.91,6.06-2.73,1.14-1.15,1.92-2.41,2.34-3.78,.12-.4-.16-.8-.58-.8h-15.73Z"/>
      <g>
        <path class="cls-1" d="M147.93,178.08c0-.93,.74-1.67,1.67-1.67s1.67,.74,1.67,1.67v5.11l6.17-6.13c.41-.41,.83-.65,1.41-.65,.93,0,1.54,.72,1.54,1.54,0,.52-.24,.91-.61,1.26l-4.28,4,4.67,5.87c.26,.33,.46,.67,.46,1.17,0,.93-.72,1.63-1.7,1.63-.65,0-1.04-.33-1.41-.8l-4.35-5.69-1.91,1.78v3.04c0,.93-.74,1.67-1.67,1.67s-1.67-.74-1.67-1.67v-12.12Z"/>
        <path class="cls-1" d="M163.55,178.08c0-.93,.74-1.67,1.67-1.67s1.67,.74,1.67,1.67v12.12c0,.93-.74,1.67-1.67,1.67s-1.67-.74-1.67-1.67v-12.12Z"/>
        <path class="cls-1" d="M170.7,178.21c0-.93,.74-1.67,1.67-1.67h4.26c4.78,0,8.08,3.28,8.08,7.56v.04c0,4.28-3.3,7.6-8.08,7.6h-4.26c-.93,0-1.67-.74-1.67-1.67v-11.86Zm5.93,10.52c2.74,0,4.58-1.85,4.58-4.54v-.04c0-2.69-1.85-4.58-4.58-4.58h-2.59v9.17h2.59Z"/>
        <path class="cls-1" d="M187.17,190.14c-.37-.26-.63-.74-.63-1.26,0-.87,.7-1.54,1.56-1.54,.43,0,.74,.15,.96,.3,1.15,.85,2.41,1.37,3.89,1.37,1.37,0,2.19-.54,2.19-1.43v-.04c0-.85-.52-1.28-3.06-1.93-3.06-.78-5.04-1.63-5.04-4.65v-.04c0-2.76,2.22-4.58,5.32-4.58,1.85,0,3.46,.48,4.82,1.35,.37,.22,.74,.67,.74,1.33,0,.87-.7,1.54-1.56,1.54-.33,0-.59-.09-.85-.24-1.11-.65-2.15-1.02-3.19-1.02-1.28,0-1.96,.59-1.96,1.33v.04c0,1,.65,1.33,3.28,2,3.09,.8,4.82,1.91,4.82,4.56v.04c0,3.02-2.3,4.72-5.58,4.72-2,0-4.02-.61-5.71-1.83Z"/>
        <path class="cls-1" d="M207.6,190.14c-.37-.26-.63-.74-.63-1.26,0-.87,.7-1.54,1.56-1.54,.43,0,.74,.15,.96,.3,1.15,.85,2.41,1.37,3.89,1.37,1.37,0,2.19-.54,2.19-1.43v-.04c0-.85-.52-1.28-3.06-1.93-3.06-.78-5.04-1.63-5.04-4.65v-.04c0-2.76,2.22-4.58,5.32-4.58,1.85,0,3.46,.48,4.82,1.35,.37,.22,.74,.67,.74,1.33,0,.87-.7,1.54-1.56,1.54-.33,0-.59-.09-.85-.24-1.11-.65-2.15-1.02-3.19-1.02-1.28,0-1.96,.59-1.96,1.33v.04c0,1,.65,1.33,3.28,2,3.08,.8,4.82,1.91,4.82,4.56v.04c0,3.02-2.3,4.72-5.58,4.72-2,0-4.02-.61-5.71-1.83Z"/>
        <path class="cls-1" d="M220.85,189.6l5.3-11.97c.37-.83,1.04-1.33,1.96-1.33h.2c.91,0,1.56,.5,1.93,1.33l5.3,11.97c.11,.24,.17,.46,.17,.67,0,.89-.7,1.61-1.59,1.61-.78,0-1.3-.46-1.61-1.15l-1.02-2.39h-6.69l-1.06,2.5c-.28,.65-.85,1.04-1.54,1.04-.87,0-1.54-.7-1.54-1.56,0-.24,.09-.48,.2-.72Zm9.41-4.21l-2.11-5.02-2.11,5.02h4.21Z"/>
        <path class="cls-1" d="M238.35,178.08c0-.93,.74-1.67,1.67-1.67s1.67,.74,1.67,1.67v10.62h6.19c.85,0,1.52,.67,1.52,1.52s-.67,1.52-1.52,1.52h-7.87c-.93,0-1.67-.74-1.67-1.67v-11.99Z"/>
        <path class="cls-1" d="M250.25,184.19v-.04c0-4.32,3.41-7.87,8.1-7.87s8.06,3.5,8.06,7.82v.04c0,4.32-3.41,7.87-8.1,7.87s-8.06-3.5-8.06-7.82Zm12.67,0v-.04c0-2.61-1.91-4.78-4.61-4.78s-4.56,2.13-4.56,4.74v.04c0,2.61,1.91,4.78,4.61,4.78s4.56-2.13,4.56-4.74Z"/>
        <path class="cls-1" d="M269.4,178.12c0-.93,.74-1.67,1.67-1.67h.35c.8,0,1.28,.39,1.74,.98l6.45,8.47v-7.84c0-.91,.74-1.65,1.65-1.65s1.65,.74,1.65,1.65v12.1c0,.93-.74,1.67-1.67,1.67h-.11c-.8,0-1.28-.39-1.74-.98l-6.69-8.78v8.15c0,.91-.74,1.65-1.65,1.65s-1.65-.74-1.65-1.65v-12.1Z"/>
      </g>
      <g>
        <path class="cls-2" d="M336.89,25.45h-1.18c-.31,0-.57-.26-.57-.57s.25-.57,.57-.57h3.59c.31,0,.57,.26,.57,.57s-.26,.57-.57,.57h-1.18v3.89c0,.34-.27,.61-.61,.61s-.62-.27-.62-.61v-3.89Z"/>
        <path class="cls-2" d="M340.76,24.9c0-.34,.27-.61,.62-.61h.14c.26,0,.45,.14,.56,.32l1.48,2.42,1.49-2.43c.13-.21,.3-.31,.55-.31h.14c.34,0,.61,.27,.61,.61v4.44c0,.34-.27,.61-.61,.61s-.61-.28-.61-.61v-2.79l-1.08,1.66c-.13,.19-.29,.31-.51,.31s-.38-.12-.51-.31l-1.06-1.64v2.78c0,.34-.27,.6-.61,.6s-.6-.26-.6-.6v-4.45Z"/>
      </g>
      <path class="cls-2" d="M340.96,35.45c-4.74,0-8.6-3.86-8.6-8.6s3.86-8.6,8.6-8.6,8.6,3.86,8.6,8.6-3.86,8.6-8.6,8.6Zm0-16.2c-4.19,0-7.6,3.41-7.6,7.6s3.41,7.6,7.6,7.6,7.6-3.41,7.6-7.6-3.41-7.6-7.6-7.6Z"/>
    </g>
  </g>
</svg>