<?xml version="1.0" encoding="utf-8"?>
<!-- Generator: Adobe Illustrator 26.5.0, SVG Export Plug-In . SVG Version: 6.00 Build 0)  -->
<svg version="1.1" id="Layer_2_00000047028920185023263170000002223022596743638444_"
	 xmlns="http://www.w3.org/2000/svg" xmlns:xlink="http://www.w3.org/1999/xlink" x="0px" y="0px" viewBox="0 0 349.6 192"
	 style="enable-background:new 0 0 349.6 192;" xml:space="preserve">
<style type="text/css">
	.st0{fill:#FFFFFF;}
</style>
<g id="Layer_1-2">
	<g>
		<path class="st0" d="M163.9,90.9c-3.5,0-7-0.3-10.4-1c-6.3-1.1-9.9-4.9-10.8-11.5c-0.9-4.2-1.3-8.4-1.3-12.6V62
			c0-17.5,0.6-29.8,1.9-36.7c1-4.6,3.7-7.5,8-8.7s8.5-1.7,12.5-1.7c10.7,0,18.8,3.4,24.4,10.1c0.1,0.1,0.2,0.3,0.3,0.4
			c2.6,3.9,3.9,7.7,3.9,11.4c0,4.2-1.1,8-3.4,11.4c-1.3,2-2.6,3.6-3.8,4.9c-1.3,1.4-1.3,3.6,0.1,4.9c5.1,5,7.7,10.1,7.7,15.3
			c-0.3,6.8-3.7,11.5-10.1,14.1C177,89.7,170.7,90.9,163.9,90.9L163.9,90.9z M165.4,29.8c-0.4,0-0.7,0-1.1,0
			c-1.5,0.1-2.8,1.2-3.2,2.7c-0.9,3.3-1.4,6.9-1.7,10.7c-0.2,2.2,1.9,4,4.1,3.7c2.9-0.5,5.6-1.3,8.1-2.5c3.1-1.6,4.8-3.8,4.8-6.8
			c0-1.8-1-3.5-3-5.3 M166.3,74.9c5.6,0,8.4-1.4,8.4-4.4c0-1.4-1-2.6-2.9-3.6c-2.5-1.4-5.2-2.3-8.1-2.9c-2.1-0.4-4.1,1.1-4.2,3.2
			c-0.1,1-0.1,1.9-0.1,2.8c0,0.3,0,0.7,0,1c0,1.6,1.1,2.9,2.6,3.3C163.4,74.7,164.9,74.8,166.3,74.9L166.3,74.9z"/>
		<path class="st0" d="M204.6,92.5c-1.9,0-3.6-0.6-5.1-1.9s-2.3-3.4-2.3-6.4c0-2.8,1.8-9.7,5.5-20.8c3.7-11,7.1-22,10.3-32.8
			s7.8-16.2,13.8-16.2c2.6,0,5.1,1,7.6,3.1c2.4,2.1,4.3,4.9,5.6,8.6c10.3,28.8,15.5,48.2,15.5,58.2c0,4.8-2.5,7.1-7.4,7.1
			c-2.5,0-4.6-0.8-6.2-2.5s-2.7-3.9-3.2-6.7c-0.5-2.6-1.2-6.2-2.1-10.9c-0.3-1.5-1.5-2.6-2.9-2.8c-1.2-0.1-2.5-0.2-3.9-0.2
			c-2.3,0-4.6,0.6-7.1,1.8c-2.4,1.2-3.9,2.9-4.3,5.1c-0.8,3.9-2.2,7.6-4.4,10.9C211.1,90.4,208,92.5,204.6,92.5L204.6,92.5z
			 M223.2,50.4c-0.5,2.4,1.7,4.6,4.1,4.1h0.2c0.6-0.1,1.2-0.3,1.9-0.4c1.9-0.4,3.1-2.3,2.6-4.1c-0.4-1.5-0.7-2.9-1.2-4.4
			c-1-3.4-5.9-3.2-6.7,0.3C223.8,47.3,223.5,48.8,223.2,50.4L223.2,50.4z"/>
		<path class="st0" d="M318.2,89.8c-5.3-0.1-8.1-2.4-8.4-7c-0.1-0.7-0.1-1.6-0.1-2.7c0-3.1,0.3-8,1-14.8c0.3-2.6,0.5-5.3,0.6-8
			c0.2-3.7-4.6-5.2-6.4-2c-1.4,2.4-2.9,5.1-4.6,8.1c-1.3,2.3-3.5,3.5-6.5,3.5c-1.9,0-3.5-0.7-4.7-2.2c-0.6-0.7-1.6-2.3-3-4.9
			c-1.7-3.1-6.5-1.9-6.5,1.7l0,0l0.2,21c0,4.5-2.3,6.8-7,6.9c-3.7,0-6.3-1.5-7.8-4.5s-2.4-7.1-2.6-12.3c-0.1-3.3-0.2-6.5-0.2-9.7
			c0-12.7,0.2-22.1,0.6-28.1s1.3-10.9,2.6-14.6c1.3-3.8,3.5-5.7,6.6-5.7c3.4,0,6.7,2,9.7,6.1c2.5,3.3,6,9,10.3,17.1
			c1.3,2.4,4.6,2.5,6,0.2c3.1-5.2,7.1-11.3,11.9-18.5c1.6-2.7,4-4,7.4-4c8,0,12,10.9,12,32.7c0,12.2-0.5,21.2-1.6,26.9
			C325.9,84.9,322.7,89.8,318.2,89.8L318.2,89.8z"/>
		<path class="st0" d="M161.6,166.6c-3.1,0-6.1-0.3-9.2-0.9c-5.5-0.9-8.7-4.3-9.5-10.1c-0.8-3.7-1.2-7.4-1.2-11.1v-3.4
			c0-15.4,0.6-26.2,1.7-32.3c0.9-4.1,3.2-6.6,7-7.7c3.8-1,7.4-1.5,11-1.5c9.4,0,16.5,3,21.4,8.9c0.1,0.1,0.2,0.2,0.3,0.4
			c2.3,3.4,3.5,6.7,3.5,10c0,3.7-1,7-3,10c-1.1,1.7-2.3,3.1-3.4,4.3c-1.2,1.2-1.1,3.2,0.1,4.4c4.5,4.4,6.7,8.8,6.7,13.4
			c-0.3,6-3.2,10.1-8.9,12.4C173.1,165.6,167.6,166.6,161.6,166.6L161.6,166.6z M157.7,124.6c-0.1,2,1.7,3.7,3.7,3.3
			c2.5-0.4,4.8-1.1,7-2.1c2.8-1.4,4.2-3.4,4.2-6c0-1.6-0.9-3.1-2.7-4.6s-4.1-2.3-7-2.3c-0.3,0-0.6,0-0.9,0c-1.4,0.1-2.5,1.1-2.9,2.5
			C158.4,118.2,157.9,121.3,157.7,124.6L157.7,124.6z M163.7,152.5c4.9,0,7.4-1.3,7.4-3.8c0-1.2-0.8-2.3-2.5-3.2
			c-2.2-1.2-4.5-2-7-2.5c-1.9-0.4-3.7,1-3.8,2.9c-0.1,0.8-0.1,1.6-0.1,2.3c0,0.3,0,0.5,0,0.8c0,1.4,1,2.6,2.3,3
			C161.2,152.3,162.5,152.5,163.7,152.5L163.7,152.5z"/>
		<path class="st0" d="M201.3,168c-2.4,0-4.2-1-5.1-3.1s-1.5-4-1.6-5.8c-0.7-12.3-1-27.8-1-32.3c0-2.1,0.1-4.2,0.4-6.4
			c0.2-2.2,0.9-4.2,1.9-6s3.1-2.7,6.1-2.7c2.5,0,4.3,0.7,5.5,2.1s1.9,3.6,2.1,6.4c0.8,11.2,1.2,26.6,1.2,32.3
			c0,6.7-0.9,11.2-2.6,13.4C206.9,167.3,204.6,168,201.3,168L201.3,168z"/>
		<path class="st0" d="M227,165.5c-4,0-6.5-1.5-7.4-4.6s-1.5-6.2-1.5-9.5c-0.3-13.1-0.6-26.4-0.7-39.7c0-4.2,0.5-7.2,1.5-9
			s2.9-2.6,5.8-2.6c2.2,0,4.2,1,6.1,3.1s3.8,4.7,5.7,8.1c1.8,3.2,5.1,9.1,9.7,17.7c1.6,3,6.1,1.7,5.9-1.7c-0.7-9.6-1-15-1-16.1
			c0-9.1,2.3-13.6,6.9-13.6c3.7,0,6.1,2.2,7.4,6.5c2.2,7.5,3.4,18.4,3.6,32.7c0,6.1-0.5,11.6-1.5,16.3s-2.5,7.9-4.4,9.3
			c-1.9,1.4-3.9,2.1-5.9,2.1s-3.8-0.8-5.6-2.4c-1.3-1.2-5.1-6.6-11.5-16.3c-1.8-2.7-6.1-1.2-5.7,2c0.4,3.8,0.6,6.6,0.6,8.4
			c0,3.6-0.7,6.1-2.2,7.4S229.2,165.5,227,165.5L227,165.5z"/>
		<path class="st0" d="M301.8,167.5c-9.9,0-16.8-3.3-21-10c-4.1-6.7-6.2-14.7-6.2-24.1s2.4-17,7-23.6c4.7-6.6,11.8-9.9,21.3-9.9
			c9,0,15.7,2.8,20.1,8.5s6.7,13.3,6.8,22.9c-0.1,7.7-1.3,14.1-3.5,19.3s-5.5,9.3-9.6,12.3C312.5,166,307.6,167.5,301.8,167.5
			L301.8,167.5z M302.1,151.8c3.6,0,6.5-1.5,8.8-4.6c2.2-3.1,3.4-7.6,3.4-13.5c0-6.6-1.1-11.2-3.3-13.9c-2.2-2.7-5.1-4-8.8-4
			c-3.4,0-6.2,1.8-8.5,5.3c-2.3,3.6-3.4,8.2-3.4,14.1c0,6.3,1,10.7,2.9,13C295.2,150.6,298.2,151.8,302.1,151.8L302.1,151.8z"/>
		<path class="st0" d="M94.2,79.5c-2.3,6.3-5.8,12-10.3,16.7c11.2,7.4,18.5,20.1,18.5,34.5c0,22.8-18.6,41.4-41.4,41.4
			s-41.4-18.6-41.4-41.4c0-8.9,2.9-17.2,7.7-24C12.2,99.4,1.5,84.5,0.1,66.9v60C0,128.2,0,129.5,0,130.7c0,33.7,27.3,61,61,61
			s61-27.3,61-61C122,109.3,110.9,90.4,94.2,79.5L94.2,79.5z"/>
		<path class="st0" d="M41.8,138.6c2.4-0.6,4.8,0.6,5.9,2.7c3.5,6.3,10.8,9.7,18.1,8s12.3-8.2,12.5-15.3c0.1-2.5,1.9-4.6,4.3-5.1
			l0,0c3.5-0.8,6.9,1.9,6.8,5.6c-0.4,12-8.8,22.8-21.1,25.7s-24.6-2.9-30.4-13.4c-1.8-3.2,0-7.2,3.5-8L41.8,138.6L41.8,138.6z"/>
		<path class="st0" d="M60.9,16.2c-7.1-2.8-13.3-6.1-14.2-15.5c-0.1-0.9-1.3-1-1.5-0.1c-1.8,6.2-1.4,10.7,1.5,14.1
			c-1,0-1.9,0.1-2.8,0.2c-2-2.3-3.3-5.3-3.7-9.4c-0.1-0.8-1.2-0.9-1.4-0.1c-1.3,4.2-1.6,7.7-0.8,10.5C21,19.5,7.3,32.2,2.2,48.7
			C0.8,53.2,0,58,0,63c0,1.2,0.1,2.3,0.1,3.4v0.5c1.4,17.6,12.1,32.5,27.2,39.9c0,0,0-0.1,0.1-0.1c6.4,3.1,13.6,4.8,21.1,4.8
			c13.9,0,26.5-5.9,35.3-15.3c0,0,0,0,0.1,0c4.5-4.8,8-10.5,10.3-16.7l0,0c1.2-3.2,2-6.6,2.4-10c0-0.1,0-0.1,0-0.1
			c0.1-0.6,0.2-1.3,0.2-1.9c0-0.2,0-0.4,0-0.6c0-0.5,0.1-1.1,0.1-1.6s0-1,0-1.6c0-0.2,0-0.4,0-0.7C97,40.6,81.7,21.7,60.9,16.2
			L60.9,16.2z M48.5,91.9c-15.9,0-28.9-13-28.9-28.9s13-28.9,28.9-28.9s28.9,13,28.9,28.9S64.4,91.9,48.5,91.9z"/>
		<path class="st0" d="M193.8,99.9c-0.4,0-0.7,0.4-0.6,0.8c0.4,1.3,1.1,2.6,2.1,3.8c1.6,1.9,3.8,2.8,6.4,2.8c2.2,0,4.2-0.9,6.1-2.7
			c1.1-1.2,1.9-2.4,2.3-3.8c0.1-0.4-0.2-0.8-0.6-0.8L193.8,99.9L193.8,99.9z"/>
		<g>
			<path class="st0" d="M336.9,25.5h-1.2c-0.3,0-0.6-0.3-0.6-0.6s0.2-0.6,0.6-0.6h3.6c0.3,0,0.6,0.3,0.6,0.6s-0.3,0.6-0.6,0.6h-1.2
				v3.9c0,0.3-0.3,0.6-0.6,0.6s-0.6-0.3-0.6-0.6L336.9,25.5L336.9,25.5z"/>
			<path class="st0" d="M340.8,24.9c0-0.3,0.3-0.6,0.6-0.6h0.1c0.3,0,0.5,0.1,0.6,0.3l1.5,2.4l1.5-2.4c0.1-0.2,0.3-0.3,0.5-0.3h0.1
				c0.3,0,0.6,0.3,0.6,0.6v4.4c0,0.3-0.3,0.6-0.6,0.6s-0.6-0.3-0.6-0.6v-2.8l-1.1,1.7c-0.1,0.2-0.3,0.3-0.5,0.3s-0.4-0.1-0.5-0.3
				l-1.1-1.6v2.8c0,0.3-0.3,0.6-0.6,0.6s-0.6-0.3-0.6-0.6L340.8,24.9L340.8,24.9z"/>
		</g>
		<path class="st0" d="M341,35.5c-4.7,0-8.6-3.9-8.6-8.6s3.9-8.6,8.6-8.6s8.6,3.9,8.6,8.6S345.7,35.5,341,35.5z M341,19.2
			c-4.2,0-7.6,3.4-7.6,7.6s3.4,7.6,7.6,7.6s7.6-3.4,7.6-7.6S345.1,19.2,341,19.2z"/>
	</g>
</g>
</svg>
