<?xml version="1.0" encoding="UTF-8"?>
<svg id="Layer_2" data-name="Layer 2" xmlns="http://www.w3.org/2000/svg" xmlns:xlink="http://www.w3.org/1999/xlink" viewBox="0 0 300 300">
  <defs>
    <style>
      .cls-1 {
        fill: #d99388;
      }

      .cls-2 {
        fill: #f3c8c0;
      }

      .cls-3 {
        fill: #e6aea5;
      }

      .cls-4 {
        fill: #ebb2a8;
      }

      .cls-5 {
        fill: #96ddcc;
      }

      .cls-6 {
        fill: #f4bdb3;
      }

      .cls-7 {
        fill: #fff;
      }

      .cls-8 {
        fill: #ecaea4;
      }

      .cls-9 {
        fill: #eab6ae;
      }

      .cls-10 {
        fill: #ebb0a5;
      }

      .cls-11 {
        fill: #abddd5;
      }

      .cls-12 {
        fill: #eab7ae;
      }

      .cls-13 {
        fill: #f3c1b8;
      }

      .cls-14 {
        fill: #8ac4bc;
      }

      .cls-15 {
        fill: #ecb0a5;
      }

      .cls-16 {
        fill: #9cd6c8;
      }

      .cls-17 {
        fill: #ebada1;
      }

      .cls-18 {
        fill: #eab8b0;
      }

      .cls-19 {
        fill: #e4aea5;
      }

      .cls-20 {
        fill: #ebb3a8;
      }

      .cls-21 {
        fill: #99d9ca;
      }

      .cls-22 {
        fill: #f2cfc9;
      }

      .cls-23 {
        fill: #70a59e;
      }

      .cls-24 {
        fill: #e0a39a;
      }

      .cls-25 {
        fill: #ecafa4;
      }

      .cls-26 {
        fill: #70a2a4;
      }

      .cls-27 {
        fill: #f3c9c1;
      }

      .cls-28 {
        fill: #db978c;
      }

      .cls-29 {
        fill: #e9b3aa;
      }

      .cls-30 {
        fill: #ebb3a9;
      }

      .cls-31 {
        fill: #b3ece1;
      }

      .cls-32 {
        fill: #e2aaa1;
      }

      .cls-33 {
        fill: #f4bfb5;
      }

      .cls-34 {
        fill: #edab9e;
      }

      .cls-35 {
        fill: #ebb5ac;
      }

      .cls-36 {
        fill: #ecada2;
      }

      .cls-37 {
        fill: #f4bdb2;
      }

      .cls-38 {
        fill: #edb4a9;
      }

      .cls-39 {
        fill: #b7efe3;
      }

      .cls-40 {
        fill: #f2cfc8;
      }

      .cls-41 {
        fill: #ebab9f;
      }

      .cls-42 {
        fill: #eab7af;
      }

      .cls-43 {
        fill: #b3f3e5;
      }

      .cls-44 {
        fill: #dc9b91;
      }

      .cls-45 {
        fill: #de9f95;
      }

      .cls-46 {
        clip-path: url(#clippath);
      }

      .cls-47 {
        fill: #b1e7dd;
      }

      .cls-48 {
        fill: #e5a69a;
      }

      .cls-49 {
        fill: #ecb0a6;
      }

      .cls-50 {
        fill: #ecaa9d;
      }

      .cls-51 {
        fill: #b2e0d9;
      }

      .cls-52 {
        fill: #abe4da;
      }

      .cls-53 {
        fill: #97dbca;
      }

      .cls-54 {
        fill: #8ac3ba;
      }

      .cls-55 {
        fill: #96d5c5;
      }

      .cls-56 {
        fill: #e1a197;
      }

      .cls-57 {
        fill: #e4a59b;
      }

      .cls-58 {
        fill: #e3a89e;
      }

      .cls-59 {
        fill: #f1a89b;
      }

      .cls-60 {
        fill: #e9a89c;
      }

      .cls-61 {
        fill: #e7a89d;
      }

      .cls-62 {
        fill: #b5f7e7;
      }

      .cls-63 {
        fill: #6e9b9c;
      }

      .cls-64 {
        fill: #dc9b90;
      }

      .cls-65 {
        fill: #ace8dd;
      }

      .cls-66 {
        fill: #eab4ab;
      }

      .cls-67 {
        fill: #e8bab2;
      }

      .cls-68 {
        fill: #afe8dc;
      }

      .cls-69 {
        fill: #83bdb4;
      }

      .cls-70 {
        fill: #74a9a8;
      }

      .cls-71 {
        fill: #eda99d;
      }

      .cls-72 {
        fill: #edac9f;
      }

      .cls-73 {
        fill: #e09a8e;
      }

      .cls-74 {
        fill: #e4a093;
      }

      .cls-75 {
        fill: #f3cbc4;
      }

      .cls-76 {
        fill: #e1a59c;
      }

      .cls-77 {
        fill: #b2f0e1;
      }

      .cls-78 {
        fill: #f3c8bf;
      }

      .cls-79 {
        fill: #eab4aa;
      }

      .cls-80 {
        fill: #ebafa5;
      }

      .cls-81 {
        fill: #f3bfb5;
      }

      .cls-82 {
        fill: #ecaea2;
      }

      .cls-83 {
        fill: #dc9488;
      }

      .cls-84 {
        fill: #e5a99f;
      }
    </style>
    <clipPath id="clippath">
      <circle class="cls-7" cx="150" cy="150" r="150" transform="translate(-62.13 150) rotate(-45)"/>
    </clipPath>
  </defs>
  <g id="OBJECTS">
    <g>
      <circle class="cls-7" cx="150" cy="150" r="150" transform="translate(-62.13 150) rotate(-45)"/>
      <g class="cls-46">
        <g>
          <path class="cls-71" d="M192.87,111.61c1.12,3.91,3.14,7.51,3.83,11.56,.64,3.72,1.67,7.37,2.04,11.14-.24,.05-.65-.03-.62,.33,.7,9.58,.3,19.14-1,28.62-.68,4.95-1.62,9.81-.72,14.81,.05,.28,.05,.59-.04,.86-1.31,3.67-2.26,7.42-2.71,11.29-1.45,0-1.57-1.16-1.84-2.15-.2-.74-.13-1.52-.2-2.29-.47-5.06-2.34-7.35-7.28-7.91-6.35-.72-9.26-4.98-11.48-10.21-1.27-2.98-2.02-6.16-3.7-9-1.76-2.97-1.25-6.34-.88-9.56,.25-2.13,.21-4.11-.38-6.22-.84-3.01,.21-6.07,.42-9.11,.21-2.96,.77-5.88,1.06-8.83,.08-.81,0-1.5-.41-2.17-.46-2.38-.15-4.56,1.57-6.4,1.32,.18,1.23,1.3,1.38,2.19,.29,1.7,.57,3.39,.62,5.12,.09,3.28,.36,3.49,3.74,3.52,1.72,.01,3.45-.02,5.17,0,2.23,.03,3.58-1.22,3.64-3.25,.15-5.05-.19-10.1-.8-15.11-.35-2.87-2.19-4.8-4.9-5.86,.41-1.47,.71-1.71,2.35-1.51,3.57,.44,6.48,2.03,8.51,5.07,.87,1.69,2.63,2.93,2.62,5.07Z"/>
          <path class="cls-50" d="M227.58,281.77c.01,.18-.02,.35-.1,.51-.18,.21-.35,.41-.47,.66,.02,.17-.01,.33-.09,.49-.19,.21-.38,.42-.48,.69,.02,.16,0,.31-.07,.45-.33,.3-.2,.83-.55,1.12v.02c-.34,.31-.23,.84-.57,1.14h0c-.34,.32-.24,.85-.56,1.17h0c-.37,.3-.27,.83-.57,1.17l.02-.02c-.29,.28-.47,.67-.83,.88-3.77,2.63-6.32,6.15-8.44,10.24-2.32,4.46-4.42,9.07-7.42,13.16-3.75,2.03-7.9,2.84-11.96,3.87-5.11,1.3-10.37,1.66-15.58,2.37-9.34,1.27-18.73,1.2-28.12,1.1-5.46-.06-10.91-.41-16.37-.62-1.62-.51-3.28-.06-4.91-.26-.98-1.37,.05-2.15,.98-2.69,3.47-2.01,6.93-3.52,11.23-3.67,5.4-.19,10.68-.97,15.67-4.37,4.14-2.82,8.62-5.21,12.39-8.61,5.34-4.81,10.13-10.13,14.67-15.69,.43-.53,.68-1.63,1.64-.53,.12,.26,.28,.54,.26,.82-.63,7.34,1.89,14.49,1.28,21.83-.09,1.04-.12,2.12,.13,3.15,.24,.95,.6,1.82,1.89,1.73,1.3-.1,1.44-.96,1.54-1.99,.6-5.99,1.17-11.98,2.54-17.86,1.39-5.96,2.24-12.05,4.25-17.87,.22-.63,.35-1.3,.93-1.73,1.67,.04,1.83,1.5,2.21,2.56,1.41,3.83,3.23,7.04,7.7,8.13,2.13,.52,3.34,2.79,5.1,4.12,3.52,2.66,6.22,1.75,6.99-2.63,.46-2.64,1.36-4.83,3.91-5.93,1-.43,2.39-1.33,2.91,.71v-.02c-.42,.3-.3,.86-.59,1.22,0,.18-.03,.36-.11,.52-.17,.21-.32,.42-.47,.64Z"/>
          <path class="cls-20" d="M101.49,317.92c-4.28-.19-8.54-.47-12.79-1.01-2.07-.26-4.21,.05-6.22-.73-5.21-2.52-8.99-6.72-12.76-10.91-4.04-4.5-7.3-9.54-10.26-14.79-1.26-3.07-2.37-6.22-4.34-8.95-.63-.87-1.16-1.93-.46-2.91,.79-1.1,1.7-.01,2.55,.18,1.64,.38,3.38,.38,4.84,1.48,.61,.46,1.2-.33,1.8-.56,.39-.17,.8-.21,1.21-.17,.42,.06,.82,.16,1.23,.26,.54,.16,1.1,.29,1.41,.84,.05,2.21-1.77,2.08-3.5,2.52,1.79,.74,3.2,1.51,4.06,2.97,.14,.25,.41,.6,.61,.57,4.58-.76,7.26,4.37,12.11,3.58,3.83-.63,5.52,1.28,6.29,5.11,.19,.94,.46,1.86,.76,2.77,.45,1.36,.7,2.8,2.64,2.91,1.88,.1,3.65,.21,4.81-1.69,.44-.73,1-1.4,1.46-2.14,1.78-2.87,3.9-5.03,7.7-3.91,5.28-2.67,7.12,1.72,9.28,4.8,2.01,2.86,4.52,5.12,7.02,7.46,.99,.93,1.55,1.02,1.91-.47,.56-2.3,1.94-1.98,3.45-.98,.8,.53,1.46,1.26,2.36,1.63,.91,.38,2.25,.78,2.66-.07,1.14-2.41,3.73-2.87,5.47-4.46,2.08-1.9,5.19-2.22,7.79-3.39,1.07-.48,2.02-.86,2.75-1.87,1.14-1.56,2.82-2.51,4.73-2.17,2.33,.42,4.33,.21,6.16-1.39,.66-.58,1.62-.52,2.47-.63,.39-.08,.77-.17,1.13-.33,2.4-2.42,4.31-5.26,6.04-8.13,1.25-2.07,2.33-4.12,4.39-5.46,1.92-1.25,.94-1.84-.49-2.37-.21-.17-.36-.39-.45-.65-.15-.69,.08-1.3,.44-1.87,.19-.32,.4-.64,.58-.98,.35-.64,.52-1.39,1.07-1.89,.42-.01,.35-.28,.25-.57,0-.58,.21-1.09,.43-1.6,.19-.43,.34-.86,.44-1.32,.06-.34,.14-.68,.25-1.01,.11-.33,.22-.65,.33-.99,.09-.35,.19-.69,.3-1.03,.14-.49,.25-.99,.39-1.48,.14-.41,.36-.76,.77-.96,2.99-.21,3.15,2.2,3.83,4.14,.1,1.04-.18,2.01-.59,2.95-.21,.5-.39,1-.43,1.55-.07,.67-.12,1.33-.28,1.99-.41,1.42-.71,2.86-1.08,4.29-.08,.26-.19,.51-.32,.74-3.02,5.9-7.88,10.47-11.47,15.95-1.04,1.59-3.01,2.01-4.26,3.34-.2,.19-.41,.36-.62,.52-1.1,.92-2.3,1.65-3.63,2.21-6.94,2.91-12.91,7.09-17.31,13.31-2.48,2.27-5.16,3.19-8.33,1.38-.74-.43-1.63-.68-2.48-.65-3.61,.12-6.73-.86-9.37-3.46-1.19-1.17-2.25-.72-2.67,.95-.32,1.3-.51,2.62-.88,3.91-.33,1.16-.8,2.19-2.16,2.37-1.32,.18-2.12-.57-2.79-1.6-2.12-3.23-3.17-3.4-6.15-.77-1.36,1.2-2.73,2.39-4.07,3.6Z"/>
          <path class="cls-72" d="M228.75,279.41c-1.06-1.16-2.18-.53-3.08,.11-1.22,.86-2.64,1.7-2.69,3.47-.03,.97-.27,1.87-.51,2.8-.99,3.82-4.12,5.04-7.25,2.61-1.4-1.09-3-2.01-4.01-3.59-.6-.94-1.67-1.25-2.7-1.47-2.86-.61-4.66-2.3-5.72-5.03-.75-1.95-1.7-3.82-2.3-5.83-.33-.32-.46-.72-.46-1.17,1.49-4.11,4.37-7.53,5.83-11.68,.66-1.88,1.35-3.75,2.05-5.61,.71-1.89,.3-3.09-1.8-3.46,5.63-6.51,11.05-13.26,19.19-16.89,2.44-1.09,4.94-2.04,7.56-2.7,4.82-1.21,9.28-.16,13.64,1.85-.06,1.45-1.29,1.05-2.07,1.22-1.02,.22-1.93,.64-2.84,1.09-.22,.13-.44,.24-.66,.35-.69,.31-1.19,.83-1.58,1.47-3.9,4.17-7.34,8.72-10.69,13.33-3.06,4.21-2.84,5.22,1.68,7.57,.76,.39,1.53,.76,2.24,1.25,.42,.28,.84,.58,1.29,.81,.23,.1,.45,.22,.68,.33,.76,.43,1.58,.42,2.42,.4,.49-.02,1.19-.02,.93,.87h0c-.2,.22-.37,.44-.52,.68-2.47,4.58-4.74,9.26-6.85,14.02-.49,1.11-.86,2.31-1.78,3.19Z"/>
          <path class="cls-66" d="M194.7,210.89c-.7,4.99-1.95,9.87-3.07,14.78-.67,2.94-.87,6-2.04,8.83-3.83,4.48-8.96,7.11-14.06,9.76-1.1,.57-2.37,1-3.12-.63-.33-2.4,1.5-3.3,3.06-4.4,1.39-.98,3.03-1.72,3.49-3.62,.42-1.74,.33-3.2-1.57-4.09-2.11-.99-3.9-2.43-5.27-4.35-.17-.23-.35-.53-.6-.61-3.97-1.41-5.62-4.98-7.69-8.17-.32-.49-.74-.95-.75-1.52-.09-3.8-1.14-7.62,.32-11.38,1.96-5.04,2.48-10.43,3.82-15.62,.51-1.97-.92-3.99,.23-5.92,1.78-.35,1.73,1.21,1.88,2.11,.68,4.12,2.88,6.76,7,7.68,4.94,1.11,9.45,3.39,14.04,5.37,2.55,1.1,3.03,3.99,3.48,6.53,.31,1.74,.06,3.58,.84,5.25Z"/>
          <path class="cls-16" d="M148.71,58.9c4.58,1.39,8.96,3.3,13.41,5.04,18.26,7.14,36.51,14.3,54.76,21.46,16.74,6.57,33.46,13.15,50.2,19.72,2.94,1.15,5.89,2.25,8.84,3.38,.19,.16,.39,.31,.59,.46h.03c.66,2.54-1.33,4.12-2.17,6.11-.2,.29-.42,.58-.62,.87-.11,.2-.23,.39-.35,.58-.16,.29-.32,.59-.46,.89-.08,.22-.17,.43-.26,.65-.18,.47-.34,.95-.69,1.33-.27,.12-.53,.1-.79-.03-2.27-6.65-8.52-8.12-13.96-10.38-16.36-6.81-32.84-13.36-49.53-19.33-11.72-4.19-23.51-8.2-35.36-11.99-8.12-2.59-16.14-5.51-24.31-7.94-.74-.22-1.47-.45-1.97-1.11-.77-3.68-.6-7.11,2.64-9.7Z"/>
          <path class="cls-49" d="M101.49,317.92c.02-.57-.1-1.26,.48-1.56,1.81-.93,2.83-2.77,4.56-3.83,.95-.59,1.81-.89,2.89-.93,1.27-.05,1.95,.52,2.34,1.65,.45,1.31,.6,3.03,2.56,2.91,2.1-.13,1.5-2.17,1.99-3.35,.5-1.2,.5-2.6,.81-3.89,.28-1.17,1.07-1.48,2.19-1.03,.91,.37,1.62,.99,2.29,1.68,1.75,1.8,3.8,2.67,6.39,2.47,1.6-.13,3.38,.03,4.69,.93,2.22,1.52,4.08,1.07,6.02-.34,.46-.33,1.06-.45,1.37-.99,2.62-2.31,4.59-5.24,7.65-7.16,3.04-1.91,5.88-4.18,9.3-5.37,1.78-.62,3.14-1.67,4.35-3.01,2.76-1.7,5.35-3.66,7.97-5.56,2.37-1.71,4.17-2.84,4.82-6.2,.49-2.54,2.07-5.25,3.33-7.82,.82-1.43,.67-3.09,1.15-4.61v-2.3c.37-.29,.22-.85,.58-1.15,.06-.99,.75-1.85,.58-2.88,.58-6.96,2.56-13.62,4.47-20.28,.39-1.37,.35-2.88,1.15-4.13,.48-.75,1.16-1.45,2.12-1.06,.92,.38,.65,1.24,.37,1.98-.02,.35-.04,.7-.07,1.05-.65,.91,.07,2.05-.52,2.97-.02,.55-.04,1.09-.05,1.64-.74,1.5,.15,3.18-.53,4.69,0,7.29-.02,14.57,.01,21.86,0,.92-.33,1.94,.49,2.73,.22,.23,.33,.5,.34,.82,0,.15-.02,.3-.03,.45-.4,1.89,.55,3.97-.85,5.71-.42,2.2-2.02,3.59-3.56,4.97-3,2.69-5.34,5.98-8.19,8.8-3.46,3.43-7.16,6.57-11.15,9.36-1.15,.8-2.23,1.75-3.84,1.7-1.15-.04-1.76,1.07-2.47,1.81-1.24,1.29-2.62,2.03-4.47,2.24-2.51,.27-4.98,.98-7.48,1.43-.93,.17-1.93,.33-2.84,.17-4.4-.76-7.73,1.78-11.3,3.56-.62,.31-.81,1.04-1.11,1.63-.78,.46-1.58,.41-2.38,.04-1.14-.03-2.28-.06-3.42-.08-2.09-.65-4.29,.2-6.37-.49-1.72-.03-3.43-.06-5.15-.09-1.5-.62-3.15,.18-4.65-.48-.55-.02-1.1-.03-1.65-.05-1.29-.77-2.8,.18-4.09-.53-.36-.02-.73-.03-1.09-.05Z"/>
          <path class="cls-30" d="M47.32,250.59c.03-3.93-.17-7.87,.15-11.77,.65-7.93,.37-15.87,.55-23.81,.01-.67-.03-1.35,.47-1.9,1.65,3.06,.26,6.35,.87,9.51,1.04-1.39,2.12-2.8,2.61-4.6,.43-1.61,1.48-2.93,2.63-4.04,3.5-3.37,6.92-6.92,11.51-8.83,1.94-.81,3.19-2.78,5.42-3.02,.24,.19,.41,.42,.52,.71,.32,1.01,.26,2.09,.67,3.08,.9,2.52,.51,5.24,1.2,7.8,.17,1.11,.15,2.21-.07,3.31-.35,1.04-.4,2.11-.37,3.2,.11,2.2-.56,4.3-.77,6.46-.47,1.3-.38,2.69-.56,4.03-.04,.3-.1,.59-.18,.88-.48,4.58-.09,9.17-.15,13.76,0,.8-.12,2,1.04,2.04,1.34,.05,1.17-1.23,1.35-2.13,.32-1.63-.05-3.52,1.77-4.56,1.92,2.43,.7,5.16-.06,7.32-.62,1.77-.48,3.18-.27,4.79-.03,.46-.16,.88-.44,1.25-3.21,.58-4.39-2.03-5.42-4.03-1.36-2.63-3.26-4.56-5.34-6.57-2.49-2.4-5.36-3.04-8.58-3.25-1.49-.1-2.32,.32-2.75,1.78-.5,1.65-.86,3.3-1.1,5.01-.38,2.64-2.1,3.86-4.7,3.59Z"/>
          <path class="cls-72" d="M127.95,111.83c.2-1.71,.4-3.42,.6-5.13,1.61,.32,1.3,1.68,1.36,2.72,.14,2.29-.03,4.6,.08,6.89,.13,2.83,.66,3.38,3.44,3.38,2.77,0,5.53,.19,8.28-.51,1.54-.39,2.52-1.24,2.59-2.65,.37-6.86,1.33-13.71,.24-20.6-.33-2.08-1.57-3.64-2.35-5.46,.65-1.56,1.86-.88,2.86-.61,3.77,1.01,7.01,2.87,9.38,6.07,2.64,3.82,4.33,8.01,4.81,12.66-3.1,8-3.04,16.68-5.35,24.85-.88,3.11-1.36,3.47-4.4,1.99-2.28-1.12-3.95-1.04-5.85,.9-2.52,2.6-6.88,2.08-10.01-1.07-1.54-1.55-3.2-2.59-5.26-3.27-3.23-1.05-4.17-2.94-3.41-6.23,1.07-4.63,2.5-9.18,3-13.93Z"/>
          <path class="cls-15" d="M194.7,210.89c-.43,.11-1.14,.4-1.05-.33,.19-1.55-.57-2.93-.45-4.51,.16-2.12-1.28-3.91-2.1-5.82-.24-.55-.8-.95-1.4-.76-1.45,.46-2.32-.38-3.29-1.2-1.5-1.26-3.4-1.83-5.22-2.25-2.62-.61-5.08-1.62-7.61-2.46-2.84-.95-3.95-3.44-4.67-6.02-.35-1.26-.35-2.62-1.22-3.71-1.43-2.11-1.24-4.54-1.44-6.9-.48-5.73-.06-11.47,.03-17.2,.05-3.21-.08-6.31-1.95-9.07-.07-.31-.08-.63-.06-.95,.2-1.02,.4-2.05,.41-3.11,.03-.43,.11-.85,.21-1.27,.27-.79,.35-1.62,.4-2.45,.03-.43,.11-.85,.21-1.27,.33-1.01,.25-2.04,.22-3.08,.13-4.71,1.38-9.24,2.14-13.85,.13-.79,.33-1.75,1.44-1.88,.77,.08,1.29,.37,1.11,1.28-1.07,5.41-1.18,10.95-2.11,16.38-.14,.83-.23,1.76,.33,2.5,1.24,1.64,.98,3.55,.58,5.25-.57,2.4-.28,4.76-.35,7.13-.02,.64,.13,1.39,.47,1.92,1.46,2.24,2.28,4.72,3.17,7.21,.37,1.04,.92,2.06,1.18,3.16,.35,1.49,.59,3.03,2.3,3.7,.45,.18,.75,.6,.85,1.1,.71,3.3,3.57,3.72,6.1,4.39,1.17,.31,2.46,.67,3.64,.59,2.46-.17,3.4,1.28,4.22,3.14,.96,2.17,2.01,4.29,1.66,6.81-.15,1.08,.25,2.07,1.13,2.81,1.11,.44,1.13,1.41,1.19,2.39,.33,4.96,.55,9.91,.54,14.88,.17,1.22-.32,2.32-.62,3.46Z"/>
          <path class="cls-41" d="M60.04,290.32c3.64,5.8,7.33,11.52,12.08,16.56,2.85,3.02,5.89,5.66,9.24,8.02,.45,.32,.74,.86,1.11,1.29-.39-.01-.77-.03-1.16-.04-.72-.49-1.64,.05-2.36-.46-3.7-.33-7.41,.51-11.1-.04-5.18-.77-10.34-1.75-15.39-3.11-2.17-.58-4.31-1.71-6.12-3.05-2.19-1.63-3.06-4.19-3.61-6.87-.94-4.62,.14-9.1,.83-13.58,.32-2.06,.14-4.22,.95-6.2,.6-3.81,.97-3.95,4.14-1.52,.91,.7,1.95,1.33,2.58,2.25,2,2.93,4.34,5.3,8.02,5.94,.36,.06,.54,.52,.77,.82Z"/>
          <path class="cls-25" d="M80.15,194.11c.26-3.92,1.33-7.69,2.06-11.52,1.77-9.26,3.66-18.5,4.95-27.85,.23-1.66,.21-3.42,1.03-4.98,.95,2.15,2.63,3.7,4.26,5.3,1.16,1.13,2.42,2.2,3.17,3.69,1.06,2.1,2.51,3.59,5.09,3.54,1.34-.03,2.07,.84,2.45,2.04,.17,.55,.14,1.16,.33,1.69,.49,1.36-.1,3.81,1.61,3.86,2.01,.06,3.13-2.23,4.4-3.76,.24-.29,.33-.79,.12-1.1-2.42-3.48-1.02-7.27-.76-10.9,.26-3.62,.4-7.27,1.13-10.84,.18-.87,.38-1.78,1.36-2.02,.86-.21,1.42,.48,1.9,1.06,1.52,1.83,3.34,3.55,2.7,6.32-.03,.3-.09,.58-.17,.87-.48,1.46-.22,2.96-.3,4.44-.08,.9-.04,1.85-1.01,2.37-.54-.08-.7-.47-.83-.94,.4,3.06-.51,6.02-.62,9.06-.11,3.22-2.74,5.62-3.52,8.7-.23,.89-1.44,.77-2.31,.73-2.26-.11-3.99,.79-5.56,2.45-4.31,4.55-8.06,9.49-11.02,15.01-.41,.77-.84,1.5-1.44,2.14-1.13,1.15-2.32,2.24-3.36,3.47-1.1,1.3-2.23,2.93-4.22,1.88-1.88-.99-2-2.81-1.45-4.7Z"/>
          <path class="cls-82" d="M71.55,202.25c-2.29,2.39-5.46,3.42-8.12,5.23-3.87,2.63-7.46,5.59-10.25,9.42-.29,.39-.58,.77-.6,1.27-.1,2.73-2.43,4.05-3.52,6.16l-.58-.15c0-3.69,0-7.38,0-11.06-.29-9.27,.88-18.51,.66-27.78-.01-.58,.05-1.15,.47-1.61,1.09,.97,.67,2.3,.81,3.49,.23,2.05,1.38,2.96,3.33,2.41,4.13-1.17,7.96-3.13,11.92-4.76,1.34-.55,1.63-2.09,1.61-3.46-.08-4.72-1.72-8.93-4.41-12.77-.53-.75-1.08-.61-1.71-.22-.41,.02-.82-.11-1-.45-1.33-2.58-3.35-3.83-6.31-3.41-.47,.07-.93-.23-.74-.89h0c.24-.17,.41-.4,.53-.67,2.51-2.54,4.42-2.85,7.39-1.14,1.69,.97,3.13,2.31,4.05,4,2.16,3.95,4.26,7.94,5.79,12.19,.13,.35,.11,.75,.16,1.13-.09,2.51,.76,4.88,1.09,7.32,.63,4.65,.8,9.29,.2,13.95-.09,.67-.22,1.32-.77,1.79Z"/>
          <path class="cls-52" d="M82.99,56.64c-1.23-4.56,.33-8.3,3.43-11.58,2.01-1.15,3.15,.44,4.05,1.61,3.39,4.43,8.12,7.15,12.55,10.27,2.16,1.52,4.27,2.44,6.85,.88,1.05-.64,2.36-.72,3.61-.79,1.2-.06,2.35-.29,2.67-1.67,.35-1.49,.12-2.82-1.32-3.75-1.35-.88-2.94-1.69-1.87-3.79,.84-.53,1.7-.3,2.55-.05,3.62,1.24,6.73,3.06,8.32,6.84,.55,1.29,.96,2.52,.51,3.85-.98,2.89-1.88,5.8-3.16,8.58-.83,1.78-1.99,2.38-3.88,1.8-1.27-.39-2.53-.87-3.86-1.05-1.73-.23-2.09,.65-1.46,2.04,.76,1.68,2.24,2.56,3.93,3.08,1.27,.39,2.61,.57,3.79,1.24,.23,.1,.45,.23,.66,.36,.4,.23,.81,.44,1.25,.57,.21,.05,.42,.12,.62,.2,.29,.12,.57,.26,.85,.41,.18,.09,.35,.19,.52,.3,.26,.14,.52,.28,.8,.39,.19,.07,.37,.15,.56,.23,.29,.1,.59,.19,.88,.27,.21,.05,.41,.12,.61,.2,.3,.11,.61,.21,.91,.31,.21,.05,.41,.13,.61,.21,.29,.13,.58,.27,.87,.41,.2,.08,.4,.16,.6,.25,.43,.15,.87,.22,1.32,.32,.37,.1,.7,.27,.91,.6,.08,.26,.08,.52,.02,.78-1.71,1.71-3.26-.05-4.88-.23-.26-.07-.51-.17-.76-.27-.63-.25-1.28-.42-1.93-.61-3.84-1.32-7.75-2.42-11.55-3.83-7.53-2.23-14.11-6.37-20.68-10.46-2.91-1.82-5.17-4.52-7.28-7.26-.39-.51-.58-1.63-1.59-.63Z"/>
          <path class="cls-10" d="M60.04,290.32c-.61-.27-1.19-.57-1.89-.58-2.52-.02-4.45-1.39-5.64-3.34-1.69-2.8-4.31-4.4-6.73-6.32-1.24,.64-.21,2.17-1.27,2.75-.21-2.97,.61-5.84,.77-8.79,.15-2.83,.76-5.65,.87-8.48,.19-4.46,.9-8.89,.7-13.37-.02-.57,.03-1.15,.46-1.6,3.39-1.05,3.93-1.66,4.06-5.16,.07-1.85,1.26-3.35,1.4-5.2,.06-.76,1.24-1.29,2.12-.97,1.31,.47,2.65,.24,3.95,.46,1.86,.31,3.76,.59,5.02,2.32,.55,.76,1.4,1.26,2.16,1.84,1.75,1.32,3.18,2.85,3.95,5.08,.81,2.37,2.58,4.15,5.01,5.1,.55,.47,.68,1.11,.76,1.77,.04,1.13,0,2.26,.06,3.39,0,1.27,.01,2.54-.23,3.79-.4,1.15-.37,2.38-.61,3.56-.76,1.91,.26,3.47,.99,5.1,.96,2.16,2.12,4.3,.83,6.74-.14,.22-.32,.42-.52,.59-.53,.33-1.15,.36-1.73,.55-.2,.1-.41,.2-.61,.31-.19,.14-.38,.26-.59,.38-.21,.12-.43,.21-.66,.3-.61,.21-1.2,.46-1.83,.59-1,.13-2,.23-2.85-.5-.25-.77,.17-1.33,.7-1.74,1.32-.99,2.53-1.92,2.66-3.83,.21-3.04,1.08-6.17-.89-8.92-1.47-2.06-1.68-4.28-1.28-6.57,.85-4.9-2.13-8.35-4.42-12.05-.66-1.06-1.81-.91-2.86-.48-1.27,.52-2.34,1.32-3.18,2.4-1.07,1.38-2.16,2.41-4.11,1.49-1.24-.59-1.78,.24-1.84,1.38-.39,7.02,.16,13.97,1.66,20.85,.25,1.16,1.18,1.64,2.03,2.28,2.37,1.78,5.21,2.76,7.58,4.54q-1.57,1.83-3.21,.53c-.43-.35-.78-.98-1.43-.73-1.7,.65-2.89-.53-4.23-1.16-.81,1.24,.1,2.01,.68,2.82,1.96,2.71,3.07,5.8,4.16,8.9Z"/>
          <path class="cls-17" d="M115.3,148.71c.63-3.39-1.95-5.03-3.86-7.31-1.12,1.75-1.14,3.64-1.22,5.29-.21,4.45-.94,8.85-1.16,13.3-.08,1.61-.11,2.98,1.18,4.18,.85,.8,.98,1.74-.09,2.68-1.29,1.13-2.4,2.47-3.69,3.61-1.67,1.48-2.62,1.16-3.15-1.06-.31-1.29-.49-2.61-.66-3.93-.31-2.34-.38-2.48-2.77-2.37-2.28,.11-3.77-1.53-4.46-3.02-.76-1.66-1.9-2.79-3.03-4.03-.77-.85-1.51-1.78-2.45-2.4-1.47-.97-1.92-2.26-1.75-3.89,.21-1.91-.38-3.91,.58-5.75,.8,.6,.65,1.53,.8,2.35,.33,1.86,1.25,3.23,2.81,4.43,2.47,1.91,4.97,3.86,6.97,6.33,.67,.83,1.39,1.73,2.59,1.42,1.26-.32,.78-1.55,1.03-2.41,1.14-3.85,2.85-7.47,4.66-11.04,.8-1.58,1.53-3.14,.94-4.91-.7-2.1-1.73-3.83-4.47-3.49-.96,.12-2.15,.31-2.75-.93,.04-.09,.07-.24,.13-.25,4.18-.95,4.13-4.12,3.78-7.35-.43-3.9-.65-7.82-1.17-11.71-.47-3.5-2.5-5.9-5.41-7.7-.22-.27-.24-.55-.06-.85,2.79-2.19,5.8-1.2,8.06,.82,1.22,1.1,2.27,2.34,3.09,3.75,3.9,6.66,6.73,13.72,7.77,21.41,.51,3.77,1.41,7.52,1.14,11.37-.27,.15-.51,.11-.74-.09-.16-.22-.27-.47-.35-.73-.07-.28-.05-.59-.17-.84-.09-.19-.25-.08-.28,.21-.14,1.14-.44,2.26-.63,3.39-.11,.67-.05,1.64-1.22,1.51Z"/>
          <path class="cls-26" d="M112.43,74.42c4.11,1.13,8.21,2.27,12.1,4.04,.44,.59,1.25,.1,1.72,.59h0c18.03,5.97,35.5,13.42,53.38,19.8,2.88,1.03,5.6,2.46,8.6,3.13,1.96,.58,3.85,1.33,5.68,2.24,.52,.32,1.06,.62,1.65,.82,.23,.07,.45,.16,.68,.25,.46,.17,.93,.3,1.41,.42,3.07,1.04,6.05,2.32,8.97,3.71,.51,.32,1.05,.61,1.63,.8,.24,.07,.46,.16,.69,.25,.48,.17,.98,.31,1.47,.47,1.24,.49,2.54,.85,3.68,1.53,.69,.41,1.97,.64,1.13,1.99-.95,.42-1.89,.13-2.8-.12-6.71-1.85-13.36-3.87-20.02-5.87-.84-.25-1.52-.79-2.26-1.21-1.36-1.17-2.28-2.81-3.96-3.64-2.24-1.11-4.5-2.05-7.04-1.01-.49,.74-1.4,.75-2.06,1.2-.87,.47-1.7,1.02-2.75,.97-6.94-2.49-13.97-4.78-20.45-8.38-2.93-3.75-6.81-5.77-11.5-6.31-.88,.38-1.8,.05-2.69,.14-1.08-.08-2.21,.13-3.13-.69-6.78-2.71-13.56-5.41-20.34-8.14-1.31-.53-2.71-.85-3.88-1.71,.16-1.75,.51-3.5,.08-5.27Z"/>
          <path class="cls-15" d="M127.95,111.83c.51,3.91-.56,7.56-1.84,11.18-.32,.9-.49,1.84-.77,2.75-.93,3.04,.48,4.78,3.07,5.47,2.42,.65,4.22,1.62,5.87,3.63,1.24,1.52,3.4,2.42,5.66,2.34,1.52-.05,2.7-.51,3.66-1.83,1.64-2.26,2.14-2.29,4.79-1.25,.71,.28,1.43,.48,2.05,.98,.53,.42,1.23,.49,2.12,.54,.99-5.27,2.63-10.42,3.09-15.85,.22-2.55,.77-5.08,1.32-7.58,.29-1.34,2.03-2.15,1.54-3.84,2.37,1.29,1.09,3.53,1.41,5.36-.23,6.25,.26,12.51-.25,18.75-.3,.94-1.09,1.33-1.94,1.51-2.88,.62-4.33,2.61-5.17,5.23-.38,1.19-.99,2.29-1.57,3.39-.91,1.74-2.48,3.01-4.31,2.98-2.76-.04-5.45,.47-8.13,.57-3.98,.14-7.84,.68-11.57,1.83-2.65,.82-4.25,.26-5.35-2.16,.01-.2,.03-.39,.04-.59,.58-.69-.03-1.65,.52-2.35-.02-2.69,.76-5.27,1.21-7.89,.99-5.82,1.35-11.74,2.87-17.46,.51-1.91,.67-3.94,1.68-5.71Z"/>
          <path class="cls-31" d="M290.91,114.72c.18,0,.37,.02,.55,.05,.31,.34,.83,.22,1.14,.55h0c.31,.37,.85,.25,1.19,.56,.18,0,.36,0,.53,.04,.35,.23,.71,.44,.92,.82,.51,.82,1.18,1.49,1.89,2.13,1.73,1.56,1.06,3.39,.28,5-.77,1.6-2.26,.92-3.56,.61-.79-.19-1.81-.9-2.36,0-.62,1,.39,1.81,1.07,2.38,2.73,2.33,6.15,3.44,9.41,4.65,3.07,1.15,6.22,2.12,9.56,2.69,4.55,.77,7.57,4.16,9.19,8.59,.1,.48,.11,.95,0,1.42-.93,4.2-1.59,4.88-5.78,3.98-4.49-.97-9.15-.22-13.56-1.63-1.17-.37-2.45-.45-3.43-1.31-.96-2.37,1.49-1.17,2.15-2.08-.81-.89-1.89-1.5-2.96-1.97-3.82-1.69-6.49-4.94-9.92-7.17-2.17-1.41-2.95-4.13-3.79-6.58,.03-1.14-.54-2.23-.37-3.37,.29-1.99,2.21-3.45,4.78-3.66,2.62-.22,3.29-1.18,2.59-3.68q-.33-1.17,.46-2.02Z"/>
          <path class="cls-23" d="M190.14,107.27c3.99,.58,7.71,2.15,11.57,3.19,4.6,1.23,9.07,2.93,13.8,3.7,1.99-1.06,3.39,.42,4.97,1.15,4.06,2.59,8.61,4.14,12.99,6.06,15.68,6.9,31.39,13.72,46.98,20.82,3.74,1.7,7.45,3.47,11.17,5.19,.88,.41,1.83,.76,2.2,1.71,.26,.65,.61,1.58-.79,1.43-.17,.03-.31-.02-.44-.13-.33-.32-.83-.22-1.18-.51h.02c-.34-.42-.89-.32-1.32-.53h-.21s-.18-.1-.18-.1c-.32-.34-.84-.24-1.19-.52h.02c-.42-.61-1.26-.08-1.71-.61-6.55-2.17-12.88-4.9-19.29-7.41-24.18-9.43-48.33-18.93-72.5-28.39-.71-.28-1.45-.48-2.18-.73-.91-1.45-1.83-2.9-2.74-4.34Z"/>
          <path class="cls-79" d="M121.62,145.84c.09,.01,.24,0,.28,.05,1.6,2.26,3.58,1.78,5.85,1.13,2.85-.82,5.76-1.57,8.78-1.67,.69-.02,1.32-.02,1.95,.27,.45,.21,1.06,.32,1.36-.04,1.45-1.8,3.27-1,4.96-.73,2.44,.39,4.54-.55,5.6-2.7,.63-1.28,1.32-2.52,1.71-3.9,.98-3.49,3.42-5.01,6.92-5.06,1.2,1.67,.87,3.41,.07,5.06-.74,1.53-1.78,2.76-3.78,1.74-.79-.4-1.46-.35-1.83,.58-.09,.25-.2,.48-.31,.72-.34,.74-.4,1.56-.7,2.31-.13,.26-.28,.5-.46,.73-2.59,2.58-2.86,6.21-4.17,9.35-.89,2.12-1.96,3.83-3.92,5.1-3.02,1.95-3.32,1.99-6.07-.52-1.62-1.47-3.52-1.82-5.62-1.31-3.16,.77-6.13,2.18-9.42,2.52-1.49,.15-1.88,1.46-2.06,2.76-.16,1.14,.04,2.32-.23,3.43-.17,.67,0,1.99-1.47,1.32-.92-2-.58-4.1-.33-6.14,.14-1.2,.08-2.23-.52-3.24-.29-2.45-1.02-4.93,.59-7.22,.92,1.25,.16,2.79,.76,4.38,.98-3.07,1.03-6.1,2.05-8.9Z"/>
          <path class="cls-34" d="M101.48,136.05c1.24,0,2.53,.19,3.71-.08,1.45-.34,1.97,.38,2.74,1.35,2.15,2.71,2.06,5.37,.33,8.19-1.85,3.01-2.77,6.45-4.38,9.58-.33,.64-.47,1.41-.2,2.22,.24,.73,.25,1.75-.64,1.94-.85,.18-1.83,.75-2.73,.02-.29-.24-.66-.46-.83-.78-1.44-2.71-4.35-3.94-6.24-6.2-.24-.29-.5-.64-.83-.77-3.1-1.2-3.64-3.76-3.6-6.65,0-.29-.02-.57-.04-.86-.24-5.81,1.03-11.47,1.83-17.17,.25-.38,.22-1.1,.71-1.14,.66-.04,.91,.62,1,1.18,.3,1.87,.49,3.76,.75,5.63,.27,1.92,1.21,2.78,3.21,2.78,1.74,0,3.63-.55,5.21,.75Z"/>
          <path class="cls-47" d="M320.24,142.38c-.55-.24-.97-.64-1.17-1.21-1.08-3.01-3.57-4.53-6.19-5.92-.92-.49-1.79-1.03-2.96-.48-.94,.44-1.94-.1-2.74-.52-2.05-1.08-4.27-1.58-6.46-2.19-.67-.19-1.26-.4-1.76-.88-.85-.82-1.86-1.25-3.03-1.5-2.36-.51-4.07-2-5.3-4.04-.32-.54-.94-1.14-.34-1.8,.53-.58,1.23-.89,2.07-.6,.91,.31,1.82,.59,2.74,.84,1.54,.41,1.76,.24,2.1-1.32,.36-1.62,.66-3.14-1.37-4.01-.85-.36-.99-1.35-.92-2.26,.19-.21,.38-.22,.58-.02h0c.31,.38,.85,.25,1.19,.55,.18,0,.36,0,.53,.04,.31,.36,.85,.22,1.16,.55,.19,0,.38,.02,.57,.06,.31,.32,.83,.2,1.13,.53h.01c.31,.36,.85,.24,1.18,.55,3.04,.57,5.73,2.01,8.43,3.41,4.84,2.53,9.35,5.56,13.2,9.43,2.16,2.17,3.83,4.74,4.26,7.91-1.14,.27-1.63-.79-2.4-1.24-2.45-1.43-3.06-1.2-3.66,1.48-.2,.9-.04,1.93-.86,2.63Z"/>
          <path class="cls-70" d="M293.04,150.53c1.25-1.16,.06-1.89-.66-2.1-4.04-1.19-7.33-3.93-11.41-5.16-2.74-.83-5.38-2.36-8.05-3.6-6.46-2.99-12.98-5.84-19.49-8.74-3.83-1.7-7.68-3.38-11.52-5.06-4.11-1.8-8.27-3.48-12.33-5.4-3.18-1.51-6.68-2.36-9.5-4.6,1.56-1.06,2.98-.07,4.33,.44,8.83,3.36,17.56,6.98,26.36,10.41,5.86,2.29,11.69,4.68,17.52,7.07,.55,.22,1.1,.48,1.64,.73,6.49,2.87,13.05,5.54,19.74,7.88,6.13,2.14,12.16,4.61,18.63,5.74,5.52,.96,10.81,1.18,15.7-2.13,.63-.42,1.33-.86,2.12-.81,.83,.06,.79,.63,.51,1.23-2.84,4.63-7.2,7.01-12.34,8.05-7.59,1.55-14.54-.62-21.25-3.96Z"/>
          <path class="cls-11" d="M113,47.98c-.1,1.43,.59,2.26,1.87,2.87,2.05,.96,2.9,3.46,1.94,5.45-.44,.92-1.2,1.53-2.27,1.45-2.38-.17-4.52,.54-6.54,1.68-.88,.5-1.62,.25-2.41-.17-3.53-1.88-6.69-4.33-10.02-6.51-2.51-1.65-4.12-4.17-6.19-6.24-.84-.84-1.68-1.56-2.96-1.43,1.09-2.57,3.27-3.31,5.8-3.45,3.34-.69,6.51-.09,9.7,1.02,3.23,1.13,6.23,2.81,9.5,3.83,.73,.23,1.35,.69,1.58,1.51Z"/>
          <path class="cls-68" d="M120.48,75.03c-1.65-.41-3.23-1.01-4.89-1.42-2.16-.53-4.01-1.84-4.74-4.16-.62-1.97,.07-2.65,2.17-2.51,1.84,.12,3.43,1.1,5.24,1.33,.82,.11,1.23,.27,1.76-.68,1.74-3.1,2.49-6.55,3.79-9.8,.2-.49,.27-1.29,0-1.67-1.53-2.18-2.13-5.15-5.1-6.17-1.16-.4-2.13-1.29-3.41-1.4,.65-2.83,2.75-.57,4.03-1.15,5.08,1.68,10.07,3.62,14.96,5.79,.26,2.13,.48,4.27,1,6.37,.16,.66,.14,1.35-.08,1.98-1.3,3.72-4.08,6.54-6.06,9.85-.39,.65-1.3,.73-2.1,.63-.94-.13-1.92-.19-2.8-.55-1.66-.67-3.2-.66-4.48,.66-1.21,1.24,1.38,1.71,.71,2.91Z"/>
          <path class="cls-4" d="M187.88,242.07c-.08-.55,.12-1.31-.49-1.53-.76-.28-1.15,.46-1.55,.97-.06,.07-.13,.17-.13,.25-.05,3.56-2.36,6.57-2.44,10.1-.04,1.48-.71,2.68-1.09,4.01-.55,1.93-.79,3.99-1.26,5.97-.3,1.26-.31,2.62-1.15,3.73-.7-1.73-.7-4.06-3.45-4.03-.92-2.8,.07-5.64-.14-8.46-.15-1.96-.45-3.75-1.53-5.43-.76-1.17-1.58-1.63-2.83-.82-1.51,.98-2.77,.6-4.21-.35-3.6-2.38-8.67-1.95-11.96,.77-2.12,1.75-4.26,3.48-7.1,3.93-.69-1.11-.06-1.97,.51-2.87,5.19-8.1,13.71-10.47,22.55-6.25,.31,.29,.57,.62,.73,1.02,.15,.22,.32,.43,.51,.62,.9,1.11,1.79,.3,2.53-.14,2.12-1.23,4.05-2.77,6.55-3.31,1.13-.24,1.78-1.4,2.6-2.19,1.5-1.45,3.05-2.83,5.05-3.56-.02,.19-.04,.39-.06,.58-.49,.51-.07,1.27-.51,1.79,.06,1.83-.32,3.57-1.14,5.21Z"/>
          <path class="cls-60" d="M195.32,207.43c-1.05-1.67-1.18-3.79-.94-5.4,.39-2.63-.29-5.04-.48-7.52-.1-1.44,.93-3.01-.31-4.35-.81-3.38-.03-6.51,1.56-9.47,1.21-2.25,.37-4.58,0-6.68-.44-2.55,.03-5.04,.57-7.21,.73-2.91,.76-5.84,1.15-8.72,.58-4.24,.88-8.56,.76-12.88-.11-3.97-.02-7.94-.02-11.93,.84-.07,.53,.96,1.12,1.06,.06,.18,.08,.37,.04,.55,.64,.88-.11,2.02,.53,2.9,.02,.37,.04,.73,.06,1.1,.64,1.1-.14,2.41,.52,3.51,.02,.74,.04,1.49,.07,2.23,.56,6.97,.13,13.96,.22,20.94,.03,2.09,.3,4.2-.23,6.28,.17,4.02-.54,7.97-.96,11.94-.52,4.93-1.27,9.82-1.97,14.72-.43,3.01-.82,6.03-1.71,8.95Z"/>
          <path class="cls-73" d="M206.12,250.55c.09-.03,.18-.05,.28-.08,2.52-.65,3.29-.03,2.6,2.42-.65,2.29-1.46,4.55-2.35,6.77-1.64,4.11-4.03,7.8-6.15,11.65-1.55,2.87-2.64,6.04-5.48,8.08-.91,.65-.56,1.92-.72,2.93-.15,.9,.23,2.21-1.38,2.25-.7-1.01-.86-2.05-.22-3.19-.46,.05-.66,.76-1.02,.69-2.84-.48-2.45,1.59-2.47,3.17-.04,3.05-.19,6.1,.22,9.15,.16,1.23,.43,2.81-1.73,2.65-.8-6.45-.41-12.93-.44-19.39h0c.35-.37,.27-.9,.5-1.31,1.7-4.34,4.1-8.28,6.89-12,2.14,.17,.65,2.2,1.76,3.2,4.05-4.38,5.63-10.04,8.12-15.21,.33-.77,.91-1.33,1.58-1.8Z"/>
          <path class="cls-39" d="M290.91,114.72c-.85,.62-.32,1.12,.13,1.63,.43,.49,1.08,.91,.73,1.71-.45,1.04-.82,2.15-1.46,3.06-.43,.6-1.26,0-1.89-.06-1.79-.18-3.21,.34-4.17,1.87-.5,.79-1.12,1.6-.23,2.57,.56,.61-.14,1.27-.05,1.91-1.21,.38-2.04-.43-2.82-1.05-2.04-1.61-4.3-2.43-6.89-2.42-1.3-.43-2.3-1.28-3.16-2.33-.42-.98-.25-1.77,.76-2.27,.01-.19,.02-.37,.02-.56,.36-.3,.22-.85,.57-1.16,.01-.18,.02-.37,.01-.55,.2-.19,.36-.41,.56-.6,.01-.19,.02-.37,.02-.56,.2-.18,.36-.4,.55-.59,.96-2.13,2.33-4.08,2.95-6.37,4.84,1.81,9.79,3.31,14.37,5.76Z"/>
          <path class="cls-77" d="M120.48,75.03c-.34-.91-1.23-1.16-1.96-1.57-.98-.56-.97-1.24-.02-1.65,.89-.38,1.71-.79,2.41-1.47,.55-.53,1.23-.58,1.85-.18,1.18,.76,2.59,.63,3.81,1.09,1.56,.59,2.48-.09,3.02-1.3,1.06-2.37,2.42-4.44,4.18-6.39,1.58-1.75,1.2-4.38,.31-6.22-.82-1.7-.19-2.8,.21-4.15,2.96,.93,5.84,2.09,8.63,3.45,.48,1.26-.34,2.22-.83,3.21-2.8,5.67-5.68,11.3-8.46,16.98-.66,.82-.71,2.25-2.22,2.23-.38,0-.77,0-1.15,0-.29-.37-.85-.22-1.15-.57-.19,0-.38,0-.58,0-.17-.22-.4-.37-.58-.57-.19,0-.38,0-.58,0-.29-.37-.85-.22-1.15-.57-.19,0-.38,0-.58,0-.3-.36-.84-.24-1.15-.57h0c-.3-.35-.83-.25-1.15-.57h0c-.3-.36-.84-.23-1.15-.58-.19,0-.38,0-.58,0-.3-.36-.84-.24-1.15-.57h0Z"/>
          <path class="cls-63" d="M112.43,74.42c1.97,1.79,1.08,3.53-.08,5.27-7.19-2.2-13.98-5.19-20.01-9.76-2.76-2.1-5.18-4.54-7.1-7.45-1.18-1.78-2.04-3.68-2.24-5.84,.23-.61-.12-1.33,.54-2.08,1.6,2.41,3.44,4.53,5.42,6.56,2.1,2.16,4.59,3.68,7.12,5.23,5.21,3.18,10.66,5.87,16.36,8.07Z"/>
          <path class="cls-59" d="M61.19,168.28c.06-.47,.02-.98,.2-1.4,.3-.7,.87-.78,1.29-.13,2.63,4.1,4.98,8.33,5.39,13.32,.08,.94,0,1.91-.16,2.84-.27,1.62-1.13,2.71-2.83,3.2-2.93,.85-5.72,2.08-8.47,3.42-1.09,.53-2.32,.86-3.52,1.09-1.75,.33-3.32-1.04-3.4-2.89-.06-1.33-.04-2.67-.06-4.01,.02-3.04-.04-6.09,.65-9.08,1.5,.05,1.38,1.36,1.64,2.26,.35,1.19,.55,2.42,.94,3.6,1.2,3.63,1.61,3.83,5.4,2.54,.23-.12,.48-.21,.72-.3,1.43-.65,3.37-.41,4.01-2.38,.14-2.8-.87-5.38-1.52-8.03-.32-1.32-1.2-2.63-.29-4.06Z"/>
          <path class="cls-13" d="M136.56,89.54c1.17-.03,2.34-.05,3.5-.08,4.34,2.42,5.66,6.33,4.54,11.08-.91,3.87-1.28,7.88-2.02,11.8-.19,1.02-.11,2.16,.83,2.9,.99,.77,1.67,1.5,.84,2.85-.91,1.47-2.08,.98-3.27,.63-.46-.14-.92-.27-1.21-.7-1.32-5.55,.05-11.06,.25-16.58,.07-1.94-.01-3.82-.58-5.67-.34-1.1-1-1.96-2.23-1.83-1.3,.14-1.42,1.18-1.59,2.33-.63,4.39-.34,8.8-.58,13.19-.15,2.77,1.28,5.18,1.26,7.88,0,1.16,1.33,1.24,1.99,1.88,.25,.6-.05,.92-.6,.96-1.05,.09-2.11-.06-3.15,.05-2.17,.24-2.88-.33-2.83-2.79,.07-3.83,.41-7.63,.75-11.42,.21-2.42-.44-3.87-2.77-4.51,.16-3.22,1.81-5.95,3.02-8.8,.69-1.63,2.26-2.48,3.84-3.17Z"/>
          <path class="cls-37" d="M129.7,101.51c.99-.59,1.91-.76,2.82,.22,.73,.8,1.06,1.49,.98,2.73-.27,4.23-1.59,8.44-.56,12.71,.23,.97-.95,1.45-.54,2.56,1.95,.1,3.97,.75,5.93-.38,.39-.67,.97-1.05,1.73-1.15,.7-.37,1.34-.64,2.08,.02,.96,.85,1.51,.2,1.96-.67,.47-.91-.18-1.28-.82-1.43-1.31-.31-1.56-1.15-1.5-2.33,.09-1.79,0-3.54,.74-5.32,.63-1.51,.79-3.31,.74-4.98-.04-1.38,.11-2.67,.74-3.8,1.42-2.57,.39-4.78-.9-6.87-.78-1.26-2-2.25-3.02-3.36,.87-.13,1.61,.17,2.32,.63,2.84,2.61,3.3,6.09,3.41,9.64,.09,2.67-.02,5.35,.03,8.03,.05,2.96-.74,5.84-.67,8.82,.04,1.98-1.24,2.88-3.2,3.39-3.3,.86-6.65,.5-9.97,.51-2.11,0-2.8-.81-2.84-3.06-.05-2.68,.01-5.35-.03-8.03-.01-.92,.32-1.94-.56-2.69-.1-1.02,.09-1.99,.59-2.89,.51-.5,.06-1.27,.52-1.78-.02-.17,0-.35,.04-.51Z"/>
          <path class="cls-65" d="M326.63,146.43c-.11-.46-.18-1.01-.87-.62-1.66,.93-3.22,2.24-5,2.73-4.04,1.12-8.14,1.29-12.36,.39-9.85-2.09-19.14-5.81-28.44-9.46-3.53-1.39-7.24-2.41-10.46-4.54,.11-.1,.21-.2,.31-.3,1.09-.48,2.04,.08,3.01,.44,4.01,1.5,8.15,2.62,12.08,4.36,.49,.24,.99,.46,1.51,.62,.26,.07,.52,.16,.77,.25,2.82,1.22,5.79,2.06,8.64,3.21,.36,.16,.71,.32,1.06,.49,.36,.16,.65,.4,.91,.7,2.41,.94,4.97,1.31,7.45,1.99,.09,.03,.19,.1,.27,.08,4.51-1.06,8.77,1.2,13.44,1-.29-1.94,1.65-3.33,1.29-5.37-.19-1.73,.23-3.39,.65-5.04,.26-1.04,.89-1.36,1.92-.86,1.61,.78,3.3,1.45,4.35,3.03,1.09,2.41,.56,4.69-.53,6.93Z"/>
          <path class="cls-55" d="M133.13,76.74c.28-1.64,1.26-2.99,1.97-4.44,2.58-5.24,5.22-10.45,7.83-15.67,1.44,.31,2.87,.65,4.06,1.61,.4,.68,1.25,.16,1.72,.66,0,0,0,0,0,0-1.88,3.01-2.55,6.3-2.32,9.8,.73,1.34,.32,2.43-.73,3.38-.81,.53-1.73,.81-2.66,.95-2.63,.39-4.79,1.44-6.51,3.61-1.34,1.68-2.07,1.56-3.36,.1Z"/>
          <path class="cls-6" d="M101.48,136.05c-2.11,0-4.22,.05-6.32-.02-2.05-.06-2.75-.73-2.86-2.77-.13-2.36-.95-4.63-.53-7.29-.59,.44-.88,.65-1.16,.86-.27-2.53-.03-5.02,.54-7.49,.36-1.39,1.36-1.72,2.62-1.54,1.31,.18,1.25,1.32,1.39,2.22,.44,2.74,.64,5.51,.58,8.29-.02,.96,.01,1.92,.12,2.87,.42,3.8,.6,3.93,4.5,3.24,.7-.4,1.08-1.04,1.31-1.79,.37-2.95,.47-5.91-.12-8.84-.46-2.27,.12-4.39,.82-6.46,1.15-3.35-1.16-7.07-4.7-7.46-.88-.1-2.14,.71-2.51-.89h0c.18-.17,.37-.33,.57-.48,.37-.04,.75-.07,1.12-.11,.6-.35,1.2-.39,1.79,.02,4.02,1.01,5.68,4.15,6.18,7.74,.7,5.07,1.35,10.17,1.29,15.31-.04,3.4-.16,3.56-3.65,4.03-.41,.06-.71,.25-.96,.55Z"/>
          <path class="cls-61" d="M207.45,313.47c.82-2.74,2.12-5.31,3.57-7.7,1.88-3.11,3.42-6.39,5.28-9.5,1.71-2.85,3.77-5.52,7.23-6.53,.16,.14,.22,.28,.18,.44-.04,.16-.08,.23-.13,.23-1.17,3.96-3.37,7.46-5.09,11.17-.64,1.39-1.32,2.7-1.25,4.33,.08,1.87-1.04,3.24-2.44,4.32-1.28,.99-2.65,1.87-4.34,2.02-.3,.06-.51,.26-.73,.45-.18,.07-.36,.1-.55,.09-.33,.31-.87,.18-1.19,.52-.18,.07-.36,.13-.55,.16Z"/>
          <path class="cls-13" d="M95.14,108.99c.23,.14,.54,.46,.69,.39,1.77-.71,3.32-.39,4.8,.78,1.8,1.42,2.86,3.25,3.3,5.47,.05,.27,.1,.75,0,.8-1.57,.69-.83,2.32-1.42,3.38-.71,1.26-.55,2.59-.24,3.88,.69,2.92,.31,5.86,.26,8.79,0,.23-.3,.46-.46,.69-1.51-1.03-1.22-2.66-1.39-4.15-.5-4.36-.32-8.77-1.09-13.1-.14-.76-.27-1.51-.77-2.13-.47-.59-1.15-.71-1.81-.66-.86,.06-1.09,.77-1.02,1.46,.62,5.62-.39,11.43,2.09,16.86,.68,1.48,1.61,2.52,2.83,3.44-1.45,1.14-3.12,.41-4.69,.52-.73,.05-.75-.49-.79-1.16-.13-2.34-.54-4.67-.41-7.03,.17-2.98-.53-5.88-.7-8.87-1.33-.16-2.36,.08-3.18,.99-.13-3.1,1.26-5.8,2.28-8.6,.29-.79,.91-1.41,1.72-1.77Z"/>
          <path class="cls-1" d="M73.27,217.21c0-1.15,0-2.3,0-3.45,.09-5.36-.57-10.7-.3-16.06,.06-1.32-.38-2.95,1.49-3.56v.02c.53,.7-.05,1.63,.49,2.33,.54,3.03,1.11,6.06,1.26,9.14,.3,.68,.65,1.35,.78,2.1,1.65,2.64,.51,5.58,.93,8.35,.1,.78,.07,1.56-.1,2.33-.42,2.04-.68,4.12-1.09,6.16-.24,1.2-.7,2.69-2.26,2.4-1.38-.26-1.71-1.71-1.61-2.99,.11-1.32,.25-2.64,.13-3.97,.11-.93-.25-1.91,.27-2.8Z"/>
          <path class="cls-81" d="M61.19,168.28c.78,3.47,2.03,6.82,2.61,10.34,.14,.84,.51,1.64-.3,2.33-.85,.87-1.69,1.77-3.1,1.16-1.3-1.9-1.21-4.17-1.71-6.29-.43-1.85-.46-3.8-1.18-5.59-1.24-3.1-1.7-3.32-4.89-2.2-1.04,.36-1.81,.62-1.27-.97,.26-1.3,.86-2.42,1.76-3.38,.25,.31,.54,.45,.97,.38,3.36-.55,4.59,.03,6.14,2.88,.27,.49,.43,1.05,.96,1.35Z"/>
          <path class="cls-29" d="M80.15,194.11c.08,.84,.01,1.67,.38,2.49,1.11,2.49,2.56,2.64,4.3,.38,1.15-1.5,2.43-2.86,3.99-3.94-.29,3.52-1.64,6.67-3.45,9.63-.47,.77-1.31,.94-2.27,.71-2.25-.55-2.22,.86-1.67,2.28,.64,1.67,1.86,3.36-1.41,3.34-.74,0-.79,.69-.81,1.28-.04,1.14,.01,2.28,.06,3.43,.03,1.6,.05,3.19,.01,4.79-.2,1.24,.5,2.89-1.49,3.32-1.12-1.87,.16-3.81-.18-5.7,.1-3.46-.34-6.91-.25-10.37,.73-3.92,1.51-7.84,2.81-11.63Z"/>
          <path class="cls-48" d="M74.47,194.14c-.89,.73-.6,1.75-.6,2.66-.02,4.76,0,9.52-.02,14.28,0,.91,.31,1.93-.56,2.68-.18-.44-.52-.89-.5-1.31,.13-2.29-.53-4.49-.65-6.75-.68-.86,.13-2.02-.57-2.88,0-.19,0-.38,0-.57,.08-2.47,.14-4.93,.42-7.41,.3-2.59-.24-5.31-.7-7.93-.31-1.78-.25-3.6-.81-5.36-.24-.76-.29-1.74,.56-2.36,1.65,3.29,1.97,6.94,2.77,10.45,.34,1.47,.89,2.94,.67,4.51Z"/>
          <path class="cls-78" d="M51.36,167.06c.11,.3,.29,.99,.52,.62,.78-1.19,1.88-1.09,3.03-1.14,1.21-.05,1.94,.47,2.46,1.54,.78,1.63,1.45,3.21,1.64,5.09,.3,3,1.05,5.95,1.61,8.92-.24,.88-1.2,.7-1.72,1.16h0c-1.25,.7-2.16,.19-2.88-.86-.65-.94-1.12-1.98-1.41-3.08-.92-3.42-1.44-6.99-3.76-9.88,.02-.83-.21-1.71,.52-2.39Z"/>
          <path class="cls-74" d="M204.54,252.35c.2,2.84-1.4,5.15-2.5,7.51-1.08,2.29-2.07,4.7-3.75,6.69-.3,.36-.5,.82-.83,1.15-.61,.61-1.41,1.35-2.21,1-.99-.43-.09-1.31-.01-1.99,.09-.85,.31-1.73-.57-2.35,.99-2.31,2.8-4.04,4.33-5.95,1.71-2.13,3.69-4.05,5.55-6.06Z"/>
          <path class="cls-51" d="M119.34,47.4c-.86,.46-1.74,.77-2.73,.39-.71-.27-1.03,.23-1.3,.77-.72-.39-1.47-.67-2.31-.58-4.2-1.4-8.25-3.24-12.3-4.95-2.88-1.22-5.6-1.25-8.48-1.41,2.48-1.14,5.12-.67,7.61-.42,6.9,.71,13.32,3.14,19.51,6.2Z"/>
          <path class="cls-6" d="M50.84,169.44c2.3,1.37,3.23,3.42,3.57,6.06,.27,2.14,.92,4.28,1.98,6.26,.58,1.08,1.31,1.6,2.5,1.49-1.08,1.45-2.79,1.07-4.23,1.37-.78,.16-1.36-.46-1.6-1.33-.53-1.93-1.46-3.73-1.69-5.76-.12-1.03-.36-2.06-1.09-2.88,0-.39,0-.79-.01-1.18,.71-1.08-.13-2.4,.54-3.48-.01-.18,0-.36,.03-.54Z"/>
          <path class="cls-38" d="M240.8,235.05c1.27-1.17,2.73-1.82,4.49-1.73,.48,.02,.91-.11,1.22-.5,4.04,1.91,5.15,4.04,4.07,8.23-.99,3.81-2.45,7.44-4.89,10.59-2.57,3.31-5.19,6.59-7.8,9.88-.24-.36-.6-.51-.97-.32-1.26,.61-2.19,.11-3.03-.8,7.22-3.38,10.4-10.23,14.18-16.55,.33-.56,.51-1.24,.55-1.92,.33-5.73-.15-7.51-5.96-6.46-.66,.12-1.34,.16-1.87-.41Z"/>
          <path class="cls-56" d="M118.81,150.35c-.02,2.52-.03,5.04-.05,7.56-.07,3.52,.8,7.12-.96,10.48-1.42-1.09-.83-2.67-.98-4.06,.04-1.3-.07-2.61-.06-3.95-.46,.75-.04,1.75-.66,2.43-.55,.61-.95,.36-1.28-.25-.84-4.43,.8-8.65,1.07-12.99,.06-1.02,.25-2.08,.54-3.09,.26-.92,.41-1.94,1.75-1.8,0,.19,0,.38,0,.57,.69,.86-.13,2.02,.57,2.87,.02,.74,.04,1.48,.06,2.22Z"/>
          <path class="cls-71" d="M199.95,171.81c0-9.07,0-18.14,0-27.21,.58,.63,.49,1.41,.49,2.17,0,7.63,0,15.25,0,22.88,0,.75,.08,1.54-.5,2.17Z"/>
          <path class="cls-44" d="M77.35,205.73c.79,.66,.53,1.56,.54,2.38,.02,2.65,0,5.3,0,7.94-.19,.26-.38,.27-.57,0-.32-.68-.7-1.34-.37-2.15,.86-2.12,.27-4.06-.76-5.94,.61-.43,.52-1.3,1.1-1.75,0-.17,.01-.33,.07-.49Z"/>
          <path class="cls-4" d="M186.72,252.42c.18-1.56-.59-3.23,.53-4.69-.14,1.57,.4,3.21-.53,4.69Z"/>
          <path class="cls-29" d="M77.28,206.22c.06,.85,.11,1.7-1.1,1.75,.02-.78,.03-1.57,.05-2.35,.35,.2,.7,.4,1.06,.6Z"/>
          <path class="cls-78" d="M50.81,169.98c-.13,1.17,.47,2.45-.54,3.48,.12-1.17-.4-2.44,.54-3.48Z"/>
          <path class="cls-71" d="M199.89,142.37c-.99-1.05-.39-2.33-.52-3.5,.84,1.07,.46,2.32,.52,3.5Z"/>
          <path class="cls-84" d="M118.75,148.14c-.95-.81-.43-1.91-.57-2.87,.17,0,.34,0,.52,0,.02,.96,.04,1.92,.05,2.87Z"/>
          <path class="cls-4" d="M187.3,246.09c.08-1-.42-2.11,.52-2.97-.06,1.01,.26,2.08-.52,2.97Z"/>
          <path class="cls-71" d="M199.32,137.76c-.92-.83-.42-1.92-.53-2.9,.78,.85,.5,1.9,.53,2.9Z"/>
          <path class="cls-79" d="M122.18,142.9c-.04,.81,.29,1.71-.52,2.35,0-.82-.18-1.68,.52-2.35Z"/>
          <path class="cls-48" d="M74.96,196.48c-.78-.64-.5-1.52-.5-2.33,.7,.66,.54,1.51,.5,2.33Z"/>
          <path class="cls-16" d="M148.7,58.9c-.65,0-1.36,.14-1.72-.66,.63,.08,1.3,.04,1.72,.66Z"/>
          <path class="cls-70" d="M286.85,148.14c.64,0,1.33-.11,1.71,.62-.65,.01-1.26-.07-1.71-.62Z"/>
          <path class="cls-66" d="M189.02,236.86c-.02-.65-.16-1.34,.51-1.79,.04,.66,.06,1.31-.51,1.79Z"/>
          <path class="cls-13" d="M129.66,102.03c.02,.65,.15,1.33-.52,1.78-.03-.65-.07-1.31,.52-1.78Z"/>
          <path class="cls-13" d="M98.63,108.41c-.6,0-1.2-.01-1.79-.02,.48-.6,1.14-.53,1.8-.49,0,.17,0,.34,0,.5Z"/>
          <path class="cls-72" d="M223.57,290.41c-.02-.22-.03-.45-.05-.67,.21-.19,.41-.37,.62-.56-.01,.49-.15,.93-.57,1.23Z"/>
          <path class="cls-72" d="M225.82,285.69c.02-.45,.11-.87,.55-1.12,0,.47-.13,.86-.55,1.12Z"/>
          <path class="cls-72" d="M225.25,286.85c.01-.47,.12-.89,.56-1.14,0,.47-.14,.88-.56,1.14Z"/>
          <path class="cls-72" d="M224.12,289.2c-.01-.49,.08-.93,.57-1.18-.01,.48-.12,.91-.57,1.18Z"/>
          <path class="cls-39" d="M292.61,115.32c-.47,0-.89-.09-1.15-.55,.47,0,.89,.1,1.15,.55Z"/>
          <path class="cls-39" d="M293.8,115.88c-.49,.02-.93-.07-1.19-.55,.48,0,.91,.12,1.19,.55Z"/>
          <path class="cls-39" d="M295.49,116.47c-.19,0-.39,.01-.58,.02-.19-.19-.38-.38-.57-.57,.47,0,.89,.1,1.15,.55Z"/>
          <path class="cls-39" d="M296.69,117.02c-.49,.02-.94-.07-1.19-.55,.48,0,.91,.11,1.19,.55Z"/>
          <path class="cls-39" d="M298.38,117.62c-.48,0-.91-.09-1.16-.55,.48,0,.9,.11,1.16,.55Z"/>
          <path class="cls-39" d="M300.08,118.2c-.46,0-.88-.09-1.13-.53,.47-.02,.88,.09,1.13,.53Z"/>
          <path class="cls-72" d="M224.69,288.03c0-.48,.1-.91,.56-1.16,0,.48-.13,.89-.56,1.16Z"/>
          <path class="cls-72" d="M228.16,280.61c-.02-.51,.05-.98,.59-1.22-.02,.49-.16,.93-.59,1.22Z"/>
          <path class="cls-74" d="M187.77,276.36c.06,.52,0,1-.5,1.3-.02-.22-.04-.43-.05-.65,.18-.22,.37-.43,.55-.64Z"/>
          <path class="cls-70" d="M291.42,149.89c.48-.03,.91,.06,1.18,.51-.48,.03-.89-.09-1.18-.51Z"/>
          <path class="cls-70" d="M290.12,149.36c.54-.06,1.04-.03,1.32,.54-.52,.01-.98-.12-1.32-.54Z"/>
          <path class="cls-70" d="M288.54,148.75c.49-.04,.92,.06,1.19,.52-.48,.03-.91-.08-1.19-.52Z"/>
          <path class="cls-72" d="M226.45,284.12c.16-.23,.32-.46,.48-.69-.16,.23-.32,.46-.48,.69Z"/>
          <path class="cls-72" d="M227.58,281.77c.16-.21,.31-.43,.47-.64-.16,.21-.31,.43-.47,.64Z"/>
          <path class="cls-72" d="M227.01,282.94c.16-.22,.31-.44,.47-.66-.16,.22-.31,.44-.47,.66Z"/>
          <path class="cls-13" d="M95.71,108.51c-.19,.16-.38,.32-.57,.48,.19-.16,.38-.32,.57-.48Z"/>
          <path class="cls-39" d="M276.51,108.95c-.2-.15-.39-.31-.59-.46,.2,.15,.39,.31,.59,.46Z"/>
          <path class="cls-38" d="M237.37,262.2c.17-.22,.34-.45,.52-.67-.17,.22-.34,.45-.52,.67Z"/>
          <path class="cls-81" d="M53.65,163c-.05,.32-.23,.54-.53,.67,.18-.22,.35-.45,.53-.67Z"/>
          <path class="cls-37" d="M170.58,116.49c.22-1.58,.35-3.18,1.1-4.63,2.91-.83,4.49,.55,4.02,3.71-.42,2.77-.3,5.52-.2,8.28,.07,1.79,.77,2.79,2.78,2.82,1.95,.03,3.14-.63,3.39-2.61,.43-3.41-.11-6.88,.69-10.27,.17-.74,.2-1.51,.4-2.25,1.02-3.88-.18-6.08-4.05-7.4-.63-.22-1.31-.32-1.76-.88,.57-.77,1.41-.59,2.19-.64,2.65-.22,4.1,1.59,5.09,3.51,.89,1.74,1.54,3.7,1.32,5.8-.38,3.54,.55,7.03,.56,10.55,0,.85,.06,1.7-.25,2.55-.91,2.54-1.43,2.95-4.16,2.96-2.49,.01-4.98,.05-7.47,0-2.14-.05-2.57-.38-2.46-2.55,.14-2.7-.64-5.3-.65-7.97,0-.41-.23-.71-.53-.97Z"/>
          <path class="cls-74" d="M193.02,284.56c1.07-1.14,.47-2.54,.55-3.81,.07-1.23,.3-2.03,1.63-2.63,1.89-.85,2.44-3.02,3.61-4.6,.55-.75,.7-1.8,1.7-2.2v1.15c-1.78,4.03-2.46,8.35-3.42,12.6-.73,3.25-1.18,6.57-2.07,9.77-.88,3.16-.81,6.41-1.39,9.59-.39,2.15-.77,4.31-.64,6.53,.07,1.14-.64,1.8-1.79,1.77-1.06-.03-2.35,.5-2.87-1.12-.29-.92-.5-1.83-.49-2.8,.03-2.59,.04-5.17,0-7.76-.04-2.46-.13-4.92-1.46-7.13-.18-.3-.27-.78-.17-1.09,.93-2.91,.31-5.9,.49-8.84,0-1.51,0-3.02,0-4.53,0-.66-.05-1.34,.58-1.79,.89,5.98,.49,12.01,.57,18.02,0,.59,.06,1.15,.57,1.54,.11,.1,.21,.2,.32,.31,.89,2.49,.28,5.08,.46,7.62,.11,1.56-.17,4.23,1.25,4.18,1.97-.07,.93-2.57,1.12-4.05-.33-6.05,.85-12.03,.6-18.07-.04-.95,.07-1.93,.86-2.65Z"/>
          <path class="cls-72" d="M200.14,280.68c-.02-.08-.05-.16-.07-.24,.07-.02,.19-.07,.21-.05,.16,.22,.1,.32-.14,.3Z"/>
          <path class="cls-35" d="M74.43,266.72c.18-1.15-.46-2.44,.58-3.45,1.26,1.9,2.67,3.7,3.85,5.66,1.51,2.52,2.35,5.15,1.85,8.18-.44,2.65,.18,3.22,2.96,2.94,1.45-.15,2.69,.1,3.62,1.2,1.11,1.3,2.53,1.98,4.11,2.44,.24,.09,.47,.22,.69,.35,.21,.13,.41,.28,.6,.44,.09,.08,.17,.17,.26,.25,.17,.16,.32,.34,.47,.52,.14,.17,.27,.37,.38,.56,.16,.29,.31,.58,.48,.87,.13,.18,.25,.37,.38,.55,.33,.51,.86,.77,1.35,1.1,.23,.14,.44,.29,.65,.46,2.04,1.67,4.22,1.61,6.47,.55,4.87-2.29,9.99-3.13,15.33-2.83,.58,.03,1.16-.01,1.69-.27,5.95-2.91,11.15-.91,16.07,2.53,1.6,1.12,3.24,2.09,5.09,2.59,3.55,.95,7.08,1.68,10.29-1.2,1.19-1.06,2.71-1.79,4.22-2.42q3.7-1.56,2.47-5.19c.61-1.19,1.74-.83,2.7-.83,1.24,0,2.39-.22,3.47-.8,.2-.12,.42-.22,.63-.33,.19-.11,.4-.2,.6-.29,.28-.13,.57-.25,.85-.4,.16-.11,.33-.22,.48-.34,.14-.13,.29-.26,.43-.39,.07-.07,.14-.13,.21-.2,.14-.13,.29-.25,.45-.36,.15-.11,.32-.19,.49-.27,.15-.1,.31-.2,.45-.31,0,0,.19-.19,.18-.2,.1-.16,.2-.31,.29-.48,.08-.18,.18-.34,.3-.5,.11-.17,.23-.32,.36-.48,.06-.08,.12-.16,.18-.25,.11-.18,.22-.35,.35-.52,.13-.18,.28-.32,.47-.43,.23-.06,.41,0,.53,.21,1.32-.84,2.23-.23,2.69,.98,.45,1.2-.52,1.51-1.43,1.99-1.89,.99-3.4,2.46-4.06,4.56-.38,1.21-.9,2.29-1.84,3.16-1.33,1.24-2.54,2.52-3.01,4.4-.23,.94-1.06,1.56-2.14,1.61-.18,.21-.41,.36-.58,.58-1.22,.04-2.55-.27-3.47,.89-1.35,1.71-3.11,1.59-4.96,1.2-2.61-.56-4.25,.22-5.41,2.7-.29,.62-.63,.97-1.25,.93-1.74-.11-3.17,.69-4.52,1.6-.76,.51-1.51,.8-2.4,.74-1.2-.09-2.05,.49-2.59,1.48-.44,.81-1.03,1.45-1.89,1.65-1.39,.32-2.52,.74-2.46,2.5,.02,.53-.61,.64-1.1,.69-1.59,.16-3.05-.09-4.28-1.22-.56-.52-1.09-1.09-1.73-1.5-1.14-.73-1.98-.31-1.81,.96,.13,.98,.59,1.93-.8,2.27-1.28,.32-1.95-.44-2.43-1.5-.28-.62-.62-1.22-1.31-1.46-2.05-.71-3.14-2.39-4.2-4.11-1.4-2.27-3.52-4.01-4.76-6.42-.43-.83-1.12-1.35-2.34-.58-1.26,.79-2.71,1.13-4.37,.52-1.62-.59-3.18-.21-4.15,1.57-.59,1.08-1.46,2-2.16,3.02-2.51,3.68-2.78,3.79-7.26,3.31-.88-.09-1.6-.4-1.73-1.21-.3-1.89-1.43-3.5-1.54-5.48-.14-2.65-1.84-4.14-4.5-4.25-1.72-.07-3.45-.03-5.17-.01-1.15,.02-1.98-.25-2.42-1.52-.5-1.46-1.6-1.96-3.18-1.54-1.82,.48-3.4,.38-3.99-1.96-.21-.83-1.16-1.15-2.03-1.43-.96-.31-2.01-.66-2.45-1.95,1.61-.69,4.09,.67,4.79-1.96,.19-.18,.38-.18,.58,0,1.15,0,2.3,0,3.45,0,.47-.52,1.27-.03,1.73-.58,.2-.19,.39-.38,.58-.58,.47-.51,1.27-.03,1.73-.58h.58c2.19-2.73,1.95-6.13-.64-9.5-.57-.75-1.81-1.27-1.09-2.59Z"/>
          <path class="cls-8" d="M168.84,278.8h-.58c-.18,.2-.39,.37-.58,.58-.2,.19-.39,.38-.58,.58h0c-.31,.33-.85,.23-1.15,.58-.19,.19-.4,.36-.58,.58-1.47,1.14-3.09,1.59-4.95,1.2-.63-.13-1.3-.04-1.96-.05-.75,.25-1.62,.37-2.23-.04-3.08-2.09-6.77-3.08-9.69-5.42-1.74-1.4-2.55-3.31-2.62-5.51-.07-2.1-.14-4.19,.08-6.29,.7-3.87,2.35-7.48,2.91-11.39,.15-1.04,.59-2.04,1.76-2.43,1.02-.79,1.87-1.71,3.26-2.07,1.02-.26,2.03-1.13,2.73-1.99,3.45-4.2,7.82-2.97,12.14-2.24,.74,.12,1.1,.65,1.54,1.17,.87,1.03,1.84,1.24,2.93,.21,.41-.39,.97-.61,1.43-.95,.7-.52,1.29-.35,1.67,.34,1.28,2.3,2.9,4.39,2.58,7.37-.3,2.82,.09,5.71-.64,8.51v1.15c-.37,.29-.22,.85-.58,1.15v1.15c-.22,.17-.37,.4-.58,.58v1.15c-.37,.29-.22,.85-.58,1.15-.19,.77-.38,1.53-.58,2.3h0c-.78,.57-.61,1.61-1.15,2.3-.22,.17-.37,.4-.58,.58-.24,.56-.61,1.08-.58,1.73-.19,.19-.33,.43-.57,.58,0,.19,0,.38,0,.57-.21,.17-.38,.38-.58,.58h0c-.2,.18-.37,.39-.58,.58v.57c-.21,.17-.38,.38-.58,.58h0c-.19,.19-.4,.36-.58,.58Z"/>
          <path class="cls-36" d="M68.1,280.53c-.19,0-.38,0-.58,0-.58,0-1.15,0-1.73,0-.17-.22-.4-.37-.58-.57-.38,0-.77,0-1.15,0-2.22-.32-4.14-1.28-5.94-2.61-1.06-.79-2.13-1.64-3.47-2-.65-.17-.84-.63-.96-1.26-1.39-7.34-2.08-14.73-1.73-22.21,.11-2.43,.95-3.01,3.04-1.69,1.4,.88,1.98,.48,2.7-.67,1.27-2.05,3.12-3.24,5.5-3.75,.9-.19,1.42-.1,1.93,.65,2.07,3,3.72,6.21,5.03,9.59,.36,.94,.06,1.85-.09,2.81-.37,2.43-.68,4.73,1.15,7.03,1.38,1.74,1.92,4.16,1.2,6.55-.08,.27-.26,.56-.23,.82,.31,3.05-.56,5.42-3.64,6.6-.21,.08-.32,.46-.47,.7Z"/>
          <path class="cls-4" d="M177.47,276.5c-.13,2.73-.75,5.3-2.56,7.42-.76,.9-.95,1.72-.67,2.88,.57,2.35,.32,2.77-2,2.89-1.45,.08-2.29,.86-3.11,1.78-2.11,2.37-4.85,3.64-7.78,4.6,2.37-2.22,5.3-3.93,6.42-7.25,3.32-2.74,5.65-6.24,7.75-9.95,.49-.86,.86-1.95,1.95-2.37Z"/>
          <path class="cls-4" d="M161.36,296.07c-.65,1.87-2.15,2.78-3.86,3.49-3.41,1.41-6.54,3.25-9.53,5.45-2.31,1.7-4.56,3.33-6.19,5.73-.38,.56-.99,.88-1.71,.88,2.81-4.34,6.89-7.16,11.06-10.11,3.26-2.3,7.2-2.96,10.24-5.44Z"/>
          <path class="cls-4" d="M178.62,271.9c-.06,1.61,.36,3.35-1.15,4.61-.03-1.64,.33-3.18,1.15-4.61Z"/>
          <path class="cls-35" d="M174.02,270.17c.33,0,.65-.53,.98-.01,.03,.05-.01,.21-.07,.26-.41,.35-.68,.11-.9-.25h0Z"/>
          <path class="cls-4" d="M179.2,268.44c-.01,.47-.11,.9-.58,1.15,.01-.47,.11-.9,.58-1.15Z"/>
          <path class="cls-4" d="M174.6,267.87c.01-.47,.11-.9,.58-1.15-.01,.47-.11,.9-.58,1.15Z"/>
          <path class="cls-4" d="M175.75,263.84c.01-.47,.11-.9,.58-1.15-.01,.47-.11,.9-.58,1.15Z"/>
          <path class="cls-4" d="M161.36,292.62c.19-.19,.38-.38,.58-.58-.19,.19-.38,.38-.58,.58Z"/>
          <path class="cls-10" d="M65.22,279.96c.19,.19,.38,.38,.58,.57-.19-.19-.38-.38-.58-.57Z"/>
          <path class="cls-4" d="M171.14,275.35c.19-.19,.38-.38,.57-.58v.58c-.19,0-.38,0-.57,0Z"/>
          <path class="cls-4" d="M172.29,273.05c.19-.19,.38-.38,.58-.58-.19,.19-.38,.38-.58,.58Z"/>
          <path class="cls-4" d="M175.17,265.57c.19-.19,.38-.38,.58-.58-.19,.19-.38,.38-.58,.58Z"/>
          <path class="cls-33" d="M240.8,235.05c1.7-.11,3.32-.73,5.08-.6,2.35,.17,3.27,1.11,3.58,3.46,.69,5.09-1.63,9.09-4.57,12.81-1.65,2.09-3.24,4.21-4.78,6.38-1.49,2.09-3.4,3.61-6.22,3.29-.3-.37-.85-.22-1.15-.57-1.78-.93-3.61-1.77-5.32-2.8-1.73-1.05-2.1-2.28-1.24-4.1,.57-1.19,1.39-2.27,2.16-3.36,3.3-4.66,6.83-9.15,10.73-13.34,.54-.43,1.19-.71,1.72-1.16h0Z"/>
          <path class="cls-38" d="M240.79,235.06c-.32,.77-.89,1.15-1.72,1.16,.32-.77,.89-1.15,1.72-1.16Z"/>
          <path class="cls-38" d="M232.74,259.81c.48,0,.9,.11,1.15,.57-.47,0-.9-.11-1.15-.57Z"/>
          <path class="cls-42" d="M148.69,251.18c-.6,1.19-1.07,2.37-1.24,3.74-.43,3.48-1.96,6.68-2.79,10.07-.14,.14-.29,.32-.26,.49,.79,4.43-1,7.16-4.99,9.31-2.91,1.57-5.85,3.24-8.6,5.16-.65,.45-1.42,.68-2.19,.53-1.95-.39-3.49-.35-4.27,2.04-.38,1.16-1.79,.89-2.78,.37-2.61-1.37-4.8-.61-6.8,1.25-.85,.79-1.76,1.61-2.93,1.72-3.9,.39-7.6,1.84-11.49,2.16-1.56,.13-2.94,1.75-4.64,.57-.57-.58-1.15-1.16-1.73-1.73-.33-.31-.23-.85-.58-1.15-.19-.2-.38-.39-.58-.58-.19-.2-.38-.39-.58-.58-3.77-2.64-5.14-6.98-7.49-10.63-.84-1.3-2.05-2.61-1.6-4.43,.1-.25,.25-.46,.46-.62,.25-.06,.49-.03,.72,.1,.18,.16,.33,.34,.47,.53,.07,.09,.13,.19,.21,.27,.14,.17,.28,.34,.42,.51,.08,.08,.15,.16,.22,.23,.16,.14,.32,.28,.49,.41,.09,.05,.18,.11,.27,.16,.3,.13,.61,.24,.92,.34,.22,.07,.44,.16,.65,.26,.33,.14,.66,.3,1,.44,.89,.76,2.75,.35,2.71,2.23-.62,.7-1.08,1.4-.04,2.14,.39,.27,.94,.48,1.11,.88,1.29,3.01,2.78,5.09,6.31,2.32,.73-.57,1.96,.45,2.92,.84,3.12,1.29,6.08,1.68,8.64-1.22,.84-.96,2.07-1.36,3.29-1.66,1.49-.37,2.39-1.42,3.35-2.52,1.35-1.55,.28-2.58-.48-3.77-.38-.59-.36-1.28,.13-1.87,1.69-.22,2.79,1.01,4.08,1.72,3.68,2.04,6.05,1.03,6.76-3.06,.34-1.95,1.05-3.52,2.66-4.83,2.05-1.67,3.99-3.52,5.01-6.09,1.42-3.59,1.58-7.47,.66-10.98-1.71-6.51-9.36-12.59-17.44-7.95-.73,.42-1.35,1.11-2.33,.82-1.63-4.77,1.39-9.01,6.2-8.68,.77,.05,1.53,.09,2.29-.03,2.1-.33,3.99-.04,5.48,1.69,.4,.47,.86,1.18,1.66,.71,.63-.38,.72-1.09,.79-1.77,.13-1.24-.46-2.22-1.15-3.16-1.44-1.97-1.59-4.02-.51-6.21,.42-.85,.62-1.84,1.18-2.61,4.03-5.5,6.09-12.04,9.51-17.86,.73-1.24,1.56-2.4,2.52-3.48,2.22-2.52,4.15-5.14,5.1-8.51,.88-3.13,3.47-5.22,5.94-7.19,1.15-.91,2.37-1.17,2.23,1.07-.08,1.24,.09,2.49-.1,3.73-.04,2.13-.22,4.21-1.81,5.86-.56,.58-.65,1.38-.81,2.12-2.43,11.62-5.14,23.18-7.26,34.86-.47,2.57-.45,5.14-.34,7.72,.06,.29,.07,.59,.04,.89-.07,.56-.23,1.12-.27,1.68,.2,1.93,1.19,2.41,2.67,1.21,1.97-1.59,3.74-3.6,3.83-6.17,.19-5.51,2.05-10.68,2.76-16.07,3.41-14.82,4.85-29.86,5.33-45.02,.05-1.51-.08-3.01-.29-4.51,.19-4.02,1.24-7.89,1.97-11.82,.48-2.59,.43-5.3,1.47-7.79,.11,.36,.1,.85,.33,1.07,2.05,1.88,2.16,4.28,1.99,6.8-.24,3.69,.49,7.44-.55,11.09,1.1,3.9,.03,7.97,.93,11.9,.23,1.01,.14,2.08,.19,3.13,.06,1.14-.17,2.3,.27,3.41,.41,1.03,.23,2.02-.02,3.08-.92,3.99-1.72,8-2.59,12-.12,.55-.32,1.1-.54,1.62-1.09,2.66-2.1,5.29-1.21,8.27,.26,.88,.1,1.91,.04,2.86-.11,1.64,.08,3.06,1.91,3.71,1.02,.36,1.06,1.29,.97,2.17-.18,1.61,.56,2.62,2.04,2.99,2.29,.58,3.8,2.03,5.07,3.93,1.04,1.55,2.77,2.3,4.37,3.15,2.24,1.18,1.87,1.18,1.92,3.63,.07,3.11-2.16,3.99-4.1,5.24-1.47,.94-3.07,1.69-2.96,3.82-.19,0-.38,0-.58,0-.16-.22-.38-.39-.58-.58-.24-.29-.45-.78-.73-.83-3.33-.55-6.58-2.23-10.02-1.4-2.62,.63-5.19,1.44-7.45,3.28-1.9,1.55-2.78,3.77-4.5,5.36-.43,.4-.32,1.07-.33,1.64Z"/>
          <path class="cls-21" d="M145.81,71.58l.58-2.88c4.61,.51,8.77,2.56,13.12,3.94,5.37,1.7,10.69,3.54,16.04,5.29,5.07,1.66,10.24,3.06,15.21,4.97,4.44,1.71,8.96,3.19,13.44,4.78,4.84,1.72,9.62,3.65,14.53,5.2,1.99,.63,3.92,1.44,5.86,2.21,7.01,2.76,14.01,5.51,21.01,8.3,4.5,1.8,9.07,3.48,13.45,5.55,3.07,1.45,6.44,2.27,9.15,4.58,1.39,1.18,2.51,2.25,2.67,4.15,.05,.63,.41,1.28,1.01,1.68-.35,.73-.66,1.47-.57,2.3-.04,.13-.08,.27-.12,.4-.16,.23-.37,.42-.62,.56-.26,.11-.54,.18-.82,.22-2.09,.21-3.55-1.3-5.3-2-4.27-1.71-8.6-3.28-12.77-5.23-1.17-.54-2.62-.83-2.82-2.49,.2-.52,1.14-1.08-.08-1.53-11.48-4.25-22.18-10.33-33.79-14.32-5.96-2.05-11.57-5.03-17.39-7.48-3.88-1.63-8.03-2.51-11.86-4.48,1.42,1.18,3.82,1.17,3.79,3.71-2.93,.33-5.71-.47-8.29-1.59-7.88-3.41-15.94-6.35-23.74-9.95-1.54-.71-3.27-1.15-4.24-2.75-.04-1.7-.9-.82-1.59-.49-2.1-.55-4.38-.69-5.85-2.65Z"/>
          <path class="cls-21" d="M272.45,117.63c0,.48-.11,.9-.57,1.16,0-.48,.1-.91,.57-1.16Z"/>
          <path class="cls-21" d="M273.59,115.33l-.55,.59c.18-.2,.37-.39,.55-.59Z"/>
          <path class="cls-21" d="M273.02,116.48c-.19,.2-.37,.4-.56,.6,.19-.2,.37-.4,.56-.6Z"/>
          <path class="cls-67" d="M77.89,221.82c1.03-1.01,.39-2.3,.57-3.46,2.15-1.65,4.63-2.63,7.11-3.63,1.41-.57,2.85-.45,4.18,.21,3.46,1.72,7.33,2.94,8.84,7.12,.32,.89,1.24,1.08,2.12,1.24q4.29,.78,4.47,5c-.42,2.8-.25,5.7-1.41,8.37-.65,.95-1.61,1.34-2.7,1.37-4.9,.12-8.72,2.47-12.13,5.73-.83,.8-1.69,1.55-2.77,2.01-4.06,1.33-6.39,4.02-6.64,8.38-1.88,2.04-2.6,1.83-4.52-1.26q-.31-1.61-1.42-3.18c1.41-.39,2.19-1.22,2.01-2.78-.24-2.07,.9-4.04,.56-6.13-1.49-2-.2-4.01-.03-6.01,.35-1.02,.44-2.08,.46-3.15,.03-.46,.11-.92,.22-1.37,.46-1.36,.25-2.77,.28-4.17,.14-1.45-.4-3.03,.8-4.29Z"/>
          <path class="cls-35" d="M75.01,252.9c.63,.53,1.29,1.04,1.89,1.6,.96,.92,1.62,.59,2.14-.45,1.56-.11,1.75,1.03,1.57,2.05-.27,1.5,.17,2.81,.61,4.16,.19,.67,.25,1.36,.27,2.06,.02,.63,.05,1.26,.23,1.86,.1,.34,.17,.68,.24,1.02,.1,.58,.43,1,.88,1.35,.55,.5,1.06,1.02,1.14,1.81-.02,.26-.14,.47-.33,.65-.38,1.72,.81,2.89,1.54,4.18,2.19,3.89,4.35,7.81,7.1,11.36-2.28-.4-4.42-.99-5.8-3.15-.64-1-1.71-.9-2.84-.63-3.3,.78-4.5-.46-3.68-3.79,.51-2.08,.08-3.97-.73-5.84-.84-1.95-2.03-3.7-3.39-5.29-.72-.84-.83-1.65-.83-2.61,0-1.34,0-2.69,0-4.03,.47-1.15,.47-2.3,0-3.45,0-.58,0-1.15,0-1.73,0-.38,0-.77,0-1.15Z"/>
          <path class="cls-76" d="M77.31,230.45c0,.38,0,.77,0,1.15-.7,.86,.1,2.02-.57,2.88,.21,2.15-.91,4.17-.58,6.33-1.02,1.69-1.25,3.55-1.13,5.45,.08,1.25-.36,1.94-1.59,2.27-1.64,.45-2.36,.09-2.42-1.66-.09-2.67-.03-5.34-.04-8.02,0-1.91,0-3.82,0-5.73,0-.75-.15-1.55,.57-2.11,1.09,1.09,.61,2.52,.82,3.8,.06,.37,.09,.81,.52,.92,.57,.16,.85-.27,1.08-.7,.23-.42,.33-.89,.4-1.36,.78-5.15,2.59-10.09,2.93-15.32,0-.77,0-1.53,0-2.3,.19,0,.38,0,.57,0,0,1.92,0,3.84,.01,5.76,0,1.53,0,3.07-.01,4.6-.77,1.26,.17,2.77-.57,4.03Z"/>
          <path class="cls-44" d="M77.31,218.36c-.03,4.09-.52,8.1-1.61,12.06-.39,1.44-.56,2.95-.67,4.44-.09,1.12-.65,1.72-1.6,2.12-1.27,.54-1.77,.29-1.84-1.1-.08-1.61-.02-3.24-.03-4.85,.78-1.26-.17-2.77,.57-4.03-.27-2.34,.85-4.56,.59-6.9,.18-.27,.37-.27,.56,0,.46,1.81-.42,3.76,.57,5.54,.23,.42,.34,.88,.96,1.04,.95-.69,1.2-1.73,1.37-2.88,.27-1.82,.23-3.72,1.13-5.42Z"/>
          <path class="cls-76" d="M72.12,227c-.21,1.34,.51,2.81-.57,4.03,.2-1.34-.5-2.81,.57-4.03Z"/>
          <path class="cls-82" d="M71.55,202.82c.96,.81,.44,1.91,.57,2.88-.96-.81-.44-1.91-.57-2.88Z"/>
          <path class="cls-48" d="M73.28,220.09c-.19,0-.38,0-.56,0,.12-.97-.39-2.07,.56-2.89,0,.96,0,1.92,0,2.88Z"/>
          <path class="cls-42" d="M164.82,149.28c.05-1-.28-2.08,.53-2.94-.08,1,.42,2.1-.53,2.94Z"/>
          <path class="cls-42" d="M165.98,141.8c.03-1.01-.27-2.08,.51-2.96-.07,1.01,.43,2.11-.51,2.96Z"/>
          <path class="cls-42" d="M165.41,145.25c0-.83-.2-1.7,.52-2.37-.02,.82,.31,1.72-.52,2.37Z"/>
          <path class="cls-79" d="M78.46,213.18c.08-1.79-.18-3.6,.15-5.27,.69-.4,1.05-.05,1.44,.2,.49,.32,1.07,.68,1.52,.09,.43-.56-.04-1.18-.42-1.51-1.02-.89-1.15-1.91-.75-3.1,.58-1.71,1.16-1.97,2.78-.9,.79,.52,1.25,.33,1.66-.28,.48-.71,1.02-1.45,1.22-2.25,.61-2.5,1.66-4.82,2.75-7.13,1.29-2.96,3-5.71,4.86-8.29,2.22-3.06,4.63-6.01,7.24-8.8,2.03-2.17,4.16-3.3,7.11-2.7,.82,.17,1.5-.33,1.38-1.02-.38-2.17,1.43-3.35,2.09-5.04,.38-.97,1.04-1.85,.91-2.95-.34-2.88,.81-5.65,.6-8.52-.04-.58,.1-1.13,.74-1.4,.65,.53,.3,1.25,.4,1.88,.65,.61,.58,1.39,.49,2.17-.19,.75-.31,1.51-.26,2.29-.03,2.24,.13,4.49-.2,6.72-.12,.63-.37,1.24-.36,1.89-.46,6.63-1.8,13.15-2.63,19.74-.42,3.3-.05,6.66-.92,9.9-.03,.31-.1,.61-.19,.91-.41,.97-.35,2.04-.64,3.04-.11,.29-.29,.51-.54,.69-.31,.06-.57-.03-.77-.28-.83-1.58-.3-3.18-.06-4.78,.47-3.11,.27-3.3-2.92-2.68-.75,.15-1.49,.36-2.25,.5-.88,.16-1.67,.05-2.47-.44-3.59-2.18-6.81-.87-8.13,3.04-.95,2.8-2.28,5.46-3.11,8.33-.4,1.41-1.31,2.59-3.19,2.12-1.8-.45-2.23,1.01-2.9,2.16-1.06,1.85-2.39,3.06-4.64,1.67Z"/>
          <path class="cls-84" d="M109.55,199.95c.58-5.09,.77-10.2,1.46-15.29,.71-5.26,2.04-10.45,2-15.8,.37-.3,.22-.84,.57-1.15,0-2.49,0-4.99,0-7.48,.55-.46,.05-1.26,.57-1.73,0-.77,0-1.54,0-2.3,.84-.6,.49-1.51,.58-2.3,.79-1.46-.19-3.14,.57-4.61v-.57c.93-1.57,.69-3.4,1.14-5.08,.12-.44,.05-.94,.19-1.38,.14-.44,.45-.86,1.03-.71,.44,.11,.48,.53,.5,.89,.03,.75,.02,1.5,.02,2.25-1.37,.61-1.57,2.04-1.61,3.14-.18,5.11-1.54,10.13-1.26,15.27,.85,.89,.59,1.95,.46,2.99-1.36,10.14-2.57,20.3-4.41,30.36-.23,1.28,.02,2.97-1.8,3.49Z"/>
          <path class="cls-17" d="M115.3,149.29c-.25,1.53,.57,3.19-.57,4.61,.25-1.53-.58-3.19,.57-4.61Z"/>
          <path class="cls-53" d="M145.81,71.58c2.11,.77,4.22,1.53,6.33,2.3,.38-.36,.77-.35,1.15,0,.69,1.74,2.5,2.06,3.88,2.67,5.63,2.5,11.37,4.75,17.06,7.1,1.32,.54,2.66,1.06,3.92,1.71,3.6,1.84,7.53,2.55,11.4,3.48,2.61-.54,4.78,.88,6.99,1.78,9.27,3.78,18.46,7.74,27.82,11.29,4.1,1.55,8.08,3.42,12.16,5.04,.13,.06,.26,.13,.4,.2,.13,.07,.25,.16,.38,.23,.25,.17,.46,.37,.65,.61,.18,.25,.28,.52,.31,.83-.03,.47-.16,.86-.68,.99-3.23-.5-6.17-1.9-9.16-3.09-2.67-1.06-5.25-2.3-8.06-3.03-2.97-.78-5.72-2.16-8.47-3.54-5.73-2.88-12.17-4.06-17.76-7.29-4.24-2.45-7.75-.32-11.2,1.77-1.32,.8-1.81,2.23-.73,3.73,.33,.46,.76,.9,.44,1.54-2.57,0-4.67-1.43-6.95-2.3-13.75-5.26-27.37-10.84-41.1-16.13-1.14-.44-2.42-.7-3.18-1.82,0-.2,0-.39,0-.59,.57-.77,1.14-1.55,1.71-2.32,.97,.94,2.03,.83,2.64-.22,1.58-2.74,4.02-3.87,7-4.26,1.03-.13,2.03-.45,3.05-.69Z"/>
          <path class="cls-69" d="M131.43,79.65c5.65,1.71,11.05,4.09,16.53,6.26,8.14,3.22,16.23,6.56,24.38,9.75,3.45,1.35,6.68,3.24,10.32,4.11,2.29,.22,4.58,.45,5.76,2.89-1.39,.04-2.58-.59-3.83-1.06-7.84-2.97-15.69-5.93-23.54-8.9-7.31-2.77-14.61-5.56-21.91-8.35-3.47-1.33-6.93-2.68-10.41-3.99-.89-.33-1.87-.45-2.47-1.3,1.25-.08,2.32,.53,3.45,.9,.66,.22,1.25,.34,1.73-.3Z"/>
          <path class="cls-69" d="M126.25,79.05c-.64,0-1.33,.12-1.72-.59,.64,.01,1.31-.07,1.72,.59Z"/>
          <path class="cls-68" d="M120.48,75.03c.47,.01,.9,.11,1.15,.57-.47-.01-.9-.11-1.15-.57Z"/>
          <path class="cls-68" d="M122.21,75.61c.47,0,.9,.11,1.15,.57-.47-.01-.9-.11-1.15-.57Z"/>
          <path class="cls-68" d="M123.36,76.19c.47,.01,.9,.11,1.15,.57-.47-.01-.9-.11-1.15-.57Z"/>
          <path class="cls-68" d="M124.51,76.76c.47,.01,.9,.11,1.15,.57-.47,0-.9-.11-1.15-.57Z"/>
          <path class="cls-68" d="M126.24,77.34c.47,0,.9,.11,1.15,.57-.47-.01-.9-.11-1.15-.57Z"/>
          <path class="cls-68" d="M129.12,78.49c.47,0,.9,.11,1.15,.57-.47-.01-.9-.11-1.15-.57Z"/>
          <path class="cls-68" d="M127.97,77.92c.19,.19,.38,.38,.58,.57-.19-.19-.38-.38-.58-.57Z"/>
          <path class="cls-20" d="M74.43,266.72c.03,.63,.46,.95,.9,1.35,2.38,2.21,3.18,5.04,3.15,8.21-.02,1.62-1.24,1.97-2.31,2.53,.98-2.22,.44-4.29-.57-6.33-.47-.94-.98-1.87-1.39-2.84-.42-.99-.67-2.01,.24-2.92Z"/>
          <path class="cls-35" d="M75.01,255.78c.86,1.15,.86,2.3,0,3.45,0-1.15,0-2.3,0-3.45Z"/>
          <path class="cls-20" d="M75.58,278.8c-.41,.68-1.09,.56-1.73,.58,.41-.68,1.09-.56,1.73-.58Z"/>
          <path class="cls-20" d="M73.28,279.96c-.41,.68-1.09,.56-1.73,.58,.41-.68,1.09-.56,1.73-.58Z"/>
          <path class="cls-20" d="M73.85,279.38l-.58,.58,.58-.58Z"/>
          <path class="cls-34" d="M107.55,167.49c.04,.08,.12,.15,.11,.23,0,.07-.1,.13-.15,.2-.18-.16-.17-.3,.04-.43Z"/>
          <path class="cls-5" d="M188.41,102.67c-1.67-1.46-3.98-1.65-5.76-2.89-.1-.16-.24-.31-.29-.49-.28-.89-2.17-.25-1.71-1.82,.42-1.43,.43-2.98,2.12-3.83,1.96-.99,4.15-1.47,5.95-2.82,.65-.49,1.45-.09,2.2,.13,3.42,.98,6.55,2.62,9.71,4.17,1.22,.6,2.41,1.1,3.77,1.24,1.35,.15,2.59,.65,3.8,1.24,3.66,1.8,7.24,3.85,11.18,4.97,3.89,1.1,7.42,3.07,11.19,4.27,2.51,.8,4.78,2.16,7.34,2.74,.32-.4,.58-.87,1.17-.93,.26,0,.52,.02,.77,.1,.25,.08,.48,.18,.72,.28,.24,.1,.47,.22,.7,.35,1.71,1.03,3.48,1.9,5.42,2.4,.24,.05,.49,.12,.72,.2,.46,.17,.89,.41,1.25,.75,.06,.1,.13,.21,.19,.31,2.56,2.29,5.89,3.01,8.89,4.39,3.37,1.54,7.05,2.37,10.17,4.48,.85,.58,1.86,.27,2.8,.33,.31,2.47-1.41,4.19-2.36,6.16-.97,2.01-1.46,3.8,.21,5.61-.06,.12-.11,.24-.17,.37-1.32,.07-2.36-.71-3.51-1.16-13.03-5.18-26.05-10.39-39.09-15.57-1.85-.74-3.68-1.6-5.72-1.75-1.45-.76-2.85-1.69-4.57-1.72-1.63-1.56-3.95-1.72-5.8-2.86-.3-.37-.83-.25-1.16-.57h0c-.44-.58-1.26-.06-1.71-.6-3.26-1.34-6.53-2.68-9.79-4.03-.31-.36-.84-.24-1.16-.56h0c-.44-.57-1.26-.06-1.71-.6-1.92-.76-3.84-1.53-5.76-2.29Z"/>
          <path class="cls-13" d="M176.95,103.25c3.34-.44,5.31,1.45,6.86,4.04,.51,.85,.88,1.85,.46,2.74-1.81,3.85-1.62,7.94-1.6,12.02,0,1.17-.33,2.25-.52,3.37-.22,1.31-1.03,1.83-2.13,1.92-1.42,.12-2.87,.05-4.3,.03-.52,0-.87-.24-.87-.86-.05-3.69-.71-7.37,.18-11.06,.58-2.42-.37-3.35-3.34-3.59,.15-2.79,1.36-5.16,2.9-7.4,.79-.4,1.58-.8,2.36-1.2Z"/>
          <path class="cls-54" d="M194.17,104.96c.64,.01,1.31-.09,1.71,.6-.63-.02-1.31,.08-1.71-.6Z"/>
          <path class="cls-14" d="M206.84,110.14c.63,.02,1.31-.09,1.71,.6-.63-.02-1.31,.08-1.71-.6Z"/>
          <path class="cls-54" d="M195.89,105.55c.48-.01,.91,.09,1.16,.56-.48,0-.91-.1-1.16-.56Z"/>
          <path class="cls-14" d="M208.55,110.74c.48-.01,.91,.09,1.16,.57-.48,0-.9-.11-1.16-.57Z"/>
          <path class="cls-9" d="M159.08,113.54c.59,.62,.5,1.4,.5,2.16,0,7.51,0,15.01-.01,22.52,0,.66,.07,1.34-.45,1.88-1.4,3.08-1.82,3.22-4.72,1.56-.57-.32-1.14-.64-1.68-1,1.06-2.38,1.09-2.42,3.23-1.09,.9,.56,1.3,.2,1.87-.46,1.56-1.77,1.22-3.88,1.21-5.95,.01-6.54,.03-13.09,.04-19.63Z"/>
          <path class="cls-43" d="M296.06,144.11c-3.15-.94-6.34-1.78-9.21-3.45,1.2-1.08,2.51-.67,3.78-.2,1.09,.4,2.18,.73,3.39,.74-2.47-1.48-5.24-2.38-7.72-3.85-3.69-2.19-6.76-4.93-8.16-9.13-.4-1.2-1.21-1.89-2.18-2.55-.81-.55-2.03-.86-1.77-2.27,2.79-.42,5.11,.6,7.23,2.31,.79,.64,1.7,1.15,2.55,1.72,.55,1.1,1.16,2.18,1.65,3.32,.78,1.82,1.99,3.15,3.79,4.06,1.33,.67,2.57,1.48,3.5,2.79,.81,1.14,2.23,1.71,3.48,2.39,1.5,.81,2.98,1.66,4.45,2.52,.5,.29,.98,.69,.68,1.37-.27,.6-.78,.77-1.41,.54-.82-.31-1.65-.56-2.33,.28-.38,0-.77,0-1.15,0-.17-.21-.4-.36-.58-.57Z"/>
          <path class="cls-18" d="M152.72,140.65c1.1-.76,1.75,.28,2.49,.7,1.86,1.05,1.83,1.09,3.16-.46,.24-.28,.5-.53,.76-.8-.04,4.79,.16,9.59-.17,14.35-.48,6.78-.19,13.58-.62,20.34-.2,3.24-.36,6.48-.41,9.72-.01,.93-.25,1.93,.45,2.76,.12,.11,.24,.22,.36,.33,.31,1.03,.46,1.99-1.02,2.19-1.18-.89-.67-1.99-.4-3.07v-4.79c-2.5,.72-3.66,2.76-5.19,4.29-1.36,1.36-2.28,2.99-2.57,4.99-.41,2.81-2.63,4.59-4.29,6.63-1.4,1.71-2.77,3.34-3.58,5.45-.54,1.4-1.5,2.64-2.28,3.95-.83,1.39-1.78,2.74-1.66,4.48,.06,.82-.29,1.47-.86,2.04-2.39,2.42-3.82,5.39-5.2,8.46-1.03,2.29-.68,3.98,.89,5.7,1.51,1.64,1.31,3.49,.49,5.35-.62,1.41-1.81,1.65-2.57,.35-1.54-2.64-3.61-3.13-6.32-2.2-1.15,.4-2.18-.51-3.36-.43-1.36,.08-2.24,.31-2.79,1.82-.75,2.06-1.94,3.95-1.57,6.28-1.96,2.56-3.09,6.15-7.36,5.81-.56-.04-1.04,.45-1.57,.64-1.88,.65-2.98,.12-2.99-2.02,3.07-4.73,3.77-10.05,3.83-15.53,.04-.3,.11-.59,.2-.87,.86-2.32,.82-4.74,.8-7.16,.92-4.6,1.55-9.26,2.91-13.77,.26-.51,.47-1.04,.6-1.6,.21-.9,.66-1.59,1.71-1.65,1-.05,1.58,.51,2,1.34,.7,1.4,1.04,3.67,3.1,3.07,1.97-.57,1.13-2.8,1.12-4.3,0-2.38,.81-3.98,3.01-5.03,2.06-.98,3.42-2.58,3.93-4.97,.58-2.73,1.2-2.93,3.82-1.93,.62,.24,1.21,.64,1.89,.65,1.28,.01,1.83-.6,1.19-1.81-.49-.92-1.1-1.85-1.86-2.54-2.22-2.02-2.79-4.7-3.25-7.45-.11-.65-.39-1.37,.24-1.87,.76-.6,1.47-.11,2.07,.35,1.29,.98,2.47,2.09,4.23,2.25,2.76,.26,3.83-.34,4.84-2.93,.31-.8,.53-1.64,.77-2.46,.67-2.23,1.98-3.75,4.47-3.72,1.98,.03,2.68-1.14,3.48-2.74,2.95-5.91,1.43-12.17,1.73-18.29,.12-2.35-.58-4.8,.76-7.03,.65-.65-.04-1.64,.58-2.3v-.58Z"/>
          <path class="cls-9" d="M152.14,143.53c0,4.49,0,8.97,0,13.46,0,.77,.07,1.51,.34,2.26,.4,1.11,.55,2.38,.06,3.38-1.31,2.68-1.83,5.59-2.76,8.38-.28,.85-.83,1.24-1.68,1.29-.48,.02-.96,.01-1.44,.02-2.9,.06-3.59,.6-4.3,3.5-.37,1.49-.89,2.91-1.59,4.29-.49,.96-1.17,1.38-2.26,1.44-2.68,.15-5.18-.06-6.96-2.45-.32-.43-.73-.92-1.65-.71,.51,1.77,1.16,3.54,1.05,5.42-.01,.24,.19,.57,.39,.74,1.6,1.41,2.59,3.31,3.98,4.88,.55,.62,1.55,.92,.79,2.04-.87,1.28-1.85,1.71-3.11,1.19-.88-.37-1.73-.83-2.58-1.27-.97-.5-1.82-.4-1.82,.83,0,3.87-2.5,5.75-5.56,7.13-1.07,.48-1.43,1.15-1.41,2.2,.01,1.34,.02,2.68,0,4.02-.02,1.21,.28,2.61-1.48,2.97-1.5,.3-3.16-.78-3.71-2.4-.18-.54-.37-1.08-.51-1.64-.2-.77-.66-1.14-1.45-1.02-.73,.11-.86,.66-.89,1.27-.03,.58-.04,1.16-.59,1.53-1.02-1.06-.78-2.31-.47-3.52,1.16-4.55,1.8-9.2,2.76-13.79,1.16-5.81,1.9-11.68,2.66-17.54,.2-1.54,.45-3.01,1.38-4.29,.94-.84,.49-1.96,.57-2.97,.1-1.23-.04-2.44,.39-3.67,.4-1.16,1.09-1.93,2.2-1.9,2.97,.08,5.55-1.26,8.26-2.08,2.04-.62,3.99-.96,6.05,.02,.96,.46,1.8,.73,2.24,1.92,.49,1.31,1.59,1.63,2.77,.83,2.22-1.51,4.73-2.71,5.29-5.91,.37-2.12,1.54-4.09,2.15-6.19,.49-1.67,1.34-2.89,2.89-3.65Z"/>
          <path class="cls-58" d="M119.33,167.13c-.64,4.71-1.27,9.43-1.93,14.13-.29,2.07-.65,4.13-.94,6.2-.08,.57-.05,1.15-.58,1.54-1.3-1.54-.62-3.2-.36-4.86,.67-4.29,.75-8.64,1.27-12.95,.12-1.02-.07-2.11,.81-2.91,.81-.65,.56-1.57,.57-2.4,.02-2.67-.13-5.35,.59-7.96,1.01,.1,1.33,.8,1.05,1.61-.86,2.5-.32,5.07-.48,7.61Z"/>
          <path class="cls-9" d="M152.72,141.23c-.08,.8,.27,1.7-.58,2.3,.08-.8-.27-1.7,.58-2.3Z"/>
          <path class="cls-5" d="M269.49,134.93c-.45-.01-.84-.17-1.1-.56,0,0,.09-.12,.09-.12,.66-.3,1.13-.23,1.18,.62l-.17,.05Z"/>
          <path class="cls-66" d="M171.72,243.12c.19,.19,.38,.38,.58,.58-.19-.19-.38-.38-.58-.58Z"/>
          <path class="cls-83" d="M193.02,284.56c0,3.51,.35,7.08-.11,10.53-.48,3.61-.36,7.18-.47,10.77-.67,.98-1.12,2.43-2.71,1.88-1.4-.49-.95-1.87-1.02-2.95-.17-2.52,.34-5.06-.3-7.56,.33-.69,.67-1.37,.51-2.18-.84-4.25-.83-8.5-.01-12.74,.14-.75-1.06-1.81,.27-2.19,1.26-.36,1.29,1.07,1.83,1.72,.95-.03,.73-1.38,2.01-1.39v4.12Z"/>
          <path class="cls-62" d="M269.66,134.88c-.29-.39-.71-.56-1.18-.62-.05-.08-.09-.18-.16-.23-2.41-1.81-2.45-1.82-1.13-4.64,1.13-2.41,2.35-4.77,3.52-7.16,0,0,.04,0,.04,0,.19-.19,.37-.39,.55-.59,0,0,0,0,0,0,1.34-.05,1.83,1.32,2.89,1.74,.2,.45,.49,.84,.95,1.03,2.31,.98,4.08,2.38,4.13,5.17,0,.28,.06,.69,.24,.8,2.63,1.69,3.71,5.01,6.85,6.24,2.91,1.14,5.67,2.65,8.5,4.01,.43,.2,.96,.46,.79,1.01-.19,.65-.86,.85-1.4,.59-1.29-.61-2.82-.23-4.05-1.22-.93-.75-2.22-.27-3.35-.36-.19,0-.38,0-.57,0-.3-.37-.85-.22-1.15-.57-4.6-1.63-9.21-3.26-13.82-4.87-.52-.18-1.1-.22-1.65-.33Z"/>
          <path class="cls-6" d="M58.89,183.25c.39-.65,1.12-.81,1.72-1.16,1.1-.04,1.93-.77,2.89-1.14-.84,2.16-2.88,1.93-4.61,2.3Z"/>
          <path class="cls-27" d="M140.06,118.21c-.32,.76-.9,1.15-1.73,1.15-.67-.01-1.34,.02-2-.06-.76-.08-1.24-.45-1.04-1.34,.39-1.75,.21-3.37-.82-4.91-.28-.41-.16-1.11-.16-1.68-.01-3.34,0-6.69,0-10.03,0-1.91,.88-3.72,.58-5.66-.2-1.3,.25-2.12,1.65-2.52,1.44-.41,2.66,.02,3.21,1.13,.97,1.95,1.44,4.14,1.27,6.33-.39,5.01-1.32,9.98-.81,15.04,.08,.83-.09,1.69-.15,2.54Z"/>
          <path class="cls-43" d="M285.12,140.08c.47,.01,.9,.11,1.15,.57-.47,0-.9-.11-1.15-.57Z"/>
          <path class="cls-31" d="M296.06,144.11c.19,.19,.39,.38,.58,.57-.19-.19-.38-.38-.58-.57Z"/>
          <path class="cls-2" d="M100.91,134.9c-2.44-.08-2.42-.09-3.14-2.19-.27-.8-.5-1.62-1.01-2.35-.61-.86-1.04-1.93-.98-2.95,.28-4.31-.78-8.55-.65-12.85,.04-1.14,.14-2.13,1.43-2.45,1.22-.3,3.02,.65,3.36,1.84,.39,1.37,.95,2.78,.9,4.16-.12,3.55,.64,7.03,.64,10.55,0,1.54,.11,3.04,.6,4.51,0,.83-.39,1.4-1.15,1.73Z"/>
          <path class="cls-12" d="M78.46,213.18c2.38,.37,3.67-.63,4.43-2.94,.71-2.15,1.28-2.24,3.59-1.47,.52,.17,.89,.19,1.22-.3,.53-.78,1-1.54,1.22-2.53,.36-1.65,.62-3.39,1.64-4.83,.72-1.03,1.2-2.08,1.2-3.41,0-1.5,1.11-2.35,2.4-2.89,.7-.29,1.47-.38,2.19-.64,1.72-.61,3.39-1.36,4.41,1.12,.33,.8,1.26,.5,2.05,.3,2-.52,4-1.25,6.24-.62,.28,2.85-.95,5.59-.64,8.43,.55,.53,.62,1.2,.52,1.91-.04,.27-.1,.54-.17,.8-.33,1.05-.18,2.14-.24,3.22-.06,1.14-.42,2.22-.75,3.3-.39,.96-.33,1.98-.4,2.99-.03,.46-.11,.92-.22,1.37-.61,2.9-.86,5.85-1.39,8.75-.17,.93,.15,2.23-1.39,2.41,0-.38,.01-.77,0-1.15-.09-2.62-.26-2.8-2.77-2.88-.48-.02-.96,.02-1.44-.01-1.72-.13-2.46-.63-2.63-2.38-.13-1.37-.82-1.98-1.89-2.58-1.75-.97-3.28-2.27-5.12-3.14-2.15-1.02-4.12-1.03-6.26,0-1.87,.9-3.56,2.32-5.79,2.36,0-1.73,0-3.45,0-5.18Z"/>
          <path class="cls-40" d="M55.02,167.92c.51,.03,.74,.58,1.05,1.06,.75,1.18,.73,2.61,.9,3.87,.28,2.01,.85,3.91,1.42,5.82,.19,.62,.74,1.42-.08,1.77-1.07,.45-1.21-.72-1.43-1.33-.55-1.52-.96-3.1-1.38-4.66-.42-1.55-.53-3.17-1.46-4.59-.57-.87,0-1.97,.98-1.95Z"/>
          <path class="cls-28" d="M107.24,212.61l.58-3.45c.75-1.06-.15-2.39,.58-3.45h0c.65-.66-.06-1.65,.57-2.31,0-.19,0-.38,0-.57,.7-.86-.1-2.02,.57-2.88h0c1.21-2.53,1.21-5.33,1.7-8.01,.83-4.59,1.69-9.18,2.16-13.81,.36-3.51,.96-6.99,1.27-10.49,.14-1.53,.86-2.96,.63-4.52,.73-.53,.55-1.33,.58-2.06,.04-1.04,.45-1.95,1.12-3.27,.96,2.18,.17,4.12,.6,5.9-.69,2.24-.2,4.54-.36,6.81-1,13.58-3.16,26.98-5.72,40.33-.79,4.1-2.28,8.07-2.3,12.32,0,.28-.09,.57-.23,.82-.39,.72-.53,1.95-1.56,1.77-.96-.17-.9-1.33-.94-2.17-.11-2.68,.23-5.34,.48-8,.11-.98-.26-2.01,.28-2.95Z"/>
          <path class="cls-45" d="M107.24,215.48v10.29c.98-1.7,1.53-2.83,1.24-4.37-.16-.87,.24-1.88,.54-2.78,1.84-5.52,2.77-11.27,3.72-16.95,.79-4.66,1.65-9.36,2.14-14.1,.42-4.04,.8-8.13,1.48-12.17,.49-2.87,.65-5.81,.68-8.74,0-1.01-.39-2.13,.55-2.99,0,1.54,0,3.07,0,4.61-.12,5.8-.57,11.57-1.61,17.29-.2,1.11-.09,2.29-.12,3.43-.46,4.42-1.4,8.75-2.41,13.06-.33,1.41-.48,2.79-.48,4.21-1.09,3.42-1.44,7-2.28,10.48-.26,1.1-.4,2.22-.6,3.33-.47,2.48-.51,5.03-1.15,7.48-.64,3.79-1.19,7.58-2.21,11.32-.62,2.28-2.17,3.96-2.86,6.1-3.2,.64-4.62-.84-3.72-3.83,.52-1.72,1.51-3.06,2.99-4.06,2.15-4.63,2.66-9.59,2.94-14.6,.11-1.96,.13-3.94,.56-5.87v-1.15c.19-.27,.38-.26,.58,0Z"/>
          <path class="cls-24" d="M161.36,169.44c.76,.91,1.16,2,1.12,3.14-.13,3.41,.25,6.82-.38,10.25-.49,2.67-.38,5.47-.68,8.21-.27,2.45-.69,4.87-.98,7.32-.08,.66-.22,1.32-.23,1.98-.1,6.5-1.82,12.71-3.26,18.98-.02,.08-.13,.13-.2,.2-1.26-1.52-.82-3.27-.56-4.92,1.15-7.14,2.21-14.29,2.94-21.48,.29-2.84,.51-5.71,.11-8.58-.09-.06-.18-.13-.27-.19,.2-4.08,1.21-8.03,1.84-12.04,.57-.7-.03-1.65,.51-2.35-.02-.18,0-.35,.04-.52Z"/>
          <path class="cls-24" d="M158.38,187.26c.18-.98-.14-2.06,.6-2.91,0,0,.12,.08,.12,.08,.55,1.08,1.17,2.17-.53,2.82h-.19Z"/>
          <path class="cls-42" d="M161.32,169.96c0,.82,.29,1.7-.51,2.35-.02-.83-.2-1.68,.51-2.35Z"/>
          <path class="cls-73" d="M188.41,297.22c1.04,1.04,.49,2.35,.55,3.54,.09,1.52,.02,3.05,.02,4.58,0,.78,0,1.6,.84,1.96,.78,.34,1.17-.4,1.68-.8,.3-.23,.62-.44,.93-.65,0,.96,0,1.91-.02,2.87-.02,.96-.57,1.61-1.36,2.05-1,.56-1.82,.17-2.05-1.01-.34-1.68-.7-3.34-.63-5.08,.1-2.48,.03-4.97,.03-7.46Z"/>
          <path class="cls-35" d="M95.73,288.59c.79,.04,1.5-.1,2.13-.65,.76-.67,1.62-.91,2.65-.57,.43,.14,1.01,.16,1.41-.02,2.89-1.34,6.01-1.67,9.1-2.04,1.31-.16,2.27-.74,3.21-1.65,2.76-2.68,4.39-2.9,7.87-1.27,1.43,.67,2.01,.46,1.94-1.02-.08-1.66,.77-1.99,2.08-1.98,.56,0,1.17,.03,1.68,.23,1.2,.48,2.17,.32,3.13-.59,1.48-1.4,3.55-1.84,5.2-2.97,2.28-1.56,4.34-3.43,6.92-4.54,.96-.42,.98-1.24,1.06-2.14,.13-1.47-.55-3.06,.55-4.41,0,1.92-.02,3.84,0,5.75,.05,3.49,1.99,6.31,5.29,7.39,1.92,.63,3.84,1.25,5.15,2.82,.94,1.13,2.52,.2,3.36,1.3,.22,.31,.42,.64,.66,.93,1.63,2.08,1.11,4.08-1.48,4.73-2.78,.71-5.01,2.31-7.25,3.9-1.51,1.07-2.88,1.54-4.78,1.08-2.2-.53-4.51-.55-6.62-1.62-1.11-.56-2.12-1.18-3.13-1.9-3.7-2.63-7.8-4.8-12.42-3.54-2.74,.75-5.26,1.41-8.16,1.24-2.19-.13-4.48,.66-6.73,1.01-1.61,.25-3.23,.84-4.71,1.76-2.37,1.47-6.51,1.82-8.12-1.27Z"/>
          <path class="cls-35" d="M118.23,295.82c.08,.03,.21,.04,.24,.1,.46,1.04,.55,2.03-.56,2.73-.23,.14-.56,.02-.71-.26-.34-.62-.09-1.22,1.03-2.57Z"/>
          <path class="cls-35" d="M94,286.86c1.1,.05,1.68,.63,1.73,1.73-1.1-.05-1.68-.63-1.73-1.73Z"/>
          <path class="cls-35" d="M93.43,285.71c.46,.25,.56,.68,.58,1.15-.46-.25-.56-.68-.58-1.15Z"/>
          <path class="cls-4" d="M165.96,280.53c.25-.46,.68-.56,1.15-.58-.25,.46-.68,.56-1.15,.58Z"/>
          <path class="cls-35" d="M92.85,285.14c.19,.19,.38,.38,.58,.58-.19-.19-.38-.38-.58-.58Z"/>
          <path class="cls-35" d="M92.28,284.56c.19,.19,.38,.38,.58,.58-.19-.19-.38-.38-.58-.58Z"/>
          <path class="cls-4" d="M165.38,281.11c.19-.19,.38-.38,.58-.58-.19,.19-.38,.38-.58,.58Z"/>
          <path class="cls-4" d="M167.11,279.96c.19-.19,.38-.38,.58-.58-.19,.19-.38,.38-.58,.58Z"/>
          <path class="cls-4" d="M167.69,279.38c.19-.19,.38-.38,.58-.57-.19,.19-.38,.38-.58,.57Z"/>
          <path class="cls-4" d="M168.84,278.8c.19-.19,.38-.38,.58-.58-.19,.19-.38,.38-.58,.58Z"/>
          <path class="cls-4" d="M169.41,278.23c.19-.19,.38-.38,.58-.58-.19,.19-.38,.38-.58,.58Z"/>
          <path class="cls-4" d="M169.99,277.08c.19-.19,.38-.38,.58-.58-.19,.19-.38,.38-.58,.58Z"/>
          <path class="cls-4" d="M170.57,276.5c.19-.19,.38-.38,.58-.58-.19,.19-.38,.38-.58,.58Z"/>
          <path class="cls-2" d="M232.31,258.59c-1.07-.29-2.13-.77-2.73-1.83-.59-1.03,.05-1.87,.71-2.56,2.65-2.79,4.65-5.99,6.38-9.42,1.39-2.77,4.01-4.59,6.13-6.79,.76-.79,1.76-.79,2.68-.49,.89,.29,1.73,.78,2.55,1.26,1.03,.6,.93,1.62,.74,2.56-.17,.86-.82,1.34-1.71,1.1-.98-.27-1.45,.07-1.66,.99-.06,.27-.13,.6-.32,.79-3.99,4.1-6.42,9.46-10.81,13.22-.57,.49-1.01,1.18-1.96,1.18Z"/>
          <path class="cls-80" d="M103.22,237.36c-1.02,1.22-1.8,2.56-2.34,4.07-.73,2.02-.3,2.94,1.79,3.38,.36,.08,.75,.02,1.12,.02,.52-.24,.04-1.51,1.16-1.15,.99,2.01,1.19,2.1,2.74,.97,.69-.5,1.36-1.36,2.21-.7,1.25,.97,1.87,.34,2.44-.66,1.01-1.77,2.66-2.89,4.13-4.2,.52-.41,1.04-.83,1.56-1.24,3.14-2.48,9.21-2.28,12.57-.1,2.46,1.59,3.67,4,5.58,5.91,.31,.31,.46,.85,.53,1.3,.66,4.23,1.16,8.45-.67,12.55-2.34,1.92-4.94,3.23-8.01,3.46-1.06-1.18-.11-2.36,0-3.54,.07-.81-.01-1.62-.91-1.88-.87-.25-1.14,.53-1.42,1.12-1.23,2.56-1.79,5.25-1.57,8.09,.05,.65-.04,1.5,.83,1.61,.66,.09,.83-.64,1.14-1.12,.37-.57,.17-2.02,1.61-1.22,.26,.42,.4,.88,.41,1.36,.02,2-.15,3.91-2.52,4.58-2.37,.67-3.21-.95-3.83-2.95-2.12,1.66-4.32,1.93-6.66,1.37-2.89-1.74-4.37-4.67-6.31-7.75-2.4,3.79-5.44,6.62-8.98,8.94-1.15,.75-1.29,2.31-2.06,3.41-1.74,2.47-3.31,2.8-6.04,1.21-1.15-.58-2.3-1.15-3.46-1.73-.17-.21-.38-.38-.58-.58-.46-.54-1.26-.07-1.73-.58h0c-.19-.2-.38-.39-.58-.57h0c-.19-.2-.38-.39-.58-.58-.19-.19-.36-.4-.58-.58,0-.19,0-.38,0-.57-.24-.14-.38-.39-.57-.58-.38-.58-.77-1.15-1.15-1.73-.48-.29-.84-.69-1.15-1.15v-1.15c-.52-.47-.02-1.27-.58-1.73,0-.77,0-1.53,0-2.3-.82-3.45,.28-6.9,.09-10.36-.06-1.15,.97-2,2.05-2.53,1.11-.55,2.11-1.26,3.04-2.08,1.96-1.49,3.58-3.35,5.6-4.8,2.7-1.93,5.58-3.21,8.92-3.25,.97-.01,1.9-.09,2.75-.59,.16,.13,.22,.26,.16,.39-.05,.13-.1,.2-.16,.2Z"/>
          <path class="cls-18" d="M91.7,274.2c.56,.09,1.15,.09,1.67,.29,1.41,.53,2.38-.15,3.27-1.07,.26-.27,.46-.62,.6-.97,.88-2.24,2.3-3.86,4.43-5.16,2.84-1.73,5.04-4.22,6.47-7.32,.36-.77,1.24-.74,1.48,.13,.87,3.16,3.44,5.17,5.11,7.78,.79,.54,2.11,.39,2.3,1.73-.15,1.32,.53,2.17,1.58,2.83,.86,.54,.79,1.2,.24,1.93-1.48,1.97-2.8,4.13-5.65,4.34-1.02,.07-1.8,.69-2.38,1.46-2.04,2.7-4.7,2.5-7.48,1.63-1-.31-1.98-.72-2.89-1.22-.99-.54-1.79-.55-2.52,.37-.18,.22-.39,.43-.62,.6-1.81,1.39-3.33,.98-3.79-1.25-.32-1.57-.97-2.61-2.43-3.24-.69-.3-1.55-.79-1.41-1.61,.16-.95,1.16-1.11,2.03-1.22Z"/>
          <path class="cls-64" d="M158.56,187.25c.83-.82,.36-1.88,.53-2.82,.29-.48,.57-.95,1.11-1.84,0,1.31,.02,2.23,0,3.15-.13,5.57-.78,11.07-1.44,16.61-.69,5.71-2.37,11.34-2.01,17.18-.03,3.76-1.48,7.26-2.02,10.94-.1,.66-.34,1.34-.26,1.97,.54,4.2-1.71,7.06-4.5,9.69-.73,.69-1.46,1.39-2.48,.58-.96-.76-2.12-1.52-1.11-3.04,.37-.3,.24-.84,.58-1.15h0c5.15-11.86,4.87-24.79,7.3-37.18,.64-3.26,.68-6.65,2.12-9.75,.38-.83,.83-1.47,1.53-1.98,.82-.61,.49-1.55,.65-2.34Z"/>
          <path class="cls-3" d="M157.91,189.59c.29,1.35-1.24,1.81-1.39,3.12-.51,4.24-1.39,8.43-2.06,12.66-1.09,6.95-1.71,13.97-3.11,20.87-.32,1.58-.74,3.16-.89,4.76-.27,2.95-1.22,5.52-3.5,7.51-1.08-2.39-.82-4.96-.42-7.35,.99-6,2.34-11.95,3.57-17.91,1.25-6.06,2.49-12.12,3.83-18.16,.29-1.31,.36-2.72,1.85-3.65,.66-.41,.69-1.89,.92-2.9,.14-.63-.05-1.37,.61-1.82,.14,.97-.38,2.08,.59,2.88Z"/>
          <path class="cls-18" d="M140.92,223.56c1.55,.72,2.92,1.87,4.23,3.09,1.07,.99,.21,2.03-.12,2.91-.84,2.22-1.68,4.48-3.24,6.35-.62,.75-.97,1.63-1.24,2.56-.24,.83-.62,1.61-1.27,2.22-.57,.53-1.23,.82-1.59-.1-1.84-4.87-3.53-9.75-.5-14.82,.85-1.43,2.22-1.69,3.72-2.2Z"/>
          <path class="cls-35" d="M117.03,269.6c-.77-.58-1.53-1.15-2.3-1.73,.67,0,1.35-.07,2.01,.02,2.09,.27,3.76-.33,4.89-2.18,.09-.15,.27-.26,.42-.36,.06-.04,.17,0,.33,.01,.68,.56,.36,1.38,.39,2.08,.05,1.19,.36,2.09,1.75,2.12,1.26,.03,2.66-.88,2.79-1.99,.14-1.23,.06-2.48,.08-3.72-.19-.16-.27-.37-.26-.62,.15-.69,.22-1.4,.56-2.03,.09-.08,.18-.15,.27-.23,2.6-1.36,5.31-2.44,8.06-3.45-.81,2.86-2.9,4.85-5.13,6.45-1.64,1.18-2.25,2.56-2.32,4.26-.17,4.56-4.26,6.18-7.68,3.79-1.24-.87-2.58-1.62-3.87-2.42Z"/>
          <path class="cls-35" d="M85.94,271.32c.63,.02,1.31-.1,1.73,.58-.63-.02-1.31,.1-1.73-.58Z"/>
          <path class="cls-3" d="M146.96,238.51c0,.48-.12,.9-.58,1.15,.01-.47,.11-.9,.58-1.15Z"/>
          <path class="cls-35" d="M87.67,271.9l.58,.58c-.19-.19-.38-.38-.58-.58Z"/>
          <path class="cls-35" d="M85.37,270.75c.19,.19,.38,.38,.58,.58-.19-.19-.38-.38-.58-.58Z"/>
          <path class="cls-35" d="M84.79,270.17c.19,.19,.38,.38,.58,.58-.19-.19-.38-.38-.58-.58Z"/>
          <path class="cls-35" d="M84.22,269.59c.19,.19,.38,.38,.58,.58-.19-.19-.38-.38-.58-.58Z"/>
          <path class="cls-35" d="M83.64,268.44c.19,.19,.38,.38,.57,.58-.19,0-.38,0-.57,0v-.58Z"/>
          <path class="cls-16" d="M247.7,112.45c-.19,0-.38,0-.58,0-1.94-1.34-4.37-1.6-6.33-2.88h-.58c-.17-.21-.38-.38-.58-.58-.45-.57-1.29,.02-1.73-.58-.19-.2-.38-.39-.58-.58-.19-.2-.38-.2-.58,0-15.73-6.33-31.47-12.66-47.2-19-1.58-1.94-3.96-2.75-6.03-3.98,.47-.78,.99-.67,1.39-.53,5.24,1.9,10.58,3.59,15.66,5.85,2.91,1.3,5.84,2.72,8.77,3.96,2.39,1.01,4.73,2.36,7.42,2.9,1.95,.39,3.89,1.41,5.79,2.26,4.36,1.95,8.74,3.86,13.18,5.64,2.19,.88,4.12,2.43,6.33,3.24,2.28,.83,4.36,2.25,6.84,2.54,.37,.04,.76,.16,1.06,.36,.46,.31,1.05,.68,.89,1.34-.18,.75-.9,.51-1.44,.57-.19,.02-.38,0-.57,0-.29-.37-.85-.22-1.15-.58Z"/>
          <path class="cls-16" d="M159.59,76.3c1.03-.91,1.63-.42,2.23-.23,3.25,1.04,6.61,1.8,9.65,3.45,2.11,1.15,4.44,1.67,6.69,2.41,.91,.3,1.88,.43,2.4,1.35,.06,.1-.05,.4-.17,.49-1.07,.79-1.7-.33-2.54-.59-2.43-.75-4.55-2.35-7.22-2.43-1.49-.04-2.63-1.08-3.96-1.6-2.27-.89-4.53-1.83-7.09-2.86Z"/>
          <path class="cls-16" d="M153.3,73.88c-.38,0-.77,0-1.15,0-.07-.39-.58-.98,.22-1.07,.62-.07,1.39,.05,.93,1.07Z"/>
          <path class="cls-39" d="M271.3,121.65c-.18,.2-.37,.39-.55,.59,.18-.2,.37-.39,.55-.59Z"/>
          <path class="cls-35" d="M85.94,245.42c-.32,1.4-1.01,2.37-2.58,2.61-1.5,.23-2.16,1.46-1.96,2.74,.43,2.8-.15,5.47-.62,8.17-.08,.47-.02,.96-.02,1.44-.91-1.29-1.49-2.63-.78-4.24,.42-.97-.06-1.65-.94-2.09-.7-4.06,2.25-6.07,4.73-8.32,.59-.53,1.44-.28,2.18-.32Z"/>
          <path class="cls-32" d="M103.22,237.36c0-.19,0-.39,0-.58,.64-2.84,.91-5.74,1.15-8.63,.89-1.92,.76-4.03,1.15-6.04,.36-1.83,.26-3.75,1.15-5.47,0,3.16,.06,6.31-.01,9.47-.09,4.06-1.19,7.84-3.44,11.26Z"/>
          <path class="cls-29" d="M77.31,230.45c.2-1.34-.5-2.81,.57-4.03-.2,1.34,.51,2.81-.57,4.03Z"/>
          <path class="cls-29" d="M76.73,234.48c.13-.97-.38-2.07,.57-2.88-.13,.97,.39,2.07-.57,2.88Z"/>
          <path class="cls-35" d="M80.76,262.69c.68,.42,.56,1.09,.58,1.73-.68-.41-.56-1.09-.58-1.73Z"/>
          <path class="cls-35" d="M81.34,265.56c.55,.22,.93,.6,1.15,1.15-.75-.02-1.13-.4-1.15-1.15Z"/>
          <path class="cls-84" d="M109.55,199.95c-.13,.97,.37,2.07-.57,2.88,.13-.97-.39-2.07,.57-2.88Z"/>
          <path class="cls-84" d="M108.97,203.4c-.07,.8,.27,1.7-.57,2.31,0-.77,0-1.54,0-2.3,.19,0,.38,0,.57,0Z"/>
          <path class="cls-25" d="M114.15,158.5c-.02,.63,.1,1.31-.57,1.73,.02-.63-.1-1.31,.57-1.73Z"/>
          <path class="cls-25" d="M113.57,167.71c0,.47-.11,.9-.57,1.15,0-.47,.11-.9,.57-1.15Z"/>
          <path class="cls-21" d="M237.92,108.42c.63,.02,1.31-.1,1.73,.58-.65-.03-1.17,.34-1.73,.57v-1.15Z"/>
          <path class="cls-21" d="M236.77,107.84c.19-.39,.38-.39,.58,0-.19,0-.38,0-.58,0Z"/>
          <path class="cls-21" d="M237.34,107.84c.19,.19,.38,.38,.58,.58-.19-.19-.38-.38-.58-.58Z"/>
          <path class="cls-21" d="M240.8,109.57c2.08,1.02,4.88,.47,6.33,2.88-2.41-.31-4.53-1.24-6.33-2.88Z"/>
          <path class="cls-21" d="M247.7,112.45c.47,.01,.9,.11,1.15,.58-.47-.01-.9-.11-1.15-.58Z"/>
          <path class="cls-21" d="M239.65,109c.19,.19,.38,.38,.58,.58-.19-.19-.38-.38-.58-.58Z"/>
          <path class="cls-75" d="M180.93,117.78c.11,1.9-.19,4.2,.16,6.49,.18,1.19-.22,2.13-1.41,2.46-1.41,.38-1.82-.7-2.16-1.74-1.05-3.25-1.51-6.62-1.74-10.01-.15-2.29-.1-4.61,0-6.9,.08-1.84,1.05-2.32,2.7-1.44,1.52,.81,2.57,1.9,2.48,3.84-.11,2.3-.03,4.6-.03,7.3Z"/>
          <path class="cls-19" d="M104.94,243.69c-.39,.38-.77,.77-1.16,1.15,.03-.38-.06-.83,.12-1.13,2.81-4.68,3.37-10.02,4.52-15.18,.09-.4,.25-.71,.55-.96-.02,2.36-.06,4.71-.07,7.07,0,.71-.41,1.25-.65,1.86-.32,.79-.98,1.6-.91,2.35,.19,2.18-1.04,3.51-2.4,4.85Z"/>
          <path class="cls-19" d="M108.97,227.57c-.03-2.56,.15-5.08,1.15-7.48-.03,2.55,.3,5.15-1.15,7.48Z"/>
          <path class="cls-40" d="M136.03,106.13c-.25-2.45,.4-5.42-.34-8.35-.21-.85,.27-1.68,.66-2.43,.35-.67,1.05-.8,1.75-.64,.69,.16,.74,.75,.81,1.34,.3,2.88-.35,5.7-.77,8.5-.45,3.05-.53,6.04-.07,9.07,.06,.37,.2,.76,.14,1.11-.07,.49-.41,.89-.93,.94-.54,.06-.93-.3-1.05-.78-.14-.54-.17-1.13-.18-1.69-.02-2.2,0-4.39,0-7.07Z"/>
          <path class="cls-40" d="M99.18,123.06c.39,2.16-.74,4.9,.78,7.41,.16,.26-.18,.91-.42,1.3-.41,.67-1,.62-1.28-.06-.33-.78-.62-1.64-.64-2.47-.08-2.48-.95-4.86-.74-7.37,.13-1.62,.12-3.28-.64-4.77-.56-1.1-.1-2.04,.2-3.02,.14-.46,.47-.84,1.04-.83,.56,.01,.91,.39,1,.87,.27,1.49,.87,2.92,.74,4.49-.11,1.33-.02,2.68-.02,4.45Z"/>
          <path class="cls-84" d="M108.4,205.7c-.16,1.16,.45,2.44-.58,3.45,.17-1.16-.46-2.44,.58-3.45Z"/>
          <path class="cls-32" d="M107.24,215.48c-.19,0-.38,0-.57,0,.13-.97-.39-2.07,.57-2.88,0,.96,0,1.92,0,2.88Z"/>
          <path class="cls-22" d="M233.09,255.59c-.17-.14-.43-.29-.59-.5-.26-.35-.21-.8,.1-1.04,4.51-3.48,6.43-8.91,9.9-13.17,.12-.15,.17-.35,.29-.49,.56-.64,1.15-1.63,2.08-1.05,.96,.6,.82,1.9,.16,2.54-4.03,3.87-6.32,9.12-10.42,12.9-.41,.38-.77,.88-1.51,.81Z"/>
          <path class="cls-57" d="M127.39,263.26c0,.19,0,.38,0,.57-.77,.53-.48,1.37-.63,2.09-.23,1.12-1.09,1.62-2.07,1.58-1-.05-1.28-.86-1.35-1.84-.24-3.49,.42-6.79,1.86-9.95,.35-.77,.82-1.59,1.87-1.43,.93,.14,2.13,1.93,1.89,2.85-.33,1.28-1.03,2.45-1,3.83h0c-.65,.66,.04,1.64-.57,2.3Z"/>
          <path class="cls-80" d="M127.39,263.26c.08-.8-.26-1.7,.57-2.3-.08,.8,.27,1.7-.57,2.3Z"/>
        </g>
      </g>
    </g>
  </g>
</svg>