<?xml version="1.0" encoding="UTF-8"?>
<svg id="Layer_2" data-name="Layer 2" xmlns="http://www.w3.org/2000/svg" xmlns:xlink="http://www.w3.org/1999/xlink" viewBox="0 0 150 150">
  <defs>
    <style>
      .cls-1 {
        fill: #d99388;
      }

      .cls-2 {
        fill: #f3c8c0;
      }

      .cls-3 {
        fill: #e6aea5;
      }

      .cls-4 {
        fill: #ebb2a8;
      }

      .cls-5 {
        fill: #96ddcc;
      }

      .cls-6 {
        fill: #f4bdb3;
      }

      .cls-7 {
        fill: #fff;
      }

      .cls-8 {
        fill: #ecaea4;
      }

      .cls-9 {
        fill: #eab6ae;
      }

      .cls-10 {
        fill: #ebb0a5;
      }

      .cls-11 {
        fill: #abddd5;
      }

      .cls-12 {
        fill: #eab7ae;
      }

      .cls-13 {
        fill: #f3c1b8;
      }

      .cls-14 {
        fill: #8ac4bc;
      }

      .cls-15 {
        fill: #ecb0a5;
      }

      .cls-16 {
        fill: #9cd6c8;
      }

      .cls-17 {
        fill: #ebada1;
      }

      .cls-18 {
        fill: #eab8b0;
      }

      .cls-19 {
        fill: #e4aea5;
      }

      .cls-20 {
        fill: #ebb3a8;
      }

      .cls-21 {
        fill: #99d9ca;
      }

      .cls-22 {
        fill: #f2cfc9;
      }

      .cls-23 {
        fill: #70a59e;
      }

      .cls-24 {
        fill: #e0a39a;
      }

      .cls-25 {
        fill: #ecafa4;
      }

      .cls-26 {
        fill: #70a2a4;
      }

      .cls-27 {
        fill: #f3c9c1;
      }

      .cls-28 {
        fill: #db978c;
      }

      .cls-29 {
        fill: #e9b3aa;
      }

      .cls-30 {
        fill: #ebb3a9;
      }

      .cls-31 {
        fill: #b3ece1;
      }

      .cls-32 {
        fill: #e2aaa1;
      }

      .cls-33 {
        fill: #f4bfb5;
      }

      .cls-34 {
        fill: #edab9e;
      }

      .cls-35 {
        fill: #ebb5ac;
      }

      .cls-36 {
        fill: #ecada2;
      }

      .cls-37 {
        fill: #f4bdb2;
      }

      .cls-38 {
        fill: #edb4a9;
      }

      .cls-39 {
        fill: #b7efe3;
      }

      .cls-40 {
        fill: #f2cfc8;
      }

      .cls-41 {
        fill: #ebab9f;
      }

      .cls-42 {
        fill: #eab7af;
      }

      .cls-43 {
        fill: #b3f3e5;
      }

      .cls-44 {
        fill: #dc9b91;
      }

      .cls-45 {
        fill: #de9f95;
      }

      .cls-46 {
        clip-path: url(#clippath);
      }

      .cls-47 {
        fill: #b1e7dd;
      }

      .cls-48 {
        fill: #e5a69a;
      }

      .cls-49 {
        fill: #ecb0a6;
      }

      .cls-50 {
        fill: #ecaa9d;
      }

      .cls-51 {
        fill: #b2e0d9;
      }

      .cls-52 {
        fill: #abe4da;
      }

      .cls-53 {
        fill: #97dbca;
      }

      .cls-54 {
        fill: #8ac3ba;
      }

      .cls-55 {
        fill: #96d5c5;
      }

      .cls-56 {
        fill: #e1a197;
      }

      .cls-57 {
        fill: #e4a59b;
      }

      .cls-58 {
        fill: #e3a89e;
      }

      .cls-59 {
        fill: #f1a89b;
      }

      .cls-60 {
        fill: #e9a89c;
      }

      .cls-61 {
        fill: #e7a89d;
      }

      .cls-62 {
        fill: #b5f7e7;
      }

      .cls-63 {
        fill: #6e9b9c;
      }

      .cls-64 {
        fill: #dc9b90;
      }

      .cls-65 {
        fill: #ace8dd;
      }

      .cls-66 {
        fill: #eab4ab;
      }

      .cls-67 {
        fill: #e8bab2;
      }

      .cls-68 {
        fill: #afe8dc;
      }

      .cls-69 {
        fill: #83bdb4;
      }

      .cls-70 {
        fill: #74a9a8;
      }

      .cls-71 {
        fill: #eda99d;
      }

      .cls-72 {
        fill: #edac9f;
      }

      .cls-73 {
        fill: #e09a8e;
      }

      .cls-74 {
        fill: #e4a093;
      }

      .cls-75 {
        fill: #f3cbc4;
      }

      .cls-76 {
        fill: #e1a59c;
      }

      .cls-77 {
        fill: #b2f0e1;
      }

      .cls-78 {
        fill: #f3c8bf;
      }

      .cls-79 {
        fill: #eab4aa;
      }

      .cls-80 {
        fill: #ebafa5;
      }

      .cls-81 {
        fill: #f3bfb5;
      }

      .cls-82 {
        fill: #ecaea2;
      }

      .cls-83 {
        fill: #dc9488;
      }

      .cls-84 {
        fill: #e5a99f;
      }
    </style>
    <clipPath id="clippath">
      <circle class="cls-7" cx="75" cy="75" r="75" transform="translate(-31.07 75) rotate(-45)"/>
    </clipPath>
  </defs>
  <g id="OBJECTS">
    <g>
      <circle class="cls-7" cx="75" cy="75" r="75" transform="translate(-31.07 75) rotate(-45)"/>
      <g class="cls-46">
        <g>
          <path class="cls-71" d="M96.44,55.81c.56,1.95,1.57,3.75,1.92,5.78,.32,1.86,.83,3.68,1.02,5.57-.12,.03-.33-.01-.31,.16,.35,4.79,.15,9.57-.5,14.31-.34,2.47-.81,4.91-.36,7.4,.03,.14,.03,.29-.02,.43-.66,1.83-1.13,3.71-1.36,5.65-.73,0-.79-.58-.92-1.07-.1-.37-.06-.76-.1-1.14-.24-2.53-1.17-3.67-3.64-3.96-3.18-.36-4.63-2.49-5.74-5.11-.63-1.49-1.01-3.08-1.85-4.5-.88-1.49-.63-3.17-.44-4.78,.12-1.07,.1-2.06-.19-3.11-.42-1.51,.1-3.04,.21-4.55,.11-1.48,.38-2.94,.53-4.42,.04-.41,0-.75-.2-1.08-.23-1.19-.07-2.28,.78-3.2,.66,.09,.61,.65,.69,1.09,.14,.85,.28,1.69,.31,2.56,.05,1.64,.18,1.75,1.87,1.76,.86,0,1.72,0,2.58,0,1.12,.01,1.79-.61,1.82-1.63,.07-2.52-.09-5.05-.4-7.56-.18-1.43-1.1-2.4-2.45-2.93,.21-.73,.35-.86,1.18-.76,1.78,.22,3.24,1.02,4.26,2.53,.43,.84,1.31,1.46,1.31,2.54Z"/>
          <path class="cls-50" d="M113.79,140.89c0,.09-.01,.17-.05,.25-.09,.1-.18,.21-.24,.33,0,.08,0,.17-.04,.24-.1,.1-.19,.21-.24,.35,.01,.08,0,.15-.04,.23-.16,.15-.1,.41-.28,.56h0c-.16,.16-.11,.43-.28,.58h0c-.17,.16-.12,.42-.28,.59h0c-.18,.15-.14,.41-.28,.59h0c-.15,.13-.23,.33-.42,.43-1.88,1.31-3.16,3.08-4.22,5.12-1.16,2.23-2.21,4.54-3.71,6.58-1.87,1.01-3.95,1.42-5.98,1.94-2.55,.65-5.19,.83-7.79,1.18-4.67,.63-9.37,.6-14.06,.55-2.73-.03-5.46-.2-8.18-.31-.81-.25-1.64-.03-2.46-.13-.49-.68,.02-1.08,.49-1.34,1.74-1,3.46-1.76,5.62-1.84,2.7-.1,5.34-.48,7.84-2.18,2.07-1.41,4.31-2.61,6.19-4.3,2.67-2.4,5.07-5.07,7.34-7.85,.21-.26,.34-.82,.82-.26,.06,.13,.14,.27,.13,.41-.32,3.67,.95,7.25,.64,10.92-.04,.52-.06,1.06,.07,1.57,.12,.48,.3,.91,.94,.86,.65-.05,.72-.48,.77-.99,.3-2.99,.59-5.99,1.27-8.93,.7-2.98,1.12-6.03,2.13-8.93,.11-.32,.17-.65,.47-.86,.83,.02,.91,.75,1.11,1.28,.71,1.92,1.62,3.52,3.85,4.06,1.06,.26,1.67,1.4,2.55,2.06,1.76,1.33,3.11,.87,3.49-1.31,.23-1.32,.68-2.41,1.95-2.96,.5-.22,1.19-.66,1.45,.35h0c-.21,.14-.15,.42-.29,.6,0,.09-.02,.18-.06,.26-.08,.1-.16,.21-.23,.32Z"/>
          <path class="cls-20" d="M50.74,158.96c-2.14-.09-4.27-.24-6.4-.5-1.04-.13-2.11,.02-3.11-.37-2.6-1.26-4.5-3.36-6.38-5.46-2.02-2.25-3.65-4.77-5.13-7.39-.63-1.54-1.18-3.11-2.17-4.47-.31-.43-.58-.97-.23-1.45,.4-.55,.85,0,1.27,.09,.82,.19,1.69,.19,2.42,.74,.31,.23,.6-.16,.9-.28,.19-.08,.4-.11,.61-.08,.21,.03,.41,.08,.61,.13,.27,.08,.55,.15,.7,.42,.03,1.1-.89,1.04-1.75,1.26,.89,.37,1.6,.75,2.03,1.48,.07,.12,.2,.3,.3,.29,2.29-.38,3.63,2.19,6.06,1.79,1.92-.31,2.76,.64,3.14,2.56,.09,.47,.23,.93,.38,1.38,.23,.68,.35,1.4,1.32,1.45,.94,.05,1.83,.11,2.41-.85,.22-.37,.5-.7,.73-1.07,.89-1.43,1.95-2.52,3.85-1.95,2.64-1.33,3.56,.86,4.64,2.4,1.01,1.43,2.26,2.56,3.51,3.73,.49,.46,.78,.51,.96-.24,.28-1.15,.97-.99,1.73-.49,.4,.26,.73,.63,1.18,.81,.46,.19,1.13,.39,1.33-.04,.57-1.2,1.87-1.44,2.74-2.23,1.04-.95,2.6-1.11,3.9-1.69,.54-.24,1.01-.43,1.38-.93,.57-.78,1.41-1.25,2.37-1.08,1.17,.21,2.17,.11,3.08-.7,.33-.29,.81-.26,1.24-.32,.19-.04,.39-.09,.57-.17,1.2-1.21,2.16-2.63,3.02-4.06,.62-1.03,1.17-2.06,2.2-2.73,.96-.62,.47-.92-.25-1.18-.11-.09-.18-.2-.22-.32-.08-.35,.04-.65,.22-.93,.1-.16,.2-.32,.29-.49,.17-.32,.26-.7,.53-.95,.21,0,.17-.14,.13-.28,0-.29,.11-.54,.22-.8,.09-.21,.17-.43,.22-.66,.03-.17,.07-.34,.12-.5,.05-.16,.11-.33,.16-.49,.04-.17,.09-.34,.15-.52,.07-.24,.12-.49,.2-.74,.07-.21,.18-.38,.38-.48,1.5-.1,1.57,1.1,1.91,2.07,.05,.52-.09,1.01-.3,1.48-.1,.25-.2,.5-.22,.78-.03,.33-.06,.67-.14,.99-.2,.71-.35,1.43-.54,2.14-.04,.13-.1,.25-.16,.37-1.51,2.95-3.94,5.23-5.74,7.97-.52,.79-1.51,1-2.13,1.67-.1,.09-.2,.18-.31,.26-.55,.46-1.15,.83-1.82,1.1-3.47,1.45-6.46,3.55-8.66,6.66-1.24,1.13-2.58,1.6-4.16,.69-.37-.21-.81-.34-1.24-.33-1.8,.06-3.36-.43-4.68-1.73-.6-.59-1.13-.36-1.33,.48-.16,.65-.26,1.31-.44,1.96-.17,.58-.4,1.09-1.08,1.19-.66,.09-1.06-.28-1.4-.8-1.06-1.62-1.59-1.7-3.08-.39-.68,.6-1.36,1.19-2.03,1.8Z"/>
          <path class="cls-72" d="M114.38,139.7c-.53-.58-1.09-.26-1.54,.05-.61,.43-1.32,.85-1.35,1.73-.01,.49-.13,.93-.25,1.4-.49,1.91-2.06,2.52-3.63,1.31-.7-.54-1.5-1.01-2-1.8-.3-.47-.83-.63-1.35-.74-1.43-.3-2.33-1.15-2.86-2.51-.38-.97-.85-1.91-1.15-2.92-.16-.16-.23-.36-.23-.58,.74-2.06,2.18-3.77,2.92-5.84,.33-.94,.67-1.87,1.03-2.81,.36-.95,.15-1.54-.9-1.73,2.81-3.25,5.52-6.63,9.6-8.44,1.22-.54,2.47-1.02,3.78-1.35,2.41-.61,4.64-.08,6.82,.92-.03,.72-.64,.53-1.04,.61-.51,.11-.96,.32-1.42,.54-.11,.06-.22,.12-.33,.17-.35,.15-.6,.41-.79,.74-1.95,2.09-3.67,4.36-5.35,6.67-1.53,2.1-1.42,2.61,.84,3.78,.38,.2,.77,.38,1.12,.63,.21,.14,.42,.29,.64,.41,.11,.05,.23,.11,.34,.17,.38,.21,.79,.21,1.21,.2,.25,0,.6-.01,.47,.44h0c-.1,.11-.19,.22-.26,.34-1.23,2.29-2.37,4.63-3.42,7.01-.25,.55-.43,1.15-.89,1.6Z"/>
          <path class="cls-66" d="M97.35,105.44c-.35,2.5-.97,4.94-1.53,7.39-.34,1.47-.44,3-1.02,4.41-1.92,2.24-4.48,3.56-7.03,4.88-.55,.29-1.18,.5-1.56-.31-.16-1.2,.75-1.65,1.53-2.2,.7-.49,1.51-.86,1.75-1.81,.21-.87,.16-1.6-.78-2.04-1.06-.5-1.95-1.21-2.63-2.17-.08-.12-.17-.26-.3-.31-1.98-.71-2.81-2.49-3.85-4.08-.16-.24-.37-.47-.38-.76-.04-1.9-.57-3.81,.16-5.69,.98-2.52,1.24-5.21,1.91-7.81,.25-.98-.46-2,.11-2.96,.89-.17,.87,.6,.94,1.06,.34,2.06,1.44,3.38,3.5,3.84,2.47,.55,4.72,1.7,7.02,2.68,1.28,.55,1.52,1.99,1.74,3.26,.15,.87,.03,1.79,.42,2.63Z"/>
          <path class="cls-16" d="M74.35,29.45c2.29,.69,4.48,1.65,6.71,2.52,9.13,3.57,18.25,7.15,27.38,10.73,8.37,3.28,16.73,6.58,25.1,9.86,1.47,.58,2.95,1.13,4.42,1.69,.1,.08,.2,.16,.3,.23h.02c.33,1.27-.66,2.06-1.09,3.05-.1,.15-.21,.29-.31,.44-.05,.1-.12,.19-.17,.29-.08,.15-.16,.29-.23,.45-.04,.11-.09,.22-.13,.32-.09,.23-.17,.47-.34,.66-.13,.06-.26,.05-.39-.01-1.14-3.32-4.26-4.06-6.98-5.19-8.18-3.4-16.42-6.68-24.76-9.66-5.86-2.1-11.75-4.1-17.68-5.99-4.06-1.3-8.07-2.76-12.16-3.97-.37-.11-.74-.22-.98-.56-.38-1.84-.3-3.56,1.32-4.85Z"/>
          <path class="cls-49" d="M50.74,158.96c.01-.28-.05-.63,.24-.78,.91-.47,1.42-1.38,2.28-1.92,.48-.29,.9-.45,1.45-.47,.64-.03,.97,.26,1.17,.82,.23,.66,.3,1.52,1.28,1.46,1.05-.07,.75-1.08,.99-1.68,.25-.6,.25-1.3,.41-1.95,.14-.59,.54-.74,1.09-.52,.46,.18,.81,.49,1.15,.84,.87,.9,1.9,1.34,3.19,1.23,.8-.06,1.69,.02,2.35,.47,1.11,.76,2.04,.53,3.01-.17,.23-.17,.53-.22,.69-.49,1.31-1.15,2.29-2.62,3.82-3.58,1.52-.95,2.94-2.09,4.65-2.68,.89-.31,1.57-.83,2.18-1.51,1.38-.85,2.67-1.83,3.98-2.78,1.18-.86,2.08-1.42,2.41-3.1,.25-1.27,1.04-2.63,1.67-3.91,.41-.71,.33-1.55,.58-2.3v-1.15c.19-.15,.11-.42,.29-.58,.03-.49,.37-.92,.29-1.44,.29-3.48,1.28-6.81,2.23-10.14,.2-.69,.17-1.44,.58-2.06,.24-.37,.58-.73,1.06-.53,.46,.19,.33,.62,.18,.99-.01,.18-.02,.35-.03,.53-.32,.45,.03,1.02-.26,1.48,0,.27-.02,.55-.03,.82-.37,.75,.07,1.59-.26,2.34,0,3.64,0,7.29,0,10.93,0,.46-.16,.97,.24,1.36,.11,.12,.17,.25,.17,.41,0,.08-.01,.15-.02,.23-.2,.94,.27,1.99-.42,2.86-.21,1.1-1.01,1.79-1.78,2.48-1.5,1.35-2.67,2.99-4.09,4.4-1.73,1.72-3.58,3.29-5.58,4.68-.57,.4-1.11,.88-1.92,.85-.58-.02-.88,.54-1.23,.91-.62,.65-1.31,1.02-2.24,1.12-1.26,.14-2.49,.49-3.74,.71-.47,.08-.96,.17-1.42,.09-2.2-.38-3.86,.89-5.65,1.78-.31,.15-.41,.52-.55,.82-.39,.23-.79,.21-1.19,.02-.57-.01-1.14-.03-1.71-.04-1.04-.33-2.14,.1-3.18-.25-.86-.02-1.72-.03-2.57-.05-.75-.31-1.58,.09-2.33-.24-.28,0-.55-.02-.83-.02-.64-.38-1.4,.09-2.04-.27-.18,0-.36-.02-.55-.02Z"/>
          <path class="cls-30" d="M23.66,125.29c.02-1.96-.08-3.94,.08-5.89,.32-3.97,.19-7.94,.27-11.9,0-.33-.02-.68,.24-.95,.83,1.53,.13,3.18,.43,4.75,.52-.69,1.06-1.4,1.3-2.3,.22-.81,.74-1.47,1.32-2.02,1.75-1.68,3.46-3.46,5.76-4.42,.97-.4,1.59-1.39,2.71-1.51,.12,.09,.21,.21,.26,.35,.16,.5,.13,1.05,.33,1.54,.45,1.26,.26,2.62,.6,3.9,.09,.55,.08,1.11-.03,1.66-.17,.52-.2,1.06-.18,1.6,.06,1.1-.28,2.15-.38,3.23-.23,.65-.19,1.34-.28,2.01-.02,.15-.05,.3-.09,.44-.24,2.29-.04,4.59-.07,6.88,0,.4-.06,1,.52,1.02,.67,.03,.59-.62,.67-1.07,.16-.81-.03-1.76,.89-2.28,.96,1.21,.35,2.58-.03,3.66-.31,.89-.24,1.59-.14,2.4-.02,.23-.08,.44-.22,.63-1.61,.29-2.19-1.02-2.71-2.01-.68-1.32-1.63-2.28-2.67-3.28-1.25-1.2-2.68-1.52-4.29-1.63-.75-.05-1.16,.16-1.38,.89-.25,.82-.43,1.65-.55,2.51-.19,1.32-1.05,1.93-2.35,1.79Z"/>
          <path class="cls-72" d="M63.97,55.92c.1-.86,.2-1.71,.3-2.57,.81,.16,.65,.84,.68,1.36,.07,1.15-.01,2.3,.04,3.45,.06,1.41,.33,1.69,1.72,1.69,1.38,0,2.77,.1,4.14-.26,.77-.2,1.26-.62,1.3-1.33,.18-3.43,.66-6.85,.12-10.3-.16-1.04-.78-1.82-1.17-2.73,.33-.78,.93-.44,1.43-.31,1.88,.5,3.5,1.44,4.69,3.03,1.32,1.91,2.16,4,2.4,6.33-1.55,4-1.52,8.34-2.67,12.43-.44,1.56-.68,1.74-2.2,.99-1.14-.56-1.98-.52-2.92,.45-1.26,1.3-3.44,1.04-5.01-.54-.77-.78-1.6-1.3-2.63-1.63-1.61-.52-2.09-1.47-1.71-3.11,.54-2.31,1.25-4.59,1.5-6.96Z"/>
          <path class="cls-15" d="M97.35,105.44c-.22,.05-.57,.2-.53-.16,.1-.77-.29-1.47-.23-2.26,.08-1.06-.64-1.96-1.05-2.91-.12-.28-.4-.48-.7-.38-.72,.23-1.16-.19-1.64-.6-.75-.63-1.7-.91-2.61-1.13-1.31-.31-2.54-.81-3.81-1.23-1.42-.47-1.97-1.72-2.34-3.01-.18-.63-.17-1.31-.61-1.86-.71-1.05-.62-2.27-.72-3.45-.24-2.87-.03-5.73,.02-8.6,.03-1.6-.04-3.15-.98-4.54-.03-.16-.04-.32-.03-.48,.1-.51,.2-1.03,.2-1.55,.01-.21,.05-.43,.11-.63,.14-.4,.17-.81,.2-1.23,.02-.21,.05-.43,.11-.63,.17-.5,.13-1.02,.11-1.54,.07-2.35,.69-4.62,1.07-6.92,.07-.4,.16-.87,.72-.94,.38,.04,.65,.19,.56,.64-.53,2.71-.59,5.47-1.06,8.19-.07,.42-.11,.88,.17,1.25,.62,.82,.49,1.78,.29,2.62-.28,1.2-.14,2.38-.18,3.57-.01,.32,.06,.7,.23,.96,.73,1.12,1.14,2.36,1.59,3.6,.19,.52,.46,1.03,.59,1.58,.18,.75,.3,1.51,1.15,1.85,.22,.09,.37,.3,.43,.55,.35,1.65,1.78,1.86,3.05,2.19,.58,.15,1.23,.34,1.82,.3,1.23-.09,1.7,.64,2.11,1.57,.48,1.09,1,2.15,.83,3.4-.07,.54,.12,1.04,.56,1.4,.55,.22,.56,.71,.6,1.19,.16,2.48,.28,4.96,.27,7.44,.08,.61-.16,1.16-.31,1.73Z"/>
          <path class="cls-41" d="M30.02,145.16c1.82,2.9,3.67,5.76,6.04,8.28,1.42,1.51,2.94,2.83,4.62,4.01,.23,.16,.37,.43,.55,.65-.19,0-.39-.01-.58-.02-.36-.24-.82,.02-1.18-.23-1.85-.17-3.7,.25-5.55-.02-2.59-.38-5.17-.88-7.69-1.55-1.08-.29-2.16-.86-3.06-1.53-1.09-.81-1.53-2.1-1.8-3.44-.47-2.31,.07-4.55,.41-6.79,.16-1.03,.07-2.11,.48-3.1,.3-1.91,.49-1.98,2.07-.76,.46,.35,.98,.67,1.29,1.13,1,1.46,2.17,2.65,4.01,2.97,.18,.03,.27,.26,.38,.41Z"/>
          <path class="cls-25" d="M40.08,97.05c.13-1.96,.67-3.84,1.03-5.76,.88-4.63,1.83-9.25,2.48-13.92,.11-.83,.1-1.71,.52-2.49,.47,1.07,1.31,1.85,2.13,2.65,.58,.57,1.21,1.1,1.58,1.85,.53,1.05,1.25,1.8,2.55,1.77,.67-.01,1.04,.42,1.23,1.02,.09,.28,.07,.58,.17,.84,.24,.68-.05,1.9,.81,1.93,1.01,.03,1.57-1.11,2.2-1.88,.12-.15,.16-.4,.06-.55-1.21-1.74-.51-3.63-.38-5.45,.13-1.81,.2-3.63,.56-5.42,.09-.43,.19-.89,.68-1.01,.43-.1,.71,.24,.95,.53,.76,.92,1.67,1.78,1.35,3.16-.01,.15-.04,.29-.08,.44-.24,.73-.11,1.48-.15,2.22-.04,.45-.02,.92-.5,1.18-.27-.04-.35-.23-.42-.47,.2,1.53-.26,3.01-.31,4.53-.06,1.61-1.37,2.81-1.76,4.35-.11,.45-.72,.38-1.15,.36-1.13-.05-1.99,.39-2.78,1.22-2.15,2.28-4.03,4.74-5.51,7.5-.21,.38-.42,.75-.72,1.07-.56,.57-1.16,1.12-1.68,1.74-.55,.65-1.11,1.47-2.11,.94-.94-.49-1-1.41-.72-2.35Z"/>
          <path class="cls-82" d="M35.78,101.12c-1.15,1.19-2.73,1.71-4.06,2.61-1.93,1.31-3.73,2.8-5.13,4.71-.14,.2-.29,.39-.3,.64-.05,1.36-1.22,2.03-1.76,3.08l-.29-.07c0-1.84,0-3.69,0-5.53-.15-4.64,.44-9.26,.33-13.89,0-.29,.02-.57,.24-.8,.54,.49,.34,1.15,.4,1.75,.12,1.03,.69,1.48,1.67,1.2,2.07-.58,3.98-1.57,5.96-2.38,.67-.28,.82-1.05,.8-1.73-.04-2.36-.86-4.46-2.2-6.38-.26-.38-.54-.3-.86-.11-.21,.01-.41-.06-.5-.23-.67-1.29-1.67-1.91-3.16-1.7-.23,.03-.47-.11-.37-.44h0c.12-.09,.21-.2,.26-.33,1.25-1.27,2.21-1.43,3.69-.57,.85,.49,1.57,1.16,2.03,2,1.08,1.98,2.13,3.97,2.89,6.1,.06,.18,.05,.38,.08,.57-.05,1.25,.38,2.44,.55,3.66,.31,2.32,.4,4.64,.1,6.97-.04,.33-.11,.66-.39,.9Z"/>
          <path class="cls-52" d="M41.49,28.32c-.61-2.28,.17-4.15,1.71-5.79,1-.58,1.58,.22,2.02,.8,1.69,2.22,4.06,3.58,6.27,5.14,1.08,.76,2.14,1.22,3.42,.44,.53-.32,1.18-.36,1.8-.39,.6-.03,1.18-.15,1.34-.84,.17-.75,.06-1.41-.66-1.88-.68-.44-1.47-.85-.93-1.9,.42-.26,.85-.15,1.28-.03,1.81,.62,3.36,1.53,4.16,3.42,.27,.65,.48,1.26,.25,1.92-.49,1.44-.94,2.9-1.58,4.29-.41,.89-.99,1.19-1.94,.9-.64-.2-1.27-.43-1.93-.52-.86-.12-1.05,.32-.73,1.02,.38,.84,1.12,1.28,1.97,1.54,.64,.19,1.31,.28,1.89,.62,.11,.05,.22,.11,.33,.18,.2,.12,.4,.22,.63,.29,.1,.03,.21,.06,.31,.1,.15,.06,.29,.13,.42,.2,.09,.04,.18,.1,.26,.15,.13,.07,.26,.14,.4,.2,.09,.03,.19,.08,.28,.11,.15,.05,.29,.09,.44,.14,.1,.03,.2,.06,.3,.1,.15,.05,.3,.11,.46,.15,.1,.03,.21,.06,.3,.11,.15,.06,.29,.14,.44,.21,.1,.04,.2,.08,.3,.12,.21,.08,.44,.11,.66,.16,.19,.05,.35,.13,.46,.3,.04,.13,.04,.26,0,.39-.86,.85-1.63-.03-2.44-.11-.13-.04-.26-.09-.38-.13-.31-.12-.64-.21-.96-.31-1.92-.66-3.87-1.21-5.78-1.92-3.76-1.11-7.05-3.18-10.34-5.23-1.46-.91-2.59-2.26-3.64-3.63-.2-.25-.29-.82-.8-.31Z"/>
          <path class="cls-10" d="M30.02,145.16c-.3-.13-.59-.29-.94-.29-1.26-.01-2.23-.69-2.82-1.67-.85-1.4-2.15-2.2-3.37-3.16-.62,.32-.11,1.08-.63,1.38-.1-1.48,.31-2.92,.38-4.39,.07-1.42,.38-2.82,.44-4.24,.09-2.23,.45-4.45,.35-6.69-.01-.29,.01-.57,.23-.8,1.69-.52,1.96-.83,2.03-2.58,.04-.93,.63-1.67,.7-2.6,.03-.38,.62-.64,1.06-.49,.65,.23,1.32,.12,1.97,.23,.93,.15,1.88,.3,2.51,1.16,.28,.38,.7,.63,1.08,.92,.88,.66,1.59,1.42,1.98,2.54,.41,1.18,1.29,2.07,2.51,2.55,.27,.23,.34,.55,.38,.89,.02,.56,0,1.13,.03,1.69,0,.63,0,1.27-.12,1.89-.2,.58-.19,1.19-.31,1.78-.38,.96,.13,1.74,.5,2.55,.48,1.08,1.06,2.15,.41,3.37-.07,.11-.16,.21-.26,.3-.26,.17-.58,.18-.87,.27-.1,.05-.2,.1-.3,.15-.09,.07-.19,.13-.29,.19-.11,.06-.22,.11-.33,.15-.3,.11-.6,.23-.92,.3-.5,.06-1,.11-1.43-.25-.13-.39,.08-.67,.35-.87,.66-.5,1.27-.96,1.33-1.92,.11-1.52,.54-3.09-.44-4.46-.74-1.03-.84-2.14-.64-3.29,.43-2.45-1.06-4.17-2.21-6.02-.33-.53-.91-.46-1.43-.24-.63,.26-1.17,.66-1.59,1.2-.53,.69-1.08,1.2-2.05,.74-.62-.29-.89,.12-.92,.69-.2,3.51,.08,6.99,.83,10.42,.13,.58,.59,.82,1.01,1.14,1.19,.89,2.61,1.38,3.79,2.27q-.79,.91-1.61,.26c-.22-.17-.39-.49-.72-.36-.85,.32-1.44-.26-2.11-.58-.4,.62,.05,1.01,.34,1.41,.98,1.35,1.54,2.9,2.08,4.45Z"/>
          <path class="cls-17" d="M57.65,74.36c.32-1.7-.97-2.52-1.93-3.66-.56,.87-.57,1.82-.61,2.64-.1,2.23-.47,4.43-.58,6.65-.04,.8-.05,1.49,.59,2.09,.42,.4,.49,.87-.05,1.34-.65,.57-1.2,1.24-1.84,1.81-.84,.74-1.31,.58-1.57-.53-.15-.64-.24-1.31-.33-1.97-.15-1.17-.19-1.24-1.38-1.19-1.14,.05-1.89-.77-2.23-1.51-.38-.83-.95-1.39-1.51-2.02-.38-.43-.76-.89-1.23-1.2-.74-.49-.96-1.13-.88-1.94,.11-.96-.19-1.96,.29-2.87,.4,.3,.33,.76,.4,1.18,.17,.93,.63,1.61,1.41,2.22,1.24,.96,2.48,1.93,3.48,3.16,.34,.41,.7,.86,1.3,.71,.63-.16,.39-.78,.52-1.2,.57-1.93,1.43-3.73,2.33-5.52,.4-.79,.77-1.57,.47-2.45-.35-1.05-.87-1.91-2.23-1.74-.48,.06-1.08,.16-1.37-.47,.02-.04,.04-.12,.06-.13,2.09-.48,2.07-2.06,1.89-3.68-.22-1.95-.32-3.91-.58-5.85-.24-1.75-1.25-2.95-2.7-3.85-.11-.13-.12-.28-.03-.42,1.4-1.09,2.9-.6,4.03,.41,.61,.55,1.14,1.17,1.55,1.87,1.95,3.33,3.37,6.86,3.88,10.7,.25,1.89,.7,3.76,.57,5.68-.13,.08-.26,.06-.37-.04-.08-.11-.14-.23-.17-.37-.03-.14-.02-.3-.08-.42-.05-.09-.12-.04-.14,.1-.07,.57-.22,1.13-.32,1.69-.06,.33-.03,.82-.61,.76Z"/>
          <path class="cls-26" d="M56.21,37.21c2.05,.56,4.1,1.14,6.05,2.02,.22,.3,.62,.05,.86,.3h0c9.01,2.98,17.75,6.71,26.69,9.9,1.44,.51,2.8,1.23,4.3,1.56,.98,.29,1.93,.66,2.84,1.12,.26,.16,.53,.31,.82,.41,.12,.04,.23,.08,.34,.13,.23,.09,.47,.15,.7,.21,1.54,.52,3.02,1.16,4.48,1.86,.26,.16,.52,.31,.82,.4,.12,.04,.23,.08,.35,.13,.24,.09,.49,.15,.74,.23,.62,.24,1.27,.43,1.84,.77,.34,.2,.98,.32,.57,.99-.48,.21-.94,.07-1.4-.06-3.35-.93-6.68-1.93-10.01-2.93-.42-.13-.76-.39-1.13-.61-.68-.59-1.14-1.41-1.98-1.82-1.12-.56-2.25-1.03-3.52-.51-.25,.37-.7,.37-1.03,.6-.43,.23-.85,.51-1.37,.49-3.47-1.25-6.98-2.39-10.23-4.19-1.47-1.87-3.41-2.88-5.75-3.16-.44,.19-.9,.02-1.35,.07-.54-.04-1.11,.06-1.56-.34-3.39-1.36-6.78-2.71-10.17-4.07-.65-.26-1.36-.42-1.94-.85,.08-.88,.25-1.75,.04-2.63Z"/>
          <path class="cls-15" d="M63.97,55.92c.26,1.96-.28,3.78-.92,5.59-.16,.45-.24,.92-.38,1.38-.47,1.52,.24,2.39,1.53,2.74,1.21,.32,2.11,.81,2.93,1.82,.62,.76,1.7,1.21,2.83,1.17,.76-.03,1.35-.26,1.83-.92,.82-1.13,1.07-1.15,2.39-.62,.36,.14,.72,.24,1.03,.49,.27,.21,.61,.25,1.06,.27,.5-2.64,1.31-5.21,1.54-7.92,.11-1.27,.38-2.54,.66-3.79,.15-.67,1.01-1.07,.77-1.92,1.19,.64,.54,1.77,.7,2.68-.12,3.13,.13,6.26-.13,9.38-.15,.47-.54,.66-.97,.76-1.44,.31-2.17,1.31-2.58,2.62-.19,.6-.49,1.14-.78,1.69-.46,.87-1.24,1.5-2.15,1.49-1.38-.02-2.73,.24-4.07,.28-1.99,.07-3.92,.34-5.78,.91-1.32,.41-2.12,.13-2.67-1.08,0-.1,.01-.2,.02-.29,.29-.35-.02-.83,.26-1.18,0-1.35,.38-2.64,.6-3.95,.5-2.91,.68-5.87,1.44-8.73,.25-.96,.34-1.97,.84-2.85Z"/>
          <path class="cls-31" d="M145.46,57.36c.09,0,.18,0,.27,.03,.15,.17,.42,.11,.57,.27h0c.16,.19,.43,.13,.6,.28,.09,0,.18,0,.27,.02,.17,.12,.35,.22,.46,.41,.26,.41,.59,.75,.95,1.07,.87,.78,.53,1.69,.14,2.5-.38,.8-1.13,.46-1.78,.3-.4-.1-.91-.45-1.18,0-.31,.5,.2,.9,.53,1.19,1.37,1.16,3.08,1.72,4.71,2.33,1.53,.57,3.11,1.06,4.78,1.34,2.28,.38,3.79,2.08,4.6,4.3,.05,.24,.05,.48,0,.71-.47,2.1-.8,2.44-2.89,1.99-2.25-.48-4.58-.11-6.78-.82-.58-.19-1.23-.22-1.71-.66-.48-1.19,.75-.58,1.07-1.04-.41-.45-.94-.75-1.48-.99-1.91-.84-3.24-2.47-4.96-3.59-1.09-.71-1.47-2.06-1.89-3.29,.02-.57-.27-1.11-.19-1.69,.14-1,1.11-1.72,2.39-1.83,1.31-.11,1.64-.59,1.29-1.84q-.16-.59,.23-1.01Z"/>
          <path class="cls-23" d="M95.07,53.63c1.99,.29,3.85,1.08,5.78,1.6,2.3,.62,4.54,1.47,6.9,1.85,1-.53,1.7,.21,2.48,.57,2.03,1.29,4.31,2.07,6.49,3.03,7.84,3.45,15.7,6.86,23.49,10.41,1.87,.85,3.72,1.73,5.59,2.59,.44,.2,.91,.38,1.1,.86,.13,.33,.3,.79-.39,.72-.08,.01-.16,0-.22-.06-.16-.16-.42-.11-.59-.25h0c-.17-.21-.45-.16-.66-.27h-.11s-.09-.05-.09-.05c-.16-.17-.42-.12-.59-.26h.01c-.21-.31-.63-.04-.85-.3-3.27-1.08-6.44-2.45-9.65-3.7-12.09-4.72-24.17-9.46-36.25-14.2-.36-.14-.73-.24-1.09-.36-.46-.72-.91-1.45-1.37-2.17Z"/>
          <path class="cls-79" d="M60.81,72.92s.12,0,.14,.02c.8,1.13,1.79,.89,2.93,.56,1.43-.41,2.88-.78,4.39-.83,.34-.01,.66,0,.98,.14,.23,.1,.53,.16,.68-.02,.73-.9,1.64-.5,2.48-.36,1.22,.19,2.27-.27,2.8-1.35,.31-.64,.66-1.26,.85-1.95,.49-1.74,1.71-2.5,3.46-2.53,.6,.83,.43,1.71,.04,2.53-.37,.77-.89,1.38-1.89,.87-.39-.2-.73-.17-.92,.29-.05,.12-.1,.24-.16,.36-.17,.37-.2,.78-.35,1.16-.06,.13-.14,.25-.23,.36-1.29,1.29-1.43,3.11-2.09,4.68-.44,1.06-.98,1.91-1.96,2.55-1.51,.98-1.66,1-3.04-.26-.81-.74-1.76-.91-2.81-.65-1.58,.38-3.06,1.09-4.71,1.26-.74,.08-.94,.73-1.03,1.38-.08,.57,.02,1.16-.12,1.72-.08,.34,0,.99-.74,.66-.46-1-.29-2.05-.16-3.07,.07-.6,.04-1.11-.26-1.62-.15-1.22-.51-2.47,.3-3.61,.46,.62,.08,1.39,.38,2.19,.49-1.54,.52-3.05,1.03-4.45Z"/>
          <path class="cls-34" d="M50.74,68.02c.62,0,1.27,.1,1.85-.04,.72-.17,.98,.19,1.37,.68,1.07,1.35,1.03,2.68,.17,4.09-.92,1.51-1.38,3.23-2.19,4.79-.16,.32-.23,.7-.1,1.11,.12,.36,.12,.88-.32,.97-.42,.09-.92,.38-1.36,0-.15-.12-.33-.23-.41-.39-.72-1.36-2.18-1.97-3.12-3.1-.12-.15-.25-.32-.42-.39-1.55-.6-1.82-1.88-1.8-3.32,0-.14-.01-.29-.02-.43-.12-2.91,.51-5.73,.91-8.59,.13-.19,.11-.55,.35-.57,.33-.02,.45,.31,.5,.59,.15,.94,.25,1.88,.38,2.82,.13,.96,.6,1.39,1.61,1.39,.87,0,1.82-.28,2.6,.38Z"/>
          <path class="cls-47" d="M160.12,71.19c-.28-.12-.48-.32-.58-.6-.54-1.51-1.79-2.27-3.1-2.96-.46-.25-.89-.52-1.48-.24-.47,.22-.97-.05-1.37-.26-1.03-.54-2.14-.79-3.23-1.1-.33-.09-.63-.2-.88-.44-.42-.41-.93-.62-1.52-.75-1.18-.26-2.03-1-2.65-2.02-.16-.27-.47-.57-.17-.9,.26-.29,.61-.44,1.04-.3,.45,.15,.91,.3,1.37,.42,.77,.21,.88,.12,1.05-.66,.18-.81,.33-1.57-.69-2-.42-.18-.49-.68-.46-1.13,.09-.11,.19-.11,.29-.01h0c.15,.19,.42,.13,.6,.28,.09,0,.18,0,.27,.02,.15,.18,.42,.11,.58,.27,.1,0,.19,.01,.29,.03,.16,.16,.41,.1,.56,.26h0c.16,.18,.42,.12,.59,.28,1.52,.28,2.87,1,4.21,1.71,2.42,1.26,4.67,2.78,6.6,4.71,1.08,1.08,1.92,2.37,2.13,3.95-.57,.13-.82-.39-1.2-.62-1.22-.72-1.53-.6-1.83,.74-.1,.45-.02,.96-.43,1.32Z"/>
          <path class="cls-70" d="M146.52,75.26c.63-.58,.03-.94-.33-1.05-2.02-.59-3.67-1.96-5.7-2.58-1.37-.41-2.69-1.18-4.02-1.8-3.23-1.5-6.49-2.92-9.74-4.37-1.92-.85-3.84-1.69-5.76-2.53-2.06-.9-4.14-1.74-6.16-2.7-1.59-.75-3.34-1.18-4.75-2.3,.78-.53,1.49-.04,2.16,.22,4.42,1.68,8.78,3.49,13.18,5.21,2.93,1.14,5.85,2.34,8.76,3.53,.28,.11,.55,.24,.82,.36,3.24,1.43,6.52,2.77,9.87,3.94,3.07,1.07,6.08,2.3,9.31,2.87,2.76,.48,5.4,.59,7.85-1.07,.31-.21,.66-.43,1.06-.4,.42,.03,.4,.32,.26,.62-1.42,2.32-3.6,3.5-6.17,4.03-3.8,.77-7.27-.31-10.63-1.98Z"/>
          <path class="cls-11" d="M56.5,23.99c-.05,.71,.29,1.13,.93,1.43,1.02,.48,1.45,1.73,.97,2.72-.22,.46-.6,.76-1.13,.72-1.19-.08-2.26,.27-3.27,.84-.44,.25-.81,.13-1.21-.08-1.77-.94-3.34-2.16-5.01-3.26-1.26-.83-2.06-2.08-3.1-3.12-.42-.42-.84-.78-1.48-.72,.54-1.29,1.63-1.65,2.9-1.72,1.67-.35,3.26-.04,4.85,.51,1.62,.56,3.11,1.41,4.75,1.91,.37,.11,.68,.35,.79,.75Z"/>
          <path class="cls-68" d="M60.24,37.52c-.82-.2-1.62-.51-2.44-.71-1.08-.27-2.01-.92-2.37-2.08-.31-.99,.03-1.32,1.09-1.25,.92,.06,1.72,.55,2.62,.67,.41,.05,.61,.13,.88-.34,.87-1.55,1.25-3.27,1.89-4.9,.1-.25,.14-.65,0-.83-.77-1.09-1.07-2.58-2.55-3.08-.58-.2-1.06-.64-1.71-.7,.32-1.41,1.37-.29,2.02-.58,2.54,.84,5.03,1.81,7.48,2.9,.13,1.07,.24,2.14,.5,3.18,.08,.33,.07,.67-.04,.99-.65,1.86-2.04,3.27-3.03,4.92-.2,.33-.65,.37-1.05,.31-.47-.06-.96-.1-1.4-.27-.83-.34-1.6-.33-2.24,.33-.6,.62,.69,.85,.35,1.45Z"/>
          <path class="cls-4" d="M93.94,121.04c-.04-.27,.06-.65-.24-.77-.38-.14-.57,.23-.78,.49-.03,.04-.06,.08-.06,.13-.02,1.78-1.18,3.29-1.22,5.05-.02,.74-.36,1.34-.54,2-.27,.96-.39,1.99-.63,2.99-.15,.63-.15,1.31-.57,1.86-.35-.87-.35-2.03-1.73-2.01-.46-1.4,.04-2.82-.07-4.23-.07-.98-.22-1.88-.77-2.71-.38-.58-.79-.82-1.41-.41-.75,.49-1.39,.3-2.11-.18-1.8-1.19-4.33-.98-5.98,.39-1.06,.87-2.13,1.74-3.55,1.97-.34-.56-.03-.98,.26-1.43,2.59-4.05,6.85-5.23,11.27-3.13,.16,.14,.28,.31,.37,.51,.07,.11,.16,.21,.26,.31,.45,.55,.89,.15,1.26-.07,1.06-.62,2.02-1.38,3.27-1.65,.57-.12,.89-.7,1.3-1.1,.75-.72,1.52-1.41,2.52-1.78,0,.1-.02,.19-.03,.29-.25,.25-.03,.64-.26,.9,.03,.92-.16,1.78-.57,2.6Z"/>
          <path class="cls-60" d="M97.66,103.71c-.52-.83-.59-1.89-.47-2.7,.2-1.31-.15-2.52-.24-3.76-.05-.72,.47-1.5-.16-2.18-.4-1.69-.02-3.26,.78-4.74,.6-1.12,.18-2.29,0-3.34-.22-1.28,.01-2.52,.29-3.6,.36-1.45,.38-2.92,.58-4.36,.29-2.12,.44-4.28,.38-6.44-.05-1.98-.01-3.97-.01-5.97,.42-.03,.26,.48,.56,.53,.03,.09,.04,.18,.02,.28,.32,.44-.05,1.01,.27,1.45,0,.18,.02,.37,.03,.55,.32,.55-.07,1.2,.26,1.75,.01,.37,.02,.74,.03,1.12,.28,3.49,.07,6.98,.11,10.47,.01,1.04,.15,2.1-.11,3.14,.08,2.01-.27,3.98-.48,5.97-.26,2.46-.63,4.91-.98,7.36-.21,1.5-.41,3.01-.85,4.48Z"/>
          <path class="cls-73" d="M103.06,125.28s.09-.03,.14-.04c1.26-.33,1.65-.02,1.3,1.21-.32,1.15-.73,2.27-1.17,3.39-.82,2.05-2.02,3.9-3.08,5.82-.78,1.44-1.32,3.02-2.74,4.04-.45,.33-.28,.96-.36,1.46-.08,.45,.11,1.11-.69,1.12-.35-.5-.43-1.03-.11-1.59-.23,.02-.33,.38-.51,.35-1.42-.24-1.22,.79-1.23,1.58-.02,1.52-.09,3.05,.11,4.57,.08,.62,.22,1.4-.87,1.33-.4-3.23-.21-6.46-.22-9.7h0c.18-.19,.14-.45,.25-.65,.85-2.17,2.05-4.14,3.44-6,1.07,.08,.32,1.1,.88,1.6,2.02-2.19,2.82-5.02,4.06-7.6,.17-.38,.45-.66,.79-.9Z"/>
          <path class="cls-39" d="M145.46,57.36c-.43,.31-.16,.56,.06,.82,.21,.24,.54,.45,.37,.85-.22,.52-.41,1.07-.73,1.53-.21,.3-.63,0-.94-.03-.89-.09-1.6,.17-2.09,.94-.25,.4-.56,.8-.12,1.29,.28,.3-.07,.63-.02,.96-.6,.19-1.02-.22-1.41-.53-1.02-.81-2.15-1.21-3.44-1.21-.65-.22-1.15-.64-1.58-1.16-.21-.49-.12-.88,.38-1.14,0-.09,0-.19,0-.28,.18-.15,.11-.43,.28-.58,0-.09,0-.18,0-.28,.1-.09,.18-.21,.28-.3,0-.09,0-.19,0-.28,.1-.09,.18-.2,.28-.29,.48-1.07,1.17-2.04,1.48-3.18,2.42,.9,4.9,1.66,7.19,2.88Z"/>
          <path class="cls-77" d="M60.24,37.52c-.17-.46-.61-.58-.98-.79-.49-.28-.48-.62,0-.82,.45-.19,.86-.39,1.21-.73,.27-.26,.62-.29,.92-.09,.59,.38,1.3,.31,1.91,.54,.78,.29,1.24-.04,1.51-.65,.53-1.18,1.21-2.22,2.09-3.19,.79-.88,.6-2.19,.16-3.11-.41-.85-.1-1.4,.1-2.07,1.48,.47,2.92,1.05,4.32,1.72,.24,.63-.17,1.11-.42,1.61-1.4,2.84-2.84,5.65-4.23,8.49-.33,.41-.36,1.13-1.11,1.11-.19,0-.38,0-.58,0-.15-.18-.42-.11-.58-.29-.1,0-.19,0-.29,0-.08-.11-.2-.18-.29-.29-.1,0-.19,0-.29,0-.15-.19-.42-.11-.58-.29-.1,0-.19,0-.29,0-.15-.18-.42-.12-.58-.29h0c-.15-.18-.42-.12-.57-.29h0c-.15-.18-.42-.11-.57-.29-.1,0-.19,0-.29,0-.15-.18-.42-.12-.58-.29h0Z"/>
          <path class="cls-63" d="M56.21,37.21c.99,.89,.54,1.76-.04,2.63-3.59-1.1-6.99-2.6-10-4.88-1.38-1.05-2.59-2.27-3.55-3.72-.59-.89-1.02-1.84-1.12-2.92,.12-.3-.06-.67,.27-1.04,.8,1.2,1.72,2.27,2.71,3.28,1.05,1.08,2.29,1.84,3.56,2.61,2.61,1.59,5.33,2.93,8.18,4.04Z"/>
          <path class="cls-59" d="M30.59,84.14c.03-.23,.01-.49,.1-.7,.15-.35,.44-.39,.64-.07,1.31,2.05,2.49,4.16,2.7,6.66,.04,.47,0,.95-.08,1.42-.13,.81-.57,1.36-1.41,1.6-1.47,.42-2.86,1.04-4.23,1.71-.55,.27-1.16,.43-1.76,.54-.87,.17-1.66-.52-1.7-1.44-.03-.67-.02-1.34-.03-2,.01-1.52-.02-3.05,.33-4.54,.75,.03,.69,.68,.82,1.13,.17,.59,.28,1.21,.47,1.8,.6,1.82,.8,1.91,2.7,1.27,.12-.06,.24-.11,.36-.15,.71-.32,1.68-.21,2-1.19,.07-1.4-.44-2.69-.76-4.01-.16-.66-.6-1.32-.15-2.03Z"/>
          <path class="cls-13" d="M68.28,44.77c.58-.01,1.17-.03,1.75-.04,2.17,1.21,2.83,3.17,2.27,5.54-.46,1.93-.64,3.94-1.01,5.9-.1,.51-.06,1.08,.42,1.45,.49,.39,.83,.75,.42,1.42-.46,.74-1.04,.49-1.64,.31-.23-.07-.46-.14-.61-.35-.66-2.77,.02-5.53,.13-8.29,.04-.97,0-1.91-.29-2.84-.17-.55-.5-.98-1.12-.92-.65,.07-.71,.59-.79,1.16-.31,2.19-.17,4.4-.29,6.59-.08,1.39,.64,2.59,.63,3.94,0,.58,.67,.62,1,.94,.13,.3-.02,.46-.3,.48-.52,.04-1.06-.03-1.57,.03-1.08,.12-1.44-.17-1.41-1.4,.04-1.91,.21-3.81,.37-5.71,.11-1.21-.22-1.93-1.38-2.25,.08-1.61,.91-2.97,1.51-4.4,.35-.82,1.13-1.24,1.92-1.59Z"/>
          <path class="cls-37" d="M64.85,50.76c.5-.29,.96-.38,1.41,.11,.37,.4,.53,.74,.49,1.37-.14,2.12-.8,4.22-.28,6.36,.12,.49-.47,.72-.27,1.28,.98,.05,1.99,.37,2.97-.19,.19-.33,.48-.52,.86-.58,.35-.18,.67-.32,1.04,.01,.48,.43,.76,.1,.98-.34,.23-.46-.09-.64-.41-.72-.65-.16-.78-.57-.75-1.17,.05-.9,0-1.77,.37-2.66,.31-.75,.39-1.66,.37-2.49-.02-.69,.06-1.34,.37-1.9,.71-1.28,.19-2.39-.45-3.44-.39-.63-1-1.13-1.51-1.68,.43-.07,.81,.09,1.16,.32,1.42,1.31,1.65,3.04,1.71,4.82,.04,1.34-.01,2.68,.01,4.02,.03,1.48-.37,2.92-.34,4.41,.02,.99-.62,1.44-1.6,1.69-1.65,.43-3.32,.25-4.99,.26-1.05,0-1.4-.41-1.42-1.53-.03-1.34,0-2.68-.01-4.02,0-.46,.16-.97-.28-1.34-.05-.51,.04-1,.3-1.45,.25-.25,.03-.64,.26-.89,0-.09,0-.17,.02-.26Z"/>
          <path class="cls-65" d="M163.32,73.22c-.06-.23-.09-.5-.44-.31-.83,.46-1.61,1.12-2.5,1.37-2.02,.56-4.07,.64-6.18,.19-4.93-1.05-9.57-2.9-14.22-4.73-1.77-.69-3.62-1.21-5.23-2.27,.05-.05,.11-.1,.16-.15,.55-.24,1.02,.04,1.51,.22,2,.75,4.08,1.31,6.04,2.18,.25,.12,.49,.23,.76,.31,.13,.03,.26,.08,.38,.12,1.41,.61,2.9,1.03,4.32,1.6,.18,.08,.35,.16,.53,.24,.18,.08,.33,.2,.45,.35,1.21,.47,2.49,.65,3.73,1,.05,.01,.1,.05,.14,.04,2.26-.53,4.39,.6,6.72,.5-.14-.97,.83-1.67,.64-2.68-.09-.87,.12-1.69,.32-2.52,.13-.52,.45-.68,.96-.43,.81,.39,1.65,.72,2.17,1.51,.55,1.2,.28,2.34-.26,3.46Z"/>
          <path class="cls-55" d="M66.56,38.37c.14-.82,.63-1.49,.99-2.22,1.29-2.62,2.61-5.22,3.92-7.83,.72,.15,1.43,.33,2.03,.8,.2,.34,.63,.08,.86,.33,0,0,0,0,0,0-.94,1.5-1.27,3.15-1.16,4.9,.36,.67,.16,1.21-.37,1.69-.4,.27-.86,.41-1.33,.48-1.32,.2-2.39,.72-3.25,1.8-.67,.84-1.04,.78-1.68,.05Z"/>
          <path class="cls-6" d="M50.74,68.02c-1.05,0-2.11,.03-3.16,0-1.02-.03-1.38-.37-1.43-1.38-.07-1.18-.47-2.31-.26-3.64-.3,.22-.44,.32-.58,.43-.13-1.26-.02-2.51,.27-3.74,.18-.69,.68-.86,1.31-.77,.65,.09,.62,.66,.7,1.11,.22,1.37,.32,2.75,.29,4.14-.01,.48,0,.96,.06,1.43,.21,1.9,.3,1.97,2.25,1.62,.35-.2,.54-.52,.65-.9,.18-1.48,.24-2.96-.06-4.42-.23-1.14,.06-2.2,.41-3.23,.57-1.68-.58-3.54-2.35-3.73-.44-.05-1.07,.36-1.25-.44h0c.09-.08,.18-.16,.28-.24,.19-.02,.37-.04,.56-.06,.3-.17,.6-.19,.9,0,2.01,.51,2.84,2.07,3.09,3.87,.35,2.53,.68,5.08,.65,7.66-.02,1.7-.08,1.78-1.83,2.02-.2,.03-.35,.12-.48,.27Z"/>
          <path class="cls-61" d="M103.73,156.73c.41-1.37,1.06-2.66,1.78-3.85,.94-1.56,1.71-3.2,2.64-4.75,.85-1.42,1.88-2.76,3.61-3.26,.08,.07,.11,.14,.09,.22-.02,.08-.04,.12-.07,.12-.59,1.98-1.68,3.73-2.54,5.58-.32,.69-.66,1.35-.62,2.17,.04,.94-.52,1.62-1.22,2.16-.64,.5-1.33,.94-2.17,1.01-.15,.03-.25,.13-.36,.22-.09,.04-.18,.05-.28,.05-.17,.16-.43,.09-.59,.26-.09,.04-.18,.06-.27,.08Z"/>
          <path class="cls-13" d="M47.57,54.49c.12,.07,.27,.23,.34,.2,.88-.35,1.66-.2,2.4,.39,.9,.71,1.43,1.63,1.65,2.74,.03,.13,.05,.38,0,.4-.78,.34-.41,1.16-.71,1.69-.35,.63-.27,1.3-.12,1.94,.35,1.46,.15,2.93,.13,4.4,0,.12-.15,.23-.23,.34-.76-.52-.61-1.33-.7-2.07-.25-2.18-.16-4.38-.54-6.55-.07-.38-.13-.75-.38-1.06-.23-.29-.58-.35-.91-.33-.43,.03-.55,.39-.51,.73,.31,2.81-.19,5.71,1.05,8.43,.34,.74,.8,1.26,1.41,1.72-.73,.57-1.56,.21-2.34,.26-.37,.02-.38-.24-.39-.58-.07-1.17-.27-2.33-.2-3.52,.08-1.49-.27-2.94-.35-4.43-.66-.08-1.18,.04-1.59,.5-.07-1.55,.63-2.9,1.14-4.3,.14-.4,.46-.7,.86-.88Z"/>
          <path class="cls-1" d="M36.64,108.61c0-.58,0-1.15,0-1.73,.04-2.68-.28-5.35-.15-8.03,.03-.66-.19-1.48,.74-1.78h0c.27,.36-.02,.82,.25,1.17,.27,1.51,.55,3.03,.63,4.57,.15,.34,.33,.67,.39,1.05,.83,1.32,.25,2.79,.46,4.18,.05,.39,.03,.78-.05,1.17-.21,1.02-.34,2.06-.55,3.08-.12,.6-.35,1.35-1.13,1.2-.69-.13-.86-.85-.81-1.49,.05-.66,.13-1.32,.06-1.98,.05-.47-.13-.95,.14-1.4Z"/>
          <path class="cls-81" d="M30.59,84.14c.39,1.73,1.01,3.41,1.31,5.17,.07,.42,.26,.82-.15,1.16-.43,.44-.85,.89-1.55,.58-.65-.95-.61-2.09-.85-3.14-.22-.93-.23-1.9-.59-2.79-.62-1.55-.85-1.66-2.45-1.1-.52,.18-.9,.31-.64-.49,.13-.65,.43-1.21,.88-1.69,.13,.15,.27,.23,.48,.19,1.68-.28,2.29,.02,3.07,1.44,.13,.24,.22,.53,.48,.68Z"/>
          <path class="cls-29" d="M40.08,97.05c.04,.42,0,.84,.19,1.24,.56,1.25,1.28,1.32,2.15,.19,.58-.75,1.22-1.43,2-1.97-.15,1.76-.82,3.34-1.73,4.82-.24,.39-.65,.47-1.14,.35-1.12-.27-1.11,.43-.84,1.14,.32,.83,.93,1.68-.71,1.67-.37,0-.39,.35-.4,.64-.02,.57,0,1.14,.03,1.71,.01,.8,.03,1.6,0,2.39-.1,.62,.25,1.44-.75,1.66-.56-.93,.08-1.9-.09-2.85,.05-1.73-.17-3.46-.13-5.19,.37-1.96,.76-3.92,1.4-5.81Z"/>
          <path class="cls-48" d="M37.23,97.07c-.44,.36-.3,.87-.3,1.33-.01,2.38,0,4.76-.01,7.14,0,.46,.15,.97-.28,1.34-.09-.22-.26-.44-.25-.66,.07-1.14-.26-2.25-.33-3.37-.34-.43,.07-1.01-.29-1.44,0-.1,0-.19,0-.29,.04-1.24,.07-2.47,.21-3.71,.15-1.29-.12-2.66-.35-3.96-.16-.89-.12-1.8-.4-2.68-.12-.38-.15-.87,.28-1.18,.83,1.64,.98,3.47,1.38,5.22,.17,.73,.45,1.47,.33,2.25Z"/>
          <path class="cls-78" d="M25.68,83.53c.05,.15,.14,.49,.26,.31,.39-.6,.94-.55,1.51-.57,.6-.02,.97,.23,1.23,.77,.39,.81,.73,1.61,.82,2.55,.15,1.5,.52,2.97,.8,4.46-.12,.44-.6,.35-.86,.58h0c-.63,.35-1.08,.1-1.44-.43-.33-.47-.56-.99-.71-1.54-.46-1.71-.72-3.49-1.88-4.94,.01-.41-.1-.86,.26-1.19Z"/>
          <path class="cls-74" d="M102.27,126.18c.1,1.42-.7,2.58-1.25,3.75-.54,1.14-1.03,2.35-1.87,3.34-.15,.18-.25,.41-.42,.58-.3,.31-.71,.67-1.11,.5-.49-.22-.05-.65,0-1,.05-.42,.15-.87-.28-1.17,.49-1.16,1.4-2.02,2.16-2.97,.86-1.07,1.84-2.03,2.77-3.03Z"/>
          <path class="cls-51" d="M59.67,23.7c-.43,.23-.87,.38-1.37,.19-.36-.14-.52,.12-.65,.38-.36-.2-.73-.33-1.15-.29-2.1-.7-4.12-1.62-6.15-2.48-1.44-.61-2.8-.63-4.24-.71,1.24-.57,2.56-.34,3.8-.21,3.45,.35,6.66,1.57,9.75,3.1Z"/>
          <path class="cls-6" d="M25.42,84.72c1.15,.69,1.62,1.71,1.78,3.03,.14,1.07,.46,2.14,.99,3.13,.29,.54,.65,.8,1.25,.75-.54,.72-1.39,.54-2.12,.68-.39,.08-.68-.23-.8-.67-.27-.96-.73-1.87-.84-2.88-.06-.51-.18-1.03-.55-1.44,0-.2,0-.39,0-.59,.35-.54-.06-1.2,.27-1.74,0-.09,0-.18,.01-.27Z"/>
          <path class="cls-38" d="M120.4,117.53c.63-.58,1.37-.91,2.24-.87,.24,.01,.45-.06,.61-.25,2.02,.96,2.58,2.02,2.04,4.11-.49,1.91-1.22,3.72-2.45,5.29-1.29,1.66-2.6,3.29-3.9,4.94-.12-.18-.3-.25-.49-.16-.63,.31-1.09,.05-1.51-.4,3.61-1.69,5.2-5.11,7.09-8.28,.17-.28,.26-.62,.28-.96,.17-2.86-.07-3.75-2.98-3.23-.33,.06-.67,.08-.93-.2Z"/>
          <path class="cls-56" d="M59.41,75.18c0,1.26-.02,2.52-.03,3.78-.04,1.76,.4,3.56-.48,5.24-.71-.55-.41-1.33-.49-2.03,.02-.65-.04-1.31-.03-1.98-.23,.37-.02,.87-.33,1.22-.28,.31-.48,.18-.64-.13-.42-2.21,.4-4.33,.54-6.49,.03-.51,.12-1.04,.27-1.54,.13-.46,.21-.97,.88-.9,0,.09,0,.19,0,.28,.35,.43-.07,1.01,.28,1.44,.01,.37,.02,.74,.03,1.11Z"/>
          <path class="cls-71" d="M99.98,85.91c0-4.54,0-9.07,0-13.61,.29,.31,.25,.71,.25,1.08,0,3.81,0,7.63,0,11.44,0,.38,.04,.77-.25,1.08Z"/>
          <path class="cls-44" d="M38.67,102.87c.39,.33,.26,.78,.27,1.19,.01,1.32,0,2.65,0,3.97-.09,.13-.19,.14-.29,0-.16-.34-.35-.67-.18-1.07,.43-1.06,.14-2.03-.38-2.97,.3-.22,.26-.65,.55-.88,0-.08,0-.17,.03-.24Z"/>
          <path class="cls-4" d="M93.36,126.21c.09-.78-.3-1.62,.26-2.34-.07,.78,.2,1.61-.26,2.34Z"/>
          <path class="cls-29" d="M38.64,103.11c.03,.43,.05,.85-.55,.88,0-.39,.02-.78,.02-1.17,.18,.1,.35,.2,.53,.3Z"/>
          <path class="cls-78" d="M25.4,84.99c-.06,.58,.24,1.23-.27,1.74,.06-.59-.2-1.22,.27-1.74Z"/>
          <path class="cls-71" d="M99.95,71.18c-.49-.52-.19-1.16-.26-1.75,.42,.53,.23,1.16,.26,1.75Z"/>
          <path class="cls-84" d="M59.37,74.07c-.47-.4-.22-.95-.28-1.44,.09,0,.17,0,.26,0,0,.48,.02,.96,.03,1.44Z"/>
          <path class="cls-4" d="M93.65,123.05c.04-.5-.21-1.06,.26-1.48-.03,.5,.13,1.04-.26,1.48Z"/>
          <path class="cls-71" d="M99.66,68.88c-.46-.41-.21-.96-.27-1.45,.39,.43,.25,.95,.27,1.45Z"/>
          <path class="cls-79" d="M61.09,71.45c-.02,.41,.15,.85-.26,1.18,0-.41-.09-.84,.26-1.18Z"/>
          <path class="cls-48" d="M37.48,98.24c-.39-.32-.25-.76-.25-1.16,.35,.33,.27,.75,.25,1.16Z"/>
          <path class="cls-16" d="M74.35,29.45c-.33,0-.68,.07-.86-.33,.31,.04,.65,.02,.86,.33Z"/>
          <path class="cls-70" d="M143.43,74.07c.32,0,.67-.06,.85,.31-.32,0-.63-.04-.85-.31Z"/>
          <path class="cls-66" d="M94.51,118.43c0-.33-.08-.67,.26-.9,.02,.33,.03,.66-.26,.9Z"/>
          <path class="cls-13" d="M64.83,51.01c0,.32,.07,.67-.26,.89-.01-.33-.04-.66,.26-.89Z"/>
          <path class="cls-13" d="M49.31,54.21c-.3,0-.6,0-.9,0,.24-.3,.57-.27,.9-.24,0,.08,0,.17,0,.25Z"/>
          <path class="cls-72" d="M111.78,145.21c0-.11-.02-.22-.02-.33,.1-.09,.21-.19,.31-.28,0,.25-.07,.46-.29,.62Z"/>
          <path class="cls-72" d="M112.91,142.85c0-.23,.06-.44,.28-.56,0,.23-.06,.43-.28,.56Z"/>
          <path class="cls-72" d="M112.62,143.43c0-.23,.06-.45,.28-.57,0,.24-.07,.44-.28,.57Z"/>
          <path class="cls-72" d="M112.06,144.6c0-.24,.04-.46,.28-.59,0,.24-.06,.45-.28,.59Z"/>
          <path class="cls-39" d="M146.3,57.66c-.23,0-.45-.05-.57-.27,.24,0,.44,.05,.57,.27Z"/>
          <path class="cls-39" d="M146.9,57.94c-.25,0-.47-.04-.6-.28,.24,0,.46,.06,.6,.28Z"/>
          <path class="cls-39" d="M147.74,58.23c-.1,0-.19,0-.29,0-.1-.09-.19-.19-.29-.28,.24,0,.45,.05,.58,.27Z"/>
          <path class="cls-39" d="M148.34,58.51c-.25,.01-.47-.03-.6-.28,.24,0,.46,.06,.6,.28Z"/>
          <path class="cls-39" d="M149.19,58.81c-.24,0-.45-.04-.58-.27,.24,0,.45,.05,.58,.27Z"/>
          <path class="cls-39" d="M150.04,59.1c-.23,0-.44-.05-.56-.26,.23-.01,.44,.05,.56,.26Z"/>
          <path class="cls-72" d="M112.34,144.01c0-.24,.05-.45,.28-.58,0,.24-.06,.45-.28,.58Z"/>
          <path class="cls-72" d="M114.08,140.31c-.01-.26,.02-.49,.29-.61,0,.25-.08,.46-.29,.61Z"/>
          <path class="cls-74" d="M93.89,138.18c.03,.26,0,.5-.25,.65,0-.11-.02-.22-.03-.33,.09-.11,.18-.21,.28-.32Z"/>
          <path class="cls-70" d="M145.71,74.95c.24-.01,.45,.03,.59,.25-.24,.02-.45-.04-.59-.25Z"/>
          <path class="cls-70" d="M145.06,74.68c.27-.03,.52-.01,.66,.27-.26,0-.49-.06-.66-.27Z"/>
          <path class="cls-70" d="M144.27,74.37c.24-.02,.46,.03,.59,.26-.24,.01-.45-.04-.59-.26Z"/>
          <path class="cls-72" d="M113.22,142.06c.08-.12,.16-.23,.24-.35-.08,.12-.16,.23-.24,.35Z"/>
          <path class="cls-72" d="M113.79,140.89c.08-.11,.16-.21,.23-.32-.08,.11-.16,.21-.23,.32Z"/>
          <path class="cls-72" d="M113.51,141.47c.08-.11,.16-.22,.24-.33-.08,.11-.16,.22-.24,.33Z"/>
          <path class="cls-13" d="M47.86,54.25c-.09,.08-.19,.16-.28,.24,.09-.08,.19-.16,.28-.24Z"/>
          <path class="cls-39" d="M138.25,54.48c-.1-.08-.2-.15-.3-.23,.1,.08,.2,.15,.3,.23Z"/>
          <path class="cls-38" d="M118.69,131.1c.09-.11,.17-.22,.26-.33-.09,.11-.17,.22-.26,.33Z"/>
          <path class="cls-81" d="M26.82,81.5c-.02,.16-.12,.27-.26,.34,.09-.11,.18-.22,.26-.34Z"/>
          <path class="cls-37" d="M85.29,58.24c.11-.79,.18-1.59,.55-2.32,1.45-.41,2.25,.28,2.01,1.85-.21,1.38-.15,2.76-.1,4.14,.03,.89,.38,1.4,1.39,1.41,.98,.01,1.57-.32,1.7-1.31,.22-1.7-.06-3.44,.34-5.13,.09-.37,.1-.76,.2-1.13,.51-1.94-.09-3.04-2.02-3.7-.31-.11-.65-.16-.88-.44,.28-.39,.71-.29,1.1-.32,1.32-.11,2.05,.79,2.54,1.75,.44,.87,.77,1.85,.66,2.9-.19,1.77,.27,3.51,.28,5.28,0,.43,.03,.85-.12,1.28-.46,1.27-.72,1.47-2.08,1.48-1.24,0-2.49,.02-3.73,0-1.07-.02-1.29-.19-1.23-1.28,.07-1.35-.32-2.65-.33-3.98,0-.2-.12-.36-.27-.48Z"/>
          <path class="cls-74" d="M96.51,142.28c.54-.57,.24-1.27,.27-1.91,.04-.61,.15-1.02,.81-1.31,.94-.43,1.22-1.51,1.8-2.3,.28-.37,.35-.9,.85-1.1v.57c-.89,2.01-1.23,4.18-1.71,6.3-.37,1.62-.59,3.28-1.04,4.88-.44,1.58-.41,3.2-.69,4.79-.19,1.07-.39,2.16-.32,3.27,.03,.57-.32,.9-.89,.89-.53-.01-1.18,.25-1.43-.56-.15-.46-.25-.91-.25-1.4,.01-1.29,.02-2.59,0-3.88-.02-1.23-.06-2.46-.73-3.56-.09-.15-.14-.39-.09-.55,.46-1.46,.15-2.95,.24-4.42,0-.75,0-1.51,0-2.26,0-.33-.02-.67,.29-.9,.44,2.99,.24,6,.29,9.01,0,.29,.03,.57,.29,.77,.05,.05,.11,.1,.16,.15,.45,1.25,.14,2.54,.23,3.81,.06,.78-.08,2.12,.63,2.09,.99-.03,.47-1.28,.56-2.02-.16-3.02,.43-6.02,.3-9.04-.02-.47,.04-.96,.43-1.32Z"/>
          <path class="cls-72" d="M100.07,140.34s-.02-.08-.04-.12c.04,0,.1-.04,.1-.03,.08,.11,.05,.16-.07,.15Z"/>
          <path class="cls-35" d="M37.21,133.36c.09-.58-.23-1.22,.29-1.73,.63,.95,1.34,1.85,1.92,2.83,.75,1.26,1.17,2.57,.92,4.09-.22,1.33,.09,1.61,1.48,1.47,.73-.07,1.34,.05,1.81,.6,.55,.65,1.27,.99,2.06,1.22,.12,.05,.24,.11,.35,.17,.11,.06,.21,.14,.3,.22,.04,.04,.09,.08,.13,.12,.08,.08,.16,.17,.24,.26,.07,.09,.13,.18,.19,.28,.08,.14,.16,.29,.24,.43,.07,.09,.13,.18,.19,.27,.17,.25,.43,.39,.67,.55,.11,.07,.22,.15,.32,.23,1.02,.83,2.11,.8,3.24,.28,2.43-1.14,5-1.57,7.67-1.41,.29,.02,.58,0,.84-.13,2.97-1.45,5.58-.46,8.04,1.26,.8,.56,1.62,1.05,2.55,1.29,1.78,.47,3.54,.84,5.14-.6,.59-.53,1.36-.89,2.11-1.21q1.85-.78,1.23-2.6c.31-.6,.87-.42,1.35-.41,.62,0,1.2-.11,1.74-.4,.1-.06,.21-.11,.32-.16,.1-.05,.2-.1,.3-.15,.14-.07,.29-.13,.43-.2,.08-.06,.16-.11,.24-.17,.07-.07,.14-.13,.21-.2,.03-.03,.07-.07,.1-.1,.07-.07,.15-.12,.22-.18,.08-.05,.16-.1,.24-.14,.08-.05,.15-.1,.22-.15,0,0,.09-.1,.09-.1,.05-.08,.1-.16,.15-.24,.04-.09,.09-.17,.15-.25,.06-.08,.12-.16,.18-.24,.03-.04,.06-.08,.09-.12,.05-.09,.11-.18,.17-.26,.06-.09,.14-.16,.24-.21,.11-.03,.2,0,.27,.1,.66-.42,1.12-.12,1.34,.49,.23,.6-.26,.76-.72,.99-.94,.49-1.7,1.23-2.03,2.28-.19,.61-.45,1.14-.92,1.58-.66,.62-1.27,1.26-1.5,2.2-.12,.47-.53,.78-1.07,.8-.09,.1-.2,.18-.29,.29-.61,.02-1.28-.14-1.73,.45-.67,.86-1.56,.8-2.48,.6-1.31-.28-2.12,.11-2.7,1.35-.14,.31-.32,.48-.63,.46-.87-.06-1.58,.35-2.26,.8-.38,.26-.75,.4-1.2,.37-.6-.04-1.02,.25-1.29,.74-.22,.4-.51,.72-.95,.82-.7,.16-1.26,.37-1.23,1.25,0,.27-.31,.32-.55,.34-.79,.08-1.53-.05-2.14-.61-.28-.26-.55-.55-.86-.75-.57-.37-.99-.16-.9,.48,.06,.49,.3,.96-.4,1.13-.64,.16-.97-.22-1.21-.75-.14-.31-.31-.61-.65-.73-1.03-.35-1.57-1.2-2.1-2.06-.7-1.14-1.76-2-2.38-3.21-.21-.41-.56-.67-1.17-.29-.63,.4-1.36,.56-2.18,.26-.81-.3-1.59-.11-2.07,.78-.29,.54-.73,1-1.08,1.51-1.26,1.84-1.39,1.89-3.63,1.65-.44-.05-.8-.2-.87-.6-.15-.95-.72-1.75-.77-2.74-.07-1.33-.92-2.07-2.25-2.12-.86-.04-1.72-.02-2.59,0-.58,0-.99-.13-1.21-.76-.25-.73-.8-.98-1.59-.77-.91,.24-1.7,.19-1.99-.98-.1-.41-.58-.57-1.01-.71-.48-.16-1-.33-1.23-.98,.81-.35,2.05,.34,2.4-.98,.1-.09,.19-.09,.29,0,.58,0,1.15,0,1.73,0,.23-.26,.63-.01,.86-.29,.1-.09,.19-.19,.29-.29,.23-.26,.63-.01,.86-.29h.29c1.1-1.37,.97-3.06-.32-4.75-.29-.38-.91-.64-.55-1.29Z"/>
          <path class="cls-8" d="M84.42,139.4h-.29c-.09,.1-.2,.19-.29,.29-.1,.09-.19,.19-.29,.29h0c-.16,.16-.42,.11-.58,.29-.1,.1-.2,.18-.29,.29-.74,.57-1.54,.8-2.48,.6-.31-.07-.65-.02-.98-.02-.38,.12-.81,.19-1.12-.02-1.54-1.04-3.38-1.54-4.84-2.71-.87-.7-1.27-1.66-1.31-2.76-.03-1.05-.07-2.1,.04-3.14,.35-1.93,1.18-3.74,1.46-5.7,.07-.52,.3-1.02,.88-1.21,.51-.39,.93-.85,1.63-1.03,.51-.13,1.02-.57,1.37-.99,1.72-2.1,3.91-1.48,6.07-1.12,.37,.06,.55,.33,.77,.59,.43,.52,.92,.62,1.46,.11,.2-.19,.48-.3,.71-.47,.35-.26,.65-.17,.84,.17,.64,1.15,1.45,2.2,1.29,3.68-.15,1.41,.04,2.85-.32,4.25v.58c-.19,.15-.11,.42-.29,.58v.58c-.11,.08-.18,.2-.29,.29v.58c-.19,.15-.11,.42-.29,.58-.1,.38-.19,.77-.29,1.15h0c-.39,.28-.31,.81-.58,1.15-.11,.08-.18,.2-.29,.29-.12,.28-.3,.54-.29,.86-.1,.1-.17,.22-.29,.29,0,.1,0,.19,0,.29-.11,.09-.19,.19-.29,.29h0c-.1,.09-.19,.2-.29,.29v.29c-.11,.09-.19,.19-.29,.29h0c-.1,.1-.2,.18-.29,.29Z"/>
          <path class="cls-36" d="M34.05,140.27c-.1,0-.19,0-.29,0-.29,0-.58,0-.86,0-.08-.11-.2-.18-.29-.29-.19,0-.38,0-.58,0-1.11-.16-2.07-.64-2.97-1.31-.53-.39-1.07-.82-1.73-1-.33-.09-.42-.31-.48-.63-.69-3.67-1.04-7.37-.86-11.1,.06-1.22,.48-1.5,1.52-.85,.7,.44,.99,.24,1.35-.34,.64-1.02,1.56-1.62,2.75-1.87,.45-.1,.71-.05,.97,.33,1.03,1.5,1.86,3.1,2.52,4.8,.18,.47,.03,.93-.05,1.4-.19,1.21-.34,2.37,.57,3.52,.69,.87,.96,2.08,.6,3.27-.04,.14-.13,.28-.12,.41,.15,1.52-.28,2.71-1.82,3.3-.11,.04-.16,.23-.23,.35Z"/>
          <path class="cls-4" d="M88.74,138.25c-.06,1.36-.38,2.65-1.28,3.71-.38,.45-.47,.86-.33,1.44,.29,1.18,.16,1.38-1,1.45-.72,.04-1.14,.43-1.55,.89-1.05,1.19-2.42,1.82-3.89,2.3,1.18-1.11,2.65-1.97,3.21-3.63,1.66-1.37,2.82-3.12,3.88-4.97,.24-.43,.43-.97,.97-1.19Z"/>
          <path class="cls-4" d="M80.68,148.04c-.32,.94-1.08,1.39-1.93,1.74-1.7,.71-3.27,1.62-4.77,2.73-1.16,.85-2.28,1.67-3.09,2.86-.19,.28-.5,.44-.86,.44,1.41-2.17,3.45-3.58,5.53-5.05,1.63-1.15,3.6-1.48,5.12-2.72Z"/>
          <path class="cls-4" d="M89.31,135.95c-.03,.81,.18,1.68-.58,2.3-.02-.82,.16-1.59,.58-2.3Z"/>
          <path class="cls-35" d="M87.01,135.08c.16,0,.33-.27,.49,0,.02,.03,0,.11-.04,.13-.21,.17-.34,.06-.45-.12h0Z"/>
          <path class="cls-4" d="M89.6,134.22c0,.24-.06,.45-.29,.58,0-.24,.06-.45,.29-.58Z"/>
          <path class="cls-4" d="M87.3,133.93c0-.24,.06-.45,.29-.58,0,.24-.06,.45-.29,.58Z"/>
          <path class="cls-4" d="M87.87,131.92c0-.24,.06-.45,.29-.58,0,.24-.06,.45-.29,.58Z"/>
          <path class="cls-4" d="M80.68,146.31c.1-.1,.19-.19,.29-.29-.1,.1-.19,.19-.29,.29Z"/>
          <path class="cls-10" d="M32.61,139.98c.1,.1,.19,.19,.29,.29-.1-.1-.19-.19-.29-.29Z"/>
          <path class="cls-4" d="M85.57,137.68c.1-.1,.19-.19,.29-.29v.29c-.1,0-.19,0-.29,0Z"/>
          <path class="cls-4" d="M86.15,136.52c.1-.1,.19-.19,.29-.29-.1,.1-.19,.19-.29,.29Z"/>
          <path class="cls-4" d="M87.59,132.78c.1-.1,.19-.19,.29-.29-.1,.1-.19,.19-.29,.29Z"/>
          <path class="cls-33" d="M120.4,117.53c.85-.06,1.66-.36,2.54-.3,1.17,.08,1.63,.55,1.79,1.73,.34,2.54-.82,4.54-2.28,6.4-.82,1.05-1.62,2.1-2.39,3.19-.74,1.04-1.7,1.8-3.11,1.65-.15-.19-.42-.11-.58-.29-.89-.46-1.81-.88-2.66-1.4-.86-.52-1.05-1.14-.62-2.05,.28-.6,.7-1.13,1.08-1.68,1.65-2.33,3.42-4.58,5.37-6.67,.27-.21,.6-.35,.86-.58h0Z"/>
          <path class="cls-38" d="M120.4,117.53c-.16,.38-.45,.57-.86,.58,.16-.38,.45-.58,.86-.58Z"/>
          <path class="cls-38" d="M116.37,129.91c.24,0,.45,.05,.58,.29-.24,0-.45-.06-.58-.29Z"/>
          <path class="cls-42" d="M74.35,125.59c-.3,.59-.53,1.18-.62,1.87-.22,1.74-.98,3.34-1.4,5.03-.07,.07-.15,.16-.13,.24,.4,2.21-.5,3.58-2.49,4.66-1.45,.79-2.93,1.62-4.3,2.58-.32,.23-.71,.34-1.09,.26-.98-.19-1.74-.18-2.13,1.02-.19,.58-.9,.45-1.39,.19-1.31-.68-2.4-.31-3.4,.63-.42,.4-.88,.8-1.46,.86-1.95,.19-3.8,.92-5.74,1.08-.78,.06-1.47,.88-2.32,.28-.29-.29-.57-.58-.86-.86-.16-.16-.11-.42-.29-.58-.09-.1-.19-.19-.29-.29-.09-.1-.19-.19-.29-.29-1.89-1.32-2.57-3.49-3.74-5.31-.42-.65-1.02-1.3-.8-2.22,.05-.12,.12-.23,.23-.31,.12-.03,.25-.01,.36,.05,.09,.08,.17,.17,.24,.27,.03,.04,.07,.09,.1,.14,.07,.08,.14,.17,.21,.26,.04,.04,.07,.08,.11,.12,.08,.07,.16,.14,.24,.21,.05,.03,.09,.06,.14,.08,.15,.07,.31,.12,.46,.17,.11,.03,.22,.08,.32,.13,.17,.07,.33,.15,.5,.22,.44,.38,1.37,.17,1.35,1.12-.31,.35-.54,.7-.02,1.07,.2,.14,.47,.24,.56,.44,.65,1.51,1.39,2.55,3.16,1.16,.36-.28,.98,.22,1.46,.42,1.56,.64,3.04,.84,4.32-.61,.42-.48,1.04-.68,1.64-.83,.75-.18,1.2-.71,1.68-1.26,.68-.78,.14-1.29-.24-1.89-.19-.3-.18-.64,.07-.94,.85-.11,1.4,.5,2.04,.86,1.84,1.02,3.03,.52,3.38-1.53,.17-.98,.52-1.76,1.33-2.41,1.02-.83,2-1.76,2.5-3.04,.71-1.8,.79-3.73,.33-5.49-.85-3.26-4.68-6.3-8.72-3.97-.36,.21-.68,.56-1.16,.41-.82-2.39,.7-4.5,3.1-4.34,.38,.03,.76,.05,1.14-.01,1.05-.17,2-.02,2.74,.85,.2,.23,.43,.59,.83,.35,.32-.19,.36-.55,.39-.88,.06-.62-.23-1.11-.57-1.58-.72-.99-.8-2.01-.26-3.1,.21-.43,.31-.92,.59-1.3,2.01-2.75,3.04-6.02,4.76-8.93,.37-.62,.78-1.2,1.26-1.74,1.11-1.26,2.08-2.57,2.55-4.26,.44-1.56,1.73-2.61,2.97-3.59,.57-.46,1.19-.59,1.12,.53-.04,.62,.04,1.24-.05,1.86-.02,1.06-.11,2.1-.91,2.93-.28,.29-.33,.69-.4,1.06-1.22,5.81-2.57,11.59-3.63,17.43-.23,1.29-.22,2.57-.17,3.86,.03,.15,.03,.3,.02,.45-.04,.28-.11,.56-.13,.84,.1,.96,.6,1.2,1.33,.61,.98-.8,1.87-1.8,1.92-3.08,.1-2.75,1.03-5.34,1.38-8.04,1.71-7.41,2.43-14.93,2.67-22.51,.02-.76-.04-1.51-.15-2.25,.09-2.01,.62-3.95,.98-5.91,.24-1.3,.22-2.65,.73-3.89,.05,.18,.05,.42,.17,.53,1.02,.94,1.08,2.14,1,3.4-.12,1.85,.25,3.72-.28,5.55,.55,1.95,.02,3.99,.46,5.95,.11,.5,.07,1.04,.1,1.56,.03,.57-.09,1.15,.14,1.71,.21,.52,.12,1.01,0,1.54-.46,1.99-.86,4-1.29,6-.06,.28-.16,.55-.27,.81-.54,1.33-1.05,2.64-.61,4.14,.13,.44,.05,.95,.02,1.43-.06,.82,.04,1.53,.96,1.85,.51,.18,.53,.65,.48,1.08-.09,.81,.28,1.31,1.02,1.5,1.15,.29,1.9,1.01,2.54,1.96,.52,.78,1.38,1.15,2.19,1.57,1.12,.59,.94,.59,.96,1.81,.03,1.56-1.08,2-2.05,2.62-.73,.47-1.53,.84-1.48,1.91-.1,0-.19,0-.29,0-.08-.11-.19-.19-.29-.29-.12-.14-.22-.39-.37-.41-1.67-.28-3.29-1.12-5.01-.7-1.31,.32-2.59,.72-3.72,1.64-.95,.78-1.39,1.88-2.25,2.68-.22,.2-.16,.54-.16,.82Z"/>
          <path class="cls-21" d="M72.91,35.79l.29-1.44c2.31,.26,4.39,1.28,6.56,1.97,2.68,.85,5.34,1.77,8.02,2.64,2.54,.83,5.12,1.53,7.6,2.49,2.22,.85,4.48,1.6,6.72,2.39,2.42,.86,4.81,1.83,7.26,2.6,.99,.31,1.96,.72,2.93,1.1,3.5,1.38,7.01,2.76,10.5,4.15,2.25,.9,4.53,1.74,6.72,2.78,1.53,.73,3.22,1.14,4.58,2.29,.69,.59,1.26,1.12,1.33,2.07,.03,.31,.21,.64,.51,.84-.18,.36-.33,.73-.29,1.15-.02,.07-.04,.13-.06,.2-.08,.12-.18,.21-.31,.28-.13,.06-.27,.09-.41,.11-1.05,.1-1.77-.65-2.65-1-2.14-.85-4.3-1.64-6.39-2.61-.58-.27-1.31-.42-1.41-1.25,.1-.26,.57-.54-.04-.76-5.74-2.13-11.09-5.17-16.89-7.16-2.98-1.03-5.78-2.52-8.69-3.74-1.94-.81-4.01-1.26-5.93-2.24,.71,.59,1.91,.59,1.9,1.85-1.46,.17-2.85-.23-4.15-.79-3.94-1.7-7.97-3.18-11.87-4.98-.77-.35-1.64-.57-2.12-1.37-.02-.85-.45-.41-.8-.25-1.05-.28-2.19-.35-2.92-1.32Z"/>
          <path class="cls-21" d="M136.23,58.82c0,.24-.06,.45-.28,.58,0-.24,.05-.45,.28-.58Z"/>
          <path class="cls-21" d="M136.79,57.67l-.28,.29c.09-.1,.18-.2,.28-.29Z"/>
          <path class="cls-21" d="M136.51,58.24c-.09,.1-.19,.2-.28,.3,.09-.1,.19-.2,.28-.3Z"/>
          <path class="cls-67" d="M38.95,110.91c.51-.51,.2-1.15,.28-1.73,1.07-.82,2.32-1.32,3.55-1.82,.7-.29,1.43-.23,2.09,.1,1.73,.86,3.66,1.47,4.42,3.56,.16,.44,.62,.54,1.06,.62q2.14,.39,2.23,2.5c-.21,1.4-.12,2.85-.71,4.18-.32,.48-.81,.67-1.35,.69-2.45,.06-4.36,1.24-6.06,2.87-.42,.4-.85,.77-1.38,1-2.03,.66-3.2,2.01-3.32,4.19-.94,1.02-1.3,.92-2.26-.63q-.16-.81-.71-1.59c.7-.19,1.1-.61,1.01-1.39-.12-1.03,.45-2.02,.28-3.06-.75-1-.1-2-.02-3.01,.18-.51,.22-1.04,.23-1.58,.02-.23,.05-.46,.11-.68,.23-.68,.12-1.39,.14-2.08,.07-.73-.2-1.52,.4-2.14Z"/>
          <path class="cls-35" d="M37.5,126.45c.32,.27,.65,.52,.94,.8,.48,.46,.81,.3,1.07-.23,.78-.06,.88,.52,.78,1.03-.14,.75,.09,1.41,.3,2.08,.09,.34,.12,.68,.13,1.03,.01,.31,.02,.63,.11,.93,.05,.17,.08,.34,.12,.51,.05,.29,.22,.5,.44,.68,.27,.25,.53,.51,.57,.9-.01,.13-.07,.24-.16,.32-.19,.86,.4,1.44,.77,2.09,1.1,1.95,2.18,3.9,3.55,5.68-1.14-.2-2.21-.5-2.9-1.57-.32-.5-.85-.45-1.42-.31-1.65,.39-2.25-.23-1.84-1.89,.26-1.04,.04-1.98-.37-2.92-.42-.97-1.01-1.85-1.7-2.64-.36-.42-.42-.83-.41-1.3,0-.67,0-1.34,0-2.01,.23-.58,.23-1.15,0-1.73,0-.29,0-.58,0-.86,0-.19,0-.38,0-.58Z"/>
          <path class="cls-76" d="M38.66,115.23c0,.19,0,.38,0,.58-.35,.43,.05,1.01-.29,1.44,.1,1.07-.45,2.09-.29,3.17-.51,.84-.62,1.77-.57,2.73,.04,.62-.18,.97-.8,1.14-.82,.23-1.18,.04-1.21-.83-.05-1.33-.02-2.67-.02-4.01,0-.95,0-1.91,0-2.86,0-.37-.07-.78,.28-1.06,.54,.54,.3,1.26,.41,1.9,.03,.19,.05,.4,.26,.46,.29,.08,.43-.13,.54-.35,.11-.21,.17-.45,.2-.68,.39-2.57,1.3-5.05,1.46-7.66,0-.38,0-.77,0-1.15,.1,0,.19,0,.29,0,0,.96,0,1.92,0,2.88,0,.77,0,1.53,0,2.3-.38,.63,.09,1.38-.28,2.02Z"/>
          <path class="cls-44" d="M38.65,109.18c-.01,2.04-.26,4.05-.8,6.03-.2,.72-.28,1.48-.34,2.22-.04,.56-.33,.86-.8,1.06-.63,.27-.89,.15-.92-.55-.04-.81-.01-1.62-.01-2.43,.39-.63-.08-1.38,.29-2.02-.14-1.17,.43-2.28,.29-3.45,.09-.13,.19-.14,.28,0,.23,.91-.21,1.88,.28,2.77,.12,.21,.17,.44,.48,.52,.47-.35,.6-.86,.68-1.44,.14-.91,.12-1.86,.56-2.71Z"/>
          <path class="cls-76" d="M36.06,113.5c-.1,.67,.26,1.41-.29,2.02,.1-.67-.25-1.41,.29-2.02Z"/>
          <path class="cls-82" d="M35.78,101.41c.48,.4,.22,.95,.29,1.44-.48-.4-.22-.95-.29-1.44Z"/>
          <path class="cls-48" d="M36.64,110.04c-.09,0-.19,0-.28,0,.06-.49-.19-1.04,.28-1.44,0,.48,0,.96,0,1.44Z"/>
          <path class="cls-42" d="M82.41,74.64c.02-.5-.14-1.04,.26-1.47-.04,.5,.21,1.05-.26,1.47Z"/>
          <path class="cls-42" d="M82.99,70.9c.01-.51-.13-1.04,.26-1.48-.03,.5,.21,1.05-.26,1.48Z"/>
          <path class="cls-42" d="M82.7,72.63c0-.41-.1-.85,.26-1.19-.01,.41,.15,.86-.26,1.19Z"/>
          <path class="cls-79" d="M39.23,106.59c.04-.9-.09-1.8,.07-2.64,.34-.2,.53-.03,.72,.1,.24,.16,.53,.34,.76,.05,.21-.28-.02-.59-.21-.75-.51-.45-.58-.95-.37-1.55,.29-.86,.58-.98,1.39-.45,.4,.26,.63,.16,.83-.14,.24-.35,.51-.72,.61-1.13,.3-1.25,.83-2.41,1.38-3.56,.64-1.48,1.5-2.86,2.43-4.14,1.11-1.53,2.32-3.01,3.62-4.4,1.01-1.08,2.08-1.65,3.56-1.35,.41,.08,.75-.17,.69-.51-.19-1.08,.72-1.67,1.04-2.52,.19-.49,.52-.92,.46-1.47-.17-1.44,.41-2.83,.3-4.26-.02-.29,.05-.57,.37-.7,.32,.27,.15,.63,.2,.94,.33,.31,.29,.7,.25,1.09-.09,.38-.16,.75-.13,1.14-.01,1.12,.07,2.24-.1,3.36-.06,.31-.19,.62-.18,.95-.23,3.32-.9,6.58-1.31,9.87-.21,1.65-.02,3.33-.46,4.95-.02,.15-.05,.31-.09,.45-.2,.48-.17,1.02-.32,1.52-.05,.14-.15,.26-.27,.34-.16,.03-.28-.02-.39-.14-.42-.79-.15-1.59-.03-2.39,.23-1.56,.13-1.65-1.46-1.34-.38,.07-.75,.18-1.12,.25-.44,.08-.84,.02-1.24-.22-1.79-1.09-3.41-.43-4.07,1.52-.47,1.4-1.14,2.73-1.55,4.16-.2,.7-.66,1.3-1.6,1.06-.9-.23-1.12,.51-1.45,1.08-.53,.92-1.2,1.53-2.32,.84Z"/>
          <path class="cls-84" d="M54.77,99.97c.29-2.54,.38-5.1,.73-7.64,.35-2.63,1.02-5.22,1-7.9,.18-.15,.11-.42,.28-.58,0-1.25,0-2.49,0-3.74,.28-.23,.03-.63,.29-.86,0-.38,0-.77,0-1.15,.42-.3,.25-.75,.29-1.15,.4-.73-.1-1.57,.29-2.3v-.29c.46-.78,.34-1.7,.57-2.54,.06-.22,.03-.47,.1-.69,.07-.22,.22-.43,.51-.35,.22,.06,.24,.26,.25,.45,.01,.37,0,.75,.01,1.12-.68,.31-.79,1.02-.8,1.57-.09,2.56-.77,5.06-.63,7.64,.42,.44,.3,.98,.23,1.49-.68,5.07-1.28,10.15-2.2,15.18-.12,.64,0,1.48-.9,1.75Z"/>
          <path class="cls-17" d="M57.65,74.64c-.13,.76,.29,1.59-.29,2.3,.12-.76-.29-1.59,.29-2.3Z"/>
          <path class="cls-53" d="M72.91,35.79c1.06,.38,2.11,.77,3.17,1.15,.19-.18,.38-.17,.58,0,.35,.87,1.25,1.03,1.94,1.34,2.81,1.25,5.68,2.37,8.53,3.55,.66,.27,1.33,.53,1.96,.86,1.8,.92,3.77,1.27,5.7,1.74,1.31-.27,2.39,.44,3.49,.89,4.63,1.89,9.23,3.87,13.91,5.64,2.05,.78,4.04,1.71,6.08,2.52,.07,.03,.13,.07,.2,.1,.06,.04,.13,.08,.19,.12,.12,.08,.23,.19,.32,.3,.09,.12,.14,.26,.15,.41-.01,.23-.08,.43-.34,.5-1.61-.25-3.08-.95-4.58-1.54-1.33-.53-2.62-1.15-4.03-1.52-1.48-.39-2.86-1.08-4.23-1.77-2.87-1.44-6.09-2.03-8.88-3.65-2.12-1.22-3.88-.16-5.6,.88-.66,.4-.91,1.11-.37,1.87,.17,.23,.38,.45,.22,.77-1.28,0-2.34-.71-3.47-1.15-6.87-2.63-13.68-5.42-20.55-8.06-.57-.22-1.21-.35-1.59-.91,0-.1,0-.2,0-.29,.28-.39,.57-.77,.85-1.16,.48,.47,1.02,.42,1.32-.11,.79-1.37,2.01-1.93,3.5-2.13,.51-.07,1.02-.23,1.52-.34Z"/>
          <path class="cls-69" d="M65.71,39.83c2.83,.86,5.53,2.05,8.26,3.13,4.07,1.61,8.11,3.28,12.19,4.88,1.72,.68,3.34,1.62,5.16,2.06,1.14,.11,2.29,.23,2.88,1.44-.69,.02-1.29-.3-1.91-.53-3.92-1.48-7.85-2.96-11.77-4.45-3.65-1.39-7.3-2.78-10.95-4.18-1.74-.66-3.47-1.34-5.21-2-.44-.17-.93-.23-1.24-.65,.62-.04,1.16,.27,1.72,.45,.33,.11,.62,.17,.87-.15Z"/>
          <path class="cls-69" d="M63.12,39.52c-.32,0-.66,.06-.86-.3,.32,0,.65-.03,.86,.3Z"/>
          <path class="cls-68" d="M60.24,37.52c.24,0,.45,.06,.58,.29-.24,0-.45-.06-.58-.29Z"/>
          <path class="cls-68" d="M61.1,37.81c.24,0,.45,.06,.57,.29-.24,0-.45-.06-.57-.29Z"/>
          <path class="cls-68" d="M61.68,38.09c.24,0,.45,.06,.57,.29-.24,0-.45-.06-.57-.29Z"/>
          <path class="cls-68" d="M62.26,38.38c.24,0,.45,.06,.58,.29-.24,0-.45-.06-.58-.29Z"/>
          <path class="cls-68" d="M63.12,38.67c.24,0,.45,.06,.58,.29-.24,0-.45-.06-.58-.29Z"/>
          <path class="cls-68" d="M64.56,39.24c.24,0,.45,.06,.58,.29-.24,0-.45-.06-.58-.29Z"/>
          <path class="cls-68" d="M63.98,38.96c.1,.1,.19,.19,.29,.29-.1-.1-.19-.19-.29-.29Z"/>
          <path class="cls-20" d="M37.21,133.36c.02,.32,.23,.47,.45,.67,1.19,1.1,1.59,2.52,1.57,4.1,0,.81-.62,.99-1.16,1.27,.49-1.11,.22-2.15-.29-3.16-.24-.47-.49-.94-.7-1.42-.21-.49-.34-1.01,.12-1.46Z"/>
          <path class="cls-35" d="M37.5,127.89c.43,.58,.43,1.15,0,1.73,0-.58,0-1.15,0-1.73Z"/>
          <path class="cls-20" d="M37.79,139.4c-.21,.34-.55,.28-.86,.29,.21-.34,.55-.28,.86-.29Z"/>
          <path class="cls-20" d="M36.64,139.98c-.21,.34-.55,.28-.86,.29,.21-.34,.55-.28,.86-.29Z"/>
          <path class="cls-20" d="M36.93,139.69l-.29,.29,.29-.29Z"/>
          <path class="cls-34" d="M53.77,83.75s.06,.08,.06,.11c0,.04-.05,.07-.08,.1-.09-.08-.08-.15,.02-.21Z"/>
          <path class="cls-5" d="M94.2,51.33c-.83-.73-1.99-.82-2.88-1.44-.05-.08-.12-.16-.15-.25-.14-.44-1.09-.12-.85-.91,.21-.71,.21-1.49,1.06-1.92,.98-.5,2.08-.73,2.98-1.41,.33-.25,.73-.04,1.1,.06,1.71,.49,3.27,1.31,4.86,2.09,.61,.3,1.21,.55,1.88,.62,.67,.07,1.3,.33,1.9,.62,1.83,.9,3.62,1.93,5.59,2.48,1.94,.55,3.71,1.53,5.6,2.14,1.25,.4,2.39,1.08,3.67,1.37,.16-.2,.29-.44,.58-.46,.13,0,.26,.01,.38,.05,.12,.04,.24,.09,.36,.14,.12,.05,.24,.11,.35,.17,.85,.52,1.74,.95,2.71,1.2,.12,.02,.24,.06,.36,.1,.23,.09,.44,.2,.63,.37,.03,.05,.06,.1,.1,.15,1.28,1.14,2.94,1.51,4.45,2.19,1.68,.77,3.52,1.18,5.08,2.24,.43,.29,.93,.14,1.4,.17,.16,1.23-.7,2.1-1.18,3.08-.49,1-.73,1.9,.1,2.81-.03,.06-.06,.12-.08,.18-.66,.03-1.18-.36-1.75-.58-6.52-2.59-13.03-5.2-19.54-7.79-.93-.37-1.84-.8-2.86-.88-.73-.38-1.42-.84-2.29-.86-.82-.78-1.98-.86-2.9-1.43-.15-.18-.42-.13-.58-.28h0c-.22-.29-.63-.03-.85-.3l-4.9-2.01c-.15-.18-.42-.12-.58-.28h0c-.22-.29-.63-.03-.86-.3-.96-.38-1.92-.76-2.88-1.15Z"/>
          <path class="cls-13" d="M88.47,51.63c1.67-.22,2.66,.72,3.43,2.02,.25,.43,.44,.93,.23,1.37-.91,1.93-.81,3.97-.8,6.01,0,.58-.17,1.13-.26,1.69-.11,.65-.52,.91-1.07,.96-.71,.06-1.43,.03-2.15,.02-.26,0-.43-.12-.44-.43-.03-1.84-.35-3.69,.09-5.53,.29-1.21-.19-1.68-1.67-1.8,.08-1.39,.68-2.58,1.45-3.7,.39-.2,.79-.4,1.18-.6Z"/>
          <path class="cls-54" d="M97.09,52.48c.32,0,.66-.05,.86,.3-.32,0-.65,.04-.86-.3Z"/>
          <path class="cls-14" d="M103.42,55.07c.32,0,.66-.05,.85,.3-.32,0-.65,.04-.85-.3Z"/>
          <path class="cls-54" d="M97.94,52.78c.24,0,.45,.05,.58,.28-.24,0-.45-.05-.58-.28Z"/>
          <path class="cls-14" d="M104.27,55.37c.24,0,.46,.05,.58,.28-.24,0-.45-.05-.58-.28Z"/>
          <path class="cls-9" d="M79.54,56.77c.29,.31,.25,.7,.25,1.08,0,3.75,0,7.51,0,11.26,0,.33,.03,.67-.22,.94-.7,1.54-.91,1.61-2.36,.78-.28-.16-.57-.32-.84-.5,.53-1.19,.54-1.21,1.62-.54,.45,.28,.65,.1,.94-.23,.78-.89,.61-1.94,.61-2.97,0-3.27,.01-6.54,.02-9.81Z"/>
          <path class="cls-43" d="M148.03,72.05c-1.58-.47-3.17-.89-4.61-1.73,.6-.54,1.25-.33,1.89-.1,.54,.2,1.09,.36,1.7,.37-1.24-.74-2.62-1.19-3.86-1.93-1.85-1.09-3.38-2.47-4.08-4.57-.2-.6-.6-.94-1.09-1.27-.41-.28-1.02-.43-.89-1.14,1.4-.21,2.56,.3,3.62,1.16,.4,.32,.85,.57,1.28,.86,.28,.55,.58,1.09,.83,1.66,.39,.91,.99,1.58,1.9,2.03,.66,.33,1.28,.74,1.75,1.4,.41,.57,1.12,.86,1.74,1.2,.75,.41,1.49,.83,2.23,1.26,.25,.15,.49,.34,.34,.68-.14,.3-.39,.39-.71,.27-.41-.15-.82-.28-1.17,.14-.19,0-.38,0-.57,0-.09-.1-.2-.18-.29-.28Z"/>
          <path class="cls-18" d="M76.36,70.33c.55-.38,.87,.14,1.24,.35,.93,.53,.91,.55,1.58-.23,.12-.14,.25-.27,.38-.4-.02,2.39,.08,4.79-.09,7.18-.24,3.39-.1,6.79-.31,10.17-.1,1.62-.18,3.24-.2,4.86,0,.47-.13,.96,.22,1.38,.06,.06,.12,.11,.18,.17,.15,.52,.23,1-.51,1.09-.59-.44-.33-1-.2-1.54v-2.4c-1.25,.36-1.83,1.38-2.59,2.15-.68,.68-1.14,1.49-1.29,2.49-.21,1.41-1.31,2.29-2.15,3.31-.7,.85-1.39,1.67-1.79,2.73-.27,.7-.75,1.32-1.14,1.97-.42,.7-.89,1.37-.83,2.24,.03,.41-.14,.73-.43,1.02-1.2,1.21-1.91,2.69-2.6,4.23-.51,1.15-.34,1.99,.45,2.85,.75,.82,.65,1.75,.24,2.68-.31,.7-.91,.83-1.29,.17-.77-1.32-1.81-1.57-3.16-1.1-.57,.2-1.09-.25-1.68-.22-.68,.04-1.12,.15-1.4,.91-.38,1.03-.97,1.98-.79,3.14-.98,1.28-1.54,3.08-3.68,2.91-.28-.02-.52,.23-.79,.32-.94,.33-1.49,.06-1.49-1.01,1.54-2.37,1.89-5.03,1.92-7.77,.02-.15,.06-.29,.1-.44,.43-1.16,.41-2.37,.4-3.58,.46-2.3,.77-4.63,1.45-6.88,.13-.25,.23-.52,.3-.8,.11-.45,.33-.8,.85-.82,.5-.03,.79,.25,1,.67,.35,.7,.52,1.83,1.55,1.54,.99-.28,.56-1.4,.56-2.15,0-1.19,.41-1.99,1.51-2.51,1.03-.49,1.71-1.29,1.97-2.49,.29-1.37,.6-1.47,1.91-.96,.31,.12,.6,.32,.94,.33,.64,0,.92-.3,.59-.9-.25-.46-.55-.92-.93-1.27-1.11-1.01-1.39-2.35-1.62-3.73-.05-.33-.2-.69,.12-.94,.38-.3,.73-.05,1.04,.17,.65,.49,1.24,1.04,2.11,1.13,1.38,.13,1.91-.17,2.42-1.47,.16-.4,.26-.82,.39-1.23,.34-1.11,.99-1.88,2.24-1.86,.99,.01,1.34-.57,1.74-1.37,1.48-2.96,.71-6.08,.87-9.14,.06-1.18-.29-2.4,.38-3.51,.32-.33-.02-.82,.29-1.15v-.29Z"/>
          <path class="cls-9" d="M76.07,71.77c0,2.24,0,4.49,0,6.73,0,.38,.04,.76,.17,1.13,.2,.55,.27,1.19,.03,1.69-.66,1.34-.92,2.8-1.38,4.19-.14,.43-.41,.62-.84,.64-.24,.01-.48,0-.72,.01-1.45,.03-1.79,.3-2.15,1.75-.19,.75-.45,1.46-.79,2.14-.24,.48-.58,.69-1.13,.72-1.34,.07-2.59-.03-3.48-1.22-.16-.22-.36-.46-.83-.36,.25,.89,.58,1.77,.53,2.71,0,.12,.1,.28,.2,.37,.8,.7,1.29,1.65,1.99,2.44,.28,.31,.78,.46,.4,1.02-.44,.64-.93,.86-1.56,.59-.44-.18-.86-.42-1.29-.63-.49-.25-.91-.2-.91,.41,0,1.93-1.25,2.87-2.78,3.57-.53,.24-.71,.57-.71,1.1,0,.67,.01,1.34,0,2.01-.01,.61,.14,1.31-.74,1.48-.75,.15-1.58-.39-1.85-1.2-.09-.27-.19-.54-.26-.82-.1-.39-.33-.57-.73-.51-.36,.05-.43,.33-.44,.63-.01,.29-.02,.58-.3,.77-.51-.53-.39-1.15-.23-1.76,.58-2.27,.9-4.6,1.38-6.9,.58-2.9,.95-5.84,1.33-8.77,.1-.77,.22-1.51,.69-2.14,.47-.42,.24-.98,.28-1.48,.05-.61-.02-1.22,.19-1.84,.2-.58,.55-.97,1.1-.95,1.49,.04,2.77-.63,4.13-1.04,1.02-.31,2-.48,3.03,.01,.48,.23,.9,.37,1.12,.96,.24,.66,.79,.82,1.39,.42,1.11-.75,2.36-1.36,2.64-2.96,.19-1.06,.77-2.05,1.08-3.09,.24-.83,.67-1.45,1.45-1.82Z"/>
          <path class="cls-58" d="M59.67,83.57c-.32,2.36-.63,4.71-.96,7.07-.14,1.04-.33,2.07-.47,3.1-.04,.29-.03,.58-.29,.77-.65-.77-.31-1.6-.18-2.43,.34-2.15,.37-4.32,.64-6.48,.06-.51-.04-1.05,.4-1.46,.4-.33,.28-.79,.28-1.2,.01-1.33-.07-2.67,.29-3.98,.51,.05,.67,.4,.53,.8-.43,1.25-.16,2.54-.24,3.8Z"/>
          <path class="cls-9" d="M76.36,70.62c-.04,.4,.13,.85-.29,1.15,.04-.4-.13-.85,.29-1.15Z"/>
          <path class="cls-5" d="M134.75,67.46c-.23,0-.42-.08-.55-.28,0,0,.04-.06,.04-.06,.33-.15,.56-.12,.59,.31l-.08,.02Z"/>
          <path class="cls-66" d="M85.86,121.56c.1,.1,.19,.19,.29,.29-.1-.1-.19-.19-.29-.29Z"/>
          <path class="cls-83" d="M96.51,142.28c0,1.76,.18,3.54-.05,5.26-.24,1.8-.18,3.59-.23,5.38-.33,.49-.56,1.22-1.36,.94-.7-.24-.47-.93-.51-1.48-.08-1.26,.17-2.53-.15-3.78,.17-.34,.34-.69,.26-1.09-.42-2.12-.41-4.25,0-6.37,.07-.38-.53-.9,.14-1.1,.63-.18,.65,.54,.91,.86,.47-.02,.36-.69,1-.7v2.06Z"/>
          <path class="cls-62" d="M134.83,67.44c-.15-.2-.35-.28-.59-.31-.03-.04-.05-.09-.08-.12-1.21-.9-1.22-.91-.56-2.32,.56-1.2,1.17-2.39,1.76-3.58,0,0,.02,0,.02,0,.09-.1,.18-.19,.27-.29,0,0,0,0,0,0,.67-.02,.91,.66,1.45,.87,.1,.22,.25,.42,.47,.52,1.15,.49,2.04,1.19,2.07,2.58,0,.14,.03,.34,.12,.4,1.32,.84,1.86,2.51,3.43,3.12,1.46,.57,2.84,1.33,4.25,2.01,.21,.1,.48,.23,.4,.5-.1,.33-.43,.43-.7,.3-.64-.31-1.41-.12-2.03-.61-.46-.37-1.11-.14-1.68-.18-.1,0-.19,0-.29,0-.15-.18-.42-.11-.58-.29-2.3-.81-4.6-1.63-6.91-2.44-.26-.09-.55-.11-.82-.16Z"/>
          <path class="cls-6" d="M29.44,91.63c.2-.33,.56-.41,.86-.58,.55-.02,.96-.39,1.45-.57-.42,1.08-1.44,.97-2.31,1.15Z"/>
          <path class="cls-27" d="M70.03,59.1c-.16,.38-.45,.57-.86,.58-.33,0-.67,0-1-.03-.38-.04-.62-.23-.52-.67,.2-.87,.1-1.69-.41-2.46-.14-.21-.08-.56-.08-.84,0-1.67,0-3.34,0-5.02,0-.95,.44-1.86,.29-2.83-.1-.65,.13-1.06,.83-1.26,.72-.2,1.33,0,1.61,.57,.48,.97,.72,2.07,.64,3.17-.19,2.5-.66,4.99-.41,7.52,.04,.42-.05,.85-.07,1.27Z"/>
          <path class="cls-43" d="M142.56,70.04c.24,0,.45,.06,.58,.29-.24,0-.45-.06-.58-.29Z"/>
          <path class="cls-31" d="M148.03,72.05c.1,.09,.19,.19,.29,.28-.1-.09-.19-.19-.29-.28Z"/>
          <path class="cls-2" d="M50.46,67.45c-1.22-.04-1.21-.04-1.57-1.09-.14-.4-.25-.81-.51-1.18-.3-.43-.52-.97-.49-1.47,.14-2.16-.39-4.27-.32-6.42,.02-.57,.07-1.07,.71-1.23,.61-.15,1.51,.32,1.68,.92,.2,.68,.47,1.39,.45,2.08-.06,1.77,.32,3.51,.32,5.27,0,.77,.06,1.52,.3,2.26,0,.41-.19,.7-.58,.86Z"/>
          <path class="cls-12" d="M39.23,106.59c1.19,.19,1.83-.31,2.22-1.47,.35-1.08,.64-1.12,1.79-.73,.26,.09,.44,.09,.61-.15,.27-.39,.5-.77,.61-1.26,.18-.83,.31-1.69,.82-2.42,.36-.51,.6-1.04,.6-1.71,0-.75,.56-1.18,1.2-1.44,.35-.14,.74-.19,1.09-.32,.86-.31,1.69-.68,2.2,.56,.17,.4,.63,.25,1.02,.15,1-.26,2-.62,3.12-.31,.14,1.43-.47,2.8-.32,4.22,.27,.27,.31,.6,.26,.95-.02,.13-.05,.27-.08,.4-.16,.53-.09,1.07-.12,1.61-.03,.57-.21,1.11-.37,1.65-.2,.48-.17,.99-.2,1.5-.02,.23-.05,.46-.11,.68-.3,1.45-.43,2.92-.69,4.38-.08,.47,.07,1.12-.7,1.21,0-.19,0-.38,0-.58-.05-1.31-.13-1.4-1.38-1.44-.24,0-.48,.01-.72,0-.86-.07-1.23-.31-1.32-1.19-.07-.69-.41-.99-.95-1.29-.87-.49-1.64-1.14-2.56-1.57-1.07-.51-2.06-.51-3.13,0-.94,.45-1.78,1.16-2.9,1.18,0-.86,0-1.73,0-2.59Z"/>
          <path class="cls-40" d="M27.51,83.96c.26,.02,.37,.29,.52,.53,.38,.59,.36,1.3,.45,1.94,.14,1.01,.42,1.95,.71,2.91,.09,.31,.37,.71-.04,.88-.53,.23-.61-.36-.72-.66-.28-.76-.48-1.55-.69-2.33-.21-.78-.26-1.58-.73-2.3-.29-.43,0-.98,.49-.97Z"/>
          <path class="cls-28" d="M53.62,106.3l.29-1.73c.37-.53-.07-1.2,.29-1.73h0c.33-.33-.03-.82,.28-1.15,0-.09,0-.19,0-.29,.35-.43-.05-1.01,.29-1.44h0c.61-1.27,.61-2.66,.85-4.01,.41-2.29,.84-4.59,1.08-6.91,.18-1.76,.48-3.49,.63-5.25,.07-.76,.43-1.48,.32-2.26,.37-.27,.27-.67,.29-1.03,.02-.52,.22-.97,.56-1.63,.48,1.09,.09,2.06,.3,2.95-.35,1.12-.1,2.27-.18,3.4-.5,6.79-1.58,13.49-2.86,20.17-.39,2.05-1.14,4.04-1.15,6.16,0,.14-.05,.29-.12,.41-.2,.36-.27,.97-.78,.88-.48-.08-.45-.67-.47-1.09-.06-1.34,.12-2.67,.24-4,.06-.49-.13-1.01,.14-1.48Z"/>
          <path class="cls-45" d="M53.62,107.74v5.14c.49-.85,.76-1.41,.62-2.19-.08-.43,.12-.94,.27-1.39,.92-2.76,1.38-5.63,1.86-8.47,.39-2.33,.82-4.68,1.07-7.05,.21-2.02,.4-4.07,.74-6.08,.24-1.44,.33-2.9,.34-4.37,0-.5-.19-1.07,.28-1.49,0,.77,0,1.54,0,2.3-.06,2.9-.29,5.79-.8,8.65-.1,.56-.04,1.14-.06,1.72-.23,2.21-.7,4.37-1.2,6.53-.16,.7-.24,1.39-.24,2.1-.55,1.71-.72,3.5-1.14,5.24-.13,.55-.2,1.11-.3,1.67-.24,1.24-.26,2.51-.58,3.74-.32,1.9-.59,3.79-1.11,5.66-.31,1.14-1.08,1.98-1.43,3.05-1.6,.32-2.31-.42-1.86-1.91,.26-.86,.76-1.53,1.5-2.03,1.07-2.32,1.33-4.79,1.47-7.3,.05-.98,.06-1.97,.28-2.94v-.57c.1-.14,.19-.13,.29,0Z"/>
          <path class="cls-24" d="M80.68,84.72c.38,.46,.58,1,.56,1.57-.07,1.71,.12,3.41-.19,5.13-.24,1.34-.19,2.74-.34,4.11-.13,1.23-.35,2.44-.49,3.66-.04,.33-.11,.66-.11,.99-.05,3.25-.91,6.36-1.63,9.49,0,.04-.07,.07-.1,.1-.63-.76-.41-1.63-.28-2.46,.57-3.57,1.1-7.15,1.47-10.74,.14-1.42,.26-2.86,.06-4.29-.05-.03-.09-.06-.13-.09,.1-2.04,.6-4.01,.92-6.02,.28-.35-.02-.82,.25-1.17-.01-.09,0-.18,.02-.26Z"/>
          <path class="cls-24" d="M79.19,93.63c.09-.49-.07-1.03,.3-1.46,0,0,.06,.04,.06,.04,.27,.54,.59,1.09-.27,1.41h-.09Z"/>
          <path class="cls-42" d="M80.66,84.98c0,.41,.14,.85-.25,1.17-.01-.41-.1-.84,.25-1.17Z"/>
          <path class="cls-73" d="M94.21,148.61c.52,.52,.24,1.18,.28,1.77,.04,.76,.01,1.53,.01,2.29,0,.39,0,.8,.42,.98,.39,.17,.59-.2,.84-.4,.15-.12,.31-.22,.47-.33,0,.48,0,.96,0,1.43,0,.48-.29,.81-.68,1.02-.5,.28-.91,.09-1.03-.51-.17-.84-.35-1.67-.31-2.54,.05-1.24,.01-2.49,.01-3.73Z"/>
          <path class="cls-35" d="M47.86,144.29c.39,.02,.75-.05,1.06-.33,.38-.33,.81-.46,1.32-.28,.21,.07,.51,.08,.7-.01,1.45-.67,3-.83,4.55-1.02,.65-.08,1.14-.37,1.6-.82,1.38-1.34,2.2-1.45,3.94-.63,.71,.33,1.01,.23,.97-.51-.04-.83,.39-1,1.04-.99,.28,0,.59,.01,.84,.12,.6,.24,1.08,.16,1.57-.3,.74-.7,1.77-.92,2.6-1.48,1.14-.78,2.17-1.71,3.46-2.27,.48-.21,.49-.62,.53-1.07,.07-.74-.28-1.53,.28-2.2,0,.96-.01,1.92,0,2.88,.03,1.74,.99,3.15,2.65,3.69,.96,.31,1.92,.62,2.58,1.41,.47,.56,1.26,.1,1.68,.65,.11,.16,.21,.32,.33,.47,.81,1.04,.55,2.04-.74,2.37-1.39,.35-2.51,1.16-3.62,1.95-.75,.54-1.44,.77-2.39,.54-1.1-.27-2.26-.27-3.31-.81-.55-.28-1.06-.59-1.57-.95-1.85-1.31-3.9-2.4-6.21-1.77-1.37,.37-2.63,.7-4.08,.62-1.1-.07-2.24,.33-3.37,.51-.81,.12-1.61,.42-2.36,.88-1.18,.74-3.25,.91-4.06-.63Z"/>
          <path class="cls-35" d="M59.11,147.91s.11,.02,.12,.05c.23,.52,.27,1.01-.28,1.36-.11,.07-.28,.01-.36-.13-.17-.31-.05-.61,.51-1.29Z"/>
          <path class="cls-35" d="M47,143.43c.55,.03,.84,.31,.86,.86-.55-.03-.84-.31-.86-.86Z"/>
          <path class="cls-35" d="M46.71,142.86c.23,.12,.28,.34,.29,.58-.23-.12-.28-.34-.29-.58Z"/>
          <path class="cls-4" d="M82.98,140.27c.12-.23,.34-.28,.58-.29-.12,.23-.34,.28-.58,.29Z"/>
          <path class="cls-35" d="M46.43,142.57c.1,.1,.19,.19,.29,.29-.1-.1-.19-.19-.29-.29Z"/>
          <path class="cls-35" d="M46.14,142.28c.1,.1,.19,.19,.29,.29-.1-.1-.19-.19-.29-.29Z"/>
          <path class="cls-4" d="M82.69,140.55c.1-.1,.19-.19,.29-.29-.1,.1-.19,.19-.29,.29Z"/>
          <path class="cls-4" d="M83.56,139.98c.1-.1,.19-.19,.29-.29-.1,.1-.19,.19-.29,.29Z"/>
          <path class="cls-4" d="M83.84,139.69c.1-.1,.19-.19,.29-.29-.1,.1-.19,.19-.29,.29Z"/>
          <path class="cls-4" d="M84.42,139.4c.1-.1,.19-.19,.29-.29-.1,.1-.19,.19-.29,.29Z"/>
          <path class="cls-4" d="M84.71,139.11c.1-.1,.19-.19,.29-.29-.1,.1-.19,.19-.29,.29Z"/>
          <path class="cls-4" d="M84.99,138.54c.1-.1,.19-.19,.29-.29-.1,.1-.19,.19-.29,.29Z"/>
          <path class="cls-4" d="M85.28,138.25c.1-.1,.19-.19,.29-.29-.1,.1-.19,.19-.29,.29Z"/>
          <path class="cls-2" d="M116.15,129.3c-.54-.15-1.06-.38-1.37-.91-.29-.51,.02-.93,.35-1.28,1.33-1.39,2.32-2.99,3.19-4.71,.7-1.39,2-2.3,3.06-3.39,.38-.39,.88-.4,1.34-.25,.45,.14,.86,.39,1.27,.63,.52,.3,.46,.81,.37,1.28-.09,.43-.41,.67-.85,.55-.49-.13-.72,.04-.83,.5-.03,.14-.07,.3-.16,.39-1.99,2.05-3.21,4.73-5.4,6.61-.29,.25-.51,.59-.98,.59Z"/>
          <path class="cls-80" d="M51.61,118.68c-.51,.61-.9,1.28-1.17,2.03-.36,1.01-.15,1.47,.89,1.69,.18,.04,.37,0,.56,.01,.26-.12,.02-.75,.58-.57,.49,1,.59,1.05,1.37,.48,.34-.25,.68-.68,1.1-.35,.62,.48,.94,.17,1.22-.33,.5-.89,1.33-1.45,2.06-2.1,.26-.21,.52-.41,.78-.62,1.57-1.24,4.6-1.14,6.29-.05,1.23,.8,1.84,2,2.79,2.96,.15,.15,.23,.42,.26,.65,.33,2.11,.58,4.23-.34,6.27-1.17,.96-2.47,1.62-4.01,1.73-.53-.59-.05-1.18,0-1.77,.04-.41,0-.81-.46-.94-.43-.13-.57,.27-.71,.56-.61,1.28-.89,2.63-.79,4.05,.02,.32-.02,.75,.42,.81,.33,.04,.41-.32,.57-.56,.19-.29,.08-1.01,.8-.61,.13,.21,.2,.44,.2,.68,.01,1-.07,1.95-1.26,2.29-1.19,.34-1.61-.47-1.91-1.48-1.06,.83-2.16,.97-3.33,.69-1.45-.87-2.18-2.34-3.15-3.88-1.2,1.9-2.72,3.31-4.49,4.47-.57,.38-.65,1.16-1.03,1.7-.87,1.24-1.65,1.4-3.02,.6-.58-.29-1.15-.58-1.73-.86-.09-.11-.19-.19-.29-.29-.23-.27-.63-.03-.86-.29h0c-.09-.1-.19-.19-.29-.29h0c-.09-.1-.19-.19-.29-.29-.1-.1-.18-.2-.29-.29,0-.1,0-.19,0-.29-.12-.07-.19-.19-.29-.29-.19-.29-.38-.58-.58-.86-.24-.14-.42-.35-.58-.58v-.58c-.26-.23-.01-.64-.29-.86,0-.38,0-.77,0-1.15-.41-1.73,.14-3.45,.05-5.18-.03-.57,.49-1,1.02-1.27,.56-.27,1.06-.63,1.52-1.04,.98-.75,1.79-1.68,2.8-2.4,1.35-.97,2.79-1.6,4.46-1.62,.49,0,.95-.05,1.37-.3,.08,.06,.11,.13,.08,.19-.03,.07-.05,.1-.08,.1Z"/>
          <path class="cls-18" d="M45.85,137.1c.28,.04,.58,.04,.83,.14,.7,.27,1.19-.08,1.64-.54,.13-.13,.23-.31,.3-.48,.44-1.12,1.15-1.93,2.22-2.58,1.42-.87,2.52-2.11,3.23-3.66,.18-.39,.62-.37,.74,.07,.44,1.58,1.72,2.58,2.56,3.89,.4,.27,1.05,.19,1.15,.86-.07,.66,.27,1.09,.79,1.41,.43,.27,.39,.6,.12,.96-.74,.99-1.4,2.07-2.83,2.17-.51,.04-.9,.34-1.19,.73-1.02,1.35-2.35,1.25-3.74,.82-.5-.15-.99-.36-1.45-.61-.49-.27-.89-.27-1.26,.18-.09,.11-.2,.21-.31,.3-.91,.69-1.66,.49-1.89-.63-.16-.78-.49-1.31-1.22-1.62-.34-.15-.77-.4-.7-.81,.08-.47,.58-.56,1.01-.61Z"/>
          <path class="cls-64" d="M79.28,93.63c.42-.41,.18-.94,.27-1.41,.14-.24,.29-.48,.55-.92,0,.65,0,1.11,0,1.57-.06,2.78-.39,5.54-.72,8.3-.34,2.86-1.18,5.67-1,8.59-.02,1.88-.74,3.63-1.01,5.47-.05,.33-.17,.67-.13,.99,.27,2.1-.86,3.53-2.25,4.85-.36,.34-.73,.7-1.24,.29-.48-.38-1.06-.76-.56-1.52,.18-.15,.12-.42,.29-.57h0c2.58-5.93,2.44-12.39,3.65-18.59,.32-1.63,.34-3.32,1.06-4.88,.19-.41,.42-.73,.77-.99,.41-.31,.24-.77,.33-1.17Z"/>
          <path class="cls-3" d="M78.95,94.8c.14,.67-.62,.9-.7,1.56-.26,2.12-.7,4.22-1.03,6.33-.55,3.47-.85,6.99-1.55,10.44-.16,.79-.37,1.58-.44,2.38-.13,1.48-.61,2.76-1.75,3.75-.54-1.2-.41-2.48-.21-3.68,.5-3,1.17-5.98,1.79-8.96,.63-3.03,1.25-6.06,1.92-9.08,.14-.65,.18-1.36,.92-1.82,.33-.2,.34-.95,.46-1.45,.07-.32-.03-.68,.31-.91,.07,.49-.19,1.04,.29,1.44Z"/>
          <path class="cls-18" d="M70.46,111.78c.77,.36,1.46,.93,2.12,1.54,.53,.49,.11,1.01-.06,1.45-.42,1.11-.84,2.24-1.62,3.18-.31,.37-.49,.81-.62,1.28-.12,.41-.31,.81-.64,1.11-.28,.26-.62,.41-.79-.05-.92-2.44-1.77-4.87-.25-7.41,.42-.71,1.11-.85,1.86-1.1Z"/>
          <path class="cls-35" d="M58.51,134.8c-.38-.29-.77-.58-1.15-.86,.33,0,.67-.04,1,0,1.05,.14,1.88-.16,2.45-1.09,.05-.08,.13-.13,.21-.18,.03-.02,.09,0,.16,0,.34,.28,.18,.69,.2,1.04,.02,.59,.18,1.04,.88,1.06,.63,.01,1.33-.44,1.39-1,.07-.61,.03-1.24,.04-1.86-.1-.08-.14-.18-.13-.31,.08-.34,.11-.7,.28-1.02,.04-.04,.09-.08,.13-.12,1.3-.68,2.66-1.22,4.03-1.73-.41,1.43-1.45,2.43-2.56,3.23-.82,.59-1.13,1.28-1.16,2.13-.09,2.28-2.13,3.09-3.84,1.89-.62-.44-1.29-.81-1.94-1.21Z"/>
          <path class="cls-35" d="M42.97,135.66c.32,.01,.66-.05,.86,.29-.32,0-.66,.05-.86-.29Z"/>
          <path class="cls-3" d="M73.48,119.26c0,.24-.06,.45-.29,.57,0-.24,.06-.45,.29-.57Z"/>
          <path class="cls-35" d="M43.84,135.95l.29,.29c-.1-.1-.19-.19-.29-.29Z"/>
          <path class="cls-35" d="M42.68,135.37c.1,.1,.19,.19,.29,.29-.1-.1-.19-.19-.29-.29Z"/>
          <path class="cls-35" d="M42.4,135.08c.1,.1,.19,.19,.29,.29-.1-.1-.19-.19-.29-.29Z"/>
          <path class="cls-35" d="M42.11,134.8c.1,.1,.19,.19,.29,.29-.1-.1-.19-.19-.29-.29Z"/>
          <path class="cls-35" d="M41.82,134.22c.1,.1,.19,.19,.29,.29-.1,0-.19,0-.29,0v-.29Z"/>
          <path class="cls-16" d="M123.85,56.22c-.1,0-.19,0-.29,0-.97-.67-2.18-.8-3.17-1.44h-.29c-.09-.11-.19-.19-.29-.29-.22-.28-.64,0-.86-.29-.09-.1-.19-.19-.29-.29-.1-.1-.19-.1-.29,0-7.87-3.17-15.73-6.33-23.6-9.5-.79-.97-1.98-1.38-3.02-1.99,.24-.39,.49-.34,.7-.26,2.62,.95,5.29,1.79,7.83,2.93,1.46,.65,2.92,1.36,4.38,1.98,1.2,.51,2.36,1.18,3.71,1.45,.97,.2,1.95,.71,2.9,1.13,2.18,.98,4.37,1.93,6.59,2.82,1.1,.44,2.06,1.22,3.17,1.62,1.14,.41,2.18,1.12,3.42,1.27,.18,.02,.38,.08,.53,.18,.23,.16,.52,.34,.45,.67-.09,.38-.45,.25-.72,.29-.09,.01-.19,0-.29,0-.15-.19-.42-.11-.58-.29Z"/>
          <path class="cls-16" d="M79.79,38.15c.51-.46,.81-.21,1.12-.11,1.63,.52,3.31,.9,4.82,1.72,1.05,.57,2.22,.83,3.34,1.2,.45,.15,.94,.21,1.2,.68,.03,.05-.03,.2-.09,.25-.53,.4-.85-.16-1.27-.29-1.21-.37-2.28-1.18-3.61-1.21-.74-.02-1.31-.54-1.98-.8-1.14-.45-2.27-.91-3.54-1.43Z"/>
          <path class="cls-16" d="M76.65,36.94c-.19,0-.38,0-.58,0-.03-.2-.29-.49,.11-.54,.31-.04,.69,.03,.47,.54Z"/>
          <path class="cls-39" d="M135.65,60.82c-.09,.1-.18,.2-.27,.29,.09-.1,.18-.2,.27-.29Z"/>
          <path class="cls-35" d="M42.97,122.71c-.16,.7-.5,1.19-1.29,1.31-.75,.12-1.08,.73-.98,1.37,.22,1.4-.08,2.73-.31,4.09-.04,.23,0,.48,0,.72-.45-.65-.74-1.31-.39-2.12,.21-.49-.03-.82-.47-1.04-.35-2.03,1.12-3.04,2.36-4.16,.29-.27,.72-.14,1.09-.16Z"/>
          <path class="cls-32" d="M51.61,118.68c0-.1,0-.19,0-.29,.32-1.42,.45-2.87,.58-4.32,.45-.96,.38-2.02,.57-3.02,.18-.91,.13-1.88,.58-2.73,0,1.58,.03,3.16,0,4.73-.04,2.03-.59,3.92-1.72,5.63Z"/>
          <path class="cls-29" d="M38.66,115.23c.1-.67-.25-1.41,.28-2.02-.1,.67,.25,1.41-.28,2.02Z"/>
          <path class="cls-29" d="M38.37,117.24c.07-.49-.19-1.04,.29-1.44-.07,.49,.19,1.04-.29,1.44Z"/>
          <path class="cls-35" d="M40.38,131.34c.34,.21,.28,.55,.29,.86-.34-.21-.28-.55-.29-.86Z"/>
          <path class="cls-35" d="M40.67,132.78c.27,.11,.47,.3,.58,.58-.37,0-.57-.2-.58-.58Z"/>
          <path class="cls-84" d="M54.77,99.97c-.07,.49,.19,1.04-.29,1.44,.06-.49-.19-1.04,.29-1.44Z"/>
          <path class="cls-84" d="M54.48,101.7c-.04,.4,.13,.85-.28,1.15,0-.38,0-.77,0-1.15,.1,0,.19,0,.29,0Z"/>
          <path class="cls-25" d="M57.07,79.25c0,.32,.05,.66-.29,.86,0-.32-.05-.66,.29-.86Z"/>
          <path class="cls-25" d="M56.78,83.85c0,.24-.05,.45-.28,.58,0-.24,.05-.45,.28-.58Z"/>
          <path class="cls-21" d="M118.96,54.21c.32,0,.66-.05,.86,.29-.33-.02-.58,.17-.86,.29v-.58Z"/>
          <path class="cls-21" d="M118.38,53.92c.1-.2,.19-.2,.29,0-.1,0-.19,0-.29,0Z"/>
          <path class="cls-21" d="M118.67,53.92c.1,.1,.19,.19,.29,.29-.1-.1-.19-.19-.29-.29Z"/>
          <path class="cls-21" d="M120.4,54.79c1.04,.51,2.44,.23,3.17,1.44-1.2-.15-2.26-.62-3.17-1.44Z"/>
          <path class="cls-21" d="M123.85,56.22c.24,0,.45,.06,.58,.29-.24,0-.45-.06-.58-.29Z"/>
          <path class="cls-21" d="M119.82,54.5c.1,.1,.19,.19,.29,.29-.1-.1-.19-.19-.29-.29Z"/>
          <path class="cls-75" d="M90.46,58.89c.06,.95-.1,2.1,.08,3.25,.09,.59-.11,1.07-.71,1.23-.7,.19-.91-.35-1.08-.87-.53-1.63-.76-3.31-.87-5.01-.08-1.15-.05-2.3,0-3.45,.04-.92,.52-1.16,1.35-.72,.76,.4,1.28,.95,1.24,1.92-.05,1.15-.01,2.3-.01,3.65Z"/>
          <path class="cls-19" d="M52.47,121.85c-.19,.19-.39,.38-.58,.57,.02-.19-.03-.42,.06-.56,1.4-2.34,1.69-5.01,2.26-7.59,.04-.2,.13-.35,.28-.48-.01,1.18-.03,2.36-.03,3.53,0,.36-.2,.62-.32,.93-.16,.39-.49,.8-.46,1.17,.1,1.09-.52,1.76-1.2,2.42Z"/>
          <path class="cls-19" d="M54.48,113.79c-.02-1.28,.08-2.54,.58-3.74-.01,1.27,.15,2.58-.58,3.74Z"/>
          <path class="cls-40" d="M68.01,53.06c-.13-1.23,.2-2.71-.17-4.18-.11-.42,.14-.84,.33-1.22,.17-.34,.53-.4,.87-.32,.34,.08,.37,.37,.4,.67,.15,1.44-.18,2.85-.38,4.25-.22,1.52-.27,3.02-.04,4.54,.03,.19,.1,.38,.07,.56-.04,.24-.2,.44-.47,.47-.27,.03-.47-.15-.53-.39-.07-.27-.09-.56-.09-.85,0-1.1,0-2.2,0-3.54Z"/>
          <path class="cls-40" d="M49.59,61.53c.2,1.08-.37,2.45,.39,3.71,.08,.13-.09,.46-.21,.65-.21,.34-.5,.31-.64-.03-.17-.39-.31-.82-.32-1.24-.04-1.24-.47-2.43-.37-3.69,.07-.81,.06-1.64-.32-2.39-.28-.55-.05-1.02,.1-1.51,.07-.23,.24-.42,.52-.42,.28,0,.46,.2,.5,.43,.14,.75,.43,1.46,.37,2.25-.05,.66-.01,1.34-.01,2.23Z"/>
          <path class="cls-84" d="M54.2,102.85c-.08,.58,.23,1.22-.29,1.73,.08-.58-.23-1.22,.29-1.73Z"/>
          <path class="cls-32" d="M53.62,107.74c-.1,0-.19,0-.29,0,.06-.49-.19-1.04,.28-1.44,0,.48,0,.96,0,1.44Z"/>
          <path class="cls-22" d="M116.54,127.79c-.09-.07-.21-.14-.3-.25-.13-.18-.11-.4,.05-.52,2.26-1.74,3.21-4.46,4.95-6.59,.06-.07,.09-.17,.15-.25,.28-.32,.57-.81,1.04-.52,.48,.3,.41,.95,.08,1.27-2.01,1.93-3.16,4.56-5.21,6.45-.21,.19-.38,.44-.76,.41Z"/>
          <path class="cls-57" d="M63.7,131.63c0,.1,0,.19,0,.29-.39,.26-.24,.69-.31,1.04-.12,.56-.54,.81-1.04,.79-.5-.02-.64-.43-.67-.92-.12-1.74,.21-3.4,.93-4.97,.18-.39,.41-.8,.94-.72,.47,.07,1.07,.97,.95,1.42-.17,.64-.52,1.23-.5,1.91h0c-.32,.33,.02,.82-.29,1.15Z"/>
          <path class="cls-80" d="M63.7,131.63c.04-.4-.13-.85,.29-1.15-.04,.4,.13,.85-.29,1.15Z"/>
        </g>
      </g>
    </g>
  </g>
</svg>