<?xml version="1.0" encoding="UTF-8"?>
<svg id="Layer_2" data-name="Layer 2" xmlns="http://www.w3.org/2000/svg" viewBox="0 0 83.39 104.75">
  <defs>
    <style>
      .cls-1 {
        fill: #f59083;
      }

      .cls-2, .cls-3 {
        opacity: .5;
      }

      .cls-4 {
        fill: #ce9a7e;
      }

      .cls-5 {
        fill: #f0b594;
      }

      .cls-6 {
        fill: #ffaa7f;
      }

      .cls-7 {
        fill: #f8a89b;
      }

      .cls-8 {
        fill: #f6ba49;
      }

      .cls-9 {
        fill: #febe9c;
      }

      .cls-10 {
        fill: #ec7268;
      }

      .cls-11 {
        fill: #f18277;
      }

      .cls-3 {
        fill: #fdb398;
      }

      .cls-12 {
        fill: #fac661;
      }

      .cls-13 {
        fill: #ccc9e1;
      }

      .cls-14 {
        fill: #d55c55;
      }

      .cls-15 {
        fill: #e5ad44;
      }

      .cls-16 {
        fill: #ebb246;
      }

      .cls-17 {
        fill: #7f5e4d;
      }

      .cls-18 {
        fill: #fefefe;
      }
    </style>
  </defs>
  <g id="OBJECTS">
    <g>
      <g>
        <path class="cls-13" d="M11.6,51.21c-7.84,12.88-4.04,47.28,16.69,38.79,2-2.14,5.6-2.69,7.42-.02v-.05c13.27,24.56,39.6-9.74,40.81-26.49,.75-40.22-50.79-56.8-64.91-12.24"/>
        <g class="cls-2">
          <path class="cls-18" d="M67.4,77.47c2,2.3,6.72-1.33,3.97-3.57-2.12-1.24-5.49,1.19-3.97,3.57Z"/>
          <path class="cls-18" d="M59.97,80.72c-.61,1.68,2.5,2.51,3.13,1,.7-1.79-2.46-2.63-3.13-1Z"/>
          <path class="cls-18" d="M63.08,67.29c1.16,1.74,4.11,.45,2.96-1.54-1.02-1.72-4.41-.41-2.96,1.54Z"/>
          <path class="cls-18" d="M11.8,65.08c1.15,2.67,6.08,2,4.49-1.29-1.18-2.39-6.06-1.97-4.49,1.29Z"/>
          <path class="cls-18" d="M8.11,65.96c.59,1.52,3.2,1.09,2.14-.63-.62-1.25-3.07-.96-2.14,.63Z"/>
          <path class="cls-18" d="M25.39,76.2c.31,1.83,4.1,2.41,3.54,0-.25-2.23-3.71-2.51-3.54,0Z"/>
          <path class="cls-18" d="M12.77,75.67c.1,1.21,2.27,2.31,2.57,.67,.09-1.42-2.58-2.74-2.57-.67Z"/>
        </g>
      </g>
      <g>
        <g>
          <path class="cls-8" d="M44.16,.04c-6.15-.11-13.02,4.27-12.58,10.95-6.14-3.55-13.64,4.47-9.86,10.42,5.33,13.07,30.15,7.8,39.78,.8,4.4-5.22,.75-14.47-6.25-14.76C53.26,3.84,49.73-.44,44.16,.04"/>
          <path class="cls-8" d="M53.43,7.52c-.83,1.07,2.17,.36,2.8,.8-.02,0-.05-.01-.07-.02,1.64,.36,3.18,1.15,4.43,2.29,0,0,0,0-.01-.01,.02,.02,.04,.03,.05,.05,0,0,0,0-.01-.01,.56,.52,1.06,1.1,1.48,1.75,0-.01-.01-.02-.02-.03,0,.01,.01,.02,.02,.03,0,0,0,0,0,0,.82,1.29,1.31,2.79,1.4,4.32,0,0,0-.02,0-.03,0,.03,0,.05,0,.08,0,0,0-.02,0-.03,.15,2.47-.84,5.07-2.91,6.51,.01,0,.02-.01,.03-.02-.02,.01-.04,.03-.06,.04,0,0,0,0,.01-.01-.61,.67-2.01,.6-2.35,1.35,10.55-1.59,5.24-18.87-4.79-17.07m.85,.63h0m9.07,10.66s0,.03,0,.05c0-.02,0-.03,0-.05m-.61,1.85s0,0,0,.01c0,0,0,0,0-.01m-.92,1.43s-.02,.02-.03,.04c0-.01,.02-.02,.03-.04m-1.26,1.16s.01,0,.02-.01c0,0-.01,0-.02,.01m2.92-6.52s0-.02,0-.02c0,0,0,.02,0,.02m-1.4-4.35s0,0,0,0c0,0,0,0,0,0m-1.48-1.75s-.02-.02-.03-.03c.01,.01,.02,.02,.03,.03"/>
          <path class="cls-8" d="M63.07,14.82c-.52,1.53,.31,3.79-.75,5.42,.01-.02,.02-.05,.03-.07-.08,.52-1.11,1.12-.58,1.56-1.16,4.11,3.7-5.78,1.3-6.91m-.26,3.93s0,.01,0,.02c0,0,0-.01,0-.02m-1.17,3.16s-.01,.02-.02,.03c0,0,.01-.02,.02-.03"/>
          <path class="cls-16" d="M44.16,0c-6.15-.11-13.04,4.28-12.59,10.96-6.11-3.59-13.64,4.47-9.86,10.41,4.48,12.26,26.89,7.99,36.51,2.86,.13,.61,.89,.05,1.26-.03-5.5-3.31-19.1-7.73-15.24-15.79-12.6,.95-1.99-10.57,5.29-7.26C47.99,.41,46.04,0,44.16,0"/>
          <path class="cls-12" d="M24.84,11.36c-4.84,2.05-2.47,9.37,.79,11.87-1.43-3.05-4.08-8.3-.77-11.85,0,0-.01-.02-.01-.02"/>
          <path class="cls-12" d="M42.67,2.69c-4.66-2.1-15.83,11.1-10.69,8.8l-.03,.03c5.03-13.93,27.34-6.11,20.53,7.34,5.32-6.77-2.01-16.38-9.81-16.17"/>
          <path class="cls-12" d="M55,7.15h0c1.23,1.87,2.16,4.01,2.32,6.21,.02-.02,.02-.05,.02-.07,.29,2.35-.69,4.4-1.87,6.11,3.28-1.97,3.51-11.2-.47-12.25Z"/>
          <path class="cls-12" d="M60.7,9.91c.57,1.13,.85,2.33,.96,3.65l.02-.07c.23,3.42-.65,7.22-3.68,8.76,4.28-.52,6.59-9.71,2.7-12.34Z"/>
          <path class="cls-12" d="M41.26,10.55c-3.22-.08-9.44,2.48-8.81,6.09,2.86-2.88,6.92-6.6,11.81-4.79,2.31,.74,4,2.71,4.48,5.08,1.64-2.21-4.07-7.01-7.48-6.38"/>
          <path class="cls-9" d="M43.37,72.26c-2.09,0-4.51,.76-5.65,2.55l-.07-.03c.07,1.13,.04,2.14-.08,3.09,.01-.02,.03-.06,.03-.08-.26,2.01-1.01,3.61-2.94,4.36h.05c-7.44,1.13-18.42,8.71-15.94,16.64,12.24,7.54,29.13,7.12,42.64,3.18,2.57-.99,5.36-1.93,7.2-3.93-1.24-12.15-12.22-12.58-19.27-18.24v.04c-.22-.6-.38-1.25-.47-2.01v.02c-.12-1.05-.13-2.15-.03-3.35l-.17,.04c-.97-1.58-3.39-2.29-5.3-2.28m9.09,31.22h0c.13-.02,.26-.04,.39-.06-.13,.02-.25,.04-.38,.06"/>
          <path class="cls-6" d="M42.39,72.34c-1.8,.21-3.72,.98-4.67,2.5l-.06-.04c.06,1.14,.03,2.15-.09,3.09l.03-.04c.06,.52,.64,.92,1,1.28,0,0,0,0,0,0,0,0,0,0,0,0,0,0,0,0,0,0,0,0,0,0,.01,0,0,0,0,0,0,0l.41,1c-.05-.8,.55-.33,.99-.12,0,0,0,0-.01,0,.51,.34,1.63,.45,2,.13h0c.19,.28,2.21,.76,2.41,1h0c.69-.29,1.38-.37,2.04-.69,0,0,0,0-.01,0,.5-.22,.97-.5,1.39-.84,0,0,0,0,0,0,0,0,0,0,0,0,0,0,0,0,0,0,0,0,0,0,.01-.01h0c1.67-1.07,.66-2.8,1-4.58l-.17,.03c-1.16-1.86-4.1-2.48-6.28-2.23m4.07,7.17s0,0,0,0c0,0,0,0,0,0m-6.46,.01s0,0,0,0c0,0,0,0,0,0m2.01,.56s0,0,.01,0c0,0,0,0-.01,0m2.4,0s0,0-.01,0c0,0,.01,0,.01,0"/>
          <path class="cls-5" d="M20.79,50.64c-9.37,1.27,1.59,20.02,4.8,11.9-.19-3.7-.51-10.99-4.8-11.9"/>
          <path class="cls-5" d="M64.72,50.41c-4.16,1.63-5.96,9.73-4.36,13.86,6.82,1.11,11.83-12.04,4.36-13.86"/>
          <path class="cls-4" d="M19.83,53.15c-3.54,1.47,1.38-.99,2.7,2.95,1.59,.42-.66-2.38-1.37-2.56-.29-.32-1.86-.44-.88-.39m.04,.04s.03,.01,.05,.02c-.02,0-.03-.01-.05-.02m.6,.36s.01,.01,.02,.02c0,0-.01-.01-.02-.02"/>
          <path class="cls-4" d="M65.61,52.15c3.54,1.47-1.38-.99-2.7,2.95-2.25-.03,2.67-3.6,2.37-2.95m-.17,.57s-.03,.01-.05,.02c.02,0,.03-.01,.05-.02m-.6,.36s-.01,.01-.02,.02c0,0,.01-.01,.02-.02"/>
          <path class="cls-9" d="M42.93,22.15c-22.99-3.36-25.91,26.93-18.18,42.34,8.58,18.08,34.5,13.02,38.28-5.82,3.83-14.64,.56-35.75-20.1-36.97"/>
          <path class="cls-5" d="M43.36,22.15c-16.71-1.3-23.59,14.17-21.53,28.68,.57-.26,1.1-.6,1.58-1.02,0,0-.01,0-.01,.01,.37-.33,.69-.71,.96-1.12,0,0,0,0,0,0,.49-.75,.81-1.58,1.09-2.43,0,0,0,.01,0,.02,.82-3.6,2.82-6.67,4.28-10,0,0,0,0,0,.01,.36-1.11,.6-2.3,.57-3.48,0,0-.34,0,0,0h0c-.34,0-.34,0-.34-.01h0c.04-.36-.09-1.23,.29-.62,0,0,0-.01-.01-.02,.7,.98,1.51,1.87,2.44,2.63h0c.82,.45,1.89,1.84,2.84,1.33h-.14c.17,1.01,2.97,1.41,3.53,1h0c8.96,2.32,15.5-3.02,20.87,8.17,0,0,0,0,0,0,.97,1.35,2.04,2.63,3.31,3.68,0,0,0,0,0,0,0,0,0,0,0,0,0,0,0,0,0,0h0c.53,.43,1.11,.82,1.72,1.14,2.71-13.07-7.5-28.27-21.44-27.98Zm-10.87,12.78s0,0,0,0h0Zm11.3,2.68s0,0,0,0c0,0,0,0,0,0m-4.89,.05s0,0,.02,0c0,0-.01,0-.02,0"/>
          <polyline class="cls-5" points="21.5 50.14 21.51 50.13 21.5 50.14"/>
          <path class="cls-1" d="M36.19,15.24c-14.67,3.77-22.66,21.45-17.01,35.32,.63-.31,1.35-.46,2.06-.39-4.56-37.98,47.16-37.93,42.91-.05,.62-.36,1.41-.2,2.02,.1,3.79-10.12,.95-22.4-7.22-29.53-6.02-5.5-14.86-7.67-22.75-5.44"/>
          <path class="cls-11" d="M36.21,15.83c-14.24,3.67-22.26,20.53-17.35,34.21,.18,1.66,1.3,.43,2.43,.66-2.85-16.95,10.08-22.46,15.47-35.01-.19,.05-.37,.09-.56,.15"/>
          <path class="cls-8" d="M43.46,19.26c-7.16,.06-12.04,5.55-17.01,10.03-7.44,4.88-7.38,14.47-5.15,22.31,2.69-2.32,7.83-17.42,7.51-21.6,10.95,15.78,25.9-5.85,31.3,16.3,9.19,18.13,8.35-23.23-6.86-25.87,.02,.01,.05,.02,.07,.04-3.15-.93-6.56-1.39-9.87-1.21"/>
          <path class="cls-16" d="M42.81,17.32c-16.48-1.45-30.35,19.86-21.5,33.89-2.15-7.82-2.43-17.58,5.13-22.51,6.91-7.81,16.52-12.68,26.87-8.82-3.2-1.7-6.86-2.59-10.51-2.56"/>
          <path class="cls-16" d="M40.43,18.92c-6.73,.98-17.72,11.69-18.29,14.47,0,0,0,0,0,0,0-.01,.01-.02,.02-.03,0,0,0,0,0,0,1.87-2.67,4.37-4.83,6.69-7.1,0,0-.01,0-.02,.01,2.34-2.14,4.83-4.19,7.65-5.64l-.04,.02c1.41-.72,2.92-1.27,4.48-1.57,0,0,0,0,0,0,1.94-.38,3.92-.41,5.88-.27,0,0-.01,0-.02,0,9.01,1.01-2.71-1.04-6.35,.11m-18.28,14.46s0,0,0,0c0,0,.01-.02,.01-.02,0,0,0,0,0,.01m18.77-14.29s.01,0,.02,0h-.02Z"/>
          <path class="cls-16" d="M19.89,41.85c.28,2.96,.28,6.31,1.34,9.01-.26-2.76-1.15-5.81-1.18-8.73,0,0,0,.01,0,.02,0-.14-.01-.52-.16-.3"/>
          <path class="cls-15" d="M18.3,46.23s.01,.06,.02,.08c0-.04,0-.07,0-.11,0,0,0,.02-.01,.02"/>
          <path class="cls-12" d="M24.65,24.91c-.36,4.66-3.74,9.49-4.64,14.37l.02-.06c-.17,2.2-.72,4.34-1.18,6.35,1.46-2.62,1.34-6.11,2.49-8.86,1.25-3.55,5.28-8.13,3.31-11.81"/>
          <path class="cls-12" d="M27.09,24c-.63,2.58,.78,7.14-1.14,10.29l.04-.06c-1.61,3.18-3.44,6.22-3.52,9.91v-.02c-.04,.36-.09,.79-.14,1.15l.02-.04c-.09,2.13-.97,3.91-1.55,5.5,1.36-6.77,10.57-22.44,6.3-26.71"/>
          <path class="cls-12" d="M28.2,22.04c3.16,17.71,23.31,1.93,29.71,12.43v-.04c3.02,4.41,2.64,11.3,7.11,14.67-7.16-11.7-3.54-24.37-23.25-18.82h.08c-6.03,.7-11.01-3.3-13.66-8.24"/>
          <path class="cls-12" d="M32.1,16.99c.82,14.85,26.51-2.87,30.18,15.39v-.07c.95,3.09,1.43,6.79,3.98,9.02-10.33-35.26-19.44-8.54-34.16-24.34"/>
          <path class="cls-1" d="M30.61,4.15c-5.09,3.18-8.06,13.92-3,18.4,8.13-1.42,11.25-15.45,3-18.4"/>
          <path class="cls-7" d="M33.28,10.15h.12c-.22,2.23-.84,4.67-2.21,6.59l.03-.02c-.58,.82-1.05,1.38-1.75,2.01h.03c-4.86,4.75,5.32-2.49,3.9-8.58"/>
          <path class="cls-7" d="M33.75,15.99c-.76,2.58-3.24,4.15-5.1,5.61,2.1-.05,4.7-3.5,5.1-5.61"/>
          <path class="cls-14" d="M30.83,7.68c-3,2.67-5.41,10.46-3.81,13.54,.06,.22,.33,1.26,.49,.72,.65-3.72,8.4-10.13,3.32-14.26"/>
          <path class="cls-1" d="M16.65,18.03c-9.38-1.46-6.47,8.38-1.32,11.8,4.23,2.22,9.26-.99,11.46-4.74-2.24-3.6-5.63-7.21-10.14-7.06"/>
          <path class="cls-7" d="M25.4,23.73c-.53,.36-.97,.91-1.57,1.2,0,0,0,0,.01,0-1.44,.83-3.13,1.09-4.78,1.05,.02,0,.04,0,.06,0-1.17-.04-2.34-.22-3.46-.58,0,0,.02,0,.03,0-.42,0-1.42-.77-1.49-.43,2.96,1.8,10.41,2.46,11.21-1.24m-3.45,1.95s-.02,0-.03,0c0,0,.02,0,.03,0"/>
          <path class="cls-7" d="M26.27,24.15c-.62,.51-1.03,1.35-1.67,1.88h0c-.77,.75-1.63,1.41-2.55,1.94,0,0,.01,0,.02,0-.77,.44-1.58,.79-2.43,1.01h.02c-.69,.42-2.39-.13-2.59,.26,3.17,.73,9.18-2.02,9.22-5.09m-4.18,3.79s-.01,0-.02,.01c0,0,.01,0,.02-.01m-4.14,1.22s0,0,.01,0c0,0,0,0-.01,0m1.7-.2s.01,0,.02,0c0,0-.01,0-.02,0"/>
          <path class="cls-14" d="M14.89,19.82c-2.08-.43-3.49,1.58-1.18,2.68,1.79,1.19,4.73,.47,6.01,1.65,.21,.09,1.08-.31,1.01-1,.34-.03,.39,.59,.64,.42,1.66,0,3.15,.46,4.59,.97-2.01-3.43-7.09-4.77-11.08-4.71"/>
          <path class="cls-10" d="M25.75,19.59c-1.56,.2-2.25,1.72-2.06,3.12,0,0,0-.01,0-.02,.03,.36,.12,.72,.24,1.06v-.02c3.47,5.84,8.96-4.94,1.83-4.14"/>
          <path class="cls-4" d="M42.47,51.98c-.02,.22-.04,.44-.07,.66,0-.01,0-.02,0-.03-1.29,3.3,6.39,6.6-.39,7.42,2.89,2.36,5.05-3.66,1.23-4.47,0,0,.01,.01,.02,.02-.01,0-.02-.02-.03-.03,0,0,0,0,.01,0-1.37-.67-.17-3.26-.78-3.58m.26,7.92s.02,0,.03,0c0,0-.02,0-.03,0"/>
          <path class="cls-17" d="M60.3,51.73c-.62,1.23-2.7,1.39-2.55,2.96-.41,8.19-10.46,5.32-9.16-1.37-1.95,8.64,10.64,10.25,10.17,1.21,1.03-.05,2.82-2.46,1.17-1h.03c-.27,.17-.54,.32-.81,.43h.04c-.16,.04-.32,.08-.46,.11,.4-.6,1.84-1.53,1.57-2.33"/>
          <path class="cls-17" d="M25.09,51.71c-.27,.81,1.19,1.74,1.57,2.34-.17-.04-.32-.08-.46-.13l.04,.03c-.57-.02-1.29-1.23-1.56-.94,2.28,1.4,1.8,3.46,3.05,5.62,3.84,5.3,10.65-.01,8.99-5.42,1.45,7.27-8.89,9.28-9.09,1.42,.14-1.55-1.94-1.71-2.55-2.93"/>
          <path class="cls-17" d="M40.01,61.78c-.9,2.63,4.64,3.5,4.88,.83-1.34,2.25-4.19,1.35-4.88-.83"/>
          <path class="cls-16" d="M51.28,41.15h.37c-3.34,1.71,5.15,2.66,6.02,5.18,1.6-2.12-3.99-5.27-6-5.18"/>
          <path class="cls-16" d="M32.77,41.39c-2.02-.09-7.63,3.06-6.03,5.18,.82-2.53,9.29-3.38,6.03-5.18"/>
          <path class="cls-3" d="M31.69,64.34c-.68-2.6-4.52-5.15-7.17-4.59-2.39,2.87,5.92,9.22,7.17,4.59"/>
          <path class="cls-3" d="M62.28,60.38c-2.25-2.96-8.15,.95-8.19,3.99,1.87,3.52,7.95-1.42,7.37-3.89,.01-.03,.91,0,.83-.1Z"/>
        </g>
        <g>
          <path class="cls-9" d="M17.64,21.26C10.77,23.18,1.95,30.25,0,36.96c0,0,0,0,0,0,.36,1.47,.92,2.89,1.64,4.23,0,0,0,0,0,0,.6,1.1,1.32,2.14,2.17,3.05,0,0,0,0-.01-.01,.58,.47,2.01,2.26,2.49,1.36,2.2-7.39,9.03-9.99,14.17-13.79,3.04,2.37,9.72,2.91,3.86-1.53,1.79,.49,8.63,2.72,6.21-1.15,3.69,.59,1.58-3.37-.72-3.87,9.81-2.24-9.24-5.71-12.17-3.97M0,37.05s0,0,0,.01c0,0,0,0,0-.01m1.63,4.22s0,0,0,0c0,0,0,0,0,0"/>
          <path class="cls-4" d="M22.43,25.85c1.54,.53,3.47,.72,5.02,1.56,0,0,0,0,0,0,.92,.45,1.77,1.03,2.56,1.69-.01,0-.02-.02-.03-.03,.77,.51,1.6,2.03,.1,2.09,0,0,0,0,0,0-.6,.05-1.2-.03-1.79-.13,.01,0,.03,0,.04,0-7.85-2.3-.69,1.61,2.74,.06,.42-3.6-5.9-4.76-8.64-5.23m8.51,4.68s0,.02,0,.03c0,0,0-.02,0-.03m-.84,.62h0Z"/>
          <path class="cls-4" d="M23.12,23.06c0,.09,.1,.08,.17,.1,0,0-.01,0-.02,0,2.89,.5,5.73,1.66,8,3.54,0,0,0,0-.01-.01,.01,.01,.03,.03,.04,.04,0,0,0,0,0,0,2.33,2.16,.16,2.2-1.13,2.45,7.47-.25-4.16-6.84-7.05-6.11m8.91,4.44s0,.01,.01,.02c0,0,0-.01-.01-.02m.21,.39s0,.02,.01,.03c0,0,0-.02-.01-.03m-.31,1.06s0,0-.01,0c0,0,0,0,.01,0m-.62-2.24s-.02-.01-.03-.02c0,0,.02,.02,.03,.02"/>
          <path class="cls-4" d="M18.83,21.09s-.07,.03-.07,.07c2.51-.08,5.04-.07,7.52,.37h0c.33-.08,.4,.25,.37-.38h0c1.48,1.03,3.15,.9,4.7,1.73-.01,0-.02-.01-.03-.02,.09,.13,.02-.72,.04-.71,0,0-.07,.73-.07,.73h0c.39,.15,.7,.33,.97,.56h0c1.22,.91-.45,1.7-1.16,1.7h0c-3.15,.08-.03,.87,1.29,.08,1.86-4.91-9.86-4.2-13.19-4.09m11.95,3.95s-.01,0-.02,0c0,0,.01,0,.02,0"/>
          <path class="cls-4" d="M24.12,30.87c.89,.59,3.63,3.01,1.28,3.27h.04c-.56-.02-1.12-.16-1.66-.33,.01,0,.02,0,.03,0-1.33-.41-2.59-1.05-3.88-1.57,3.05,2.73,10.76,2.88,4.19-1.39m2.05,2.61s0,0-.01,0c0,0,0,0,.01,0"/>
          <path class="cls-4" d="M22.27,29.17c.09,.23,.46,.26,.67,.42,0,0,0,0,0,0,2.79,1.73,1.11-.08-.66-.42m.68,.43s0,0-.01,0c0,0,0,0,.01,0"/>
        </g>
        <g>
          <path class="cls-9" d="M65.75,21.26c6.87,1.92,15.69,8.99,17.63,15.7,0,0,0,0,0,0-.36,1.47-.92,2.89-1.64,4.23,0,0,0,0,0,0-.6,1.1-1.32,2.15-2.17,3.05,0,0,0,0,.01-.01-.58,.47-2.01,2.26-2.49,1.36-2.2-7.39-9.03-9.99-14.17-13.79-3.04,2.37-9.72,2.91-3.86-1.53-1.79,.49-8.63,2.72-6.21-1.15-3.69,.59-1.58-3.37,.72-3.87-9.81-2.24,9.24-5.71,12.17-3.97m17.64,15.85s0,0,0,.01c0,0,0,0,0-.01m-1.63,4.22s0,0,0,0c0,0,0,0,0,0"/>
          <path class="cls-4" d="M60.95,25.85c-1.54,.53-3.47,.72-5.02,1.56,0,0,0,0,0,0-.92,.45-1.77,1.03-2.56,1.69,.01,0,.02-.02,.03-.03-.77,.51-1.6,2.03-.1,2.09,0,0,0,0,0,0,.6,.05,1.2-.03,1.79-.13-.01,0-.03,0-.04,0,7.85-2.3,.69,1.61-2.74,.06-.42-3.6,5.9-4.76,8.64-5.23m-8.51,4.73s0,.02,0,.03c0,0,0-.02,0-.03m.84,.57h0Z"/>
          <path class="cls-4" d="M60.27,23.11c0,.09-.1,.08-.17,.09,0,0,.01,0,.02,0-2.89,.5-5.73,1.66-8,3.54,0,0,0,0,.01-.01-.01,.01-.03,.03-.04,.04,0,0,0,0,0,0-2.33,2.16-.16,2.2,1.13,2.45-7.47-.25,4.16-6.84,7.05-6.11m-8.91,4.44s0,.01-.01,.02c0,0,0-.01,.01-.02m-.21,.39s0,.02-.01,.03c0,0,0-.02,.01-.03m.31,1.06s0,0,.01,0c0,0,0,0-.01,0m.62-2.24s.02-.02,.03-.02c0,0-.02,.02-.03,.02"/>
          <path class="cls-4" d="M63.73,21.14s.07,.03,.07,.07c-2.51-.08-5.04-.07-7.52,.37v-.44h.47c0,.44,0,1,0,1h0c-1.14-.53-3.47,.18-4.7,.78,.01,0,.02-.01,.03-.02-.09,.13-.02-.78-.04-.76,0,0,.24,.79,.25,.79h0c-.56,.16-.87,.33-1.14,.56h0c-1.22,.9,.43,1.71,1.16,1.65h0c3.15,.08,.03,.87-1.29,.08-1.86-4.91,9.86-4.2,13.19-4.09m-11.95,4.01s.01,0,.02,0c0,0-.01,0-.02,0"/>
          <path class="cls-4" d="M59.44,30.87c-.89,.59-3.63,3.01-1.28,3.27h-.04c.56-.02,1.12-.16,1.66-.33-.01,0-.02,0-.03,0,1.33-.41,2.59-1.05,3.88-1.57-3.05,2.73-10.76,2.88-4.19-1.39m-2.22,2.66s0,0,.01,0c0,0,0,0-.01,0"/>
          <path class="cls-4" d="M61.12,29.22c-.09,.23-.46,.26-.67,.42,0,0,0,0,0,0-2.79,1.73-1.11-.08,.66-.42m-.68,.43s0,0,.01,0c0,0,0,0-.01,0"/>
        </g>
      </g>
    </g>
  </g>
</svg>