<?xml version="1.0" encoding="UTF-8"?> <svg xmlns="http://www.w3.org/2000/svg" width="1063" height="631" viewBox="0 0 1063 631"><g fill="#FFF" fill-rule="evenodd" transform="translate(9 31)"><path d="M511.5 0c120.3 0 188.8 80.6 267.9 159.9 72.6 72.8 72.6 175 72.6 181 0 81.5-40.1 161.9-94.3 214.6-96.3 93.8-96.3 111.8-246.2 126.3-117.4 11.3-234-56.5-295.2-147.8C180 479.8 171 411 171 341c0-85.7 53.4-174.8 105.6-234.7C339 34.6 409.1 0 511.5 0zm238.2 589.1l8 8A79 79 0 0 1 721 618c-1 .3-2.8-3.2-2-3.8l4-3 1.3-.8-3 .3c-1 0-2-3.5-1.1-3.9a135 135 0 0 0 29.5-17.7zm-564.8-347a229.8 229.8 0 0 0-29.8 93.2c-3.3 32.4-.6 65.2 7 97 7.6 31.9 20 62.7 35.2 92.3a703 703 0 0 0 53.2 85.5c3 4.3 0 6.5-3.5 2.3a591.5 591.5 0 0 1-58.2-83.9c-16.6-29.6-30-61-37.9-93.9-8-32.8-10.1-67-5.5-100.4a220 220 0 0 1 35.7-94.3c3.2-4.7 6.4-2.4 3.8 2.1zm564.2 347.5a265 265 0 0 1-24.7 20.7l-.1.1h.7a71.1 71.1 0 0 0 31.5-12.4l.6-.4-8-8zm.3-496c20.9 11.4 38.9 27 54.6 44a419 419 0 0 1 42.8 54 154.4 154.4 0 0 1 23.2 64.1 382 382 0 0 1 2.7 66.6c0 3.4-4 3.6-4.3.1-1.7-22-3.4-44-7.9-65.3a171.6 171.6 0 0 0-23.7-60.1 604.1 604.1 0 0 0-40.4-53.7A255 255 0 0 0 746.9 97c-3.1-2.2-.8-5.3 2.5-3.4zM239.2 114c-30.6 26.6-59.4 53.5-89.3 80.7-1.3 1.2-4.3-1.3-3.4-2.6a260 260 0 0 1 90.1-81.3c1.4-.8 3.8 2.1 2.6 3.2z"></path><path d="M154.7 573.6c19-1.1 77.9-7.2 39.5-77.7-25.5-47-25.5-117.5 0-211.4l635.5 165c-32.7 58.1-30.1 87.2 7.8 87.2 56.8 0 112-63.8 175-13.5 63 50.4-29.6 80.4-99.4 76.8-46.5-2.4-110.1 2.5-190.8 14.7l-280.8-11.1c-282.8 0-429.5-10-440.1-30-16-30 134.3 1 153.3 0z"></path></g></svg> 