<?xml version="1.0" encoding="utf-8"?>
<!-- Generator: Adobe Illustrator 26.5.0, SVG Export Plug-In . SVG Version: 6.00 Build 0)  -->
<svg version="1.1" id="Layer_1" xmlns="http://www.w3.org/2000/svg" xmlns:xlink="http://www.w3.org/1999/xlink" x="0px" y="0px"
	 viewBox="0 0 1352 1041" style="enable-background:new 0 0 1352 1041;" xml:space="preserve">
<style type="text/css">
	.st0{opacity:0.2002;}
	.st1{fill-rule:evenodd;clip-rule:evenodd;fill:#94D5EB;}
</style>
<g id="Cut" class="st0">
	<path id="slider2-bg-splash" class="st1" d="M1121.5,985l14.5,15.4c-18,19.3-41.5,33.8-66.9,40.6c-2,0.6-5.2-6.2-3.7-7.3
		c3-2.2,5.9-4.5,8.8-6.7l0.9-0.7l-0.9,0.1c-1.5,0.2-2.9,0.3-4.4,0.5c-1.9,0.2-3.9-6.8-2.2-7.6
		C1087.7,1009.9,1105.4,998.2,1121.5,985z M77.9,295.4C46.4,352.5,28.7,416,22.6,480.2c-6.2,64.3-1.3,129.4,12.9,192.4
		c14.2,63.1,37.1,124.3,65.5,182.9c28.4,58.7,62.2,114.9,98.7,169.5c5.6,8.5-0.1,12.9-6.5,4.5C153.1,977.1,116.1,922,85.2,863.2
		c-30.9-58.7-55.7-121.1-70.5-186.1C0,612-4.1,544.3,4.4,478.1c8.5-66.1,30.2-131,66.4-186.9C76.7,281.8,82.7,286.3,77.9,295.4z
		 M1120.4,985.9c-13.9,13.9-28.5,27-44.5,39.7l-0.9,0.7c21.2-2.8,42-11.2,59.3-24.4l0.7-0.6L1120.4,985.9z M1235,824.9
		c-3.3,45-15.2,87.5-34.8,127.6c-0.8,1.5-7.3-0.4-7.2-2.2c4.4-44.7,14.7-87.7,34.5-127.6C1228.4,820.9,1235.1,823.1,1235,824.9z
		 M1122.4,1.1c38.8,22.6,72.2,53.5,101.5,87c14.7,16.7,28.5,34.2,41.7,51.9c13.2,17.7,26.2,35.8,37.7,55.1
		c11.6,19.3,21.2,40.1,28.2,61.5c7.1,21.4,11.8,43.3,14.9,65.3c6.2,44.1,6,88.1,5.1,131.7c-0.2,6.8-7.5,7.2-8,0.2
		c-3.3-43.5-6.4-87-14.7-129.2c-8.2-42.2-21.7-82.7-44.1-119c-11-18.3-23.5-36.1-36.1-53.9c-12.6-17.8-25.5-35.3-39-52.3
		c-27-33.9-56.7-65.8-91.9-91.7C1111.9,3.5,1116.3-2.5,1122.4,1.1z M179.4,41.6C122.5,93.8,69.1,146.9,13.6,200.4
		c-2.3,2.2-8-2.6-6.3-5.2c41.9-65.7,100.2-120.9,167.4-160C177.2,33.7,181.6,39.5,179.4,41.6z"/>
</g>
</svg>
