<?xml version="1.0" encoding="utf-8"?>
<!-- Generator: Adobe Illustrator 26.5.0, SVG Export Plug-In . SVG Version: 6.00 Build 0)  -->
<svg version="1.1" id="Layer_1" xmlns="http://www.w3.org/2000/svg" xmlns:xlink="http://www.w3.org/1999/xlink" x="0px" y="0px"
	 viewBox="0 0 476 456" style="enable-background:new 0 0 476 456;" xml:space="preserve">
<style type="text/css">
	.st0{fill-rule:evenodd;clip-rule:evenodd;fill:#94D5EB;}
</style>
<g id="Home">
	<g id="Slider" transform="translate(-469.000000, -216.000000)">
		<g transform="translate(-48.000000, -60.000000)">
			<g id="pink" transform="translate(-213.000000, -816.000000)">
				<g id="slider2-bg-text" transform="translate(730.000000, 1092.000000)">
					<path id="Oval-Copy-2" class="st0" d="M240.8,455.2c100.4-9.6,100.4-21.7,164.9-84.3c36.3-35.2,63.1-88.9,63.1-143.3
						c0-4,0-72.3-48.6-120.8C367.2,53.8,321.4,0,240.8,0C172.3,0,125.4,23.1,83.6,70.9c-34.9,40-70.7,99.4-70.7,156.7
						c0,46.8,6,92.8,30.3,128.9C84.1,417.5,162.2,462.7,240.8,455.2z"/>
					<path id="Combined-Shape" class="st0" d="M394.3,393.3l5.1,5.4c-6.3,6.9-14.5,12-23.5,14.4c-0.7,0.2-1.8-2.2-1.3-2.6
						c0.8-0.6,1.6-1.2,2.3-1.8l1-0.8l0,0c-0.6,0.1-1.2,0.1-1.8,0.2c-0.7,0.1-1.4-2.4-0.8-2.7C382.4,402.2,388.7,398,394.3,393.3z
						 M27.3,150.9c-11,20.1-17.2,42.4-19.4,65c-2.2,22.6-0.4,45.5,4.5,67.7c5,22.2,13,43.7,23,64.3c10,20.6,21.8,40.4,34.7,59.6
						c2,3,0,4.5-2.3,1.6c-14.1-18.4-27.1-37.8-37.9-58.5C19,330,10.3,308.1,5.2,285.2c-5.2-22.9-6.6-46.7-3.6-70
						c3-23.3,10.6-46.1,23.3-65.7C26.9,146.1,29,147.7,27.3,150.9z M393.9,393.7c-4.9,5-10.1,9.7-15.8,14.2L378,408l0.6-0.1
						c7.1-1,14.1-3.9,19.9-8.4l0.5-0.4L393.9,393.7z M434.2,337.3c-1.2,15.8-5.4,30.7-12.4,44.7c-0.3,0.5-2.6-0.2-2.5-0.8
						c1.6-15.7,5.2-30.7,12.3-44.7C431.9,335.9,434.3,336.6,434.2,337.3z M394.5,47.5c13.6,8,25.4,18.8,35.7,30.6
						c5.2,5.9,10,12,14.7,18.3c4.6,6.2,9.2,12.6,13.3,19.4c4.1,6.8,7.5,14.1,9.9,21.6c2.5,7.5,4.2,15.2,5.2,23
						c2.2,15.5,2.1,31,1.8,46.3c-0.1,2.4-2.6,2.5-2.8,0.1c-1.2-15.3-2.3-30.6-5.2-45.4c-2.9-14.8-7.6-29.1-15.5-41.8
						c-3.9-6.4-8.2-12.7-12.7-18.9c-4.4-6.3-9-12.4-13.7-18.4c-9.5-11.9-19.9-23.1-32.3-32.2C390.8,48.3,392.3,46.2,394.5,47.5z
						 M63.2,61.8c-20,18.4-38.8,37-58.4,55.8c-0.8,0.8-2.8-0.9-2.2-1.8c14.8-23.1,35.3-42.5,59-56.2C62.5,59.1,64,61.1,63.2,61.8z"
						/>
				</g>
			</g>
		</g>
	</g>
</g>
</svg>
