<?xml version="1.0" encoding="UTF-8"?>
<svg xmlns="http://www.w3.org/2000/svg" xmlns:xlink="http://www.w3.org/1999/xlink" viewBox="0 0 221.71 303.64">
  <defs>
    <style>
      .cls-1 {
        fill: url(#_69-2);
      }

      .cls-2 {
        fill: url(#_37-2);
      }

      .cls-2, .cls-3, .cls-4, .cls-5, .cls-6, .cls-7, .cls-8, .cls-9, .cls-10, .cls-11, .cls-12, .cls-13, .cls-14, .cls-15, .cls-16, .cls-17, .cls-18 {
        mix-blend-mode: multiply;
      }

      .cls-19 {
        fill: url(#_300);
      }

      .cls-20 {
        fill: #fff;
      }

      .cls-21 {
        fill: url(#_300-2);
      }

      .cls-3, .cls-4, .cls-5, .cls-6, .cls-7, .cls-9, .cls-10, .cls-11, .cls-12, .cls-15, .cls-16, .cls-17, .cls-18 {
        opacity: .6;
      }

      .cls-3, .cls-8, .cls-14 {
        fill: #d077b7;
      }

      .cls-22 {
        fill: url(#_21-3);
      }

      .cls-23 {
        fill: #4e1b3d;
      }

      .cls-24 {
        fill: url(#_56);
      }

      .cls-25 {
        fill: #ef7172;
      }

      .cls-4 {
        fill: url(#_5);
      }

      .cls-5 {
        fill: url(#_123-2);
      }

      .cls-6 {
        fill: url(#_123-5);
      }

      .cls-26 {
        fill: url(#_300-3);
      }

      .cls-27 {
        fill: #dc6b7c;
      }

      .cls-28 {
        fill: #fffbb7;
      }

      .cls-28, .cls-29 {
        mix-blend-mode: soft-light;
        opacity: .5;
      }

      .cls-7 {
        fill: url(#_12-3);
      }

      .cls-30 {
        fill: url(#_42);
      }

      .cls-31 {
        isolation: isolate;
      }

      .cls-32 {
        fill: #dd4c6b;
      }

      .cls-8 {
        opacity: .9;
      }

      .cls-9 {
        fill: url(#_12-4);
      }

      .cls-33 {
        fill: url(#_76);
      }

      .cls-34 {
        fill: url(#_100);
      }

      .cls-35 {
        fill: #832751;
      }

      .cls-36 {
        clip-path: url(#clippath-1);
      }

      .cls-10 {
        fill: url(#_123-6);
      }

      .cls-29 {
        fill: #ffd3df;
      }

      .cls-37 {
        fill: #e390b7;
      }

      .cls-38 {
        fill: url(#_28-2);
      }

      .cls-39 {
        fill: url(#_69);
      }

      .cls-11 {
        fill: url(#_123-4);
      }

      .cls-40 {
        fill: url(#_21);
      }

      .cls-12 {
        fill: url(#_12);
      }

      .cls-41 {
        fill: url(#_9);
      }

      .cls-42 {
        fill: #dc4c6a;
      }

      .cls-43 {
        clip-path: url(#clippath);
      }

      .cls-13 {
        fill: url(#_37);
      }

      .cls-44 {
        fill: url(#_100-2);
      }

      .cls-45 {
        fill: url(#_69-3);
      }

      .cls-14 {
        opacity: .8;
      }

      .cls-46 {
        fill: url(#_21-2);
      }

      .cls-47 {
        fill: #ffcebe;
      }

      .cls-48 {
        fill: url(#_28);
      }

      .cls-49 {
        fill: url(#_42-2);
      }

      .cls-15 {
        fill: url(#_12-2);
      }

      .cls-50 {
        fill: url(#_76-2);
      }

      .cls-16 {
        fill: url(#_12-5);
      }

      .cls-17 {
        fill: url(#_123);
      }

      .cls-51 {
        fill: url(#_307);
      }

      .cls-18 {
        fill: url(#_123-3);
      }
    </style>
    <linearGradient id="_9" data-name="  9" x1="109.31" y1="267.63" x2="109.31" y2="303.64" gradientUnits="userSpaceOnUse">
      <stop offset="0" stop-color="#9159d0"/>
      <stop offset="1" stop-color="#963773"/>
    </linearGradient>
    <linearGradient id="_12" data-name="  12" x1="36.62" y1="294.04" x2="56.62" y2="294.04" gradientUnits="userSpaceOnUse">
      <stop offset="0" stop-color="#705ab7"/>
      <stop offset=".2" stop-color="#8961c7"/>
      <stop offset=".55" stop-color="#af6dde"/>
      <stop offset=".82" stop-color="#c774ed"/>
      <stop offset=".99" stop-color="#d077f3"/>
    </linearGradient>
    <linearGradient id="_12-2" data-name="  12" x1="62.21" y1="287.01" x2="102.44" y2="287.01" xlink:href="#_12"/>
    <linearGradient id="_12-3" data-name="  12" x1="128.81" y1="284.41" x2="177.96" y2="284.41" xlink:href="#_12"/>
    <linearGradient id="_12-4" data-name="  12" x1="72.9" y1="277.66" x2="81.62" y2="277.66" xlink:href="#_12"/>
    <linearGradient id="_12-5" data-name="  12" x1="-6278.82" y1="278.03" x2="-6270.33" y2="278.03" gradientTransform="translate(-6129.67) rotate(-180) scale(1 -1)" xlink:href="#_12"/>
    <linearGradient id="_21" data-name="  21" x1="19.51" y1="186.71" x2="19.51" y2="131.82" gradientUnits="userSpaceOnUse">
      <stop offset="0" stop-color="#ffb29c"/>
      <stop offset=".22" stop-color="#ff9b8d"/>
      <stop offset=".48" stop-color="#ff8781"/>
      <stop offset=".74" stop-color="#ff7b79"/>
      <stop offset="1" stop-color="#f77"/>
    </linearGradient>
    <linearGradient id="_123" data-name="  123" x1="20.15" y1="176.08" x2="20.15" y2="139.99" gradientUnits="userSpaceOnUse">
      <stop offset="0" stop-color="#ffe9da"/>
      <stop offset=".99" stop-color="#d077f3"/>
    </linearGradient>
    <linearGradient id="_123-2" data-name="  123" x1="31.44" y1="174.03" x2="31.44" y2="158.53" xlink:href="#_123"/>
    <linearGradient id="_21-2" data-name="  21" x1="-6684.61" x2="-6684.61" y2="131.82" gradientTransform="translate(-6482.41) rotate(-180) scale(1 -1)" xlink:href="#_21"/>
    <linearGradient id="_123-3" data-name="  123" x1="-6683.98" x2="-6683.98" y2="139.99" gradientTransform="translate(-6482.41) rotate(-180) scale(1 -1)" xlink:href="#_123"/>
    <linearGradient id="_123-4" data-name="  123" x1="-6672.69" y1="174.03" x2="-6672.69" y2="158.53" gradientTransform="translate(-6482.41) rotate(-180) scale(1 -1)" xlink:href="#_123"/>
    <linearGradient id="_21-3" data-name="  21" x1="110.96" y1="282.38" x2="110.96" y2="228.98" xlink:href="#_21"/>
    <linearGradient id="_56" data-name="  56" x1="110.73" y1="239.8" x2="110.73" y2="41.86" gradientUnits="userSpaceOnUse">
      <stop offset="0" stop-color="#ffa995"/>
      <stop offset=".43" stop-color="#f8aa98"/>
      <stop offset=".54" stop-color="#faa28f"/>
      <stop offset=".77" stop-color="#fd9883"/>
      <stop offset="1" stop-color="#ff957f"/>
    </linearGradient>
    <linearGradient id="_5" data-name="  5" x1="110.73" y1="239.8" x2="110.73" y2="172.21" gradientUnits="userSpaceOnUse">
      <stop offset="0" stop-color="#d077f3"/>
      <stop offset=".16" stop-color="#d37ff1"/>
      <stop offset=".4" stop-color="#dd97eb"/>
      <stop offset=".7" stop-color="#ecbde3"/>
      <stop offset="1" stop-color="#ffe9da"/>
    </linearGradient>
    <linearGradient id="_300" data-name="  300" x1="67.06" y1="170.5" x2="67.06" y2="133.46" gradientUnits="userSpaceOnUse">
      <stop offset="0" stop-color="#ede1ff"/>
      <stop offset="1" stop-color="#bcc8fa"/>
    </linearGradient>
    <clipPath id="clippath">
      <path class="cls-19" d="M88.24,164.21s-9.82,8.25-22.7,5.85c-12.88-2.4-18.99-12.44-19.64-20.52s11.79-19.51,25.54-15.1,16.59,20.83,16.81,29.77Z"/>
    </clipPath>
    <linearGradient id="_28" data-name="  28" x1="70.09" y1="162.85" x2="70.09" y2="135.42" gradientTransform="translate(35.54 -12.1) rotate(13.2)" gradientUnits="userSpaceOnUse">
      <stop offset="0" stop-color="#a83749"/>
      <stop offset="1" stop-color="#751540"/>
    </linearGradient>
    <linearGradient id="_100" data-name="  100" x1="70.09" y1="161.54" x2="70.09" y2="150.4" gradientUnits="userSpaceOnUse">
      <stop offset="0" stop-color="#da6a4b"/>
      <stop offset="1" stop-color="#b53651"/>
    </linearGradient>
    <linearGradient id="_37" data-name="  37" x1="70.09" y1="156.2" x2="70.09" y2="138.98" gradientTransform="translate(62.17 -15.61) rotate(22.63)" gradientUnits="userSpaceOnUse">
      <stop offset="0" stop-color="#c9a6da"/>
      <stop offset=".99" stop-color="#8360b7"/>
    </linearGradient>
    <linearGradient id="_300-2" data-name="  300" x1="156.77" x2="156.77" xlink:href="#_300"/>
    <linearGradient id="_300-3" data-name="  300" x1="156.77" x2="156.77" xlink:href="#_300"/>
    <clipPath id="clippath-1">
      <path class="cls-26" d="M135.59,164.21s9.82,8.25,22.7,5.85c12.88-2.4,18.99-12.44,19.64-20.52s-11.79-19.51-25.54-15.1-16.59,20.83-16.81,29.77Z"/>
    </clipPath>
    <linearGradient id="_28-2" data-name="  28" x1="-6342.05" x2="-6342.05" y2="135.42" gradientTransform="translate(-1453.52 -5989.19) rotate(-106.01) scale(1 -1)" xlink:href="#_28"/>
    <linearGradient id="_100-2" data-name="  100" x1="-6342.05" x2="-6342.05" y2="150.4" gradientTransform="translate(-6188.31) rotate(-180) scale(1 -1)" xlink:href="#_100"/>
    <linearGradient id="_37-2" data-name="  37" x1="-6342.05" x2="-6342.05" y2="138.98" gradientTransform="translate(-6111.05 -850.28) rotate(-172.28) scale(1 -1)" xlink:href="#_37"/>
    <linearGradient id="_307" data-name="  307" x1="110.74" y1="188.59" x2="110.74" y2="165.66" gradientUnits="userSpaceOnUse">
      <stop offset="0" stop-color="#f87a7e"/>
      <stop offset=".06" stop-color="#f87b7e"/>
      <stop offset=".53" stop-color="#fd877e"/>
      <stop offset="1" stop-color="#ff8c7f"/>
    </linearGradient>
    <linearGradient id="_42" data-name="  42" x1="95.98" y1="187.01" x2="101.24" y2="187.01" gradientUnits="userSpaceOnUse">
      <stop offset="0" stop-color="#77254b"/>
      <stop offset="1" stop-color="#8d2542"/>
    </linearGradient>
    <linearGradient id="_42-2" data-name="  42" x1="-9589.68" x2="-9584.42" gradientTransform="translate(-9464.34) rotate(-180) scale(1 -1)" xlink:href="#_42"/>
    <linearGradient id="_123-5" data-name="  123" x1="97.23" y1="179.76" x2="97.23" y2="172.99" xlink:href="#_123"/>
    <linearGradient id="_123-6" data-name="  123" x1="-9598.23" y1="179.76" x2="-9598.23" y2="172.99" gradientTransform="translate(-9474.14) rotate(-180) scale(1 -1)" xlink:href="#_123"/>
    <linearGradient id="_76" data-name="  76" x1="71.52" y1="105.03" x2="71.52" y2="115.72" gradientUnits="userSpaceOnUse">
      <stop offset="0" stop-color="#5a365d"/>
      <stop offset="1" stop-color="#5f1945"/>
    </linearGradient>
    <linearGradient id="_76-2" data-name="  76" x1="-8527.94" y1="105.03" x2="-8527.94" y2="115.72" gradientTransform="translate(-8376.75) rotate(-180) scale(1 -1)" xlink:href="#_76"/>
    <linearGradient id="_69" data-name="  69" x1="84.73" y1="4.61" x2="78.29" y2="50.39" gradientUnits="userSpaceOnUse">
      <stop offset="0" stop-color="#471f4b"/>
      <stop offset="1" stop-color="#310a39"/>
    </linearGradient>
    <linearGradient id="_69-2" data-name="  69" x1="112.98" y1="25.01" x2="112.98" y2="146.61" xlink:href="#_69"/>
    <linearGradient id="_69-3" data-name="  69" x1="119.1" y1="25.01" x2="119.1" y2="146.61" xlink:href="#_69"/>
  </defs>
  <g class="cls-31">
    <g id="Layer_2" data-name="Layer 2">
      <g id="Avatar_face" data-name="Avatar face">
        <g>
          <g>
            <g>
              <path class="cls-41" d="M114.13,267.63c-38.67,0-50.07,6.11-51.93,9.17,0,0-1.16,6.33-3.49,8.51,0,0-3.49,3.71-6.98,3.93-3.49,.22-6.98-2.84-9.3-1.75-2.33,1.09-5.81,7.42-5.81,7.42l-18.38,8.73H200.37s-31.4-11.79-38.61-18.01c0,0-5.81-7.31-3.72-11.24,0,0-4.77-6.76-43.9-6.77Z"/>
              <path class="cls-12" d="M56.62,300.59s-13.96,.44-20.01-5.68c0,0,3.49-6.33,5.82-7.42,0,0,.93,10.04,14.19,13.1Z"/>
              <path class="cls-15" d="M62.21,276.8c6.28,12.01,26.98,20.3,40.24,20.3,0,0-24.19,1.31-31.4-4.37-7.21-5.68-8.84-15.93-8.84-15.93Z"/>
              <path class="cls-7" d="M177.96,294.43c-8.77-2.28-19.76-5.52-19.76-5.52-9.82,5.02-19.43,5.52-29.39,5.11,10.46-3.03,20.77-5.33,29.23-19.63-2.09,3.93,3.72,11.24,3.72,11.24,2.82,2.43,9.32,5.71,16.2,8.8Z"/>
              <path class="cls-9" d="M81.62,273.3s-5.59-.42-8,2.64c-2.41,3.06,2.03,6.1,2.03,6.1,0,0,4.68-1.54,5.97-8.74Z"/>
              <path class="cls-16" d="M140.66,274.4s5.36-1.51,7.77,1.54c2.41,3.06-2.03,6.1-2.03,6.1,0,0-4.45-.44-5.74-7.65Z"/>
            </g>
            <g>
              <path class="cls-40" d="M39.02,149.1s-2.95-9.5-17.68-15.39C6.61,127.82,1.04,136.66,.06,146.48c-.98,9.82,10.48,34.71,21.61,38.96,11.13,4.26,17.35-3.6,17.35-3.6v-32.74Z"/>
              <path class="cls-17" d="M39.02,166.1v9.98s-4.58-11.42-7.37-11.26c-2.78,.16-1.64,7.69-2.62,10.31-.98,2.62-4.91-.16-5.8-8.68-.88-8.51,4.98-8.42,4.98-8.42,0,0-6.49-15.21-14.51-10.79-8.02,4.42-3.39,24.67-3.39,24.67,0,0-11.04-19.22-8.73-26.3,2.31-7.08,9.17-7.58,20.3-.87,5.46,3.29,10.79,10.66,14.8,17.32,.84,1.39,1.62,2.76,2.34,4.04Z"/>
              <path class="cls-5" d="M39.02,165.19v6.8c-1.68-3.23-6.02-10.98-8.02-8.97-2.51,2.51-1.19,7.12-3.27,10.32-2.09,3.2-5.09-5.42-3.36-11.14,1.74-5.73,8.62-3.46,10.67-1.83,.49,.39,1.05,.98,1.65,1.69,.75,.9,1.56,1.99,2.34,3.13Z"/>
            </g>
            <g>
              <path class="cls-46" d="M182.69,149.1s2.95-9.5,17.68-15.39c14.73-5.89,20.3,2.95,21.28,12.77,.98,9.82-10.48,34.71-21.61,38.96-11.13,4.26-17.35-3.6-17.35-3.6v-32.74Z"/>
              <path class="cls-18" d="M182.69,166.1v9.98s4.58-11.42,7.37-11.26c2.78,.16,1.64,7.69,2.62,10.31,.98,2.62,4.91-.16,5.8-8.68,.88-8.51-4.98-8.42-4.98-8.42,0,0,6.49-15.21,14.51-10.79,8.02,4.42,3.39,24.67,3.39,24.67,0,0,11.04-19.22,8.73-26.3-2.31-7.08-9.17-7.58-20.3-.87-5.46,3.29-10.78,10.66-14.8,17.32-.84,1.39-1.62,2.76-2.34,4.04Z"/>
              <path class="cls-11" d="M182.69,165.19v6.8c1.68-3.23,6.02-10.98,8.02-8.97,2.51,2.51,1.19,7.12,3.27,10.32,2.09,3.2,5.09-5.42,3.36-11.14-1.74-5.73-8.62-3.46-10.67-1.83-.49,.39-1.05,.98-1.65,1.69-.75,.9-1.56,1.99-2.34,3.13Z"/>
            </g>
            <path class="cls-22" d="M140.06,270.5v-50.07l-29.11,3.48-29.11-3.48v50.07c0,8.69-6.21,11.54-6.21,11.54,0,0,5.88,8.43,35.31,8.43s35.31-8.43,35.31-8.43c0,0-6.21-2.85-6.21-11.54Z"/>
            <path class="cls-3" d="M140.06,220.43v38.86c-4.63,4.71-10.68,8.42-18.43,8.99-19.06,1.41-34.6-21.31-39.78-29.93v-17.93l29.11,3.48,29.1-3.48Z"/>
            <g>
              <path class="cls-24" d="M184.07,123.79c0-24.7,3.51-81.93-73.34-81.93S37.38,99.09,37.38,123.79s-7.53,63.62-.33,76.12c17.28,29.99,59.26,39.88,73.67,39.88s56.39-9.89,73.67-39.88c7.2-12.5-.33-50.31-.33-76.12Z"/>
              <path class="cls-4" d="M184.39,199.91c-17.28,29.99-59.26,39.89-73.67,39.89s-56.39-9.89-73.67-39.89c-2.5-4.34-3.22-20.37-3.11-27.71,.1,6.09,.94,21.07,3.11,24.83,17.28,29.99,59.26,39.88,73.67,39.88s56.39-9.89,73.67-39.88c2.17-3.76,3-18.75,3.11-24.83,.12,7.33-.61,23.36-3.11,27.71Z"/>
            </g>
          </g>
          <g>
            <g>
              <path class="cls-19" d="M88.24,164.21s-9.82,8.25-22.7,5.85c-12.88-2.4-18.99-12.44-19.64-20.52s11.79-19.51,25.54-15.1,16.59,20.83,16.81,29.77Z"/>
              <g class="cls-43">
                <circle class="cls-48" cx="70.09" cy="147.59" r="15.02" transform="translate(-31.84 19.9) rotate(-13.2)"/>
                <path class="cls-34" d="M70.09,161.41c-7.62,0-13.82-6.2-13.82-13.82s6.2-13.82,13.82-13.82,13.82,6.2,13.82,13.82-6.2,13.82-13.82,13.82Z"/>
                <circle class="cls-13" cx="70.09" cy="147.59" r="8.61" transform="translate(-51.39 38.32) rotate(-22.63)"/>
              </g>
            </g>
            <path class="cls-42" d="M48.02,142.61c-.17,.19,1.37-14.9,14.57-15.22,13.21-.33,20.95,15.67,20.95,15.67,0,0-16.48-21.78-35.52-.44Z"/>
            <path class="cls-3" d="M87.6,156.8s-6.67-10.99-18.94-13.35c-12.28-2.37-22.78,5.32-22.78,5.32,0,0,.02-13.61,19.67-14.33,19.64-.72,22.05,22.37,22.05,22.37Z"/>
            <path class="cls-23" d="M46.6,145.34s.31-4.57,5.41-9.12c9.06-8.08,32.85-6.85,35.59,20.58,0,0-4.87-27.59-28.68-20.31-7.6,2.32-12.32,8.84-12.32,8.84Z"/>
            <path class="cls-27" d="M46.96,154.53s3.41,11.16,18.59,15.52c0,0-13.93,1.04-18.59-15.52Z"/>
            <path class="cls-27" d="M87.89,159.08s1.55,3.37,1.55,6.6c0,1.27-3.1,1.8-6.2,1.69,0,0,3.15-1.95,4.24-3.47,1.09-1.53,.41-4.81,.41-4.81Z"/>
            <path class="cls-20" d="M52.77,148.67s2.18-1.96,8.29,0c0,0-2.73,1.86-8.29,0Z"/>
            <path class="cls-20" d="M63.87,147.79s-1.02,1.54,0,1.7c1.02,.16,2.39-.55,2.36-.85-.03-.3-2.05-1.45-2.36-.85Z"/>
          </g>
          <g>
            <g>
              <path class="cls-21" d="M135.59,164.21s9.82,8.25,22.7,5.85c12.88-2.4,18.99-12.44,19.64-20.52s-11.79-19.51-25.54-15.1-16.59,20.83-16.81,29.77Z"/>
              <g class="cls-36">
                <circle class="cls-38" cx="153.74" cy="147.59" r="15.02" transform="translate(-30.53 254.66) rotate(-73.99)"/>
                <path class="cls-44" d="M153.74,161.41c7.62,0,13.82-6.2,13.82-13.82s-6.2-13.82-13.82-13.82-13.82,6.2-13.82,13.82,6.2,13.82,13.82,13.82Z"/>
                <circle class="cls-2" cx="153.74" cy="147.59" r="8.61" transform="translate(-18.43 21.98) rotate(-7.72)"/>
              </g>
            </g>
            <path class="cls-42" d="M175.81,142.61c.17,.19-1.37-14.9-14.57-15.22-13.21-.33-20.95,15.67-20.95,15.67,0,0,16.48-21.78,35.52-.44Z"/>
            <path class="cls-3" d="M136.23,156.8s6.67-10.99,18.94-13.35c12.28-2.37,22.78,5.32,22.78,5.32,0,0-.02-13.61-19.67-14.33s-22.05,22.37-22.05,22.37Z"/>
            <path class="cls-23" d="M177.23,145.34s-.31-4.57-5.41-9.12c-9.06-8.08-32.85-6.85-35.59,20.58,0,0,4.87-27.59,28.68-20.31,7.6,2.32,12.32,8.84,12.32,8.84Z"/>
            <path class="cls-27" d="M176.87,154.53s-3.41,11.16-18.59,15.52c0,0,13.93,1.04,18.59-15.52Z"/>
            <path class="cls-27" d="M135.94,159.08s-1.55,3.37-1.55,6.6c0,1.27,3.1,1.8,6.2,1.69,0,0-3.14-1.95-4.24-3.47-1.09-1.53-.41-4.81-.41-4.81Z"/>
            <path class="cls-20" d="M171.06,148.67s-2.18-1.96-8.29,0c0,0,2.73,1.86,8.29,0Z"/>
            <path class="cls-20" d="M159.96,147.79s1.02,1.54,0,1.7-2.39-.55-2.36-.85c.03-.3,2.05-1.45,2.36-.85Z"/>
          </g>
          <g>
            <path class="cls-14" d="M89.98,209.6s9.67,14.3,20.54,14.3,21.08-14.3,21.08-14.3h-41.63Z"/>
            <path class="cls-25" d="M110.81,218.11c14.72-.02,27.93-15.02,27.93-15.02-23.22,.57-27.63,3.44-27.95,3.67-.32-.23-4.73-3.1-27.95-3.67,0,0,13.2,15,27.93,15.02h0s.01,0,.02,0,.02,0,.02,0Z"/>
            <path class="cls-32" d="M110.81,197.83s-14.34,1.06-25.3,5.03c0,0,8.22,.09,18.01,1.88,3.86,.7,10.19,.55,14.04-.16,9.54-1.75,17.62-1.7,17.62-1.7-10.96-3.97-24.38-5.06-24.38-5.06Z"/>
            <path class="cls-35" d="M77.5,201.16c.49,.43,1.13,.77,1.77,1.01,.65,.25,1.33,.41,2.01,.51,.69,.1,1.38,.13,2.09,.14l2.14,.04c2.85,.07,5.7,.2,8.55,.46,3.62,.32,9.34,1.37,13.01,2.1,2.21,.44,4.48,.41,6.68-.08,.11-.02,.22-.05,.33-.07,1.16-.26,2.32-.48,3.49-.68,2.33-.41,4.68-.72,7.03-.98,2.35-.25,4.7-.44,7.06-.57,1.18-.07,2.36-.1,3.54-.15l3.54-.07h-.02c.42-.05,.86-.12,1.29-.21,.43-.09,.85-.2,1.27-.33,.83-.26,1.64-.61,2.31-1.13l.24,.29c-.72,.59-1.56,.98-2.41,1.27-.43,.15-.86,.27-1.3,.38-.44,.11-.88,.2-1.33,.26h0s-.02,0-.02,0l-3.52,.17c-1.17,.09-2.34,.14-3.51,.25-2.34,.19-4.67,.44-7,.76-2.32,.32-4.64,.7-6.93,1.17-1.15,.24-2.29,.48-3.42,.77-.01,0-.02,0-.03,0-2.43,.6-4.96,.64-7.4,.1-3.72-.82-9.4-2-12.94-2.4-2.82-.33-5.65-.54-8.49-.69l-2.13-.1c-.71-.02-1.45-.08-2.16-.2-.72-.12-1.42-.32-2.1-.6-.68-.28-1.32-.63-1.88-1.16l.27-.26Z"/>
            <path class="cls-27" d="M81.75,197.74s-4.64,4.92-6.05,7.56c0,0-1.62-4.86,.13-5.9,1.74-1.04,5.93-1.66,5.93-1.66Z"/>
            <path class="cls-27" d="M139.99,198.97s5.28,3.49,5.66,6.33c0,0,.53-4.67-.82-5.9-1.35-1.23-4.84-.43-4.84-.43Z"/>
            <path class="cls-28" d="M130.28,210.6s-2.62-2.69-8.31-1.75c0,0-5.8,2.22-6.06,5.48,0,0,2.09,1.6,4.45,1.84,0,0,5.91-2.37,9.92-5.57Z"/>
            <path class="cls-37" d="M98.36,203.86s11.99-1.15,22.67,.18c0,0-7.11,1.99-10.51,1.95-3.39-.04-12.16-2.14-12.16-2.14Z"/>
          </g>
          <g>
            <path class="cls-51" d="M130.13,185.2c-.72,1.93-7.77,1.5-9.9,2.35-2.12,.85-3.82,3.38-9.5,3.38s-7.37-2.54-9.5-3.38c-2.12-.85-9.18-.42-9.9-2.35-1.48-3.95,.25-6.84,2.31-8.72h0c1-.92,2.08-1.6,2.91-2.05,.94-.51,1.8-1.15,2.58-1.87,2.75-2.55,6.02-3.83,8.38-4.47,2.1-.56,4.31-.56,6.41,0,2.36,.63,5.63,1.92,8.38,4.47,.78,.72,1.64,1.36,2.58,1.87,.87,.47,2,1.19,3.04,2.17,2.01,1.89,3.63,4.74,2.19,8.61Z"/>
            <path class="cls-3" d="M130.13,185.2c-.72,1.93-7.77,1.5-9.9,2.35-2.12,.85-3.82,3.38-9.5,3.38s-7.37-2.54-9.5-3.38c-2.12-.85-9.18-.42-9.9-2.35-1.48-3.95,.25-6.84,2.31-8.72-2.01,4.9-1.23,7.93,0,8,1.23,.07,5.18-1.13,8.49-.56s4.59,1.34,8.43,1.34,5.11-.78,8.43-1.34c3.31-.56,7.26,.63,8.49,.56,1.23-.07,2.01-3.1,0-8l.46,.12c2.01,1.89,3.63,4.74,2.19,8.61Z"/>
            <path class="cls-30" d="M95.98,186.81c2.83-1.09,5.26,.74,5.26,.74l-5.26-.74Z"/>
            <path class="cls-49" d="M125.34,186.81c-2.83-1.09-5.26,.74-5.26,.74l5.26-.74Z"/>
            <path class="cls-3" d="M91.75,185.73s-.04-1.02,1.91-1.25c1.94-.23,5.25-1.41,8.84-.35,3.59,1.06,6.36,1.28,8.59,1.12,2.23-.16,7.68-1.97,10.71-1.54,3.03,.43,4.47,.77,5.69,.77s2.35,.52,2.24,1.25-8.64,9.63-19,9.63-18.98-9.63-18.98-9.63Z"/>
            <path class="cls-6" d="M95.98,174.77c2.41,.1,1.47,4.53,1.47,4.53,0,0,1.91-3.46,.53-5.77l-2,1.24Z"/>
            <path class="cls-10" d="M125.34,174.77c-2.41,.1-1.47,4.53-1.47,4.53,0,0-1.91-3.46-.53-5.77l2,1.24Z"/>
            <path class="cls-47" d="M114.97,179.3c-.9,1.29-.21,2.08,0,2.5,.21,.42,2.75,.42,2.96,0,.21-.42,.21-2.46,0-2.5-.21-.04-2.59-.52-2.96,0Z"/>
          </g>
          <g>
            <g>
              <path class="cls-33" d="M94.49,115.04s-3.47-1.5-11.85-1.79h0c-2.49-.09-5.41-.06-8.79,.14-14.82,.87-25.27,3.57-25.27,3.57,.09-.26,4.17-6.71,9.41-9.58-.04,.07-.69,1.17-.6,2.35,0,0,6-4.58,14.31-6.44,1.55-.35,3.18-.6,4.86-.71,10.72-.7,15.77,7.19,15.77,7.19,0,0-.26-2.05-1.4-3.27,0,0,3.49,2.27,3.57,8.54Z"/>
              <path class="cls-3" d="M82.63,113.25c-2.49-.09-5.41-.06-8.79,.14-14.82,.87-25.27,3.57-25.27,3.57,.09-.26,4.17-6.71,9.41-9.58-.04,.07-.69,1.17-.6,2.35,0,0,6-4.58,14.31-6.44-2.94,1.45-9.31,4.74-13,9.75,0,0,8.01-2.8,23.96,.21Z"/>
            </g>
            <g>
              <path class="cls-50" d="M128.23,115.04s3.47-1.5,11.85-1.79h0c2.49-.09,5.41-.06,8.79,.14,14.82,.87,25.27,3.57,25.27,3.57-.09-.26-4.17-6.71-9.41-9.58,.04,.07,.69,1.17,.6,2.35,0,0-6-4.58-14.31-6.44-1.55-.35-3.18-.6-4.86-.71-10.72-.7-15.77,7.19-15.77,7.19,0,0,.26-2.05,1.4-3.27,0,0-3.49,2.27-3.57,8.54Z"/>
              <path class="cls-3" d="M140.09,113.25c2.49-.09,5.41-.06,8.79,.14,14.82,.87,25.27,3.57,25.27,3.57-.09-.26-4.17-6.71-9.41-9.58,.04,.07,.69,1.17,.6,2.35,0,0-6-4.58-14.31-6.44,2.94,1.45,9.31,4.74,13,9.75,0,0-8.01-2.8-23.96,.21Z"/>
            </g>
          </g>
          <g>
            <path class="cls-39" d="M101.16,33.87s3.09-17.04-3.89-25.53C90.51,.1,77.88-2.14,70.09,2.1c-9.56,5.2-6.86,16.65-6.86,16.65,0,0,5.19-4.6,19.34-4.53,12.08,.06,15.54,10.57,8.91,20.56l9.68-.9Z"/>
            <path class="cls-1" d="M209,74.53c-8.6,25.81-12.17,60.78-12.17,60.78-4.55,4.85-11.12,16.38-11.12,16.38-4.7-9.84-15.14-68.98-15.14-68.98-4.03-6.1-29.84-29.83-63.14-29.83s-48.01,18.32-48.01,18.32c-6.11,12.49-10.82,48.56-10.82,48.56-3.89-1.94-6.39-7.49-6.39-7.49-1.11,13.05-6,33.84-6,33.84-4.06-3.34-8.23-9.07-8.23-9.07,1.28-18-11.01-71.11-11.01-71.11,2.77-9.99,49.67-36.63,61.05-40.8,4.61-1.69,8.91-1.37,12.39-.4,5.1,1.43,8.43,4.28,8.43,4.28,6.34-6.54,25.53-6,46.64-2.47,7.5,1.25,15.24,2.87,22.74,4.7,28.59,6.94,36.63,23.87,36.63,23.87-4.8,.52-14.99-4.07-15.77-4.42,12.45,6.48,17.76,17.93,19.37,22.19,.39,1.05,.57,1.66,.57,1.66Z"/>
            <path class="cls-8" d="M209,74.53c-1.81,5.42-3.39,11.24-4.76,17.06,0,0,0,0,0,.02-5.17,21.89-7.4,43.7-7.4,43.7-4.55,4.85-11.12,16.38-11.12,16.38-2.93-6.13-8.08-31.35-11.55-49.53-2.11-11.02-3.59-19.45-3.59-19.45-4.03-6.1-29.84-29.83-63.14-29.83s-48.01,18.32-48.01,18.32c-2.01,4.1-3.85,10.72-5.44,17.78,0,0,0,0,0,.02-3.25,14.48-5.38,30.76-5.38,30.76-3.89-1.94-6.39-7.49-6.39-7.49-1.11,13.05-6,33.84-6,33.84-4.06-3.34-8.23-9.07-8.23-9.07,.68-9.62-2.51-29.25-5.63-45.45-2.72-14.13-5.39-25.66-5.39-25.66,11.93-5,18.59-3.33,18.59-3.33,0,0-6.94,7.1-9.3,11.46,0,0,12.36,1.47,18.74,0,0,0,4.67-12.99,10.51-20.76,7.44-9.89,14.59-12.63,37.19-11.43l6.13-12.85c6.34-6.54,25.53-6,46.64-2.47,16.36,10.74,30.01,18.4,42.04,69.36,0,0,8.91-13.6,10.35-19.15,0,0-1.9-7.49-2.46-11.94,0,0,8.02,1.96,13.03,8.06,.39,1.05,.57,1.66,.57,1.66Z"/>
            <path class="cls-45" d="M172.31,37.28h0c-4.61-10.55-10.03-20.34-14.64-23.25-10.55-6.66-35.52-7.49-44.68-3.33-6.24,2.84-14.47,18.68-19.07,28.48l-.12,.25c-1.76,3.74-2.96,6.55-3.3,7.35l-.06,.13-.04,.1,.08,.05s0,0-.01,0c-.05-.03-.1-.05-.15-.07,0,0-.02,0-.02,0-5.39-2.36-12.21-4.1-18.93-2.42-14.43,3.6-15.26,16.93-15.82,19.71-.56,2.77,6.94,33.85,14.43,39.96,0,0,.17-.76,.45-2.06,1.42-6.41,5.76-25.94,7.7-31.8,3.51-10.57,22.61-17.23,22.61-17.23,22.8-2.2,36.12,21.83,38.9,28.25,.54,1.27,.64,3.19,.43,5.48-.79,9.17-6.36,24.09-6.53,24.56h0c.82-.17,27.02-5.9,34.39-11.09,7.49-5.27,14.53-26.08,14.75-31.64,.13-3.12-4.45-17.89-10.37-31.42Z"/>
            <path class="cls-8" d="M118.81,14.58s29.14,7.91,38.3,37.88c9.16,29.97-15.28,51.96-23.59,58.97,0,0,15.97-24.93,16.65-46.9,.56-17.83-11.79-39.96-31.36-49.95Z"/>
            <path class="cls-8" d="M140.07,86.87h0c.21-2.29,.11-4.21-.43-5.48-.58-1.35-1.63-3.48-3.14-5.98-5.49-9.12-17.05-23.15-34.19-22.38-.52,.03-1.04,.06-1.57,.11,0,0-19.11,6.66-22.61,17.23-1.94,5.85-6.29,25.38-7.7,31.8,0,0-1.56-32.63,2.19-46.36,3.55-13.02,16.35-9.25,17.68-8.82,0,0,.02,0,.02,0,.06,.02,.08,.03,.08,.03l.04-.1,3.36-7.48,.12-.25c13.25-12.52,33.31-1.7,42.64,13.7,9.32,15.4,3.52,33.98,3.52,33.98Z"/>
            <path class="cls-8" d="M182.69,68.7c-.22,5.55-7.26,26.37-14.75,31.64-7.38,5.19-33.58,10.91-34.39,11.09,.63-.47,20.95-15.47,30.23-32.74,7.02-13.05,8.51-40.77,8.54-41.41,5.92,13.53,10.51,28.3,10.37,31.42Z"/>
            <path class="cls-8" d="M136.49,75.41c-5.49-9.12-17.05-23.15-34.19-22.38,0,0-9.44-10.81,3.68-11.16,13.11-.37,27.57,17.69,30.51,33.54Z"/>
            <path class="cls-8" d="M53.98,89c-3.25,14.48-5.38,30.76-5.38,30.76-3.89-1.94-6.39-7.49-6.39-7.49-1.11,13.05-6,33.84-6,33.84-4.06-3.34-8.23-9.07-8.23-9.07,.68-9.62-2.51-29.25-5.63-45.45,0,0,15.14,13.19,19.59,13.47,4.35,.27,11.76-15.48,12.04-16.06Z"/>
            <path class="cls-8" d="M204.23,91.6c-5.17,21.89-7.4,43.7-7.4,43.7-4.55,4.85-11.12,16.38-11.12,16.38-2.93-6.13-8.08-31.35-11.55-49.53,6.54,13.16,14.31,16.22,18.47,15.1,4.1-1.09,11.37-24.91,11.6-25.66Z"/>
            <path class="cls-29" d="M144.41,11.25s10.41,.73,18.21,11.76c3.02,4.27,5.2,11.76,5.2,11.76,0,0-4.79,5.31-13.01,5.72,0,0-8.01-12.7-17.28-18.11,0,0,2.5-6.42,6.87-11.14Z"/>
            <path class="cls-29" d="M124.22,21.77c-.6-.16-6.82,4.11-10.51,10.41,0,0,16.34,6.66,24.66,19.98,0,0,6.66-2.12,6.04-7.28,0,0-9.05-20.09-20.19-23.1Z"/>
            <path class="cls-29" d="M72.71,51.22s-3.33,8.57-3.65,18.51c0,0-7.21,1.2-11.85-2.5,0,0-1.6-7.48,6.24-17.88,0,0,5.82-.52,9.26,1.87Z"/>
            <path class="cls-29" d="M52.89,49.3s-8.84,5.12-15.03,17.17c0,0,5.87-.14,8.17-1.1,0,0,.86-5.24,9.03-14.59,0,0-.47-1.28-2.18-1.48Z"/>
          </g>
        </g>
      </g>
    </g>
  </g>
</svg>