<?xml version="1.0" encoding="UTF-8"?>
<svg xmlns="http://www.w3.org/2000/svg" xmlns:xlink="http://www.w3.org/1999/xlink" viewBox="0 0 130 150">
  <defs>
    <style>
      .cls-1 {
        fill: #ed9a91;
      }

      .cls-2 {
        isolation: isolate;
      }

      .cls-3 {
        fill: #f5a39a;
      }

      .cls-4 {
        fill: #0a0a0a;
      }

      .cls-5 {
        fill: url(#radial-gradient-3);
      }

      .cls-5, .cls-6, .cls-7, .cls-8, .cls-9 {
        opacity: .2;
      }

      .cls-5, .cls-7, .cls-10, .cls-11 {
        mix-blend-mode: screen;
      }

      .cls-6, .cls-12, .cls-13, .cls-14, .cls-15, .cls-8, .cls-9 {
        mix-blend-mode: multiply;
      }

      .cls-6, .cls-13, .cls-16, .cls-17, .cls-15 {
        fill: #efc9ac;
      }

      .cls-18 {
        fill: #e8e1d7;
      }

      .cls-7 {
        fill: #fff;
      }

      .cls-19, .cls-10 {
        fill: #424242;
      }

      .cls-12, .cls-13 {
        opacity: .3;
      }

      .cls-14, .cls-20 {
        fill: #2e5592;
      }

      .cls-14, .cls-10, .cls-17, .cls-15, .cls-11 {
        opacity: .5;
      }

      .cls-21 {
        fill: #1c1a1b;
      }

      .cls-22 {
        fill: #d98980;
      }

      .cls-23 {
        fill: #f7b4ad;
      }

      .cls-24 {
        fill: #302e2f;
      }

      .cls-8 {
        fill: url(#radial-gradient-2);
      }

      .cls-9 {
        fill: url(#radial-gradient);
      }
    </style>
    <radialGradient id="radial-gradient" cx="79.34" cy="781.82" fx="79.34" fy="781.82" r="12.36" gradientTransform="translate(436.58 403.75) rotate(148.04) scale(.93 .58) skewX(2.8)" gradientUnits="userSpaceOnUse">
      <stop offset="0" stop-color="#ed9a91"/>
      <stop offset=".39" stop-color="#f5ccc7"/>
      <stop offset=".73" stop-color="#fcf0ef"/>
      <stop offset=".9" stop-color="#fff"/>
    </radialGradient>
    <radialGradient id="radial-gradient-2" cx="-157.51" cy="531.65" fx="-157.51" fy="531.65" r="12.36" gradientTransform="translate(.98 403.75) rotate(31.96) scale(.93 -.58) skewX(2.8)" xlink:href="#radial-gradient"/>
    <radialGradient id="radial-gradient-3" cx="-163.05" cy="500.64" fx="-163.05" fy="500.64" r="12.36" gradientTransform="translate(40.06 350.1) rotate(31.96) scale(.93 -.48) skewX(2.32)" gradientUnits="userSpaceOnUse">
      <stop offset="0" stop-color="#edc4b0"/>
      <stop offset="1" stop-color="#000"/>
    </radialGradient>
  </defs>
  <g class="cls-2">
    <g id="Layer_2" data-name="Layer 2">
      <g id="Layer_1-2" data-name="Layer 1">
        <g>
          <path class="cls-16" d="M113.25,131.55c-5.34-4.09-9.42-12.87-9.69-25.99l-21.06,1.36-21.06-1.36c-.28,13.12-4.35,21.9-9.69,25.99-5.34,4.09,1.56,18.62,30.75,18.45,29.19,.17,36.09-14.36,30.75-18.45Z"/>
          <path class="cls-6" d="M82.5,106.92l-21.06-1.36c-.07,3.11-.35,6.03-.81,8.76,4.29,6.15,13.46,10.97,26.9,11.61,11.77,.56,14.96,12.32,19.23,19.22,8.4-4.56,9.78-11.05,6.5-13.59,0,0,0,0-.01-.01-1.34-1.02-2.59-1.18-3.73-2.9-.38-.57-.74-1.19-1.09-1.83-.36-.66-.71-1.36-1.04-2.1-.37-.82-.72-1.69-1.04-2.59-.33-.92-.63-1.87-.9-2.87-1.1-3.99-1.79-8.61-1.9-13.7l-21.06,1.36Z"/>
          <path class="cls-16" d="M115.4,59.45c1.06-20-5.62-34-32.9-35.59V119.98c11.45,0,18.85-6.85,27.59-19.45,8.75-12.6,4.24-20.82,5.31-41.09Z"/>
          <path class="cls-16" d="M49.6,59.45c-1.06-20,5.62-34,32.9-35.59V119.98c-11.45,0-18.84-6.85-27.59-19.45-8.75-12.6-4.24-20.82-5.31-41.09Z"/>
          <path class="cls-16" d="M114.65,66.11c2.88-3.32,7.48-4.74,7.48,0s-2.07,6.72-2.25,12.02c-.18,5.3-2.07,12.25-5.23,10.2-3.16-2.06,0-22.21,0-22.21Z"/>
          <path class="cls-19" d="M68.39,72.02s-.32,.87-.94,2.38c-.31,.75-.7,1.67-1.22,2.69-.53,1.02-1.17,2.16-2.07,3.29-.89,1.14-2.05,2.23-3.47,3.17-1.41,.94-3.09,1.67-4.88,2.22-1.8,.54-3.73,.87-5.69,1.04-1.97,.16-3.98,.15-5.98,.04-4-.21-7.95-.73-11.69-.8-1.87-.04-3.68,.02-5.37,.24-1.69,.22-3.27,.57-4.68,1.03-2.83,.91-4.91,2.26-6.15,3.38-.32,.27-.58,.54-.8,.77-.23,.23-.41,.43-.55,.61-.28,.34-.43,.53-.43,.53,0,0,.15-.18,.42-.53,.13-.18,.31-.39,.54-.62,.22-.24,.48-.51,.8-.78,1.22-1.14,3.3-2.51,6.13-3.45,1.41-.47,2.99-.84,4.69-1.08,1.7-.24,3.52-.32,5.39-.29,3.75,.04,7.73,.51,11.71,.69,1.99,.09,3.98,.08,5.92-.09,1.94-.19,3.84-.53,5.59-1.08,1.75-.56,3.37-1.28,4.73-2.21,1.35-.92,2.48-1.99,3.32-3.09,.86-1.1,1.47-2.22,1.98-3.22,.5-1.01,.87-1.91,1.17-2.66,.59-1.5,.9-2.37,.9-2.37l.62,.2Z"/>
          <g>
            <g>
              <path class="cls-13" d="M94.06,69.28c-.75,.29-2.41-7.27,.37-8.1,4.79-1.43,8.57-1.78,12.26,.15,3.69,1.93,4.09,4.47,3.71,5.19-1.01,1.88-16.34,2.76-16.34,2.76Z"/>
              <path class="cls-13" d="M109.73,67.03s-.72-2.86-5.65-4.26c0,0,3.1,1.56,3.97,3.38,.87,1.83,1.68,.88,1.68,.88Z"/>
              <path class="cls-13" d="M94.23,69.41s.21-5.12,5.67-6.62c0,0-3.71,1.63-4.33,5.35l-1.35,1.28Z"/>
              <g>
                <path class="cls-18" d="M94.05,69.49c.18,.2,.9,.03,1.64,.16,.67,.12,3.49,1.32,7.06,.96,3.57-.36,6.58-3.16,6.58-3.16l.71-.38s-4.61-2.93-8-2.63c-3.39,.3-7.11,2.89-8,5.05Z"/>
                <path class="cls-15" d="M96.06,69.68c-.8-.35-1.04-.83-1.03-1.44l-.15-.05c-.37,.44-.65,.88-.83,1.3,.18,.2,.96,.07,1.64,.16,.1,.02,.26,.05,.46,.09-.02-.02-.05-.05-.09-.07Z"/>
                <path class="cls-20" d="M104.48,67.22c0,1.61-1.48,2.91-3.3,2.91s-3.3-1.3-3.3-2.91,1.48-2.91,3.3-2.91,3.3,1.3,3.3,2.91Z"/>
                <path class="cls-14" d="M104.48,67.22c0,1.61-1.48,2.91-3.3,2.91s-3.3-1.3-3.3-2.91c0-1.52,1.31-2.76,2.99-2.89-1.53,.14-2.73,1.28-2.73,2.67,0,1.48,1.37,2.68,3.05,2.68s3.05-1.21,3.05-2.68c0-1.39-1.2-2.53-2.73-2.67,1.68,.14,2.99,1.38,2.99,2.89Z"/>
                <path class="cls-4" d="M102.75,67.06c0,.77-.71,1.39-1.58,1.39s-1.58-.62-1.58-1.39,.71-1.39,1.58-1.39,1.58,.62,1.58,1.39Z"/>
                <path class="cls-18" d="M99.54,67.47c-.16,.21-.05,.53,.24,.71,.29,.18,.65,.16,.81-.05,.16-.21,.05-.53-.24-.71-.29-.18-.65-.16-.81,.05Z"/>
                <path class="cls-18" d="M101.37,65.67c-.24,.32-.07,.81,.37,1.09,.45,.28,1,.24,1.24-.08s.07-.81-.37-1.09c-.45-.28-1-.24-1.24,.08Z"/>
                <path class="cls-4" d="M94.05,69.49s3.21-4.07,6.89-4.13c3.68-.07,4.75,1.61,7.68,1.84,0,0-2.24,2.99-5.71,3.42,0,0,5.8-.74,8.23-4.51,0,0-2.17,.21-5.1-1.07-3.09-1.35-6.74-1.33-8.89,.39-2.25,1.8-3.11,4.07-3.11,4.07Z"/>
              </g>
            </g>
            <g>
              <path class="cls-13" d="M70.94,69.28c.75,.29,2.41-7.27-.37-8.1-4.79-1.43-8.57-1.78-12.26,.15-3.69,1.93-4.09,4.47-3.71,5.19,1.01,1.88,16.34,2.76,16.34,2.76Z"/>
              <path class="cls-13" d="M55.26,67.03s.72-2.86,5.65-4.26c0,0-3.1,1.56-3.97,3.38-.87,1.83-1.68,.88-1.68,.88Z"/>
              <path class="cls-13" d="M70.77,69.41s-.21-5.12-5.67-6.62c0,0,3.71,1.63,4.33,5.35l1.35,1.28Z"/>
              <g>
                <path class="cls-18" d="M70.95,69.49c-.18,.2-.9,.03-1.64,.16-.67,.12-3.49,1.32-7.06,.96-3.57-.36-6.58-3.16-6.58-3.16l-.71-.38s4.61-2.93,8-2.63c3.39,.3,7.11,2.89,8,5.05Z"/>
                <path class="cls-15" d="M68.93,69.68c.8-.35,1.04-.83,1.03-1.44l.15-.05c.37,.44,.65,.88,.83,1.3-.18,.2-.96,.07-1.64,.16-.1,.02-.26,.05-.46,.09,.02-.02,.05-.05,.09-.07Z"/>
                <path class="cls-20" d="M60.52,67.22c0,1.61,1.48,2.91,3.3,2.91s3.3-1.3,3.3-2.91-1.48-2.91-3.3-2.91-3.3,1.3-3.3,2.91Z"/>
                <path class="cls-14" d="M60.52,67.22c0,1.61,1.48,2.91,3.3,2.91s3.3-1.3,3.3-2.91c0-1.52-1.31-2.76-2.99-2.89,1.53,.14,2.73,1.28,2.73,2.67,0,1.48-1.37,2.68-3.05,2.68s-3.05-1.21-3.05-2.68c0-1.39,1.2-2.53,2.73-2.67-1.68,.14-2.99,1.38-2.99,2.89Z"/>
                <path class="cls-4" d="M62.24,67.06c0,.77,.71,1.39,1.58,1.39s1.58-.62,1.58-1.39-.71-1.39-1.58-1.39-1.58,.62-1.58,1.39Z"/>
                <path class="cls-18" d="M61.98,67.47c-.16,.21-.05,.53,.24,.71,.29,.18,.65,.16,.81-.05,.16-.21,.05-.53-.24-.71-.29-.18-.65-.16-.81,.05Z"/>
                <path class="cls-18" d="M63.81,65.67c-.24,.32-.07,.81,.37,1.09,.45,.28,1,.24,1.24-.08s.07-.81-.37-1.09c-.45-.28-1-.24-1.24,.08Z"/>
                <path class="cls-4" d="M70.95,69.49s-3.21-4.07-6.89-4.13c-3.68-.07-4.75,1.61-7.68,1.84,0,0,2.24,2.99,5.71,3.42,0,0-5.8-.74-8.23-4.51,0,0,2.17,.21,5.1-1.07,3.09-1.35,6.74-1.33,8.89,.39,2.25,1.8,3.11,4.07,3.11,4.07Z"/>
              </g>
            </g>
            <path class="cls-15" d="M77.08,83.09s-.09,.13-.26,.33c-.16,.21-.43,.48-.74,.82-.6,.68-1.49,1.59-1.93,2.83-.09,.31-.16,.64-.15,.98,0,.09,0,.15,.02,.26l.05,.21c.03,.14,.1,.32,.16,.46,.28,.57,.73,.96,1.13,1.22,.4,.26,.79,.39,1.05,.48,.27,.08,.42,.1,.42,.1,0,0-.14-.07-.38-.2-.24-.13-.55-.35-.9-.63-.35-.28-.66-.69-.86-1.16-.03-.12-.08-.21-.1-.36l-.03-.22s0-.12,0-.18c-.01-.26,.06-.53,.14-.79,.38-1.06,1.14-2.04,1.64-2.81,.26-.38,.45-.72,.57-.96,.12-.24,.16-.39,.16-.39Z"/>
            <path class="cls-15" d="M88.43,83.59s.39,.45,.92,1.13c.51,.68,1.21,1.65,1.36,2.7,.04,.26,.04,.52-.01,.76-.03,.21-.16,.53-.25,.71-.24,.44-.55,.83-.87,1.12-.63,.59-1.15,.9-1.15,.9,0,0,.6-.14,1.36-.65,.37-.27,.79-.62,1.11-1.12,.16-.3,.28-.48,.36-.84,.07-.31,.08-.64,.04-.95-.2-1.28-1.07-2.21-1.7-2.83-.66-.62-1.17-.93-1.17-.93Z"/>
            <path class="cls-15" d="M77.3,66.52s.11,.21,.3,.57c.19,.36,.42,.89,.65,1.56,.2,.67,.43,1.45,.56,2.31,.15,.86,.22,1.78,.26,2.71,0,.92,0,1.85-.09,2.71-.06,.86-.21,1.66-.32,2.34-.25,1.36-.55,2.24-.55,2.24,0,0,.09-.92,.19-2.28,.09-1.36,.17-3.18,.13-4.99-.03-.9-.08-1.81-.18-2.65-.07-.42-.08-.83-.16-1.21-.07-.38-.12-.75-.2-1.08-.16-.66-.27-1.22-.42-1.6-.11-.39-.18-.61-.18-.61Z"/>
            <path class="cls-15" d="M87.59,67.68s-.09,.2-.25,.54c-.16,.34-.35,.85-.53,1.48-.15,.63-.32,1.37-.39,2.17-.08,.8-.08,1.66-.05,2.52,.06,.85,.15,1.71,.3,2.5,.13,.79,.34,1.52,.5,2.14,.35,1.24,.72,2.03,.72,2.03,0,0-.16-.84-.36-2.09-.2-1.25-.41-2.93-.51-4.6-.04-.84-.05-1.68-.03-2.46,.03-.39,.02-.77,.06-1.13,.04-.36,.06-.7,.11-1.01,.11-.62,.18-1.15,.29-1.51,.08-.37,.13-.57,.13-.57Z"/>
            <path class="cls-15" d="M86.41,88.6c.36-.57,1.16-.69,1.5-.32,.61,.65-.04,1.34-.99,1.42-.54,.05-.88,.05-1.17,.08,.39-.6,.51-.96,.66-1.19Z"/>
            <path class="cls-15" d="M78.17,87.81c.51,.15,.93,.59,1.09,1.13,.09,.3,.22,.54,.34,.73-.62-.29-1.44-.05-2.1-.42-.29-.16-.55-.73-.36-1.07,.15-.27,.57-.44,1.03-.37Z"/>
            <path d="M90.63,59l.26-.1c-.28,.55-.28,1.31-.22,1.91-.01-.57,.06-1.25,.23-1.65,.02-.05,.08-.11,.27-.17-.05,.23-.09,.49-.12,.72,.08-.32,.22-.61,.31-.78,.17-.08,.34-.14,.49-.19-.17,.3-.41,.83-.36,1.5,0,0,.29-1.12,.74-1.7,.08-.02,.19-.05,.28-.07-.03,0-.42,.61-.4,1.13,0,0,.28-.75,.53-1.04,2.89-.75,10.65-1.97,12.35-1.85,3.88,.27,8.6,3.13,8.61,3.47,.01,.34-5.41-1.08-8.37-.99-2.48,.08-13.64,3.61-14.37,2.61,0,0-.97-1.3-.22-2.81Z"/>
            <path class="cls-9" d="M96.2,85.61c-2.34-3.17,.11-8.45,5.48-11.8,5.37-3.35,11.62-3.49,13.96-.32,2.34,3.17-.11,8.45-5.48,11.8-5.37,3.35-11.62,3.49-13.96,.32Z"/>
            <path class="cls-8" d="M69.27,85.61c2.34-3.17-.11-8.45-5.48-11.8-5.37-3.35-11.62-3.49-13.96-.32-2.34,3.17,.11,8.45,5.48,11.8,5.37,3.35,11.62,3.49,13.96,.32Z"/>
            <g class="cls-12">
              <path class="cls-17" d="M79.49,89.4s.39,.18,.97,.34c.58,.17,1.37,.32,2.14,.32,.79-.01,1.6-.09,2.18-.23,.59-.13,.96-.33,.96-.33,0,0-.22,.37-.82,.66-.58,.3-1.44,.52-2.32,.52-.91,0-1.75-.31-2.3-.62-.56-.32-.81-.65-.81-.65Z"/>
            </g>
            <path class="cls-7" d="M84.06,85.88c-.08,.53-1.11,.84-2.29,.68-1.18-.16-2.07-.71-1.99-1.24,.08-.53,1.11-.84,2.29-.68,1.18,.16,2.07,.71,1.99,1.24Z"/>
            <g class="cls-12">
              <path class="cls-16" d="M81.23,86.67s.24,.03,.58,.03c.34,0,.8,0,1.22-.13,.43-.09,.8-.31,1.06-.51,.27-.19,.42-.37,.42-.37-.01,0-.07,.21-.29,.49-.11,.13-.26,.28-.45,.4-.19,.12-.42,.22-.66,.29-.48,.12-.98,.08-1.33,0-.35-.09-.56-.2-.56-.2Z"/>
            </g>
            <path d="M74.29,59l-.26-.1c.28,.55,.28,1.31,.22,1.91,.01-.57-.06-1.25-.23-1.65-.02-.05-.08-.11-.27-.17,.05,.23,.09,.49,.12,.72-.08-.32-.22-.61-.31-.78-.17-.08-.34-.14-.49-.19,.17,.3,.41,.83,.36,1.5,0,0-.29-1.12-.74-1.7-.08-.02-.19-.05-.28-.07,.03,0,.42,.61,.4,1.13,0,0-.28-.75-.53-1.04-2.89-.75-10.65-1.97-12.35-1.85-3.88,.27-8.6,3.13-8.61,3.47-.01,.34,5.41-1.08,8.37-.99,2.48,.08,13.64,3.61,14.37,2.61,0,0,.97-1.3,.22-2.81Z"/>
            <path class="cls-5" d="M64.04,83.3c1.94-2.63-.83-7.47-6.2-10.82-5.37-3.35-11.29-3.93-13.24-1.3-1.94,2.63,.83,7.47,6.2,10.82,5.37,3.35,11.29,3.93,13.23,1.3Z"/>
            <g>
              <g>
                <path class="cls-13" d="M73,101.37c1.06,1.34,2.33,4.37,4.93,5.06,2.6,.69,3.96,.44,5.46,.49s4.63,.88,9.34-5.54c0,0-7.58,.9-11.14-.06-3.57-.96-6.17,1.23-8.59,.06Z"/>
                <path class="cls-1" d="M70.75,98.85c1.3,1.64,2.87,5.37,6.06,6.22,3.19,.85,4.87,.55,6.71,.6,1.84,.05,5.69,1.08,11.48-6.81,0,0-9.31,1.1-13.69-.07-4.38-1.17-7.58,1.51-10.55,.07Z"/>
                <path class="cls-1" d="M87.04,97.05c-1.95-.28-2.54,.23-4.17,.23s-2.22-.5-4.17-.23c-1.95,.28-6.01,2.34-7.95,1.97,4.6,1.79,9.04,1.93,12.12,1.93s7.52-.14,12.12-1.93c-1.95,.37-6.01-1.7-7.95-1.97Z"/>
                <path class="cls-3" d="M71.88,99.52c1.44,.78,.78,2.03,3.27,3.07,2.5,1.04,4.86,1.13,7.16,.86,2.3-.28,2.63,.6,5.06,.13,2.43-.47,7.59-4.28,7.62-4.73,0,0-3.6,1.38-8.22,1.9-4.63,.52-10.94,.25-14.89-1.23Z"/>
                <path class="cls-22" d="M68.91,98.2s.43,.13,1.16,.43c.73,.29,1.76,.76,3.05,1.14,1.28,.39,2.82,.7,4.49,.82,1.67,.13,3.46-.04,5.23-.08,1.79-.1,3.56,.01,5.23-.21,1.66-.2,3.21-.49,4.51-.82,2.62-.64,4.24-1.46,4.24-1.46,0,0-1.58,.88-4.16,1.73-1.29,.42-2.82,.84-4.5,1.16-.84,.16-1.71,.32-2.59,.48-.9,.16-1.79,.24-2.71,.26-.91,0-1.82-.03-2.72-.14-.89-.1-1.77-.22-2.61-.36-1.69-.25-3.24-.67-4.51-1.15-1.27-.48-2.27-1.01-2.99-1.33-.71-.33-1.14-.48-1.14-.48Z"/>
                <path class="cls-23" d="M75.05,101.64c.52,.4,2.4,.61,2.16,.31s-3.2-1.1-2.16-.31Z"/>
                <path class="cls-23" d="M78.48,102.1c-.54-.29-1-.2-.67,.01s1.33,.35,.67-.01Z"/>
                <path class="cls-3" d="M77.31,97.76c-1.84,.72-2.96,1.28-2.08,1.47,.88,.18,4.51-.48,8.44-.38,3.93,.1,6.78-.08,4.36-1.06-2.03-.83-3.65,.28-6.02-.19-2.37-.47-3.69-.23-4.7,.16Z"/>
                <path class="cls-23" d="M78.88,97.61c-1.57,.15-3.16,1.13-1.8,1.01,1.37-.12,3.37-1.16,1.8-1.01Z"/>
              </g>
              <path class="cls-7" d="M81.17,109.67c-2.64,.7-2,2.24,2.92,1.38s.92-2.39-2.92-1.38Z"/>
            </g>
            <path class="cls-13" d="M115.42,74.61c-.72-2.36,2.94-8.11,3.85-7.02,.91,1.09-2.22,3.97-1.58,7.32,.64,3.35-.44,10.29-1.5,8.67-1.05-1.62-1.2-3.48-.45-4.79s1.47-3.51-.32-4.18Z"/>
            <path class="cls-13" d="M49.5,74.69c.72-2.36-2.94-8.11-3.85-7.02-.91,1.09,2.22,3.97,1.58,7.32s.44,10.29,1.5,8.67c1.05-1.62,1.2-3.48,.45-4.79-.75-1.31-1.47-3.51,.32-4.18Z"/>
          </g>
          <g>
            <path class="cls-21" d="M117.49,17.69s-.11-.25-.31-.71c-.22-.45-.53-1.12-1.01-1.93-.48-.81-1.12-1.78-1.96-2.82-.83-1.04-1.86-2.17-3.04-3.34-.6-.58-1.21-1.22-1.92-1.73-.72-.53-1.53-1.02-2.38-1.5-1.7-.95-3.58-1.84-5.6-2.57-1.01-.36-2.06-.68-3.15-.84-1.11-.18-2.23-.34-3.37-.47-2.27-.27-4.59-.46-6.92-.54-4.65-.15-9.33,.12-13.62,.86-4.3,.73-8.19,1.93-11.36,3.29-1.59,.67-2.99,1.39-4.2,2.08-1.22,.68-2.22,1.35-3.04,1.9-.81,.57-1.44,1.03-1.85,1.36-.42,.33-.64,.5-.64,.5,0,0,.22-.18,.63-.51,.41-.34,1.03-.8,1.83-1.38,.82-.56,1.82-1.24,3.03-1.93,1.21-.69,2.6-1.43,4.19-2.11,3.16-1.39,7.06-2.62,11.36-3.39,4.3-.78,9-1.09,13.67-.97,2.34,.06,4.67,.23,6.96,.49,1.14,.12,2.28,.28,3.39,.45,1.13,.16,2.22,.47,3.24,.83,2.06,.73,3.96,1.61,5.7,2.56,.87,.48,1.69,.97,2.45,1.51,.78,.55,1.38,1.18,1.99,1.76,1.21,1.17,2.26,2.3,3.12,3.36,.86,1.05,1.53,2.04,2.03,2.86,.51,.83,.83,1.51,1.07,1.98,.21,.46,.32,.71,.32,.71l-.6,.23Z"/>
            <path class="cls-21" d="M122.49,23.34s-.01-.06-.04-.18c-.03-.12-.07-.25-.15-.46-.15-.42-.42-1.04-.79-1.82-.37-.78-.85-1.72-1.42-2.79-.58-1.06-1.21-2.28-2.1-3.46-.89-1.19-2.04-2.37-3.36-3.51-1.33-1.14-2.84-2.23-4.48-3.26-1.65-1.02-3.39-2.03-5.32-2.75-1.92-.74-3.99-1.2-6.08-1.51-2.09-.3-4.22-.49-6.31-.63-2.09-.13-4.15-.2-6.15-.19-3.99,.03-7.71,.38-10.85,.95-1.57,.27-2.99,.61-4.24,.93-1.24,.34-2.32,.66-3.19,.97-.88,.29-1.55,.56-2.01,.75-.46,.18-.7,.28-.7,.28,0,0,.24-.1,.7-.28,.46-.19,1.12-.47,2-.76,.87-.32,1.94-.66,3.18-1,1.25-.34,2.66-.69,4.23-.97,3.13-.6,6.86-.98,10.86-1.05,2-.03,4.07,.02,6.17,.13,2.1,.12,4.22,.29,6.34,.57,2.12,.28,4.22,.74,6.19,1.47,1.98,.72,3.77,1.72,5.43,2.74,3.34,2.05,6.18,4.39,8.06,6.84,.94,1.22,1.58,2.46,2.17,3.52,.58,1.07,1.06,2.02,1.44,2.81,.38,.79,.66,1.42,.82,1.87,.08,.22,.15,.44,.17,.54,.03,.12,.04,.18,.04,.18l-.64,.11Z"/>
            <path class="cls-21" d="M123.22,23.64s0-.09,0-.27c0-.17,.03-.46,0-.78-.02-.62-.14-1.61-.47-2.83-.33-1.22-.88-2.68-1.73-4.27-.86-1.57-2-3.31-3.62-4.84-.42-.37-.85-.72-1.35-1.09-.49-.38-.99-.72-1.5-1.07-1.03-.7-2.15-1.38-3.32-2.03-2.36-1.28-4.98-2.44-7.81-3.35-1.41-.46-2.87-.87-4.37-1.2-1.5-.35-3.04-.61-4.6-.82-3.13-.42-6.33-.55-9.54-.42-6.42,.25-12.77,1.57-18.42,3.49-2.83,.96-5.48,2.1-7.85,3.4-2.37,1.3-4.45,2.78-6.17,4.34-1.71,1.56-3.06,3.19-4.07,4.74-1,1.55-1.69,3-2.12,4.23-.44,1.23-.64,2.24-.77,2.92-.1,.69-.15,1.06-.15,1.06,0,0,.05-.37,.13-1.06,.12-.69,.31-1.7,.73-2.94,.42-1.24,1.09-2.71,2.07-4.28,1-1.56,2.33-3.22,4.03-4.82,1.71-1.58,3.79-3.1,6.16-4.44,2.37-1.35,5.03-2.52,7.87-3.52,5.66-2,12.04-3.4,18.53-3.73,3.24-.17,6.52-.07,9.68,.31,1.59,.19,3.15,.44,4.68,.78,1.53,.32,3.03,.72,4.47,1.17,2.9,.89,5.59,2.04,8.03,3.33,1.22,.65,2.36,1.33,3.44,2.04,.54,.36,1.07,.71,1.55,1.08,.49,.34,1,.74,1.45,1.14,1.78,1.64,2.99,3.43,3.91,5.07,.91,1.65,1.51,3.18,1.88,4.47,.37,1.3,.52,2.34,.55,3.11,.03,.38,0,.62,0,.81,0,.18,0,.27,0,.27l-1.3-.03Z"/>
            <path class="cls-21" d="M122.01,27.32c1.66-5.87-10.79-24.73-32.71-25.59-21.92-.86-41.94,8.63-47.98,22.67-6.04,14.04-7.65,28.01-19.71,27.41,0,0,10.94,2,16.24-3.99,3.79-4.28,62.77-21.06,62.77-21.06l21.4,.56Z"/>
            <path d="M46.33,24.2c-1.87,3.05-4.09,5.92-6.6,8.56,.52-1.18,1.04-2.36,1.56-3.54-.37,.22-.67,.54-.88,.89,.56-1.38,1.24-2.73,2.06-4-.95,1.38-2.03,2.68-3.23,3.87,.87-2.27,1.98-4.62,2.73-6.96-.23,.45-.44,.91-.64,1.37-6.04,14.04-7.65,28.01-19.71,27.41,0,0,10.94,2,16.24-3.99,.31-.35,.98-.77,1.94-1.27,.33-.55,.64-1.1,.94-1.65,3.43-6.43,5.36-13.54,5.6-20.7Z"/>
            <path d="M118.65,17.55c-5.01-7.22-15.21-15.27-29.35-15.83-.48-.02-.96-.03-1.44-.04,.1,.01,.19,.03,.26,.05,1.27,.33,2.51,.88,3.64,1.51-2.58-.41-5.26-.24-7.75,.48,1.01,0,2.03,.25,2.89,.74-3.36,.44-6.71,.87-10.07,1.31,3.03-.3,6.11-.25,9.12,.14-1.32,.37-2.69,.59-4.07,.64,3.31-.03,6.64-.06,9.89,.52,2.58,.46,5.07,1.3,7.53,2.14,2.45,.84,4.91,1.7,7.22,2.83,4,1.96,7.75,4.79,12.13,5.51Z"/>
            <path d="M9.25,68.86s.49,.25,1.35,.7c.43,.22,.95,.49,1.57,.77,.61,.3,1.32,.58,2.08,.9,.79,.28-.93-.22,0,0,.46,.14,3.51,1.02,4.01,1.1,.49,.09,1,.19,1.52,.21,.52,.03,1.05,.12,1.59,.11,.54,0,1.08,0,1.63,0,1.09-.1,2.21-.15,3.3-.39,.54-.11,1.1-.17,1.63-.32,.53-.14,1.07-.28,1.59-.42,.53-.12,1.04-.3,1.54-.48,.5-.17,1-.35,1.49-.52,.97-.35,1.88-.78,2.75-1.14,.44-.18,.85-.38,1.25-.58,.4-.2,.78-.39,1.15-.57,.74-.37,1.42-.69,1.99-1.04,.58-.33,1.08-.62,1.5-.86,.83-.47,1.31-.74,1.31-.74l.7,1.01s-.49,.26-1.36,.71c-.43,.23-.96,.5-1.56,.82-.59,.33-1.3,.64-2.07,.99-.38,.17-.78,.36-1.19,.54-.41,.19-.84,.38-1.3,.55-.91,.34-1.84,.74-2.85,1.07-.51,.16-1.02,.32-1.55,.48-.52,.16-1.05,.33-1.6,.44-.55,.12-1.1,.25-1.65,.38-.55,.13-1.12,.18-1.68,.27-1.12,.2-2.27,.22-3.39,.28-.56-.02-1.12-.03-1.67-.05-.55,0-1.09-.11-1.62-.17-.53-.05-1.04-.16-1.54-.27-.5-.1-.99-.21-1.45-.36-.94-.25-1.78-.59-2.57-.89-.76-.34-1.46-.65-2.06-.97-.61-.3-1.11-.59-1.54-.82-.84-.47-1.33-.74-1.33-.74Z"/>
            <path class="cls-19" d="M124.14,46.61c-.22,0-.43-.03-.63-.1l.23-.56c.91,.31,2.28-.51,3.41-2.04,2.51-3.4,4.53-11.4-3.77-19.86l.49-.4c8.57,8.74,6.43,17.06,3.82,20.6-1.11,1.5-2.43,2.36-3.55,2.36Z"/>
            <path class="cls-16" d="M50.35,66.11c-2.88-3.32-7.48-4.74-7.48,0s2.07,6.72,2.25,12.02c.18,5.3,2.07,12.25,5.23,10.2,3.16-2.06,0-22.21,0-22.21Z"/>
            <path class="cls-21" d="M90.32,36.95c-13.47,3.84-18.43,11.3-26.3,24-7.25,11.7-16.37,17.08-28.55,17.1-12.18,.02-17.3,.63-29.06-6.13,0,0,13.39,7.03,23.51-1.66,10.12-8.7,16.87-32.68,32.43-41.99,15.56-9.31,36.13-4.57,40.37-3.19,4.24,1.38-12.41,11.88-12.41,11.88Z"/>
            <path class="cls-21" d="M68.68,51.63s-.19,.9-.6,2.47c-.2,.78-.46,1.74-.83,2.81-.38,1.07-.86,2.28-1.6,3.5-.72,1.24-1.73,2.45-3,3.55-1.27,1.1-2.83,2.02-4.53,2.78-1.71,.75-3.57,1.3-5.5,1.7-1.93,.39-3.92,.62-5.92,.74-3.99,.26-7.99,.22-11.71,.58-1.86,.18-3.65,.45-5.29,.87-1.65,.42-3.17,.95-4.5,1.57-2.68,1.24-4.56,2.82-5.63,4.08-.28,.31-.5,.6-.69,.86-.2,.25-.35,.48-.46,.67-.23,.37-.35,.57-.35,.57,0,0,.12-.2,.35-.58,.11-.19,.26-.42,.45-.67,.18-.26,.4-.56,.68-.87,1.06-1.27,2.93-2.88,5.6-4.15,1.33-.64,2.85-1.19,4.51-1.62,1.66-.44,3.45-.73,5.31-.93,3.73-.41,7.74-.4,11.7-.7,1.98-.15,3.96-.39,5.86-.79,1.9-.41,3.73-.98,5.39-1.73,1.66-.76,3.17-1.67,4.38-2.75,1.21-1.07,2.18-2.26,2.86-3.46,.7-1.19,1.15-2.37,1.52-3.43,.35-1.06,.6-2,.79-2.78,.38-1.56,.57-2.46,.57-2.46l.64,.12Z"/>
            <path class="cls-21" d="M63.87,60.66s-.2,.9-.6,2.47c-.2,.78-.46,1.74-.83,2.81-.38,1.07-.86,2.28-1.6,3.5-.72,1.23-1.73,2.45-3,3.55-1.27,1.1-2.83,2.02-4.53,2.78-1.71,.75-3.57,1.3-5.5,1.71-1.93,.39-3.93,.61-5.92,.74-3.99,.26-7.99,.22-11.71,.58-1.86,.18-3.65,.45-5.29,.87-1.65,.41-3.17,.95-4.5,1.57-2.67,1.24-4.56,2.82-5.63,4.08-.28,.31-.5,.6-.69,.86-.2,.25-.35,.48-.46,.67-.23,.37-.35,.57-.35,.57,0,0,.12-.2,.35-.58,.11-.19,.26-.42,.45-.68,.18-.26,.4-.56,.68-.87,1.06-1.27,2.93-2.88,5.6-4.14,1.33-.63,2.85-1.19,4.51-1.62,1.66-.44,3.45-.73,5.31-.93,3.73-.4,7.73-.4,11.7-.7,1.98-.14,3.96-.38,5.86-.79,1.9-.41,3.73-.98,5.39-1.73,1.66-.76,3.17-1.67,4.38-2.75,1.21-1.07,2.18-2.26,2.86-3.46,.7-1.19,1.15-2.37,1.52-3.43,.35-1.06,.6-2,.79-2.78,.38-1.56,.57-2.46,.57-2.46l.64,.12Z"/>
            <g>
              <path d="M35.36,64.01c.21-.3,.37-.56,.44-.74-.14,.23-.28,.48-.44,.74Z"/>
              <path d="M6.42,71.92c11.75,6.77,16.88,6.16,29.06,6.13,8.03-.01,14.72-2.36,20.43-7.3-4.38,3.19-9.73,5.26-15.29,5.81,.14-.64,.74-1.17,1.44-1.26-2.43,.3-4.86,.6-7.29,.9,.85-.73,1.7-1.47,2.55-2.2-1.13,.29-2.26,.58-3.39,.87-.04-.37-.07-.73-.11-1.1-.36,.54-1.48,.22-1.46-.41-.51,.25-1.03,.5-1.54,.74,.14-.3,.28-.6,.42-.9-.68,.54-1.52,.91-2.41,1.04,.25-.53,.7-.97,1.26-1.23-1.25,.68-2.66,1.13-4.11,1.28,2.6-.29,7.13-6.65,9.37-10.29-.27,.39-.63,.86-1.05,1.37-1.41,1.9-2.86,3.56-4.39,4.87-10.12,8.7-23.51,1.66-23.51,1.66Z"/>
            </g>
            <path d="M96.21,17.73c-6.64-.52-13.46,1.45-18.75,5.42,1.34-.75,2.88-1.15,4.42-1.15-1.24,.41-2.4,1.05-3.4,1.88,.68-.12,1.35-.24,2.02-.36-.8,.66-1.59,1.32-2.38,1.99,2.3-1.02,4.75-1.72,7.24-2.07-4.21,2.06-7.91,5.13-10.67,8.88,3.14-2.37,6.62-4.3,10.31-5.7-3.85,2.18-7.24,5.14-9.91,8.63,1.54-1.13,3.08-2.26,4.62-3.4-.56,.52-1.13,1.05-1.69,1.58,.55-.25,1.1-.5,1.65-.75-.44,.51-.88,1.03-1.31,1.54,.87-.24,1.65-.78,2.18-1.5-2.98,3.04-4.1,5.09-5.86,8.61,2.13-2.6,5.21-2.96,7.97-4.91-1.8,1.8-3.36,3.84-4.62,6.04,1.17-.67,2.28-1.45,3.31-2.32-.95,1.01-1.7,2.2-2.22,3.48,8.14-6.32,19.66-7.09,27.93-13.25,1.99-1.49,3.9-3.62,3.65-6.07-.17-1.58-1.25-2.96-2.59-3.85-1.34-.89-2.93-1.35-4.5-1.71-3.38-.79-6.85-1.21-10.33-1.25l2.92,.26Z"/>
            <path class="cls-19" d="M120.9,63.3c3.06-8.04,3.66-22.2,1.24-28.92-2.43-6.72-15.4-2.59-15.4-2.59,0,0,7.92,12.11,7.92,34.32,0,0,3.35-3.62,6.24-2.81Z"/>
            <path class="cls-24" d="M125.63,36.82c4.6-5.36-.04-22.09-23.1-28.5-23.06-6.42-42.04,.18-53.16,12.8-8.92,10.12-11.37,37.48-29.38,43.6-2.57,.87-5.79,.73-8.89,.09,0,0,7.44,4.69,22.68,1.89,16.62-3.05,32.43-39.97,47.18-44.51,17.75-5.47,25.01,2.88,25.01,2.88l19.67,11.75Z"/>
            <path class="cls-24" d="M47.72,43.35s-.43,.17-1.17,.46c-.41,.13-.91,.31-1.48,.47-.29,.07-.59,.15-.91,.24-.32,.07-.67,.13-1.02,.21-.72,.13-1.5,.22-2.34,.26-.84,.03-1.72,.03-2.63-.1-.91-.1-1.84-.31-2.74-.64-.9-.33-1.78-.8-2.5-1.44-.73-.64-1.28-1.48-1.46-2.39-.19-.91,0-1.83,.38-2.59,.38-.77,.9-1.42,1.47-1.95,.27-.28,.57-.52,.86-.75,.28-.24,.58-.43,.86-.63,.28-.2,.56-.37,.83-.53,.27-.15,.52-.32,.77-.44,.5-.25,.92-.48,1.29-.64,.73-.33,1.15-.51,1.15-.51,0,0-.4,.21-1.11,.58-.35,.18-.76,.44-1.23,.72-.24,.14-.47,.31-.73,.48-.26,.17-.52,.35-.78,.57-.26,.21-.54,.41-.79,.66-.26,.24-.53,.49-.77,.77-.51,.54-.95,1.19-1.23,1.89-.29,.7-.38,1.49-.17,2.22,.2,.73,.7,1.38,1.35,1.88,.65,.5,1.43,.86,2.24,1.1,.81,.25,1.65,.38,2.48,.42,.82,.06,1.62,.01,2.37-.06,.75-.09,1.46-.22,2.1-.37,.32-.08,.62-.17,.91-.24,.29-.09,.55-.18,.81-.27,.5-.17,.91-.35,1.26-.48,.72-.34,1.14-.53,1.14-.53l.82,1.63Z"/>
            <path class="cls-24" d="M53.59,32.25s-.11,.27-.32,.76c-.21,.5-.5,1.23-.93,2.16-.41,.94-.93,2.05-1.56,3.33-.63,1.27-1.38,2.69-2.25,4.21-1.77,3.03-4.04,6.5-7.12,9.78-1.54,1.64-3.26,3.23-5.25,4.61-1.97,1.39-4.21,2.55-6.65,3.23-2.43,.68-5.1,.79-7.52,.14-.29-.08-.62-.23-.92-.35l-.42-.26-.21-.13-.18-.17c-.52-.41-.81-1.02-.94-1.6-.22-1.2,.14-2.33,.6-3.33,.47-1.01,1.08-1.91,1.71-2.77,.63-.86,1.32-1.65,2.02-2.39,1.4-1.48,2.85-2.78,4.25-3.9,2.8-2.25,5.41-3.81,7.31-4.77,.95-.48,1.72-.81,2.25-1.03,.53-.21,.82-.32,.82-.32,0,0-.28,.12-.81,.34-.52,.23-1.28,.58-2.22,1.08-1.86,1-4.42,2.62-7.14,4.92-1.36,1.15-2.76,2.47-4.11,3.96-.67,.75-1.33,1.54-1.93,2.39-.6,.85-1.17,1.75-1.59,2.71-.42,.95-.69,2.01-.48,2.98,.19,.97,1.12,1.67,2.18,1.93,2.27,.56,4.75,.4,7.02-.29,2.27-.7,4.38-1.84,6.23-3.22,1.86-1.36,3.49-2.94,4.94-4.56,2.89-3.25,5.02-6.69,6.67-9.69,.81-1.51,1.52-2.91,2.1-4.18,.58-1.26,1.07-2.37,1.44-3.29,.38-.91,.66-1.65,.86-2.15s.3-.77,.3-.77l1.84,.62Z"/>
            <path class="cls-24" d="M105.5,24.07s-.08-.04-.24-.13c-.16-.09-.4-.21-.69-.35-.6-.29-1.51-.7-2.71-1.13-1.2-.43-2.69-.89-4.43-1.24-1.74-.36-3.75-.61-5.94-.59-2.18,.03-4.55,.34-6.88,1.19-2.33,.84-4.55,2.25-6.41,4.19-1.88,1.95-3.63,4.19-5.41,6.46-1.77,2.28-3.58,4.6-5.38,6.92-3.63,4.62-7.43,9.15-11.34,13.09-1.96,1.97-3.94,3.79-5.91,5.41-1.98,1.62-3.95,3.04-5.86,4.21-1.91,1.17-3.76,2.1-5.45,2.79-1.69,.7-3.23,1.16-4.51,1.46-1.28,.31-2.32,.43-3.02,.52-.71,.06-1.08,.1-1.08,.1,0,0,.37-.04,1.08-.12,.7-.11,1.72-.25,3-.58,1.27-.32,2.79-.81,4.46-1.54,1.67-.72,3.49-1.68,5.36-2.88,1.87-1.2,3.8-2.64,5.73-4.29,1.93-1.65,3.86-3.5,5.76-5.49,3.8-3.99,7.48-8.57,11.01-13.25,1.75-2.35,3.5-4.71,5.23-7.02,1.74-2.31,3.45-4.6,5.36-6.67,1.93-2.09,4.34-3.71,6.85-4.66,2.51-.97,5.06-1.36,7.39-1.44,2.34-.06,4.47,.16,6.33,.51,1.86,.34,3.44,.79,4.72,1.22,1.28,.44,2.26,.85,2.93,1.16,.35,.16,.59,.28,.75,.36,.16,.08,.25,.12,.25,.12l-.92,1.66Z"/>
            <path class="cls-24" d="M53.46,41.17s-.13,.15-.36,.42c-.23,.28-.58,.68-1.04,1.2-.91,1.03-2.25,2.47-3.96,4.11-1.71,1.63-3.79,3.47-6.2,5.25-1.2,.89-2.48,1.77-3.83,2.6-1.35,.82-2.77,1.61-4.27,2.26-1.49,.65-3.05,1.21-4.68,1.51-1.61,.29-3.32,.35-4.84-.28-.21-.08-.38-.22-.55-.35-.15-.17-.3-.34-.35-.56-.12-.43,0-.84,.19-1.16,.35-.66,.86-1.15,1.36-1.62,1.01-.92,2.08-1.65,3.06-2.32,1.99-1.31,3.73-2.28,4.96-2.95,1.23-.67,1.94-1.02,1.94-1.02,0,0-.7,.38-1.9,1.09-1.19,.71-2.89,1.74-4.82,3.11-.95,.69-1.98,1.46-2.92,2.38-.46,.46-.93,.97-1.2,1.53-.31,.58-.17,1.13,.48,1.36,1.3,.49,2.92,.41,4.41,.08,1.51-.33,2.99-.92,4.4-1.6,1.42-.68,2.76-1.49,4.05-2.34,1.28-.85,2.5-1.75,3.63-2.66,2.28-1.82,4.24-3.68,5.84-5.34,1.6-1.66,2.85-3.11,3.69-4.14,.42-.51,.75-.92,.97-1.21,.22-.28,.34-.44,.34-.44l1.57,1.08Z"/>
            <path class="cls-24" d="M122.99,37.68c-1.65-1.34-3.43-2.63-5.54-3.22-2.89-.81-6.05-.18-8.68,1.25,.43,.95,.89,2.07,1.37,3.36,.04,.02,.08,.03,.12,.05,.66,.45,.89,2.34,1.07,3.04,.16,.62,.3,1.24,.43,1.87,.13,.45,.25,.91,.37,1.38,.24-.91,.47-1.82,.71-2.73,0,.49,0,.97,0,1.46,.05-.69,.31-1.37,.74-1.94,.06,.53,.25,1.04,.56,1.49,.22-.49,.44-.98,.66-1.48,.11,.2,.22,.4,.32,.6,.24-.35,.49-.7,.73-1.05,.02,.23,.19,.45,.42,.54,.17-.11,.28-.32,.26-.51,.29,1.73,.4,2.41,.69,4.14,.31-.83,.79-.62,1.09-1.45,0,.34,.01,.68,.02,1.02,.19-.27,.38-.53,.57-.8-.11,.37,0,.79,.3,1.06,.22-.28,.44-.55,.66-.83-.03,.25,.19,.5,.46,.52,.03-.5,.87-.73,1.19-.33,.14,.17,.17,.38,.2,.59,.14,.98,.8-.29,.85,.4,.08,1.25,.82,2.99,1.02,2.49,.18-3.94,0-7.79-.57-10.92Z"/>
            <path class="cls-24" d="M62.62,27.17s-.23,.05-.65,.15c-.42,.1-1.06,.23-1.82,.44-.36,.12-.75,.26-1.18,.41-.22,.07-.44,.15-.67,.23-.23,.1-.46,.21-.7,.33-.24,.11-.49,.23-.75,.35-.26,.12-.53,.24-.78,.4-.51,.31-1.07,.61-1.62,.97-.53,.39-1.11,.76-1.66,1.21-.54,.46-1.13,.9-1.67,1.43-.55,.52-1.12,1.04-1.67,1.62-.56,.56-1.11,1.16-1.66,1.77-1.11,1.22-2.22,2.53-3.39,3.85-1.16,1.32-2.39,2.63-3.72,3.87-.33,.31-.69,.6-1.03,.9-.34,.3-.69,.59-1.07,.86l-1.12,.82-.58,.35-.65,.32c-1.73,.76-3.64,1.08-5.46,.81-.89-.14-1.82-.47-2.4-1.2-.27-.37-.37-.82-.36-1.24,.05-.41,.17-.8,.36-1.15,.36-.7,.87-1.27,1.39-1.79,.52-.52,1.07-.97,1.61-1.38,1.08-.83,2.15-1.49,3.1-2.07,.48-.28,.93-.54,1.35-.78,.42-.23,.82-.44,1.17-.63,.7-.38,1.28-.65,1.66-.85,.38-.19,.59-.29,.59-.29,0,0-.2,.11-.58,.31-.37,.21-.94,.49-1.62,.89-.35,.2-.73,.42-1.14,.66-.41,.25-.85,.52-1.32,.81-.92,.61-1.97,1.29-3,2.15-.52,.42-1.04,.88-1.53,1.4-.48,.51-.96,1.08-1.26,1.73-.16,.32-.24,.66-.28,1,0,.34,.09,.66,.3,.94,.45,.54,1.24,.82,2.06,.92,1.65,.2,3.45-.15,5-.9l.55-.3,.57-.37,1.03-.8c.36-.26,.68-.56,1-.86,.32-.3,.66-.59,.97-.9,1.24-1.25,2.4-2.57,3.51-3.91,1.11-1.34,2.17-2.68,3.26-3.96,.53-.64,1.08-1.26,1.63-1.86,.53-.61,1.11-1.17,1.66-1.73,.54-.56,1.15-1.04,1.7-1.55,.57-.49,1.17-.9,1.72-1.33,.57-.41,1.16-.75,1.7-1.1,.27-.18,.55-.32,.83-.46,.28-.14,.54-.27,.8-.4,.26-.13,.51-.26,.76-.38,.26-.1,.51-.2,.76-.29,.49-.18,.93-.35,1.34-.5,.79-.24,1.4-.38,1.82-.5,.42-.11,.64-.17,.64-.17l.52,1.74Z"/>
            <path class="cls-21" d="M119.27,43.05c-.63-4.51-7.4-8.78-10.28-6.82,0,0,3.42-3.86,4.25-4.29,.84-.43,11.41,4.88,11.41,4.88v5.07l-5.39,1.16Z"/>
            <path class="cls-21" d="M124.02,24.72c-.21-.26-.61-.37-.94-.28,.16,.65,.31,1.3,.46,1.95-.95-1.56-2.31-2.92-3.92-3.92,.59,.85,.99,1.81,1.17,2.81-1.07-1.63-2.79-2.89-4.77-3.47,.04,.37,.08,.74,.13,1.12-1-.56-1.99-1.13-2.99-1.69,.81,.94,1.3,2.1,1.4,3.3-1.72-1.22-3.59-2.26-5.57-3.09,.11,.7,.23,1.4,.34,2.1,.03,.18-1.72-.65-1.88-.85-.49,1.13-.88,1.71-.19,3.01,.04,.08,.1,.16,.15,.24l18.23,10.89c2.77-3.23,2.18-10.57-3.75-17.31-.16-.16-.32-.32-.49-.48,.88,1.89,1.75,3.79,2.63,5.68Z"/>
            <path class="cls-19" d="M14.8,85.85s.21-.09,.61-.25c.4-.16,.98-.42,1.74-.69,.75-.29,1.68-.61,2.76-.93,1.08-.33,2.32-.63,3.7-.88,1.38-.23,2.9-.39,4.51-.36,1.61,.03,3.32,.26,5,.78,1.7,.49,3.22,1.47,4.93,1.97,1.7,.56,3.52,.87,5.35,.99,3.67,.24,7.36-.4,10.53-1.59,3.18-1.2,5.81-2.94,7.72-4.73,.95-.9,1.74-1.79,2.38-2.62,.31-.42,.59-.82,.84-1.19,.23-.38,.46-.73,.64-1.05,.36-.65,.63-1.17,.78-1.53,.17-.36,.26-.55,.26-.55l1.21,.45s-.1,.2-.28,.57c-.18,.38-.47,.92-.87,1.6-.2,.34-.45,.7-.71,1.1-.27,.39-.58,.8-.92,1.24-.69,.86-1.54,1.78-2.56,2.71-2.04,1.84-4.84,3.6-8.17,4.78-3.32,1.17-7.14,1.75-10.91,1.43-1.88-.16-3.75-.52-5.49-1.13-1.78-.57-3.25-1.57-4.88-2.07-1.62-.54-3.28-.8-4.87-.86-1.59-.06-3.09,.06-4.47,.26-1.37,.22-2.61,.49-3.7,.8-1.08,.3-2.02,.6-2.77,.87-.76,.26-1.35,.5-1.75,.66-.4,.16-.62,.24-.62,.24Z"/>
            <path class="cls-19" d="M119.27,43.05c4.24-.97-1.4-12.44-10.28-6.82-8.88,5.62-18.24,15.62-36.95,33.62-18.72,18-23.29,17.4-35.7,12-12.41-5.4-11.1,2.8-22.2,4.6-11.1,1.8-14.15-1.4-14.15-1.4,0,0,6.97,4.6,16.76-2.6,9.79-7.2,14.74-8.82,21.55-6.57,6.81,2.25,22.64,1.39,29.17-12.82,6.53-14.21,9.22-30.89,24.59-36.61,9.14-3.4,18.61-3.01,24.81,0,6.75,3.28,14.15,14,2.39,16.6Z"/>
            <path class="cls-24" d="M123.38,49.15c-.36,3.91-1.44,7.76-3.18,11.34,0-.17,0-.33,.01-.5-.03,.27-.3,.5-.6,.5-.21,.42-.42,.83-.63,1.25,.1-1.46,.2-2.93,.3-4.39-.43,1.72-1.37,3.3-2.3,4.85-.39-.51-.57-1.16-.49-1.78,.01-.1,.03-.21-.05-.29-.06-.05-.17-.03-.2,.03,0-.25,0-.51,0-.76-.03,.15-.11,.3-.22,.41-.17-.44-.24-.92-.18-1.39-.07,.7-.21,1.39-.42,2.07-.27-2.28-.71-4.54-1.31-6.77-.12-.42-.39-2.17-.79-2.84,.79,4.37,1.33,9.45,1.33,15.22,0,0,3.35-3.62,6.24-2.81,1.44-3.8,2.34-8.95,2.63-14.04-.04-.04-.08-.08-.14-.1Z"/>
            <g class="cls-11">
              <path class="cls-19" d="M116.07,58.62c-.04,.23-.08,.46-.11,.69,.07-.22,.1-.45,.11-.69Z"/>
              <path class="cls-19" d="M114.33,49.15c0-.31-.01-.61-.02-.92-.08-.41-.16-.82-.24-1.23l.26,2.15Z"/>
              <path class="cls-19" d="M115.5,47.63c-.02-.18-.04-.36-.06-.54,0,.18,.03,.36,.06,.54Z"/>
              <path class="cls-19" d="M120.9,51.36c-.21-1.6-.73-3.15-1.28-4.69,.08,1.36-.03,2.72-.31,4.06,.01-.68-.1-1.35-.32-2-.12,.62-.24,1.24-.36,1.85-.29-.28-.4-.7-.26-1.06-.15,.34-.3,.67-.44,1.01-.54-2.22-1.16-4.42-1.84-6.6,.04,1.64,.08,3.29,.13,4.93-.27-.38-.45-.81-.54-1.25,.05,.36,.09,.72,.14,1.09-.38-1.18-.91-2.33-1.58-3.41,.02,.98,.05,1.95,.07,2.93,.68,2.97,1.31,5.95,1.87,8.94,.09,.48,.17,.97,.14,1.45,.16-.88,.33-1.76,.53-2.63,0,.34,0,.68,0,1.02,.25-.7,.62-1.38,1.1-1.98,.14,1.16,.42,2.31,.82,3.43,.77-1.77,1.23-3.64,1.36-5.53-.12,1.06-.08,2.12,.12,3.17,.72-1.48,.85-3.14,.64-4.74Z"/>
            </g>
            <path class="cls-10" d="M47.44,79.18c-3.83-.12-7.3-2.06-11.07-2.67-4.63-.75-9.42,.58-13.47,2.76l1.73-.74c-1.24,.54-2.44,1.18-3.56,1.91,1.62-.75,3.35-1.29,5.13-1.63-1.91,.55-3.71,1.39-5.31,2.49,3.47-1.68,7.4-2.54,11.32-2.5-1.38-.33-2.82-.43-4.24-.31,3.61-.71,7.51-.06,10.62,1.76,.66,.39,1.38,.85,2.16,.75-.64-.57-1.18-1.24-1.57-1.97,1.52,.87,3.27,1.4,5.06,1.55-1.79-.46-3.44-1.35-4.74-2.56,2.42,1.16,5.25,1.57,7.95,1.17Z"/>
            <path class="cls-24" d="M64.43,68.02c-2.06,2.58-4.51,4.49-7.11,5.85-.44,.35-.88,.69-1.32,1.04,2.13-.76,4.14-1.77,5.97-3.02-.68,.51-1.28,1.11-1.77,1.78,.67-.42,1.33-.83,2-1.25-.08,.29-.17,.58-.25,.87,1.12-.7,2.24-1.4,3.36-2.1-.41,1.07-1.08,2.05-1.95,2.85,2.44-1.32,4.68-2.94,6.64-4.82-.78,1.8-1.98,3.45-3.49,4.81,1.69-1.22,3.37-2.46,5.03-3.71,.17-.16,.33-.31,.5-.48,1.76-1.69,3.43-3.31,5.03-4.86-4.34-.03-8.37,2.36-12.65,3.03Z"/>
            <path class="cls-24" d="M67.47,63.06c-.83,1.8-1.8,3.38-2.89,4.77,.33,.11,.81,.17,1.5,.18,2.19,.05,4.4-.34,6.41-1.13,.62-.24,1.25-.54,1.66-1.04,.34-.41,.5-.91,.67-1.4,1.03-3,2.46-5.88,4.24-8.56-.9,1.06-1.97,1.99-3.16,2.76,1.27-1.42,2.23-3.07,2.8-4.83-1.6,2.39-3.79,4.44-6.37,5.96-.03-.28-.06-.56-.09-.84-.28,.58-.67,1.11-1.15,1.56-.02-.6-.04-1.19-.06-1.79-.11,.17-.29,.31-.49,.39,.11-.22,.22-.43,.33-.65-.44,.7-.98,1.35-1.59,1.92,.72-1.68,1.2-3.45,1.48-5.23-1.04,2.67-2.1,5.35-3.29,7.94Z"/>
            <path class="cls-24" d="M125.44,36.87c-.15-1.67-.99-3.45-2.23-5.1-.21-.15-.41-.29-.59-.43-3.11-2.22-7.07-3.43-11-3.43-5.42-.01-10.72,2.13-14.72,5.5,.95-.45,1.9-.9,2.84-1.35-2.88,2.12-5.76,4.25-8.64,6.37,1.14-.14,2.24-.52,3.19-1.12-.47,.32-.95,.64-1.42,.96-2.76,2.57-5.51,5.15-8.27,7.72,.95-.09,1.86-.45,2.59-1.01-2.31,2.02-4.52,4.14-6.62,6.33,.57-.14,1.11-.39,1.58-.73-2.31,1.95-4.15,4.37-5.36,7.03,1.11-.04,2.1-.59,3.03-1.15,3.83-2.33,7.32-5.14,10.33-8.32,2.48-2.62,4.67-5.52,7.6-7.72,1.8-1.35,3.85-2.41,5.9-3.43,1.84-.91,3.71-1.8,5.71-2.37,4.83-1.36,10.29-.68,14.54,1.83,.66,.39,1.17,.49,1.54,.4Z"/>
            <path class="cls-19" d="M122.75,31.99c-4.8-3.33-11.5-6-19.8-.14-11.15,7.88-22.84,26.46-35.4,31.03-3.37,1.23-6.81,1.45-10.31,.18,0,0,4.11,2.18,9.51,1.43,2.26-.31,4.74-1.13,7.25-2.84,0,0-3.38,4.62-9.2,5.89-1.61,.35-3.41,.44-5.38,.11,0,0,1.87,.59,4.83,.59,3.71,0,9.26-.44,15.23-4.28,16.88-10.87,21.82-22.86,29.52-27.73,8.88-5.62,14.52,5.85,10.28,6.82,4.35,1.8,7.96,.19,8.27-3.2,.17-1.82-.9-5.16-4.8-7.86Z"/>
            <path class="cls-10" d="M98.42,41.08c-2.38,3.08-5.21,5.87-8.39,8.27,.04-.35,.08-.7,.12-1.05-.15,.06-.31,.12-.46,.18,.18-.48,.49-.93,.88-1.3-.52,.46-1.03,.92-1.54,1.38,.91-1.58,1.81-3.16,2.72-4.74-1.63,2.38-3.26,4.76-5.17,6.95-1.88,2.17-4.04,4.12-6.4,5.86-.68,.45-1.36,.9-2.04,1.35,1.02-.46,2.04-.93,3.06-1.39-1.21,1.05-2.49,2.03-3.83,2.94,2.34-1.12,4.52-2.49,6.7-3.86-1.6,1.8-3.28,3.53-5.04,5.2,1.67-.91,3.22-2,4.61-3.25-1.87,1.87-3.87,3.64-5.97,5.29,1.31-.6,2.57-1.32,3.75-2.12,1.32-.9,2.54-1.91,3.76-2.92,4.07-3.38,8.19-6.8,11.27-10.97-1.22,1.12-2.65,2.05-4.21,2.74,2.56-2.51,4.66-5.42,6.19-8.56Z"/>
            <path class="cls-10" d="M93.87,31.27c1.77-1.21,3.75-2.17,5.82-2.85,.65-.06,1.28-.32,1.75-.73-3.15,.03-6.3,.79-9.05,2.21,1.83-1.5,3.99-2.65,6.3-3.37-2.52,.46-4.94,1.42-7.04,2.79,.92-.66,1.84-1.31,2.76-1.97-1.19,.32-2.35,.75-3.45,1.27l.78-.48c-1.29,.49-2.43,1.19-3.47,2.04-.32,.22-.64,.45-.95,.7l.47-.29c-1.63,1.44-4.07,3.4-5.31,5.16-2.21,3.13-3.19,6.16-5.06,9.48,1.14-1.72,2.39-3.38,3.76-4.96-.44,.93-.99,1.82-1.64,2.64,.59-.5,1.17-1,1.76-1.51-2.03,2.95-3.87,6.01-5.53,9.14,2.77-3.64,5.87-7.07,9.24-10.24-1.36,1.45-2.46,3.12-3.23,4.9,.76-1.01,1.52-2.03,2.28-3.04-.06,.38-.12,.75-.17,1.13,3.5-4.52,7.94-8.43,13-11.45-2.18,.92-4.26,2.02-6.23,3.27,2.92-2.76,6.89-4.32,10.75-5.81-2.62,.26-5.19,.93-7.56,1.98Z"/>
            <path class="cls-10" d="M93.75,31.7c-1.68,.35-3.29,1.01-4.69,1.92,1.21-1.06,2.42-2.13,3.63-3.19-1.16,.51-2.3,1.07-3.4,1.67,.51-.22,.96-.54,1.34-.92-.42,.13-.84,.26-1.26,.39,.47-.68,.95-1.36,1.43-2.04-.99,.31-1.9,.83-2.62,1.52l2.38-1.4c-3.33,1.96-6.11,4.7-8,7.9,.9-1.03,2.02-1.9,3.27-2.54-.85,.69-1.61,1.47-2.25,2.33,.6-.46,1.25-.87,1.93-1.22-.68,.84-1.36,1.68-2.04,2.52,1.22-1.03,2.53-1.97,3.91-2.81-1.18,1.42-2.28,2.89-3.3,4.4,1.59-1.86,3.29-3.64,5.08-5.34,0,0-.01,.01-.02,.02,1.61-.98,3.16-2.05,4.61-3.22Z"/>
            <path class="cls-10" d="M83.15,54.04c.9-.33,1.74-.79,2.5-1.35-.22,.28-.44,.56-.66,.84,.18-.1,.37-.2,.55-.3-.47,.58-.95,1.16-1.42,1.74,.83-.45,1.67-.9,2.5-1.35-.52,1.18-1.31,2.27-2.29,3.18,2.98-1.99,6-4,8.38-6.58-.95,.53-1.89,1.05-2.84,1.58,.57-.31,1.02-.78,1.28-1.34-1.25,.89-2.62,1.64-4.08,2.21,.61-.5,1.15-1.07,1.6-1.7-.17,.08-.34,.16-.51,.24,.1-.13,.2-.26,.3-.39-.51,.16-.99,.41-1.39,.74,.38-.54,.77-1.07,1.15-1.61-.44,.41-.96,.75-1.52,.99,.4-.42,.7-.88,.99-1.37-.52,.86-1.38,1.66-2.11,2.37-.63,.61-1.58,1.77-2.45,2.09Z"/>
            <g>
              <path class="cls-24" d="M108.74,34.52c.07-.04,.14-.09,.21-.13,0-.15-.3,0-.21,.13Z"/>
              <path class="cls-24" d="M126.07,36.69c.26,.43,.55,.97,.27,1.39-.23,.34-.75,.42-1.15,.28-.4-.14-.71-.45-.96-.76-.04,.26-.07,.52-.11,.78-.55,0-1.06-.42-1.13-.92-.22,.48-.43,.95-.65,1.43,.18-.87-.02-1.8-.54-2.54-.49,.2-1.08-.03-1.49-.35-.41-.33-.72-.75-1.14-1.06-1.17-.84-2.87-.6-4.22-1.16-.3-.13-.6-.3-.93-.33-.27-.03-.54,.04-.8,.11-1.34,.34-2.68,.68-4.02,1.02-.16,.04-.37,.07-.46-.06h0c-2.01,1.12-3.34,3.02-4.58,4.86,.16-.31,.33-.62,.49-.94-1.01,1.93-3.09,3.76-4.45,5.51-.75,.96-1.48,1.92-2.21,2.89-.43,.57-1.58,1.63-1.52,2.37,4.95-5.56,8.33-10.34,12.53-13,8.88-5.62,14.52,5.85,10.28,6.82,4.35,1.8,7.96,.19,8.27-3.2,.13-1.43-.51-3.82-2.71-6.09,.27,1.02,.68,2.01,1.23,2.93Z"/>
            </g>
            <path class="cls-21" d="M127.55,39.66c-.14,.35-.31,.7-.51,1.02-.09,.15-.21,.31-.4,.34-.12,.02-.24-.02-.36-.02-.38,0-.6,.38-.75,.7-.01-.35-.03-.69-.04-1.04-.52,.65-1.17,1.22-1.9,1.67-.05-.35,.01-.71,.19-1.02-.54,.52-1.23,.9-1.99,1.08,.09-.53,.18-1.06,.27-1.6-.04,.24-.47,.23-.6,.02-.13-.21-.05-.47,.03-.7-.2,.09-.33,.3-.29,.5-.08-.37-.5-2-1.04-1.98-.03,0-.05,.02-.08,.03,1.01,1.97,.89,4-.8,4.38,4.35,1.8,7.96,.19,8.27-3.2,0-.06,0-.13,0-.19Z"/>
            <g>
              <path class="cls-24" d="M116.46,31.5c-.33-.15-.68-.27-1.04-.34,.35,.11,.69,.23,1.04,.34Z"/>
              <path class="cls-24" d="M127.54,39.85c.17-1.82-.9-5.16-4.8-7.86-4.61-3.19-10.98-5.78-18.83-.79,1.32-.48,2.86-1.37,3.87-1.63,2.11-.56,4.15-.46,6.28-.75-.84,.11-1.68,.22-2.53,.34,1.54-.02,3.09,.24,4.52,.76-.42-.04-.83-.08-1.25-.12,2.37,.67,4.6,1.8,6.48,3.28-1.61-.53-3.23-1.05-4.84-1.58,.42,.19,.81,.42,1.16,.7-1.97-.13-3.95-.16-5.92-.09,2.1,.02,4.2,.58,5.98,1.61-1.83-.44-3.68-.88-5.57-.87-1.89,0-3.85,.52-5.19,1.74,3.64-.79,7.48-.75,11.1,.12,1,.24,2.06,.59,2.61,1.4,.61,.88,.43,2.06,1,2.96,.83,1.32,2.81,1.48,4.46,1.4,.45-.02,.92-.07,1.38-.16,.03-.15,.06-.3,.07-.46Z"/>
            </g>
            <path class="cls-24" d="M64.84,49.86c.24-.4,.42-.83,.51-1.28-.55,.46-1.11,.91-1.66,1.36,.75-1.06,1.31-2.22,1.66-3.44-3.05,2.94-6.11,5.88-9.16,8.82,1.57-2,5.6-6.37,6.43-8.71-5.28,7.96-11.06,12.44-18.16,19.1-1.52,2.2-6.46,4.7-8.66,6.34,1.93-.85,3.8-1.81,5.61-2.86-.66,.59-1.2,1.27-1.61,2.03,.62-.66,1.48-1.14,2.41-1.35-.45,.99-.89,1.99-1.34,2.98,1.68-.32,3.23-1.19,4.32-2.41-.39,.92-.79,1.84-1.18,2.75,4.15-2.31,7.67-5.55,10.18-9.37-1.07,1.71-2.13,3.42-3.2,5.13,8-6.54,14.52-14.6,19.03-23.53-1.85,1.35-3.58,2.83-5.17,4.44Z"/>
            <path class="cls-19" d="M57.51,57.52c.56-.43,1.05-.94,1.45-1.5-.69,.62-1.38,1.24-2.07,1.85,.56-.94,1.11-1.87,1.67-2.81-2.39,2.35-10.52,9.65-12.13,11.05,1.26-.69,2.35-1.45,2-.79,.45-.22,.89-.44,1.34-.66-.15,.95-.64,1.84-1.34,2.55,2.82-2.21,5.48-4.6,7.94-7.16-.82,1.29-1.65,2.57-2.47,3.86,3.88-3.39,7.22-7.29,9.9-11.55-2.04,1.77-4.14,3.49-6.28,5.16Z"/>
            <g>
              <path class="cls-21" d="M38.58,61.51c.33-.17,.67-.33,1-.5-.37,.1-.71,.28-1,.5Z"/>
              <path class="cls-21" d="M38.12,61.93c.13-.16,.29-.29,.46-.42-2.01,.99-4.08,1.87-6.22,2.59,1.17-1,2.22-2.12,3.15-3.32-2.84,1.73-5.98,3.06-9.26,3.91,.45-.55,.91-1.1,1.37-1.65-1.15,.64-2.37,1.18-3.64,1.61,.41-.35,.82-.71,1.23-1.06-1.18,.36-2.42,.56-3.67,.57,.59,0,1.81-.71,2.47-1.34-1.23,.75-2.56,1.39-4.01,1.89-2.57,.87-5.79,.73-8.89,.09,0,0,7.44,4.69,22.68,1.89,2.03-.37,4.04-1.25,6.05-2.51,4.34-3.4,8.34-7.17,11.91-11.26,.42-.5,.83-1,1.25-1.51-4.1,4.39-9.17,8.03-14.86,10.49Z"/>
            </g>
            <g>
              <path class="cls-21" d="M107.66,14.19c-.48-.21-1.01-.34-1.54-.35,.51,.12,1.03,.23,1.54,.35Z"/>
              <path class="cls-21" d="M107.44,9.95c-1.48-.5-3.02-.92-4.58-.85,1.87,.89,3.59,2.04,5.09,3.4-4.27-2.18-9.17-3.31-14.06-3.24,4.93,1,9.8,2.25,14.58,3.74,1.04,.33,2.15,.7,2.81,1.52-.83-.38-1.75-.61-2.68-.67,.16,.22,.33,.44,.49,.66-.47-.11-.95-.21-1.43-.32,.75,.33,1.39,.88,1.76,1.56-4.37-2.25-9.38-3.42-14.39-3.37,4.15,.85,8.42,1.75,11.88,4.02-4.36-1.53-9.04-2.27-13.7-2.17,3.67,.64,7.45,1.31,10.61,3.14-4.11-.86-5.82-.28-10.04-.2,.98,.57,1.92,1.19,2.82,1.87-.95,.03-1.91,.06-2.86,.08,2.14-.06,3.26,.8,4.63,1.95,3.17,.8,5.27,2.09,6.44,2.99,4.58-.05,8.78,.8,12.06,2.4,2.02,.98,4.1,2.64,5.71,4.54,1.43,.48,2.89,.69,4.3,.24,.11-.03,.21-.08,.32-.12-.34-6.54-5.98-15.84-19.77-21.17Z"/>
              <path class="cls-21" d="M107.44,9.95c-1.48-.5-3.02-.92-4.58-.85,1.87,.89,3.59,2.04,5.09,3.4-4.27-2.18-9.17-3.31-14.06-3.24,4.93,1,9.8,2.25,14.58,3.74,1.04,.33,2.15,.7,2.81,1.52-.83-.38-1.75-.61-2.68-.67,.16,.22,.33,.44,.49,.66-.47-.11-.95-.21-1.43-.32,.75,.33,1.39,.88,1.76,1.56-4.37-2.25-9.38-3.42-14.39-3.37,4.15,.85,8.42,1.75,11.88,4.02-4.36-1.53-9.04-2.27-13.7-2.17,3.67,.64,7.45,1.31,10.61,3.14-4.11-.86-5.82-.28-10.04-.2,.98,.57,1.92,1.19,2.82,1.87-.95,.03-1.91,.06-2.86,.08,2.14-.06,3.26,.8,4.63,1.95,3.17,.8,5.27,2.09,6.44,2.99,4.58-.05,8.78,.8,12.06,2.4,2.02,.98,4.1,2.64,5.71,4.54,1.43,.48,2.89,.69,4.3,.24,.11-.03,.21-.08,.32-.12-.34-6.54-5.98-15.84-19.77-21.17Z"/>
            </g>
            <path d="M124.03,32.99c1.02,.89,1.78,1.82,2.33,2.72,2.28-4.41,.26-13.22-8.72-20.15,1.73,2.58,3.45,5.15,5.17,7.73-.4-.43-.81-.86-1.21-1.28,.19,.72,.52,1.41,.96,2.04-1.05-.84-2.11-1.68-3.16-2.52l2.34,4.62-5.05-3.68,1.25,2.62c-1.26-.73-2.53-1.47-3.79-2.2,0,.34-.01,.68-.02,1.02-.79-.51-1.57-1.02-2.36-1.53,.03,.41,.08,.8,.03,1.21-.44-.09-4.3,.37-6.09,.48,4.24,.06,8.11,.91,11.18,2.4,2.71,1.32,5.52,3.83,7.15,6.54Z"/>
            <path class="cls-19" d="M83.21,9.24c3.16-.32,5.44-.06,8.16,.39-1.61,.18-3.21,.36-4.82,.55,1.24,.16,2.48,.41,3.7,.74,.36,.1,.75,.23,.94,.59-.82,.03-1.65,.05-2.47,.06,1.1,.17,2.16,.7,3.06,1.49-.94-.06-1.86,.01-2.75,.28,2.13,.83,3.57,1.66,3.4,1.81-.08,.07-.19,.05-.29,.03-3.16-.63-6.69,.05-9.81,.54,1.78-.68,2.38-1.09,4.28-1.29-1.16-.11-2.42-.47-4.09-.52,.97-.38,2.19-.89,3.23-1.02-2.59-.32-3.45-.26-5.98,.2,1.75-.92,3.75-1.18,5.71-1.42-1.16-.3-2.34-.47-3.52-.52,.1-.06,.21-.11,.32-.17-.49-.03-.98-.05-1.46-.08,1.43-.32,2.89-.56,4.35-.74-.84,.1-1.74,.01-2.58,.04-.82,.02-1.72,.18-2.54,.08,0,0,1.6-.86,3.18-1.02Z"/>
            <path class="cls-19" d="M86.61,14.7c1.79-.19,3.07-.1,4.59,.07-.91,.11-1.82,.22-2.72,.32,.7,.06,1.39,.16,2.07,.3,.2,.04,.42,.1,.52,.26-.46,.03-.93,.05-1.39,.06,.62,.06,1.21,.3,1.7,.66-.53-.02-1.05,.03-1.55,.17,1.19,.36,1.98,.73,1.88,.8-.04,.03-.11,.03-.16,.02-1.77-.26-3.77,.12-5.54,.39,1.01-.34,1.36-.55,2.43-.66-.65-.03-1.36-.19-2.3-.19,.55-.19,1.25-.45,1.84-.52-1.45-.12-1.94-.08-3.38,.17,1-.46,2.13-.6,3.24-.74-.65-.12-1.31-.19-1.97-.2,.06-.03,.12-.06,.18-.08-.27,0-.55-.01-.82-.02,.81-.17,1.64-.3,2.46-.41-.47,.06-.98,.03-1.46,.05-.46,.02-.97,.11-1.43,.07,0,0,.91-.42,1.81-.52Z"/>
            <path class="cls-24" d="M39.22,49.14s-.07,.14-.2,.41c-.14,.26-.36,.67-.68,1.14-.64,.94-1.72,2.23-3.4,3.36-.84,.56-1.82,1.09-2.93,1.48-1.09,.39-2.37,.71-3.7,.5-.17-.03-.32-.06-.5-.11-.15-.05-.3-.08-.46-.16-.32-.13-.62-.29-.88-.49-.54-.39-.98-.89-1.31-1.45-.66-1.11-.88-2.46-.61-3.71,.24-1.26,.87-2.42,1.62-3.44,.76-1.03,1.64-1.93,2.54-2.76,1.8-1.66,3.75-2.95,5.51-3.89,.88-.47,1.72-.85,2.47-1.17,.75-.31,1.42-.56,1.98-.74,.56-.18,1-.32,1.31-.4,.3-.09,.46-.13,.46-.13,0,0-.16,.05-.46,.14-.3,.09-.74,.23-1.3,.42-.55,.2-1.22,.45-1.96,.77-.75,.33-1.57,.72-2.44,1.2-1.73,.96-3.65,2.27-5.41,3.94-.88,.84-1.74,1.75-2.46,2.77-.72,1.01-1.31,2.15-1.52,3.35-.24,1.2,0,2.45,.63,3.49,.62,1.05,1.67,1.8,2.89,1.98,1.2,.17,2.4-.13,3.44-.53,1.06-.39,1.99-.91,2.78-1.46,1.6-1.1,2.6-2.35,3.2-3.25,.3-.46,.49-.82,.63-1.09,.13-.27,.2-.41,.2-.41l.59,.25Z"/>
            <path class="cls-24" d="M45.47,38.17s-.02,.18-.07,.53c-.05,.34-.09,.84-.22,1.49-.06,.32-.12,.68-.2,1.07-.09,.38-.19,.8-.29,1.24-.13,.44-.26,.9-.4,1.39-.15,.49-.34,.99-.52,1.53-.41,1.05-.89,2.18-1.51,3.32-.59,1.16-1.36,2.31-2.2,3.47-.87,1.14-1.86,2.26-2.97,3.3-1.13,1.03-2.38,1.98-3.71,2.81-1.35,.8-2.8,1.48-4.29,2-1.5,.48-3.01,.86-4.51,1.05-1.5,.18-2.96,.27-4.34,.18-1.38-.05-2.67-.28-3.85-.53-.58-.15-1.13-.31-1.65-.47-.51-.19-.99-.37-1.44-.54-.44-.21-.84-.4-1.22-.58-.37-.18-.69-.4-.99-.57-.61-.33-1.01-.68-1.31-.89-.29-.21-.45-.33-.45-.33,0,0,.16,.11,.46,.32,.3,.2,.71,.55,1.32,.87,.3,.16,.62,.37,.99,.55,.38,.17,.79,.36,1.22,.56,.45,.17,.94,.34,1.45,.52,.52,.15,1.07,.3,1.65,.44,1.17,.23,2.45,.45,3.83,.48,1.37,.08,2.82-.02,4.3-.22,1.48-.21,2.97-.6,4.44-1.1,1.46-.53,2.87-1.21,4.2-2.02,1.31-.84,2.52-1.79,3.62-2.82,1.08-1.05,2.04-2.15,2.88-3.29,.81-1.15,1.55-2.29,2.11-3.44,.6-1.13,1.05-2.25,1.44-3.28,.17-.52,.35-1.02,.49-1.5,.13-.48,.26-.94,.38-1.38,.1-.44,.19-.84,.27-1.22,.08-.38,.13-.73,.18-1.04,.12-.62,.15-1.14,.2-1.48,.04-.34,.06-.53,.06-.53l.65,.07Z"/>
            <path class="cls-24" d="M42.27,51.25s-.08,.11-.25,.33c-.16,.21-.38,.53-.72,.93-.32,.4-.72,.87-1.2,1.39-.49,.52-1.05,1.09-1.7,1.69-.66,.58-1.38,1.21-2.2,1.81-.81,.62-1.71,1.2-2.66,1.78-.96,.57-1.99,1.1-3.07,1.59-1.08,.48-2.2,.9-3.36,1.27-1.14,.35-2.33,.64-3.5,.87-1.17,.21-2.34,.37-3.47,.45-1.14,.08-2.24,.12-3.28,.08-1.04-.02-2.02-.11-2.93-.21-.9-.11-1.72-.25-2.44-.39-.72-.15-1.34-.29-1.85-.43-.51-.12-.9-.26-1.17-.33-.27-.08-.41-.12-.41-.12,0,0,.14,.04,.42,.12,.27,.07,.67,.2,1.18,.32,.51,.13,1.14,.26,1.86,.4,.72,.13,1.54,.25,2.44,.35,.9,.08,1.88,.16,2.92,.16,1.04,.02,2.13-.04,3.26-.13,1.12-.1,2.28-.28,3.44-.5,1.16-.24,2.31-.54,3.45-.91,1.12-.38,2.23-.82,3.29-1.31,1.05-.5,2.06-1.04,2.99-1.61,.93-.58,1.81-1.17,2.59-1.79,.8-.6,1.49-1.23,2.13-1.81,.62-.6,1.17-1.16,1.63-1.68,.46-.52,.85-.99,1.14-1.38,.31-.38,.53-.71,.69-.93,.16-.22,.24-.33,.24-.33l.54,.34Z"/>
            <path class="cls-19" d="M103.17,36.46s-1.03,2.31-2.56,5.77c-.77,1.73-1.64,3.76-2.72,5.88-1.08,2.12-2.39,4.34-4.08,6.31-.85,.99-1.78,1.89-2.77,2.73-1,.83-2.05,1.56-3.1,2.22-2.11,1.32-4.23,2.33-6.06,3.13-1.84,.8-3.4,1.41-4.5,1.83-1.09,.42-1.72,.66-1.72,.66,0,0,.62-.25,1.71-.68,1.09-.44,2.64-1.06,4.46-1.89,1.82-.83,3.91-1.86,5.99-3.2,1.03-.67,2.06-1.42,3.04-2.25,.96-.83,1.88-1.75,2.7-2.73,1.64-1.97,2.9-4.18,3.93-6.3,1.04-2.12,1.87-4.16,2.62-5.9,1.48-3.48,2.47-5.8,2.47-5.8l.61,.22Z"/>
            <path class="cls-19" d="M104.01,36.18s-.14,.15-.39,.43c-.13,.14-.29,.32-.47,.52-.19,.2-.4,.44-.6,.72-.21,.28-.44,.58-.69,.91-.24,.34-.47,.73-.73,1.14-.27,.4-.5,.86-.75,1.34-.27,.47-.5,.99-.75,1.53-.5,1.07-.96,2.27-1.43,3.54-.47,1.27-.93,2.63-1.41,4.03-.49,1.4-1.01,2.85-1.63,4.29-.62,1.44-1.32,2.89-2.2,4.24-.86,1.37-1.89,2.65-3.06,3.77-1.17,1.12-2.45,2.1-3.76,2.96-2.63,1.7-5.3,2.98-7.69,3.83-2.39,.86-4.51,1.23-6,1.35-.75,.05-1.33,.06-1.73,.06-.4-.01-.61-.02-.61-.02,0,0,.21,0,.61,.01,.4,0,.99-.01,1.73-.07,1.48-.13,3.59-.52,5.97-1.41,2.37-.88,5.02-2.18,7.61-3.9,1.29-.87,2.55-1.85,3.69-2.97,1.14-1.12,2.14-2.4,2.97-3.75,.86-1.35,1.53-2.79,2.12-4.22,.6-1.44,1.09-2.89,1.57-4.29,.47-1.4,.91-2.77,1.36-4.05,.46-1.29,.91-2.5,1.4-3.59,.24-.55,.47-1.08,.74-1.56,.25-.49,.48-.96,.75-1.37,.26-.42,.49-.82,.73-1.18,.26-.35,.49-.67,.71-.97,.21-.3,.42-.54,.6-.74,.18-.21,.34-.38,.47-.52,.25-.28,.39-.44,.39-.44l.5,.38Z"/>
            <path class="cls-19" d="M68.71,20.78c3.56-1.72,7.25-3.19,11.05-4.4-3.37,.07-6.72,.63-9.9,1.65,2.52-1.64,5.24-3.02,8.09-4.1-4.67,.46-9.25,1.67-13.47,3.56,3.44-2.97,7.48-5.35,11.84-7.01-3.59,.77-7.07,1.95-10.35,3.49,.07-.06,.14-.11,.21-.17-2.02,.87-4.05,1.75-6.07,2.62,.62-.43,1.24-.85,1.86-1.28-2.84,1.5-5.52,3.27-7.98,5.26-.55,.45-1.1,.92-1.56,1.45-3.84,4.36-7.44,16.94-8.72,18.87,1.32-1.46,2.65-2.91,3.97-4.37-.74,1.36-1.49,2.72-2.23,4.08,.33-.27,.65-.53,.97-.8-1.93,5.72-5.38,11-9.96,15.26,4.34-2.53,5.21-1.98,8.11-5.88-2.08,3.88-1.83,3.6-4.94,6.85,1.2-.71,2.4-1.42,3.6-2.13-.31,.54-.62,1.08-.94,1.62,.56-.8,1.32-1.47,2.22-1.94-.11,.43,.03,.91,.36,1.24,8.05-6.31,10.07-13.56,16.47-20.77-2.66,1.31-5.04,3.09-6.99,5.21,3.45-4,7.3-7.72,11.47-11.1-1.13,.56-2.27,1.12-3.4,1.67,.14-.13,.28-.27,.39-.42-.36,.19-.33-.52,0-.76,3.3-2.4,6.86-4.49,10.61-6.24-3.57,.44-7.03,1.6-10.06,3.38,4.46-2.71,9.42-4.73,14.6-5.95-3.11-.33-6.32,.06-9.23,1.12Z"/>
            <path class="cls-10" d="M59.82,27.44c2.54-1.68,5.07-3.36,7.61-5.04-1.83,.03-3.65,.44-5.29,1.19,1.25-.83,2.51-1.66,3.76-2.49-.76,0-1.52,.12-2.24,.33,1.19-1.11,2.55-2.06,4.03-2.8-3.46,.91-2.47-.17-6.59,1.67,2-2.32,1.47-1.43,4.11-3.12-3.07,.58-6,1.78-8.52,3.49l1.91-.8c-3.6,2.42-6.35,5.92-8.97,9.31,1.63-1.44,3.37-2.76,5.22-3.96-1.05,1.39-2.09,2.78-3.14,4.17,.67-.57,1.33-1.15,2-1.72-1.06,1.37-2.04,2.8-2.93,4.27,1.69-.88,3.21-2.02,4.5-3.36-3,3.94-5.3,8.34-6.76,12.96,1.88-3.14,4.27-6.02,7.05-8.53-.69,.81-1.38,1.61-2.07,2.42,.72-.78,1.49-1.52,2.32-2.21-1.16,1.63-2.2,3.33-3.13,5.08,5.03-4.95,8.69-11.38,15.19-14.57-2.91,.78-5.66,2.05-8.08,3.72Z"/>
            <path class="cls-10" d="M59,21.5c-1.45,1.11-2.75,2.39-3.85,3.8,.91-.55,1.78-1.16,2.59-1.83-.65,.69-1.29,1.38-1.94,2.07,.48-.06,.94-.21,1.36-.42-.96,1.68-2.26,3.19-3.82,4.43,1.83-.93,3.57-2.02,5.18-3.25-.78,.8-1.44,1.69-1.96,2.65,2.45-1.88,4.58-4.08,6.61-6.34-1.21,.73-2.56,1.26-3.97,1.56,.56-.29,1.07-.66,1.51-1.09-.49,.16-.99,.32-1.49,.48,.61-.94,1.21-1.87,1.82-2.81-1.58,.52-3.02,1.37-4.19,2.47l2.13-1.71Z"/>
            <path class="cls-10" d="M50.42,44.13c.32-.36,.64-.72,.95-1.08-.69,.66-1.44,1.26-2.25,1.79,.14-.74,.43-1.46,.84-2.11-.61,.39-1.16,.85-1.62,1.38,.37-.32,.65-.74,.77-1.2-.4,.18-.8,.35-1.2,.53-.01-.19-.02-.37-.04-.56-.68,.56-1.26,1.23-1.71,1.96l.66-1.5c-.54,1.24-1.31,2.4-2.27,3.41,.76-.44,1.5-.91,2.21-1.42-.27,.31-.55,.62-.82,.93,.31-.06,.61-.16,.9-.29-.34,.67-.72,1.32-1.15,1.95,.33-.16,.66-.32,.99-.48-.92,.78-1.62,1.78-2,2.87,1.49-.72,2.68-1.86,3.84-2.99-1,1.05-1.86,2.21-2.56,3.45,1.96-1.51,3.97-3.07,5.16-5.15,.41-.72,.72-1.51,1.27-2.15,.52-.62,1.28-1.99,1.28-1.99,0,0-2,1.93-3.25,2.63Z"/>
            <path class="cls-10" d="M39.76,77.71c-1.06-.05-2.11-.15-3.15-.31,.71,0,1.41,.25,1.94,.68-.17,0-.35,0-.52,.01,.34,.19,.63,.48,.8,.82-.34-.02-.68-.05-1.02-.08,.26,.15,.52,.3,.78,.46-2.92-.95-6.04-1.39-9.13-1.29,1.51-.3,3.05-.46,4.59-.46-1.78-.33-3.63-.11-5.43,.11,.71-.36,1.5-.55,2.3-.6-.15,0-.32-.02-.47-.03,1.19-.52,3.09-.38,4.38-.32,.87,.04,1.73,.14,2.57,.32,.73,.15,1.64,.67,2.35,.7Z"/>
          </g>
        </g>
      </g>
    </g>
  </g>
</svg>