<?xml version="1.0" encoding="UTF-8"?>
<svg id="Layer_2" data-name="Layer 2" xmlns="http://www.w3.org/2000/svg" xmlns:xlink="http://www.w3.org/1999/xlink" viewBox="0 0 222.47 300.34">
  <defs>
    <style>
      .cls-1 {
        fill: url(#linear-gradient-2);
      }

      .cls-2 {
        fill: #fff;
      }

      .cls-3 {
        fill: url(#linear-gradient-17);
      }

      .cls-4 {
        fill: url(#Sfumatura_senza_nome_1518-3);
      }

      .cls-5 {
        fill: url(#Sfumatura_senza_nome_1500);
      }

      .cls-6 {
        fill: url(#Sfumatura_senza_nome_1576-8);
      }

      .cls-7 {
        fill: url(#Sfumatura_senza_nome_1576-3);
      }

      .cls-8 {
        fill: url(#Sfumatura_senza_nome_1576-18);
      }

      .cls-9 {
        fill: url(#linear-gradient-15);
      }

      .cls-10 {
        fill: url(#linear-gradient-18);
      }

      .cls-11 {
        fill: url(#Sfumatura_senza_nome_1478);
      }

      .cls-12 {
        fill: url(#linear-gradient-28);
      }

      .cls-13 {
        fill: url(#Sfumatura_senza_nome_1576-13);
      }

      .cls-14 {
        fill: url(#linear-gradient-14);
      }

      .cls-15 {
        fill: url(#Sfumatura_senza_nome_1576-22);
      }

      .cls-16 {
        fill: url(#linear-gradient-20);
      }

      .cls-17 {
        fill: url(#linear-gradient-6);
      }

      .cls-18 {
        fill: url(#radial-gradient-5);
      }

      .cls-19 {
        fill: url(#radial-gradient-4);
      }

      .cls-20 {
        fill: url(#Sfumatura_senza_nome_1576-7);
      }

      .cls-21 {
        fill: url(#Sfumatura_senza_nome_1576-20);
      }

      .cls-22 {
        fill: #65ffff;
      }

      .cls-23 {
        fill: url(#linear-gradient-32);
      }

      .cls-24 {
        fill: url(#Sfumatura_senza_nome_1565);
      }

      .cls-25 {
        fill: url(#Sfumatura_senza_nome_1576-14);
      }

      .cls-26 {
        fill: url(#linear-gradient-11);
      }

      .cls-27 {
        fill: url(#Sfumatura_senza_nome_1576-6);
      }

      .cls-28 {
        fill: url(#radial-gradient-6);
      }

      .cls-29 {
        fill: #aab3bd;
      }

      .cls-30 {
        fill: url(#Sfumatura_senza_nome_1573);
      }

      .cls-31 {
        fill: url(#Sfumatura_senza_nome_1576-10);
      }

      .cls-32 {
        fill: url(#linear-gradient-10);
      }

      .cls-33 {
        fill: url(#Sfumatura_senza_nome_1518-2);
      }

      .cls-34 {
        fill: url(#Sfumatura_senza_nome_1576-2);
      }

      .cls-35 {
        fill: url(#radial-gradient);
      }

      .cls-36 {
        fill: #e7957c;
      }

      .cls-37 {
        fill: url(#linear-gradient-16);
      }

      .cls-38 {
        fill: url(#linear-gradient-31);
      }

      .cls-39 {
        fill: url(#Sfumatura_senza_nome_1576-4);
      }

      .cls-40 {
        fill: #cf6858;
      }

      .cls-41 {
        fill: #eeb75c;
      }

      .cls-42 {
        fill: url(#linear-gradient-21);
      }

      .cls-43 {
        fill: #fbcc77;
      }

      .cls-44 {
        fill: url(#linear-gradient-25);
      }

      .cls-45 {
        fill: url(#Sfumatura_senza_nome_1518-5);
      }

      .cls-46 {
        fill: url(#linear-gradient-5);
      }

      .cls-47 {
        fill: #ffc29f;
      }

      .cls-48 {
        fill: #cad2dc;
      }

      .cls-49 {
        fill: url(#Sfumatura_senza_nome_1576-16);
      }

      .cls-50 {
        fill: url(#radial-gradient-2);
      }

      .cls-51 {
        fill: url(#Sfumatura_senza_nome_1576-9);
      }

      .cls-52 {
        fill: url(#radial-gradient-3);
      }

      .cls-53 {
        fill: url(#Sfumatura_senza_nome_1576-17);
      }

      .cls-54 {
        fill: url(#linear-gradient-7);
      }

      .cls-55 {
        fill: url(#Sfumatura_senza_nome_1517);
      }

      .cls-56 {
        fill: url(#Sfumatura_senza_nome_1518);
      }

      .cls-57 {
        fill: url(#Sfumatura_senza_nome_1576-21);
      }

      .cls-58 {
        fill: url(#Sfumatura_senza_nome_1576-15);
      }

      .cls-59 {
        fill: url(#Sfumatura_senza_nome_1576);
      }

      .cls-60 {
        fill: url(#linear-gradient-24);
      }

      .cls-61 {
        fill: url(#Sfumatura_senza_nome_1566);
      }

      .cls-62 {
        fill: url(#Sfumatura_senza_nome_1576-23);
      }

      .cls-63 {
        fill: url(#linear-gradient-9);
      }

      .cls-64 {
        fill: #b848a8;
      }

      .cls-65 {
        fill: url(#linear-gradient-22);
      }

      .cls-66 {
        fill: url(#Sfumatura_senza_nome_1518-4);
      }

      .cls-67 {
        fill: url(#Sfumatura_senza_nome_1576-12);
      }

      .cls-68 {
        fill: url(#Sfumatura_senza_nome_1494);
      }

      .cls-69 {
        fill: #8c3778;
      }

      .cls-70 {
        fill: url(#Sfumatura_senza_nome_1576-11);
      }

      .cls-71 {
        fill: url(#linear-gradient-3);
      }

      .cls-72 {
        fill: url(#Sfumatura_senza_nome_1576-19);
      }

      .cls-73 {
        fill: url(#Sfumatura_senza_nome_1576-5);
      }

      .cls-74 {
        fill: url(#linear-gradient);
      }

      .cls-75 {
        fill: url(#linear-gradient-27);
      }

      .cls-76 {
        fill: url(#linear-gradient-33);
      }

      .cls-77 {
        fill: url(#linear-gradient-29);
      }

      .cls-78 {
        fill: #f3ac8e;
      }

      .cls-79 {
        fill: url(#linear-gradient-30);
      }

      .cls-80 {
        fill: #cd9427;
      }

      .cls-81 {
        fill: url(#linear-gradient-23);
      }

      .cls-82 {
        fill: url(#linear-gradient-19);
      }

      .cls-83 {
        fill: #ca5eb3;
      }

      .cls-84 {
        fill: url(#linear-gradient-4);
      }

      .cls-85 {
        fill: url(#Sfumatura_senza_nome_1564);
      }

      .cls-86 {
        fill: url(#linear-gradient-8);
      }

      .cls-87 {
        fill: url(#linear-gradient-12);
      }

      .cls-88 {
        fill: #ffebd2;
      }

      .cls-89 {
        fill: url(#linear-gradient-13);
      }

      .cls-90 {
        fill: url(#linear-gradient-26);
      }
    </style>
    <linearGradient id="linear-gradient" x1="113.54" y1="202.6" x2="113.54" y2="259.2" gradientUnits="userSpaceOnUse">
      <stop offset="0" stop-color="#e7957c"/>
      <stop offset="1" stop-color="#ffc29f"/>
    </linearGradient>
    <linearGradient id="linear-gradient-2" x1="192.11" y1="144.59" x2="199.16" y2="142.42" xlink:href="#linear-gradient"/>
    <radialGradient id="radial-gradient" cx="21.19" cy="-840.39" fx="21.19" fy="-840.39" r="25.05" gradientTransform="translate(67.45 614.16) scale(.83 .54)" gradientUnits="userSpaceOnUse">
      <stop offset="0" stop-color="#ffa68f"/>
      <stop offset="1" stop-color="#ffc29f"/>
    </radialGradient>
    <radialGradient id="radial-gradient-2" cx="301.67" cy="-840.39" fx="301.67" fy="-840.39" r="25.05" gradientTransform="translate(-11.52 614.16) scale(.64 .54)" xlink:href="#radial-gradient"/>
    <linearGradient id="linear-gradient-3" x1="52.91" y1="152.7" x2="40.29" y2="158.2" xlink:href="#linear-gradient"/>
    <linearGradient id="linear-gradient-4" x1="142.52" y1="161" x2="142.52" y2="146.48" gradientUnits="userSpaceOnUse">
      <stop offset="0" stop-color="#ffd7b6"/>
      <stop offset="1" stop-color="#ffc29f"/>
    </linearGradient>
    <linearGradient id="linear-gradient-5" x1="104.43" y1="200.7" x2="105.34" y2="193.72" gradientTransform="translate(7.26 5.15) rotate(-6.35) skewX(-.03)" xlink:href="#linear-gradient-4"/>
    <radialGradient id="radial-gradient-3" cx="29.13" cy="-15.85" fx="29.13" fy="-15.85" r="13.65" gradientTransform="translate(116.61 218.24) rotate(-3.46) scale(.9 .78) skewX(3.42)" gradientUnits="userSpaceOnUse">
      <stop offset="0" stop-color="#db84c9"/>
      <stop offset="1" stop-color="#d86dc0"/>
    </radialGradient>
    <radialGradient id="radial-gradient-4" cx="27.93" cy="-19.18" fx="27.93" fy="-19.18" r="14.8" gradientTransform="translate(116.61 218.24) rotate(-3.46) scale(.9 .78) skewX(3.42)" gradientUnits="userSpaceOnUse">
      <stop offset="0" stop-color="#dedede"/>
      <stop offset="1" stop-color="#d86dc0"/>
    </radialGradient>
    <linearGradient id="linear-gradient-6" x1="86.44" y1="101.85" x2="91.48" y2="114.46" gradientUnits="userSpaceOnUse">
      <stop offset="0" stop-color="#e6fff0"/>
      <stop offset="1" stop-color="#ffc29f"/>
    </linearGradient>
    <linearGradient id="linear-gradient-7" x1="92.28" y1="153.4" x2="92" y2="110.65" gradientUnits="userSpaceOnUse">
      <stop offset="0" stop-color="#292b2e"/>
      <stop offset="1" stop-color="#ffc29f"/>
    </linearGradient>
    <linearGradient id="linear-gradient-8" x1="93.11" y1="134.17" x2="70.79" y2="151.26" xlink:href="#linear-gradient-7"/>
    <radialGradient id="radial-gradient-5" cx="-376.91" cy="-639.64" fx="-376.91" fy="-639.64" r="8.42" gradientTransform="translate(-417.64 858.29) rotate(60.54) scale(.95 1.28) skewX(.24)" gradientUnits="userSpaceOnUse">
      <stop offset="0" stop-color="#e6fff0"/>
      <stop offset="1" stop-color="#ffc29f"/>
    </radialGradient>
    <linearGradient id="linear-gradient-9" x1="95.91" y1="134.37" x2="95.63" y2="111.42" xlink:href="#linear-gradient-7"/>
    <linearGradient id="linear-gradient-10" x1="93.21" y1="123.37" x2="89.41" y2="110.35" xlink:href="#linear-gradient-7"/>
    <linearGradient id="linear-gradient-11" x1="86.77" y1="140.74" x2="73" y2="154.75" xlink:href="#linear-gradient-7"/>
    <linearGradient id="linear-gradient-12" x1="97.11" y1="148.73" x2="97.11" y2="154.66" xlink:href="#linear-gradient-7"/>
    <linearGradient id="linear-gradient-13" x1="87.3" y1="141" x2="119.4" y2="147.86" gradientUnits="userSpaceOnUse">
      <stop offset="0" stop-color="#3c332e"/>
      <stop offset="1" stop-color="#ffd7c0"/>
    </linearGradient>
    <linearGradient id="linear-gradient-14" x1="86.76" y1="140.47" x2="117.17" y2="146.97" gradientUnits="userSpaceOnUse">
      <stop offset="0" stop-color="#1b110b"/>
      <stop offset="1" stop-color="#ffd7c0"/>
    </linearGradient>
    <linearGradient id="linear-gradient-15" x1="96.94" y1="141.73" x2="96.94" y2="131.69" gradientUnits="userSpaceOnUse">
      <stop offset="0" stop-color="#008ec5"/>
      <stop offset="1" stop-color="#0039c5"/>
    </linearGradient>
    <linearGradient id="linear-gradient-16" x1="96.94" y1="141.54" x2="96.94" y2="131.15" gradientUnits="userSpaceOnUse">
      <stop offset="0" stop-color="#00c3c5"/>
      <stop offset="1" stop-color="#0059c5"/>
    </linearGradient>
    <linearGradient id="linear-gradient-17" x1="92.8" y1="129.27" x2="115.54" y2="139.66" gradientUnits="userSpaceOnUse">
      <stop offset="0" stop-color="#000"/>
      <stop offset="1" stop-color="#777"/>
    </linearGradient>
    <linearGradient id="linear-gradient-18" x1="84.21" y1="128.86" x2="123.22" y2="132.45" gradientUnits="userSpaceOnUse">
      <stop offset="0" stop-color="#000"/>
      <stop offset=".48" stop-color="#292b2e"/>
      <stop offset="1" stop-color="#c4d1c9"/>
    </linearGradient>
    <linearGradient id="linear-gradient-19" x1="87.73" y1="125.55" x2="119.04" y2="128.43" gradientUnits="userSpaceOnUse">
      <stop offset="0" stop-color="#252525"/>
      <stop offset=".49" stop-color="#3f6565"/>
      <stop offset="1" stop-color="#d2ffff"/>
    </linearGradient>
    <linearGradient id="linear-gradient-20" x1="-2013.7" y1="102.84" x2="-2008.17" y2="116.66" gradientTransform="translate(-1513.71 -.04) rotate(-180) scale(.85 -1)" xlink:href="#linear-gradient-6"/>
    <linearGradient id="linear-gradient-21" x1="-1998.22" y1="153.43" x2="-1998.5" y2="110.69" gradientTransform="translate(-1513.71 -.04) rotate(-180) scale(.85 -1)" xlink:href="#linear-gradient-7"/>
    <linearGradient id="linear-gradient-22" x1="-1997.86" y1="135.2" x2="-2017.51" y2="150.25" gradientTransform="translate(-1513.71 -.04) rotate(-180) scale(.85 -1)" xlink:href="#linear-gradient-7"/>
    <radialGradient id="radial-gradient-6" cx="-1344.5" cy="627.72" fx="-1344.5" fy="627.72" r="8.42" gradientTransform="translate(-858.3 858.23) rotate(113.43) scale(.9 -1.03) skewX(14.97)" xlink:href="#radial-gradient-5"/>
    <linearGradient id="linear-gradient-23" x1="-1994.94" y1="134.39" x2="-1995.22" y2="111.46" gradientTransform="translate(-1513.71 -.04) rotate(-180) scale(.85 -1)" xlink:href="#linear-gradient-7"/>
    <linearGradient id="linear-gradient-24" x1="-1997.69" y1="123.49" x2="-2001.44" y2="110.62" gradientTransform="translate(-1513.71 -.04) rotate(-180) scale(.85 -1)" xlink:href="#linear-gradient-7"/>
    <linearGradient id="linear-gradient-25" x1="-2003.25" y1="141.01" x2="-2015.88" y2="153.87" gradientTransform="translate(-1513.71 -.04) rotate(-180) scale(.85 -1)" xlink:href="#linear-gradient-7"/>
    <linearGradient id="linear-gradient-26" x1="-1993.85" y1="148.76" x2="-1993.85" y2="154.7" gradientTransform="translate(-1513.71 -.04) rotate(-180) scale(.85 -1)" xlink:href="#linear-gradient-7"/>
    <linearGradient id="linear-gradient-27" x1="-2002.86" y1="141.37" x2="-1973.66" y2="147.61" gradientTransform="translate(-1513.71 -.04) rotate(-180) scale(.85 -1)" xlink:href="#linear-gradient-13"/>
    <linearGradient id="linear-gradient-28" x1="-2003.33" y1="140.8" x2="-1975.67" y2="146.71" gradientTransform="translate(-1513.71 -.04) rotate(-180) scale(.85 -1)" xlink:href="#linear-gradient-14"/>
    <linearGradient id="linear-gradient-29" x1="-1990.16" y1="141.76" x2="-1990.16" y2="131.72" gradientTransform="translate(-1513.71 -.04) rotate(-180) scale(.85 -1)" xlink:href="#linear-gradient-15"/>
    <linearGradient id="linear-gradient-30" x1="-1990.16" y1="141.57" x2="-1990.16" y2="131.19" gradientTransform="translate(-1513.71 -.04) rotate(-180) scale(.85 -1)" xlink:href="#linear-gradient-16"/>
    <linearGradient id="linear-gradient-31" x1="-1997.53" y1="129.3" x2="-1976.67" y2="138.82" gradientTransform="translate(-1513.71 -.04) rotate(-180) scale(.85 -1)" xlink:href="#linear-gradient-17"/>
    <linearGradient id="linear-gradient-32" x1="-2005.5" y1="129.12" x2="-1970.06" y2="132.38" gradientTransform="translate(-1513.71 -.04) rotate(-180) scale(.85 -1)" xlink:href="#linear-gradient-18"/>
    <linearGradient id="linear-gradient-33" x1="-2002.34" y1="125.76" x2="-1973.89" y2="128.38" gradientTransform="translate(-1513.71 -.04) rotate(-180) scale(.85 -1)" xlink:href="#linear-gradient-19"/>
    <linearGradient id="Sfumatura_senza_nome_1518" data-name="Sfumatura senza nome 1518" x1="88.65" y1="-154.38" x2="88.65" y2="191.6" gradientUnits="userSpaceOnUse">
      <stop offset=".02" stop-color="#ae690f"/>
      <stop offset=".63" stop-color="#e0a952"/>
      <stop offset="1" stop-color="#fbcc77"/>
    </linearGradient>
    <linearGradient id="Sfumatura_senza_nome_1573" data-name="Sfumatura senza nome 1573" x1="74.95" y1="-143.95" x2="74.95" y2="188.47" gradientUnits="userSpaceOnUse">
      <stop offset=".02" stop-color="#9e5a00"/>
      <stop offset=".6" stop-color="#cd9338"/>
      <stop offset="1" stop-color="#ebb85b"/>
    </linearGradient>
    <linearGradient id="Sfumatura_senza_nome_1518-2" data-name="Sfumatura senza nome 1518" x1="178.49" y1="167.58" x2="227.89" y2="149.21" xlink:href="#Sfumatura_senza_nome_1518"/>
    <linearGradient id="Sfumatura_senza_nome_1518-3" data-name="Sfumatura senza nome 1518" x1="148.78" y1="200.09" x2="220.55" y2="135.79" xlink:href="#Sfumatura_senza_nome_1518"/>
    <radialGradient id="Sfumatura_senza_nome_1576" data-name="Sfumatura senza nome 1576" cx="-66.09" cy="-165.38" fx="-66.09" fy="-165.38" r="29.23" gradientTransform="translate(111.36 209.59) scale(.95)" gradientUnits="userSpaceOnUse">
      <stop offset="0" stop-color="#ffffd2"/>
      <stop offset=".95" stop-color="#fbd783"/>
      <stop offset="1" stop-color="#fbd680"/>
    </radialGradient>
    <radialGradient id="Sfumatura_senza_nome_1576-2" data-name="Sfumatura senza nome 1576" cx="-54.09" cy="-162.13" fx="-54.09" fy="-162.13" r="20.41" xlink:href="#Sfumatura_senza_nome_1576"/>
    <radialGradient id="Sfumatura_senza_nome_1576-3" data-name="Sfumatura senza nome 1576" cx="-70.09" cy="-140.13" fx="-70.09" fy="-140.13" r="24.21" xlink:href="#Sfumatura_senza_nome_1576"/>
    <radialGradient id="Sfumatura_senza_nome_1576-4" data-name="Sfumatura senza nome 1576" cx="-68.34" cy="-49.8" fx="-68.34" fy="-49.8" r="48.28" xlink:href="#Sfumatura_senza_nome_1576"/>
    <radialGradient id="Sfumatura_senza_nome_1576-5" data-name="Sfumatura senza nome 1576" cx="-68.34" cy="-49.8" fx="-68.34" fy="-49.8" r="48.28" xlink:href="#Sfumatura_senza_nome_1576"/>
    <radialGradient id="Sfumatura_senza_nome_1576-6" data-name="Sfumatura senza nome 1576" cx="-68.34" cy="-49.8" fx="-68.34" fy="-49.8" r="48.28" xlink:href="#Sfumatura_senza_nome_1576"/>
    <radialGradient id="Sfumatura_senza_nome_1576-7" data-name="Sfumatura senza nome 1576" cx="123.3" cy="35.12" fx="123.3" fy="35.12" r="149.16" xlink:href="#Sfumatura_senza_nome_1576"/>
    <radialGradient id="Sfumatura_senza_nome_1576-8" data-name="Sfumatura senza nome 1576" cx="-101.67" cy="34.37" fx="-101.67" fy="34.37" r="27.27" xlink:href="#Sfumatura_senza_nome_1576"/>
    <radialGradient id="Sfumatura_senza_nome_1576-9" data-name="Sfumatura senza nome 1576" cx="-88.89" cy="-98.3" fx="-88.89" fy="-98.3" r="19.55" xlink:href="#Sfumatura_senza_nome_1576"/>
    <radialGradient id="Sfumatura_senza_nome_1576-10" data-name="Sfumatura senza nome 1576" cx="-47.67" cy="-140.63" fx="-47.67" fy="-140.63" r="29.28" xlink:href="#Sfumatura_senza_nome_1576"/>
    <radialGradient id="Sfumatura_senza_nome_1576-11" data-name="Sfumatura senza nome 1576" cx="-42.01" cy="38.87" fx="-42.01" fy="38.87" r="28.22" xlink:href="#Sfumatura_senza_nome_1576"/>
    <radialGradient id="Sfumatura_senza_nome_1576-12" data-name="Sfumatura senza nome 1576" cx="-50.94" cy="35.47" fx="-50.94" fy="35.47" r="22.65" xlink:href="#Sfumatura_senza_nome_1576"/>
    <radialGradient id="Sfumatura_senza_nome_1576-13" data-name="Sfumatura senza nome 1576" cx="35.01" cy="60.03" fx="35.01" fy="60.03" r="20.52" xlink:href="#Sfumatura_senza_nome_1576"/>
    <linearGradient id="Sfumatura_senza_nome_1566" data-name="Sfumatura senza nome 1566" x1="139.91" y1="183.82" x2="139.91" y2="279.47" gradientUnits="userSpaceOnUse">
      <stop offset=".02" stop-color="#a2620f"/>
      <stop offset=".62" stop-color="#d3a04e"/>
      <stop offset="1" stop-color="#efc373"/>
    </linearGradient>
    <linearGradient id="Sfumatura_senza_nome_1565" data-name="Sfumatura senza nome 1565" x1="139.91" y1="183.82" x2="139.91" y2="279.47" gradientUnits="userSpaceOnUse">
      <stop offset=".02" stop-color="#925606"/>
      <stop offset=".59" stop-color="#c08d3c"/>
      <stop offset="1" stop-color="#dfb260"/>
    </linearGradient>
    <linearGradient id="Sfumatura_senza_nome_1564" data-name="Sfumatura senza nome 1564" x1="139.91" y1="183.82" x2="139.91" y2="279.47" gradientUnits="userSpaceOnUse">
      <stop offset=".02" stop-color="#824a01"/>
      <stop offset=".57" stop-color="#af7d30"/>
      <stop offset="1" stop-color="#cfa252"/>
    </linearGradient>
    <radialGradient id="Sfumatura_senza_nome_1576-14" data-name="Sfumatura senza nome 1576" cx="21.66" cy="-145.13" fx="21.66" fy="-145.13" r="63.01" xlink:href="#Sfumatura_senza_nome_1576"/>
    <radialGradient id="Sfumatura_senza_nome_1500" data-name="Sfumatura senza nome 1500" cx="23.73" cy="-144.64" fx="23.73" fy="-144.64" r="58.87" gradientTransform="translate(111.36 209.59) scale(.95)" gradientUnits="userSpaceOnUse">
      <stop offset="0" stop-color="#fce8a3"/>
      <stop offset="1" stop-color="#fbd680"/>
    </radialGradient>
    <linearGradient id="Sfumatura_senza_nome_1518-4" data-name="Sfumatura senza nome 1518" x1="135.91" y1="157.22" x2="135.91" y2="75.51" xlink:href="#Sfumatura_senza_nome_1518"/>
    <linearGradient id="Sfumatura_senza_nome_1494" data-name="Sfumatura senza nome 1494" x1="134.31" y1="150.17" x2="134.31" y2="86.85" gradientUnits="userSpaceOnUse">
      <stop offset=".02" stop-color="#823e00"/>
      <stop offset=".64" stop-color="#c28430"/>
      <stop offset="1" stop-color="#e3a949"/>
    </linearGradient>
    <radialGradient id="Sfumatura_senza_nome_1478" data-name="Sfumatura senza nome 1478" cx="40.76" cy="-202.49" fx="40.76" fy="-202.49" r="88.55" gradientTransform="translate(111.36 209.59) scale(.95)" gradientUnits="userSpaceOnUse">
      <stop offset=".02" stop-color="#ae690f"/>
      <stop offset=".63" stop-color="#e0a952"/>
      <stop offset="1" stop-color="#fbcc77"/>
    </radialGradient>
    <radialGradient id="Sfumatura_senza_nome_1517" data-name="Sfumatura senza nome 1517" cx="41.06" cy="-202.49" fx="41.06" fy="-202.49" r="88.32" gradientTransform="translate(111.36 209.59) scale(.95)" gradientUnits="userSpaceOnUse">
      <stop offset=".02" stop-color="#a15d04"/>
      <stop offset=".6" stop-color="#d0973e"/>
      <stop offset="1" stop-color="#eebc62"/>
    </radialGradient>
    <radialGradient id="Sfumatura_senza_nome_1576-15" data-name="Sfumatura senza nome 1576" cx="79.16" cy="-155.63" fx="79.16" fy="-155.63" r="41.88" xlink:href="#Sfumatura_senza_nome_1576"/>
    <radialGradient id="Sfumatura_senza_nome_1576-16" data-name="Sfumatura senza nome 1576" cx="79.16" cy="-155.63" fx="79.16" fy="-155.63" r="41.88" xlink:href="#Sfumatura_senza_nome_1576"/>
    <radialGradient id="Sfumatura_senza_nome_1576-17" data-name="Sfumatura senza nome 1576" cx="79.16" cy="-155.63" fx="79.16" fy="-155.63" r="41.88" xlink:href="#Sfumatura_senza_nome_1576"/>
    <radialGradient id="Sfumatura_senza_nome_1576-18" data-name="Sfumatura senza nome 1576" cx="89.9" cy="-142.34" fx="89.9" fy="-142.34" r="23.5" xlink:href="#Sfumatura_senza_nome_1576"/>
    <radialGradient id="Sfumatura_senza_nome_1576-19" data-name="Sfumatura senza nome 1576" cx="68.66" cy="-145.13" fx="68.66" fy="-145.13" r="14.42" xlink:href="#Sfumatura_senza_nome_1576"/>
    <radialGradient id="Sfumatura_senza_nome_1576-20" data-name="Sfumatura senza nome 1576" cx="113.1" cy="-57.21" fx="113.1" fy="-57.21" r="24.79" xlink:href="#Sfumatura_senza_nome_1576"/>
    <radialGradient id="Sfumatura_senza_nome_1576-21" data-name="Sfumatura senza nome 1576" cx="-84.36" cy="1.87" fx="-84.36" fy="1.87" r="43.27" xlink:href="#Sfumatura_senza_nome_1576"/>
    <radialGradient id="Sfumatura_senza_nome_1576-22" data-name="Sfumatura senza nome 1576" cx="-66.87" cy=".44" fx="-66.87" fy=".44" r="37.72" xlink:href="#Sfumatura_senza_nome_1576"/>
    <radialGradient id="Sfumatura_senza_nome_1576-23" data-name="Sfumatura senza nome 1576" cx="-72.72" cy="-143.25" fx="-72.72" fy="-143.25" r="15.53" xlink:href="#Sfumatura_senza_nome_1576"/>
    <linearGradient id="Sfumatura_senza_nome_1518-5" data-name="Sfumatura senza nome 1518" x1="163.51" y1="227.52" x2="163.51" y2="348.39" xlink:href="#Sfumatura_senza_nome_1518"/>
  </defs>
  <g id="Head_5">
    <g>
      <g>
        <g>
          <path class="cls-74" d="M84.83,193.64c4.07,38.28-6.11,72.89-50.5,79.41,0,0,21.99,6.52,39.09,15.88,17.11,9.37,50.9,19.55,76.56-.41,25.66-19.96,42.76-21.18,42.76-21.18,0,0-45.61,8.55-52.53-42.76l-55.38-30.95Z"/>
          <path class="cls-36" d="M119.44,241.69c9.95,1.4,17.87-1.69,23.35-5.21-1.11-3.56-1.99-7.5-2.58-11.9l-55.38-30.95c.85,8,1.08,15.84,.5,23.3,1.26,.82,2.46,1.73,3.59,2.76,9.68,8.77,16.3,20,30.52,21.99Z"/>
          <path class="cls-40" d="M84.83,193.64c1.68,16.26,1.16,33.63-5.82,48.71-3.18,6.88-7.82,13.02-13.69,17.84-6.69,5.49-14.78,8.99-23.13,11.06-2.61,.65-5.26,1.14-7.93,1.54-.28,.04-.24,.45,0,.52,5.47,1.63,10.87,3.56,16.21,5.59,5.09,1.94,10.12,4.04,15.04,6.35,4.18,1.96,8.17,4.29,12.34,6.26,16.16,7.66,35.28,11.4,52.85,6.85,4.92-1.27,9.65-3.27,14.02-5.87,2.47-1.47,4.73-3.2,7.01-4.93,2.48-1.88,5.02-3.69,7.61-5.42,7.38-4.92,15.3-9.21,23.7-12.11,3.08-1.06,6.42-2.15,9.7-2.39-.03-.2-.05-.4-.08-.59-5.28,.99-11.03,.67-16.29-.25-11.49-2-21.58-8.32-27.89-18.21-4.59-7.2-7-15.65-8.15-24.04-.02-.16-.27-.09-.25,.07,1.14,8.34,3.41,16.59,7.82,23.83,3.23,5.29,7.62,9.81,12.88,13.11,7.78,4.87,17.15,6.85,26.26,6.6,1.92-.05,3.88-.16,5.77-.52,.33-.06,.26-.62-.08-.59-2.78,.2-5.57,1.03-8.21,1.86-7.79,2.44-15.15,6.21-22.07,10.5-2.49,1.55-4.93,3.18-7.32,4.89-2.53,1.79-4.93,3.76-7.46,5.55-4.35,3.08-9.18,5.44-14.24,7.08-9.45,3.07-19.61,3.39-29.39,1.97-8.65-1.25-17.13-3.88-25.08-7.51-4.06-1.86-7.93-4.12-11.96-6.06-4.81-2.32-9.75-4.39-14.72-6.33-5.88-2.28-11.84-4.42-17.89-6.21v.52c8.91-1.33,17.68-3.97,25.41-8.67,6.44-3.91,11.9-9.28,15.96-15.62,8.59-13.43,10.44-30.04,9.8-45.64-.13-3.25-.39-6.5-.74-9.74,0,0-.01,0,0,0h0Z"/>
        </g>
        <g>
          <path class="cls-40" d="M198.6,134.27c-.22-.91-.53-2.01-1.37-2.81l-.42,.44,.42-.44c-.94-.89-2.13-1.34-3.36-1.34-.15,0-.31,0-.46,.02,.58-3.56,1.56-7.18,1.56-10.94,0-.19,0-.39,0-.58-.06-2.09-.47-4.14-1.14-6.09-.19-.55-.4-1.1-.62-1.64-.05-.12-.1-.2-.12-.25,0-.01-.01-.03-.01-.03,0-.19-.02-.39-.03-.58-.38-7.29-1.17-14.57-2.3-21.77-.63-4.05-1.4-8.07-2.71-12.01-1.16-3.47-2.66-6.84-4.45-10.03-3.61-6.39-8.43-12.07-14.1-16.71-5.88-4.81-12.64-8.49-19.83-10.91-7.22-2.43-14.74-3.5-22.31-3.5-1.27,0-2.54,.03-3.81,.09-9.81,.45-19.58,2.4-28.86,5.59-18.21,6.26-35.13,18.28-44.28,35.57-4.77,9.02-7.32,19.06-7.87,29.21-.07,1.26-.1,2.51-.1,3.77,0,3.89,.3,7.76,.71,11.61,.56,5.16,1.35,10.3,2.45,15.38,.13,.58,.26,1.15,.39,1.73-1.17-.7-2.53-1.2-3.93-1.21-.53,0-1.06,.07-1.58,.24-1.49,.48-2.43,1.52-2.94,2.71-.51,1.19-.66,2.53-.68,3.78,0,.15,0,.3,0,.46,0,3,.53,5.99,1.17,8.85,.71,3.2,1.62,6.38,2.78,9.46,1.15,3.05,2.66,5.82,4.74,8.37,2.16,2.62,5.37,5.77,9.31,5.8,.29,0,.58-.02,.87-.05,1.69-.21,3.36-1.03,4.25-2.66,.04-.07,.07-.13,.11-.2,.47,1.21,1,2.4,1.54,3.55,2.16,4.61,4.8,9,7.8,13.1,4.35,5.97,9.48,11.36,15.2,16.02,3.45,2.81,7.12,5.36,10.95,7.63,4.08,2.42,8.22,4.79,12.46,6.94,8.52,4.32,17.82,7.92,27.6,8.04,.14,0,.27,0,.41,0,4.18,0,8.29-.72,12.17-2.34,3.73-1.56,7.11-3.8,10.19-6.36,3.14-2.61,5.99-5.54,8.72-8.54,2.93-3.21,5.87-6.46,8.56-9.92,5.89-7.57,10.76-15.98,14.6-24.75,1.92-4.4,3.63-8.94,4.79-13.63,.54-2.21,1.01-4.51,1.01-6.86,0-.07,0-.13,0-.19,0-.1,0-.16,0-.21,0-.1,0-.1,.02-.12,.06-.12,.11-.24,.16-.36,.12-.28,.23-.56,.33-.84,.22-.62,.42-1.25,.6-1.88,.88-3.13,1.4-6.36,1.69-9.58,.13-1.39,.23-2.84,.23-4.29,0-1.59-.12-3.18-.49-4.73Z"/>
          <g>
            <g>
              <path class="cls-1" d="M190.91,131.67s3.25-2.28,5.91,.23c3.67,3.47,.41,23.59-2.44,25.44-2.85,1.85-4.07-6.48-4.07-6.48l.61-19.2Z"/>
              <path class="cls-47" d="M59.99,171.52s7.74,25.38,36.24,42.08c12.61,7.39,27.25,15.6,42.39,14.59,14.49-.97,23.98-12.33,32.95-22.47,14.66-16.56,23.89-40.17,23.89-49.14,0-10.99-4.07-17.92-2.72-26.06,1.36-8.14,2.99-12.22-.27-19.82,0,0-.51-12.31-2.95-26.15-4.4-24.95-25.04-44.59-52.53-48.25-8.81-1.17-18.95-.48-27.7,1.24-8.29,1.62-17.21,4.32-24.75,8.17-9.92,5.06-21.35,12.56-27.92,21.76-3.88,5.43-7.49,11.91-9.65,18.24-3.26,9.56-4.49,19.76-3.71,29.82,.62,7.95,1.78,16.21,3.7,23.96,0,0-5.16-4.34-8.42-.27-3.26,4.07,1.63,21.99,4.89,27.42,3.26,5.43,7.87,9.77,12.22,9.23,4.34-.54,4.34-4.34,4.34-4.34Z"/>
              <path class="cls-35" d="M84.97,144.1c-15.45,0-27.96,8.14-27.96,18.19s12.52,18.19,27.96,18.19,27.96-8.14,27.96-18.19-12.52-18.19-27.96-18.19Z"/>
              <path class="cls-50" d="M194.57,147.36c-3.52-2.06-7.79-3.26-12.41-3.26-11.99,0-21.72,8.14-21.72,18.19s9.72,18.19,21.72,18.19c2.15,0,4.23-.27,6.2-.76,4.55-9.66,7.11-18.42,7.11-23.14,0-3.41-.39-6.44-.89-9.22Z"/>
            </g>
            <g>
              <path class="cls-71" d="M40.24,143.76s-1.02,7.53,2.85,15.48c3.87,7.94,5.7,9.16,6.92,9.16s.81-3.46,3.87-3.66l-2.24-2.04-1.02-5.09v-6.31l-3.46-6.31-3.46-2.24s-1.42,0-3.46,1.02Z"/>
              <path class="cls-36" d="M53.88,156.18c-1.42-3.46-8.76-19.14-13.85-12.01,0,0,5.09-1.63,7.74,4.68,.18,.42,.33,.82,.46,1.21-2.01,.52-5.31,2.51-3.11,9.99v-.81s-.33-6.56,3.73-6.99c.79,3.85-.42,5.87,.55,9.43,1.22,4.48,4.68,3.05,4.68,3.05-3.05-1.83-3.26-6.51-.2-8.55Z"/>
              <path class="cls-40" d="M40.05,144.18c4.26-5.18,9.4,3.9,11.19,7.09,.62,1.09,1.18,2.22,1.72,3.36,.19,.4,.37,.8,.55,1.2,.11,.24,.16,.27,.06,.34-.35,.25-.65,.57-.93,.91-1.95,2.36-1.27,6.27,1.39,7.76,.13,.08,.24-.11,.12-.2-2.82-2-3.12-6.23-.16-8.28,.07-.05,.12-.14,.09-.22-1.48-3.65-8.95-19.77-14.05-11.97-.01,.02,.02,.04,.03,.02h0Z"/>
            </g>
          </g>
          <g>
            <g>
              <g>
                <path class="cls-36" d="M128,172.87s.2-3.06,5.29-2.85c5.09,.2,6.72,2.24,10.38,1.83,3.67-.41,6.31-2.24,6.31-2.24,0,0-.2,5.09-5.5,7.13,0,0-1.02,4.89-5.5,4.89s-8.75-1.83-11-7.94v-.81Z"/>
                <path class="cls-40" d="M131.56,172.26s1.53,2.44,4.99,1.12c0,0-1.83-1.73-4.99-1.12Z"/>
                <path class="cls-78" d="M136.69,171.38s3.73,1.56,6.65,1.43c2.92-.14,4.82-1.22,4.82-1.22,0,0-1.56,2.85-5.91,3.19,0,0-1.63-.2-2.78-1.02-1.15-.81-1.76-1.9-2.78-2.38Z"/>
                <path class="cls-40" d="M129.97,173.08c-.07,.07,.02,.19,.1,.14,1.39-.84,2.74-1.08,4.32-.7,1.35,.33,2.39,1.24,3.47,2.05,.09,.06,.16-.07,.1-.14-1.96-2.47-5.48-3.66-8-1.36Zm19.26-2.15c-1.35,3.12-4.23,3.99-7.28,4.85-.1,.03-.06,.18,.04,.16,2.88-.76,6.44-1.69,7.39-4.94,.03-.09-.12-.16-.16-.07Z"/>
              </g>
              <path class="cls-84" d="M136.69,159.84c.82,2.89,2.53,9.53,6.24,9.23,10.18-.81,5.07-23.91-1.09-24.43-4.78-.4-6.32,11.11-5.16,15.21Z"/>
              <path class="cls-47" d="M133.69,161.11s10.6-4.28,16.25,.62l.31-1.82s-8.54-5.21-17.73,.14l1.17,1.06Z"/>
            </g>
            <path class="cls-88" d="M146.08,162.75c0,.86-1.02,1.55-2.27,1.55s-2.27-.7-2.27-1.55,1.01-1.56,2.27-1.56,2.27,.7,2.27,1.56Z"/>
          </g>
        </g>
      </g>
      <g>
        <path class="cls-47" d="M144.02,179.71c-.94,1.57-2.59,3.09-5.18,3.09-3.4,0-6.16-1.02-8.26-3.04-23.25,.45-45.76,2.63-45.76,2.63,0,0,28.78,39.91,55.11,37.74,0,0,5.97,2.44,18.73-11.4,12.76-13.85,18.19-27.15,18.19-27.15,0,0-10.73-1.63-32.83-1.87Z"/>
        <g>
          <path class="cls-36" d="M134.1,207.78c2.98,.12,5.97,.12,8.97-.01,.08,0-4.5,3.41-8.97,.01Z"/>
          <g>
            <g>
              <path class="cls-46" d="M101.3,184.18c.08,.5,18.66,2.5,27.1,2.23,8.5,.24,10.44,2.55,17.72-.14,.03,.12,8.84-1.64,11.77-1.49,2.94,.36,7.33,.73,7.34,.71,.09,.03-5.1,5.61-8.72,6.92-3.33,2.11-24.01,4.62-24.08,3.99-7.41-.68-14.65-2.2-21.55-4.5-1.9-1.23-3.73-2.51-5.48-3.85-1.43-1.26-2.8-2.55-4.11-3.87Z"/>
              <path class="cls-88" d="M107.47,188.68s6.56,2.27,12.17,2.17c5.56,.06,13.17,.19,15.78,.03,2.57-.09,4.75,2.08,4.77,2.09,.02,0,2.45-2.42,4.68-2.73,2.26-.3,4.46,.13,6.78,.19,2.3,.1,7.92-.93,11.88-3.63,.03,.01-2.6,2.75-3.2,3.08-.4,.61-13.16,5.69-15.14,5.98-1.77,.82-13.5,1.73-15.3,1.16-8.03-1.85-15.57-4.69-22.42-8.33Z"/>
            </g>
            <g>
              <g>
                <path class="cls-83" d="M101.28,184.86c-.42,.16,10.8,11.88,16.84,15.36,5.42,3.73,12.08,6.97,21.17,6.57,9.12-.47,14.67-4.58,15.91-7.88,1.68-3.2,10.27-12.44,10-12.55-2.23,1.7-4.56,3.31-7.02,4.82-4.81,1.66-9.78,2.94-14.84,3.81-5.13,.4-10.28,.39-15.38-.03-4.66-.63-9.24-1.61-13.69-2.91-2.89-1.08-5.71-2.29-8.43-3.63-1.58-1.15-3.1-2.34-4.56-3.57Z"/>
                <path class="cls-52" d="M116.57,196.93s2.28-.71,7.41,.68c5.13,1.4,12.34,2.88,17.85,1.8,5.54-.99,11.15-4.45,12.71-4.25,2.51,.32-1.11,5.47-1.73,6.02-4.27,4.52-12.66,5.45-19.6,4.25-3.15-.52-6.2-1.39-8.89-2.68-.95-.3-8.22-5.65-7.76-5.83Z"/>
                <path class="cls-19" d="M128.15,203.13c-.07,.02,7.48,2.73,14.62,1.47,7.07-1.26,8.96-4.11,8.07-4.86-.87-.84-2.79,1.96-9.57,2.51-6.77,.49-11.67-.91-11.64-.89,.01,.02-4.13,.22-1.47,1.77Z"/>
              </g>
              <path class="cls-83" d="M165.3,185.45c-2.44,4.73-12.17,9.93-18.99,11.05-.19-.03-.39-.06-.57-.09-1.43,.66-3.15,1.34-5.01,1.58-1.41-.21-2.8-.44-4.45-.69-.44,.04-.87,.07-1.31,.11-11.52,.17-25.05-3.06-34.17-13.26-.13,0,7.08,6.25,14.87,7.04,7.61,.99,16.77,.53,19.57,.47,2.78,.04,5.19,2.3,5.21,2.31,.02,0,2.48-2.44,4.34-2.94,1.87-.45,6.49,.46,9.3,.05,5.27-.61,11.31-5.62,11.22-5.64Z"/>
              <path class="cls-64" d="M134.97,197.42c.44-.03,.88-.07,1.31-.11,1.65,.25,3.04,.48,4.45,.69,1.85-.24,3.58-.92,5.01-1.58,.19,.03,.38,.06,.57,.09,6.82-1.12,16.56-6.32,18.99-11.05,.03,0-3.65,3.18-7.91,4.76-2.42,2.75-12.28,4.87-12.29,4.73,0,0-1.63,1.1-3.85,1.54-2.22,.44-4.39-.66-4.39-.66,0,0-5.38,.32-11.61-.38-5.48-.55-10.99-3.86-12.21-4.74-6.8-1.64-12.3-6.56-12.24-6.55,9.12,10.19,22.65,13.43,34.17,13.26Z"/>
              <path class="cls-69" d="M100.85,184.13c-.06-.06-.15,.01-.09,.07,7.8,8.88,20.75,13.87,34.22,13.27,.08,0,.09-.11,0-.11-13.2-.31-26.1-4.49-34.13-13.24Zm44.79,12.16c-1.41,.46-2.83,.9-4.31,1.22-1.62,.35-3.42-.06-5.03-.26-.12-.01-.13,.11-.02,.13,1.05,.2,2.11,.4,3.17,.6,1.46,.27,.74,.49,2.08,.29,1.64-.25,3.09-.98,4.36-1.75,.19-.12-.04-.31-.24-.24Zm19.56-10.88c-2.27,2.57-4.56,4.87-7.98,6.7-3.36,1.79-7.04,3.36-10.93,4.32-.16,.04-.11,.2,.05,.18,4.15-.64,7.98-2.01,11.37-4,2.93-1.69,6.8-4.35,7.73-7.11,.04-.12-.14-.18-.24-.08Z"/>
            </g>
          </g>
        </g>
      </g>
      <g>
        <path class="cls-47" d="M174.59,103.46l-10.18,.81-3.26-.81s-20.77,2.44-39.91-1.22l-12.62,1.22-19.14-1.63-8.55,4.07s-12.62,4.89-8.96,31.76c0,0,6.92,12.22,25.65,13.44,18.73,1.22,32.16-2.85,44.8-2.85,15.88,0,27.28,3.26,35.84,2.04,6.45-.92,12.9-5.78,16.21-9.87-.56-3.11-.86-6.1-.32-9.27,1.26-7.57,2.76-11.63,.34-18.27l-6.04-7.38-13.85-2.04Z"/>
        <g>
          <path d="M74.54,114.59s3.53-9.23,16.29-10.32c12.76-1.09,21.99,3.26,27.96,3.26,0,0,2.17-2.44,2.71-5.43,0,0-11.95-2.17-19.82-3.26-7.87-1.09-21.17,0-27.15,15.75Z"/>
          <path d="M195.49,115.68s-2.61-9.23-12.05-10.32c-9.44-1.09-16.27,3.26-20.69,3.26,0,0-1.61-2.44-2.01-5.43,0,0,8.84-2.17,14.66-3.26,5.83-1.09,15.67,0,20.09,15.75Z"/>
        </g>
        <g>
          <path class="cls-17" d="M73.58,119.99s6.65-22.17,35.15-12.67c0,0-15.1,2.74-18.37,5.38-3.33,2.69-10.13,7.92-16.78,7.28Z"/>
          <g>
            <path class="cls-54" d="M69.23,131.6s4.53-12.62,16.33-16.41c11.88-3.82,25.77,5.64,29.29,15.57,3.49,9.86-40.12,2.89-40.12,2.89l-5.5-2.05Z"/>
            <path class="cls-86" d="M69.07,133.29s6.41,17.1,23.75,17.57c17.34,.48-15.68-15.44-15.68-15.44l-4.99-.95-3.09-1.19Z"/>
            <path class="cls-18" d="M120,149.84c-5.16,2.93-11.1,2.2-13.27-1.65-2.17-3.84,.25-9.34,5.41-12.27,5.16-2.93,11.1-2.2,13.27,1.65,2.17,3.84-.25,9.34-5.41,12.27Z"/>
            <path class="cls-63" d="M72.58,133.05s2.02-10.23,11.15-14.89c9.2-4.69,29.17-3.62,35.58,23.3l-11.96-2.25-28.33-4.08-3.5,1.24-2.94-3.32Z"/>
            <path class="cls-32" d="M75.21,133.93s2.89-13.2,16.63-16.38c13.84-3.21,25.19,14.36,26.46,19.55,1.27,5.17-13.14,11.16-13.86,10.88-.72-.29-26.96-9.68-26.96-9.68l-2.27-4.37Z"/>
          </g>
          <g>
            <g>
              <g>
                <path class="cls-26" d="M72.25,134.71s4.12,16.47,24.38,16.78l1.43-9.02-16.31-8.71-9.5,.95Z"/>
                <path class="cls-87" d="M78.11,139.46s4.59,11.24,17.42,12.03c12.83,.79,20.58-6.65,20.58-6.65l-38-5.38Z"/>
                <path d="M117.77,143.98l-4.04-1.07-35.32-6.77-2.69,1.11s1.29,1.44,1.86,2.09c-.03,.28-.18,.53-.37,.74l-.06,.08c.24-.17,.75-.18,1.1-.09,.19,.2,.39,.41,.61,.64,.13,.32-.03,.75-.26,.98l.18-.14c.26-.11,.59-.11,.88-.05,.06,.05,.11,.11,.17,.16,.08,.29,.03,.52-.18,.78l-.12,.24c.23-.37,.8-.32,1.21-.19,.53,.48,1.11,.96,1.73,1.44,0,0,0,0,0,.01,.12,.13,.28,.22,.42,.34,.25,.22,.47,.44,.62,.74,.19,.37,.02,.71-.12,1.07l-.04,.16c.05-.16,.41-.3,.56-.37,.25-.11,.51-.15,.79-.16,.13,0,.25,.01,.37,.03,.03,.02,.06,.04,.09,.06,0,.02,0,.03,.01,.04,.04,.08,.18,.14,.25,.19,.14,.1,.25,.21,.34,.35,.14,.23,.17,.58,.05,.83l-.12,.4c.37-.5,.96-.57,1.55-.63,.04,.02,.09,.05,.13,.07,.16,.15,.4,.33,.46,.41,.18,.23,.3,.67,.19,.96l-.06,.4c.07-.26,.26-.49,.49-.64,.15-.09,.32-.16,.49-.21,.06-.02,.23-.05,.35-.08,.51,.19,1.02,.36,1.54,.51,.04,.02,.1,.05,.15,.07,.26,.1,.52,.22,.73,.42,.19,.18,.34,.56,.24,.81l.04,.04c.2-.29,.44-.43,.77-.56,.21-.09,.41-.16,.63-.19,.03,0,.07,0,.1,0,.96,.16,1.93,.27,2.89,.35,.16,.03,.33,.07,.48,.14,.18,.08,.58,.43,.49,.66l.1,.3c.03-.32,.16-.5,.44-.67,.27-.17,.56-.22,.84-.31,1.35,.03,2.68-.01,3.99-.12,.25,.05,.64,0,.83,.03,.29,.05,.61,.16,.77,.44l.06,.36c-.03-.47,.72-.94,1.07-1.13,.02,0,.04-.02,.05-.02,.1-.01,.19-.03,.29-.05,.6,0,1.45-.14,1.76,.43l-.02-.04c.05-.31,.15-.49,.44-.67,.16-.1,.47-.19,.66-.32,.17-.04,.34-.09,.51-.14,.47-.04,1.12-.09,1.33,.32l.04,.04c-.19-.45,.61-.73,.81-1.03,.34-.12,.67-.26,1-.39,.22-.02,.48,.01,.58,.15v-.02c.01-.15,.06-.26,.17-.38,.04-.04,.11-.09,.17-.15,1.74-.79,3.28-1.72,4.5-2.78Z"/>
                <path d="M90.43,145.3c-1.68,.56-2.37,2.55-2.6,4.13,0,.01,.02,.02,.02,0,.13-.76,.33-1.47,.7-2.15,.46-.85,1.16-1.31,1.95-1.8,.09-.06,.04-.22-.08-.18Zm3.49,.78c-1.58,.81-1.97,2.85-1.96,4.46,0,.01,.02,.01,.02,0,.05-1.85,.64-3.13,2.06-4.3,.09-.08-.02-.21-.12-.16Zm-5.47-1.53c-1.71,.32-2.6,2.27-3,3.77,0,.01,.02,.02,.02,0,.22-.74,.51-1.44,.95-2.07,.54-.78,1.28-1.13,2.1-1.52,.11-.05,.03-.2-.08-.18Zm10.07,1.73c-1.35,1.16-1.31,3.19-.95,4.78,0,.01,.02,0,.02,0-.35-1.79-.06-3.19,1.07-4.63,.08-.1-.04-.23-.14-.14Zm7.08,.11c-.07-.03-.11,.08-.05,.11,1.38,.85,1.91,2.28,2.23,3.82,0,0,.01,0,.01,0-.26-1.36-.74-3.35-2.2-3.92Zm2.5-.33c-.08-.02-.1,.09-.03,.12,1.5,.63,2.29,1.9,2.88,3.37,0,0,.02,0,.01,0-.49-1.3-1.33-3.16-2.86-3.48Zm-5.12,.7c-.06-.04-.13,.05-.07,.1,1.25,1.08,1.47,2.66,1.51,4.23,0,0,.01,0,.01,0-.01-1.4-.09-3.5-1.45-4.33Zm7.14-2.58c-.08-.01-.11,.09-.03,.12,1.53,.56,2.34,1.83,2.97,3.27,0,0,.01,0,.01,0-.52-1.25-1.42-3.16-2.95-3.39Zm-27.5-3.05c-1.76-.18-3.22,1.34-4.08,2.69,0,.01,.01,.02,.02,.01,.47-.7,1.01-1.3,1.71-1.79,.73-.5,1.5-.6,2.35-.71,.13-.02,.13-.19,0-.2Zm-.71-.36c.11,0,.14-.17,.03-.2-1.74-.38-3.36,.9-4.4,2.14-.01,.01,0,.03,.01,.02,.5-.57,1.05-1.06,1.71-1.45,.85-.49,1.7-.52,2.65-.52Zm-1.02-1.37c.13,.02,.18-.15,.05-.19-1.69-.59-3.42,.46-4.63,1.56,0,0,0,.03,.02,.02,1.38-1.2,2.74-1.64,4.56-1.39Zm5.41,4.28c-1.8,.2-2.94,2.13-3.51,3.65,0,.01,.02,.02,.02,0,.33-.81,.74-1.55,1.34-2.2,.62-.67,1.35-.94,2.18-1.27,.1-.04,.09-.21-.03-.2Z"/>
                <path class="cls-89" d="M78.97,137.96s5.33,9.91,19.25,10.69c11.4,.63,20.11-4.91,20.11-4.91l1.9-.32-3.96-1.9-37.3-3.56Z"/>
              </g>
              <g>
                <path class="cls-14" d="M78.82,137.8s7.24,8.55,17.58,9.74c10.33,1.19,20.66-3.92,21.49-4.63,.83-.71-8.08-2.73-9.02-2.73s-27.79-4.99-27.79-4.99l-2.26,2.61Z"/>
                <path class="cls-2" d="M79.54,137.33s7.74,9.98,19.31,9.98,18.93-4.28,18.93-4.28l2.38,.24-1.19-2.14s-4.04-7.6-9.74-9.97c-5.7-2.38-15.67-2.85-15.67-2.85l-11.16,3.32-2.85,5.7Z"/>
                <path class="cls-48" d="M109.22,131.15c-5.7-2.38-15.67-2.85-15.67-2.85l-11.16,3.32-2.85,5.7s3.72,4.79,9.85,7.73c-1.56-1.57-4.69-5.04-4.15-7.02,.71-2.61,16.86-6.18,26.36-1.9,0,0,4.94,2.38,7.76,5.69l-.39-.71s-4.04-7.6-9.74-9.97Z"/>
                <path class="cls-29" d="M99.49,132.58c8.99,.14,14.62,3.24,17.79,5.87-1.7-2.43-4.56-5.84-8.05-7.29-5.7-2.38-15.67-2.85-15.67-2.85l-11.16,3.32-2.85,5.7s.46,.59,1.31,1.48c1.54-1.96,6.39-6.41,18.64-6.22Z"/>
              </g>
              <path d="M79.05,141.13s-3.8-2.73-7.84-3.44l3.33-.71h2.73l1.66,2.49,.12,1.66Z"/>
            </g>
            <g>
              <path class="cls-9" d="M85.81,136.17c0,6.15,4.98,11.13,11.13,11.13s11.13-4.98,11.13-11.13c0-3.57-1.68-6.75-4.3-8.78-2.43-1.23-5.15-1.83-8.05-1.53-1.88,.2-3.67,.65-5.33,1.32-2.78,2.02-4.58,5.3-4.58,9Z"/>
              <path class="cls-37" d="M96.94,126.71c-5.23,0-9.47,4.24-9.47,9.47s4.24,9.47,9.47,9.47,9.47-4.24,9.47-9.47-4.24-9.47-9.47-9.47Z"/>
              <g>
                <path d="M103.63,136.17c0,3.7-3,6.69-6.69,6.69s-6.69-3-6.69-6.69,2.99-6.69,6.69-6.69,6.69,2.99,6.69,6.69Z"/>
                <path class="cls-2" d="M100.33,132.58c0,1.43-1.52,1.42-3.39,1.42s-3.39,0-3.39-1.42,1.52-2.59,3.39-2.59,3.39,1.16,3.39,2.59Z"/>
                <path class="cls-2" d="M97.75,140.72c0,.45-.36,.81-.81,.81s-.82-.37-.82-.81,.36-.81,.82-.81,.81,.37,.81,.81Z"/>
              </g>
              <path class="cls-22" d="M98.53,144.33c0,.5-.69,.91-1.54,.91s-1.54-.41-1.54-.91,.69-.91,1.54-.91,1.54,.41,1.54,.91Z"/>
            </g>
            <g>
              <g>
                <path class="cls-3" d="M81.55,132.23l-4.63,3.1s3.33-14.54,18.09-15.77c13.8-1.16,21.7,13.39,24.37,21.46,.34,.44,.21,1.18,.51,1.62-2.08-8.99-10.06-23.43-22.79-23.77-.71-.02-1.44,0-2.17,.06-14.95,1.25-18.51,16.06-18.54,16.2-.05,.2,.02,.41,.15,.57,1.75-1.13,4.75-2.97,8.23-4.64-1.98,.65-3.23,1.16-3.23,1.16Z"/>
                <path class="cls-10" d="M76.92,135.33s3.33-14.54,18.09-15.77c14.85-1.24,22.87,15.55,24.89,23.18,0,0-5.25-10.62-14.39-13.6-9.14-2.98-23.95,3.1-23.95,3.1l-4.63,3.1Z"/>
              </g>
              <path class="cls-82" d="M93.08,121.84c.76-.1,1.33-.51,1.28-.92-.05-.41-.71-.67-1.47-.57-.76,.1-1.33,.51-1.28,.92,.05,.41,.71,.67,1.47,.57Zm-10.4,5.13c-.35,.21-.58,.62-.51,.9,.07,.28,.41,.34,.76,.13,.35-.21,.58-.62,.51-.9-.07-.28-.41-.34-.76-.13Zm3.17-2.58c.46-.19,.84-.61,.85-.92s-.34-.41-.8-.22c-.46,.19-.84,.61-.85,.92-.02,.31,.34,.41,.8,.22Zm7.28,.47c-.76,.1-1.33,.51-1.28,.92,.05,.41,.71,.67,1.47,.57,.76-.1,1.33-.51,1.28-.92-.05-.41-.71-.67-1.47-.57Zm4.23,.21c-.65-.03-1.19,.23-1.21,.57-.02,.34,.49,.65,1.14,.68,.65,.03,1.19-.22,1.21-.57,.02-.34-.49-.65-1.14-.68Zm-7.55-1.73c-.19-.37-.87-.43-1.51-.14-.64,.29-1.01,.83-.83,1.2,.19,.37,.86,.43,1.51,.14,.64-.29,1.02-.83,.83-1.2Zm-3.42,4.06c-.64,.29-1.01,.83-.83,1.2s.86,.43,1.51,.14c.64-.29,1.01-.83,.83-1.2-.19-.37-.86-.43-1.51-.14Zm8.64-5.58c-.56,.07-.98,.37-.94,.68,.04,.3,.52,.49,1.08,.42,.56-.07,.98-.38,.94-.68-.04-.3-.52-.49-1.08-.42Zm-2.33,1.36c.07-.29-.1-.54-.39-.57-.29-.03-.58,.18-.65,.47-.07,.29,.1,.54,.39,.57,.29,.03,.58-.18,.65-.47Zm-2.24,2.66c-.29-.03-.58,.18-.65,.47s.1,.54,.39,.57c.29,.03,.58-.18,.65-.47,.07-.29-.1-.54-.39-.57Zm17.26-.85c.2-.08,.22-.3,.06-.5-.16-.2-.45-.29-.64-.22-.2,.08-.22,.3-.06,.5,.16,.2,.45,.29,.65,.22Zm-3.71,1.21c-.2,.08-.22,.3-.06,.5,.16,.2,.45,.3,.64,.22,.2-.08,.22-.3,.06-.5-.16-.2-.45-.3-.64-.22Zm-4.01-5.53c.23-.03,.36-.15,.29-.29-.08-.13-.33-.22-.57-.2-.24,.02-.36,.15-.29,.29,.08,.13,.33,.22,.57,.2Zm-9.67,.85c.19-.13,.25-.31,.12-.39-.13-.08-.4-.04-.59,.1-.2,.13-.25,.31-.11,.39,.13,.08,.4,.04,.59-.1Zm.39,2.84c-.2,.13-.25,.31-.12,.39,.13,.08,.4,.04,.59-.1,.19-.13,.25-.31,.12-.39-.13-.08-.4-.04-.59,.1Zm-4.64,1.26c-.28,.12-.42,.31-.32,.42,.1,.12,.4,.12,.68,0,.28-.12,.42-.31,.32-.42-.1-.12-.4-.11-.68,0Zm15.3-2.48c-.2,.08-.22,.3-.06,.5,.16,.2,.45,.29,.64,.22,.2-.08,.22-.3,.06-.5-.16-.2-.45-.3-.64-.22Zm7.68,2.52c-.18,.1-.18,.32,0,.5,.18,.18,.48,.24,.67,.14,.18-.1,.18-.32,0-.5-.19-.17-.49-.24-.67-.14Zm7.31,8.7c-.22-.21-.54-.41-.71-.44-.18-.04-.15,.11,.07,.31,.21,.21,.53,.41,.71,.44,.18,.04,.14-.11-.07-.32Zm-10.16-8.62c-.21-.14-.52-.15-.68-.02-.16,.13-.12,.35,.09,.49,.21,.14,.52,.15,.68,.02,.17-.13,.12-.35-.09-.49Zm2.02,.97c-.19-.17-.48-.24-.67-.14-.18,.1-.18,.32,0,.5,.18,.18,.48,.24,.67,.14,.18-.1,.18-.32,0-.5Zm-11.21-5.6c.56,.07,1.04-.11,1.08-.42,.04-.3-.38-.61-.94-.68-.56-.07-1.04,.11-1.08,.42-.04,.3,.38,.61,.94,.68Zm6.56,.84c.09-.27-.31-.62-.9-.79-.58-.17-1.13-.09-1.22,.18-.09,.27,.31,.62,.9,.79,.58,.17,1.13,.09,1.22-.18Zm.23,2.13c-.51,0-.92,.23-.9,.54,.01,.3,.44,.56,.96,.56,.51,0,.92-.23,.9-.54-.01-.3-.44-.56-.96-.56Zm-2.98,.76c-.51,0-.92,.23-.9,.54,.01,.3,.44,.56,.96,.56,.51,0,.92-.23,.9-.54-.01-.3-.44-.56-.96-.56Zm-.48-1.98c.02-.31-.42-.58-.98-.62-.56-.03-1.04,.19-1.06,.49-.02,.31,.42,.58,.98,.62,.56,.04,1.04-.19,1.06-.49Zm13.56,8.76c.27-.19,.2-.63-.16-.98-.36-.35-.86-.48-1.13-.29-.27,.19-.2,.63,.16,.98,.36,.35,.86,.48,1.13,.28Zm-1.53-3.09c-.27-.26-.65-.36-.85-.21-.2,.14-.15,.47,.12,.74,.27,.26,.65,.36,.85,.21,.2-.14,.15-.47-.12-.74Zm-4.06-.53c-.2,.15-.15,.47,.12,.74,.27,.26,.65,.36,.85,.21,.2-.14,.15-.47-.12-.74-.27-.26-.65-.36-.85-.22Zm-2.25-5.07c.13-.16-.06-.42-.44-.58-.38-.16-.79-.17-.93,0-.13,.16,.06,.42,.44,.58,.38,.16,.79,.17,.93,0Zm4.67,6.54c-.2,.14-.15,.47,.12,.74,.27,.26,.65,.36,.85,.21,.2-.15,.15-.47-.12-.74-.27-.26-.65-.36-.85-.21Zm4.01,2.97c-.16,.11-.14,.37,.03,.58,.17,.21,.44,.29,.59,.18,.16-.11,.14-.37-.04-.58-.17-.21-.44-.29-.59-.18Zm-1.38-.26c-.16,.11-.14,.37,.03,.58,.17,.21,.44,.29,.59,.18,.16-.11,.14-.37-.03-.58-.17-.21-.44-.29-.59-.18Z"/>
              <path d="M119.81,142.55s-1.36-3.74-4.88-7.75c.58-.34,1.84-1.15,2.24-2.06,0,0-.74,1.12-2.47,1.81-.44-.48-.9-.97-1.4-1.46,.5-.53,1.12-1.29,1.3-1.98,0,0-.39,.9-1.45,1.84-.71-.68-1.48-1.34-2.32-1.99,.52-.52,1.49-1.58,1.68-2.52,0,0-.46,1.24-1.92,2.34-.25-.19-.51-.37-.77-.55,.56-.8,1.38-2.14,1.47-3.22,0,0-.35,1.45-1.73,3.04-.37-.25-.75-.5-1.14-.74,.34-.45,1.25-1.74,1.33-2.73,0,0-.31,1.28-1.58,2.58-.65-.38-1.32-.75-2.03-1.09,.28-.69,.79-2.11,.68-3.08,0,0-.03,1.33-.91,2.98-.84-.4-1.71-.76-2.63-1.09-.27-.09-.53-.17-.8-.25-.24-2.9,.72-4.67,.72-4.67-.9,1.13-1.15,3.19-1.21,4.52-.67-.19-1.33-.33-1.99-.44-.45-2.49,.22-4.18,.22-4.18-.68,1.11-.73,2.91-.67,4.09-.68-.1-1.36-.16-2.03-.2-.87-2.87-.28-4.93-.28-4.93-.67,1.4-.46,3.58-.25,4.9-.39-.01-.77-.01-1.16,0-1.18-2.66-1.11-5.55-1.11-5.55-.27,2.09,.17,4.14,.62,5.57-.34,.01-.68,.04-1.02,.06-1.33-2.48-1.55-5.83-1.55-5.83-.02,2.49,.7,4.73,1.14,5.87-.9,.09-1.79,.23-2.64,.41-1.08-1.69-1.39-4.22-1.39-4.22,.1,1.92,.76,3.56,1.09,4.29-.59,.13-1.17,.28-1.73,.45-2.17-2.67-2.96-6.09-2.96-6.09,.32,2.54,1.44,4.77,2.39,6.27-.23,.07-.46,.15-.69,.22-2.66-2.1-3.94-5.76-3.94-5.76,.71,2.76,2.54,5.11,3.3,5.99-.38,.14-.75,.28-1.12,.43-2.17-1.8-3.48-5.28-3.48-5.28,.79,2.69,2.33,4.69,3.01,5.48-.26,.11-.51,.22-.76,.34-3.11-2.06-4.97-5.63-4.97-5.63,1.06,2.67,2.89,4.7,4.29,5.95-.47,.23-.92,.46-1.35,.69-3.47-1.93-5-5.66-5-5.66,.74,2.62,2.75,4.82,4.03,6.02-3.49-1.84-6.42-6.06-6.42-6.06,1.97,3.32,4.59,5.52,5.94,6.52-.12,.08-.25,.15-.37,.22-5.25-.43-9.56-5.53-9.56-5.53,2.58,3.82,6.48,5.75,8.16,6.44-.07,.05-.14,.09-.2,.14-5.23,.05-11.16-3.79-11.16-3.79,3.78,2.91,7.79,4.13,10.01,4.62-.7,.53-1.09,.87-1.09,.87,0,0-5.67-.17-10.73-3.01,0,0,3.85,3.82,10.37,4.34-4.37,.81-9.06-.32-9.06-.32,3.12,1.06,6.11,1.21,8.35,1.1-1.16,.7-3.72,1.63-9.16,1.63,0,0,7.14,2.36,12.72-.15,0,0,5.52-5.5,14.49-7.68,5.78-1.4,12.42,.48,17.88,4.62-.01,0-.02,.02-.04,.02h.08c3.03,2.31,5.69,5.3,7.61,8.83Z"/>
            </g>
          </g>
        </g>
        <g>
          <path class="cls-16" d="M195.18,120.94s-3.89-22.17-20.58-12.67c0,0,8.84,2.74,10.76,5.38,1.95,2.69,5.93,7.92,9.83,7.28Z"/>
          <g>
            <path class="cls-42" d="M193.48,131.6s-3.48-12.62-12.52-16.41c-9.11-3.82-19.76,5.64-22.47,15.57-2.68,9.86,30.77,2.89,30.77,2.89l4.22-2.05Z"/>
            <path class="cls-65" d="M193.6,133.29s-4.92,17.1-18.22,17.57c-13.3,.48,12.02-15.44,12.02-15.44l3.83-.95,2.37-1.19Z"/>
            <path class="cls-28" d="M154.54,149.84c3.96,2.93,8.51,2.2,10.18-1.65,1.66-3.84-.19-9.34-4.15-12.27-3.96-2.93-8.51-2.2-10.18,1.65-1.67,3.84,.19,9.34,4.15,12.27Z"/>
            <path class="cls-81" d="M190.91,133.05s-1.55-10.23-8.55-14.89c-7.05-4.69-22.38-3.62-27.29,23.3l9.17-2.25,21.73-4.08,2.69,1.24,2.26-3.32Z"/>
            <path class="cls-60" d="M188.89,133.93s-2.21-13.2-12.75-16.38c-10.62-3.21-19.32,14.36-20.29,19.55-.97,5.17,10.08,11.16,10.63,10.88,.55-.29,20.68-9.68,20.68-9.68l1.74-4.37Z"/>
          </g>
          <g>
            <g>
              <g>
                <path class="cls-44" d="M191.16,134.71s-3.16,16.47-18.7,16.78l-1.09-9.02,12.51-8.71,7.29,.95Z"/>
                <path class="cls-90" d="M186.67,139.46s-3.52,11.24-13.36,12.03c-9.84,.79-15.79-6.65-15.79-6.65l29.15-5.38Z"/>
                <path d="M156.24,143.98l3.1-1.07,27.09-6.77,2.06,1.11s-.99,1.44-1.43,2.09c.03,.28,.14,.53,.28,.74l.04,.08c-.19-.17-.58-.18-.84-.09-.14,.2-.3,.41-.47,.64-.1,.32,.03,.75,.2,.98l-.14-.14c-.2-.11-.45-.11-.68-.05-.04,.05-.09,.11-.13,.16-.06,.29-.02,.52,.14,.78l.09,.24c-.18-.37-.62-.32-.93-.19-.41,.48-.85,.96-1.33,1.44,0,0,0,0,0,.01-.09,.13-.22,.22-.32,.34-.19,.22-.36,.44-.47,.74-.14,.37-.02,.71,.09,1.07l.03,.16c-.04-.16-.31-.3-.43-.37-.19-.11-.39-.15-.6-.16-.1,0-.19,.01-.28,.03-.03,.02-.05,.04-.07,.06,0,.02,0,.03,0,.04-.03,.08-.14,.14-.19,.19-.11,.1-.19,.21-.26,.35-.11,.23-.13,.58-.04,.83l.09,.4c-.28-.5-.73-.57-1.19-.63-.04,.02-.07,.05-.1,.07-.12,.15-.31,.33-.36,.41-.13,.23-.23,.67-.15,.96l.04,.4c-.05-.26-.2-.49-.38-.64-.12-.09-.24-.16-.38-.21-.05-.02-.18-.05-.27-.08-.39,.19-.78,.36-1.19,.51-.03,.02-.07,.05-.12,.07-.2,.1-.4,.22-.56,.42-.14,.18-.26,.56-.19,.81l-.03,.04c-.16-.29-.34-.43-.59-.56-.16-.09-.31-.16-.48-.19-.02,0-.05,0-.08,0-.74,.16-1.48,.27-2.22,.35-.12,.03-.25,.07-.37,.14-.14,.08-.45,.43-.38,.66l-.08,.3c-.02-.32-.12-.5-.34-.67-.2-.17-.43-.22-.64-.31-1.03,.03-2.05-.01-3.06-.12-.19,.05-.49,0-.64,.03-.22,.05-.47,.16-.59,.44l-.05,.36c.02-.47-.55-.94-.82-1.13-.01,0-.03-.02-.04-.02-.07-.01-.15-.03-.22-.05-.46,0-1.12-.14-1.35,.43v-.04c-.02-.31-.1-.49-.32-.67-.12-.1-.36-.19-.5-.32-.13-.04-.26-.09-.39-.14-.36-.04-.86-.09-1.02,.32l-.03,.04c.15-.45-.47-.73-.62-1.03-.26-.12-.52-.26-.77-.39-.17-.02-.37,.01-.45,.15v-.02c0-.15-.05-.26-.13-.38-.03-.04-.08-.09-.13-.15-1.34-.79-2.51-1.72-3.46-2.78Z"/>
                <path d="M177.21,145.3c1.29,.56,1.82,2.55,1.99,4.13,0,.01-.01,.02-.02,0-.1-.76-.26-1.47-.54-2.15-.35-.85-.89-1.31-1.5-1.8-.07-.06-.03-.22,.06-.18Zm-2.67,.78c1.21,.81,1.51,2.85,1.5,4.46,0,.01-.02,.01-.02,0-.04-1.85-.5-3.13-1.58-4.3-.07-.08,.02-.21,.09-.16Zm4.19-1.53c1.31,.32,2,2.27,2.3,3.77,0,.01-.01,.02-.02,0-.17-.74-.39-1.44-.73-2.07-.42-.78-.98-1.13-1.61-1.52-.09-.05-.02-.2,.06-.18Zm-7.73,1.73c1.04,1.16,1,3.19,.73,4.78,0,.01-.02,0-.02,0,.27-1.79,.05-3.19-.82-4.63-.06-.1,.03-.23,.11-.14Zm-5.43,.11c.05-.03,.08,.08,.04,.11-1.06,.85-1.47,2.28-1.71,3.82,0,0-.01,0,0,0,.2-1.36,.57-3.35,1.69-3.92Zm-1.92-.33c.06-.02,.08,.09,.03,.12-1.15,.63-1.76,1.9-2.21,3.37,0,0-.01,0-.01,0,.38-1.3,1.02-3.16,2.2-3.48Zm3.92,.7s.1,.05,.06,.1c-.96,1.08-1.13,2.66-1.16,4.23,0,0-.01,0-.01,0,0-1.4,.07-3.5,1.11-4.33Zm-5.47-2.58c.06-.01,.08,.09,.02,.12-1.17,.56-1.79,1.83-2.28,3.27,0,0-.01,0,0,0,.4-1.25,1.09-3.16,2.26-3.39Zm21.09-3.05c1.35-.18,2.47,1.34,3.13,2.69,0,.01,0,.02-.01,.01-.37-.7-.77-1.3-1.31-1.79-.56-.5-1.15-.6-1.8-.71-.1-.02-.1-.19,0-.2Zm.55-.36c-.09,0-.11-.17-.02-.2,1.34-.38,2.57,.9,3.38,2.14,0,.01,0,.03-.01,.02-.39-.57-.8-1.06-1.31-1.45-.65-.49-1.31-.52-2.03-.52Zm.79-1.37c-.1,.02-.14-.15-.04-.19,1.29-.59,2.62,.46,3.55,1.56,0,0,0,.03-.01,.02-1.06-1.2-2.1-1.64-3.5-1.39Zm-4.15,4.28c1.38,.2,2.25,2.13,2.69,3.65,0,.01-.01,.02-.02,0-.25-.81-.57-1.55-1.03-2.2-.47-.67-1.04-.94-1.67-1.27-.07-.04-.07-.21,.02-.2Z"/>
                <path class="cls-75" d="M186.01,137.96s-4.08,9.91-14.77,10.69c-8.74,.63-15.42-4.91-15.42-4.91l-1.46-.32,3.04-1.9,28.61-3.56Z"/>
              </g>
              <g>
                <path class="cls-12" d="M186.12,137.8s-5.55,8.55-13.48,9.74c-7.92,1.19-15.85-3.92-16.49-4.63s6.19-2.73,6.92-2.73,21.31-4.99,21.31-4.99l1.73,2.61Z"/>
                <path class="cls-2" d="M185.57,137.33s-5.94,9.98-14.81,9.98-14.52-4.28-14.52-4.28l-1.82,.24,.91-2.14s3.1-7.6,7.47-9.97c4.37-2.38,12.02-2.85,12.02-2.85l8.56,3.32,2.19,5.7Z"/>
                <path class="cls-48" d="M162.8,131.15c4.37-2.38,12.02-2.85,12.02-2.85l8.56,3.32,2.19,5.7s-2.85,4.79-7.55,7.73c1.19-1.57,3.6-5.04,3.18-7.02-.55-2.61-12.93-6.18-20.22-1.9,0,0-3.79,2.38-5.95,5.69l.3-.71s3.1-7.6,7.47-9.97Z"/>
                <path class="cls-29" d="M170.27,132.58c-6.9,.14-11.21,3.24-13.64,5.87,1.3-2.43,3.5-5.84,6.18-7.29,4.37-2.38,12.02-2.85,12.02-2.85l8.56,3.32,2.19,5.7s-.35,.59-1.01,1.48c-1.18-1.96-4.9-6.41-14.3-6.22Z"/>
              </g>
              <path d="M185.95,141.13s2.92-2.73,6.01-3.44l-2.55-.71h-2.09l-1.28,2.49-.09,1.66Z"/>
            </g>
            <g>
              <path class="cls-77" d="M178.23,136.17c0,6.15-4.14,11.13-9.25,11.13s-9.26-4.98-9.26-11.13c0-3.57,1.4-6.75,3.58-8.78,2.02-1.23,4.28-1.83,6.69-1.53,1.56,.2,3.05,.65,4.43,1.32,2.31,2.02,3.81,5.3,3.81,9Z"/>
              <path class="cls-79" d="M168.97,126.71c4.35,0,7.87,4.24,7.87,9.47s-3.53,9.47-7.87,9.47-7.87-4.24-7.87-9.47,3.53-9.47,7.87-9.47Z"/>
              <g>
                <path d="M163.41,136.17c0,3.7,2.49,6.69,5.57,6.69s5.56-3,5.56-6.69-2.49-6.69-5.56-6.69-5.57,2.99-5.57,6.69Z"/>
                <path class="cls-2" d="M166.15,132.58c0,1.43,1.26,1.42,2.82,1.42s2.82,0,2.82-1.42-1.26-2.59-2.82-2.59-2.82,1.16-2.82,2.59Z"/>
                <path class="cls-2" d="M168.29,140.72c0,.45,.3,.81,.68,.81s.68-.37,.68-.81-.3-.81-.68-.81-.68,.37-.68,.81Z"/>
              </g>
              <path class="cls-22" d="M167.65,144.33c0,.5,.58,.91,1.28,.91s1.28-.41,1.28-.91-.57-.91-1.28-.91-1.28,.41-1.28,.91Z"/>
            </g>
            <g>
              <g>
                <path class="cls-38" d="M184.03,132.23l3.55,3.1s-2.56-14.54-13.87-15.77c-10.59-1.16-16.64,13.39-18.69,21.46-.26,.44-.16,1.18-.39,1.62,1.59-8.99,7.71-23.43,17.48-23.77,.55-.02,1.11,0,1.66,.06,11.47,1.25,14.2,16.06,14.22,16.2,.04,.2-.02,.41-.11,.57-1.34-1.13-3.64-2.97-6.31-4.64,1.52,.65,2.47,1.16,2.47,1.16Z"/>
                <path class="cls-23" d="M187.58,135.33s-2.56-14.54-13.87-15.77c-11.39-1.24-17.54,15.55-19.09,23.18,0,0,4.03-10.62,11.04-13.6,7.01-2.98,18.37,3.1,18.37,3.1l3.55,3.1Z"/>
              </g>
              <path class="cls-76" d="M175.19,121.84c-.58-.1-1.02-.51-.98-.92,.04-.41,.54-.67,1.13-.57,.58,.1,1.02,.51,.98,.92-.04,.41-.54,.67-1.13,.57Zm7.97,5.13c.27,.21,.45,.62,.39,.9-.05,.28-.32,.34-.59,.13-.27-.21-.44-.62-.39-.9,.05-.28,.32-.34,.58-.13Zm-2.43-2.58c-.35-.19-.64-.61-.66-.92-.01-.32,.26-.41,.61-.22,.35,.19,.64,.61,.66,.92,.01,.31-.26,.41-.61,.22Zm-5.58,.47c.58,.1,1.02,.51,.98,.92-.04,.41-.55,.67-1.13,.57-.58-.1-1.02-.51-.98-.92,.04-.41,.54-.67,1.13-.57Zm-3.25,.21c.5-.03,.91,.23,.93,.57,.02,.34-.38,.65-.87,.68s-.91-.22-.93-.57c-.01-.34,.38-.65,.87-.68Zm5.79-1.73c.14-.37,.66-.43,1.16-.14,.49,.29,.78,.83,.63,1.2-.14,.37-.66,.43-1.16,.14-.49-.29-.78-.83-.63-1.2Zm2.62,4.06c.49,.29,.78,.83,.63,1.2-.14,.37-.66,.43-1.16,.14-.5-.29-.78-.83-.63-1.2,.14-.37,.66-.43,1.16-.14Zm-6.63-5.58c.43,.07,.75,.37,.72,.68-.03,.3-.4,.49-.83,.42-.43-.07-.75-.38-.72-.68,.03-.3,.4-.49,.83-.42Zm1.78,1.36c-.06-.29,.08-.54,.3-.57,.22-.03,.44,.18,.5,.47,.05,.29-.08,.54-.3,.57-.22,.03-.44-.18-.5-.47Zm1.72,2.66c.22-.03,.44,.18,.5,.47,.05,.29-.08,.54-.3,.57-.22,.03-.44-.18-.5-.47-.06-.29,.08-.54,.3-.57Zm-13.24-.85c-.15-.08-.17-.3-.05-.5,.12-.2,.35-.29,.5-.22,.15,.08,.17,.3,.04,.5-.12,.2-.35,.29-.49,.22Zm2.84,1.21c.15,.08,.17,.3,.05,.5-.12,.2-.35,.3-.49,.22-.15-.08-.17-.3-.05-.5,.12-.2,.34-.3,.5-.22Zm3.07-5.53c-.18-.03-.28-.15-.22-.29,.06-.13,.25-.22,.44-.2,.18,.02,.28,.15,.22,.29-.06,.13-.25,.22-.43,.2Zm7.42,.85c-.15-.13-.19-.31-.09-.39,.1-.08,.3-.04,.45,.1,.15,.13,.19,.31,.09,.39-.1,.08-.3,.04-.45-.1Zm-.3,2.84c.15,.13,.19,.31,.09,.39-.1,.08-.3,.04-.45-.1-.15-.13-.19-.31-.09-.39,.1-.08,.31-.04,.45,.1Zm3.56,1.26c.21,.12,.32,.31,.25,.42-.07,.12-.31,.12-.52,0-.21-.12-.32-.31-.25-.42,.08-.12,.31-.11,.52,0Zm-11.74-2.48c.15,.08,.17,.3,.05,.5-.12,.2-.34,.29-.49,.22-.15-.08-.17-.3-.05-.5,.12-.2,.35-.3,.49-.22Zm-5.89,2.52c.14,.1,.14,.32,0,.5-.14,.18-.37,.24-.51,.14-.14-.1-.14-.32,0-.5,.14-.17,.37-.24,.51-.14Zm-5.6,8.7c.17-.21,.41-.41,.55-.44,.14-.04,.11,.11-.05,.31-.17,.21-.41,.41-.55,.44-.14,.04-.11-.11,.05-.32Zm7.79-8.62c.16-.14,.4-.15,.52-.02,.12,.13,.09,.35-.07,.49-.16,.14-.4,.15-.52,.02-.13-.13-.1-.35,.07-.49Zm-1.54,.97c.14-.17,.37-.24,.51-.14s.14,.32,0,.5c-.14,.18-.37,.24-.51,.14-.14-.1-.14-.32,0-.5Zm8.6-5.6c-.43,.07-.8-.11-.83-.42-.03-.3,.29-.61,.72-.68,.43-.07,.8,.11,.83,.42,.03,.3-.29,.61-.72,.68Zm-5.03,.84c-.07-.27,.24-.62,.69-.79,.45-.17,.87-.09,.94,.18,.07,.27-.24,.62-.69,.79-.45,.17-.87,.09-.94-.18Zm-.18,2.13c.39,0,.71,.23,.69,.54-.01,.3-.34,.56-.74,.56-.39,0-.71-.23-.69-.54,.01-.3,.34-.56,.74-.56Zm2.29,.76c.39,0,.71,.23,.69,.54-.01,.3-.34,.56-.74,.56-.39,0-.71-.23-.69-.54,0-.3,.34-.56,.74-.56Zm.37-1.98c-.02-.31,.32-.58,.75-.62,.43-.03,.8,.19,.81,.49,.02,.31-.32,.58-.75,.62-.43,.04-.79-.19-.81-.49Zm-10.4,8.76c-.21-.19-.15-.63,.12-.98,.27-.35,.66-.48,.87-.29,.21,.19,.15,.63-.12,.98-.27,.35-.66,.48-.87,.28Zm1.17-3.09c.21-.26,.5-.36,.65-.21,.16,.14,.11,.47-.09,.74-.2,.26-.5,.36-.65,.21-.16-.14-.11-.47,.09-.74Zm3.11-.53c.15,.15,.11,.47-.09,.74-.2,.26-.5,.36-.65,.21-.16-.14-.11-.47,.09-.74,.2-.26,.5-.36,.65-.22Zm1.73-5.07c-.1-.16,.05-.42,.34-.58,.29-.16,.61-.17,.71,0s-.05,.42-.34,.58c-.29,.16-.61,.17-.71,0Zm-3.58,6.54c.15,.14,.11,.47-.09,.74-.21,.26-.5,.36-.65,.21-.16-.15-.11-.47,.09-.74,.21-.26,.5-.36,.65-.21Zm-3.08,2.97c.12,.11,.11,.37-.03,.58-.13,.21-.34,.29-.46,.18-.12-.11-.11-.37,.03-.58,.13-.21,.34-.29,.46-.18Zm1.06-.26c.12,.11,.11,.37-.03,.58-.13,.21-.34,.29-.46,.18-.12-.11-.11-.37,.03-.58,.13-.21,.34-.29,.46-.18Z"/>
              <path d="M154.68,142.55s1.04-3.74,3.74-7.75c-.45-.34-1.41-1.15-1.72-2.06,0,0,.56,1.12,1.89,1.81,.33-.48,.69-.97,1.07-1.46-.38-.53-.86-1.29-1-1.98,0,0,.3,.9,1.12,1.84,.54-.68,1.13-1.34,1.78-1.99-.4-.52-1.14-1.58-1.29-2.52,0,0,.36,1.24,1.47,2.34,.19-.19,.39-.37,.59-.55-.43-.8-1.06-2.14-1.13-3.22,0,0,.27,1.45,1.33,3.04,.28-.25,.57-.5,.87-.74-.26-.45-.96-1.74-1.02-2.73,0,0,.24,1.28,1.21,2.58,.5-.38,1.01-.75,1.56-1.09-.21-.69-.6-2.11-.52-3.08,0,0,.02,1.33,.7,2.98,.64-.4,1.31-.76,2.02-1.09,.21-.09,.41-.17,.62-.25,.19-2.9-.55-4.67-.55-4.67,.69,1.13,.88,3.19,.93,4.52,.51-.19,1.02-.33,1.53-.44,.34-2.49-.17-4.18-.17-4.18,.53,1.11,.56,2.91,.52,4.09,.53-.1,1.05-.16,1.56-.2,.67-2.87,.21-4.93,.21-4.93,.51,1.4,.35,3.58,.19,4.9,.3-.01,.59-.01,.89,0,.9-2.66,.85-5.55,.85-5.55,.21,2.09-.13,4.14-.47,5.57,.26,.01,.52,.04,.78,.06,1.02-2.48,1.19-5.83,1.19-5.83,.01,2.49-.54,4.73-.88,5.87,.69,.09,1.37,.23,2.03,.41,.83-1.69,1.07-4.22,1.07-4.22-.08,1.92-.58,3.56-.84,4.29,.45,.13,.89,.28,1.33,.45,1.66-2.67,2.27-6.09,2.27-6.09-.25,2.54-1.11,4.77-1.83,6.27,.18,.07,.35,.15,.53,.22,2.04-2.1,3.02-5.76,3.02-5.76-.54,2.76-1.95,5.11-2.53,5.99,.29,.14,.58,.28,.86,.43,1.66-1.8,2.67-5.28,2.67-5.28-.61,2.69-1.79,4.69-2.31,5.48,.2,.11,.39,.22,.58,.34,2.38-2.06,3.81-5.63,3.81-5.63-.82,2.67-2.22,4.7-3.29,5.95,.36,.23,.7,.46,1.03,.69,2.66-1.93,3.83-5.66,3.83-5.66-.57,2.62-2.11,4.82-3.09,6.02,2.67-1.84,4.92-6.06,4.92-6.06-1.51,3.32-3.52,5.52-4.56,6.52,.09,.08,.19,.15,.28,.22,4.03-.43,7.34-5.53,7.34-5.53-1.98,3.82-4.97,5.75-6.26,6.44,.05,.05,.11,.09,.16,.14,4.01,.05,8.56-3.79,8.56-3.79-2.9,2.91-5.98,4.13-7.67,4.62,.54,.53,.83,.87,.83,.87,0,0,4.35-.17,8.23-3.01,0,0-2.95,3.82-7.95,4.34,3.35,.81,6.95-.32,6.95-.32-2.39,1.06-4.68,1.21-6.4,1.1,.89,.7,2.86,1.63,7.03,1.63,0,0-5.48,2.36-9.75-.15,0,0-4.23-5.5-11.11-7.68-4.43-1.4-9.53,.48-13.71,4.62,0,0,.02,.02,.03,.02h-.06c-2.32,2.31-4.36,5.3-5.84,8.83Z"/>
            </g>
          </g>
        </g>
      </g>
      <g>
        <path class="cls-43" d="M220.35,189.43c-2.34-14.29-5.93-28.32-7.51-42.68-1.64-14.86-1.82-29.76-3.47-44.63-1.62-14.6-3.34-28.84-9.64-42.06-1.01-2.13-2.14-4.22-3.41-6.29-.51-1.24-1.05-2.44-1.63-3.65-.13-.28-.26-.55-.39-.83-.05-.09-.08-.18-.13-.27-.88-1.77-1.83-3.48-2.85-5.14-.19-.32-.38-.64-.57-.95-.01,0-.01-.02-.02-.03-.42-.68-.86-1.34-1.29-2-.72-1.09-1.48-2.15-2.26-3.18-.38-.51-.76-1.02-1.15-1.52-1.23-1.58-2.5-3.11-3.8-4.56-.83-.92-1.66-1.81-2.51-2.69-.2-.21-.4-.42-.6-.63-.67-.68-1.35-1.35-2.03-1.99-1.22-1.16-2.43-2.26-3.66-3.32-2.49-2.14-4.98-4.06-7.39-5.74-.8-.56-1.59-1.09-2.37-1.6-2.68-1.74-5.22-3.18-7.52-4.28-.06-.03-.11-.05-.17-.08-1.67-.8-3.2-1.42-4.55-1.85l-1.3,.09-.47-1.31-.6-1.62C129.57-3.81,82.76-4.02,54.99,26.59c-29.45,32.46-31.99,68.71-31.99,105.29s1.11,72.36-5.06,102.29C11.77,264.09,.21,284.29,.21,284.29c5.16-3.4,10.85-5.98,16.8-7.64,5.44-1.52,9.48-1.16,16.13-2.58,0,0,.28,0,.74,.02-.04-.14,0-.3,.17-.32,2.67-.4,5.32-.89,7.93-1.54,7.68-1.91,15.11-5.03,21.47-9.79,1,4.7,1.86,8.29,2.31,10.08,.2,.81,.31,1.24,.31,1.24,4.43,3.8,6.96,5.7,6.96,5.7,4.42,6.09,15.17,12.67,17.78,14.22-11.36-7.14-13.92-28.25-15.87-41.47-.02-.12-.04-.25-.06-.38-.03-.15-.06-.35-.09-.59-.04-.23-.08-.44-.1-.65,.01,0,.01-.02,.02-.03,1.55-2.3,2.92-4.71,4.08-7.24,5.08-10.98,6.74-23.18,6.61-35.28-.33-.27-.68-.52-1.01-.79-5.5-4.48-10.45-9.65-14.7-15.35v-.23c-.48-24.11,.27-48.31-.16-72.37,.12,.19,.21,.34,.27,.44,.04,.09,.07,.12,.07,.12,.92,1.22,3.84,.65,5.2,.64,1.93-.02,3.42,.75,5.34,.58-.86,.7-1.45,2.2-2.11,3.12,1.15,.33,2.42-.13,3.6,.07,1.35,.24,2.78,1.67,4.17,1.23-.32-1.66,.82-3.74,1.23-5.33,.47-1.84,.73-3.59,1.55-5.35,.88-1.89,1.59-3.85,2.54-5.7,1.12-2.19,1.75-4.53,2.86-6.67,2.33-4.46,3.4-10.11,4.6-15.01,.25-1.03,.48-2.05,.69-3.08,.44-2.09,.82-4.19,1.17-6.3,.58-3.41,1.1-6.83,1.74-10.23,.11-.6,.23-1.2,.35-1.8,0,0,.12,.64,.29,1.8,.32,2.23,.88,6.43,1.33,11.82,.16,2,.3,4.14,.42,6.42,.49,10,.31,22.37-2.04,33.8,0,0,1.28,1.9,8.24,2.53l-.47,2.54s12.83,1.9,19.47,.48v-1.9s17.1,.95,29.93-1.9c12.82-2.85,18.52-.95,18.52-.95v2.38s7.25-.84,13.26,1.5c.17,.07,.35,.13,.52,.21v.19c0,1.62,.43,3.11,.48,4.69,.09,2.55,.08,5.14,.56,7.66,.81,4.19,1.55,8.21,2.76,12.26,.14,.5,.3,1.01,.46,1.51,.21,.65,.43,1.29,.64,1.95-.08,.28-.13,.57-.22,.85-.17,.64-.37,1.26-.6,1.89-.09,.27-.21,.56-.33,.84-.05,.12-.09,.24-.15,.36,0,.02-.02,.02-.02,.12,0,.05,0,.11,0,.21v.19c0,2.35-.46,4.65-1.01,6.86-.29,1.2-.63,2.38-.98,3.55-.59,1.89-1.25,3.75-1.96,5.6h0c-.59,1.52-1.21,3-1.85,4.48-1.07,2.41-2.2,4.8-3.41,7.14-3.18,6.19-6.92,12.12-11.19,17.61-2.69,3.45-5.63,6.7-8.56,9.92-2.74,2.99-5.58,5.93-8.72,8.54-3.08,2.56-6.46,4.8-10.19,6.36-2.34,.97-4.75,1.62-7.21,1.98,1.17,6.27,3.13,12.44,6.26,17.99,.04,.07,.08,.14,.12,.21-1.28,.94-2.53,1.93-3.73,2.98-2.36,2.06-4.4,4.43-6.04,6.96-6.94,10.68-6.84,24.37,6.91,31.16,0,0,6.65-1.42,10.93-3.8l-5.22-1.43s8.07-.48,10.45-1.9l5.12-3.26,.11-.07s-.64,0-1.7-.07c-5.12-.32-20.06-2.2-19.67-13.23,.15-4.36,2.56-7.91,6.17-11.15,.01,0,.02,0,.03-.03,.03-.02,.06-.04,.09-.07,.15-.14,.3-.29,.47-.42,.02,.02,.03,.04,.05,.06,5.6,6.82,13.24,11.49,21.83,13.64l.33-.13s8.56,2.58,17.01,1.45c.98-.13,1.96-.32,2.92-.56,29.21-9.71,31.24-53.58,27.15-78.4Z"/>
        <g>
          <path class="cls-56" d="M173.42,23.04c-2.49-2.14-4.98-4.06-7.39-5.74-.8-.56-1.59-1.09-2.37-1.6-2.68-1.74-5.22-3.18-7.52-4.28-.06-.03-.11-.05-.17-.08-1.67-.8-3.2-1.42-4.55-1.85l-1.3,.09-.47-1.31-.6-1.62C129.57-3.81,82.76-4.02,54.99,26.59c-29.45,32.46-31.99,68.71-31.99,105.29s1.11,72.36-5.06,102.29C11.77,264.09,.21,284.29,.21,284.29c5.16-3.4,10.85-5.98,16.8-7.64,5.44-1.52,9.48-1.16,16.13-2.58,0,0,.28,0,.74,.02-.04-.14,0-.3,.17-.32,2.67-.4,5.32-.89,7.93-1.54,7.68-1.91,15.11-5.03,21.47-9.79,1,4.7,1.86,8.29,2.31,10.08,.16-1.41,.08-2.71-.32-3.83-3.16-8.86-6.96-36.1-6.96-36.1-1.9-19.63,5.7-44.33,3.8-92.46-1.9-48.14,10.13-72.84,10.13-72.84l7.71-3.93-3.28-9.36c-.31-1.39,.79-3.1,1.27-4.43,.56-1.56,1.38-2.63,2.36-3.94,2.13-2.86,5.52-6.56,9.49-6.25,7.09,.56,9.31,7.98,9.19,14.29l4.3-2.19s6.96-2.54,11.4-3.8c4.44-1.27,41.8-10.77,41.8-10.77l20.44-10.53c-1.22-1.16-2.43-2.26-3.66-3.32Z"/>
          <path class="cls-30" d="M58.24,222c-1.06-25.24,.23-47.68,.23-47.68,0,0,.59-72.62,.63-76.49-.12,4.44-4.43,99.57-4.43,119.56,0,14.66,2.65,36.93,4.12,48.14,1.36-.8,2.68-1.67,3.96-2.59-1.65-7.74-2.78-16.44-3.53-25.29-.45-5.22-.76-10.48-.98-15.63Zm-27.78,52.57c3.31-34.57,3.31-75.56,3.31-75.56-1.04,30.22-5.08,64.72-6.48,76,1.01-.12,2.05-.26,3.18-.45ZM52.62,55.22c.26-.62,.52-1.25,.79-1.86,0,0-.29,.62-.79,1.86ZM27.4,185.97c.33-15.33,.68-33.96,.68-44.59,0-20.27,7.6-68.4,7.6-68.4-11.74,41.33-11.14,117.58-10.46,145.67-.1,1.7-.2,3.39-.3,5.06-1.23,20.68-5.72,39.06-10.74,53.81l9.66-2.12c6.55-30.14,6.52-82.84,11.22-133.4,4.85-52.25,14.73-79.74,17.58-86.8-15.63,36.69-21.79,86-25.22,130.76ZM84.44,31.82c-22.17,29.13-23.43,62.07-23.43,62.07,5.07-29.13,23.43-62.07,23.43-62.07ZM130.16,5.3c.38-.03,.77-.06,1.15-.08,0,0-.4,.01-1.15,.08ZM50.24,64.12s-6.33,39.27-5.7,68.4c.62,28.5-1.79,120.04-6.64,140.59,1.37-.26,2.73-.55,4.09-.89,3.03-.75,6.02-1.7,8.92-2.86,.1-16.48,.33-75.61-1.3-110.24-1.9-40.53-2.53-72.83,.63-95ZM130.16,5.3c-.67,.05-1.34,.11-2.02,.17-11.06-1.65-32.77-2.16-55.73,12.41,0,0-22.8,16.47-31.03,48.13,0,0,13.3-34.2,40.53-49.4,19.3-10.77,36.37-12,46.03-11.12-22.56,2.31-52.97,15.6-65.03,41.52-12.67,27.23-11.4,79.17-11.4,79.17,1.27-51.93,15.83-79.17,15.83-79.17C88.87,13.41,118.67,6.8,128.23,5.52c.22,.02,.43,.05,.64,.07-.17-.03-.36-.05-.54-.08,.74-.1,1.35-.16,1.82-.2Zm-1.28,.29c4.35,.7,6.87,1.53,6.87,1.53-1.02-.51-3.41-1.15-6.87-1.53ZM59.1,97.82c0-.06,0-.11,0-.14,0-.07,0-.01,0,.14Z"/>
          <path class="cls-33" d="M202.24,93.88s-.63,35.47,3.8,56.37c4.43,20.9,8.23,45.6,4.43,70.3,0,0,.32-23.43-5.38-41.17-5.7-17.73-13.93-44.33-12.98-55.42l7.28-12.98,2.85-17.1Z"/>
          <path class="cls-4" d="M199.71,127.13l-1.58,13.93s.79,13.3,8.87,34.2c0,0-7.28-34.83-7.28-48.13Z"/>
          <path class="cls-59" d="M68.29,18.52s-28.5,28.5-39.42,67.92c0,0,2.85-41.8,39.42-67.92Z"/>
          <path class="cls-34" d="M68.29,29.44s-17.1,15.2-16.62,52.25c0,0,1.42-28.02,16.62-52.25Z"/>
          <path class="cls-7" d="M54.99,45.59s-14.72,32.77-20.43,61.75c0,0,.48-28.02,20.43-61.75Z"/>
          <path class="cls-39" d="M43.27,100.85s-5.07,36.73-7.6,74.1c-2.53,37.37-1.27,92.47-1.27,92.47,0,0,5.7-34.83,6.97-84.23,1.27-49.4,1.9-82.33,1.9-82.33Z"/>
          <polygon class="cls-73" points="54.67 122.38 51.51 161.02 52.77 207.88 54.67 162.92 54.67 122.38"/>
          <path class="cls-27" d="M68.61,276.28s-6.33-24.07-7.6-64.6c-1.27-40.53,5.07-102.6,5.07-102.6,0,0,0,74.73,1.27,109.57,1.27,34.83,15.83,69.67,15.83,69.67l-7.6-6.97-9.5-42.43,5.7,38-3.17-.63Z"/>
          <path class="cls-20" d="M216.49,185.4c.63,16.15,.63,41.17-10.45,58.9-11.08,17.73-25.97,23.12-25.97,23.12l3.17,1.58c15.83-7.6,27.55-27.55,27.55-27.55-6.65,17.73-23.43,27.55-23.43,27.55l4.12-.63c14.25-8.87,21.85-26.28,21.85-26.28,10.45-27.23,3.17-56.68,3.17-56.68Zm-2.22,17.42s1.58-12.98,0-28.18c-1.58-15.2-8.23-52.88-7.6-74.42,0,0-3.17,24.7-.95,40.85,2.22,16.15,9.82,36.73,8.55,61.75Z"/>
          <path class="cls-6" d="M6.22,277.87s14.25-35.47,17.1-71.25c0,0,.32,42.43-11.08,69.67l-6.02,1.58Z"/>
          <path class="cls-51" d="M24.59,141.07s2.85-41.17,5.07-50.98c0,0-6.33,22.48-5.38,52.25l.32-1.27Z"/>
          <path class="cls-31" d="M55.31,113.83s6.02-50.35,21.53-75.68c0,0-20.27,27.23-21.53,75.68Z"/>
          <path class="cls-41" d="M75.57,24.85s15.52-12.35,37.37-17.1c0,0-21.54,1.27-37.37,17.1Z"/>
          <path class="cls-41" d="M78.42,11.87s36.42-15.52,62.7-4.43l5.07-.63s-31.67-14.57-67.77,5.07Z"/>
          <path class="cls-41" d="M86.97,28.02s23.75-16.15,43.07-18.37l5.07-1.27-8.87-1.58s-23.44,4.43-39.27,21.22Z"/>
          <path class="cls-70" d="M79.06,281.03s-12.98-56.68-12.03-76.32c0,0-1.9,34.83,9.5,75.05l2.53,1.27Z"/>
          <path class="cls-67" d="M67.97,271.22s-7.6-48.45-7.28-61.75c0,0-4.12,21.85,7.28,61.75Z"/>
          <path class="cls-13" d="M142.07,286.1s-9.82-8.23-6.97-19.32c2.85-11.08,13.3-19.32,26.28-23.75,0,0-18.68,9.18-19.63,21.53-.95,12.35,16.78,15.2,16.78,15.2l-8.87,1.9s-9.5-4.75-10.13-13.3c0,0-2.22,10.13,9.18,16.78l-6.65,.95Z"/>
          <path class="cls-43" d="M63.07,212.79l1.42,6.17c1.43-12.82-.47-59.85-.47-59.85-1.9,10.92-.95,53.67-.95,53.67Zm-27.08,15.68l1.42-10.93s3.33-47.97,2.85-69.82c0,0-5.22,49.4-4.28,80.75Zm109.96,24.22s-10.21,7.36-11.16,24.46l3.09,4.99s-4.28-14.25,8.08-29.45Z"/>
        </g>
        <g>
          <path class="cls-61" d="M150.47,253.88h0s.02,0,.03-.02c-.02,.01-.03,.02-.03,.02Zm-65.06-45.85c-.33-.27-.68-.52-1.01-.79-5.5-4.48-10.45-9.65-14.7-15.35v-.23c-.78,14.06,3.93,50.65,5.02,58.89,1.55-2.3,2.92-4.71,4.08-7.24,5.08-10.98,6.74-23.18,6.61-35.28Zm-10.52,43.79c.03,.26,.05,.39,.05,.39h0c-.02-.13-.04-.26-.06-.39Zm132.84-63.89h0c-.57-2.75-1.22-5.46-1.93-8.16-.25-.92-.49-1.84-.76-2.75-3.33-11.61-8.03-22.42-8.03-22.42,0,0-.07-.16-.17-.42-.14,.51-.29,1.03-.48,1.54-.09,.27-.21,.56-.33,.84-.05,.12-.09,.24-.15,.36,0,.02-.02,.02-.02,.12,0,.05,0,.11,0,.21v.19c0,2.35-.46,4.65-1.01,6.86-.36,1.45-.78,2.89-1.22,4.31-.12,.38-.26,.76-.38,1.13-.14,.42-.28,.83-.42,1.24-.29,.82-.6,1.64-.91,2.46h0c-.59,1.52-1.21,3-1.85,4.48-1.07,2.41-2.2,4.8-3.41,7.14-3.18,6.19-6.92,12.12-11.19,17.61-2.69,3.45-5.63,6.7-8.56,9.92-2.74,2.99-5.58,5.93-8.72,8.54-3.08,2.56-6.46,4.8-10.19,6.36-2.34,.97-4.75,1.62-7.21,1.98,.94,5.02,2.38,9.99,4.54,14.62,.2,.44,.41,.87,.63,1.29,.34,.7,.71,1.4,1.09,2.08,.04,.07,.08,.14,.12,.21-.83,.61-1.64,1.24-2.44,1.9h-.02c-.43,.35-.85,.72-1.27,1.08-2.36,2.06-4.4,4.43-6.04,6.96,1.18-1.29,2.79-2.89,4.66-4.55,4.58-4.08,10.67-8.61,15.54-10.36,7.73-2.78,17.01-8.87,17.4-9.18-.41,.37-9.49,10.44-18.67,15.83-.68,.4-.89,.72-.79,.94,0,.02,0,.03,.02,.05-.49,.34-.97,.67-1.42,.97-.03,.02-.06,.04-.08,.06-1.29,.89-2.35,1.62-2.96,2.05,.05,.07,.11,.13,.17,.2,1.33,1.6,2.77,3.07,4.3,4.42,1.51,1.33,3.11,2.54,4.8,3.62,.42,.28,.84,.53,1.27,.78,3.48,2.07,7.28,3.62,11.28,4.63l.33-.13h.02c2.71-.97,20.69-7.83,27.06-19.24,6.89-12.35,8.31-15.68,9.5-28.98,.93-10.45-.04-20.75-2.11-30.79Zm-43.77,90.33c.32,.19,.51,.3,.51,.3,0,0,.4-.06,1.08-.17l.11-.07s-.64,0-1.7-.07Z"/>
          <path class="cls-24" d="M74.94,252.22h0c-.02-.13-.04-.26-.06-.39,.03,.26,.05,.39,.05,.39Zm89.54,26.36s.4-.06,1.08-.17l.11-.07s-.64,0-1.7-.07c.32,.19,.51,.3,.51,.3Zm43.25-90.64h0c-.57-2.75-1.22-5.46-1.93-8.16-.25-.92-.49-1.84-.76-2.75-3.33-11.61-8.03-22.42-8.03-22.42,0,0-.07-.16-.17-.42-.14,.51-.29,1.03-.48,1.54-.09,.27-.21,.56-.33,.84-.05,.12-.09,.24-.15,.36,0,.02-.02,.02-.02,.12,0,.05,0,.11,0,.21v.19c0,2.35-.46,4.65-1.01,6.86-.36,1.45-.78,2.89-1.22,4.31-.12,.38-.26,.76-.38,1.13-.14,.42-.28,.83-.42,1.24-.29,.82-.6,1.64-.91,2.46h0c-.59,1.52-1.21,3-1.85,4.48-1.07,2.41-2.2,4.8-3.41,7.14-3.18,6.19-6.92,12.12-11.19,17.61-2.69,3.45-5.63,6.7-8.56,9.92-2.74,2.99-5.58,5.93-8.72,8.54-3.08,2.56-6.46,4.8-10.19,6.36-2.34,.97-4.75,1.62-7.21,1.98,.94,5.02,2.38,9.99,4.54,14.62,.2,.44,.41,.87,.63,1.29,.21-.69,.53-1.42,.81-2.05,1.19-2.8,2.21-5.42,4.18-7.75,1.37-1.62,2.33-1.87,4.28-2.49,1.54-.49,2.99-.94,4.51-1.56,2.92-1.2,5.65-2.58,8.31-4.39,.7-.47,1.5-.9,2.1-1.54,.55-.59,1.17-1,1.73-1.53,.48-.47,1.03-1.23,1.41-1.79,.34-.48,.47-.92,.74-1.43,.35-.67,.9-1.08,1.35-1.66,1.04-1.37,1.64-3.29,2.47-4.8,1.04-1.88,1.64-3.89,2.56-5.8,.33-.69,.79-1.35,1.19-1.99,.37-.59,.49-1.21,.82-1.8,.34-.63,1-1.11,1.34-1.77,.2-.4,.28-.82,.45-1.2,.23-.53,.53-.61,.86-1.05,.77-1.05,1.28-2.23,2.47-2.89,.88-.48,.9-.06,1.54,.04,.8,.12,1.51,.1,2.27,.45,1.48,.68,3.08,1.68,4.75,1.57,2.12-.14,3.53-1.51,5.11-2.84,.31-.27,.62-.54,.91-.85,.22,.77,.47,1.53,.74,2.26,.73,1.98,1.22,3.73,1.3,5.82,.04,1.04,.44,1.87,.5,2.9,.05,.87-.02,1.78-.02,2.66,0,1.63,.31,3.68-.11,5.24-.38,1.43-.6,2.89-.96,4.37-.89,3.58-1.95,7.18-3.68,10.45-1.16,2.17-2.17,4.44-3.58,6.46-1.29,1.85-3,3.6-4.48,5.32-3.38,3.95-9,7.15-14.26,7.12-4.36-.04-9.7-.84-13.8,.93-3.28,1.42-5.9,4.64-7.8,7.58-.13,.21-.26,.43-.37,.65,1.51,1.33,3.11,2.54,4.8,3.62,.42,.28,.84,.53,1.27,.78,3.48,2.07,7.28,3.62,11.28,4.63l.33-.13h.02c2.71-.97,20.69-7.83,27.06-19.24,6.89-12.35,8.31-15.68,9.5-28.98,.93-10.45-.04-20.75-2.11-30.79Zm-123.33,19.3c-5.5-4.48-10.45-9.65-14.7-15.35v-.23c-.78,14.06,3.93,50.65,5.02,58.89,1.55-2.3,2.92-4.71,4.08-7.24,5.08-10.98,6.74-23.18,6.61-35.28-.33-.27-.68-.52-1.01-.79Z"/>
          <path class="cls-85" d="M74.89,251.83c.03,.26,.05,.39,.05,.39h0c-.02-.13-.04-.26-.06-.39Zm10.52-43.79c-.33-.27-.68-.52-1.01-.79-5.5-4.48-10.45-9.65-14.7-15.35v-.23c-.78,14.06,3.93,50.65,5.02,58.89,1.55-2.3,2.92-4.71,4.08-7.24,5.08-10.98,6.74-23.18,6.61-35.28Zm-5.88,28.18c-2.43-7.81-5.61-20.6-6.56-36.34,.59,.59,1.22,1.29,1.85,2.08,1.23,11.28,3.9,19.95,6.44,26.02-.63,3.71-1.29,6.56-1.73,8.24Zm2.57-13.88c-3.14-6.04-5.14-14.51-6.01-18.75,2.51,3.35,5.08,7.51,6.78,10.32-.17,3.02-.45,5.85-.77,8.44Zm123.71-42.55c-3.32-12.59-8.79-25.17-8.79-25.17,0,0-.07-.16-.17-.42-.14,.51-.29,1.03-.48,1.54-.09,.27-.21,.56-.33,.84-.05,.12-.09,.24-.15,.36,0,.02-.02,.02-.02,.12,0,.05,0,.11,0,.21v.19c0,2.35-.46,4.65-1.01,6.86-.36,1.45-.78,2.89-1.22,4.31-.12,.38-.26,.76-.38,1.13-.14,.42-.28,.83-.42,1.24-.29,.82-.6,1.64-.91,2.46h0c-.59,1.52-1.21,3-1.85,4.48-1.07,2.41-2.2,4.8-3.41,7.14-3.18,6.19-6.92,12.12-11.19,17.61-2.69,3.45-5.63,6.7-8.56,9.92-2.74,2.99-5.58,5.93-8.72,8.54-3.08,2.56-6.46,4.8-10.19,6.36-2.34,.97-4.75,1.62-7.21,1.98,.94,5.02,2.38,9.99,4.54,14.62,1.84-4.66,5.53-12.7,10.68-17.85,1.46-1.46,3.31-3.11,5.43-5.07-.74,13.54-11.67,24.62-12.35,25.31l7.25-4.72,.02-.02c.35-.38,6.07-6.55,8.53-13.59,1.76-5.07,2.45-10.3,2.71-13,2.21-2.32,4.57-4.98,7.01-8.08-.3,4.22-1.19,9.59-3.39,15.37-4.58,12.05-13.07,18.12-14.62,19.15l6.71-3.95s0,0,.02,0t.02-.02h0c.48-.52,8.34-9.12,12.32-17.71,2.31-4.98,3.03-12.76,3.21-18.62,1.31-1.91,2.62-3.94,3.94-6.13,1.22,5.61,2.51,15.45-1.14,22.53-5.02,9.75-16.64,18.67-18.19,19.84,1.07-.68,6.82-4.35,7.12-4.64,0,0,12.97-7.6,15.51-22.49,1.64-9.65,1.56-18.51,1.29-23.53,2.58-5.07,5.12-10.78,7.52-17.26,.12-.33,.25-.66,.37-1.01,0,0,12.98,25.01,10.45,54.46-.68,7.96-3.58,14.52-7.68,19.85-.86-2-1.08-5.35,1.65-10.67,5.39-10.45,3.49-17.74,3.49-17.74,0,9.82-2.85,14.25-6.01,19.32-2.26,3.61-2.91,10.11-3.1,13.55-1.6,1.57-3.3,3-5.08,4.3-2.42-14.77,3.75-13.3,8.81-21.34,5.39-8.55,3.18-21.21,3.18-21.21-.95,16.15-9.19,24.7-15.2,30.71-5.3,5.3-6.42,15.26-6.62,17.57-1.96,.89-3.91,1.66-5.83,2.32,.14-20.48,14.74-17.96,21.96-35.08,7.6-18.05,3.47-38.64,3.47-38.64,0,40.54-15.82,51.3-24.7,58.59-7.05,5.79-10.09,14.37-11.04,17.65-.47,.07-.92,.12-1.37,.18,3.48,2.07,7.28,3.62,11.28,4.63l.33-.13h.02c2.71-.97,20.69-7.83,27.06-19.24,6.89-12.35,8.31-15.68,9.5-28.98,1.19-13.3-.71-26.36-4.04-38.95Zm-27.62,57.87c19-16.79,15.83-34.84,15.83-34.84-1.9,25.34-27.23,40.21-27.23,40.21-5.18,3.14-8.76,5.52-11.24,7.28-.51,.36-.98,.7-1.4,1.02-.03,.02-.06,.04-.08,.06-1.3,.97-2.19,1.71-2.79,2.25,2.63,3.16,5.7,5.85,9.1,8.04,.83-3.75,4.21-12.02,17.8-24.02Z"/>
        </g>
        <g>
          <path class="cls-25" d="M77.09,52.01c.08-.06,.14-.12,.22-.17l.17-.39c-.13,.18-.26,.37-.39,.56Zm10.92,9.26c-1.23-2.1-1.47-4.51-2.42-6.67-1.42-3.24-5.34-5.06-8.27-2.76l-1.1,2.46c-.95,2.21-4.42,19.31-4.42,19.31-.2,.96-.55,1.86-1.05,2.69,.58,.25,1.13,.82,1.63,1.23,1.23,1.04,2.64,1.45,3.86,2.39,1.48,1.14,1.67,1.3,3.63,1.28,1.38-.02,2.74,.1,4.09-.14,5.73-1.04,11.11-4.29,16.77-3.03,.58-3.41,1.1-6.83,1.74-10.23-1.79,.04-3.7,.14-5.83,.14-5.22,0-6.14-2.49-8.62-6.68Zm111.72-1.22c-1.01-2.13-2.14-4.22-3.41-6.29-.51-1.24-1.05-2.44-1.63-3.65-.13-.28-.26-.55-.39-.83-.05-.09-.08-.18-.13-.27-.43,.72-.88,1.4-1.41,1.86-1.64,1.44-3.68,1.22-5.7,1.2-8.15-.1-12.08,14.97-16.67,19.81-.85,.89-1.79,1.78-2.95,2.16-2.8,.92-4.69-1.29-7.15-2.02-2.44-.71-5.33-.47-7.8-.03-8.36,1.48-17.12,9.42-25.93,6.37-4.08-1.41-8.12-4.85-11.71-7.29-4.25-2.91-7.72-3.32-11.73-3.28,.32,2.23,.88,6.43,1.33,11.82,1.01,.69,1.92,1.52,2.94,2.22,1.62,1.1,3.32,2.01,4.92,3.16,4.05,2.89,8.83,5.02,13.79,3.21,4.89-1.78,9.52-3.84,14.62-4.95,1.54-.34,3.09-.88,4.56-1.43,1.77-.67,2.26-.63,4.11-.07,4.46,1.34,7.75,4.31,12.67,4.32,4.83,.02,9.4-2.11,13.42-4.77,4.15-2.74,8.93-8.43,14.06-9,2.68-.29,5.71,.88,7.97-.83,2.38-1.8,1.52-5.16,2.07-7.9,.23-1.15,.2-2.35,.15-3.54Z"/>
          <path class="cls-5" d="M137.01,81.22l.62-3.54c-.36,.13-.72,.25-1.08,.37l.45,3.18Zm14.98-9.12c.12,2.59,.32,6.72,.53,8.8,0,0,.71-5.21,1.11-9.08-.4,.06-.79,.12-1.17,.18-.16,.03-.31,.06-.47,.09Zm-7.7,9.12l.74-6.69c-.84,.37-1.68,.75-2.53,1.13l1.79,5.56Zm-15.64-2.32c-.15,2.48-.42,6.51-.63,8.61,1.03-.39,2.05-.78,3.07-1.17l.86-4.49,.47,3.99c.67-.25,1.34-.49,2.01-.73-.36-1.55-.86-4.06-.99-6.29-1.59,.27-3.19,.33-4.78,.08Zm-5.57,5.8l.86-7.49c-.78-.41-1.55-.86-2.31-1.36,.41,3.78,1.46,8.85,1.46,8.85Zm-9.05-14.13l.82,14.13s1.28-7.95,2.46-11.85c-.85-.61-1.68-1.21-2.48-1.76-.27-.18-.53-.36-.8-.52Zm-2.51,13.93c.26,.17,.52,.34,.77,.52,.29,.2,.58,.4,.87,.6l-.53-11.68c-.59,2.73-.93,7.39-1.11,10.56Zm-14.69-6.68c.46-.04,.92-.06,1.38-.05,.38-2.79,.97-6.64,1.75-9.88-.44,.02-.89,.03-1.35,.04l-1.78,9.89Zm22.13,1.18l-.79,9.17c.8,.27,1.62,.48,2.45,.6l-1.66-11.35v1.58Zm-29.15-14.69c-.81,5-2.81,12.92-3.68,16.28,1.12-.3,2.24-.65,3.34-1l2.21-13.06c-.71-.58-1.29-1.33-1.87-2.22Zm-7.04,16.9l2.31-16.77c-2.27,5.31-3.95,13.64-4.53,16.79,.74,0,1.48,.02,2.21-.02Zm9.19-2.38c.65-.19,1.29-.36,1.94-.51l-.26-7.86-1.67,8.37Zm69.76,5.25s1.5-6.48,1.61-10.6c-.89-.45-1.76-.98-2.72-1.32l1.11,11.92Zm-3.8,1.32c.61,.2,1.23,.37,1.88,.49l-.29-9.09s-1.37,5.73-1.59,8.6Zm18.05-9.24s1.23-12.57,2.61-17.92c-1.02,1.54-1.97,3.24-2.88,4.92l.27,13Zm-11.59,9.78c.87-.12,1.72-.29,2.56-.52-.16-2.87-.16-8.62-.16-8.62,0,0-1.89,5.9-2.4,9.14Zm-24.04-2.56c.12-.03,.25-.06,.37-.09,.63-.14,1.27-.32,1.9-.51l-1.47-4.71-.8,5.32Zm-34.74-15.5c.4,4.22,.71,9.83,.87,13.31,.3,.23,.59,.46,.9,.68,.58,.4,1.17,.76,1.77,1.13-.28-3.84-.47-10.68-.56-14.7-.99-.22-1.98-.35-2.98-.41Zm87.71-17.58c-.18,.22-.36,.43-.56,.6-.2,.18-.41,.33-.63,.46,1.73,6.23,3.02,17.64,3.38,20.99,.57-.1,1.12-.28,1.64-.59-.41-6.25-3.01-17.92-3.83-21.46Zm-2.34,22c.81,.02,1.63,.11,2.43,.14-.09-5.11-2.24-15.6-2.24-15.6,.48,4.6,.04,12.15-.19,15.46Zm-9.01,3.87c.96-.76,1.94-1.47,2.94-2.08l-1.02-11.24s-1.31,8.82-1.92,13.31Zm-10.11,5.69s1.85-10.6,2.17-15.55c-1.06,1.97-2.09,3.75-3.15,5.04l.98,10.52Zm-15.23-10.26l-2.4,12.22c.38,.18,.76,.36,1.14,.54,.49-3.09,1.55-9.14,2.82-12.7-.51-.05-1.03-.07-1.56-.06Zm-76.34-20.77c-3.43,8.86-3.43,24.07-3.43,24.07,.95-5.72,5.32-17.01,7.42-22.23-1.08-1.12-2.52-1.82-3.98-1.83Zm68.07,30.68c.3,.07,.63,.16,1.03,.28,.5,.15,.99,.33,1.47,.51l-.54-8.36-1.96,7.56Zm38.69-29.41c-.25,0-.49,0-.72,.03l1.36,15.48s1.46-10.22,1.82-15.52c-.8,.05-1.63,.01-2.45,0Z"/>
          <path class="cls-66" d="M88.57,83.69c-1.22,.27-1.87,.4-2.99,.85-1.1,.45-2.25,.78-3.35,1.19-1.99,.73-4.83,1.02-6.86,.1-1.29-.57-4.28-3.14-4.23-4.62l-.95,3.16c-1.05,7.33-.58,28.31-.38,35.35,.04,.09,.07,.12,.07,.12,.92,1.22,3.84,.65,5.2,.64,1.93-.02,3.42,.75,5.34,.58-.86,.7-1.45,2.2-2.11,3.12,1.15,.33,2.42-.13,3.6,.07,1.35,.24,2.78,1.67,4.17,1.23-.32-1.66,.82-3.74,1.23-5.33,.47-1.84,.73-3.59,1.55-5.35,.88-1.89,1.59-3.85,2.54-5.7,1.12-2.19,1.75-4.53,2.86-6.67,2.33-4.46,3.4-10.11,4.6-15.01,.25-1.03,.48-2.05,.69-3.08-1.07-.26-2.17-.49-3.26-.75-2.77-.66-5.03-.5-7.71,.1Zm111.13-18.31c-.05,4.29-1.61,7.44-4.29,10.8-2.5,3.14-7.67,3.11-10.93,5.49-1.78,1.3-3.3,3.04-4.87,4.61-1.56,1.55-3.52,4.23-5.69,4.96-2.92,.99-5.21,.5-8.11,.09-1.18-.17-2.33-.22-3.49-.61-1.42-.46-2.72-1.34-4.12-1.92-2.7-1.11-5.22-2.62-8.05-3.31-2.64-.65-4.65-.39-7.32,.3-2.4,.63-4.5,1.54-6.78,2.7-2.18,1.11-4.49,1.27-6.8,2.03-4.84,1.61-9.83,2.33-14.65,.2-2.7-1.2-5.62-2.28-8.14-3.82-.53-.32-1.07-.62-1.62-.86,.49,10,.31,22.37-2.04,33.8,0,0,1.28,1.9,8.24,2.53l-.47,2.54s12.83,1.9,19.47,.48v-1.9s17.1,.95,29.93-1.9c12.82-2.85,18.52-.95,18.52-.95v2.38s7.25-.84,13.26,1.5c.12,.02,.24,.05,.35,.09,3.49,1.26,7.29,.31,7.29,.31,6.34-26.6,.31-59.54,.31-59.54Z"/>
          <path class="cls-43" d="M84.76,100.85c2.85-4.43,6.97-19.63,6.97-19.63l-2.85,.63c-.32,6.33-4.12,19-4.12,19Zm-6.02,1.27l5.06-18.68-2.85,.32c-1.58,4.12-2.21,18.37-2.21,18.37Zm35.15-12.67s3.48,19.95,4.12,26.6c0,0-.32-17.42-1.27-25.97l-2.85-.63Zm7.28,17.42l2.22-16.15-3.17-.63,.95,16.78Zm10.77-19l4.43,24.7-1.27-25.33-3.17,.63Zm9.82,19.32l2.85-24.07-3.17,1.27c-.95,3.8,.32,22.8,.32,22.8Zm5.07-24.38l-.32,22.8s1.58-17.73,1.58-21.85l-1.27-.95Zm11.08,4.43s2.22,20.27,2.54,24.38c0,0,1.27-17.73,.63-22.48l-3.17-1.9Zm12.35,21.22l2.22-19-2.53,.63,.32,18.37Zm10.13-25.65l4.12,22.48s-1.27-19-1.9-25.02l-2.22,2.53Zm5.7,26.28s3.8-13.3,5.38-34.2l-3.8,4.43s0,20.9-1.58,29.77Zm8.55-33.25l-1.27,23.75s3.17-10.77,3.8-25.97l-2.53,2.22Zm-19,11.72l1.27,30.72s2.22-19,.63-33.57l-1.9,2.85Zm-26.6,6.65s-1.58,18.68-.95,25.97c0,0,2.53-14.88,.95-27.55v1.58Zm14.88,0l.63,24.07s1.9-10.45,.63-23.75l-1.27-.32Zm-24.38,29.45l1.9,.32-3.8-23.75,1.9,23.43Zm-20.58,2.53h2.54l-.63-14.57-1.9,14.57Zm-46.23-25.02l2.53-17.73-2.53-2.85c-2.22,6.33,0,20.58,0,20.58Z"/>
          <path class="cls-68" d="M136.05,123.64c.41,0,.84,0,1.29,0l-4.13-18.36,2.84,18.36Zm-47.18-13.92c-2.86,5.51-4.04,12.08-4.49,15.58,.57,.23,1.14,.37,1.7,.18-.32-1.66,.82-3.74,1.23-5.33,.47-1.84,.73-3.59,1.55-5.35,.88-1.89,1.59-3.85,2.54-5.7,1.12-2.19,1.75-4.53,2.86-6.67,2.33-4.46,3.4-10.11,4.6-15.01,.25-1.03,.48-2.05,.69-3.08-.09-.02-.19-.04-.28-.06-1.09,3.8-6.35,17.67-10.39,25.44Zm40.17,15.85c.34-.05,.68-.11,1-.18v-1.9s1.89,.1,4.89,.14c-1.65-8.9-5.2-30.7-5.2-30.7-1.35,6.5-.86,26.85-.68,32.64Zm14.35-2.06c.7-.03,1.41-.06,2.14-.1l-.61-26.67s-1.2,16.87-1.53,26.78Zm-33.47-1.25c.36,.04,.72,.08,1.12,.12l-.47,2.54s1.6,.24,3.96,.48c.76-13.45-3.8-32.78-3.8-32.78,1.06,10.09-.32,25.06-.8,29.65Zm-37.38-6.79c-1.14-11.94-2.35-31.09-2.35-31.09h0c-1.04,7.34-.58,28.31-.38,35.35,.04,.09,.07,.12,.07,.12,.82,1.08,3.2,.75,4.68,.66-.07-13.1,3.55-32.33,3.55-32.33-3.25,7.15-4.87,19.92-5.57,27.29Zm76.51,7.69c1.92-.16,3.87-.37,5.78-.65-.4-7.02-1.34-21.42-2.94-34.01,0,0-1.03,22.52-2.84,34.66Zm-26.12,2.75c1.12,.01,2.22,0,3.28-.06-.03-10.84,.67-24.05,.67-24.05-2.07,7.24-3.33,17.72-3.95,24.12Zm-7.21-.4c.42,.04,.86,.08,1.32,.11-.33-5.63-.98-12.95-2.19-17.81,0,0,.65,11.68,.87,17.7Zm67.51-2.61c.29,.01,.58,.03,.89,.05,.09-6.44-.22-14.45-1.82-20.52,0,0,1.01,12.77,.93,20.47Zm-87.7-38.2s-7.6,16.78-11.08,22.17c-2.63,4.06-5.07,8.67-6.8,13.95,.89,.18,1.78,.34,2.78,.25-.86,.7-1.45,2.2-2.11,3.12,.66,.19,1.35,.12,2.04,.06,.61-1.49,1.55-3.83,2.5-6.3,1.58-4.12,3.48-10.45,7.28-17.1,3.8-6.65,5.38-16.15,5.38-16.15Zm91.62,38.59c.88,.14,1.77,.34,2.66,.59,1.12-9.99,2.3-28.1,2.3-28.1-1.87,6.74-3.74,18.78-4.96,27.51Zm-82.29-36.9c.48,9.95,.27,22.16-2.05,33.46,0,0,.38,.55,1.79,1.15,4.08-17.81,.43-34.4,.43-34.4,0,0-.06-.08-.17-.21Zm94.22-7.39c-2.29,14.87-5.49,33.17-7.68,45.39,.12,.04,.24,.08,.36,.13,.12,.02,.24,.05,.35,.09,1.58,.57,3.22,.69,4.54,.65,2.73-15.71,2.43-46.25,2.43-46.25Zm-32.7,41.45c.39-.05,.74-.09,1.11-.13,1-6.28,1.81-14.63,1.19-23.28,0,0-.89,15.16-2.3,23.41Zm-86.05-19.29c-1.9,6.33-3.8,14.88-3.8,14.88,6.33-13.93,8.55-30.08,8.55-30.08,0,0-2.85,8.87-4.75,15.2Zm97.97,19.42c.12,.03,.19,.05,.19,.05v2.38s1.61-.18,3.93-.14c-.31-8.05-1.12-20.51-3.3-29.63,0,0,0,18.34-.83,27.34Zm-20.23,1.39c.64-.12,1.28-.25,1.9-.39,.23-.05,.45-.09,.68-.14-.46-3.65-2.32-17.36-5.59-26.62,0,0,2.34,17.63,3.01,27.15Z"/>
          <path class="cls-41" d="M109.77,26.43l-19.32,5.7s-7.92,8.87-10.13,12.67c0,0,7.6-3.17,8.87,.32,1.27,3.48-.32,11.08,8.55,13.93,8.87,2.85,19,1.9,25.02,9.18,6.02,7.28,17.42,6.02,23.12,3.48,5.7-2.53,13.3-2.85,18.05-2.22,4.75,.63,8.87-3.48,13.62-14.25,4.5-10.21,11.29-5.9,13.59-11.64-.13-.22-.27-.45-.4-.66-.01,0-.01-.02-.02-.03-.42-.68-.86-1.34-1.29-2-.72-1.09-1.48-2.15-2.26-3.18-.38-.51-.76-1.02-1.15-1.52-1.23-1.58-2.5-3.11-3.8-4.56-.83-.92-1.66-1.81-2.51-2.69-.2-.21-.4-.42-.6-.63-1.87-1.89-3.78-3.66-5.69-5.3-2.49-2.14-4.98-4.06-7.39-5.74-.55-.39-1.09-.74-1.63-1.1-10.57,2.43-23.91,5.8-23.91,5.8l-30.72,4.43Z"/>
          <path class="cls-11" d="M187.16,37.74c-.08,.36-.12,.73-.15,1.12-.48,7.08-5.03,6.29-8.47,11.05-1.21,1.67-1.53,4-2.12,5.93-2.46,8.05-8.71,13.95-17.5,11.31-2.63-.79-4.8,.21-7.36,.75-1.05,.23-2.03,.44-3.12,.74-.97,.28-1.64,1.35-2.58,1.7-.68,.26-1.84,.49-2.52,.6-5.43,.88-9.97-.11-14.67-3-2.9-1.79-5.78-3.89-8.13-6.36-1.47-1.54-2.54-4.02-4.39-5.08-1.61-.92-3.9-1.31-5.76-1.24-3.97,.14-9.38,2.41-13.19,1.29-1.53-.46-2.73-1.7-3.44-3.13-1.45-2.93-1.46-7.01-1.09-10.2,.26-2.18,1.66-4.93-.06-6.86-1.72-1.93-3.24,.76-2.83-3.12,.29-2.73,5.87-6.24,7.64-8.39,0,0,15.51-11.09,34.2-13.3l4.11-1.27c-.01,.13-.02,.25-.03,.39,.13-1.83,12.39-2.32,13.84-2.41,.19,.43,.38,.86,.58,1.28-.04-.08,5.5,1.64,5.84,1.8,.06,.03,.11,.05,.17,.08,2.3,1.1,4.84,2.55,7.52,4.28,.78,.5,1.57,1.04,2.37,1.6,2.42,1.68,4.9,3.6,7.39,5.74,1.91,1.64,3.82,3.41,5.69,5.3,.2,.21,.4,.42,.6,.63,.85,.87,1.68,1.77,2.51,2.69,1.3,1.45,2.57,2.98,3.8,4.56,.39,.5,.77,1.01,1.15,1.52Z"/>
          <path class="cls-55" d="M105.34,32.77s-6.58,1.44-12.58,3.78c.82,1.07,.79,2.36,.54,3.65l12.04-7.43Zm2-13.65h0Zm78.67,17.09c-.75-.96-1.52-1.9-2.3-2.83-.49-.59-.99-1.17-1.5-1.73-.83-.92-1.66-1.81-2.51-2.69-.2-.21-.4-.42-.6-.63-1.87-1.89-3.78-3.66-5.69-5.3-.43-.37-.87-.73-1.3-1.09-2.05-1.7-4.1-3.26-6.09-4.65-.8-.56-1.59-1.09-2.37-1.6-2.68-1.74-5.22-3.18-7.52-4.28-.06-.03-.11-.05-.17-.08-.3-.15-4.84-1.56-5.68-1.77-.02,0-.04-.01-.06-.01s-.03,0-.04,0c-.03,0-.05,0-.05,0-.19-.43-.38-.86-.58-1.28-1.45,.08-13.71,.58-13.84,2.41,0-.13,.02-.25,.03-.39l-4.11,1.27c-.59,.07-1.17,.15-1.75,.23-.2,.03-.39,.07-.59,.1-.38,.06-.76,.12-1.14,.19-.21,.04-.43,.08-.64,.12-.36,.07-.71,.13-1.07,.21-.23,.05-.45,.1-.67,.15-.34,.07-.67,.14-1.01,.22-.23,.05-.46,.11-.69,.17-.32,.08-.65,.16-.97,.24-.21,.05-.42,.11-.62,.17-.34,.09-.67,.18-1,.27-.19,.06-.38,.11-.58,.17-.34,.1-.68,.2-1.02,.3-.18,.06-.36,.12-.54,.17-.34,.11-.69,.22-1.02,.33-.16,.05-.32,.11-.47,.16-.35,.12-.7,.24-1.05,.36-.14,.05-.29,.1-.43,.16-.35,.13-.71,.26-1.06,.39-.12,.05-.24,.09-.37,.14-.36,.14-.72,.28-1.08,.42-.11,.04-.21,.09-.32,.13-.37,.15-.73,.29-1.08,.44-.09,.04-.17,.07-.26,.11-.37,.16-.74,.31-1.1,.47-.07,.03-.13,.06-.2,.09-.38,.17-.75,.33-1.11,.5-.04,.02-.08,.04-.12,.06-.39,.18-.76,.35-1.13,.53-.03,.01-.05,.02-.08,.04-.38,.18-.76,.36-1.12,.54,0,0,0,0,0,0-6.11,3.01-9.91,5.73-9.91,5.73-1.43,1.74-5.36,4.37-6.96,6.76l.15,.2s11.91-8.7,30.15-13.86c-.54,.91-1.08,1.62-.03,2.46,.86,.68,1.82,.68,2.34,1.37-6.58,1.33-19.5,4.91-31.72,13.82,.39,.08,.81,.26,1.25,.76,.02,.03,.04,.06,.06,.08,5.27-3.43,17.95-11.09,30.55-14.42,.08,.16,.14,.33,.19,.56,.11,.57,.04,1.18-.11,1.74-10.25,3.01-14.64,6.08-14.64,6.08l13.6-2.96c-.1,.31-.2,.62-.31,.94-.65,1.97-.5,4,.26,5.72-3.74,2.41-7.66,5.68-11.18,10.07,0,0,4.91-3.77,12.22-8.35,.62,.76,1.39,1.39,2.28,1.85-6.46,3.65-15.14,9.73-22.17,18.77,2.44-.45,4.93-1.11,7.02-1.19,1.16-.04,2.49,.1,3.72,.43l15.85-17.2c1.97-.13,4-.68,5.83-1.26,1.2-.39,2.49-.76,3.74-.69-3.96,8.17-9.43,20.22-12.51,30.33,.55,.37,1.1,.73,1.66,1.07,2.32,1.43,4.59,2.38,6.95,2.89l6.6-33.34c1.24,.64,2.51,1.26,3.81,1.79,1.2,13.46,.11,25.95-.48,31.15,.1-.03,.21-.06,.3-.09,.94-.35,1.62-1.42,2.58-1.7,.48-.13,.94-.25,1.4-.35,.39-13.46-2.21-24.54-3.39-28.84,.37,.15,.74,.29,1.11,.42,1.1,.39,2.19,.4,3.33,.55,.19,.03,.38,.06,.57,.09,1.48,15.9,.92,24.08,.92,24.08l2.37-4.75c.2-5.69-.66-12.75-1.73-19.08,.6,.07,1.21,.1,1.87-.02,1.46-.25,2.9-.42,4.25-.73,2.78,10.96,4.9,22.06,5.9,27.6,3.03-.5,5.57-2.17,7.57-4.54-2.33-9.14-5.9-17.8-9.38-24.94,.5-.42,.97-.93,1.4-1.55,.04-.06,.07-.12,.11-.18,4.41,10.48,7.37,19.84,8.94,25.28,.72-1.06,1.35-2.22,1.88-3.46-2.67-8.78-6.45-17.12-10.02-23.95,.13-.58,.23-1.17,.38-1.74,.29-1.09,.09-2.24,.45-3.31,.11-.32,.25-.6,.41-.86,6.28,9.85,10.24,18.76,11.55,21.89,.07-.12,.14-.24,.22-.35,.89-1.23,1.86-2.09,2.81-2.81-4.56-8.31-12.07-16.44-14.45-18.93,1.19-1.67,3.43-1.95,5.09-3.11,.49,.3,.98,.61,1.46,.92,2.91,3.23,9.13,10.38,12.76,16.44,.42-.92,.71-2.05,.81-3.55,.03-.39,.08-.76,.15-1.12-.38-.51-.76-1.02-1.15-1.52Zm-65.47-3.77s-16.37,6.01-27.33,19.54c.16,.5,.34,.98,.56,1.43,.71,1.42,1.91,2.67,3.44,3.13,.66,.19,1.38,.28,2.12,.3,2.95-4.96,10.02-15.53,21.21-24.4Zm-3.21,25c.52,.53,.98,1.16,1.43,1.79,2.32-3.52,5.23-7.74,7.49-10.32,0,0-4.35,2.69-8.91,8.53Zm-8.19-23.09s-8.48,1.79-16.44,8.73c0,.05-.01,.09-.02,.14-.15,1.33-.23,2.81-.18,4.29,3.48-3.64,9.66-9.46,16.65-13.16Zm48.4,32.55c.45,.04,.91,.11,1.38,.25,.51,.15,1.02,.27,1.52,.37-.53-11.78-4.43-24.93-4.43-24.93,2.33,8.41,1.92,19.21,1.53,24.31Zm25.2-20.81c.66-.46,1.29-.92,1.86-1.45-4.42-6.01-9.59-11.55-9.59-11.55,2.46,3.87,5.52,9.11,7.74,13Zm-61.99,15.69c1.2,1.23,2.53,2.37,3.92,3.43,1.08-4.43,3.14-11.35,6.63-17.56,0,0-6.3,4.98-10.56,14.13Zm21.62,9.27l.97-20.87s-2.3,11.83-3.59,21.05c.85,0,1.73-.07,2.62-.18Z"/>
        </g>
        <g>
          <path class="cls-58" d="M173.11,25.48s13.93,8.87,21.53,34.83c9.21,31.48,6.02,57.63,6.02,57.63,0,0,4.43-35.15-2.53-58.9,0,0-3.17-18.68-25.02-33.57Z"/>
          <path class="cls-49" d="M183.72,47.49s14.25,21.38,4.75,66.97c0,0,2.38-32.77-4.75-66.97Z"/>
          <path class="cls-53" d="M174.22,44.64s12.82,18.52,12.82,50.82c0,0-3.32-27.55-12.82-50.82Z"/>
          <path class="cls-8" d="M193.22,62.69s7.6,20.42,.48,49.87c0,0,3.33-22.32-.48-49.87Z"/>
          <path class="cls-72" d="M171.84,54.62s7.12,15.67,4.28,37.05c0,0-1.43-18.53-4.28-37.05Z"/>
          <path class="cls-21" d="M194.64,125.87s1.9,11.87,7.12,20.9c5.22,9.02,15.2,27.55,18.05,42.75,0,0-5.7-17.57-13.78-30.4-8.07-12.82-11.88-21.38-11.4-33.25Z"/>
          <path class="cls-57" d="M23.64,260.77s.16-.63,.43-1.91c1.02-4.87,3.57-19.12,4.32-43.21,.95-30.4,3.32-55.57,3.32-55.57,0,0-4.75,49.4-5.7,64.6-.95,15.2-6.65,46.55-6.65,46.55l4.28-10.45Z"/>
          <path class="cls-15" d="M45.02,262.19s2.38-21.38,2.85-40.85-.95-56.05-.95-56.05c0,0-1.43,51.3-1.9,63.65-.48,12.35,0,33.25,0,33.25Z"/>
          <path class="cls-62" d="M33.62,94.99s.95-20.42,9.03-39.9c0,0-4.28,16.15-4.75,24.7l-4.28,15.2Z"/>
        </g>
        <g>
          <path class="cls-80" d="M33.12,273.98c-7.24,1.45-14.36,1.54-21.36,4.18-3.45,1.31-7.25,2.83-10.23,5.03-1.07,.79-1.38,1.71-.59,.25,4.05-7.52,7.32-15.52,10.14-23.57,4.97-14.2,8.26-28.89,9.98-43.83,1.87-16.33,2.23-32.81,2.3-49.23,.13-30.12-2.3-61.34,5.32-90.81,7.11-27.46,24.3-54.46,50.57-66.86C90.17,3.98,102.2,1.2,114.25,.67c9.79-.43,19.93,.49,29.2,3.83,1.87,.67,3.69,1.47,5.44,2.39,.32,.17,.61-.32,.29-.49-7.1-3.76-15.26-5.4-23.21-6.07-10.31-.87-20.81,.04-30.84,2.56-10.97,2.76-21.47,7.55-30.48,14.45-10.61,8.12-19.13,19.25-25.59,30.87-12.87,23.15-15.92,49.52-16.29,75.59-.44,31.28,1.31,62.73-2.45,93.87-2.72,22.53-9,45.38-19.73,65.48-.19,.35-.37,.7-.57,1.04-.1,.18,.11,.42,.3,.3,5.26-3.44,11.02-6.12,17.1-7.76,5.14-1.39,10.54-1.46,15.74-2.56,.12-.02,.07-.2-.05-.18Z"/>
          <path class="cls-45" d="M165.67,278.05c-9.35-.02-25.29-4.53-20.19-17.11,3.06-7.55,11.94-11.94,18.44-16.04,8.08-5.09,15.37-10.61,21.19-18.29,5.51-7.27,8.11-15.33,9.3-24.27,.04-.28-.45-.34-.49-.07-1.43,9.24-4.08,17.45-9.96,24.89-6.69,8.46-15.26,13.97-24.23,19.68-5.91,3.76-13.63,8.36-15.39,15.71-1.49,6.24,2.2,11.05,7.74,13.44,3.9,1.68,8.38,2.5,12.66,2.61-1.72,1.17-3.48,2.53-5.4,3.24-2.91,1.07-6.27,1.25-9.34,1.44-.31,.02-.4,.47-.08,.55,.87,.24,1.74,.47,2.61,.71,.65,.18,1.3,.37,1.95,.53,1,.25,.14,.06-.57,.27-2.07,.62-4.03,1.64-6.12,2.26-.93,.27-2.55,1.04-3.54,.92-1.58-.19-4.02-2.48-5.15-3.48-1.53-1.35-2.84-2.94-3.83-4.72-1.78-3.19-2.42-6.88-2.1-10.51,1.78-19.92,23.91-26.66,37.65-36.71,7.57-5.54,14.26-13.19,15.28-22.85,.01-.11-.16-.11-.17,0-2.43,21.48-27.56,27.65-41.72,39.44-9.54,7.95-16.58,23.31-7.11,34.06,1.6,1.82,5.06,5.27,7.58,5.21,1.41-.04,3.09-.78,4.43-1.2,2.15-.68,4.25-1.48,6.25-2.54,.21-.11,.16-.44-.06-.5-1.2-.33-2.4-.66-3.6-.98,2.63-.18,5.38-.46,7.8-1.34,2.26-.83,4.3-2.52,6.32-3.81,.24-.15,.15-.54-.14-.54Z"/>
          <path class="cls-80" d="M217.51,171.13c-1.95-9.93-3.69-19.86-4.59-29.95-.9-10.06-1.29-20.16-2.08-30.23-1.52-19.16-3.45-39.69-13.81-56.35-1.44-3.85-3.23-7.59-5.47-11.25-5.17-8.45-11.95-15.91-19.62-22.16-6.07-4.94-12.92-9.61-20.42-12.07-.47-.15-.68,.59-.21,.74,7.92,2.6,15.2,7.88,21.47,13.23,8.76,7.48,16.33,16.55,21.36,26.96,6.4,13.23,7.23,28.27,7.46,42.74,.16,9.81-.27,19.72-1.78,29.42-.09,.57-.06,1.93-.41,2.4-.51,.68-5.04,.15-6.2-.14-2.93-.74-5.59-1.78-8.67-2.02-1.83-.14-3.7-.17-5.54,0v-1.82c0-.23-.16-.42-.38-.49-1.8-.58-3.88-.63-5.74-.64-5.68-.04-11.08,1.36-16.64,2.27-8.59,1.4-17.51,1.66-26.2,1.19-.28-.02-.52,.25-.52,.52,0,.52,.03,1.56-.06,1.63-.28,.24-2.62,.18-3.27,.22-2.29,.12-4.58,.06-6.87-.07-2.72-.16-5.44-.41-8.14-.79l.37-1.95c.07-.36-.15-.63-.51-.66-1.63-.17-6.36-.37-7.56-2.08-.41-.58,.28-2.1,.43-2.96,.28-1.65,.52-3.3,.72-4.96,.89-7.26,1.1-14.61,.89-21.92-.22-8.02-.84-16.14-2.21-24.06-.09-.5-.9-.49-1,0-1.32,6.68-2.09,13.46-3.58,20.1-.67,3.01-1.35,6.03-2.16,9-.83,3.05-2.09,5.81-3.34,8.7-1.12,2.58-2.22,5.16-3.32,7.75-1.23,2.89-2.1,5.61-2.94,8.62-.38,1.34-.79,2.71-1.21,4.03-.21,.66,.1,.57-.42,.92-.68,.46-1.43-.34-2.08-.6-1.02-.42-1.68-.47-2.79-.47-.24,.02-.49,.04-.73,.06-.9,.13-1.07-.1-.51-.68,.1-.63,1.03-1.63,1.4-2,.18-.18,.05-.53-.21-.52-1.82,.06-3.53-.56-5.34-.54-1.57,.01-3.63,.7-5.01-.38-.1-6.82-.18-13.64-.03-20.45,.47-21.08,2.39-44.04,15.54-61.44,12.12-16.03,31.26-24.35,50.72-27.16,.39-.06,.3-.75-.09-.7-17.38,2.31-34.42,8.94-46.74,21.78-14.27,14.88-18.44,34.95-19.92,54.89-.97,12.95-.6,25.91-.49,38.88,.12,13.29-.06,26.58-.13,39.87-.13,26.59,.24,53.31,4.28,79.65,1.42,9.27,2.5,18.69,4.87,27.78,1.49,5.7,3.61,11.89,7.38,16.61-.76-.53-1.52-1.06-2.27-1.6-2.42-1.75-4.78-3.61-6.91-5.71-1.25-1.23-2.22-2.69-3.57-3.78-.87-.71-1.75-1.39-2.62-2.1-.97-.79-2.81-1.8-3.47-2.81-.33-.5-.38-1.53-.52-2.1-.97-3.97-1.86-7.97-2.68-11.97-2.66-12.9-4.75-26.02-5.11-39.21-.32-11.79,.11-23.6,.41-35.39,.42-16.6,.78-33.25-.2-49.84,0-.06-.1-.06-.1,0,.13,15.42,.12,30.83-.35,46.25-.37,12.18-.94,24.37-.8,36.56,.15,13.29,2,26.47,4.55,39.49,.87,4.48,1.84,8.95,2.9,13.4,.22,.92,.32,2.06,.72,2.92,.71,1.56,2.98,2.84,4.3,3.92,3.8,3.09,6.86,6.83,10.78,9.85,3.35,2.59,6.9,4.98,10.58,7.09,.68,.39,1.28-.65,.61-1.05-7.09-4.2-10.25-12.73-12.28-20.29-2.02-7.52-2.97-15.25-4.16-22.92-3.88-25.06-5.09-50.15-5.13-75.49-.02-12.68,.13-25.36,.12-38.04,0-5.52-.1-11.05-.18-16.57,.96,.73,2.26,.7,3.45,.65,2.13-.08,4.15,.46,6.24,.53-.67,.82-1.14,1.77-1.73,2.66-.1,.16,0,.43,.19,.47,.79,.13,1.45,.05,2.24,.07,1.09,.03,2.02,.31,3.05,.7,.94,.36,1.63,.69,2.67,.55,.14-.02,.27-.2,.25-.33-.2-2.26,1.07-4.62,1.6-6.8,.69-2.84,1.88-5.53,3.12-8.18,1.97-4.24,4.12-8.54,5.56-12.99,2.99-9.26,4.27-18.94,6.05-28.48,1.25,8.38,1.74,16.94,1.77,25.38,.03,8.27-.75,16.36-2.07,24.51-.2,1.21-.09,1.43,.93,2.07,2.05,1.27,4.65,1.61,7.03,1.86-.12,.64-.24,1.29-.36,1.93-.05,.25,.07,.6,.37,.65,6.39,.94,13.37,1.74,19.75,.47,.22-.04,.38-.29,.38-.5,0-.45,0-.9,0-1.36,8.74,.44,17.7,.14,26.32-1.32,5.86-.99,11.58-2.45,17.58-2.13,1.2,.06,2.36,.25,3.54,.46t0,0c.06,.64-.03,1.36-.03,1.98,0,.25,.24,.54,.51,.51,3.63-.41,7.51-.17,11.03,.78,.88,.24,1.74,.5,2.6,.74,.07,2.38,.37,4.73,.4,7.12,.04,2.69,.33,5.22,.8,7.86,1,5.56,2.52,10.85,4.27,16.21,3.38,10.36,6.75,20.75,9.03,31.42,4.21,19.73,5.25,43.17-7.38,60.15-6.51,8.75-15.6,15.57-26.11,18.66-.59,.17-.35,1.07,.25,.92,17.43-4.19,32.07-20.6,35.5-37.97,4.43-22.45-.81-44.65-7.65-66.02-1.97-6.14-4.27-12.22-5.77-18.5-1.55-6.51-2.55-13.1-3.03-19.77,2.46,.68,4.9,1.15,7.56,.26,.16-.05,.32-.18,.35-.35,.93-4.58,1.36-9.29,1.72-13.94,.93-12.22,.68-24.54-.6-36.72-.62-5.92-1.72-11.58-3.49-17.03,7.31,14.74,9.44,31.3,11.03,47.54,1.83,18.74,1.96,37.56,5.33,56.13,2.64,14.57,6.4,28.99,6.97,43.85,.45,11.63-.5,23.54-4.04,34.68-3.91,12.33-11.61,23.4-24.16,27.95-.4,.15-.24,.79,.18,.65,23.13-7.41,28.8-35.41,29.17-56.67,.24-13.73-2.31-26.94-4.95-40.36Zm-39.34-50.05c.19,.05,.11,.08,0,0h0Z"/>
        </g>
      </g>
    </g>
  </g>
</svg>